<?xml version="1.0" encoding="utf-8"?>
<!-- Generator: Adobe Illustrator 18.0.0, SVG Export Plug-In . SVG Version: 6.00 Build 0)  -->
<!DOCTYPE svg PUBLIC "-//W3C//DTD SVG 1.1//EN" "http://www.w3.org/Graphics/SVG/1.1/DTD/svg11.dtd">
<svg version="1.1" id="Layer_1" xmlns="http://www.w3.org/2000/svg" xmlns:xlink="http://www.w3.org/1999/xlink" x="0px" y="0px"
	 viewBox="0 0 135 30" width="135" height="30"  enable-background="new 0 0 135 30" xml:space="preserve">
<path fill="#FF6700" d="M83,12l-11-1L68,0l-4,11l-11,1l9,7l-3,11l9-7l9,7l-3-11L83,12z M69.2,21.4l-1.2-1l-1.2,1l-4.3,3.3l1.4-5.2
	l0.4-1.3l-1.1-0.8l-5-3.9l6-0.5l1.3-0.1l0.4-1.2L68,5.9l2.1,5.8l0.4,1.2l1.3,0.1l6,0.5l-5,3.9l-1.1,0.8l0.4,1.3l1.4,5.2L69.2,21.4z"
	/>
<path fill="#FF6700" d="M19,3c-2.6,0-4.8,1.4-6,3.4C11.8,4.4,9.6,3,7,3c-3.9,0-7,3.1-7,7c0,1.9,0.8,3.7,2,5c2.8,2.9,11,12,11,12
	s8.2-9.1,11-12c1.2-1.3,2-3.1,2-5C26,6.1,22.9,3,19,3z M22.6,13.6c-2.1,2.2-7.1,7.6-9.6,10.4c-2.5-2.8-7.5-8.2-9.6-10.4
	C2.5,12.6,2,11.4,2,10c0-2.8,2.2-5,5-5c1.8,0,3.4,0.9,4.3,2.4l1.7,2.9l1.7-2.9C15.6,5.9,17.2,5,19,5c2.8,0,5,2.2,5,5
	C24,11.4,23.5,12.6,22.6,13.6z"/>
<g>
	<g>
		<polygon fill="#FF6700" points="121.5,12.6 119.2,10.3 117.8,11.7 121.5,15.4 128.2,8.7 126.8,7.3 		"/>
	</g>
	<g>
		<path fill="#FF6700" d="M134,11c0-6.1-4.9-11-11-11c-6.1,0-11,4.9-11,11c0,4.2,2.4,7.9,5.8,9.7L117,30l6-4l6,4l-0.8-9.3
			C131.6,18.9,134,15.2,134,11z M123,20c-5,0-9-4-9-9s4-9,9-9s9,4,9,9S128,20,123,20z"/>
	</g>
</g>
</svg>
