<?xml version="1.0" encoding="utf-8"?>
<!-- Generator: Adobe Illustrator 18.0.0, SVG Export Plug-In . SVG Version: 6.00 Build 0)  -->
<!DOCTYPE svg PUBLIC "-//W3C//DTD SVG 1.1//EN" "http://www.w3.org/Graphics/SVG/1.1/DTD/svg11.dtd">
<svg version="1.1" id="Layer_1" xmlns="http://www.w3.org/2000/svg" xmlns:xlink="http://www.w3.org/1999/xlink" x="0px" y="0px"
	 viewBox="0 0 135 30" width="135" height="30"  enable-background="new 0 0 135 30" xml:space="preserve">
<g>
	<path fill="#FF6700" d="M63.1,22c2.8,0,5-2.2,5-5s-2.2-5-5-5c-2.8,0-5,2.2-5,5S60.4,22,63.1,22z M63.1,14c1.7,0,3,1.3,3,3
		s-1.3,3-3,3c-1.7,0-3-1.3-3-3S61.5,14,63.1,14z"/>
	<path fill="#FF6700" d="M74.1,17c0,2.8,2.2,5,5,5c2.8,0,5-2.2,5-5s-2.2-5-5-5C76.4,12,74.1,14.2,74.1,17z M79.1,14c1.7,0,3,1.3,3,3
		s-1.3,3-3,3c-1.7,0-3-1.3-3-3S77.5,14,79.1,14z"/>
	<path fill="#FF6700" d="M76.1,6c0-2.8-2.2-5-5-5c-2.8,0-5,2.2-5,5s2.2,5,5,5C73.9,11,76.1,8.8,76.1,6z M71.1,9c-1.7,0-3-1.3-3-3
		s1.3-3,3-3c1.7,0,3,1.3,3,3S72.8,9,71.1,9z"/>
	<path fill="#FF6700" d="M67.1,24h-8c-1.1,0-2,0.9-2,2v3h12v-3C69.1,24.9,68.2,24,67.1,24z"/>
	<path fill="#FF6700" d="M83.1,24h-8c-1.1,0-2,0.9-2,2v3h12v-3C85.1,24.9,84.2,24,83.1,24z"/>
</g>
<g>
	<path fill="#FF6700" d="M21,8c2.2,0,4-1.8,4-4s-1.8-4-4-4s-4,1.8-4,4S18.8,8,21,8z M21,2c1.1,0,2,0.9,2,2c0,1.1-0.9,2-2,2
		s-2-0.9-2-2C19,2.9,19.9,2,21,2z"/>
	<path fill="#FF6700" d="M24,10h-6l-5,5l-5-5H2c-1.1,0-2,0.9-2,2v8l2,2v7c0,0.6,0.4,1,1,1h4c0.6,0,1-0.4,1-1V15l5,5l5-5v14
		c0,0.6,0.4,1,1,1h4c0.6,0,1-0.4,1-1v-7l2-2v-8C26,10.9,25.1,10,24,10z"/>
	<path fill="#FF6700" d="M5,8c2.2,0,4-1.8,4-4S7.2,0,5,0S1,1.8,1,4S2.8,8,5,8z M5,2c1.1,0,2,0.9,2,2c0,1.1-0.9,2-2,2S3,5.1,3,4
		C3,2.9,3.9,2,5,2z"/>
</g>
<g>
	<path fill="#FF6700" d="M129.2,8c2.2,0,4-1.8,4-4s-1.8-4-4-4s-4,1.8-4,4S127,8,129.2,8z M129.2,2c1.1,0,2,0.9,2,2s-0.9,2-2,2
		c-1.1,0-2-0.9-2-2S128.1,2,129.2,2z"/>
	<path fill="#FF6700" d="M132.2,10h-6c-1.1,0-2,0.9-2,2v8l2,2v7c0,0.6,0.4,1,1,1h4c0.6,0,1-0.4,1-1v-7l2-2v-8
		C134.2,10.9,133.3,10,132.2,10z"/>
</g>
</svg>
