<?xml version="1.0" encoding="utf-8"?>
<!-- Generator: Adobe Illustrator 17.1.0, SVG Export Plug-In . SVG Version: 6.00 Build 0)  -->
<!DOCTYPE svg PUBLIC "-//W3C//DTD SVG 1.1//EN" "http://www.w3.org/Graphics/SVG/1.1/DTD/svg11.dtd">
<svg version="1.1" xmlns="http://www.w3.org/2000/svg" xmlns:xlink="http://www.w3.org/1999/xlink" x="0px" y="0px"
	 viewBox="0 0 304 368" width="304" height="368"  enable-background="new 0 0 304 368" xml:space="preserve">
<g id="Layer_1">
	<g>
		<g>
			<rect x="-0.232" y="58.5" fill="#ECECEC" width="304" height="310"/>
		</g>
		<g>
			<path fill="#323232" d="M35.809,82.798c0.87,0,1.653,0.141,2.352,0.421c0.697,0.281,1.295,0.666,1.793,1.155
				s0.879,1.056,1.142,1.698c0.263,0.644,0.395,1.337,0.395,2.08c0,1.141-0.24,2.129-0.721,2.962
				c-0.48,0.834-1.264,1.468-2.351,1.902v0.055c0.525,0.146,0.96,0.367,1.305,0.666c0.344,0.299,0.625,0.652,0.843,1.06
				c0.217,0.408,0.375,0.856,0.476,1.346c0.099,0.489,0.167,0.979,0.203,1.468c0.019,0.308,0.036,0.67,0.055,1.087
				c0.018,0.417,0.05,0.843,0.095,1.277s0.118,0.847,0.218,1.236s0.249,0.721,0.448,0.992h-4.267
				c-0.236-0.616-0.381-1.35-0.435-2.201c-0.055-0.852-0.137-1.667-0.245-2.446c-0.146-1.015-0.453-1.757-0.924-2.229
				c-0.472-0.471-1.241-0.707-2.311-0.707h-4.267v7.583h-4.268V82.798H35.809z M34.288,91.576c0.979,0,1.712-0.217,2.201-0.652
				c0.489-0.435,0.733-1.142,0.733-2.12c0-0.941-0.244-1.626-0.733-2.052s-1.223-0.639-2.201-0.639h-4.675v5.463H34.288z"/>
			<path fill="#323232" d="M48.691,98.833c0.58,0.562,1.413,0.843,2.501,0.843c0.778,0,1.449-0.194,2.011-0.585
				c0.562-0.389,0.906-0.802,1.033-1.236h3.396c-0.543,1.686-1.377,2.891-2.5,3.615c-1.124,0.725-2.482,1.087-4.077,1.087
				c-1.105,0-2.102-0.177-2.989-0.53s-1.64-0.856-2.256-1.509c-0.616-0.651-1.092-1.431-1.427-2.337
				c-0.336-0.905-0.503-1.902-0.503-2.989c0-1.051,0.172-2.029,0.517-2.936c0.344-0.906,0.833-1.689,1.468-2.351
				c0.634-0.661,1.39-1.183,2.27-1.563c0.878-0.38,1.852-0.57,2.921-0.57c1.196,0,2.238,0.23,3.126,0.693
				c0.888,0.462,1.617,1.082,2.188,1.861c0.571,0.779,0.983,1.667,1.237,2.663c0.253,0.997,0.344,2.039,0.271,3.126H47.74
				C47.795,97.365,48.111,98.271,48.691,98.833z M53.053,91.44c-0.462-0.507-1.164-0.761-2.106-0.761
				c-0.616,0-1.128,0.104-1.535,0.312c-0.408,0.208-0.734,0.467-0.979,0.774c-0.245,0.309-0.417,0.635-0.517,0.979
				c-0.1,0.345-0.159,0.652-0.177,0.924h6.278C53.837,92.69,53.515,91.948,53.053,91.44z"/>
			<path fill="#323232" d="M73.437,103.236c-0.154,0.724-0.484,1.399-0.992,2.024c-0.507,0.625-1.241,1.155-2.201,1.59
				c-0.961,0.435-2.247,0.652-3.859,0.652c-0.688,0-1.391-0.086-2.106-0.258c-0.716-0.173-1.368-0.439-1.957-0.802
				c-0.589-0.363-1.078-0.829-1.467-1.4c-0.391-0.57-0.612-1.255-0.666-2.052h3.832c0.181,0.725,0.534,1.228,1.06,1.509
				c0.525,0.28,1.133,0.421,1.821,0.421c1.087,0,1.88-0.326,2.378-0.979s0.738-1.477,0.721-2.473v-1.849h-0.055
				c-0.417,0.743-1.011,1.291-1.78,1.645c-0.771,0.354-1.581,0.53-2.433,0.53c-1.051,0-1.957-0.186-2.718-0.558
				c-0.761-0.371-1.386-0.879-1.875-1.522c-0.489-0.643-0.848-1.395-1.074-2.255s-0.339-1.771-0.339-2.731
				c0-0.906,0.131-1.78,0.394-2.623s0.647-1.585,1.155-2.229c0.507-0.644,1.137-1.155,1.889-1.536c0.752-0.38,1.617-0.57,2.596-0.57
				c0.924,0,1.734,0.172,2.433,0.517c0.697,0.344,1.281,0.924,1.753,1.739H70v-1.875h3.669v13.154
				C73.669,101.868,73.591,102.511,73.437,103.236z M68.151,98.562c0.417-0.218,0.761-0.508,1.033-0.87
				c0.271-0.362,0.476-0.774,0.611-1.236S70,95.509,70,95.001c0-0.58-0.055-1.128-0.163-1.645c-0.109-0.517-0.29-0.974-0.544-1.372
				s-0.589-0.716-1.006-0.951s-0.942-0.354-1.576-0.354c-0.544,0-1.01,0.108-1.399,0.326c-0.39,0.217-0.716,0.512-0.979,0.883
				c-0.263,0.372-0.453,0.798-0.571,1.277c-0.117,0.48-0.176,0.983-0.176,1.509c0,0.508,0.049,1.01,0.149,1.508
				c0.099,0.499,0.271,0.947,0.516,1.346c0.245,0.398,0.566,0.725,0.965,0.979s0.897,0.381,1.495,0.381
				C67.255,98.888,67.734,98.778,68.151,98.562z"/>
			<path fill="#323232" d="M76.875,85.978v-3.18h3.859v3.18H76.875z M80.734,88.152v14.051h-3.859V88.152H80.734z"/>
			<path fill="#323232" d="M87.026,98.711c0.172,0.299,0.394,0.543,0.665,0.733c0.272,0.19,0.585,0.331,0.938,0.422
				c0.353,0.091,0.72,0.136,1.101,0.136c0.271,0,0.557-0.031,0.855-0.096c0.3-0.062,0.571-0.163,0.815-0.299
				c0.245-0.136,0.449-0.316,0.612-0.543s0.244-0.512,0.244-0.856c0-0.58-0.385-1.015-1.155-1.305s-1.844-0.58-3.221-0.87
				c-0.562-0.126-1.109-0.275-1.644-0.448c-0.535-0.172-1.011-0.398-1.428-0.68c-0.417-0.28-0.752-0.634-1.005-1.06
				c-0.254-0.426-0.381-0.946-0.381-1.562c0-0.906,0.177-1.648,0.53-2.229s0.819-1.037,1.399-1.373
				c0.58-0.335,1.232-0.57,1.957-0.706c0.725-0.137,1.468-0.204,2.229-0.204s1.499,0.072,2.215,0.218
				c0.716,0.145,1.354,0.39,1.916,0.733c0.562,0.345,1.028,0.802,1.4,1.372c0.371,0.571,0.593,1.291,0.665,2.161h-3.669
				c-0.054-0.743-0.335-1.245-0.843-1.509c-0.507-0.262-1.104-0.394-1.793-0.394c-0.218,0-0.453,0.014-0.707,0.041
				c-0.254,0.026-0.485,0.086-0.693,0.176c-0.208,0.092-0.385,0.223-0.529,0.395c-0.146,0.173-0.218,0.403-0.218,0.693
				c0,0.344,0.127,0.625,0.381,0.842c0.253,0.218,0.584,0.395,0.991,0.53c0.408,0.136,0.874,0.259,1.4,0.367
				c0.525,0.108,1.06,0.227,1.604,0.354c0.562,0.127,1.109,0.281,1.645,0.462c0.534,0.181,1.01,0.421,1.427,0.72
				c0.416,0.299,0.751,0.671,1.005,1.114c0.254,0.444,0.381,0.992,0.381,1.645c0,0.924-0.186,1.699-0.558,2.324
				c-0.371,0.625-0.855,1.128-1.453,1.508c-0.599,0.381-1.282,0.648-2.053,0.802c-0.771,0.154-1.554,0.231-2.351,0.231
				c-0.815,0-1.613-0.082-2.392-0.245c-0.779-0.163-1.473-0.435-2.079-0.815c-0.607-0.38-1.105-0.883-1.495-1.508
				s-0.603-1.409-0.639-2.352h3.669C86.767,98.054,86.853,98.412,87.026,98.711z"/>
			<path fill="#323232" d="M106.091,88.152v2.581h-2.827v6.958c0,0.652,0.109,1.087,0.326,1.305
				c0.218,0.218,0.652,0.326,1.305,0.326c0.218,0,0.426-0.009,0.625-0.027c0.199-0.018,0.39-0.045,0.571-0.081v2.989
				c-0.326,0.055-0.689,0.091-1.087,0.108c-0.399,0.019-0.789,0.027-1.169,0.027c-0.598,0-1.165-0.041-1.699-0.122
				c-0.534-0.082-1.005-0.24-1.413-0.476c-0.407-0.235-0.729-0.571-0.965-1.006s-0.354-1.006-0.354-1.712v-8.29h-2.337v-2.581h2.337
				v-4.213h3.859v4.213H106.091z"/>
			<path fill="#323232" d="M112.07,98.833c0.58,0.562,1.413,0.843,2.501,0.843c0.778,0,1.449-0.194,2.011-0.585
				c0.562-0.389,0.906-0.802,1.033-1.236h3.396c-0.543,1.686-1.377,2.891-2.5,3.615c-1.124,0.725-2.482,1.087-4.077,1.087
				c-1.105,0-2.102-0.177-2.989-0.53s-1.64-0.856-2.256-1.509c-0.616-0.651-1.092-1.431-1.427-2.337
				c-0.336-0.905-0.503-1.902-0.503-2.989c0-1.051,0.172-2.029,0.517-2.936c0.344-0.906,0.833-1.689,1.468-2.351
				c0.634-0.661,1.39-1.183,2.27-1.563c0.878-0.38,1.852-0.57,2.921-0.57c1.196,0,2.238,0.23,3.126,0.693
				c0.888,0.462,1.617,1.082,2.188,1.861c0.571,0.779,0.983,1.667,1.237,2.663c0.253,0.997,0.344,2.039,0.271,3.126h-10.138
				C111.174,97.365,111.49,98.271,112.07,98.833z M116.432,91.44c-0.462-0.507-1.164-0.761-2.106-0.761
				c-0.616,0-1.128,0.104-1.535,0.312c-0.408,0.208-0.734,0.467-0.979,0.774c-0.245,0.309-0.417,0.635-0.517,0.979
				c-0.1,0.345-0.159,0.652-0.177,0.924h6.278C117.216,92.69,116.894,91.948,116.432,91.44z"/>
			<path fill="#323232" d="M127.209,88.152v2.608h0.055c0.181-0.435,0.425-0.838,0.733-1.209c0.308-0.371,0.661-0.688,1.061-0.951
				c0.397-0.263,0.824-0.467,1.277-0.611c0.452-0.146,0.924-0.218,1.413-0.218c0.253,0,0.534,0.045,0.842,0.136v3.588
				c-0.181-0.036-0.398-0.068-0.651-0.096c-0.254-0.027-0.499-0.04-0.734-0.04c-0.706,0-1.305,0.117-1.794,0.353
				c-0.489,0.236-0.883,0.558-1.182,0.965c-0.299,0.408-0.513,0.884-0.639,1.427c-0.127,0.544-0.19,1.133-0.19,1.767v6.333h-3.859
				V88.152H127.209z"/>
		</g>
		<g>
			<rect x="23.471" y="154.312" fill="#777677" width="254.821" height="1.51"/>
		</g>
		<g>
			<path fill="#D74108" d="M63.217,133.283l3.628,9.703h-2.215l-0.733-2.161h-3.629l-0.761,2.161h-2.146l3.669-9.703H63.217z
				 M63.34,139.235l-1.223-3.56H62.09l-1.264,3.56H63.34z"/>
			<path fill="#D74108" d="M74.048,135.872c-0.127-0.203-0.285-0.383-0.476-0.536c-0.189-0.154-0.405-0.274-0.646-0.36
				s-0.491-0.129-0.754-0.129c-0.48,0-0.888,0.093-1.223,0.278c-0.336,0.186-0.607,0.435-0.815,0.747
				c-0.209,0.312-0.36,0.669-0.455,1.067c-0.096,0.398-0.144,0.811-0.144,1.236c0,0.407,0.048,0.804,0.144,1.189
				c0.095,0.385,0.246,0.731,0.455,1.039c0.208,0.309,0.479,0.555,0.815,0.74c0.335,0.187,0.742,0.279,1.223,0.279
				c0.652,0,1.162-0.199,1.529-0.599c0.366-0.398,0.591-0.924,0.672-1.576h2.066c-0.055,0.607-0.195,1.155-0.422,1.645
				s-0.525,0.906-0.896,1.25c-0.372,0.345-0.807,0.607-1.305,0.788c-0.498,0.182-1.047,0.272-1.645,0.272
				c-0.743,0-1.411-0.13-2.004-0.388c-0.594-0.258-1.095-0.613-1.502-1.066c-0.408-0.453-0.721-0.985-0.938-1.597
				c-0.218-0.612-0.326-1.271-0.326-1.978c0-0.725,0.108-1.397,0.326-2.018c0.217-0.621,0.529-1.162,0.938-1.624
				c0.407-0.462,0.908-0.824,1.502-1.088c0.593-0.263,1.261-0.394,2.004-0.394c0.534,0,1.04,0.077,1.516,0.23
				c0.476,0.154,0.901,0.379,1.277,0.673c0.376,0.295,0.686,0.659,0.931,1.094c0.244,0.436,0.398,0.934,0.462,1.495h-2.065
				C74.257,136.301,74.175,136.076,74.048,135.872z"/>
			<path fill="#D74108" d="M84.254,135.872c-0.127-0.203-0.285-0.383-0.476-0.536c-0.189-0.154-0.405-0.274-0.646-0.36
				s-0.491-0.129-0.754-0.129c-0.48,0-0.888,0.093-1.223,0.278c-0.336,0.186-0.607,0.435-0.815,0.747
				c-0.209,0.312-0.36,0.669-0.455,1.067c-0.096,0.398-0.144,0.811-0.144,1.236c0,0.407,0.048,0.804,0.144,1.189
				c0.095,0.385,0.246,0.731,0.455,1.039c0.208,0.309,0.479,0.555,0.815,0.74c0.335,0.187,0.742,0.279,1.223,0.279
				c0.652,0,1.162-0.199,1.529-0.599c0.366-0.398,0.591-0.924,0.672-1.576h2.066c-0.055,0.607-0.195,1.155-0.422,1.645
				s-0.525,0.906-0.896,1.25c-0.372,0.345-0.807,0.607-1.305,0.788c-0.498,0.182-1.047,0.272-1.645,0.272
				c-0.743,0-1.411-0.13-2.004-0.388c-0.594-0.258-1.095-0.613-1.502-1.066c-0.408-0.453-0.721-0.985-0.938-1.597
				c-0.218-0.612-0.326-1.271-0.326-1.978c0-0.725,0.108-1.397,0.326-2.018c0.217-0.621,0.529-1.162,0.938-1.624
				c0.407-0.462,0.908-0.824,1.502-1.088c0.593-0.263,1.261-0.394,2.004-0.394c0.534,0,1.04,0.077,1.516,0.23
				c0.476,0.154,0.901,0.379,1.277,0.673c0.376,0.295,0.686,0.659,0.931,1.094c0.244,0.436,0.398,0.934,0.462,1.495h-2.065
				C84.463,136.301,84.381,136.076,84.254,135.872z"/>
			<path fill="#D74108" d="M88.14,136.158c0.217-0.621,0.529-1.162,0.938-1.624c0.407-0.462,0.908-0.824,1.502-1.088
				c0.593-0.263,1.261-0.394,2.004-0.394c0.752,0,1.422,0.131,2.012,0.394c0.588,0.264,1.087,0.626,1.494,1.088
				c0.408,0.462,0.721,1.003,0.938,1.624c0.218,0.62,0.326,1.293,0.326,2.018c0,0.707-0.108,1.365-0.326,1.978
				c-0.217,0.611-0.529,1.144-0.938,1.597c-0.407,0.453-0.906,0.809-1.494,1.066c-0.59,0.258-1.26,0.388-2.012,0.388
				c-0.743,0-1.411-0.13-2.004-0.388c-0.594-0.258-1.095-0.613-1.502-1.066c-0.408-0.453-0.721-0.985-0.938-1.597
				c-0.218-0.612-0.326-1.271-0.326-1.978C87.814,137.451,87.923,136.778,88.14,136.158z M90.091,139.365
				c0.095,0.385,0.246,0.731,0.455,1.039c0.208,0.309,0.479,0.555,0.815,0.74c0.335,0.187,0.742,0.279,1.223,0.279
				s0.888-0.093,1.223-0.279c0.336-0.186,0.607-0.432,0.815-0.74c0.209-0.308,0.36-0.654,0.456-1.039
				c0.095-0.386,0.143-0.782,0.143-1.189c0-0.426-0.048-0.838-0.143-1.236c-0.096-0.398-0.247-0.755-0.456-1.067
				c-0.208-0.312-0.479-0.562-0.815-0.747c-0.335-0.186-0.742-0.278-1.223-0.278s-0.888,0.093-1.223,0.278
				c-0.336,0.186-0.607,0.435-0.815,0.747c-0.209,0.312-0.36,0.669-0.455,1.067c-0.096,0.398-0.144,0.811-0.144,1.236
				C89.947,138.583,89.995,138.979,90.091,139.365z"/>
			<path fill="#D74108" d="M106.078,142.246c-0.734,0.639-1.749,0.958-3.044,0.958c-1.314,0-2.331-0.317-3.051-0.951
				c-0.721-0.635-1.081-1.613-1.081-2.936v-6.034h2.134v6.034c0,0.263,0.022,0.521,0.068,0.774c0.045,0.254,0.14,0.478,0.285,0.673
				c0.145,0.194,0.347,0.354,0.604,0.476c0.259,0.122,0.604,0.184,1.04,0.184c0.761,0,1.286-0.17,1.576-0.51
				s0.435-0.872,0.435-1.597v-6.034h2.134v6.034C107.178,140.631,106.811,141.607,106.078,142.246z"/>
			<path fill="#D74108" d="M111.269,133.283l4.05,6.51h0.027v-6.51h1.997v9.703h-2.134l-4.035-6.496h-0.027v6.496h-1.998v-9.703
				H111.269z"/>
			<path fill="#D74108" d="M118.593,135.077v-1.794h7.949v1.794h-2.907v7.909h-2.134v-7.909H118.593z"/>
		</g>
		<g>
			<rect x="23.768" y="175.5" fill="#C7C7C7" width="70" height="15"/>
		</g>
		<g>
			<rect x="107.768" y="175.5" fill="#E0E0E0" width="155" height="15"/>
		</g>
		<g>
			<rect x="23.768" y="203.5" fill="#C7C7C7" width="73" height="16"/>
		</g>
		<g>
			<rect x="107.768" y="203.5" fill="#E0E0E0" width="149" height="16"/>
		</g>
		<g>
			<rect x="23.768" y="234.5" fill="#C7C7C7" width="69" height="15"/>
		</g>
		<g>
			<rect x="107.768" y="234.5" fill="#E0E0E0" width="162" height="15"/>
		</g>
		<g>
			<rect x="24.069" y="297.754" fill="#777677" width="254.821" height="1.51"/>
		</g>
		<g>
			<path fill="#5A5A5A" d="M63.511,276.726c0.606,0,1.123,0.089,1.549,0.266s0.772,0.41,1.04,0.699
				c0.267,0.29,0.462,0.621,0.584,0.992c0.122,0.372,0.184,0.757,0.184,1.155c0,0.39-0.062,0.772-0.184,1.148
				s-0.317,0.709-0.584,0.999c-0.268,0.29-0.614,0.522-1.04,0.699s-0.942,0.266-1.549,0.266h-2.242v3.479h-2.134v-9.703H63.511z
				 M62.927,281.292c0.244,0,0.479-0.018,0.706-0.055c0.227-0.036,0.426-0.106,0.598-0.21c0.173-0.104,0.311-0.252,0.415-0.442
				c0.104-0.189,0.156-0.438,0.156-0.747c0-0.308-0.053-0.557-0.156-0.747c-0.104-0.19-0.242-0.338-0.415-0.442
				c-0.172-0.104-0.371-0.174-0.598-0.21s-0.462-0.055-0.706-0.055h-1.658v2.908H62.927z"/>
			<path fill="#5A5A5A" d="M73.568,276.726c0.435,0,0.826,0.07,1.175,0.211s0.647,0.333,0.897,0.578
				c0.249,0.244,0.439,0.527,0.57,0.849c0.131,0.322,0.197,0.668,0.197,1.04c0,0.57-0.12,1.064-0.36,1.481
				c-0.24,0.416-0.632,0.733-1.176,0.951v0.026c0.263,0.073,0.48,0.184,0.652,0.333c0.173,0.149,0.312,0.326,0.422,0.53
				c0.108,0.204,0.188,0.428,0.237,0.673c0.05,0.244,0.084,0.489,0.103,0.733c0.009,0.154,0.018,0.336,0.026,0.544
				c0.01,0.208,0.025,0.421,0.048,0.639s0.059,0.424,0.109,0.618c0.049,0.195,0.124,0.36,0.224,0.496h-2.134
				c-0.117-0.308-0.189-0.675-0.217-1.101s-0.068-0.834-0.122-1.224c-0.073-0.507-0.227-0.878-0.463-1.114
				c-0.235-0.235-0.62-0.353-1.154-0.353h-2.134v3.791h-2.134v-9.703H73.568z M72.806,281.115c0.489,0,0.856-0.108,1.101-0.326
				c0.245-0.218,0.367-0.57,0.367-1.06c0-0.472-0.122-0.813-0.367-1.026c-0.244-0.213-0.611-0.319-1.101-0.319h-2.337v2.731H72.806z
				"/>
			<path fill="#5A5A5A" d="M78.187,279.601c0.217-0.621,0.529-1.162,0.938-1.624c0.407-0.462,0.908-0.824,1.502-1.088
				c0.593-0.263,1.261-0.394,2.004-0.394c0.752,0,1.422,0.131,2.012,0.394c0.588,0.264,1.087,0.626,1.494,1.088
				c0.408,0.462,0.721,1.003,0.938,1.624c0.218,0.62,0.326,1.293,0.326,2.018c0,0.707-0.108,1.365-0.326,1.978
				c-0.217,0.611-0.529,1.144-0.938,1.597c-0.407,0.453-0.906,0.809-1.494,1.066c-0.59,0.258-1.26,0.388-2.012,0.388
				c-0.743,0-1.411-0.13-2.004-0.388c-0.594-0.258-1.095-0.613-1.502-1.066c-0.408-0.453-0.721-0.985-0.938-1.597
				c-0.218-0.612-0.326-1.271-0.326-1.978C77.861,280.894,77.969,280.221,78.187,279.601z M80.137,282.808
				c0.095,0.385,0.246,0.731,0.455,1.039c0.208,0.309,0.479,0.555,0.815,0.74c0.335,0.187,0.742,0.279,1.223,0.279
				s0.888-0.093,1.223-0.279c0.336-0.186,0.607-0.432,0.815-0.74c0.209-0.308,0.36-0.654,0.456-1.039
				c0.095-0.386,0.143-0.782,0.143-1.189c0-0.426-0.048-0.838-0.143-1.236c-0.096-0.398-0.247-0.755-0.456-1.067
				c-0.208-0.312-0.479-0.562-0.815-0.747c-0.335-0.186-0.742-0.278-1.223-0.278s-0.888,0.093-1.223,0.278
				c-0.336,0.186-0.607,0.435-0.815,0.747c-0.209,0.312-0.36,0.669-0.455,1.067c-0.096,0.398-0.144,0.811-0.144,1.236
				C79.994,282.025,80.042,282.422,80.137,282.808z"/>
			<path fill="#5A5A5A" d="M95.813,276.726v1.794h-4.688v2.242h4.063v1.658h-4.063v4.009h-2.134v-9.703H95.813z"/>
			<path fill="#5A5A5A" d="M99.319,276.726v9.703h-2.134v-9.703H99.319z"/>
			<path fill="#5A5A5A" d="M103.464,276.726v7.909h4.729v1.794h-6.862v-9.703H103.464z"/>
			<path fill="#5A5A5A" d="M116.78,276.726v1.794h-5.123v2.079h4.702v1.658h-4.702v2.378h5.231v1.794h-7.365v-9.703H116.78z"/>
		</g>
		<g>
			<rect x="25.703" y="342.703" fill="#777677" width="254.821" height="1.51"/>
		</g>
		<g>
			<path fill="#5A5A5A" d="M65.578,321.675c0.606,0,1.123,0.089,1.549,0.266s0.772,0.41,1.04,0.699
				c0.267,0.29,0.462,0.621,0.584,0.992c0.122,0.372,0.184,0.757,0.184,1.155c0,0.39-0.062,0.772-0.184,1.148
				s-0.317,0.709-0.584,0.999c-0.268,0.29-0.614,0.522-1.04,0.699s-0.942,0.266-1.549,0.266h-2.242v3.479h-2.134v-9.703H65.578z
				 M64.994,326.241c0.244,0,0.479-0.018,0.706-0.055c0.227-0.036,0.426-0.106,0.598-0.21c0.173-0.104,0.311-0.252,0.415-0.442
				c0.104-0.189,0.156-0.438,0.156-0.747c0-0.308-0.053-0.557-0.156-0.747c-0.104-0.19-0.242-0.338-0.415-0.442
				c-0.172-0.104-0.371-0.174-0.598-0.21s-0.462-0.055-0.706-0.055h-1.658v2.908H64.994z"/>
			<path fill="#5A5A5A" d="M75.634,321.675c0.435,0,0.826,0.07,1.175,0.211s0.647,0.333,0.897,0.578
				c0.249,0.244,0.439,0.527,0.57,0.849c0.131,0.322,0.197,0.668,0.197,1.04c0,0.57-0.12,1.064-0.36,1.481
				c-0.24,0.416-0.632,0.733-1.176,0.951v0.026c0.263,0.073,0.48,0.184,0.652,0.333c0.173,0.149,0.312,0.326,0.422,0.53
				c0.108,0.204,0.188,0.428,0.237,0.673c0.05,0.244,0.084,0.489,0.103,0.733c0.009,0.154,0.018,0.336,0.026,0.544
				c0.01,0.208,0.025,0.421,0.048,0.639s0.059,0.424,0.109,0.618c0.049,0.195,0.124,0.36,0.224,0.496h-2.134
				c-0.117-0.308-0.189-0.675-0.217-1.101s-0.068-0.834-0.122-1.224c-0.073-0.507-0.227-0.878-0.463-1.114
				c-0.235-0.235-0.62-0.353-1.154-0.353h-2.134v3.791h-2.134v-9.703H75.634z M74.873,326.064c0.489,0,0.856-0.108,1.101-0.326
				c0.245-0.218,0.367-0.57,0.367-1.06c0-0.472-0.122-0.813-0.367-1.026c-0.244-0.213-0.611-0.319-1.101-0.319h-2.337v2.731H74.873z
				"/>
			<path fill="#5A5A5A" d="M87.605,321.675v1.794h-5.123v2.079h4.702v1.658h-4.702v2.378h5.231v1.794h-7.365v-9.703H87.605z"/>
			<path fill="#5A5A5A" d="M96.113,321.675v1.794h-4.688v2.242h4.063v1.658h-4.063v4.009h-2.134v-9.703H96.113z"/>
			<path fill="#5A5A5A" d="M104.741,321.675v1.794h-5.123v2.079h4.702v1.658h-4.702v2.378h5.231v1.794h-7.365v-9.703H104.741z"/>
			<path fill="#5A5A5A" d="M111.659,321.675c0.435,0,0.826,0.07,1.175,0.211s0.647,0.333,0.897,0.578
				c0.249,0.244,0.439,0.527,0.57,0.849c0.131,0.322,0.197,0.668,0.197,1.04c0,0.57-0.12,1.064-0.36,1.481
				c-0.24,0.416-0.632,0.733-1.176,0.951v0.026c0.263,0.073,0.48,0.184,0.652,0.333c0.173,0.149,0.312,0.326,0.422,0.53
				c0.108,0.204,0.188,0.428,0.237,0.673c0.05,0.244,0.084,0.489,0.103,0.733c0.009,0.154,0.018,0.336,0.026,0.544
				c0.01,0.208,0.025,0.421,0.048,0.639s0.059,0.424,0.109,0.618c0.049,0.195,0.124,0.36,0.224,0.496h-2.134
				c-0.117-0.308-0.189-0.675-0.217-1.101s-0.068-0.834-0.122-1.224c-0.073-0.507-0.227-0.878-0.463-1.114
				c-0.235-0.235-0.62-0.353-1.154-0.353h-2.134v3.791h-2.134v-9.703H111.659z M110.897,326.064c0.489,0,0.856-0.108,1.101-0.326
				c0.245-0.218,0.367-0.57,0.367-1.06c0-0.472-0.122-0.813-0.367-1.026c-0.244-0.213-0.611-0.319-1.101-0.319h-2.337v2.731H110.897
				z"/>
			<path fill="#5A5A5A" d="M123.631,321.675v1.794h-5.123v2.079h4.702v1.658h-4.702v2.378h5.231v1.794h-7.365v-9.703H123.631z"/>
			<path fill="#5A5A5A" d="M127.435,321.675l4.05,6.51h0.027v-6.51h1.997v9.703h-2.134l-4.035-6.496h-0.027v6.496h-1.998v-9.703
				H127.435z"/>
			<path fill="#5A5A5A" d="M141.744,324.264c-0.127-0.203-0.285-0.383-0.476-0.536c-0.189-0.154-0.405-0.274-0.646-0.36
				s-0.491-0.129-0.754-0.129c-0.48,0-0.888,0.093-1.223,0.278c-0.336,0.186-0.607,0.435-0.815,0.747
				c-0.209,0.312-0.36,0.669-0.455,1.067c-0.096,0.398-0.144,0.811-0.144,1.236c0,0.407,0.048,0.804,0.144,1.189
				c0.095,0.385,0.246,0.731,0.455,1.039c0.208,0.309,0.479,0.555,0.815,0.74c0.335,0.187,0.742,0.279,1.223,0.279
				c0.652,0,1.162-0.199,1.529-0.599c0.366-0.398,0.591-0.924,0.672-1.576h2.066c-0.055,0.607-0.195,1.155-0.422,1.645
				s-0.525,0.906-0.896,1.25c-0.372,0.345-0.807,0.607-1.305,0.788c-0.498,0.182-1.047,0.272-1.645,0.272
				c-0.743,0-1.411-0.13-2.004-0.388c-0.594-0.258-1.095-0.613-1.502-1.066c-0.408-0.453-0.721-0.985-0.938-1.597
				c-0.218-0.612-0.326-1.271-0.326-1.978c0-0.725,0.108-1.397,0.326-2.018c0.217-0.621,0.529-1.162,0.938-1.624
				c0.407-0.462,0.908-0.824,1.502-1.088c0.593-0.263,1.261-0.394,2.004-0.394c0.534,0,1.04,0.077,1.516,0.23
				c0.476,0.154,0.901,0.379,1.277,0.673c0.376,0.295,0.686,0.659,0.931,1.094c0.244,0.436,0.398,0.934,0.462,1.495h-2.065
				C141.953,324.692,141.871,324.468,141.744,324.264z"/>
			<path fill="#5A5A5A" d="M152.983,321.675v1.794h-5.123v2.079h4.702v1.658h-4.702v2.378h5.231v1.794h-7.365v-9.703H152.983z"/>
			<path fill="#5A5A5A" d="M156.299,328.986c0.117,0.227,0.273,0.41,0.469,0.55c0.194,0.141,0.424,0.245,0.687,0.313
				c0.263,0.067,0.534,0.102,0.815,0.102c0.19,0,0.394-0.016,0.611-0.048c0.218-0.031,0.421-0.093,0.611-0.184
				c0.19-0.09,0.349-0.215,0.476-0.373c0.127-0.159,0.19-0.36,0.19-0.605c0-0.263-0.084-0.476-0.251-0.639
				c-0.168-0.163-0.388-0.299-0.659-0.407c-0.272-0.108-0.58-0.204-0.925-0.285c-0.344-0.082-0.692-0.172-1.046-0.272
				c-0.362-0.09-0.716-0.201-1.06-0.333c-0.345-0.131-0.652-0.301-0.925-0.509c-0.271-0.209-0.491-0.469-0.659-0.781
				c-0.167-0.313-0.251-0.691-0.251-1.135c0-0.499,0.106-0.932,0.319-1.298c0.213-0.367,0.491-0.673,0.836-0.918
				c0.344-0.244,0.733-0.426,1.168-0.543c0.436-0.118,0.87-0.177,1.305-0.177c0.508,0,0.994,0.057,1.461,0.17
				s0.881,0.297,1.244,0.55c0.361,0.254,0.649,0.578,0.862,0.972c0.213,0.395,0.319,0.872,0.319,1.434h-2.065
				c-0.019-0.289-0.079-0.529-0.184-0.72s-0.242-0.34-0.414-0.448c-0.173-0.109-0.369-0.186-0.592-0.231
				c-0.222-0.045-0.464-0.067-0.727-0.067c-0.172,0-0.345,0.018-0.517,0.054s-0.328,0.1-0.469,0.19s-0.256,0.204-0.347,0.34
				s-0.136,0.308-0.136,0.517c0,0.189,0.036,0.344,0.108,0.462c0.073,0.117,0.216,0.227,0.429,0.326s0.507,0.199,0.883,0.299
				s0.867,0.227,1.475,0.381c0.182,0.036,0.433,0.102,0.754,0.196c0.322,0.096,0.642,0.247,0.958,0.455
				c0.317,0.209,0.592,0.487,0.822,0.836c0.231,0.35,0.347,0.795,0.347,1.339c0,0.444-0.086,0.856-0.258,1.236
				c-0.173,0.381-0.429,0.709-0.769,0.985c-0.339,0.276-0.761,0.491-1.264,0.646s-1.085,0.231-1.746,0.231
				c-0.534,0-1.053-0.066-1.556-0.197s-0.947-0.338-1.332-0.618c-0.385-0.281-0.69-0.639-0.917-1.074
				c-0.227-0.435-0.335-0.951-0.326-1.549h2.065C156.122,328.483,156.18,328.76,156.299,328.986z"/>
		</g>
		<g>
			<path fill="#D74108" d="M36.309,144.477v-8.568h-3.322v-2.02c0.466,0.013,0.916-0.022,1.35-0.104
				c0.435-0.081,0.824-0.227,1.17-0.434c0.347-0.208,0.639-0.481,0.878-0.821s0.396-0.761,0.472-1.265h2.133v13.212H36.309z"/>
		</g>
		<g>
			<path fill="#959595" d="M32.553,277.747c0.201-0.647,0.503-1.214,0.905-1.698c0.403-0.484,0.909-0.862,1.52-1.133
				s1.312-0.405,2.104-0.405c0.604,0,1.18,0.094,1.728,0.283c0.547,0.188,1.028,0.459,1.443,0.812
				c0.415,0.352,0.745,0.786,0.991,1.302c0.245,0.517,0.368,1.095,0.368,1.736c0,0.667-0.107,1.239-0.321,1.718
				s-0.497,0.903-0.85,1.273c-0.353,0.372-0.752,0.708-1.198,1.01c-0.446,0.303-0.896,0.602-1.35,0.897
				c-0.453,0.295-0.894,0.613-1.321,0.953c-0.428,0.339-0.805,0.735-1.132,1.188h6.247v2.303h-9.701c0-0.768,0.11-1.435,0.33-2.001
				c0.22-0.565,0.52-1.072,0.896-1.519c0.378-0.447,0.821-0.859,1.331-1.236c0.509-0.378,1.047-0.762,1.613-1.151
				c0.289-0.201,0.598-0.406,0.925-0.613c0.327-0.208,0.626-0.438,0.896-0.689c0.271-0.251,0.497-0.534,0.68-0.85
				c0.183-0.313,0.273-0.673,0.273-1.075c0-0.642-0.186-1.142-0.557-1.501c-0.371-0.358-0.847-0.538-1.425-0.538
				c-0.391,0-0.721,0.092-0.991,0.274s-0.487,0.422-0.651,0.717c-0.163,0.296-0.279,0.623-0.349,0.981s-0.104,0.715-0.104,1.066
				h-2.567C32.263,279.097,32.351,278.396,32.553,277.747z"/>
		</g>
		<g>
			<path fill="#959595" d="M36.819,325.727c0.326-0.025,0.632-0.098,0.915-0.218c0.283-0.119,0.516-0.292,0.698-0.519
				s0.273-0.528,0.273-0.906c0-0.566-0.188-1-0.566-1.302c-0.377-0.303-0.812-0.453-1.302-0.453c-0.68,0-1.192,0.224-1.538,0.67
				c-0.347,0.446-0.513,1.01-0.5,1.689h-2.549c0.025-0.68,0.148-1.3,0.368-1.859c0.221-0.56,0.528-1.041,0.925-1.444
				c0.396-0.402,0.871-0.714,1.426-0.934c0.553-0.22,1.17-0.33,1.85-0.33c0.528,0,1.057,0.078,1.585,0.235s1.003,0.394,1.425,0.708
				s0.765,0.698,1.029,1.151c0.264,0.453,0.396,0.976,0.396,1.566c0,0.642-0.154,1.208-0.462,1.698
				c-0.309,0.491-0.771,0.824-1.388,1.001v0.037c0.729,0.164,1.303,0.517,1.718,1.058s0.623,1.188,0.623,1.943
				c0,0.692-0.136,1.31-0.406,1.85c-0.271,0.542-0.632,0.994-1.085,1.359s-0.976,0.642-1.566,0.83
				c-0.592,0.189-1.208,0.283-1.85,0.283c-0.743,0-1.419-0.106-2.029-0.32s-1.129-0.525-1.557-0.935s-0.759-0.909-0.991-1.5
				c-0.232-0.592-0.343-1.271-0.33-2.039h2.548c0.013,0.353,0.069,0.689,0.17,1.01c0.101,0.321,0.245,0.598,0.434,0.831
				c0.189,0.232,0.425,0.418,0.708,0.557s0.62,0.207,1.01,0.207c0.604,0,1.114-0.186,1.529-0.557s0.622-0.878,0.622-1.52
				c0-0.503-0.097-0.887-0.292-1.151c-0.195-0.264-0.443-0.455-0.745-0.575c-0.303-0.119-0.633-0.188-0.991-0.208
				c-0.358-0.019-0.702-0.028-1.028-0.028v-1.887C36.183,325.752,36.491,325.752,36.819,325.727z"/>
		</g>
		<g>
			<polygon fill="#D74108" points="259.393,141.911 264.712,147.23 270.031,141.911 268.909,140.79 264.712,144.987 260.515,140.79
							"/>
		</g>
		<g>
			<polygon fill="#959595" points="259.393,289.298 264.712,283.98 270.031,289.298 268.909,290.42 264.712,286.223 260.515,290.42
							"/>
		</g>
		<g>
			<polygon fill="#959595" points="259.393,335.351 264.712,330.032 270.031,335.351 268.909,336.472 264.712,332.275
				260.515,336.472 			"/>
		</g>
		<g>
			<rect x="-0.271" y="0.088" fill="#323232" width="304.542" height="59.178"/>
		</g>
		<g>
			<rect x="179.768" y="-0.5" fill="#ECECEC" width="62" height="62"/>
		</g>
		<g>
			<g>
				<path fill="#FFFFFF" d="M270.97,25.002c2.498,0,4.53,2.032,4.53,4.53s-2.032,4.53-4.53,4.53c-2.498,0-4.53-2.032-4.53-4.53
					S268.472,25.002,270.97,25.002 M270.97,23.492c-3.335,0-6.04,2.704-6.04,6.04c0,3.335,2.704,6.04,6.04,6.04
					c3.335,0,6.04-2.705,6.04-6.04C277.01,26.196,274.305,23.492,270.97,23.492L270.97,23.492z"/>
			</g>
			<g>

					<rect x="276.918" y="34.412" transform="matrix(0.7071 -0.7071 0.7071 0.7071 55.3564 207.8037)" fill="#FFFFFF" width="3.203" height="5.338"/>
			</g>
			<g>
				<path fill="#FFFFFF" d="M270.97,25.002c2.498,0,4.53,2.032,4.53,4.53s-2.032,4.53-4.53,4.53c-2.498,0-4.53-2.032-4.53-4.53
					S268.472,25.002,270.97,25.002 M270.97,23.492c-3.335,0-6.04,2.704-6.04,6.04c0,3.335,2.704,6.04,6.04,6.04
					c3.335,0,6.04-2.705,6.04-6.04C277.01,26.196,274.305,23.492,270.97,23.492L270.97,23.492z"/>
			</g>
			<g>

					<rect x="276.918" y="34.412" transform="matrix(0.7071 -0.7071 0.7071 0.7071 55.3564 207.8037)" fill="#FFFFFF" width="3.203" height="5.338"/>
			</g>
		</g>
		<g>
			<g>
				<circle fill="#D74108" cx="209.759" cy="29.717" r="5.285"/>
			</g>
			<g>
				<path fill="#D74108" d="M214.288,36.511h-9.059c-1.22,0-2.265,1.043-2.265,2.265v2.265h13.589v-2.265
					C216.553,37.554,215.509,36.511,214.288,36.511z"/>
			</g>
			<g>
				<circle fill="#D74108" cx="209.759" cy="29.717" r="5.285"/>
			</g>
			<g>
				<path fill="#D74108" d="M214.288,36.511h-9.059c-1.22,0-2.265,1.043-2.265,2.265v2.265h13.589v-2.265
					C216.553,37.554,215.509,36.511,214.288,36.511z"/>
			</g>
		</g>
		<g>
			<path fill="#FFFFFF" d="M33.49,26.512l-8.305,8.305l2.265,2.265l0.054,6.04h12.025v-6.04l2.265-2.265L33.49,26.512z
				 M38.02,41.611H28.96v-6.04l4.53-4.53l4.53,4.53V41.611z"/>
		</g>
		<g>
			<path fill="#FFFFFF" d="M55.317,30.953h2.371v4.139h4.366v-4.139h2.371v10.785h-2.371v-4.652h-4.366v4.652h-2.371V30.953z"/>
			<path fill="#FFFFFF" d="M69.754,33.717c2.462,0,4.048,1.632,4.048,4.125c0,2.477-1.586,4.108-4.048,4.108
				c-2.447,0-4.033-1.632-4.033-4.108C65.72,35.349,67.306,33.717,69.754,33.717z M69.754,40.334c1.465,0,1.903-1.238,1.903-2.492
				s-0.438-2.508-1.903-2.508c-1.45,0-1.889,1.254-1.889,2.508S68.303,40.334,69.754,40.334z"/>
			<path fill="#FFFFFF" d="M74.96,33.929h2.024v1.058h0.03c0.56-0.801,1.359-1.27,2.387-1.27c0.982,0,1.858,0.348,2.281,1.3
				c0.469-0.68,1.269-1.3,2.356-1.3c1.662,0,2.855,0.771,2.855,2.795v5.227h-2.146v-4.426c0-1.042-0.091-1.903-1.314-1.903
				c-1.208,0-1.435,1.013-1.435,1.979v4.35h-2.146v-4.381c0-0.906,0.061-1.948-1.299-1.948c-0.423,0-1.45,0.272-1.45,1.798v4.531
				H74.96V33.929z"/>
			<path fill="#FFFFFF" d="M90.076,38.355c0.061,1.374,0.71,1.979,1.918,1.979c0.861,0,1.557-0.529,1.692-1.012h1.888
				c-0.604,1.857-1.888,2.628-3.655,2.628c-2.462,0-3.988-1.692-3.988-4.108c0-2.342,1.616-4.125,3.988-4.125
				c2.658,0,3.958,2.236,3.792,4.639H90.076z M93.565,36.996c-0.196-1.088-0.665-1.662-1.707-1.662c-1.39,0-1.737,1.057-1.782,1.662
				H93.565z"/>
		</g>
	</g>
</g>
<g id="Layer_3" display="none">
</g>
<g id="Layer_2" display="none">
	<rect x="-18.261" y="-13399.596" display="inline" opacity="0.08" fill="#00FFFF" width="60" height="15684.369"/>
	<rect x="65.739" y="-13399.596" display="inline" opacity="0.08" fill="#00FFFF" width="60" height="15684.369"/>
	<rect x="149.739" y="-13399.596" display="inline" opacity="0.08" fill="#00FFFF" width="60" height="15684.369"/>
	<rect x="233.739" y="-13399.596" display="inline" opacity="0.08" fill="#00FFFF" width="60" height="15684.369"/>
</g>
</svg>
