<?xml version="1.0" encoding="utf-8"?>
<!-- Generator: Adobe Illustrator 18.0.0, SVG Export Plug-In . SVG Version: 6.00 Build 0)  -->
<!DOCTYPE svg PUBLIC "-//W3C//DTD SVG 1.1//EN" "http://www.w3.org/Graphics/SVG/1.1/DTD/svg11.dtd">
<svg version="1.1" id="Layer_1" xmlns="http://www.w3.org/2000/svg" xmlns:xlink="http://www.w3.org/1999/xlink" x="0px" y="0px"
	 viewBox="0 0 419 259" width="419" height="259"  enable-background="new 0 0 419 259" xml:space="preserve">
<polygon fill="#D0D0D0" points="41.1,82.7 39.7,81.3 33.4,87.5 33.4,71 31.4,71 31.4,87.5 25.1,81.3 23.7,82.7 32.4,91.4 "/>
<polygon fill="#D0D0D0" points="41.1,180.7 39.7,179.3 33.4,185.5 33.4,169 31.4,169 31.4,185.5 25.1,179.3 23.7,180.7 32.4,189.4
	"/>
<rect fill="#FF6700" width="63" height="63"/>
<g>
	<path fill="#FFFFFF" d="M30.6,38.8V25.5h-5.1v-3.1c0.7,0,1.4,0,2.1-0.2c0.7-0.1,1.3-0.4,1.8-0.7s1-0.7,1.4-1.3
		c0.4-0.5,0.6-1.2,0.7-2h3.3v20.5H30.6z"/>
</g>
<rect y="99" fill="#FF6700" width="63" height="63"/>
<g>
	<path fill="#FFFFFF" d="M24.8,121.9c0.3-1,0.8-1.9,1.4-2.6c0.6-0.8,1.4-1.3,2.4-1.8c0.9-0.4,2-0.6,3.3-0.6c0.9,0,1.8,0.1,2.7,0.4
		c0.8,0.3,1.6,0.7,2.2,1.3s1.2,1.2,1.5,2c0.4,0.8,0.6,1.7,0.6,2.7c0,1-0.2,1.9-0.5,2.7c-0.3,0.7-0.8,1.4-1.3,2
		c-0.5,0.6-1.2,1.1-1.9,1.6c-0.7,0.5-1.4,0.9-2.1,1.4s-1.4,1-2,1.5c-0.7,0.5-1.2,1.1-1.8,1.8h9.7v3.6h-15c0-1.2,0.2-2.2,0.5-3.1
		s0.8-1.7,1.4-2.4c0.6-0.7,1.3-1.3,2.1-1.9c0.8-0.6,1.6-1.2,2.5-1.8c0.4-0.3,0.9-0.6,1.4-1s1-0.7,1.4-1.1c0.4-0.4,0.8-0.8,1.1-1.3
		c0.3-0.5,0.4-1,0.4-1.7c0-1-0.3-1.8-0.9-2.3c-0.6-0.6-1.3-0.8-2.2-0.8c-0.6,0-1.1,0.1-1.5,0.4c-0.4,0.3-0.8,0.7-1,1.1
		c-0.3,0.5-0.4,1-0.5,1.5s-0.2,1.1-0.2,1.7h-4C24.3,124,24.5,122.9,24.8,121.9z"/>
</g>
<rect y="196" fill="#FF6700" width="63" height="63"/>
<g>
	<path fill="#FFFFFF" d="M31.4,222.6c0.5,0,1-0.2,1.4-0.3c0.4-0.2,0.8-0.5,1.1-0.8c0.3-0.4,0.4-0.8,0.4-1.4c0-0.9-0.3-1.6-0.9-2
		s-1.3-0.7-2-0.7c-1.1,0-1.8,0.3-2.4,1c-0.5,0.7-0.8,1.6-0.8,2.6h-3.9c0-1.1,0.2-2,0.6-2.9c0.3-0.9,0.8-1.6,1.4-2.2
		c0.6-0.6,1.4-1.1,2.2-1.4c0.9-0.3,1.8-0.5,2.9-0.5c0.8,0,1.6,0.1,2.5,0.4c0.8,0.2,1.6,0.6,2.2,1.1s1.2,1.1,1.6,1.8
		c0.4,0.7,0.6,1.5,0.6,2.4c0,1-0.2,1.9-0.7,2.6c-0.5,0.8-1.2,1.3-2.2,1.6v0.1c1.1,0.3,2,0.8,2.7,1.6s1,1.8,1,3c0,1.1-0.2,2-0.6,2.9
		c-0.4,0.8-1,1.5-1.7,2.1c-0.7,0.6-1.5,1-2.4,1.3c-0.9,0.3-1.9,0.4-2.9,0.4c-1.2,0-2.2-0.2-3.1-0.5c-0.9-0.3-1.8-0.8-2.4-1.4
		c-0.7-0.6-1.2-1.4-1.5-2.3c-0.4-0.9-0.5-2-0.5-3.2h3.9c0,0.5,0.1,1.1,0.3,1.6s0.4,0.9,0.7,1.3c0.3,0.4,0.7,0.6,1.1,0.9
		c0.4,0.2,1,0.3,1.6,0.3c0.9,0,1.7-0.3,2.4-0.9s1-1.4,1-2.4c0-0.8-0.2-1.4-0.5-1.8c-0.3-0.4-0.7-0.7-1.2-0.9c-0.5-0.2-1-0.3-1.5-0.3
		c-0.6,0-1.1,0-1.6,0v-2.9C30.4,222.6,30.9,222.6,31.4,222.6z"/>
</g>
<g>

		<rect x="341.4" y="-1.7" transform="matrix(0.7071 0.7071 -0.7071 0.7071 154.1667 -219.7809)" fill="#E5E5E5" width="2" height="155.9"/>
</g>
<g>
	<rect x="309" y="132" fill="#E5E5E5" width="57" height="2"/>
</g>
<g>

		<rect x="389.6" y="90.2" transform="matrix(0.8554 0.518 -0.518 0.8554 114.6968 -186.0818)" fill="#E5E5E5" width="2" height="44.3"/>
</g>
<circle fill="#D0D0D0" cx="404.4" cy="88.8" r="8"/>
<g>

		<rect x="374.9" y="140.1" transform="matrix(0.6854 0.7282 -0.7282 0.6854 224.9014 -238.3786)" fill="#E5E5E5" width="26.8" height="2"/>
</g>
<g>

		<rect x="260.3" y="180.2" transform="matrix(0.454 0.891 -0.891 0.454 329.6364 -175.4187)" fill="#E5E5E5" width="95.3" height="2"/>
</g>
<g>
	<rect x="280.5" y="34.9" fill="#E5E5E5" width="2" height="95.3"/>
</g>
<g>

		<rect x="247.3" y="117.8" transform="matrix(0.5313 0.8472 -0.8472 0.5313 254.162 -134.1792)" fill="#E5E5E5" width="2" height="89.6"/>
</g>
<circle fill="#D0D0D0" cx="400.9" cy="154.3" r="8"/>
<g>
	<circle fill="#FFFFFF" cx="378" cy="130.2" r="11.5"/>
	<path fill="#FF8C40" d="M378,142.6c-6.9,0-12.5-5.6-12.5-12.5s5.6-12.5,12.5-12.5s12.5,5.6,12.5,12.5S384.9,142.6,378,142.6z
		 M378,119.7c-5.8,0-10.5,4.7-10.5,10.5c0,5.8,4.7,10.5,10.5,10.5s10.5-4.7,10.5-10.5C388.4,124.4,383.7,119.7,378,119.7z"/>
</g>
<g>

		<rect x="204.2" y="104.5" transform="matrix(0.8047 0.5936 -0.5936 0.8047 110.9824 -126.4353)" fill="#E5E5E5" width="87" height="2"/>
</g>
<line fill="none" stroke="#E5E5E5" stroke-width="2" stroke-miterlimit="10" x1="283.8" y1="24.5" x2="317.1" y2="45.2"/>
<g>

		<rect x="357.5" y="-6.7" transform="matrix(0.3613 0.9325 -0.9325 0.3613 258.268 -314.1663)" fill="#E5E5E5" width="2" height="76.3"/>
</g>
<circle fill="#D0D0D0" cx="320.6" cy="45.2" r="8"/>
<g>
	<circle fill="#FFFFFF" cx="405.5" cy="15.4" r="11.5"/>
	<path fill="#FF8C40" d="M405.5,27.8c-6.9,0-12.5-5.6-12.5-12.5s5.6-12.5,12.5-12.5S418,8.5,418,15.4S412.4,27.8,405.5,27.8z
		 M405.5,4.9c-5.8,0-10.5,4.7-10.5,10.5c0,5.8,4.7,10.5,10.5,10.5S416,21.1,416,15.4C416,9.6,411.3,4.9,405.5,4.9z"/>
</g>
<g>
	<circle fill="#FFFFFF" cx="281.5" cy="24.5" r="11.5"/>
	<path fill="#FF8C40" d="M281.5,37c-6.9,0-12.5-5.6-12.5-12.5s5.6-12.5,12.5-12.5S294,17.7,294,24.5S288.4,37,281.5,37z M281.5,14.1
		c-5.8,0-10.5,4.7-10.5,10.5c0,5.8,4.7,10.5,10.5,10.5S292,30.3,292,24.5C292,18.8,287.3,14.1,281.5,14.1z"/>
</g>
<g>
	<circle fill="#FFFFFF" cx="335.5" cy="232.3" r="11.5"/>
	<path fill="#FF8C40" d="M335.5,244.8c-6.9,0-12.5-5.6-12.5-12.5s5.6-12.5,12.5-12.5s12.5,5.6,12.5,12.5S342.4,244.8,335.5,244.8z
		 M335.5,221.8c-5.8,0-10.5,4.7-10.5,10.5s4.7,10.5,10.5,10.5s10.5-4.7,10.5-10.5S341.3,221.8,335.5,221.8z"/>
</g>
<g>

		<rect x="193.6" y="217.8" transform="matrix(0.6166 0.7873 -0.7873 0.6166 258.1272 -92.3317)" fill="#E5E5E5" width="60.5" height="2"/>
</g>
<circle fill="#D0D0D0" cx="243.1" cy="242.1" r="8"/>
<g>

		<rect x="222.1" y="54.6" transform="matrix(0.1601 0.9871 -0.9871 0.1601 257.248 -160.8367)" fill="#E5E5E5" width="2" height="32.3"/>
</g>
<g>

		<rect x="179.8" y="98.7" transform="matrix(8.479909e-02 0.9964 -0.9964 8.479909e-02 288.756 -114.8978)" fill="#E5E5E5" width="54.1" height="2"/>
</g>
<g>
	<circle fill="#FFFFFF" cx="203.5" cy="192.1" r="11.5"/>
	<path fill="#FF8C40" d="M203.5,204.6c-6.9,0-12.5-5.6-12.5-12.5s5.6-12.5,12.5-12.5s12.5,5.6,12.5,12.5S210.4,204.6,203.5,204.6z
		 M203.5,181.7c-5.8,0-10.5,4.7-10.5,10.5c0,5.8,4.7,10.5,10.5,10.5s10.5-4.7,10.5-10.5C214,186.4,209.3,181.7,203.5,181.7z"/>
</g>
<g>
	<circle fill="#FFFFFF" cx="204.6" cy="72.8" r="11.5"/>
	<path fill="#FF8C40" d="M204.6,85.2c-6.9,0-12.5-5.6-12.5-12.5s5.6-12.5,12.5-12.5s12.5,5.6,12.5,12.5S211.5,85.2,204.6,85.2z
		 M204.6,62.3c-5.8,0-10.5,4.7-10.5,10.5c0,5.8,4.7,10.5,10.5,10.5s10.5-4.7,10.5-10.5C215.1,67,210.4,62.3,204.6,62.3z"/>
</g>
<circle fill="#FF6700" cx="282.8" cy="133.8" r="45.9"/>
<g>
	<g>
		<path fill="#FFFFFF" d="M278.2,116.5c-7,0-12.6,5.7-12.6,12.6c0,7,5.7,12.6,12.6,12.6s12.6-5.7,12.6-12.6
			C290.9,122.2,285.2,116.5,278.2,116.5z M278.2,139.5c-5.7,0-10.3-4.6-10.3-10.3c0-5.7,4.6-10.3,10.3-10.3
			c5.7,0,10.3,4.6,10.3,10.3C288.6,134.9,283.9,139.5,278.2,139.5z"/>

			<rect x="291.9" y="139.6" transform="matrix(0.7071 -0.7071 0.7071 0.7071 -16.4964 250.6436)" fill="#FFFFFF" width="4.9" height="11.4"/>
		<circle fill="#FFFFFF" cx="288.6" cy="139.5" r="1.1"/>
	</g>
</g>
<circle fill="#D0D0D0" cx="240.2" cy="68.2" r="8"/>
<circle fill="#D0D0D0" cx="209.2" cy="127.9" r="8"/>
</svg>
