<?xml version="1.0" encoding="utf-8"?>
<!-- Generator: Adobe Illustrator 18.0.0, SVG Export Plug-In . SVG Version: 6.00 Build 0)  -->
<!DOCTYPE svg PUBLIC "-//W3C//DTD SVG 1.1//EN" "http://www.w3.org/Graphics/SVG/1.1/DTD/svg11.dtd">
<svg version="1.1" id="Layer_1" xmlns="http://www.w3.org/2000/svg" xmlns:xlink="http://www.w3.org/1999/xlink" x="0px" y="0px"
	 viewBox="0 0 135 30" width="135" height="30"  enable-background="new 0 0 135 30" xml:space="preserve">
<g>
	<path fill="#FF6700" d="M24,0L11.6,12.4C10.8,12.1,9.9,12,9,12c-5,0-9,4-9,9s4,9,9,9s9-4,9-9c0-0.9-0.1-1.8-0.4-2.6L20,16v-2h2l8-8
		V0H24z M28,5.2L21.2,12H20h-2v2v1.2L16.2,17l-0.8,0.8l0.3,1.1c0.2,0.7,0.3,1.3,0.3,2c0,3.9-3.1,7-7,7s-7-3.1-7-7s3.1-7,7-7
		c0.7,0,1.4,0.1,2,0.3l1.1,0.3l0.8-0.8L24.8,2H28V5.2z"/>
	<circle fill="#FF6700" cx="7" cy="23" r="2"/>

		<rect x="18.8" y="6.5" transform="matrix(-0.7071 0.7071 -0.7071 -0.7071 44.2132 -4.3137)" fill="#FF6700" width="8.5" height="1"/>
</g>
<g>
	<polygon fill="#FF6700" points="121.5,20.6 119.2,18.3 117.8,19.7 121.5,23.4 128.2,16.7 126.8,15.3 	"/>
	<path fill="#FF6700" d="M131,11.5V8c0-4.4-3.6-8-8-8c-4.4,0-8,3.6-8,8v3.5c-1.9,2-3,4.6-3,7.5c0,6.1,4.9,11,11,11
		c6.1,0,11-4.9,11-11C134,16.1,132.9,13.4,131,11.5z M117,8c0-3.3,2.7-6,6-6s6,2.7,6,6v1.8c-1.7-1.1-3.8-1.8-6-1.8
		c-2.2,0-4.3,0.7-6,1.8V8z M123,28c-5,0-9-4-9-9s4-9,9-9c5,0,9,4,9,9S128,28,123,28z"/>
</g>
<g>
	<polygon fill="#FF6700" points="72.3,14.3 69,17.6 65.7,14.3 64.3,15.7 67.6,19 64.3,22.3 65.7,23.7 69,20.4 72.3,23.7 73.7,22.3
		70.4,19 73.7,15.7 	"/>
	<path fill="#FF6700" d="M69,8c-2.2,0-4.3,0.7-6,1.8V8c0-3.3,2.7-6,6-6c1.7,0,3.2,0.7,4.2,1.8l1.4-1.4C73.2,0.9,71.2,0,69,0
		c-4.4,0-8,3.6-8,8v3.5c-1.9,2-3,4.6-3,7.5c0,6.1,4.9,11,11,11c6.1,0,11-4.9,11-11S75.1,8,69,8z M69,28c-5,0-9-4-9-9s4-9,9-9
		c5,0,9,4,9,9S74,28,69,28z"/>
</g>
</svg>
