<?xml version="1.0" encoding="utf-8"?>
<!-- Generator: Adobe Illustrator 17.1.0, SVG Export Plug-In . SVG Version: 6.00 Build 0)  -->
<!DOCTYPE svg PUBLIC "-//W3C//DTD SVG 1.1//EN" "http://www.w3.org/Graphics/SVG/1.1/DTD/svg11.dtd">
<svg version="1.1" xmlns="http://www.w3.org/2000/svg" xmlns:xlink="http://www.w3.org/1999/xlink" x="0px" y="0px"
	 viewBox="0 0 307.4 407.139" width="307.4" height="407.139"  enable-background="new 0 0 307.4 407.139" xml:space="preserve">
<g id="Layer_1">
	<g>
		<rect x="-0.6" y="48.139" fill="#F4F4F4" width="308" height="359"/>
	</g>
	<g>
		<rect x="0" y="0" fill="#323232" width="307.4" height="48.965"/>
	</g>
	<g>
		<rect x="203.4" y="-0.861" fill="#ECECEC" width="52" height="51"/>
	</g>
	<g>
		<g>
			<path fill="#FFFFFF" d="M279.18,20.614c2.067,0,3.748,1.681,3.748,3.748s-1.681,3.748-3.748,3.748
				c-2.067,0-3.748-1.681-3.748-3.748S277.114,20.614,279.18,20.614 M279.18,19.365c-2.76,0-4.997,2.238-4.997,4.997
				c0,2.759,2.238,4.997,4.997,4.997s4.997-2.238,4.997-4.997C284.178,21.602,281.94,19.365,279.18,19.365L279.18,19.365z"/>
		</g>
		<g>

				<rect x="284.102" y="28.4" transform="matrix(0.7071 -0.7071 0.7071 0.7071 61.9562 210.7924)" fill="#FFFFFF" width="2.65" height="4.417"/>
		</g>
		<g>
			<path fill="#FFFFFF" d="M279.18,20.614c2.067,0,3.748,1.681,3.748,3.748s-1.681,3.748-3.748,3.748
				c-2.067,0-3.748-1.681-3.748-3.748S277.114,20.614,279.18,20.614 M279.18,19.365c-2.76,0-4.997,2.238-4.997,4.997
				c0,2.759,2.238,4.997,4.997,4.997s4.997-2.238,4.997-4.997C284.178,21.602,281.94,19.365,279.18,19.365L279.18,19.365z"/>
		</g>
		<g>

				<rect x="284.102" y="28.4" transform="matrix(0.7071 -0.7071 0.7071 0.7071 61.9562 210.7924)" fill="#FFFFFF" width="2.65" height="4.417"/>
		</g>
	</g>
	<g>
		<path fill="#464646" d="M19.246,77.182h3.958l3.755,6.341l3.733-6.341h3.936l-5.96,9.895v6.161h-3.53v-6.251L19.246,77.182z"/>
		<path fill="#464646" d="M33.211,84.906c0.284-0.758,0.689-1.402,1.214-1.935s1.154-0.944,1.889-1.237
			c0.734-0.292,1.56-0.438,2.474-0.438c0.915,0,1.743,0.146,2.485,0.438c0.742,0.293,1.375,0.705,1.9,1.237
			c0.524,0.532,0.929,1.177,1.214,1.935c0.285,0.756,0.428,1.6,0.428,2.529s-0.143,1.77-0.428,2.519
			c-0.285,0.75-0.689,1.391-1.214,1.923c-0.525,0.532-1.158,0.941-1.9,1.226s-1.57,0.427-2.485,0.427
			c-0.914,0-1.739-0.143-2.474-0.427s-1.364-0.693-1.889-1.226s-0.93-1.173-1.214-1.923c-0.285-0.749-0.428-1.589-0.428-2.519
			S32.925,85.662,33.211,84.906z M36.111,88.796c0.09,0.442,0.243,0.84,0.461,1.192c0.218,0.352,0.506,0.633,0.866,0.843
			c0.359,0.21,0.81,0.315,1.349,0.315c0.54,0,0.993-0.105,1.361-0.315c0.367-0.21,0.659-0.491,0.877-0.843
			c0.217-0.353,0.371-0.75,0.461-1.192s0.135-0.896,0.135-1.36s-0.045-0.922-0.135-1.372s-0.244-0.847-0.461-1.192
			c-0.218-0.344-0.51-0.625-0.877-0.843c-0.368-0.217-0.821-0.325-1.361-0.325c-0.539,0-0.989,0.108-1.349,0.325
			c-0.36,0.218-0.648,0.499-0.866,0.843c-0.218,0.346-0.371,0.742-0.461,1.192s-0.135,0.907-0.135,1.372
			S36.021,88.354,36.111,88.796z"/>
		<path fill="#464646" d="M54.753,93.237v-1.619h-0.067c-0.404,0.675-0.93,1.162-1.574,1.462c-0.645,0.299-1.304,0.449-1.979,0.449
			c-0.854,0-1.556-0.112-2.103-0.337c-0.548-0.226-0.979-0.544-1.293-0.956c-0.315-0.412-0.537-0.914-0.664-1.506
			c-0.127-0.593-0.191-1.248-0.191-1.969v-7.15h3.193v6.566c0,0.959,0.15,1.676,0.45,2.147s0.832,0.708,1.597,0.708
			c0.869,0,1.499-0.258,1.889-0.775s0.585-1.368,0.585-2.553v-6.094h3.193v11.626H54.753z"/>
		<path fill="#464646" d="M63.253,81.611v2.158h0.045c0.15-0.359,0.353-0.693,0.607-1c0.255-0.308,0.547-0.57,0.877-0.787
			s0.682-0.387,1.057-0.506c0.375-0.12,0.765-0.18,1.17-0.18c0.21,0,0.441,0.037,0.697,0.111v2.969
			c-0.15-0.029-0.33-0.057-0.54-0.078c-0.21-0.023-0.412-0.034-0.607-0.034c-0.584,0-1.079,0.098-1.484,0.292
			c-0.404,0.195-0.73,0.461-0.978,0.799c-0.248,0.337-0.424,0.73-0.528,1.181c-0.105,0.45-0.158,0.937-0.158,1.462v5.239h-3.193
			V81.611H63.253z"/>
		<path fill="#464646" d="M83.561,77.182l6.004,16.056H85.9l-1.215-3.575h-6.004l-1.26,3.575h-3.553l6.071-16.056H83.561z
			 M83.763,87.031l-2.024-5.893h-0.045l-2.091,5.893H83.763z"/>
		<path fill="#464646" d="M96.176,83.703c-0.51,0-0.937,0.115-1.281,0.348c-0.346,0.232-0.626,0.533-0.844,0.9
			s-0.371,0.771-0.461,1.214s-0.135,0.881-0.135,1.315c0,0.42,0.045,0.848,0.135,1.281c0.09,0.436,0.236,0.829,0.438,1.182
			c0.202,0.352,0.476,0.641,0.821,0.865c0.345,0.225,0.765,0.338,1.259,0.338c0.765,0,1.353-0.215,1.766-0.642
			c0.412-0.427,0.671-1.001,0.775-1.72h3.081c-0.21,1.544-0.81,2.721-1.799,3.53s-2.257,1.214-3.801,1.214
			c-0.869,0-1.668-0.146-2.395-0.438c-0.728-0.293-1.346-0.701-1.855-1.227c-0.51-0.524-0.907-1.15-1.191-1.877
			c-0.285-0.728-0.428-1.525-0.428-2.396c0-0.899,0.131-1.735,0.394-2.507c0.262-0.772,0.648-1.439,1.158-2.002s1.132-1,1.866-1.315
			s1.574-0.472,2.519-0.472c0.689,0,1.354,0.09,1.99,0.27c0.638,0.18,1.207,0.453,1.709,0.82c0.503,0.367,0.911,0.824,1.226,1.372
			c0.315,0.548,0.495,1.196,0.54,1.945h-3.126C98.328,84.369,97.541,83.703,96.176,83.703z"/>
		<path fill="#464646" d="M109.085,83.703c-0.51,0-0.937,0.115-1.281,0.348c-0.346,0.232-0.626,0.533-0.844,0.9
			s-0.371,0.771-0.461,1.214s-0.135,0.881-0.135,1.315c0,0.42,0.045,0.848,0.135,1.281c0.09,0.436,0.236,0.829,0.438,1.182
			c0.202,0.352,0.476,0.641,0.821,0.865c0.345,0.225,0.765,0.338,1.259,0.338c0.765,0,1.353-0.215,1.766-0.642
			c0.412-0.427,0.671-1.001,0.775-1.72h3.081c-0.21,1.544-0.81,2.721-1.799,3.53s-2.257,1.214-3.801,1.214
			c-0.869,0-1.668-0.146-2.395-0.438c-0.728-0.293-1.346-0.701-1.855-1.227c-0.51-0.524-0.907-1.15-1.191-1.877
			c-0.285-0.728-0.428-1.525-0.428-2.396c0-0.899,0.131-1.735,0.394-2.507c0.262-0.772,0.648-1.439,1.158-2.002s1.132-1,1.866-1.315
			s1.574-0.472,2.519-0.472c0.689,0,1.354,0.09,1.99,0.27c0.638,0.18,1.207,0.453,1.709,0.82c0.503,0.367,0.911,0.824,1.226,1.372
			c0.315,0.548,0.495,1.196,0.54,1.945h-3.126C111.236,84.369,110.449,83.703,109.085,83.703z"/>
		<path fill="#464646" d="M116.506,84.906c0.284-0.758,0.689-1.402,1.214-1.935s1.154-0.944,1.889-1.237
			c0.734-0.292,1.56-0.438,2.474-0.438c0.915,0,1.743,0.146,2.485,0.438c0.742,0.293,1.375,0.705,1.9,1.237
			c0.524,0.532,0.929,1.177,1.214,1.935c0.285,0.756,0.428,1.6,0.428,2.529s-0.143,1.77-0.428,2.519
			c-0.285,0.75-0.689,1.391-1.214,1.923c-0.525,0.532-1.158,0.941-1.9,1.226s-1.57,0.427-2.485,0.427
			c-0.914,0-1.739-0.143-2.474-0.427s-1.364-0.693-1.889-1.226s-0.93-1.173-1.214-1.923c-0.285-0.749-0.428-1.589-0.428-2.519
			S116.221,85.662,116.506,84.906z M119.407,88.796c0.09,0.442,0.243,0.84,0.461,1.192c0.218,0.352,0.506,0.633,0.866,0.843
			c0.359,0.21,0.81,0.315,1.349,0.315c0.54,0,0.993-0.105,1.361-0.315c0.367-0.21,0.659-0.491,0.877-0.843
			c0.217-0.353,0.371-0.75,0.461-1.192s0.135-0.896,0.135-1.36s-0.045-0.922-0.135-1.372s-0.244-0.847-0.461-1.192
			c-0.218-0.344-0.51-0.625-0.877-0.843c-0.368-0.217-0.821-0.325-1.361-0.325c-0.539,0-0.989,0.108-1.349,0.325
			c-0.36,0.218-0.648,0.499-0.866,0.843c-0.218,0.346-0.371,0.742-0.461,1.192s-0.135,0.907-0.135,1.372
			S119.317,88.354,119.407,88.796z"/>
		<path fill="#464646" d="M138.049,93.237v-1.619h-0.067c-0.404,0.675-0.93,1.162-1.574,1.462c-0.645,0.299-1.304,0.449-1.979,0.449
			c-0.854,0-1.556-0.112-2.103-0.337c-0.548-0.226-0.979-0.544-1.293-0.956c-0.315-0.412-0.537-0.914-0.664-1.506
			c-0.127-0.593-0.191-1.248-0.191-1.969v-7.15h3.193v6.566c0,0.959,0.15,1.676,0.45,2.147s0.832,0.708,1.597,0.708
			c0.869,0,1.499-0.258,1.889-0.775s0.585-1.368,0.585-2.553v-6.094h3.193v11.626H138.049z"/>
		<path fill="#464646" d="M146.549,81.611v1.619h0.067c0.405-0.675,0.93-1.166,1.574-1.473c0.645-0.308,1.305-0.461,1.979-0.461
			c0.854,0,1.555,0.115,2.103,0.348c0.547,0.232,0.978,0.555,1.293,0.967c0.314,0.413,0.536,0.915,0.663,1.508
			c0.127,0.592,0.191,1.248,0.191,1.967v7.151h-3.193v-6.566c0-0.96-0.15-1.675-0.45-2.147s-0.832-0.709-1.597-0.709
			c-0.869,0-1.499,0.26-1.889,0.776s-0.585,1.368-0.585,2.552v6.095h-3.193V81.611H146.549z"/>
		<path fill="#464646" d="M163.235,81.611v2.137h-2.339v5.756c0,0.54,0.091,0.9,0.271,1.08s0.539,0.27,1.079,0.27
			c0.18,0,0.353-0.008,0.518-0.022c0.164-0.015,0.322-0.037,0.472-0.067v2.474c-0.27,0.045-0.569,0.075-0.899,0.09
			s-0.652,0.022-0.967,0.022c-0.495,0-0.964-0.033-1.405-0.102c-0.442-0.066-0.832-0.198-1.17-0.393
			c-0.337-0.195-0.604-0.473-0.798-0.832c-0.195-0.36-0.292-0.832-0.292-1.417v-6.858h-1.935v-2.137h1.935v-3.486h3.192v3.486
			H163.235z"/>
	</g>
	<g>
		<g>
			<circle fill="#323232" cx="228.533" cy="24.516" r="4.373"/>
		</g>
		<g>
			<path fill="#323232" d="M232.281,30.137h-7.496c-1.01,0-1.874,0.863-1.874,1.874v1.874h11.244v-1.874
				C234.155,31,233.291,30.137,232.281,30.137z"/>
		</g>
		<g>
			<circle fill="#323232" cx="228.533" cy="24.516" r="4.373"/>
		</g>
		<g>
			<path fill="#323232" d="M232.281,30.137h-7.496c-1.01,0-1.874,0.863-1.874,1.874v1.874h11.244v-1.874
				C234.155,31,233.291,30.137,232.281,30.137z"/>
		</g>
	</g>
	<g>
		<rect x="19.426" y="147.422" fill="#D74108" width="266.575" height="1.249"/>
	</g>
	<g>
		<path fill="#D74108" d="M21.585,134.972c0,1.235,0.962,1.716,2.054,1.716c0.715,0,1.808-0.208,1.808-1.156
			c0-1.015-1.404-1.158-2.757-1.535c-1.378-0.338-2.769-0.922-2.769-2.639c0-1.911,1.794-2.809,3.471-2.809
			c1.938,0,3.719,0.846,3.719,2.99h-1.977c-0.064-1.104-0.845-1.404-1.833-1.404c-0.65,0-1.404,0.273-1.404,1.054
			c0,0.715,0.442,0.819,2.77,1.404c0.689,0.155,2.756,0.61,2.756,2.704c0,1.703-1.326,2.977-3.861,2.977
			c-2.054,0-3.991-1.014-3.952-3.302H21.585z"/>
		<path fill="#D74108" d="M30.087,135.141c0.052,1.184,0.611,1.703,1.651,1.703c0.74,0,1.339-0.455,1.456-0.871h1.625
			c-0.521,1.6-1.625,2.262-3.146,2.262c-2.119,0-3.433-1.455-3.433-3.535c0-2.016,1.392-3.55,3.433-3.55
			c2.288,0,3.406,1.925,3.263,3.991H30.087z M33.089,133.971c-0.169-0.936-0.572-1.43-1.469-1.43c-1.196,0-1.495,0.91-1.534,1.43
			H33.089z"/>
		<path fill="#D74108" d="M38.238,131.332h1.352v1.234h-1.352v3.328c0,0.624,0.155,0.78,0.779,0.78c0.208,0,0.403-0.013,0.572-0.052
			v1.443c-0.312,0.051-0.715,0.064-1.079,0.064c-1.144,0-2.119-0.247-2.119-1.6v-3.965h-1.118v-1.234h1.118v-2.016h1.847V131.332z"
			/>
		<path fill="#D74108" d="M43.399,131.332h1.352v1.234h-1.352v3.328c0,0.624,0.155,0.78,0.779,0.78c0.208,0,0.403-0.013,0.572-0.052
			v1.443c-0.312,0.051-0.715,0.064-1.079,0.064c-1.144,0-2.119-0.247-2.119-1.6v-3.965h-1.118v-1.234h1.118v-2.016h1.847V131.332z"
			/>
		<path fill="#D74108" d="M47.727,130.291h-1.846v-1.521h1.846V130.291z M45.881,131.332h1.846v6.721h-1.846V131.332z"/>
		<path fill="#D74108" d="M49.104,131.332h1.756v0.936h0.038c0.469-0.768,1.274-1.118,2.055-1.118c1.963,0,2.457,1.104,2.457,2.769
			v4.135h-1.846v-3.796c0-1.105-0.312-1.651-1.184-1.651c-1.001,0-1.43,0.559-1.43,1.924v3.523h-1.847V131.332z"/>
		<path fill="#D74108" d="M63.093,137.623c0,1.105-0.403,2.978-3.484,2.978c-1.326,0-2.86-0.637-2.964-2.157h1.833
			c0.169,0.688,0.715,0.922,1.378,0.922c1.027,0,1.495-0.688,1.482-1.664v-0.883h-0.026c-0.403,0.715-1.196,1.039-2.016,1.039
			c-2.027,0-2.873-1.533-2.873-3.38c0-1.742,1.015-3.328,2.887-3.328c0.884,0,1.547,0.299,2.002,1.079h0.026v-0.896h1.755V137.623z
			 M61.338,134.607c0-1.092-0.378-2.066-1.573-2.066c-1.04,0-1.495,0.91-1.495,1.91c0,0.963,0.351,2.016,1.495,2.016
			C60.818,136.467,61.338,135.57,61.338,134.607z"/>
		<path fill="#D74108" d="M65.849,135.869c0,0.793,0.702,1.131,1.417,1.131c0.52,0,1.209-0.209,1.209-0.858
			c0-0.56-0.78-0.767-2.093-1.04c-1.079-0.247-2.133-0.598-2.133-1.794c0-1.716,1.482-2.158,2.926-2.158
			c1.456,0,2.82,0.494,2.964,2.146h-1.755c-0.053-0.715-0.599-0.91-1.262-0.91c-0.416,0-1.026,0.064-1.026,0.624
			c0,0.663,1.053,0.754,2.093,1.001c1.079,0.247,2.132,0.637,2.132,1.885c0,1.768-1.547,2.34-3.067,2.34
			c-1.561,0-3.095-0.584-3.159-2.365H65.849z"/>
	</g>
	<g opacity="0.2">
		<rect x="19.4" y="165.139" fill="#D74108" width="222" height="14"/>
	</g>
	<g opacity="0.2">
		<rect x="19.4" y="188.139" fill="#D74108" width="150" height="13"/>
	</g>
	<g opacity="0.2">
		<rect x="19.4" y="210.139" fill="#D74108" width="176" height="12"/>
	</g>
	<g>
		<rect x="21.392" y="271.724" fill="#D74108" width="263.605" height="1.249"/>
	</g>
	<g>
		<path fill="#D74108" d="M23.903,251.198h4.005c2.404,0,4.212,1.521,4.212,4.589c0,2.691-1.378,4.693-4.212,4.693h-4.005V251.198z
			 M25.945,258.765h1.819c1.184,0,2.314-0.729,2.314-2.782c0-1.872-0.663-3.068-2.679-3.068h-1.455V258.765z"/>
		<path fill="#D74108" d="M36.462,253.577c2.119,0,3.484,1.404,3.484,3.549c0,2.133-1.365,3.536-3.484,3.536
			c-2.106,0-3.472-1.403-3.472-3.536C32.99,254.982,34.355,253.577,36.462,253.577z M36.462,259.272
			c1.261,0,1.638-1.066,1.638-2.146s-0.377-2.157-1.638-2.157c-1.248,0-1.625,1.078-1.625,2.157S35.213,259.272,36.462,259.272z"/>
		<path fill="#D74108" d="M45.6,256.125c-0.116-0.767-0.571-1.156-1.364-1.156c-1.184,0-1.573,1.195-1.573,2.184
			c0,0.975,0.377,2.119,1.534,2.119c0.871,0,1.352-0.533,1.469-1.365h1.781c-0.247,1.781-1.456,2.756-3.237,2.756
			c-2.028,0-3.394-1.43-3.394-3.444c0-2.094,1.248-3.641,3.433-3.641c1.586,0,3.055,0.832,3.159,2.548H45.6z"/>
		<path fill="#D74108" d="M54.713,260.481h-1.755v-0.936H52.92c-0.468,0.767-1.274,1.117-2.055,1.117
			c-1.963,0-2.457-1.104-2.457-2.769v-4.135h1.847v3.797c0,1.104,0.312,1.65,1.183,1.65c1.001,0,1.431-0.559,1.431-1.924v-3.523
			h1.846V260.481z"/>
		<path fill="#D74108" d="M56.091,253.759h1.742v0.91h0.025c0.481-0.688,1.17-1.092,2.055-1.092c0.845,0,1.599,0.299,1.963,1.118
			c0.402-0.585,1.092-1.118,2.027-1.118c1.431,0,2.457,0.663,2.457,2.405v4.498h-1.846v-3.81c0-0.896-0.078-1.638-1.131-1.638
			c-1.04,0-1.235,0.871-1.235,1.703v3.744h-1.846v-3.771c0-0.779,0.052-1.677-1.118-1.677c-0.364,0-1.248,0.234-1.248,1.547v3.9
			h-1.846V253.759z"/>
		<path fill="#D74108" d="M69.234,257.568c0.052,1.183,0.611,1.703,1.651,1.703c0.74,0,1.339-0.455,1.456-0.871h1.625
			c-0.521,1.599-1.625,2.262-3.146,2.262c-2.119,0-3.432-1.456-3.432-3.536c0-2.015,1.391-3.549,3.432-3.549
			c2.288,0,3.406,1.924,3.263,3.991H69.234z M72.237,256.398c-0.169-0.937-0.572-1.43-1.469-1.43c-1.196,0-1.495,0.909-1.534,1.43
			H72.237z"/>
		<path fill="#D74108" d="M75.174,253.759h1.756v0.937h0.038c0.469-0.768,1.274-1.118,2.055-1.118c1.963,0,2.457,1.105,2.457,2.77
			v4.134h-1.846v-3.796c0-1.105-0.312-1.651-1.184-1.651c-1.001,0-1.43,0.559-1.43,1.924v3.523h-1.847V253.759z"/>
		<path fill="#D74108" d="M84.952,253.759h1.352v1.235h-1.352v3.328c0,0.624,0.155,0.78,0.779,0.78c0.208,0,0.403-0.013,0.572-0.052
			v1.442c-0.312,0.053-0.715,0.065-1.079,0.065c-1.144,0-2.119-0.247-2.119-1.6v-3.965h-1.118v-1.235h1.118v-2.015h1.847V253.759z"
			/>
		<path fill="#D74108" d="M88.812,258.297c0,0.793,0.702,1.131,1.417,1.131c0.52,0,1.209-0.208,1.209-0.858
			c0-0.559-0.78-0.767-2.093-1.04c-1.079-0.247-2.133-0.598-2.133-1.794c0-1.716,1.482-2.158,2.926-2.158
			c1.456,0,2.82,0.494,2.964,2.146h-1.755c-0.053-0.716-0.599-0.91-1.262-0.91c-0.416,0-1.026,0.064-1.026,0.624
			c0,0.663,1.053,0.754,2.093,1.001c1.079,0.247,2.132,0.637,2.132,1.885c0,1.769-1.547,2.34-3.067,2.34
			c-1.561,0-3.095-0.585-3.159-2.365H88.812z"/>
	</g>
	<g opacity="0.2">
		<g>
			<path fill="#D74108" d="M44.877,289.207h-2.003h-22.03v60.081h40.054v-42.057v-2.003L44.877,289.207z M58.896,347.286H22.847
				V291.21h20.027v16.022h16.022V347.286z"/>
		</g>
		<g>
			<rect x="28.855" y="313.24" fill="#D74108" width="24.033" height="2.003"/>
		</g>
		<g>
			<rect x="28.855" y="317.245" fill="#D74108" width="24.033" height="2.003"/>
		</g>
		<g>
			<rect x="28.855" y="321.25" fill="#D74108" width="12.016" height="2.003"/>
		</g>
	</g>
	<g opacity="0.2">
		<g>
			<path fill="#D74108" d="M112.949,289.207h-2.003h-22.03v60.081h40.054v-42.057v-2.003L112.949,289.207z M126.968,347.286H90.919
				V291.21h20.027v16.022h16.022V347.286z"/>
		</g>
		<g>
			<rect x="96.927" y="313.24" fill="#D74108" width="24.033" height="2.003"/>
		</g>
		<g>
			<rect x="96.927" y="317.245" fill="#D74108" width="24.033" height="2.003"/>
		</g>
		<g>
			<rect x="96.927" y="321.25" fill="#D74108" width="12.016" height="2.003"/>
		</g>
	</g>
	<g opacity="0.2">
		<g>
			<path fill="#D74108" d="M181.021,289.207h-2.003h-22.03v60.081h40.054v-42.057v-2.003L181.021,289.207z M195.04,347.286h-36.049
				V291.21h20.027v16.022h16.022V347.286z"/>
		</g>
		<g>
			<rect x="164.999" y="313.24" fill="#D74108" width="24.033" height="2.003"/>
		</g>
		<g>
			<rect x="164.999" y="317.245" fill="#D74108" width="24.033" height="2.003"/>
		</g>
		<g>
			<rect x="164.999" y="321.25" fill="#D74108" width="12.016" height="2.003"/>
		</g>
	</g>
	<g opacity="0.2">
		<g>
			<path fill="#D74108" d="M249.092,289.207h-2.003h-22.03v60.081h40.054v-42.057v-2.003L249.092,289.207z M263.111,347.286h-36.049
				V291.21h20.027v16.022h16.022V347.286z"/>
		</g>
		<g>
			<rect x="233.071" y="313.24" fill="#D74108" width="24.033" height="2.003"/>
		</g>
		<g>
			<rect x="233.071" y="317.245" fill="#D74108" width="24.033" height="2.003"/>
		</g>
		<g>
			<rect x="233.071" y="321.25" fill="#D74108" width="12.016" height="2.003"/>
		</g>
	</g>
	<g>
		<path fill="#FFFFFF" d="M29.589,21.863l-6.871,6.871l1.874,1.874l0.045,4.997h9.95v-4.997l1.874-1.874L29.589,21.863z
			 M33.337,34.356h-7.496v-4.997l3.748-3.748l3.748,3.748V34.356z"/>
	</g>
	<g>
		<path fill="#FFFFFF" d="M46.772,25.181h2.042v3.562h3.757v-3.562h2.041v9.282h-2.041v-4.004h-3.757v4.004h-2.042V25.181z"/>
		<path fill="#FFFFFF" d="M59.201,27.56c2.119,0,3.484,1.404,3.484,3.55c0,2.131-1.365,3.535-3.484,3.535
			c-2.106,0-3.472-1.404-3.472-3.535C55.729,28.964,57.094,27.56,59.201,27.56z M59.201,33.254c1.261,0,1.638-1.066,1.638-2.145
			c0-1.08-0.377-2.158-1.638-2.158c-1.248,0-1.625,1.078-1.625,2.158C57.576,32.188,57.953,33.254,59.201,33.254z"/>
		<path fill="#FFFFFF" d="M63.686,27.742h1.741v0.91h0.026c0.481-0.689,1.17-1.093,2.054-1.093c0.846,0,1.6,0.299,1.964,1.118
			c0.402-0.585,1.092-1.118,2.027-1.118c1.431,0,2.458,0.663,2.458,2.405v4.498H72.11v-3.809c0-0.897-0.078-1.639-1.131-1.639
			c-1.04,0-1.235,0.871-1.235,1.703v3.744h-1.846v-3.77c0-0.781,0.052-1.678-1.118-1.678c-0.364,0-1.248,0.234-1.248,1.547v3.9
			h-1.846V27.742z"/>
		<path fill="#FFFFFF" d="M76.699,31.551c0.052,1.184,0.611,1.703,1.651,1.703c0.74,0,1.339-0.455,1.456-0.871h1.625
			c-0.521,1.6-1.625,2.262-3.146,2.262c-2.119,0-3.432-1.455-3.432-3.535c0-2.016,1.391-3.55,3.432-3.55
			c2.288,0,3.406,1.925,3.263,3.991H76.699z M79.702,30.381c-0.169-0.936-0.572-1.43-1.469-1.43c-1.196,0-1.495,0.91-1.534,1.43
			H79.702z"/>
	</g>
	<g>
		<path fill="#FFFFFF" d="M177,20.08h-0.625h-5.622v13.743h9.995v-9.37v-0.625L177,20.08z M179.499,32.573h-7.496V21.329h4.373
			v3.123h3.123V32.573z"/>
	</g>
	<g>
		<g>

				<rect x="270.979" y="125.224" transform="matrix(-0.7071 -0.7071 0.7071 -0.7071 373.5554 416.4941)" fill="#D74108" width="4.114" height="11.314"/>
		</g>
		<g>

				<rect x="278.19" y="122.642" transform="matrix(0.7071 -0.7071 0.7071 0.7071 -6.3946 233.9606)" fill="#D74108" width="2.057" height="4.114"/>
		</g>
		<g>
			<polygon fill="#D74108" points="265.4,138.518 268.068,137.451 266.466,135.85 			"/>
		</g>
	</g>
	<g>
		<g>

				<rect x="270.979" y="251.224" transform="matrix(-0.7071 -0.7071 0.7071 -0.7071 284.46 631.5895)" fill="#D74108" width="4.114" height="11.314"/>
		</g>
		<g>

				<rect x="278.19" y="248.642" transform="matrix(0.7071 -0.7071 0.7071 0.7071 -95.4901 270.8651)" fill="#D74108" width="2.057" height="4.114"/>
		</g>
		<g>
			<polygon fill="#D74108" points="265.4,264.518 268.068,263.451 266.466,261.85 			"/>
		</g>
	</g>
</g>
<g id="Layer_3" display="none">
</g>
<g id="Layer_2" display="none">
	<rect x="-19.629" y="-12925.957" display="inline" opacity="0.08" fill="#00FFFF" width="60" height="15684.369"/>
	<rect x="64.371" y="-12925.957" display="inline" opacity="0.08" fill="#00FFFF" width="60" height="15684.369"/>
	<rect x="148.371" y="-12925.957" display="inline" opacity="0.08" fill="#00FFFF" width="60" height="15684.369"/>
	<rect x="232.371" y="-12925.957" display="inline" opacity="0.08" fill="#00FFFF" width="60" height="15684.369"/>
</g>
</svg>
