<?xml version="1.0" encoding="utf-8"?>
<!-- Generator: Adobe Illustrator 17.1.0, SVG Export Plug-In . SVG Version: 6.00 Build 0)  -->
<!DOCTYPE svg PUBLIC "-//W3C//DTD SVG 1.1//EN" "http://www.w3.org/Graphics/SVG/1.1/DTD/svg11.dtd">
<svg version="1.1" xmlns="http://www.w3.org/2000/svg" xmlns:xlink="http://www.w3.org/1999/xlink" x="0px" y="0px"
	 viewBox="0 0 304.757 266" enable-background="new 0 0 304.757 266" xml:space="preserve">
<g id="Layer_1">
</g>
<g id="Layer_3">
	<g>
		<g>
			<polygon fill="#5596E6" points="78.228,0 151.976,127.059 225.811,0 			"/>
			<polygon fill="#5596E6" points="146.781,136 -0.758,136 72.994,262.977 			"/>
			<polygon fill="#5596E6" points="146.746,130 73.02,2.979 -0.758,130 			"/>
			<polygon fill="#5596E6" points="151.973,139.006 78.176,266 225.683,266 			"/>
			<polygon fill="#5596E6" points="157.166,136 230.936,263.097 304.757,136 			"/>
			<polygon fill="#5596E6" points="157.206,130 304.757,130 230.999,3.012 			"/>
		</g>
	</g>
	<g>
		<path fill="#FFFFFF" d="M211.406,189l4,4l17-17l-4-4L211.406,189z M215.406,190.172L214.234,189l14.172-14.172l1.172,1.172
			L215.406,190.172z"/>
		<polygon fill="#FFFFFF" points="240.406,174 238.406,174 238.406,172 231.406,165 223.406,165 234.406,176 236.406,176 
			236.406,178 237.406,179 241.406,175 		"/>
	</g>
	<polygon fill="#FFFFFF" points="250.01,102.417 231.762,80.979 230.432,82.111 231.162,82.969 214.948,96.517 223.448,97.279 
		222.686,105.778 238.985,92.159 248.68,103.549 	"/>
	<g>
		<path fill="#FFFFFF" d="M160.914,41.874l-6.707-6.707l-1.414,1.414l5.293,5.293h-13.172l5.293-5.293l-1.414-1.414l-6.707,6.707
			H136.5v3h2l2,15h22l2-15h2v-3H160.914z M160.749,57.874h-18.498l-1.467-11h21.432L160.749,57.874z"/>
		<rect x="146.5" y="48.874" fill="#FFFFFF" width="1" height="7"/>
		<rect x="149.5" y="48.874" fill="#FFFFFF" width="1" height="7"/>
		<rect x="152.5" y="48.874" fill="#FFFFFF" width="1" height="7"/>
		<rect x="155.5" y="48.874" fill="#FFFFFF" width="1" height="7"/>
	</g>
	<g>
		<g>
			<path fill="#FFFFFF" d="M166.354,216.32l-6.707-6.707l-6.707,6.707l1.414,1.414l4.293-4.293v13.586c0,5.514-4.486,10-10,10
				c-5.514,0-10-4.486-10-10c0-2.671,1.04-5.182,2.929-7.071l-1.414-1.414c-2.267,2.267-3.515,5.28-3.515,8.485
				c0,6.617,5.383,12,12,12s12-5.383,12-12v-13.586l4.293,4.293L166.354,216.32z"/>
		</g>
		<g>
			<circle fill="#FFFFFF" cx="148.646" cy="227.027" r="3"/>
		</g>
	</g>
	<g>
		<g>
			<path fill="#FFFFFF" d="M74,174c-2.761,0-5,2.239-5,5s2.239,5,5,5c2.761,0,5-2.239,5-5S76.761,174,74,174z M74,181
				c-1.105,0-2-0.895-2-2c0-1.104,0.895-2,2-2c1.104,0,2,0.896,2,2C76,180.105,75.104,181,74,181z"/>
		</g>
		<g>
			<path fill="#FFFFFF" d="M93.121,169.879C92.578,169.337,91.828,169,91,169H74c-2.761,0-5.261,1.119-7.071,2.929
				C65.119,173.738,64,176.238,64,179c0,2.762,1.119,5.262,2.929,7.071c1.81,1.81,4.31,2.929,7.071,2.929
				c2.761,0,5.257-1.123,7.071-2.929h0l0.004-0.005c3.011-2.998,12.045-11.945,12.045-11.945C93.665,173.579,94,172.829,94,172
				C94,171.171,93.665,170.421,93.121,169.879z M79.661,184.652l-0.001,0.001C78.14,186.167,76.13,187,74,187
				c-2.137,0-4.146-0.832-5.657-2.343C66.832,183.146,66,181.137,66,179c0-2.137,0.832-4.146,2.343-5.657
				C69.854,171.832,71.863,171,74,171c2.049,0,4.097,0.783,5.657,2.343C82.774,176.461,82.775,181.533,79.661,184.652z
				 M83.882,180.461c0.444-3.022-0.485-6.206-2.811-8.533c-0.344-0.343-0.711-0.646-1.089-0.929h8.2
				c-0.373,1.056-0.148,2.276,0.697,3.121c0.246,0.246,0.528,0.428,0.824,0.571C88.148,176.231,85.924,178.436,83.882,180.461z
				 M91,173c-0.552,0-1-0.448-1-1s0.448-1,1-1c0.552,0,1,0.448,1,1S91.552,173,91,173z"/>
		</g>
	</g>
	<g>
		<path fill="#FFFFFF" d="M85.35,86.379c2.209,0,4-1.791,4-4s-1.791-4-4-4s-4,1.791-4,4S83.141,86.379,85.35,86.379z M85.35,80.379
			c1.104,0,2,0.896,2,2c0,1.103-0.896,2-2,2s-2-0.897-2-2C83.35,81.275,84.247,80.379,85.35,80.379z"/>
		<path fill="#FFFFFF" d="M88.35,88.379h-6l-5,5l-5-5h-6c-1.104,0-2,0.896-2,2v8l2,2v7c0,0.553,0.447,1,1,1h4c0.553,0,1-0.447,1-1
			v-14l5,5l5-5v14c0,0.553,0.447,1,1,1h4c0.553,0,1-0.447,1-1v-7l2-2v-8C90.35,89.274,89.455,88.379,88.35,88.379z"/>
		<path fill="#FFFFFF" d="M69.35,86.379c2.209,0,4-1.791,4-4s-1.791-4-4-4s-4,1.791-4,4S67.141,86.379,69.35,86.379z M69.35,80.379
			c1.104,0,2,0.896,2,2c0,1.103-0.896,2-2,2s-2-0.897-2-2C67.35,81.275,68.247,80.379,69.35,80.379z"/>
	</g>
</g>
<g id="Layer_2">
</g>
</svg>
