<?xml version="1.0" encoding="utf-8"?>
<!-- Generator: Adobe Illustrator 18.0.0, SVG Export Plug-In . SVG Version: 6.00 Build 0)  -->
<!DOCTYPE svg PUBLIC "-//W3C//DTD SVG 1.1//EN" "http://www.w3.org/Graphics/SVG/1.1/DTD/svg11.dtd">
<svg version="1.1" id="Layer_1" xmlns="http://www.w3.org/2000/svg" xmlns:xlink="http://www.w3.org/1999/xlink" x="0px" y="0px"
	 viewBox="0 0 30 30" width="30" height="30"  enable-background="new 0 0 30 30" xml:space="preserve">
<g display="none">
	<path display="inline" fill="#5596E6" d="M24.4,9.4l-6.7-6.7l-1.4,1.4l5.3,5.3H8.4l5.3-5.3l-1.4-1.4L5.6,9.4H0v3h2l2,15h22l2-15h2
		v-3H24.4z M24.2,25.4H5.8l-1.5-11h21.4L24.2,25.4z"/>
	<rect x="10" y="16.4" display="inline" fill="#5596E6" width="1" height="7"/>
	<rect x="13" y="16.4" display="inline" fill="#5596E6" width="1" height="7"/>
	<rect x="16" y="16.4" display="inline" fill="#5596E6" width="1" height="7"/>
	<rect x="19" y="16.4" display="inline" fill="#5596E6" width="1" height="7"/>
</g>
<polygon display="none" fill="#5596E6" points="30.1,22.8 14.5,4.5 13.4,5.4 14,6.2 0.1,17.8 7.4,18.4 6.8,25.7 20.7,14 29,23.8 "/>
<g display="none">
	<path display="inline" fill="#5596E6" d="M0,25l4,4l17-17l-4-4L0,25z M4,26.2L2.8,25L17,10.8l1.2,1.2L4,26.2z"/>
	<polygon display="inline" fill="#5596E6" points="29,10 27,10 27,8 20,1 12,1 23,12 25,12 25,14 26,15 30,11 	"/>
</g>
<g>
	<g>
		<g>
			<path fill="#5596E6" d="M29.9,7l-6.7-6.7L16.4,7l1.4,1.4l4.3-4.3v13.6c0,5.5-4.5,10-10,10s-10-4.5-10-10c0-2.7,1-5.2,2.9-7.1
				L3.7,9.2c-2.3,2.3-3.5,5.3-3.5,8.5c0,6.6,5.4,12,12,12s12-5.4,12-12V4.1l4.3,4.3L29.9,7z"/>
		</g>
		<g>
			<circle fill="#5596E6" cx="12.1" cy="17.7" r="3"/>
		</g>
	</g>
</g>
<g display="none">
	<g display="inline">
		<g>
			<path fill="#5596E6" d="M10,10c-2.8,0-5,2.2-5,5s2.2,5,5,5c2.8,0,5-2.2,5-5S12.8,10,10,10z M10,17c-1.1,0-2-0.9-2-2s0.9-2,2-2
				c1.1,0,2,0.9,2,2S11.1,17,10,17z"/>
		</g>
		<g>
			<path fill="#5596E6" d="M29.1,5.9C28.6,5.3,27.8,5,27,5H10C7.2,5,4.7,6.1,2.9,7.9C1.1,9.7,0,12.2,0,15s1.1,5.3,2.9,7.1
				C4.7,23.9,7.2,25,10,25c2.8,0,5.3-1.1,7.1-2.9h0l0,0c3-3,12-11.9,12-11.9C29.7,9.6,30,8.8,30,8S29.7,6.4,29.1,5.9z M15.7,20.7
				L15.7,20.7C14.1,22.2,12.1,23,10,23c-2.1,0-4.1-0.8-5.7-2.3C2.8,19.1,2,17.1,2,15s0.8-4.1,2.3-5.7C5.9,7.8,7.9,7,10,7
				c2,0,4.1,0.8,5.7,2.3C18.8,12.5,18.8,17.5,15.7,20.7z M19.9,16.5c0.4-3-0.5-6.2-2.8-8.5C16.7,7.6,16.4,7.3,16,7h8.2
				c-0.4,1.1-0.1,2.3,0.7,3.1c0.2,0.2,0.5,0.4,0.8,0.6C24.1,12.2,21.9,14.4,19.9,16.5z M27,9c-0.6,0-1-0.4-1-1s0.4-1,1-1
				c0.6,0,1,0.4,1,1S27.6,9,27,9z"/>
		</g>
	</g>
</g>
<g display="none">
	<g display="inline">
		<path fill="#5596E6" d="M23,8c2.2,0,4-1.8,4-4s-1.8-4-4-4s-4,1.8-4,4S20.8,8,23,8z M23,2c1.1,0,2,0.9,2,2c0,1.1-0.9,2-2,2
			s-2-0.9-2-2C21,2.9,21.9,2,23,2z"/>
		<path fill="#5596E6" d="M26,10h-6l-5,5l-5-5H4c-1.1,0-2,0.9-2,2v8l2,2v7c0,0.6,0.4,1,1,1h4c0.6,0,1-0.4,1-1V15l5,5l5-5v14
			c0,0.6,0.4,1,1,1h4c0.6,0,1-0.4,1-1v-7l2-2v-8C28,10.9,27.1,10,26,10z"/>
		<path fill="#5596E6" d="M7,8c2.2,0,4-1.8,4-4S9.2,0,7,0S3,1.8,3,4S4.8,8,7,8z M7,2c1.1,0,2,0.9,2,2c0,1.1-0.9,2-2,2S5,5.1,5,4
			C5,2.9,5.9,2,7,2z"/>
	</g>
</g>
</svg>
