<?xml version="1.0" encoding="utf-8"?>
<!-- Generator: Adobe Illustrator 17.1.0, SVG Export Plug-In . SVG Version: 6.00 Build 0)  -->
<!DOCTYPE svg PUBLIC "-//W3C//DTD SVG 1.1//EN" "http://www.w3.org/Graphics/SVG/1.1/DTD/svg11.dtd">
<svg version="1.1" id="Layer_1" xmlns="http://www.w3.org/2000/svg" xmlns:xlink="http://www.w3.org/1999/xlink" x="0px" y="0px"
	 viewBox="0 0 203.281 212.772" width="203.281" height="212.772"  enable-background="new 0 0 203.281 212.772" xml:space="preserve">
<g>
	<g>
		<g>
			<polyline fill="none" stroke="#BA8FF7" stroke-width="2" points="31.019,1.632 33.519,1.632 34.394,3.974 			"/>

				<line fill="none" stroke="#BA8FF7" stroke-width="2" stroke-dasharray="5.2268,3.1361" x1="35.493" y1="6.911" x2="52.519" y2="52.441"/>
			<polyline fill="none" stroke="#BA8FF7" stroke-width="2" points="53.068,53.91 53.944,56.252 51.444,56.252 			"/>

				<line fill="none" stroke="#BA8FF7" stroke-width="2" stroke-dasharray="3.3951,2.037" x1="49.407" y1="56.252" x2="44.993" y2="56.252"/>
			<polyline fill="none" stroke="#BA8FF7" stroke-width="2" points="43.975,56.252 41.475,56.252 40.671,53.884 			"/>

				<line fill="none" stroke="#BA8FF7" stroke-width="2" stroke-dasharray="3.566,2.1396" x1="39.982" y1="51.859" x2="38.491" y2="47.469"/>
			<polyline fill="none" stroke="#BA8FF7" stroke-width="2" points="38.147,46.456 37.343,44.089 34.843,44.089 			"/>

				<line fill="none" stroke="#BA8FF7" stroke-width="2" stroke-dasharray="4.0592,2.4355" x1="32.408" y1="44.089" x2="20.636" y2="44.089"/>
			<polyline fill="none" stroke="#BA8FF7" stroke-width="2" points="19.418,44.089 16.918,44.089 16.088,46.447 			"/>

				<line fill="none" stroke="#BA8FF7" stroke-width="2" stroke-dasharray="3.5886,2.1532" x1="15.373" y1="48.478" x2="13.823" y2="52.878"/>
			<polyline fill="none" stroke="#BA8FF7" stroke-width="2" points="13.465,53.894 12.635,56.252 10.135,56.252 			"/>

				<line fill="none" stroke="#BA8FF7" stroke-width="2" stroke-dasharray="3.2215,1.9329" x1="8.202" y1="56.252" x2="4.014" y2="56.252"/>
			<polyline fill="none" stroke="#BA8FF7" stroke-width="2" points="3.048,56.252 0.548,56.252 1.432,53.913 			"/>

				<line fill="none" stroke="#BA8FF7" stroke-width="2" stroke-dasharray="5.2347,3.1408" x1="2.543" y1="50.975" x2="19.763" y2="5.44"/>
			<polyline fill="none" stroke="#BA8FF7" stroke-width="2" points="20.318,3.971 21.203,1.632 23.703,1.632 			"/>

				<line fill="none" stroke="#BA8FF7" stroke-width="2" stroke-dasharray="3.3254,1.9953" x1="25.698" y1="1.632" x2="30.021" y2="1.632"/>
		</g>
		<g>
			<polyline fill="none" stroke="#BA8FF7" stroke-width="2" points="31.707,35.138 34.207,35.138 33.395,32.774 			"/>

				<line fill="none" stroke="#BA8FF7" stroke-width="2" stroke-dasharray="4.261,2.5566" x1="32.564" y1="30.356" x2="28.549" y2="18.669"/>
			<polyline fill="none" stroke="#BA8FF7" stroke-width="2" points="28.134,17.46 27.322,15.096 27.17,15.096 26.333,17.452 			"/>

				<line fill="none" stroke="#BA8FF7" stroke-width="2" stroke-dasharray="4.281,2.5686" x1="25.474" y1="19.873" x2="21.321" y2="31.572"/>
			<polyline fill="none" stroke="#BA8FF7" stroke-width="2" points="20.891,32.782 20.055,35.138 22.555,35.138 			"/>

				<line fill="none" stroke="#BA8FF7" stroke-width="2" stroke-dasharray="4.1599,2.496" x1="25.051" y1="35.138" x2="30.459" y2="35.138"/>
		</g>
	</g>
	<g>
		<g>
			<path fill="none" stroke="#BA8FF7" stroke-width="2" d="M119.534,25.337c-0.663,0.445-1.388,0.857-2.175,1.234
				c0.836,0.241,1.619,0.526,2.349,0.856"/>
			<path fill="none" stroke="#BA8FF7" stroke-width="2" stroke-dasharray="5.0803,3.0482" d="M122.333,28.974
				c1.007,0.765,1.86,1.659,2.562,2.684c1.657,2.422,2.487,5.342,2.487,8.759c0,2.754-0.536,5.138-1.607,7.152
				c-1.071,2.015-2.512,3.66-4.322,4.934c-1.811,1.276-3.876,2.219-6.197,2.83c-2.321,0.612-4.705,0.918-7.152,0.918H85.652"/>
			<polyline fill="none" stroke="#BA8FF7" stroke-width="2" points="84.135,56.252 81.635,56.252 81.635,53.752 			"/>

				<line fill="none" stroke="#BA8FF7" stroke-width="2" stroke-dasharray="4.8646,2.9188" x1="81.635" y1="50.833" x2="81.635" y2="5.592"/>
			<polyline fill="none" stroke="#BA8FF7" stroke-width="2" points="81.635,4.132 81.635,1.632 84.135,1.632 			"/>
			<path fill="none" stroke="#BA8FF7" stroke-width="2" stroke-dasharray="5.1235,3.0741" d="M87.209,1.632h20.13
				c2.601,0,4.972,0.23,7.114,0.688c2.142,0.459,3.978,1.212,5.508,2.257c1.531,1.046,2.716,2.436,3.558,4.169
				c0.841,1.734,1.262,3.876,1.262,6.426c0,2.754-0.625,5.049-1.874,6.885c-0.584,0.857-1.297,1.642-2.142,2.354"/>
		</g>
		<g>
			<polyline fill="none" stroke="#BA8FF7" stroke-width="2" points="96.145,10.965 93.645,10.965 93.645,13.465 			"/>

				<line fill="none" stroke="#BA8FF7" stroke-width="2" stroke-dasharray="3.5343,2.1206" x1="93.645" y1="15.585" x2="93.645" y2="20.18"/>
			<polyline fill="none" stroke="#BA8FF7" stroke-width="2" points="93.645,21.24 93.645,23.74 96.145,23.74 			"/>
			<path fill="none" stroke="#BA8FF7" stroke-width="2" stroke-dasharray="4.8188,2.8913" d="M99.037,23.74h6.772
				c2.142,0,3.901-0.509,5.279-1.53c1.376-1.02,2.066-2.678,2.066-4.973c0-1.275-0.23-2.321-0.689-3.137
				c-0.458-0.815-1.071-1.453-1.836-1.912c-0.765-0.458-1.644-0.777-2.639-0.956c-0.994-0.178-2.027-0.268-3.098-0.268h-7.299"/>
		</g>
		<g>
			<polyline fill="none" stroke="#BA8FF7" stroke-width="2" points="96.145,31.925 93.645,31.925 93.645,34.425 			"/>

				<line fill="none" stroke="#BA8FF7" stroke-width="2" stroke-dasharray="4.5428,2.7257" x1="93.645" y1="37.151" x2="93.645" y2="43.056"/>
			<polyline fill="none" stroke="#BA8FF7" stroke-width="2" points="93.645,44.419 93.645,46.919 96.145,46.919 			"/>
			<path fill="none" stroke="#BA8FF7" stroke-width="2" stroke-dasharray="4.6372,2.7823" d="M98.928,46.919h7.569
				c1.173,0,2.295-0.115,3.366-0.345c1.071-0.23,2.014-0.612,2.83-1.148c0.815-0.535,1.465-1.262,1.951-2.18
				c0.484-0.918,0.727-2.091,0.727-3.52c0-2.804-0.791-4.806-2.371-6.004c-1.582-1.198-3.672-1.799-6.273-1.799h-9.19"/>
		</g>
	</g>
	<g>
		<path fill="none" stroke="#BA8FF7" stroke-width="2" d="M189.203,37.674c0.195-0.781,0.346-1.6,0.454-2.459h2.5"/>

			<line fill="none" stroke="#BA8FF7" stroke-width="2" stroke-dasharray="3.0126,1.8076" x1="193.965" y1="35.215" x2="197.881" y2="35.215"/>
		<path fill="none" stroke="#BA8FF7" stroke-width="2" d="M198.785,35.215h2.5c-0.076,0.848-0.182,1.675-0.317,2.482"/>
		<path fill="none" stroke="#BA8FF7" stroke-width="2" stroke-dasharray="4.9453,2.9672" d="M200.328,40.596
			c-0.376,1.357-0.847,2.649-1.415,3.875c-1.276,2.754-2.958,5.1-5.048,7.038c-2.092,1.939-4.54,3.417-7.344,4.437
			c-2.805,1.02-5.89,1.531-9.256,1.531c-4.183,0-7.944-0.727-11.283-2.18c-3.341-1.453-6.158-3.454-8.453-6.005
			c-2.295-2.549-4.055-5.546-5.279-8.988c-1.224-3.443-1.836-7.153-1.836-11.131c0-4.079,0.612-7.865,1.836-11.36
			c1.224-3.492,2.984-6.54,5.279-9.141c2.294-2.602,5.112-4.64,8.453-6.12c3.339-1.478,7.101-2.219,11.283-2.219
			c3.009,0,5.852,0.434,8.529,1.301c2.677,0.868,5.074,2.13,7.19,3.787c2.116,1.658,3.863,3.71,5.241,6.158
			c0.781,1.387,1.397,2.889,1.85,4.506"/>
		<path fill="none" stroke="#BA8FF7" stroke-width="2" d="M200.427,17.521c0.169,0.798,0.302,1.622,0.398,2.471h-2.5"/>

			<line fill="none" stroke="#BA8FF7" stroke-width="2" stroke-dasharray="3.0126,1.8076" x1="196.518" y1="19.992" x2="192.601" y2="19.992"/>
		<path fill="none" stroke="#BA8FF7" stroke-width="2" d="M191.698,19.992h-2.5c-0.125-0.845-0.346-1.646-0.663-2.404"/>
		<path fill="none" stroke="#BA8FF7" stroke-width="2" stroke-dasharray="5.0901,3.0541" d="M186.952,14.985
			c-0.532-0.656-1.134-1.256-1.808-1.802c-1.071-0.867-2.283-1.542-3.634-2.027c-1.351-0.484-2.767-0.727-4.245-0.727
			c-2.703,0-4.999,0.524-6.885,1.568c-1.887,1.046-3.417,2.448-4.59,4.208c-1.174,1.759-2.027,3.761-2.562,6.005
			c-0.536,2.244-0.804,4.564-0.804,6.961c0,2.295,0.268,4.527,0.804,6.694c0.535,2.168,1.389,4.119,2.562,5.852
			c1.173,1.734,2.702,3.125,4.59,4.169c1.886,1.046,4.182,1.568,6.885,1.568c3.672,0,6.54-1.121,8.606-3.365
			c1.27-1.379,2.235-3.028,2.898-4.947"/>
	</g>
	<g>
		<g>
			<polyline fill="none" stroke="#BA8FF7" stroke-width="2" points="8.785,133.032 6.285,133.032 6.285,130.532 			"/>

				<line fill="none" stroke="#BA8FF7" stroke-width="2" stroke-dasharray="4.8646,2.9188" x1="6.285" y1="127.613" x2="6.285" y2="82.372"/>
			<polyline fill="none" stroke="#BA8FF7" stroke-width="2" points="6.285,80.913 6.285,78.413 8.785,78.413 			"/>
			<path fill="none" stroke="#BA8FF7" stroke-width="2" stroke-dasharray="5.1058,3.0635" d="M11.848,78.413h17.998
				c3.519,0,6.795,0.562,9.83,1.683c3.033,1.122,5.661,2.806,7.879,5.049c2.219,2.245,3.952,5.049,5.202,8.415
				c1.248,3.366,1.874,7.319,1.874,11.857c0,3.978-0.511,7.65-1.53,11.015c-1.022,3.366-2.563,6.273-4.629,8.721
				c-2.065,2.448-4.641,4.374-7.726,5.776c-3.086,1.404-6.72,2.104-10.9,2.104h-19.53"/>
		</g>
		<g>
			<polyline fill="none" stroke="#BA8FF7" stroke-width="2" points="20.796,88.511 18.296,88.511 18.296,91.011 			"/>

				<line fill="none" stroke="#BA8FF7" stroke-width="2" stroke-dasharray="5.4489,3.2693" x1="18.296" y1="94.28" x2="18.296" y2="118.8"/>
			<polyline fill="none" stroke="#BA8FF7" stroke-width="2" points="18.296,120.435 18.296,122.935 20.796,122.935 			"/>
			<path fill="none" stroke="#BA8FF7" stroke-width="2" stroke-dasharray="4.9234,2.9541" d="M23.75,122.935h5.256
				c1.733,0,3.416-0.28,5.048-0.842c1.632-0.56,3.085-1.491,4.361-2.792c1.274-1.3,2.294-2.995,3.06-5.086
				c0.765-2.091,1.147-4.64,1.147-7.65c0-2.754-0.267-5.241-0.803-7.459c-0.535-2.218-1.415-4.117-2.639-5.699
				c-1.224-1.58-2.843-2.792-4.858-3.633c-2.015-0.841-4.501-1.262-7.458-1.262h-4.591"/>
		</g>
	</g>
	<g>
		<polyline fill="none" stroke="#BA8FF7" stroke-width="2" points="121.442,78.413 123.942,78.413 123.942,80.913 		"/>
		<polyline fill="none" stroke="#BA8FF7" stroke-width="2" points="123.942,86.011 123.942,88.511 121.442,88.511 		"/>

			<line fill="none" stroke="#BA8FF7" stroke-width="2" stroke-dasharray="4.4148,2.6489" x1="118.793" y1="88.511" x2="98.927" y2="88.511"/>
		<polyline fill="none" stroke="#BA8FF7" stroke-width="2" points="97.602,88.511 95.102,88.511 95.102,91.011 		"/>

			<line fill="none" stroke="#BA8FF7" stroke-width="2" stroke-dasharray="3.047,1.8282" x1="95.102" y1="92.839" x2="95.102" y2="96.8"/>
		<polyline fill="none" stroke="#BA8FF7" stroke-width="2" points="95.102,97.715 95.102,100.215 97.602,100.215 		"/>

			<line fill="none" stroke="#BA8FF7" stroke-width="2" stroke-dasharray="5.6494,3.3897" x1="100.992" y1="100.215" x2="117.375" y2="100.215"/>
		<polyline fill="none" stroke="#BA8FF7" stroke-width="2" points="119.07,100.215 121.57,100.215 121.57,102.715 		"/>
		<polyline fill="none" stroke="#BA8FF7" stroke-width="2" points="121.57,107.048 121.57,109.548 119.07,109.548 		"/>

			<line fill="none" stroke="#BA8FF7" stroke-width="2" stroke-dasharray="5.6494,3.3897" x1="115.68" y1="109.548" x2="99.297" y2="109.548"/>
		<polyline fill="none" stroke="#BA8FF7" stroke-width="2" points="97.602,109.548 95.102,109.548 95.102,112.048 		"/>

			<line fill="none" stroke="#BA8FF7" stroke-width="2" stroke-dasharray="3.8123,2.2874" x1="95.102" y1="114.335" x2="95.102" y2="119.291"/>
		<polyline fill="none" stroke="#BA8FF7" stroke-width="2" points="95.102,120.435 95.102,122.935 97.602,122.935 		"/>

			<line fill="none" stroke="#BA8FF7" stroke-width="2" stroke-dasharray="4.528,2.7168" x1="100.319" y1="122.935" x2="120.695" y2="122.935"/>
		<polyline fill="none" stroke="#BA8FF7" stroke-width="2" points="122.054,122.935 124.554,122.935 124.554,125.435 		"/>
		<polyline fill="none" stroke="#BA8FF7" stroke-width="2" points="124.554,130.532 124.554,133.032 122.054,133.032 		"/>

			<line fill="none" stroke="#BA8FF7" stroke-width="2" stroke-dasharray="5.2088,3.1253" x1="118.928" y1="133.032" x2="87.154" y2="133.032"/>
		<polyline fill="none" stroke="#BA8FF7" stroke-width="2" points="85.592,133.032 83.092,133.032 83.092,130.532 		"/>

			<line fill="none" stroke="#BA8FF7" stroke-width="2" stroke-dasharray="4.8646,2.9188" x1="83.092" y1="127.613" x2="83.092" y2="82.372"/>
		<polyline fill="none" stroke="#BA8FF7" stroke-width="2" points="83.092,80.913 83.092,78.413 85.592,78.413 		"/>

			<line fill="none" stroke="#BA8FF7" stroke-width="2" stroke-dasharray="5.1215,3.0729" x1="88.665" y1="78.413" x2="119.906" y2="78.413"/>
	</g>
	<g>
		<polyline fill="none" stroke="#BA8FF7" stroke-width="2" points="194.339,78.413 196.839,78.413 196.839,80.913 		"/>
		<polyline fill="none" stroke="#BA8FF7" stroke-width="2" points="196.839,86.011 196.839,88.511 194.339,88.511 		"/>

			<line fill="none" stroke="#BA8FF7" stroke-width="2" stroke-dasharray="5.6293,3.3776" x1="190.962" y1="88.511" x2="174.637" y2="88.511"/>
		<polyline fill="none" stroke="#BA8FF7" stroke-width="2" points="172.948,88.511 170.448,88.511 170.448,91.011 		"/>

			<line fill="none" stroke="#BA8FF7" stroke-width="2" stroke-dasharray="3.4642,2.0785" x1="170.448" y1="93.09" x2="170.448" y2="97.593"/>
		<polyline fill="none" stroke="#BA8FF7" stroke-width="2" points="170.448,98.633 170.448,101.133 172.948,101.133 		"/>

			<line fill="none" stroke="#BA8FF7" stroke-width="2" stroke-dasharray="4.7033,2.822" x1="175.77" y1="101.133" x2="189.41" y2="101.133"/>
		<polyline fill="none" stroke="#BA8FF7" stroke-width="2" points="190.821,101.133 193.321,101.133 193.321,103.633 		"/>
		<polyline fill="none" stroke="#BA8FF7" stroke-width="2" points="193.321,107.966 193.321,110.466 190.821,110.466 		"/>

			<line fill="none" stroke="#BA8FF7" stroke-width="2" stroke-dasharray="4.7033,2.822" x1="187.999" y1="110.466" x2="174.359" y2="110.466"/>
		<polyline fill="none" stroke="#BA8FF7" stroke-width="2" points="172.948,110.466 170.448,110.466 170.448,112.966 		"/>

			<line fill="none" stroke="#BA8FF7" stroke-width="2" stroke-dasharray="4.6227,2.7736" x1="170.448" y1="115.74" x2="170.448" y2="129.145"/>
		<polyline fill="none" stroke="#BA8FF7" stroke-width="2" points="170.448,130.532 170.448,133.032 167.948,133.032 		"/>

			<line fill="none" stroke="#BA8FF7" stroke-width="2" stroke-dasharray="3.1866,1.912" x1="166.036" y1="133.032" x2="161.894" y2="133.032"/>
		<polyline fill="none" stroke="#BA8FF7" stroke-width="2" points="160.938,133.032 158.438,133.032 158.438,130.532 		"/>

			<line fill="none" stroke="#BA8FF7" stroke-width="2" stroke-dasharray="4.8646,2.9188" x1="158.438" y1="127.613" x2="158.438" y2="82.372"/>
		<polyline fill="none" stroke="#BA8FF7" stroke-width="2" points="158.438,80.913 158.438,78.413 160.938,78.413 		"/>

			<line fill="none" stroke="#BA8FF7" stroke-width="2" stroke-dasharray="4.7717,2.863" x1="163.801" y1="78.413" x2="192.908" y2="78.413"/>
	</g>
</g>
<g>
	<g>
		<path fill="none" stroke="#BA8FF7" stroke-width="2" d="M53.544,170.784c0.166,0.798,0.29,1.623,0.374,2.475h-2.5"/>

			<line fill="none" stroke="#BA8FF7" stroke-width="2" stroke-dasharray="2.8662,1.7197" x1="49.698" y1="173.259" x2="45.972" y2="173.259"/>
		<path fill="none" stroke="#BA8FF7" stroke-width="2" d="M45.113,173.259h-2.5c-0.2-0.854-0.452-1.648-0.756-2.381"/>
		<path fill="none" stroke="#BA8FF7" stroke-width="2" stroke-dasharray="5.0015,3.0009" d="M40.367,168.276
			c-0.533-0.687-1.141-1.288-1.824-1.8c-2.01-1.508-4.447-2.261-7.311-2.261c-2.664,0-4.925,0.516-6.784,1.545
			c-1.859,1.03-3.366,2.412-4.522,4.146c-1.157,1.733-1.997,3.706-2.525,5.917c-0.528,2.211-0.792,4.497-0.792,6.858
			c0,2.261,0.264,4.46,0.792,6.595c0.527,2.136,1.368,4.058,2.525,5.766c1.156,1.709,2.663,3.078,4.522,4.108
			c1.859,1.03,4.12,1.545,6.784,1.545c3.919,0,6.945-0.992,9.082-2.977c1.322-1.228,2.303-2.799,2.941-4.713"/>
		<path fill="none" stroke="#BA8FF7" stroke-width="2" d="M43.657,191.558c0.177-0.776,0.306-1.599,0.387-2.471h-2.5"/>

			<line fill="none" stroke="#BA8FF7" stroke-width="2" stroke-dasharray="3.1401,1.8841" x1="39.66" y1="189.087" x2="35.578" y2="189.087"/>
		<polyline fill="none" stroke="#BA8FF7" stroke-width="2" points="34.636,189.087 32.136,189.087 32.136,186.587 		"/>
		<polyline fill="none" stroke="#BA8FF7" stroke-width="2" points="32.136,182.768 32.136,180.268 34.636,180.268 		"/>

			<line fill="none" stroke="#BA8FF7" stroke-width="2" stroke-dasharray="4.6345,2.7807" x1="37.417" y1="180.268" x2="50.857" y2="180.268"/>
		<polyline fill="none" stroke="#BA8FF7" stroke-width="2" points="52.247,180.268 54.747,180.268 54.747,182.768 		"/>

			<line fill="none" stroke="#BA8FF7" stroke-width="2" stroke-dasharray="4.4617,2.677" x1="54.747" y1="185.445" x2="54.747" y2="205.523"/>
		<polyline fill="none" stroke="#BA8FF7" stroke-width="2" points="54.747,206.862 54.747,209.362 52.247,209.362 		"/>
		<polyline fill="none" stroke="#BA8FF7" stroke-width="2" points="49.71,209.362 47.21,209.362 46.726,206.909 		"/>
		<path fill="none" stroke="#BA8FF7" stroke-width="2" d="M46.488,205.709l-0.485-2.453c-0.531,0.682-1.075,1.313-1.635,1.892"/>
		<path fill="none" stroke="#BA8FF7" stroke-width="2" stroke-dasharray="5.0193,3.0116" d="M42.114,207.147
			c-0.999,0.745-2.039,1.345-3.119,1.8c-2.563,1.08-5.151,1.621-7.763,1.621c-4.121,0-7.827-0.717-11.117-2.148
			c-3.292-1.432-6.068-3.403-8.328-5.917c-2.261-2.512-3.995-5.464-5.201-8.856c-1.206-3.392-1.809-7.048-1.809-10.967
			c0-4.019,0.603-7.75,1.809-11.192c1.206-3.441,2.94-6.444,5.201-9.006c2.261-2.563,5.036-4.572,8.328-6.03
			c3.29-1.456,6.996-2.186,11.117-2.186c2.763,0,5.438,0.415,8.027,1.244c2.588,0.829,4.924,2.048,7.01,3.655
			c2.085,1.609,3.806,3.594,5.162,5.955c0.744,1.296,1.33,2.697,1.757,4.204"/>
	</g>
	<g>
		<polyline fill="none" stroke="#BA8FF7" stroke-width="2" points="91.778,155.547 94.278,155.547 94.278,158.047 		"/>

			<line fill="none" stroke="#BA8FF7" stroke-width="2" stroke-dasharray="4.1188,2.4713" x1="94.278" y1="160.518" x2="94.278" y2="172.463"/>
		<polyline fill="none" stroke="#BA8FF7" stroke-width="2" points="94.278,173.698 94.278,176.198 96.778,176.198 		"/>

			<line fill="none" stroke="#BA8FF7" stroke-width="2" stroke-dasharray="4.4164,2.6498" x1="99.428" y1="176.198" x2="112.236" y2="176.198"/>
		<polyline fill="none" stroke="#BA8FF7" stroke-width="2" points="113.561,176.198 116.061,176.198 116.061,173.698 		"/>

			<line fill="none" stroke="#BA8FF7" stroke-width="2" stroke-dasharray="4.1188,2.4713" x1="116.061" y1="171.227" x2="116.061" y2="159.282"/>
		<polyline fill="none" stroke="#BA8FF7" stroke-width="2" points="116.061,158.047 116.061,155.547 118.561,155.547 		"/>

			<line fill="none" stroke="#BA8FF7" stroke-width="2" stroke-dasharray="3.1058,1.8635" x1="120.424" y1="155.547" x2="124.462" y2="155.547"/>
		<polyline fill="none" stroke="#BA8FF7" stroke-width="2" points="125.393,155.547 127.893,155.547 127.893,158.047 		"/>

			<line fill="none" stroke="#BA8FF7" stroke-width="2" stroke-dasharray="4.7858,2.8715" x1="127.893" y1="160.918" x2="127.893" y2="205.426"/>
		<polyline fill="none" stroke="#BA8FF7" stroke-width="2" points="127.893,206.862 127.893,209.362 125.393,209.362 		"/>

			<line fill="none" stroke="#BA8FF7" stroke-width="2" stroke-dasharray="3.1058,1.8635" x1="123.53" y1="209.362" x2="119.492" y2="209.362"/>
		<polyline fill="none" stroke="#BA8FF7" stroke-width="2" points="118.561,209.362 116.061,209.362 116.061,206.862 		"/>

			<line fill="none" stroke="#BA8FF7" stroke-width="2" stroke-dasharray="4.7931,2.8759" x1="116.061" y1="203.986" x2="116.061" y2="190.086"/>
		<polyline fill="none" stroke="#BA8FF7" stroke-width="2" points="116.061,188.648 116.061,186.148 113.561,186.148 		"/>

			<line fill="none" stroke="#BA8FF7" stroke-width="2" stroke-dasharray="4.4164,2.6498" x1="110.911" y1="186.148" x2="98.103" y2="186.148"/>
		<polyline fill="none" stroke="#BA8FF7" stroke-width="2" points="96.778,186.148 94.278,186.148 94.278,188.648 		"/>

			<line fill="none" stroke="#BA8FF7" stroke-width="2" stroke-dasharray="4.7931,2.8759" x1="94.278" y1="191.523" x2="94.278" y2="205.424"/>
		<polyline fill="none" stroke="#BA8FF7" stroke-width="2" points="94.278,206.862 94.278,209.362 91.778,209.362 		"/>

			<line fill="none" stroke="#BA8FF7" stroke-width="2" stroke-dasharray="3.1062,1.8637" x1="89.914" y1="209.362" x2="85.876" y2="209.362"/>
		<polyline fill="none" stroke="#BA8FF7" stroke-width="2" points="84.944,209.362 82.444,209.362 82.444,206.862 		"/>

			<line fill="none" stroke="#BA8FF7" stroke-width="2" stroke-dasharray="4.7858,2.8715" x1="82.444" y1="203.99" x2="82.444" y2="159.482"/>
		<polyline fill="none" stroke="#BA8FF7" stroke-width="2" points="82.444,158.047 82.444,155.547 84.944,155.547 		"/>

			<line fill="none" stroke="#BA8FF7" stroke-width="2" stroke-dasharray="3.1062,1.8637" x1="86.808" y1="155.547" x2="90.846" y2="155.547"/>
	</g>
	<g>
		<polyline fill="none" stroke="#BA8FF7" stroke-width="2" points="177.291,155.547 179.791,155.547 179.791,158.047 		"/>

			<line fill="none" stroke="#BA8FF7" stroke-width="2" stroke-dasharray="4.7858,2.8715" x1="179.791" y1="160.918" x2="179.791" y2="205.426"/>
		<polyline fill="none" stroke="#BA8FF7" stroke-width="2" points="179.791,206.862 179.791,209.362 177.291,209.362 		"/>

			<line fill="none" stroke="#BA8FF7" stroke-width="2" stroke-dasharray="3.1062,1.8637" x1="175.428" y1="209.362" x2="171.389" y2="209.362"/>
		<polyline fill="none" stroke="#BA8FF7" stroke-width="2" points="170.458,209.362 167.958,209.362 167.958,206.862 		"/>

			<line fill="none" stroke="#BA8FF7" stroke-width="2" stroke-dasharray="4.7858,2.8715" x1="167.958" y1="203.99" x2="167.958" y2="159.482"/>
		<polyline fill="none" stroke="#BA8FF7" stroke-width="2" points="167.958,158.047 167.958,155.547 170.458,155.547 		"/>

			<line fill="none" stroke="#BA8FF7" stroke-width="2" stroke-dasharray="3.1062,1.8637" x1="172.321" y1="155.547" x2="176.359" y2="155.547"/>
	</g>
</g>
</svg>
