<?xml version="1.0" encoding="utf-8"?>
<!-- Generator: Adobe Illustrator 18.0.0, SVG Export Plug-In . SVG Version: 6.00 Build 0)  -->
<!DOCTYPE svg PUBLIC "-//W3C//DTD SVG 1.1//EN" "http://www.w3.org/Graphics/SVG/1.1/DTD/svg11.dtd">
<svg version="1.1" id="Layer_1" xmlns="http://www.w3.org/2000/svg" xmlns:xlink="http://www.w3.org/1999/xlink" x="0px" y="0px"
	 viewBox="0 0 60 67" width="60" height="67"  enable-background="new 0 0 60 67" xml:space="preserve">
<g>
	<path fill="#9855D4" d="M17.7,40.7v26.2H4.6V1.4h24.7c7.5,0,13.3,1.7,17.5,5.1c4.2,3.4,6.3,8.1,6.3,14.2c0,3.4-0.9,6.3-2.7,8.7
		c-1.8,2.4-4.4,4.4-7.8,5.9c3.9,1.1,6.6,3,8.3,5.7c1.7,2.7,2.5,6,2.5,9.9v4.8c0,1.8,0.2,3.7,0.7,5.7c0.5,2,1.3,3.5,2.5,4.4v0.9H43.3
		c-1.2-1-2-2.6-2.3-4.8s-0.5-4.4-0.5-6.4V51c0-3.3-0.9-5.8-2.7-7.6c-1.8-1.8-4.3-2.7-7.5-2.7H17.7z M17.7,30.5H29
		c3.7,0,6.4-0.8,8.2-2.3c1.8-1.6,2.7-3.9,2.7-6.9c0-3-0.9-5.4-2.7-7.1c-1.8-1.8-4.5-2.7-8-2.7H17.7V30.5z"/>
</g>
</svg>
