<?xml version="1.0" encoding="utf-8"?>
<!-- Generator: Adobe Illustrator 18.0.0, SVG Export Plug-In . SVG Version: 6.00 Build 0)  -->
<!DOCTYPE svg PUBLIC "-//W3C//DTD SVG 1.1//EN" "http://www.w3.org/Graphics/SVG/1.1/DTD/svg11.dtd">
<svg version="1.1" id="Layer_1" xmlns="http://www.w3.org/2000/svg" xmlns:xlink="http://www.w3.org/1999/xlink" x="0px" y="0px"
	 viewBox="0 0 135 180" width="135" height="180"  enable-background="new 0 0 135 180" xml:space="preserve">
<g>
	<rect x="13.5" y="33.9" opacity="0.5" fill="#9855D4" width="11.7" height="11.7"/>
	<rect x="25.6" y="33.9" fill="#9855D4" width="11.7" height="11.7"/>
	<rect x="37.7" y="33.9" fill="#9855D4" width="11.7" height="11.7"/>
	<rect x="49.9" y="33.9" fill="#9855D4" width="11.7" height="11.7"/>
	<rect x="62" y="33.9" fill="#9855D4" width="11.7" height="11.7"/>
	<rect x="74.1" y="33.9" fill="#9855D4" width="11.7" height="11.7"/>
	<rect x="86.2" y="33.9" opacity="0.8" fill="#9855D4" width="11.7" height="11.7"/>
	<rect x="13.5" y="46" opacity="0.5" fill="#9855D4" width="11.7" height="11.7"/>
	<rect x="25.6" y="46" fill="#9855D4" width="11.7" height="11.7"/>
	<rect x="37.7" y="46" opacity="0.5" fill="#9855D4" width="11.7" height="11.7"/>
	<rect x="49.9" y="46" opacity="0.5" fill="#9855D4" width="11.7" height="11.7"/>
	<rect x="62" y="46" opacity="0.5" fill="#9855D4" width="11.7" height="11.7"/>
	<rect x="74.1" y="46" opacity="0.8" fill="#9855D4" width="11.7" height="11.7"/>
	<rect x="86.2" y="46" fill="#9855D4" width="11.7" height="11.7"/>
	<rect x="13.5" y="58.1" opacity="0.5" fill="#9855D4" width="11.7" height="11.7"/>
	<rect x="25.6" y="58.1" fill="#9855D4" width="11.7" height="11.7"/>
	<rect x="37.7" y="58.1" opacity="0.15" fill="#9855D4" width="11.7" height="11.7"/>
	<rect x="13.5" y="70.2" opacity="0.5" fill="#9855D4" width="11.7" height="11.7"/>
	<rect x="25.6" y="70.2" fill="#9855D4" width="11.7" height="11.7"/>
	<rect x="37.7" y="70.2" opacity="0.15" fill="#9855D4" width="11.7" height="11.7"/>
	<rect x="13.5" y="82.4" opacity="0.5" fill="#9855D4" width="11.7" height="11.7"/>
	<rect x="25.6" y="82.4" fill="#9855D4" width="11.7" height="11.7"/>
	<rect x="37.7" y="82.4" opacity="0.15" fill="#9855D4" width="11.7" height="11.7"/>
	<rect x="13.5" y="94.5" opacity="0.5" fill="#9855D4" width="11.7" height="11.7"/>
	<rect x="25.6" y="94.5" fill="#9855D4" width="11.7" height="11.7"/>
	<rect x="37.7" y="94.5" opacity="0.4" fill="#9855D4" width="11.7" height="11.7"/>
	<rect x="49.9" y="94.5" opacity="0.3" fill="#9855D4" width="11.7" height="11.7"/>
	<rect x="62" y="94.5" opacity="0.3" fill="#9855D4" width="11.7" height="11.7"/>
	<rect x="74.1" y="94.5" opacity="0.3" fill="#9855D4" width="11.7" height="11.7"/>
	<rect x="86.2" y="94.5" opacity="0.8" fill="#9855D4" width="11.7" height="11.7"/>
	<rect x="13.5" y="106.6" opacity="0.5" fill="#9855D4" width="11.7" height="11.7"/>
	<rect x="25.6" y="106.6" fill="#9855D4" width="11.7" height="11.7"/>
	<rect x="37.7" y="106.6" fill="#9855D4" width="11.7" height="11.7"/>
	<rect x="49.9" y="106.6" fill="#9855D4" width="11.7" height="11.7"/>
	<rect x="62" y="106.6" fill="#9855D4" width="11.7" height="11.7"/>
	<rect x="74.1" y="106.6" fill="#9855D4" width="11.7" height="11.7"/>
	<rect x="86.2" y="106.6" fill="#9855D4" width="11.7" height="11.7"/>
	<rect x="13.5" y="118.7" opacity="0.5" fill="#9855D4" width="11.7" height="11.7"/>
	<rect x="25.6" y="118.7" fill="#9855D4" width="11.7" height="11.7"/>
	<rect x="37.7" y="118.7" opacity="0.15" fill="#9855D4" width="11.7" height="11.7"/>
	<rect x="13.5" y="131" opacity="0.5" fill="#9855D4" width="11.7" height="11.7"/>
	<rect x="25.6" y="131" fill="#9855D4" width="11.7" height="11.7"/>
	<rect x="37.7" y="131" opacity="0.15" fill="#9855D4" width="11.7" height="11.7"/>
	<rect x="13.5" y="143.1" opacity="0.5" fill="#9855D4" width="11.7" height="11.7"/>
	<rect x="25.6" y="143.1" fill="#9855D4" width="11.7" height="11.7"/>
	<rect x="37.7" y="143.1" opacity="0.15" fill="#9855D4" width="11.7" height="11.7"/>
	<rect x="13.5" y="155.2" opacity="0.5" fill="#9855D4" width="11.7" height="11.7"/>
	<rect x="25.6" y="155.2" fill="#9855D4" width="11.7" height="11.7"/>
	<rect x="37.7" y="155.2" opacity="0.15" fill="#9855D4" width="11.7" height="11.7"/>
	<rect x="13.5" y="167.3" opacity="0.3" fill="#9855D4" width="11.7" height="11.7"/>
	<rect x="25.6" y="167.3" opacity="0.5" fill="#9855D4" width="11.7" height="11.7"/>
	<rect x="37.7" y="167.3" opacity="0.15" fill="#9855D4" width="11.7" height="11.7"/>
	<rect x="98.4" y="33.9" opacity="0.15" fill="#9855D4" width="11.7" height="11.7"/>
	<rect x="98.4" y="46" fill="#9855D4" width="11.7" height="11.7"/>
	<rect x="110.5" y="46" opacity="0.15" fill="#9855D4" width="11.7" height="11.7"/>
	<rect x="98.4" y="58.1" fill="#9855D4" width="11.7" height="11.7"/>
	<rect x="110.5" y="58.1" fill="#9855D4" width="11.7" height="11.7"/>
	<rect x="98.4" y="70.2" opacity="0.8" fill="#9855D4" width="11.7" height="11.7"/>
	<rect x="110.5" y="70.2" fill="#9855D4" width="11.7" height="11.7"/>
	<rect x="98.4" y="82.4" fill="#9855D4" width="11.7" height="11.7"/>
	<rect x="110.5" y="82.4" fill="#9855D4" width="11.7" height="11.7"/>
	<rect x="98.4" y="94.5" fill="#9855D4" width="11.7" height="11.7"/>
	<rect x="110.5" y="94.5" opacity="0.5" fill="#9855D4" width="11.7" height="11.7"/>
	<rect x="98.4" y="106.6" opacity="0.5" fill="#9855D4" width="11.7" height="11.7"/>
</g>
</svg>
