<?xml version="1.0" encoding="utf-8"?>
<!-- Generator: Adobe Illustrator 18.0.0, SVG Export Plug-In . SVG Version: 6.00 Build 0)  -->
<!DOCTYPE svg PUBLIC "-//W3C//DTD SVG 1.1//EN" "http://www.w3.org/Graphics/SVG/1.1/DTD/svg11.dtd">
<svg version="1.1" id="Layer_1" xmlns="http://www.w3.org/2000/svg" xmlns:xlink="http://www.w3.org/1999/xlink" x="0px" y="0px"
	 viewBox="0 0 60 67" width="60" height="67"  enable-background="new 0 0 60 67" xml:space="preserve">
<g>
	<path fill="#9855D4" d="M0.5,66.5V0.6h28c7,0,12.2,0.6,15.3,1.8c3.2,1.2,5.7,3.3,7.7,6.3c1.9,3,2.9,6.5,2.9,10.4
		c0,4.9-1.5,9-4.4,12.2c-2.9,3.2-7.3,5.3-13,6.1c2.9,1.7,5.3,3.5,7.1,5.5c1.9,2,4.4,5.6,7.6,10.7l8,12.9H43.9l-9.6-14.3
		c-3.4-5.1-5.8-8.4-7-9.7c-1.3-1.3-2.6-2.2-4-2.7S19.6,39,16.5,39h-2.7v27.5H0.5z M13.8,28.5h9.8c6.4,0,10.4-0.3,12-0.8
		c1.6-0.5,2.8-1.5,3.7-2.8c0.9-1.3,1.3-3,1.3-4.9c0-2.2-0.6-4-1.8-5.4s-2.9-2.2-5-2.6c-1.1-0.1-4.3-0.2-9.7-0.2H13.8V28.5z"/>
</g>
</svg>
