<?xml version="1.0" encoding="utf-8"?>
<!-- Generator: Adobe Illustrator 18.0.0, SVG Export Plug-In . SVG Version: 6.00 Build 0)  -->
<!DOCTYPE svg PUBLIC "-//W3C//DTD SVG 1.1//EN" "http://www.w3.org/Graphics/SVG/1.1/DTD/svg11.dtd">
<svg version="1.1" id="Layer_1" xmlns="http://www.w3.org/2000/svg" xmlns:xlink="http://www.w3.org/1999/xlink" x="0px" y="0px"
	 viewBox="0 0 135 180" width="135" height="180"  enable-background="new 0 0 135 180" xml:space="preserve">
<g>
	<rect x="1" y="8.8" opacity="0.15" fill="#AF6EE8" width="11.7" height="11.7"/>
	<rect x="13.1" y="8.8" opacity="0.15" fill="#AF6EE8" width="11.7" height="11.7"/>
	<rect x="25.2" y="8.8" opacity="0.15" fill="#AF6EE8" width="11.7" height="11.7"/>
	<rect x="37.4" y="8.8" opacity="0.15" fill="#AF6EE8" width="11.7" height="11.7"/>
	<rect x="49.5" y="8.8" opacity="0.15" fill="#AF6EE8" width="11.7" height="11.7"/>
	<rect x="61.6" y="8.8" opacity="0.15" fill="#AF6EE8" width="11.7" height="11.7"/>
	<rect x="73.7" y="8.8" opacity="0.15" fill="#AF6EE8" width="11.7" height="11.7"/>
	<rect x="1" y="20.9" opacity="0.4" fill="#AF6EE8" width="11.7" height="11.7"/>
	<rect x="13.1" y="20.9" fill="#AF6EE8" width="11.7" height="11.7"/>
	<rect x="25.2" y="20.9" fill="#AF6EE8" width="11.7" height="11.7"/>
	<rect x="37.4" y="20.9" fill="#AF6EE8" width="11.7" height="11.7"/>
	<rect x="49.5" y="20.9" fill="#AF6EE8" width="11.7" height="11.7"/>
	<rect x="61.6" y="20.9" fill="#AF6EE8" width="11.7" height="11.7"/>
	<rect x="73.7" y="20.9" fill="#AF6EE8" width="11.7" height="11.7"/>
	<rect x="1" y="33" opacity="0.4" fill="#AF6EE8" width="11.7" height="11.7"/>
	<rect x="13.1" y="33" fill="#AF6EE8" width="11.7" height="11.7"/>
	<rect x="25.2" y="33" opacity="0.4" fill="#AF6EE8" width="11.7" height="11.7"/>
	<rect x="37.4" y="33" opacity="0.15" fill="#AF6EE8" width="11.7" height="11.7"/>
	<rect x="49.5" y="33" opacity="0.15" fill="#AF6EE8" width="11.7" height="11.7"/>
	<rect x="61.6" y="33" opacity="0.15" fill="#AF6EE8" width="11.7" height="11.7"/>
	<rect x="73.7" y="33" opacity="0.5" fill="#AF6EE8" width="11.7" height="11.7"/>
	<rect x="1" y="45.1" opacity="0.4" fill="#AF6EE8" width="11.7" height="11.7"/>
	<rect x="13.1" y="45.1" fill="#AF6EE8" width="11.7" height="11.7"/>
	<rect x="25.2" y="45.1" opacity="0.4" fill="#AF6EE8" width="11.7" height="11.7"/>
	<rect x="1" y="57.3" opacity="0.4" fill="#AF6EE8" width="11.7" height="11.7"/>
	<rect x="13.1" y="57.3" fill="#AF6EE8" width="11.7" height="11.7"/>
	<rect x="25.2" y="57.3" opacity="0.4" fill="#AF6EE8" width="11.7" height="11.7"/>
	<rect x="1" y="69.4" opacity="0.4" fill="#AF6EE8" width="11.7" height="11.7"/>
	<rect x="13.1" y="69.4" fill="#AF6EE8" width="11.7" height="11.7"/>
	<rect x="25.2" y="69.4" opacity="0.4" fill="#AF6EE8" width="11.7" height="11.7"/>
	<rect x="1" y="81.5" opacity="0.4" fill="#AF6EE8" width="11.7" height="11.7"/>
	<rect x="13.1" y="81.5" fill="#AF6EE8" width="11.7" height="11.7"/>
	<rect x="25.2" y="81.5" opacity="0.4" fill="#AF6EE8" width="11.7" height="11.7"/>
	<rect x="37.4" y="81.5" opacity="0.15" fill="#AF6EE8" width="11.7" height="11.7"/>
	<rect x="49.5" y="81.5" opacity="0.15" fill="#AF6EE8" width="11.7" height="11.7"/>
	<rect x="61.6" y="81.5" opacity="0.15" fill="#AF6EE8" width="11.7" height="11.7"/>
	<rect x="73.7" y="81.5" opacity="0.15" fill="#AF6EE8" width="11.7" height="11.7"/>
	<rect x="1" y="93.6" opacity="0.4" fill="#AF6EE8" width="11.7" height="11.7"/>
	<rect x="13.1" y="93.6" fill="#AF6EE8" width="11.7" height="11.7"/>
	<rect x="25.2" y="93.6" fill="#AF6EE8" width="11.7" height="11.7"/>
	<rect x="37.4" y="93.6" fill="#AF6EE8" width="11.7" height="11.7"/>
	<rect x="49.5" y="93.6" fill="#AF6EE8" width="11.7" height="11.7"/>
	<rect x="61.6" y="93.6" fill="#AF6EE8" width="11.7" height="11.7"/>
	<rect x="73.7" y="93.6" fill="#AF6EE8" width="11.7" height="11.7"/>
	<rect x="1" y="105.9" opacity="0.4" fill="#AF6EE8" width="11.7" height="11.7"/>
	<rect x="13.1" y="105.9" fill="#AF6EE8" width="11.7" height="11.7"/>
	<rect x="25.2" y="105.9" opacity="0.5" fill="#AF6EE8" width="11.7" height="11.7"/>
	<rect x="37.4" y="105.9" opacity="0.5" fill="#AF6EE8" width="11.7" height="11.7"/>
	<rect x="49.5" y="105.9" opacity="0.5" fill="#AF6EE8" width="11.7" height="11.7"/>
	<rect x="61.6" y="105.9" opacity="0.5" fill="#AF6EE8" width="11.7" height="11.7"/>
	<rect x="73.7" y="105.9" opacity="0.5" fill="#AF6EE8" width="11.7" height="11.7"/>
	<rect x="1" y="118" opacity="0.4" fill="#AF6EE8" width="11.7" height="11.7"/>
	<rect x="13.1" y="118" fill="#AF6EE8" width="11.7" height="11.7"/>
	<rect x="25.2" y="118" opacity="0.4" fill="#AF6EE8" width="11.7" height="11.7"/>
	<rect x="1" y="130" opacity="0.4" fill="#AF6EE8" width="11.7" height="11.7"/>
	<rect x="13.1" y="130" fill="#AF6EE8" width="11.7" height="11.7"/>
	<rect x="25.2" y="130" opacity="0.4" fill="#AF6EE8" width="11.7" height="11.7"/>
	<rect x="1" y="142.2" opacity="0.4" fill="#AF6EE8" width="11.7" height="11.7"/>
	<rect x="13.1" y="142.2" fill="#AF6EE8" width="11.7" height="11.7"/>
	<rect x="25.2" y="142.2" opacity="0.4" fill="#AF6EE8" width="11.7" height="11.7"/>
	<rect x="1" y="154.4" opacity="0.4" fill="#AF6EE8" width="11.7" height="11.7"/>
	<rect x="13.1" y="154.4" fill="#AF6EE8" width="11.7" height="11.7"/>
	<rect x="25.2" y="154.4" opacity="0.4" fill="#AF6EE8" width="11.7" height="11.7"/>
	<rect x="85.9" y="8.8" opacity="0.15" fill="#AF6EE8" width="11.7" height="11.7"/>
	<rect x="85.9" y="20.9" fill="#AF6EE8" width="11.7" height="11.7"/>
	<rect x="98" y="20.9" opacity="0.6" fill="#AF6EE8" width="11.7" height="11.7"/>
	<rect x="85.9" y="33" opacity="0.6" fill="#AF6EE8" width="11.7" height="11.7"/>
	<rect x="98" y="33" fill="#AF6EE8" width="11.7" height="11.7"/>
	<rect x="110.1" y="33" opacity="0.6" fill="#AF6EE8" width="11.7" height="11.7"/>
	<rect x="98" y="45.1" fill="#AF6EE8" width="11.7" height="11.7"/>
	<rect x="110.1" y="45.1" fill="#AF6EE8" width="11.7" height="11.7"/>
	<rect x="98" y="57.3" opacity="0.5" fill="#AF6EE8" width="11.7" height="11.7"/>
	<rect x="110.1" y="57.3" fill="#AF6EE8" width="11.7" height="11.7"/>
	<rect x="98" y="69.4" opacity="0.6" fill="#AF6EE8" width="11.7" height="11.7"/>
	<rect x="110.1" y="69.4" fill="#AF6EE8" width="11.7" height="11.7"/>
	<rect x="85.9" y="81.5" opacity="0.5" fill="#AF6EE8" width="11.7" height="11.7"/>
	<rect x="98" y="81.5" fill="#AF6EE8" width="11.7" height="11.7"/>
	<rect x="110.1" y="81.5" opacity="0.6" fill="#AF6EE8" width="11.7" height="11.7"/>
	<rect x="85.9" y="93.6" fill="#AF6EE8" width="11.7" height="11.7"/>
	<rect x="98" y="93.6" fill="#AF6EE8" width="11.7" height="11.7"/>
	<rect x="110.1" y="93.6" opacity="0.15" fill="#AF6EE8" width="11.7" height="11.7"/>
	<rect x="85.9" y="105.9" opacity="0.5" fill="#AF6EE8" width="11.7" height="11.7"/>
	<rect x="122.1" y="45.3" opacity="0.4" fill="#AF6EE8" width="11.7" height="11.7"/>
	<rect x="122.1" y="57.4" opacity="0.4" fill="#AF6EE8" width="11.7" height="11.7"/>
	<rect x="122.1" y="69.6" opacity="0.4" fill="#AF6EE8" width="11.7" height="11.7"/>
	<rect x="1" y="166.5" opacity="0.4" fill="#AF6EE8" width="11.7" height="11.7"/>
	<rect x="13.1" y="166.5" opacity="0.6" fill="#AF6EE8" width="11.7" height="11.7"/>
	<rect x="25.2" y="166.5" opacity="0.4" fill="#AF6EE8" width="11.7" height="11.7"/>
</g>
</svg>
