<?xml version="1.0" encoding="utf-8"?>
<!-- Generator: Adobe Illustrator 18.0.0, SVG Export Plug-In . SVG Version: 6.00 Build 0)  -->
<!DOCTYPE svg PUBLIC "-//W3C//DTD SVG 1.1//EN" "http://www.w3.org/Graphics/SVG/1.1/DTD/svg11.dtd">
<svg version="1.1" id="Layer_1" xmlns="http://www.w3.org/2000/svg" xmlns:xlink="http://www.w3.org/1999/xlink" x="0px" y="0px"
	 viewBox="0 0 60 67" width="60" height="67"  enable-background="new 0 0 60 67" xml:space="preserve">
<g>
	<path fill="#9855D4" d="M37.2,1c2.9,0,5.6,0.5,8,1.4c2.4,1,4.4,2.3,6.1,3.9c1.7,1.7,3,3.6,3.9,5.8c0.9,2.2,1.3,4.5,1.3,7
		c0,3.9-0.8,7.2-2.4,10c-1.6,2.8-4.3,5-8,6.4v0.2c1.8,0.5,3.3,1.2,4.4,2.3c1.2,1,2.1,2.2,2.9,3.6c0.7,1.4,1.3,2.9,1.6,4.6
		c0.3,1.7,0.6,3.3,0.7,5c0.1,1,0.1,2.3,0.2,3.7c0.1,1.4,0.2,2.9,0.3,4.3c0.2,1.5,0.4,2.9,0.7,4.2c0.3,1.3,0.8,2.4,1.5,3.4H43.9
		c-0.8-2.1-1.3-4.6-1.5-7.5c-0.2-2.9-0.5-5.6-0.8-8.3c-0.5-3.4-1.5-6-3.1-7.5c-1.6-1.6-4.2-2.4-7.8-2.4H16.2v25.7H1.7V1H37.2z
		 M32,30.7c3.3,0,5.8-0.7,7.5-2.2c1.7-1.5,2.5-3.9,2.5-7.2c0-3.2-0.8-5.5-2.5-6.9c-1.7-1.4-4.1-2.2-7.5-2.2H16.2v18.5H32z"/>
</g>
</svg>
