<?xml version="1.0" encoding="utf-8"?>
<!-- Generator: Adobe Illustrator 18.0.0, SVG Export Plug-In . SVG Version: 6.00 Build 0)  -->
<!DOCTYPE svg PUBLIC "-//W3C//DTD SVG 1.1//EN" "http://www.w3.org/Graphics/SVG/1.1/DTD/svg11.dtd">
<svg version="1.1" id="Layer_1" xmlns="http://www.w3.org/2000/svg" xmlns:xlink="http://www.w3.org/1999/xlink" x="0px" y="0px"
	 viewBox="0 0 60 67" width="60" height="67"  enable-background="new 0 0 60 67" xml:space="preserve">
<g>
	<path fill="#9855D4" d="M45.3,2.4c2.4,1,4.5,2.6,6.2,4.6c1.4,1.7,2.5,3.5,3.3,5.6c0.8,2,1.2,4.4,1.2,7c0,3.1-0.8,6.2-2.4,9.3
		c-1.6,3-4.2,5.2-7.9,6.4c3.1,1.2,5.2,3,6.5,5.2c1.3,2.3,1.9,5.7,1.9,10.4v4.4c0,3,0.1,5.1,0.4,6.2c0.4,1.7,1.2,3,2.6,3.8V67H41.9
		c-0.4-1.5-0.7-2.7-0.9-3.6c-0.4-1.9-0.6-3.8-0.6-5.7l-0.1-6.2c-0.1-4.2-0.8-7-2.2-8.4c-1.4-1.4-4-2.1-7.9-2.1H16.7v26H3.2V0.7h31.7
		C39.4,0.8,42.9,1.4,45.3,2.4z M16.7,12.2V30h14.9c3,0,5.2-0.4,6.7-1.1c2.6-1.3,3.9-3.7,3.9-7.5c0-4-1.3-6.7-3.8-8.1
		c-1.4-0.8-3.6-1.2-6.4-1.2H16.7z"/>
</g>
</svg>
