<?xml version="1.0" encoding="utf-8"?>
<!-- Generator: Adobe Illustrator 17.1.0, SVG Export Plug-In . SVG Version: 6.00 Build 0)  -->
<!DOCTYPE svg PUBLIC "-//W3C//DTD SVG 1.1//EN" "http://www.w3.org/Graphics/SVG/1.1/DTD/svg11.dtd">
<svg version="1.1" id="Layer_1" xmlns="http://www.w3.org/2000/svg" xmlns:xlink="http://www.w3.org/1999/xlink" x="0px" y="0px"
	 viewBox="0 208.5 481.1 222.5" width="481" height="222.5"  enable-background="new 0 208.5 481.1 222.5" xml:space="preserve">
<g>
	<rect y="211.9" fill="#F4F4F4" width="319.5" height="216.2"/>
	<rect y="211.3" fill="#C7C7C7" width="319.5" height="20.1"/>
	<rect x="16" y="277.9" fill="#E0E0E0" width="191.4" height="85"/>
	<rect x="68" y="261.7" fill="#AEAEAE" width="38.4" height="4.9"/>
	<rect x="118" y="261.7" fill="#AEAEAE" width="38.4" height="4.9"/>
	<rect x="167.9" y="261.7" fill="#AEAEAE" width="38.4" height="4.9"/>
	<g>
		<rect x="229.6" y="277.9" fill="#E0E0E0" width="67.7" height="20.1"/>
		<rect x="229.6" y="305.6" fill="#C7C7C7" width="44.1" height="3.2"/>
		<rect x="229.6" y="320.7" fill="#E0E0E0" width="28.6" height="15.2"/>
		<rect x="229.6" y="341.8" fill="#C7C7C7" width="25.6" height="2.4"/>
		<rect x="267.7" y="320.7" fill="#E0E0E0" width="28.6" height="15.2"/>
		<rect x="267.7" y="341.8" fill="#C7C7C7" width="25.6" height="2.4"/>
	</g>
	<rect x="18.2" y="261.7" fill="#AEAEAE" width="38.4" height="4.9"/>
</g>
<g>
	<g>
		<path fill="#777677" d="M366.1,349.3h9v2h-6.8v3.4h5.9v1.8h-5.9v5.8h-2.3V349.3z"/>
		<path fill="#777677" d="M380.9,362.7c-0.7,0-1.4-0.1-2-0.4s-1.1-0.6-1.5-1c-0.4-0.4-0.7-1-1-1.5c-0.3-0.6-0.3-1.3-0.3-2
			c0-0.7,0.1-1.4,0.3-2c0.3-0.6,0.6-1.1,1-1.5c0.4-0.4,0.8-0.8,1.5-1c0.6-0.3,1.3-0.4,2-0.4c0.7,0,1.4,0.1,2,0.4
			c0.6,0.3,1.1,0.6,1.5,1c0.4,0.4,0.7,1,1,1.5c0.3,0.6,0.3,1.3,0.3,2c0,0.7-0.1,1.4-0.3,2c-0.1,0.6-0.6,1.1-1,1.5
			c-0.4,0.4-0.8,0.8-1.5,1C382.3,362.5,381.7,362.7,380.9,362.7z M380.9,361c0.4,0,0.8-0.1,1.3-0.3c0.3-0.1,0.6-0.4,0.8-0.7
			c0.3-0.3,0.4-0.7,0.4-1.1c0.1-0.4,0.1-0.8,0.1-1.3c0-0.4,0-0.8-0.1-1.3c-0.1-0.4-0.3-0.7-0.4-1.1c-0.3-0.3-0.6-0.6-0.8-0.7
			c-0.3-0.1-0.7-0.3-1.3-0.3c-0.4,0-0.8,0.1-1.3,0.3s-0.6,0.4-0.8,0.7c-0.3,0.3-0.4,0.7-0.4,1.1c-0.1,0.4-0.1,0.8-0.1,1.3
			c0,0.4,0,0.8,0.1,1.3c0.1,0.4,0.3,0.7,0.4,1.1c0.3,0.3,0.6,0.6,0.8,0.7C379.9,360.8,380.5,361,380.9,361z"/>
		<path fill="#777677" d="M387.5,352.9h2v1.8l0,0c0-0.3,0.1-0.6,0.4-0.7c0.1-0.3,0.4-0.4,0.7-0.7c0.3-0.1,0.6-0.4,0.8-0.4
			c0.3,0,0.6-0.1,1-0.1c0.3,0,0.4,0,0.6,0s0.1,0,0.3,0v2c-0.1,0-0.3,0-0.4,0c-0.1,0-0.3,0-0.4,0c-0.4,0-0.7,0.1-1,0.3
			c-0.3,0.1-0.6,0.3-0.8,0.6c-0.3,0.3-0.4,0.6-0.6,1c-0.1,0.4-0.1,0.8-0.1,1.4v4.5h-2.1v-9.6H387.5z"/>
		<path fill="#777677" d="M395.3,358.1c0,0.4,0,0.7,0.1,1.1c0.1,0.3,0.3,0.7,0.4,0.8c0.1,0.3,0.4,0.4,0.8,0.6
			c0.3,0.1,0.7,0.3,1.1,0.3c0.6,0,1.1-0.1,1.4-0.4c0.4-0.3,0.7-0.7,0.8-1.1h2c-0.1,0.6-0.3,1-0.6,1.4c-0.3,0.4-0.6,0.7-1,1
			c-0.4,0.3-0.8,0.4-1.3,0.6c-0.4,0.1-1,0.1-1.4,0.1c-0.7,0-1.4-0.1-2-0.4c-0.6-0.3-1.1-0.6-1.4-1c-0.4-0.4-0.7-1-0.8-1.5
			s-0.3-1.3-0.3-2s0.1-1.3,0.3-2c0.1-0.7,0.6-1.1,0.8-1.5c0.4-0.4,0.8-0.8,1.4-1.1c0.6-0.3,1.1-0.4,2-0.4c0.7,0,1.4,0.1,2,0.4
			s1.1,0.7,1.4,1.3c0.3,0.6,0.7,1.1,0.8,1.8c0.1,0.7,0.3,1.4,0.1,2.1H395.3L395.3,358.1z M400,356.9c0-0.3-0.1-0.7-0.1-1
			c-0.1-0.3-0.3-0.6-0.4-0.8c-0.1-0.3-0.4-0.4-0.7-0.6c-0.3-0.1-0.6-0.1-1-0.1c-0.4,0-0.7,0-1,0.1c-0.3,0.1-0.6,0.3-0.7,0.6
			c-0.1,0.3-0.4,0.4-0.6,0.8c-0.1,0.3-0.1,0.7-0.3,1H400z"/>
		<path fill="#777677" d="M412.4,361.9c0,1.4-0.4,2.5-1.3,3.2c-0.8,0.7-2,1-3.5,1c-0.4,0-1,0-1.4-0.1s-1-0.3-1.3-0.6
			c-0.4-0.3-0.7-0.6-1-0.8c-0.3-0.4-0.4-0.8-0.4-1.4h2.1c0,0.3,0.1,0.6,0.3,0.7c0.1,0.1,0.3,0.3,0.6,0.4c0.1,0.1,0.4,0.1,0.7,0.1
			c0.3,0,0.6,0,0.7,0c0.8,0,1.4-0.1,1.8-0.6c0.4-0.4,0.6-1,0.6-1.8v-1.4l0,0c-0.3,0.6-0.7,1-1.3,1.3s-1,0.4-1.7,0.4
			c-0.7,0-1.4-0.1-2-0.4c-0.6-0.3-1-0.6-1.3-1.1s-0.6-1-0.7-1.5c-0.1-0.6-0.3-1.3-0.3-2c0-0.7,0.1-1.3,0.3-1.8
			c0.1-0.6,0.4-1.1,0.8-1.5c0.4-0.4,0.8-0.8,1.4-1c0.6-0.3,1.1-0.4,1.8-0.4c0.6,0,1.1,0.1,1.7,0.4c0.6,0.3,0.8,0.7,1.1,1.1l0,0v-1.3
			h2.1V361.9z M407.9,360.7c0.4,0,0.8-0.1,1.1-0.3c0.3-0.1,0.6-0.4,0.8-0.7c0.1-0.3,0.3-0.7,0.4-1.1s0.1-0.8,0.1-1.3
			c0-0.4,0-0.8-0.1-1.1c-0.1-0.3-0.3-0.7-0.4-1c-0.1-0.3-0.4-0.6-0.8-0.7c-0.3-0.1-0.7-0.3-1.1-0.3s-0.8,0.1-1.1,0.3
			c-0.3,0.1-0.6,0.4-0.7,0.7s-0.3,0.7-0.4,1.1c-0.1,0.4-0.1,0.8-0.1,1.1s0,0.7,0.1,1.1c0.1,0.4,0.3,0.7,0.4,1
			c0.1,0.3,0.4,0.6,0.7,0.7C407.1,360.7,407.4,360.7,407.9,360.7z"/>
		<path fill="#777677" d="M414.5,352.9h2v1.8l0,0c0-0.3,0.1-0.6,0.4-0.7c0.1-0.3,0.4-0.4,0.7-0.7c0.3-0.1,0.6-0.4,0.8-0.4
			c0.3,0,0.6-0.1,1-0.1c0.3,0,0.4,0,0.6,0c0.1,0,0.1,0,0.3,0v2c-0.1,0-0.3,0-0.4,0c-0.1,0-0.3,0-0.4,0c-0.4,0-0.7,0.1-1,0.3
			c-0.3,0.1-0.6,0.3-0.8,0.6c-0.3,0.3-0.4,0.6-0.6,1c-0.1,0.4-0.1,0.8-0.1,1.4v4.5h-2.1v-9.6H414.5z"/>
		<path fill="#777677" d="M425.1,362.7c-0.7,0-1.4-0.1-2-0.4s-1.1-0.6-1.5-1c-0.4-0.4-0.7-1-1-1.5c-0.3-0.6-0.3-1.3-0.3-2
			c0-0.7,0.1-1.4,0.3-2c0.3-0.6,0.6-1.1,1-1.5c0.4-0.4,0.8-0.8,1.5-1c0.6-0.3,1.3-0.4,2-0.4c0.7,0,1.4,0.1,2,0.4
			c0.6,0.3,1.1,0.6,1.5,1c0.4,0.4,0.7,1,1,1.5c0.3,0.6,0.3,1.3,0.3,2c0,0.7-0.1,1.4-0.3,2c-0.1,0.6-0.6,1.1-1,1.5
			c-0.4,0.4-0.8,0.8-1.5,1C426.5,362.5,425.8,362.7,425.1,362.7z M425.1,361c0.4,0,0.8-0.1,1.3-0.3c0.3-0.1,0.6-0.4,0.8-0.7
			c0.3-0.3,0.4-0.7,0.4-1.1c0.1-0.4,0.1-0.8,0.1-1.3c0-0.4,0-0.8-0.1-1.3c-0.1-0.4-0.3-0.7-0.4-1.1c-0.3-0.3-0.6-0.6-0.8-0.7
			c-0.3-0.1-0.7-0.3-1.3-0.3c-0.4,0-0.8,0.1-1.3,0.3s-0.6,0.4-0.8,0.7c-0.3,0.3-0.4,0.7-0.4,1.1c-0.1,0.4-0.1,0.8-0.1,1.3
			c0,0.4,0,0.8,0.1,1.3c0.1,0.4,0.3,0.7,0.4,1.1c0.3,0.3,0.6,0.6,0.8,0.7C424.1,360.8,424.5,361,425.1,361z"/>
		<path fill="#777677" d="M439.9,362.4h-2.1v-1.3l0,0c-0.3,0.4-0.7,0.8-1.1,1.1c-0.6,0.3-1,0.4-1.5,0.4c-1.3,0-2.1-0.3-2.7-1
			c-0.6-0.7-0.8-1.5-0.8-2.8v-6.1h2.1v5.8c0,0.8,0.1,1.4,0.4,1.7c0.3,0.3,0.7,0.6,1.3,0.6c0.4,0,0.8,0,1.1-0.1
			c0.3-0.1,0.6-0.3,0.7-0.6s0.3-0.6,0.4-0.8c0.1-0.3,0.1-0.7,0.1-1v-5.5h2.1L439.9,362.4L439.9,362.4z"/>
		<path fill="#777677" d="M442.1,352.9h2v1.4l0,0c0.3-0.6,0.7-1,1.3-1.3c0.6-0.3,1.1-0.4,1.7-0.4c1,0,1.8,0.3,2.4,0.8
			c0.6,0.6,0.8,1.4,0.8,2.4v6.5h-2.1v-5.9c0-0.7-0.1-1.3-0.4-1.7c-0.3-0.4-0.7-0.6-1.4-0.6c-0.4,0-0.7,0-1,0.1
			c-0.3,0.1-0.6,0.3-0.7,0.6c-0.1,0.3-0.3,0.4-0.4,0.8c-0.1,0.4-0.1,0.6-0.1,1v5.6H442v-9.4H442.1z"/>
		<path fill="#777677" d="M461.4,362.4h-2v-1.3l0,0c-0.3,0.6-0.7,1-1.3,1.1c-0.6,0.3-1.1,0.4-1.7,0.4c-0.7,0-1.4-0.1-2-0.4
			s-1-0.6-1.4-1.1c-0.4-0.4-0.7-1-0.8-1.5c-0.1-0.6-0.3-1.3-0.3-2c0-0.8,0.1-1.5,0.3-2.3c0.3-0.6,0.6-1.1,1-1.5
			c0.4-0.4,0.8-0.7,1.3-0.8c0.6-0.1,1-0.3,1.5-0.3c0.3,0,0.6,0,0.8,0.1c0.3,0.1,0.6,0.1,0.8,0.3c0.3,0.1,0.6,0.3,0.8,0.4
			c0.3,0.1,0.4,0.4,0.6,0.7l0,0v-4.8h2.1v13H461.4z M454.2,357.7c0,0.4,0,0.8,0.1,1.1c0.1,0.4,0.3,0.7,0.4,1
			c0.3,0.3,0.4,0.6,0.8,0.7c0.3,0.1,0.7,0.3,1.1,0.3s0.8-0.1,1.3-0.3c0.4-0.1,0.6-0.4,0.8-0.7s0.4-0.7,0.4-1.1
			c0-0.4,0.1-0.8,0.1-1.3c0-1-0.3-1.8-0.7-2.4s-1.1-0.8-2-0.8c-0.4,0-0.8,0.1-1.3,0.3c-0.3,0.1-0.6,0.4-0.8,0.8
			c-0.3,0.4-0.4,0.7-0.4,1.1C454.2,356.9,454.2,357.3,454.2,357.7z"/>
	</g>
</g>
<g>
	<g>
		<path fill="#777677" d="M366.1,284.8h6.3c1.1,0,2.1,0.3,2.8,0.8c0.7,0.6,1.1,1.4,1.1,2.4c0,0.7-0.1,1.3-0.4,1.7
			c-0.3,0.4-0.8,0.8-1.4,1.1l0,0c0.8,0.1,1.4,0.6,1.8,1.1s0.6,1.3,0.6,2.3c0,0.6-0.1,1-0.3,1.4c-0.1,0.4-0.4,0.8-0.8,1.1
			s-0.8,0.6-1.5,0.7c-0.6,0.1-1.3,0.3-2.1,0.3h-6.1L366.1,284.8L366.1,284.8z M368.4,290.3h3.8c0.6,0,1-0.1,1.4-0.4
			c0.4-0.3,0.6-0.7,0.6-1.4c0-0.7-0.1-1.1-0.4-1.4c-0.3-0.3-0.8-0.4-1.4-0.4h-3.8v3.7H368.4z M368.4,295.9h4.1
			c0.7,0,1.3-0.1,1.7-0.6c0.4-0.4,0.6-0.8,0.6-1.5c0-0.7-0.1-1.1-0.6-1.5c-0.4-0.3-1-0.6-1.7-0.6h-4.1V295.9z"/>
		<path fill="#777677" d="M386.5,295.8c0,0.3,0,0.4,0.1,0.6c0,0.1,0.1,0.1,0.4,0.1c0,0,0.1,0,0.3,0c0.1,0,0.1,0,0.3,0v1.4
			c-0.1,0-0.1,0-0.3,0.1c-0.1,0.1-0.3,0-0.4,0.1c-0.1,0-0.3,0-0.4,0s-0.3,0-0.3,0c-0.4,0-0.8-0.1-1.1-0.3c-0.3-0.1-0.4-0.4-0.6-0.8
			c-0.4,0.4-1,0.7-1.5,0.8c-0.6,0.1-1.1,0.3-1.7,0.3c-0.4,0-0.8,0-1.3-0.1s-0.7-0.3-1-0.6c-0.3-0.3-0.6-0.6-0.7-0.8
			c-0.1-0.3-0.3-0.7-0.3-1.3s0.1-1.1,0.3-1.4c0.3-0.4,0.6-0.7,0.8-0.8c0.3-0.1,0.7-0.4,1.1-0.4c0.4-0.1,0.8-0.1,1.3-0.1
			c0.4-0.1,0.7-0.1,1.1-0.1c0.3,0,0.7-0.1,0.8-0.1c0.3-0.1,0.4-0.1,0.6-0.3c0.1-0.1,0.3-0.4,0.3-0.7s0-0.4-0.1-0.7
			c-0.1-0.1-0.3-0.3-0.4-0.4c-0.1-0.1-0.4-0.1-0.6-0.1c-0.3,0-0.4,0-0.7,0c-0.6,0-1.1,0.1-1.4,0.4c-0.4,0.3-0.6,0.6-0.7,1.1h-2.1
			c0-0.6,0.1-1.1,0.4-1.5c0.3-0.4,0.6-0.7,1-1c0.4-0.3,0.8-0.4,1.4-0.6c0.6-0.1,1-0.1,1.5-0.1c0.4,0,1,0,1.4,0.1s0.8,0.3,1.3,0.4
			c0.4,0.1,0.7,0.6,0.8,0.8c0.1,0.3,0.3,0.7,0.3,1.3L386.5,295.8L386.5,295.8z M384.4,293.1c-0.3,0.1-0.7,0.3-1.1,0.4
			c-0.4,0-1,0.1-1.4,0.1c-0.3,0-0.4,0.1-0.7,0.1c-0.1,0-0.4,0.1-0.6,0.3c-0.1,0.1-0.3,0.3-0.4,0.4c-0.1,0.1-0.1,0.4-0.1,0.7
			s0,0.4,0.1,0.6c0.1,0.1,0.3,0.3,0.4,0.4c0.1,0.1,0.4,0.1,0.6,0.1c0.1,0,0.4,0,0.6,0c0.3,0,0.4,0,0.7-0.1c0.3,0,0.6-0.1,0.7-0.3
			c0.3-0.1,0.4-0.3,0.6-0.6s0.3-0.6,0.3-0.8v-1.4H384.4z"/>
		<path fill="#777677" d="M395.3,291.6c-0.1-0.6-0.3-1-0.7-1.3s-0.8-0.4-1.4-0.4c-0.3,0-0.6,0-0.8,0.1c-0.3,0.1-0.6,0.3-0.8,0.6
			c-0.3,0.3-0.4,0.6-0.7,1c-0.1,0.4-0.3,1-0.3,1.7c0,0.4,0,0.8,0.1,1.1c0.1,0.4,0.3,0.7,0.4,1c0.1,0.3,0.4,0.6,0.8,0.7
			c0.3,0.1,0.7,0.3,1.1,0.3c0.6,0,1.1-0.1,1.5-0.6c0.4-0.4,0.7-0.8,0.7-1.5h2.1c-0.1,1.3-0.7,2.1-1.4,2.8c-0.7,0.7-1.7,1-3,1
			c-0.7,0-1.4-0.1-2-0.4s-1-0.6-1.4-1c-0.4-0.4-0.7-1-0.8-1.5c-0.1-0.6-0.3-1.3-0.3-2c0-0.7,0.1-1.4,0.3-2c0.1-0.6,0.4-1.1,0.8-1.7
			c0.4-0.4,0.8-0.8,1.4-1.1s1.3-0.4,2-0.4c0.6,0,1.1,0,1.5,0.1c0.4,0.1,1,0.3,1.3,0.6c0.4,0.3,0.7,0.7,1,1.1c0.3,0.4,0.4,1,0.4,1.5
			h-2V291.6z"/>
		<path fill="#777677" d="M399.1,284.8h2.1v7.5l3.8-3.8h2.5l-3.7,3.5l3.9,5.9h-2.5l-3-4.6l-1.3,1.3v3.4h-2.1v-13.1H399.1z"/>
		<path fill="#777677" d="M417.5,297.3c0,1.4-0.4,2.5-1.3,3.2c-0.8,0.7-2,1-3.4,1c-0.4,0-1,0-1.4-0.1c-0.4-0.1-1-0.3-1.3-0.6
			c-0.4-0.3-0.7-0.6-1-1c-0.3-0.4-0.4-0.8-0.4-1.4h2.1c0,0.3,0.1,0.6,0.3,0.7c0.1,0.1,0.3,0.3,0.6,0.4c0.1,0.1,0.4,0.1,0.7,0.1
			s0.6,0,0.7,0c0.8,0,1.4-0.1,1.8-0.6c0.4-0.4,0.6-1,0.6-1.8v-1.4l0,0c-0.3,0.6-0.7,1-1.3,1.3s-1,0.4-1.7,0.4c-0.7,0-1.4-0.1-2-0.4
			c-0.6-0.3-1-0.6-1.3-1.1c-0.3-0.4-0.6-1-0.7-1.5s-0.3-1.3-0.3-2c0-0.7,0.1-1.3,0.3-1.8s0.4-1.1,0.8-1.5c0.4-0.4,0.8-0.8,1.4-1
			s1.1-0.4,1.8-0.4c0.6,0,1.1,0.1,1.7,0.4s0.8,0.7,1.1,1.1l0,0v-1h2.1v9H417.5z M413,296.2c0.4,0,0.8-0.1,1.1-0.3
			c0.3-0.1,0.6-0.4,0.8-0.7c0.1-0.3,0.3-0.7,0.4-1.1c0.1-0.4,0.1-0.8,0.1-1.3c0-0.4,0-0.8-0.1-1.1c-0.1-0.4-0.3-0.7-0.4-1
			s-0.4-0.6-0.8-0.7c-0.3-0.1-0.7-0.3-1.1-0.3s-0.8,0.1-1.1,0.3c-0.3,0.1-0.6,0.4-0.7,0.7c-0.1,0.3-0.3,0.7-0.4,1.1
			c-0.1,0.4-0.1,0.8-0.1,1.1s0,0.7,0.1,1.1c0.1,0.4,0.3,0.7,0.4,1c0.1,0.3,0.4,0.6,0.7,0.7C412.2,295.9,412.4,296.2,413,296.2z"/>
		<path fill="#777677" d="M419.6,288.3h2v1.8l0,0c0-0.3,0.1-0.6,0.4-0.7c0.3-0.1,0.4-0.4,0.7-0.7c0.3-0.1,0.6-0.4,0.8-0.4
			c0.3-0.1,0.6-0.1,1-0.1c0.3,0,0.4,0,0.6,0s0.1,0,0.3,0v2c-0.1,0-0.3,0-0.4,0c-0.1,0-0.3,0-0.4,0c-0.4,0-0.7,0.1-1,0.1
			c-0.3,0.1-0.6,0.3-0.8,0.6c-0.3,0.3-0.4,0.6-0.6,1c-0.1,0.4-0.1,0.8-0.1,1.4v4.5h-2.1v-9.4H419.6z"/>
		<path fill="#777677" d="M430.2,298.2c-0.7,0-1.4-0.1-2-0.4c-0.6-0.3-1.1-0.6-1.5-1c-0.4-0.4-0.7-1-1-1.5c-0.3-0.6-0.3-1.3-0.3-2
			s0.1-1.4,0.3-2c0.3-0.6,0.6-1.1,1-1.5c0.4-0.4,0.8-0.8,1.5-1c0.6-0.3,1.3-0.4,2-0.4c0.7,0,1.4,0.1,2,0.4s1.1,0.6,1.5,1
			c0.4,0.4,0.7,1,1,1.5c0.3,0.6,0.3,1.3,0.3,2s-0.1,1.4-0.3,2c-0.3,0.6-0.6,1.1-1,1.5c-0.4,0.4-0.8,0.8-1.5,1
			C431.6,298,430.9,298.2,430.2,298.2z M430.2,296.5c0.4,0,0.8-0.1,1.3-0.3c0.3-0.1,0.6-0.4,0.8-0.7s0.4-0.7,0.4-1.1
			s0.1-0.8,0.1-1.3c0-0.4,0-0.8-0.1-1.3c-0.1-0.4-0.3-0.7-0.4-1.1c-0.3-0.3-0.6-0.6-0.8-0.7c-0.3-0.1-0.7-0.3-1.3-0.3
			c-0.6,0-0.8,0.1-1.3,0.3c-0.4,0.1-0.6,0.4-0.8,0.7c-0.3,0.3-0.4,0.7-0.4,1.1c0,0.4-0.1,0.8-0.1,1.3c0,0.4,0,0.8,0.1,1.3
			s0.3,0.7,0.4,1.1c0.3,0.3,0.6,0.6,0.8,0.7C429.2,296.4,429.6,296.5,430.2,296.5z"/>
		<path fill="#777677" d="M445,297.9h-2.1v-1.3l0,0c-0.3,0.4-0.7,0.8-1.1,1.1c-0.6,0.3-1,0.4-1.5,0.4c-1.3,0-2.1-0.3-2.7-1
			c-0.6-0.7-0.8-1.5-0.8-2.8v-6.1h2.1v5.8c0,0.8,0.1,1.4,0.4,1.7c0.3,0.3,0.7,0.6,1.3,0.6c0.4,0,0.8,0,1.1-0.1
			c0.3-0.1,0.6-0.3,0.7-0.6c0.1-0.3,0.3-0.6,0.4-0.8s0.1-0.7,0.1-1v-5.5h2.1L445,297.9L445,297.9z"/>
		<path fill="#777677" d="M447.2,288.3h2v1.4l0,0c0.3-0.6,0.7-1,1.3-1.3c0.6-0.3,1.1-0.4,1.7-0.4c1,0,1.8,0.3,2.4,0.8
			c0.6,0.6,0.8,1.4,0.8,2.4v6.5h-2.1v-5.9c0-0.7-0.1-1.3-0.4-1.7c-0.3-0.3-0.7-0.6-1.4-0.6c-0.4,0-0.7,0-1,0.1
			c-0.3,0.1-0.6,0.3-0.7,0.6c-0.1,0.3-0.3,0.4-0.4,0.8c-0.1,0.4-0.1,0.6-0.1,1v5.6h-2.1v-9.4H447.2z"/>
		<path fill="#777677" d="M466.5,297.9h-2v-1.3l0,0c-0.3,0.6-0.7,1-1.3,1.1s-1.1,0.4-1.7,0.4c-0.7,0-1.4-0.1-2-0.4
			c-0.6-0.3-1-0.6-1.4-1.1c-0.4-0.4-0.7-1-0.8-1.5c-0.1-0.6-0.3-1.3-0.3-2c0-0.8,0.1-1.5,0.3-2.3c0.3-0.6,0.6-1.1,1-1.5
			c0.4-0.4,0.8-0.7,1.3-0.8c0.6-0.1,1-0.3,1.5-0.3c0.3,0,0.6,0,0.8,0.1c0.3,0,0.6,0.1,0.8,0.3c0.3,0.1,0.6,0.3,0.8,0.4
			c0.3,0.1,0.4,0.4,0.6,0.7l0,0V285h2.1v13H466.5z M459.3,293.3c0,0.4,0,0.8,0.1,1.1c0.1,0.4,0.3,0.7,0.4,1c0.3,0.3,0.4,0.6,0.8,0.7
			c0.4,0.1,0.7,0.3,1.1,0.3c0.4,0,0.8-0.1,1.3-0.3s0.6-0.4,0.8-0.7s0.4-0.7,0.4-1.1c0.1-0.4,0.1-0.8,0.1-1.3c0-1-0.3-1.8-0.7-2.4
			s-1.1-0.8-2-0.8c-0.4,0-0.8,0.1-1.3,0.3c-0.4,0.1-0.6,0.4-0.8,0.8c-0.3,0.3-0.4,0.7-0.4,1.1C459.3,292.4,459.3,292.8,459.3,293.3z
			"/>
	</g>
</g>
<g>
	<g>
		<path fill="#777677" d="M366,212.5h3.2l3.7,10.3l0,0l3.5-10.3h3.2v13.1h-2.1v-10.1l0,0l-3.7,10.1H372l-3.7-10.1l0,0v10.1H366
			V212.5z"/>
		<path fill="#777677" d="M382,212.5h2.1v2H382V212.5z M382,216.1h2.1v9.4H382V216.1z"/>
		<path fill="#777677" d="M395.4,225.5h-2v-1.3l0,0c-0.3,0.6-0.7,1-1.3,1.1c-0.6,0.3-1.1,0.4-1.7,0.4c-0.7,0-1.4-0.1-2-0.4
			s-1-0.6-1.4-1.1s-0.7-1-0.8-1.5c-0.1-0.6-0.3-1.3-0.3-2c0-0.8,0.1-1.5,0.3-2.3c0.1-0.7,0.6-1.1,1-1.5c0.4-0.4,0.8-0.7,1.3-0.8
			s1-0.3,1.5-0.3c0.3,0,0.6,0,0.8,0.1c0.3,0,0.6,0.1,0.8,0.3c0.3,0.1,0.6,0.3,0.8,0.4c0.3,0.1,0.4,0.4,0.6,0.7l0,0v-4.9h2.1v13.1
			H395.4z M388.1,220.9c0,0.4,0,0.8,0.1,1.1c0.1,0.3,0.3,0.7,0.4,1c0.3,0.3,0.4,0.6,0.8,0.7c0.3,0.1,0.7,0.3,1.1,0.3
			s0.8-0.1,1.3-0.3s0.6-0.4,0.8-0.7s0.4-0.7,0.4-1.1c0.1-0.4,0.1-0.8,0.1-1.3c0-1-0.3-1.8-0.7-2.4c-0.4-0.6-1.1-0.8-2-0.8
			c-0.4,0-0.8,0.1-1.3,0.3s-0.6,0.4-0.8,0.8c-0.3,0.3-0.4,0.7-0.4,1.1C388.1,220.1,388.1,220.5,388.1,220.9z"/>
		<path fill="#777677" d="M406.5,225.5h-2v-1.3l0,0c-0.3,0.6-0.7,1-1.3,1.1c-0.6,0.3-1.1,0.4-1.7,0.4c-0.7,0-1.4-0.1-2-0.4
			c-0.6-0.3-1-0.6-1.4-1.1s-0.7-1-0.8-1.5s-0.3-1.3-0.3-2c0-0.8,0.1-1.5,0.3-2.3s0.6-1.1,1-1.5c0.4-0.4,0.8-0.7,1.3-0.8
			s1-0.3,1.5-0.3c0.3,0,0.6,0,0.8,0.1c0.3,0,0.6,0.1,0.8,0.3c0.3,0.1,0.6,0.3,0.8,0.4c0.3,0.1,0.4,0.4,0.6,0.7l0,0v-4.9h2.1v13.1
			H406.5z M399.2,220.9c0,0.4,0,0.8,0.1,1.1s0.3,0.7,0.4,1c0.3,0.3,0.4,0.6,0.8,0.7c0.3,0.1,0.7,0.3,1.1,0.3s0.8-0.1,1.3-0.3
			s0.6-0.4,0.8-0.7c0.3-0.3,0.4-0.7,0.4-1.1c0.1-0.4,0.1-0.8,0.1-1.3c0-1-0.3-1.8-0.7-2.4c-0.4-0.6-1.1-0.8-2-0.8
			c-0.4,0-0.8,0.1-1.3,0.3s-0.6,0.4-0.8,0.8c-0.3,0.3-0.4,0.7-0.4,1.1C399.3,220.1,399.2,220.5,399.2,220.9z"/>
		<path fill="#777677" d="M408.9,212.5h2.1v13.1h-2.1V212.5z"/>
		<path fill="#777677" d="M414.8,221.3c0,0.4,0,0.7,0.1,1.1c0.1,0.3,0.3,0.7,0.4,0.8c0.1,0.3,0.4,0.4,0.8,0.6
			c0.4,0.1,0.7,0.3,1.1,0.3c0.6,0,1.1-0.1,1.4-0.4c0.4-0.3,0.7-0.7,0.8-1.1h2c-0.1,0.6-0.3,1-0.6,1.4c-0.3,0.4-0.6,0.7-1,1
			c-0.4,0.3-0.8,0.4-1.3,0.6s-1,0.1-1.4,0.1c-0.7,0-1.4-0.1-2-0.4c-0.6-0.3-1.1-0.6-1.4-1c-0.4-0.4-0.7-1-0.8-1.5s-0.3-1.3-0.3-2
			c0-0.7,0.1-1.3,0.3-2c0.3-0.6,0.6-1.1,1-1.5c0.4-0.4,0.8-0.8,1.4-1.1c0.6-0.3,1.1-0.4,2-0.4c0.7,0,1.4,0.1,2,0.4s1.1,0.7,1.4,1.3
			c0.4,0.6,0.7,1.1,0.8,1.8s0.3,1.4,0.1,2.1C421.9,221.3,414.8,221.3,414.8,221.3z M419.8,219.9c0-0.3-0.1-0.7-0.3-1
			s-0.3-0.6-0.4-0.8c-0.1-0.3-0.4-0.4-0.7-0.6c-0.3-0.1-0.6-0.1-1-0.1c-0.4,0-0.7,0-1,0.1c-0.3,0.1-0.6,0.3-0.7,0.6
			c-0.3,0.3-0.4,0.4-0.6,0.8s-0.1,0.7-0.3,1H419.8z"/>
		<path fill="#777677" d="M432.1,225c0,1.4-0.4,2.5-1.3,3.2s-2,1-3.4,1c-0.4,0-1,0-1.4-0.1s-1-0.3-1.3-0.6s-0.7-0.6-1-0.8
			c-0.3-0.3-0.4-0.8-0.4-1.4h2.1c0,0.3,0.1,0.6,0.3,0.7s0.3,0.3,0.6,0.4c0.1,0.1,0.4,0.1,0.7,0.1c0.3,0,0.6,0,0.7,0
			c0.8,0,1.4-0.1,1.8-0.6s0.6-1,0.6-1.8v-1.4l0,0c-0.3,0.6-0.7,1-1.3,1.3s-1,0.4-1.7,0.4c-0.7,0-1.4-0.1-2-0.4
			c-0.6-0.3-1-0.6-1.3-1.1c-0.3-0.4-0.6-1-0.7-1.5s-0.3-1.3-0.3-2c0-0.7,0.1-1.3,0.3-1.8s0.4-1.1,0.8-1.5c0.4-0.4,0.8-0.8,1.4-1
			c0.6-0.1,1.1-0.4,1.8-0.4c0.6,0,1.1,0.1,1.7,0.4s0.8,0.7,1.1,1.1l0,0v-1h2.1v8.9H432.1z M427.5,223.9c0.4,0,0.8-0.1,1.1-0.3
			s0.6-0.4,0.8-0.7c0.1-0.3,0.3-0.7,0.4-1.1c0.1-0.4,0.1-0.8,0.1-1.3s0-0.8-0.1-1.1c-0.1-0.4-0.3-0.7-0.4-1s-0.4-0.6-0.8-0.7
			c-0.3-0.1-0.7-0.3-1.1-0.3s-0.8,0.1-1.1,0.3c-0.3,0.1-0.6,0.4-0.7,0.7s-0.3,0.7-0.4,1.1c-0.1,0.4-0.1,0.8-0.1,1.1s0,0.7,0.1,1.1
			s0.3,0.7,0.4,1c0.1,0.3,0.4,0.6,0.7,0.7C426.7,223.7,427.1,223.9,427.5,223.9z"/>
		<path fill="#777677" d="M434.3,216.1h2v1.8l0,0c0-0.3,0.1-0.6,0.4-0.7c0.3-0.1,0.4-0.4,0.7-0.7c0.3-0.1,0.6-0.4,0.8-0.4
			c0.3-0.1,0.6-0.1,1-0.1c0.3,0,0.4,0,0.6,0s0.1,0,0.3,0v2c-0.1,0-0.3,0-0.4,0c-0.1,0-0.3,0-0.4,0c-0.4,0-0.7,0.1-1,0.1
			c-0.3,0.1-0.6,0.3-0.8,0.6c-0.3,0.3-0.4,0.6-0.6,1c-0.1,0.4-0.1,0.8-0.1,1.4v4.5h-2.1v-9.4H434.3z"/>
		<path fill="#777677" d="M444.7,225.8c-0.7,0-1.4-0.1-2-0.4s-1.1-0.6-1.5-1c-0.4-0.4-0.7-1-1-1.5c-0.3-0.6-0.3-1.3-0.3-2
			s0.1-1.4,0.3-2c0.3-0.6,0.6-1.1,1-1.5c0.4-0.4,0.8-0.8,1.5-1c0.6-0.3,1.3-0.4,2-0.4c0.7,0,1.4,0.1,2,0.4c0.6,0.3,1.1,0.6,1.5,1
			c0.4,0.4,0.7,1,1,1.5c0.3,0.6,0.3,1.3,0.3,2s-0.1,1.4-0.3,2c-0.3,0.6-0.6,1.1-1,1.5c-0.4,0.4-0.8,0.8-1.5,1
			C446.1,225.7,445.4,225.8,444.7,225.8z M444.7,224.1c0.4,0,0.8-0.1,1.3-0.3c0.3-0.1,0.6-0.4,0.8-0.7c0.3-0.3,0.4-0.7,0.4-1.1
			s0.1-0.8,0.1-1.3s0-0.8-0.1-1.3c-0.1-0.4-0.3-0.7-0.4-1.1c-0.3-0.3-0.6-0.6-0.8-0.7s-0.7-0.3-1.3-0.3s-0.8,0.1-1.3,0.3
			c-0.4,0.1-0.6,0.4-0.8,0.7c-0.3,0.3-0.4,0.7-0.4,1.1c0,0.4-0.1,0.8-0.1,1.3s0,0.8,0.1,1.3s0.3,0.7,0.4,1.1
			c0.3,0.3,0.6,0.6,0.8,0.7C443.7,224,444.2,224.1,444.7,224.1z"/>
		<path fill="#777677" d="M459.4,225.5h-2v-1.4l0,0c-0.3,0.4-0.7,0.8-1.1,1.1c-0.6,0.3-1,0.4-1.5,0.4c-1.3,0-2.1-0.3-2.7-1
			c-0.6-0.6-0.8-1.5-0.8-2.8v-5.8h2.1v5.8c0,0.8,0.1,1.4,0.4,1.7s0.7,0.6,1.3,0.6c0.4,0,0.8,0,1.1-0.1c0.3-0.1,0.6-0.3,0.7-0.6
			s0.3-0.6,0.4-0.8c0.1-0.3,0.1-0.7,0.1-1v-5.5h2.1v9.4H459.4z"/>
		<path fill="#777677" d="M461.7,216.1h2v1.4l0,0c0.3-0.6,0.7-1,1.3-1.3s1.1-0.4,1.7-0.4c1,0,1.8,0.3,2.4,0.8
			c0.6,0.6,0.8,1.4,0.8,2.4v6.5h-2.1v-5.9c0-0.7-0.1-1.3-0.4-1.7c-0.3-0.3-0.7-0.6-1.4-0.6c-0.4,0-0.7,0-1,0.1
			c-0.3,0.1-0.6,0.3-0.7,0.6s-0.3,0.4-0.4,0.8s-0.1,0.6-0.1,1v5.6h-2V216.1z"/>
		<path fill="#777677" d="M481.1,225.5h-2v-1.3l0,0c-0.3,0.6-0.7,1-1.3,1.1c-0.6,0.3-1.1,0.4-1.7,0.4c-0.7,0-1.4-0.1-2-0.4
			c-0.6-0.3-1-0.6-1.4-1.1c-0.4-0.4-0.7-1-0.8-1.5c-0.1-0.6-0.3-1.3-0.3-2c0-0.8,0.1-1.5,0.3-2.3c0.3-0.6,0.6-1.1,1-1.5
			c0.4-0.4,0.8-0.7,1.3-0.8c0.6-0.1,1-0.3,1.5-0.3c0.3,0,0.6,0,0.8,0.1c0.3,0,0.6,0.1,0.8,0.3c0.3,0.1,0.6,0.3,0.8,0.4
			c0.3,0.1,0.4,0.4,0.6,0.7l0,0v-4.9h2.1v13.1H481.1z M473.8,220.9c0,0.4,0,0.8,0.1,1.1c0.1,0.4,0.3,0.7,0.4,1
			c0.3,0.3,0.4,0.6,0.8,0.7c0.4,0.1,0.7,0.3,1.1,0.3s0.8-0.1,1.3-0.3c0.4-0.1,0.6-0.4,0.8-0.7c0.3-0.3,0.4-0.7,0.4-1.1
			c0.1-0.4,0.1-0.8,0.1-1.3c0-1-0.3-1.8-0.7-2.4c-0.4-0.6-1.1-0.8-2-0.8c-0.4,0-0.8,0.1-1.3,0.3s-0.6,0.4-0.8,0.8
			c-0.3,0.3-0.4,0.7-0.4,1.1C473.9,220.1,473.8,220.5,473.8,220.9z"/>
	</g>
</g>
<g>
	<line fill="none" x1="315.3" y1="222.2" x2="358.9" y2="222.2"/>
	<rect x="315.3" y="220.8" fill="#9855D4" width="43.6" height="1.4"/>
</g>
<g>
	<line fill="none" x1="199.9" y1="358.7" x2="360.4" y2="358.7"/>
	<rect x="199.9" y="357.3" fill="#9855D4" width="160.5" height="1.4"/>
</g>
<g>
	<line fill="none" x1="301.2" y1="292.6" x2="358.9" y2="292.6"/>
	<rect x="301.2" y="291.1" fill="#9855D4" width="57.7" height="1.4"/>
</g>
</svg>
