<?xml version="1.0" encoding="utf-8"?>
<!-- Generator: Adobe Illustrator 18.0.0, SVG Export Plug-In . SVG Version: 6.00 Build 0)  -->
<!DOCTYPE svg PUBLIC "-//W3C//DTD SVG 1.1//EN" "http://www.w3.org/Graphics/SVG/1.1/DTD/svg11.dtd">
<svg version="1.1" id="Layer_1" xmlns="http://www.w3.org/2000/svg" xmlns:xlink="http://www.w3.org/1999/xlink" x="0px" y="0px"
	 viewBox="0 0 308 209" enable-background="new 0 0 308 209" xml:space="preserve">
<rect x="0" y="1.2" fill="#F4F4F4" width="309.2" height="207.8"/>
<rect x="5.6" y="36" transform="matrix(1 -4.673301e-03 4.673301e-03 1 -0.544 0.4569)" fill="#FFFFFF" width="183.8" height="161.3"/>
<rect x="15.1" y="47.4" transform="matrix(1 -4.673299e-03 4.673299e-03 1 -0.3802 0.4579)" fill="#E0E0E0" width="165.3" height="68.4"/>
<rect x="15.7" y="132.1" transform="matrix(1 -4.673296e-03 4.673296e-03 1 -0.6316 0.1936)" fill="#C7C7C7" width="50.8" height="6.2"/>
<rect x="15.8" y="152.4" transform="matrix(1 -4.673221e-03 4.673221e-03 1 -0.7222 0.1609)" fill="#C7C7C7" width="36.5" height="4.3"/>
<rect x="15.9" y="161.4" transform="matrix(1 -4.673221e-03 4.673221e-03 1 -0.7642 0.1584)" fill="#C7C7C7" width="35.3" height="4.3"/>
<rect x="15.9" y="171.4" transform="matrix(1 -4.673264e-03 4.673264e-03 1 -0.8107 0.1482)" fill="#C7C7C7" width="30.8" height="4.3"/>
<rect x="212" y="45.9" transform="matrix(1 -4.673296e-03 4.673296e-03 1 -0.2868 1.1837)" fill="#E0E0E0" width="82.4" height="32.1"/>
<rect x="212.6" y="83.4" transform="matrix(1 -4.673862e-03 4.673862e-03 1 -0.3951 1.0628)" fill="#C7C7C7" width="29.1" height="3.3"/>
<rect x="212.6" y="127.7" transform="matrix(1 -4.673296e-03 4.673296e-03 1 -0.6281 1.0394)" fill="#E0E0E0" width="19" height="14.4"/>
<rect x="212.7" y="148.6" transform="matrix(1 -4.673296e-03 4.673296e-03 1 -0.7256 1.0401)" fill="#E0E0E0" width="19" height="14.4"/>
<rect x="235.7" y="133" transform="matrix(1 -4.673219e-03 4.673219e-03 1 -0.6265 1.1337)" fill="#C7C7C7" width="13.2" height="3.3"/>
<rect x="235.8" y="152.3" transform="matrix(1 -4.673219e-03 4.673219e-03 1 -0.7167 1.1343)" fill="#C7C7C7" width="13.2" height="3.3"/>
<rect x="251.4" y="83.3" transform="matrix(1 -4.673912e-03 4.673912e-03 1 -0.3943 1.2738)" fill="#C7C7C7" width="41.9" height="3.3"/>
<rect x="0.2" y="-0.5" fill="#E0E0E0" width="309" height="14.8"/>
<rect x="259.8" y="127.5" transform="matrix(1 -4.673296e-03 4.673296e-03 1 -0.6266 1.2602)" fill="#E0E0E0" width="19" height="14.4"/>
<rect x="259.9" y="148.6" transform="matrix(1 -4.673296e-03 4.673296e-03 1 -0.7251 1.2609)" fill="#E0E0E0" width="19" height="14.4"/>
<polygon fill="#C7C7C7" points="183.2,192.6 134.9,192.8 134.8,186.6 183.2,186.4 "/>
<rect x="66" y="151.7" transform="matrix(1 -4.913000e-03 4.913000e-03 1 -0.7547 0.6079)" fill="#C7C7C7" width="114.6" height="4.3"/>
<rect x="66.1" y="160.7" transform="matrix(1 -4.913000e-03 4.913000e-03 1 -0.7989 0.5989)" fill="#C7C7C7" width="110.8" height="4.3"/>
<rect x="66.1" y="170.6" transform="matrix(1 -4.913000e-03 4.913000e-03 1 -0.8475 0.6085)" fill="#C7C7C7" width="114.6" height="4.3"/>
<g>

		<rect x="283.5" y="133.5" transform="matrix(1 -4.673579e-03 4.673579e-03 1 -0.6284 1.355)" fill="#C7C7C7" width="12.2" height="3.3"/>
</g>
<g>

		<rect x="283.6" y="152.8" transform="matrix(1 -4.673579e-03 4.673579e-03 1 -0.7186 1.3556)" fill="#C7C7C7" width="12.2" height="3.3"/>
</g>
<g opacity="0.75">
	<path fill="#9855D4" d="M231.4,197.7c-4.3,0-18-0.8-28.6-10.8c-8.3-7.7-12.6-19.2-12.9-34c-0.3-5.7,1.4-14.4,7.1-20
		c4.5-4.5,10.8-6.4,18.7-5.8c0.1,0,15.9,0.6,16.7,15.6c0,0.2,0.4,11-9.2,11c-2.1-0.1-6.2-1.3-7-5.7c0-0.1-0.4-2.1,0.8-3.6
		c0.8-1,2-0.9,3.6-1.1l0.8,0.2l-0.6,0.6c-1.2,0.1-2,0.5-2.5,1.1c-0.8,1-0.5,2.4-0.5,2.4c0.8,4.3,5.5,4.5,5.6,4.5
		c8.1,0,7.2-9,7.2-9.4c-0.7-13.5-14.2-14.1-14.8-14.1c-7.5-0.6-13.4,1.3-17.6,5.4c-7,6.9-6.7,17.6-6.6,18.8
		c0.3,14.4,4.4,25.4,12.4,32.9c12,11.2,28.6,10.3,28.8,10.3c20.5-1.3,47.7-8.8,61-36.9c8-16.9,7.2-33.3,7.1-33.5
		c-1.6-25.5-8.5-47.1-20.4-64.3c-9.5-13.7-22.2-24.7-37.8-32.5c-26.6-13.4-52.7-13.2-53-13.2C148.3,16.4,113,26.3,84.9,45.2
		c-22.5,15.1-40.8,36-54,62.1C8.5,151.7,8,196.3,8,196.8v0.8l-2,0v-0.8c0-0.4,0.8-45.4,23.3-90.2c13.3-26.3,31.8-47.4,54.5-62.7
		c28.4-19.1,64-29.1,105.6-29.7c0.3,0,26.7-0.3,53.7,13.3c15.8,8,28.8,19.1,38.5,33c12.1,17.4,19,39.3,20.7,65.1
		c0,0.2,0.8,17.1-7.3,34.3c-13.6,28.8-41.4,36.5-62.2,37.8C232.6,197.7,232.2,197.7,231.4,197.7z"/>
</g>
<g>
	<path fill="#9855D4" d="M303,197.7H5.8V13.4H303V197.7z M6.9,196.7H302V14.4H6.9V196.7z"/>
</g>
<g>
	<rect x="189" y="14" fill="#9855D4" width="1" height="183"/>
</g>
<g>
	<rect x="189" y="127" fill="#9855D4" width="114" height="1"/>
</g>
<g>
	<rect x="232" y="128" fill="#9855D4" width="1" height="70"/>
</g>
<g>
	<rect x="189" y="153" fill="#9855D4" width="44" height="1"/>
</g>
<g>
	<rect x="216" y="128" fill="#9855D4" width="1" height="26"/>
</g>
<g>
	<rect x="217" y="143" fill="#9855D4" width="16" height="1"/>
</g>
<g>
	<rect x="223" y="144" fill="#9855D4" width="1" height="10"/>
</g>
<g>
	<rect x="216" y="147" fill="#9855D4" width="8" height="1"/>
</g>
<g>
	<rect x="219" y="144" fill="#9855D4" width="1" height="4"/>
</g>
</svg>
