<?xml version="1.0" encoding="utf-8"?>
<!-- Generator: Adobe Illustrator 18.0.0, SVG Export Plug-In . SVG Version: 6.00 Build 0)  -->
<!DOCTYPE svg PUBLIC "-//W3C//DTD SVG 1.1//EN" "http://www.w3.org/Graphics/SVG/1.1/DTD/svg11.dtd">
<svg version="1.1" id="Layer_1" xmlns="http://www.w3.org/2000/svg" xmlns:xlink="http://www.w3.org/1999/xlink" x="0px" y="0px"
	 viewBox="0 0 228 155" width="228" height="155" enable-background="new 0 0 228 155" xml:space="preserve">
<rect y="0.5" fill="#ECECEC" width="227.7" height="154.1"/>
<rect x="0" y="0.1" fill="#C7C7C7" width="227.7" height="14.4"/>
<rect x="0.2" y="0.1" fill="#AEAEAE" width="67.6" height="14.1"/>
<rect x="9" y="46.9" fill="#AEAEAE" width="56.5" height="4.2"/>
<rect x="9" y="73.8" fill="#AEAEAE" width="56.5" height="4.2"/>
<rect x="9" y="40.6" fill="#AEAEAE" width="56.5" height="4.2"/>
<rect x="82" y="40.7" fill="#C7C7C7" width="66.1" height="53.3"/>
<rect x="83.3" y="99.4" fill="#C7C7C7" width="46.1" height="2.7"/>
<rect x="83.3" y="105.1" fill="#C7C7C7" width="44.1" height="2.7"/>
<rect x="162.2" y="40.7" fill="#C7C7C7" width="33.4" height="21.2"/>
<rect x="162.2" y="65.6" fill="#C7C7C7" width="56.4" height="2.7"/>
<rect x="162.2" y="71.3" fill="#C7C7C7" width="31.3" height="2.7"/>
<rect x="15" y="55.6" fill="#C7C7C7" width="19.8" height="12.5"/>
<rect x="40.5" y="55.6" fill="#C7C7C7" width="19.8" height="12.5"/>
<rect x="157.2" y="0" opacity="0.25" fill="#BA8FF7" width="67.5" height="154.1"/>
<rect x="81" y="0" opacity="0.25" fill="#BA8FF7" width="67.5" height="154.1"/>
<rect x="3.8" y="0" opacity="0.25" fill="#BA8FF7" width="67.5" height="154.1"/>
</svg>
