<?xml version="1.0" encoding="utf-8"?>
<!-- Generator: Adobe Illustrator 17.1.0, SVG Export Plug-In . SVG Version: 6.00 Build 0)  -->
<!DOCTYPE svg PUBLIC "-//W3C//DTD SVG 1.1//EN" "http://www.w3.org/Graphics/SVG/1.1/DTD/svg11.dtd">
<svg version="1.1" id="Layer_1" xmlns="http://www.w3.org/2000/svg" xmlns:xlink="http://www.w3.org/1999/xlink" x="0px" y="0px"
	 viewBox="0 0 155.333 135" width="155.333" height="135"  enable-background="new 0 0 155.333 135" xml:space="preserve">
<g>
	<g>
		<rect y="67" fill="#C7C7C7" width="153" height="2"/>
	</g>
	<g opacity="0.5">
		<rect x="10" y="85" fill="#E0E0E0" width="135" height="1"/>
	</g>
	<g opacity="0.5">
		<rect x="10" y="14" fill="#E0E0E0" width="135" height="1"/>
	</g>
	<g opacity="0.5">
		<rect x="10" y="32" fill="#E0E0E0" width="135" height="1"/>
	</g>
	<g opacity="0.5">
		<rect x="10" y="50" fill="#E0E0E0" width="135" height="1"/>
	</g>
	<g opacity="0.5">
		<rect x="10" y="103" fill="#E0E0E0" width="135" height="1"/>
	</g>
	<g opacity="0.5">
		<rect x="10" y="121" fill="#E0E0E0" width="135" height="1"/>
	</g>
	<g opacity="0.5">
		<rect x="94" fill="#E0E0E0" width="1" height="136"/>
	</g>
	<g opacity="0.5">
		<rect x="23" fill="#E0E0E0" width="1" height="136"/>
	</g>
	<g opacity="0.5">
		<rect x="40" fill="#E0E0E0" width="1" height="136"/>
	</g>
	<g opacity="0.5">
		<rect x="59" fill="#E0E0E0" width="1" height="136"/>
	</g>
	<g>
		<rect x="75" fill="#C7C7C7" width="2" height="136"/>
	</g>
	<g>
		<path fill="#9855D4" d="M95,76H51V32h44V76z M53,74h40V34H53V74z"/>
	</g>
	<g opacity="0.5">
		<g>
			<rect x="112" fill="#E0E0E0" width="1" height="136"/>
		</g>
	</g>
	<g opacity="0.5">
		<rect x="130" y="2" fill="#E0E0E0" width="1" height="135"/>
	</g>
	<g>
		<path d="M83.168,10.998c-0.126,0.226-0.265,0.41-0.416,0.553c-0.152,0.143-0.319,0.247-0.501,0.312s-0.398,0.098-0.649,0.098
			c-0.131,0-0.261-0.009-0.391-0.026c-0.13-0.017-0.256-0.047-0.377-0.091v-1.014c0.104,0.035,0.21,0.069,0.318,0.104
			s0.219,0.052,0.332,0.052c0.225,0,0.407-0.052,0.546-0.156s0.26-0.255,0.364-0.455l0.454-1.131l-2.665-6.682h1.248l1.964,5.499
			h0.025l1.885-5.499h1.171l-2.926,7.605C83.421,10.496,83.293,10.773,83.168,10.998z"/>
		<path d="M96.188,9.425c-0.286,0-0.514-0.08-0.683-0.241c-0.169-0.16-0.254-0.422-0.254-0.786c-0.303,0.364-0.656,0.626-1.06,0.786
			c-0.402,0.161-0.838,0.241-1.306,0.241c-0.304,0-0.59-0.033-0.858-0.098s-0.505-0.173-0.709-0.325
			c-0.203-0.152-0.363-0.347-0.48-0.585s-0.176-0.527-0.176-0.865c0-0.381,0.065-0.693,0.195-0.936s0.301-0.44,0.514-0.591
			c0.212-0.152,0.455-0.267,0.728-0.345c0.273-0.078,0.553-0.143,0.839-0.195c0.303-0.061,0.592-0.106,0.864-0.137
			c0.273-0.03,0.514-0.073,0.722-0.13c0.208-0.056,0.372-0.139,0.494-0.247c0.121-0.108,0.182-0.267,0.182-0.475
			c0-0.242-0.045-0.438-0.137-0.585c-0.091-0.147-0.208-0.26-0.351-0.338c-0.144-0.078-0.304-0.13-0.481-0.156
			c-0.178-0.026-0.353-0.039-0.526-0.039c-0.468,0-0.857,0.089-1.17,0.266c-0.312,0.178-0.48,0.514-0.507,1.008h-1.105
			c0.018-0.416,0.104-0.767,0.261-1.053c0.155-0.286,0.363-0.518,0.624-0.695c0.26-0.178,0.559-0.306,0.896-0.383
			c0.338-0.078,0.693-0.117,1.066-0.117c0.303,0,0.604,0.021,0.903,0.065s0.569,0.132,0.812,0.267
			c0.242,0.134,0.438,0.323,0.585,0.565s0.221,0.559,0.221,0.949v3.458c0,0.26,0.016,0.451,0.046,0.572
			c0.03,0.122,0.132,0.182,0.306,0.182c0.095,0,0.208-0.021,0.338-0.065v0.858C96.79,9.369,96.525,9.425,96.188,9.425z
			 M94.641,6.039c-0.226,0.048-0.462,0.087-0.709,0.117s-0.496,0.065-0.747,0.104c-0.252,0.039-0.477,0.102-0.676,0.188
			c-0.2,0.087-0.362,0.21-0.488,0.371c-0.125,0.16-0.188,0.379-0.188,0.656c0,0.182,0.037,0.336,0.11,0.461
			c0.074,0.126,0.17,0.228,0.286,0.306c0.117,0.078,0.256,0.134,0.416,0.169s0.323,0.052,0.488,0.052
			c0.363,0,0.676-0.05,0.936-0.149s0.473-0.226,0.637-0.377c0.165-0.151,0.286-0.316,0.364-0.494s0.117-0.345,0.117-0.5V5.811
			C95.048,5.915,94.865,5.991,94.641,6.039z"/>
		<path d="M97.474,2.561h1.417l1.612,2.353l1.677-2.353h1.326l-2.314,3.094l2.601,3.627h-1.417L100.503,6.5l-1.872,2.782h-1.339
			l2.521-3.536L97.474,2.561z"/>
		<path d="M104.807,1.352V0h1.104v1.352H104.807z M105.911,2.561v6.721h-1.104V2.561H105.911z"/>
		<path d="M108.472,7.781c0.104,0.169,0.241,0.303,0.41,0.403c0.169,0.1,0.359,0.171,0.571,0.215
			c0.213,0.043,0.432,0.065,0.657,0.065c0.173,0,0.354-0.013,0.546-0.039c0.19-0.026,0.365-0.074,0.526-0.143
			c0.16-0.069,0.292-0.171,0.396-0.306c0.104-0.134,0.156-0.305,0.156-0.513c0-0.286-0.109-0.503-0.325-0.65
			c-0.217-0.147-0.487-0.266-0.812-0.357c-0.325-0.091-0.679-0.173-1.06-0.247c-0.382-0.073-0.734-0.177-1.06-0.312
			c-0.325-0.134-0.596-0.323-0.812-0.565c-0.217-0.242-0.325-0.581-0.325-1.014c0-0.338,0.076-0.628,0.228-0.871
			s0.347-0.44,0.585-0.592c0.238-0.151,0.507-0.264,0.806-0.338c0.3-0.073,0.597-0.11,0.891-0.11c0.382,0,0.732,0.032,1.054,0.098
			c0.32,0.065,0.604,0.178,0.852,0.338c0.246,0.16,0.443,0.377,0.591,0.65s0.234,0.613,0.26,1.021h-1.104
			c-0.018-0.216-0.074-0.396-0.169-0.54c-0.096-0.143-0.217-0.258-0.364-0.344c-0.147-0.087-0.31-0.15-0.487-0.188
			c-0.178-0.039-0.357-0.059-0.539-0.059c-0.165,0-0.332,0.013-0.501,0.039c-0.169,0.026-0.323,0.071-0.462,0.136
			s-0.251,0.152-0.338,0.26s-0.13,0.249-0.13,0.422c0,0.191,0.067,0.349,0.202,0.475c0.134,0.125,0.305,0.229,0.513,0.312
			s0.442,0.151,0.702,0.208c0.26,0.056,0.521,0.115,0.78,0.175c0.277,0.061,0.548,0.134,0.812,0.221
			c0.265,0.086,0.498,0.201,0.702,0.344c0.203,0.143,0.368,0.323,0.494,0.54c0.125,0.217,0.188,0.485,0.188,0.806
			c0,0.407-0.085,0.745-0.254,1.014c-0.169,0.269-0.39,0.486-0.663,0.65c-0.272,0.165-0.581,0.279-0.923,0.344
			c-0.343,0.065-0.683,0.098-1.021,0.098c-0.373,0-0.728-0.039-1.066-0.117c-0.338-0.078-0.637-0.206-0.896-0.383
			s-0.468-0.412-0.624-0.702c-0.156-0.29-0.243-0.644-0.26-1.06h1.104C108.312,7.406,108.368,7.612,108.472,7.781z"/>
	</g>
	<g>
		<path d="M120.799,76.729h1.417l1.612,2.354l1.677-2.354h1.326l-2.314,3.095l2.601,3.627H125.7l-1.872-2.782l-1.872,2.782h-1.339
			l2.521-3.536L120.799,76.729z"/>
		<path d="M136.841,83.594c-0.286,0-0.514-0.08-0.683-0.24s-0.254-0.423-0.254-0.787c-0.303,0.364-0.656,0.627-1.06,0.787
			c-0.402,0.16-0.838,0.24-1.306,0.24c-0.304,0-0.59-0.032-0.858-0.098c-0.269-0.064-0.505-0.173-0.709-0.325
			c-0.203-0.151-0.363-0.347-0.48-0.585s-0.176-0.526-0.176-0.864c0-0.381,0.065-0.693,0.195-0.937
			c0.13-0.242,0.301-0.439,0.514-0.591c0.212-0.151,0.455-0.267,0.728-0.345c0.273-0.078,0.553-0.143,0.839-0.195
			c0.303-0.061,0.592-0.105,0.864-0.136c0.273-0.03,0.514-0.074,0.722-0.13c0.208-0.057,0.372-0.139,0.494-0.247
			c0.121-0.108,0.182-0.267,0.182-0.475c0-0.243-0.045-0.438-0.137-0.585c-0.091-0.147-0.208-0.261-0.351-0.338
			c-0.144-0.078-0.304-0.131-0.481-0.156c-0.178-0.026-0.353-0.039-0.526-0.039c-0.468,0-0.857,0.089-1.17,0.267
			c-0.312,0.178-0.48,0.514-0.507,1.007h-1.105c0.018-0.416,0.104-0.767,0.261-1.053c0.155-0.286,0.363-0.518,0.624-0.695
			c0.26-0.178,0.559-0.306,0.896-0.384s0.693-0.116,1.066-0.116c0.303,0,0.604,0.021,0.903,0.064s0.569,0.132,0.812,0.267
			c0.242,0.135,0.438,0.323,0.585,0.565s0.221,0.559,0.221,0.949v3.458c0,0.26,0.016,0.45,0.046,0.571
			c0.03,0.122,0.132,0.183,0.306,0.183c0.095,0,0.208-0.021,0.338-0.065v0.858C137.443,83.537,137.179,83.594,136.841,83.594z
			 M135.294,80.207c-0.226,0.048-0.462,0.087-0.709,0.117s-0.496,0.064-0.747,0.104c-0.252,0.039-0.477,0.103-0.676,0.189
			c-0.2,0.086-0.362,0.21-0.488,0.37c-0.125,0.16-0.188,0.379-0.188,0.656c0,0.183,0.037,0.336,0.11,0.462
			c0.074,0.125,0.17,0.228,0.286,0.305c0.117,0.078,0.256,0.135,0.416,0.17c0.16,0.034,0.323,0.052,0.488,0.052
			c0.363,0,0.676-0.05,0.936-0.149s0.473-0.226,0.637-0.377c0.165-0.152,0.286-0.316,0.364-0.494s0.117-0.345,0.117-0.501v-1.131
			C135.701,80.084,135.519,80.16,135.294,80.207z"/>
		<path d="M138.128,76.729h1.417l1.612,2.354l1.677-2.354h1.326l-2.314,3.095l2.601,3.627h-1.417l-1.872-2.782l-1.872,2.782h-1.339
			l2.521-3.536L138.128,76.729z"/>
		<path d="M145.46,75.521v-1.352h1.104v1.352H145.46z M146.564,76.729v6.722h-1.104v-6.722H146.564z"/>
		<path d="M149.125,81.949c0.104,0.169,0.241,0.304,0.41,0.403s0.359,0.171,0.571,0.214c0.213,0.044,0.432,0.065,0.657,0.065
			c0.173,0,0.354-0.013,0.546-0.039c0.19-0.026,0.365-0.073,0.526-0.144c0.16-0.068,0.292-0.171,0.396-0.305
			c0.104-0.135,0.156-0.306,0.156-0.514c0-0.286-0.109-0.503-0.325-0.65c-0.217-0.147-0.487-0.267-0.812-0.357
			s-0.679-0.173-1.06-0.247c-0.382-0.073-0.734-0.178-1.06-0.312c-0.325-0.135-0.596-0.323-0.812-0.565
			c-0.217-0.243-0.325-0.581-0.325-1.015c0-0.338,0.076-0.628,0.228-0.871c0.151-0.242,0.347-0.439,0.585-0.591
			s0.507-0.265,0.806-0.338c0.3-0.074,0.597-0.11,0.891-0.11c0.382,0,0.732,0.032,1.054,0.097c0.32,0.065,0.604,0.178,0.852,0.338
			c0.246,0.161,0.443,0.378,0.591,0.65s0.234,0.613,0.26,1.021h-1.104c-0.018-0.217-0.074-0.396-0.169-0.539
			c-0.096-0.144-0.217-0.258-0.364-0.345s-0.31-0.149-0.487-0.188s-0.357-0.059-0.539-0.059c-0.165,0-0.332,0.013-0.501,0.039
			c-0.169,0.025-0.323,0.071-0.462,0.137c-0.139,0.064-0.251,0.151-0.338,0.26s-0.13,0.249-0.13,0.422
			c0,0.191,0.067,0.35,0.202,0.475c0.134,0.126,0.305,0.23,0.513,0.312s0.442,0.151,0.702,0.208s0.521,0.114,0.78,0.175
			c0.277,0.062,0.548,0.135,0.812,0.222s0.498,0.201,0.702,0.345c0.203,0.143,0.368,0.322,0.494,0.539
			c0.125,0.217,0.188,0.485,0.188,0.806c0,0.408-0.085,0.746-0.254,1.015s-0.39,0.485-0.663,0.649
			c-0.272,0.165-0.581,0.28-0.923,0.345c-0.343,0.065-0.683,0.098-1.021,0.098c-0.373,0-0.728-0.039-1.066-0.117
			c-0.338-0.078-0.637-0.206-0.896-0.384c-0.26-0.177-0.468-0.411-0.624-0.701c-0.156-0.291-0.243-0.644-0.26-1.06h1.104
			C148.965,81.574,149.021,81.78,149.125,81.949z"/>
	</g>
	<g>
		<path fill="#9855D4" d="M23.342,85.872h-3.796v-0.976h5.227v0.754l-4.108,4.992h4.29v0.975h-5.668v-0.845L23.342,85.872z"/>
		<path fill="#9855D4" d="M34.847,91.761c-0.286,0-0.514-0.08-0.683-0.24c-0.169-0.161-0.254-0.423-0.254-0.787
			c-0.303,0.364-0.656,0.626-1.06,0.787c-0.402,0.16-0.838,0.24-1.306,0.24c-0.304,0-0.59-0.032-0.858-0.098
			s-0.505-0.173-0.709-0.325c-0.203-0.151-0.363-0.346-0.48-0.585c-0.117-0.238-0.176-0.526-0.176-0.864
			c0-0.381,0.065-0.693,0.195-0.936c0.13-0.243,0.301-0.44,0.514-0.592c0.212-0.151,0.455-0.267,0.728-0.345
			c0.273-0.078,0.553-0.143,0.839-0.195c0.303-0.061,0.592-0.105,0.864-0.136c0.273-0.03,0.514-0.074,0.722-0.131
			c0.208-0.056,0.372-0.138,0.494-0.246c0.121-0.108,0.182-0.267,0.182-0.475c0-0.243-0.045-0.438-0.137-0.585
			c-0.091-0.147-0.208-0.261-0.351-0.339c-0.144-0.077-0.304-0.13-0.481-0.155c-0.178-0.026-0.353-0.039-0.526-0.039
			c-0.468,0-0.857,0.089-1.17,0.267c-0.312,0.178-0.48,0.514-0.507,1.007h-1.105c0.018-0.415,0.104-0.767,0.261-1.053
			c0.155-0.286,0.363-0.518,0.624-0.695c0.26-0.178,0.559-0.306,0.896-0.384s0.693-0.117,1.066-0.117
			c0.303,0,0.604,0.022,0.903,0.065c0.299,0.044,0.569,0.132,0.812,0.267c0.242,0.135,0.438,0.323,0.585,0.565
			c0.147,0.243,0.221,0.559,0.221,0.949v3.458c0,0.26,0.016,0.45,0.046,0.572c0.03,0.121,0.132,0.182,0.306,0.182
			c0.095,0,0.208-0.021,0.338-0.065v0.858C35.449,91.704,35.185,91.761,34.847,91.761z M33.3,88.374
			c-0.226,0.048-0.462,0.087-0.709,0.117s-0.496,0.065-0.747,0.104c-0.252,0.038-0.477,0.102-0.676,0.188
			c-0.2,0.087-0.362,0.211-0.488,0.371c-0.125,0.16-0.188,0.379-0.188,0.656c0,0.182,0.037,0.336,0.11,0.462
			c0.074,0.126,0.17,0.228,0.286,0.306c0.117,0.077,0.256,0.134,0.416,0.169c0.16,0.034,0.323,0.052,0.488,0.052
			c0.363,0,0.676-0.05,0.936-0.149s0.473-0.226,0.637-0.377c0.165-0.151,0.286-0.316,0.364-0.494s0.117-0.345,0.117-0.501v-1.131
			C33.707,88.251,33.524,88.326,33.3,88.374z"/>
		<path fill="#9855D4" d="M36.134,84.896h1.417l1.612,2.354l1.677-2.354h1.326l-2.314,3.094l2.601,3.627h-1.417l-1.872-2.781
			l-1.872,2.781h-1.339l2.521-3.535L36.134,84.896z"/>
		<path fill="#9855D4" d="M43.466,83.688v-1.352h1.104v1.352H43.466z M44.57,84.896v6.721h-1.104v-6.721H44.57z"/>
		<path fill="#9855D4" d="M47.131,90.116c0.104,0.169,0.241,0.304,0.41,0.403s0.359,0.171,0.571,0.214
			c0.213,0.044,0.432,0.065,0.657,0.065c0.173,0,0.354-0.014,0.546-0.039c0.19-0.026,0.365-0.073,0.526-0.143
			c0.16-0.07,0.292-0.172,0.396-0.306c0.104-0.135,0.156-0.306,0.156-0.514c0-0.286-0.109-0.503-0.325-0.65
			c-0.217-0.147-0.487-0.267-0.812-0.357s-0.679-0.173-1.06-0.247c-0.382-0.073-0.734-0.178-1.06-0.312
			c-0.325-0.135-0.596-0.323-0.812-0.565C46.108,87.423,46,87.085,46,86.651c0-0.338,0.076-0.628,0.228-0.871
			c0.151-0.242,0.347-0.439,0.585-0.591c0.238-0.152,0.507-0.265,0.806-0.338c0.3-0.074,0.597-0.111,0.891-0.111
			c0.382,0,0.732,0.033,1.054,0.098c0.32,0.065,0.604,0.178,0.852,0.338c0.246,0.161,0.443,0.377,0.591,0.65s0.234,0.613,0.26,1.021
			H50.16c-0.018-0.217-0.074-0.396-0.169-0.54c-0.096-0.143-0.217-0.257-0.364-0.344s-0.31-0.149-0.487-0.188
			s-0.357-0.059-0.539-0.059c-0.165,0-0.332,0.013-0.501,0.039c-0.169,0.025-0.323,0.071-0.462,0.137
			c-0.139,0.064-0.251,0.151-0.338,0.26s-0.13,0.249-0.13,0.423c0,0.19,0.067,0.349,0.202,0.474c0.134,0.126,0.305,0.23,0.513,0.312
			s0.442,0.151,0.702,0.208s0.521,0.115,0.78,0.176c0.277,0.061,0.548,0.134,0.812,0.221s0.498,0.201,0.702,0.345
			c0.203,0.143,0.368,0.322,0.494,0.539c0.125,0.217,0.188,0.485,0.188,0.806c0,0.408-0.085,0.746-0.254,1.015
			s-0.39,0.485-0.663,0.649c-0.272,0.165-0.581,0.279-0.923,0.345c-0.343,0.065-0.683,0.098-1.021,0.098
			c-0.373,0-0.728-0.039-1.066-0.117c-0.338-0.078-0.637-0.206-0.896-0.384c-0.26-0.177-0.468-0.411-0.624-0.701
			c-0.156-0.291-0.243-0.644-0.26-1.06h1.104C46.971,89.741,47.027,89.947,47.131,90.116z"/>
	</g>
	<g>
		<polygon fill="#9855D4" points="65.042,93.042 51,76 52.466,74.807 66.508,91.848 		"/>
	</g>
	<g>
		<polygon fill="#9855D4" points="65.767,51.464 51.162,33.569 52.629,32.375 67.233,50.271 		"/>
	</g>
	<g>
		<polygon fill="#9855D4" points="106.767,92.464 92.85,75.131 94.316,73.938 108.233,91.271 		"/>
	</g>
	<g>
		<polygon fill="#9855D4" points="107.543,50.227 93.526,33.226 94.993,32.032 109.01,49.034 		"/>
	</g>
	<g>
		<path fill="#323232" d="M109,93H65V49h44V93z M67,91h40V51H67V91z"/>
	</g>
</g>
</svg>
