<?xml version="1.0" encoding="utf-8"?>
<!-- Generator: Adobe Illustrator 18.0.0, SVG Export Plug-In . SVG Version: 6.00 Build 0)  -->
<!DOCTYPE svg PUBLIC "-//W3C//DTD SVG 1.1//EN" "http://www.w3.org/Graphics/SVG/1.1/DTD/svg11.dtd">
<svg version="1.1" id="Layer_1" xmlns="http://www.w3.org/2000/svg" xmlns:xlink="http://www.w3.org/1999/xlink" x="0px" y="0px"
	 viewBox="0 0 193 131" width="193" height="131" enable-background="new 0 0 193 131" xml:space="preserve">
<g>
	<rect x="0" y="0.3" fill="#F4F4F4" width="192.7" height="130.4"/>
	<rect x="43.6" y="23" fill="#C7C7C7" width="72.5" height="46"/>
	<rect x="43.6" y="75.6" fill="#C7C7C7" width="31.9" height="3.1"/>
	<rect x="43.6" y="82.2" fill="#C7C7C7" width="31.6" height="3.1"/>

		<rect x="43.6" y="98.2" transform="matrix(1 -2.126726e-03 2.126726e-03 1 -0.224 0.1295)" fill="#C7C7C7" width="34.4" height="14.4"/>

		<rect x="43.6" y="116.1" transform="matrix(1 -2.126548e-03 2.126548e-03 1 -0.2496 0.1187)" fill="#C7C7C7" width="24.3" height="2.7"/>

		<rect x="83.8" y="98.2" transform="matrix(1 -2.126726e-03 2.126726e-03 1 -0.2239 0.2151)" fill="#C7C7C7" width="34.4" height="14.4"/>
	<rect x="123.2" y="23" fill="#C7C7C7" width="34.9" height="27.2"/>
	<rect x="123.2" y="54.9" fill="#C7C7C7" width="34.7" height="3.1"/>
	<rect x="123.2" y="61.5" fill="#C7C7C7" width="34.3" height="3.1"/>
	<rect x="0" y="-0.6" fill="#C7C7C7" width="192.7" height="13.8"/>

		<rect x="123.2" y="98.2" transform="matrix(1 -2.126726e-03 2.126726e-03 1 -0.2238 0.2988)" fill="#C7C7C7" width="34.4" height="14.4"/>
</g>
<g>
	<path fill="#9855D4" d="M157.3,116.8l-56.5-1c-1.6,0-39.3,0.8-51-11.2c-2.4-2.5-3.6-5.4-3.4-8.6c-0.7-20.2,50.9-24.6,53.1-24.8
		c14.2-1.9,51.3-9.4,51.2-21.1c-0.8-20.7-49.2-20.1-49.7-20.1l-54.9-1.5l0.1-2.4l54.8,1.5c2,0,51.2-0.6,52.1,22.5
		c0.1,7.1-9,13.2-27,18.2c-13,3.6-26.2,5.4-26.4,5.4c-0.2,0-13.3,1.1-26.2,4.5c-11.5,3.1-25.1,8.6-24.8,17.8l0,0.1l0,0.1
		c-0.1,2.6,0.8,4.8,2.8,6.9c10.9,11.2,48.8,10.4,49.2,10.4l56.5,1L157.3,116.8z"/>
</g>
</svg>
