<?xml version="1.0" encoding="utf-8"?>
<!-- Generator: Adobe Illustrator 18.0.0, SVG Export Plug-In . SVG Version: 6.00 Build 0)  -->
<!DOCTYPE svg PUBLIC "-//W3C//DTD SVG 1.1//EN" "http://www.w3.org/Graphics/SVG/1.1/DTD/svg11.dtd">
<svg version="1.1" id="Layer_1" xmlns="http://www.w3.org/2000/svg" xmlns:xlink="http://www.w3.org/1999/xlink" x="0px" y="0px"
	 viewBox="0 0 227 155" width="227" height="155" enable-background="new 0 0 227 155" xml:space="preserve">
<rect x="0" y="2.3" fill="#F4F4F4" width="227.3" height="153.5"/>
<rect x="7.2" y="20.7" fill="#E0E0E0" width="36.6" height="5.7"/>
<rect x="7.2" y="28.7" fill="#E0E0E0" width="36.6" height="5.7"/>
<rect x="7.2" y="36.8" fill="#E0E0E0" width="36.6" height="5.7"/>
<rect x="7.2" y="44.9" fill="#E0E0E0" width="36.6" height="5.7"/>
<rect x="54.1" y="30.5" fill="#E0E0E0" width="48.9" height="29.8"/>
<rect x="105.6" y="30.5" fill="#E0E0E0" width="48.9" height="29.8"/>
<rect x="54.1" y="71.1" fill="#C7C7C7" width="100.5" height="2.7"/>
<rect x="0.1" fill="#C7C7C7" width="226.9" height="9.4"/>
<rect x="53.9" y="82.2" fill="#E0E0E0" width="32" height="19.6"/>
<rect x="87.9" y="82.2" fill="#E0E0E0" width="32" height="19.6"/>
<rect x="122" y="82.2" fill="#E0E0E0" width="32" height="19.6"/>
<rect x="54.1" y="110.3" fill="#C7C7C7" width="100" height="2.7"/>
<rect x="53.9" y="121.1" fill="#E0E0E0" width="32" height="19.6"/>
<rect x="87.9" y="121.1" fill="#E0E0E0" width="32" height="19.6"/>
<rect x="122" y="121.1" fill="#E0E0E0" width="32" height="19.6"/>
<rect x="175.5" y="32.2" fill="#C7C7C7" width="42.8" height="2.5"/>
<rect x="175.5" y="37.5" fill="#C7C7C7" width="40.9" height="2.5"/>
<rect x="175.5" y="54" fill="#C7C7C7" width="42.8" height="2.5"/>
<rect x="175.5" y="59.3" fill="#C7C7C7" width="40.9" height="2.5"/>
<rect x="175.5" y="75.8" fill="#C7C7C7" width="42.8" height="2.5"/>
<rect x="175.5" y="81.1" fill="#C7C7C7" width="40.9" height="2.5"/>
<rect x="175.5" y="103.3" fill="#C7C7C7" width="42.8" height="2.5"/>
<rect x="175.5" y="103.3" fill="#C7C7C7" width="40.9" height="2.5"/>
<rect x="175.5" y="103.3" fill="#C7C7C7" width="42.8" height="2.5"/>
<rect x="175.5" y="103.3" fill="#C7C7C7" width="40.9" height="2.5"/>
<rect x="49.2" y="77.8" opacity="0.25" fill="#BA8FF7" width="109.5" height="38.1"/>
<rect x="49.2" y="118.2" opacity="0.25" fill="#BA8FF7" width="109.5" height="27.5"/>
<rect x="49.2" y="27.4" opacity="0.25" fill="#BA8FF7" width="109.5" height="48.4"/>
</svg>
