<?xml version="1.0" encoding="utf-8"?>
<!-- Generator: Adobe Illustrator 18.0.0, SVG Export Plug-In . SVG Version: 6.00 Build 0)  -->
<!DOCTYPE svg PUBLIC "-//W3C//DTD SVG 1.1//EN" "http://www.w3.org/Graphics/SVG/1.1/DTD/svg11.dtd">
<svg version="1.1" id="Layer_1" xmlns="http://www.w3.org/2000/svg" xmlns:xlink="http://www.w3.org/1999/xlink" x="0px" y="0px"
	 viewBox="0 0 386 155" width="386" height="155" enable-background="new 0 0 386 155" xml:space="preserve">
<rect x="0.8" y="0.4" fill="#F4F4F4" width="226.9" height="153.6"/>
<rect x="62.4" y="40.4" fill="#C7C7C7" width="78.7" height="59"/>
<rect x="63.1" y="114.6" fill="#C7C7C7" width="23.4" height="16.9"/>
<rect x="91.4" y="114.6" fill="#C7C7C7" width="23.4" height="16.9"/>
<rect x="156.4" y="40.4" fill="#C7C7C7" width="52.1" height="37.9"/>
<rect x="157.1" y="82.9" fill="#C7C7C7" width="40.1" height="3"/>
<rect x="157.1" y="89.3" fill="#C7C7C7" width="39.6" height="3"/>
<rect x="157.1" y="95.6" fill="#C7C7C7" width="28" height="3"/>
<g>
	<g>
		<path fill="#777677" d="M283.1,71.7c0,0.4,0.1,0.7,0.2,0.9c0.1,0.3,0.3,0.5,0.5,0.6c0.2,0.2,0.5,0.3,0.7,0.4
			c0.3,0.1,0.6,0.1,0.9,0.1c0.4,0,0.7,0,0.9-0.1c0.3-0.1,0.5-0.2,0.6-0.3c0.2-0.1,0.3-0.3,0.3-0.4c0.1-0.2,0.1-0.3,0.1-0.5
			c0-0.4-0.1-0.6-0.2-0.8s-0.3-0.3-0.5-0.4c-0.3-0.1-0.7-0.2-1.2-0.3s-1-0.2-1.6-0.4c-0.4-0.1-0.7-0.2-1-0.4
			c-0.3-0.2-0.5-0.4-0.6-0.6s-0.3-0.4-0.3-0.7c-0.1-0.2-0.1-0.5-0.1-0.7c0-0.5,0.1-0.9,0.3-1.2c0.2-0.3,0.5-0.6,0.8-0.9
			c0.3-0.2,0.7-0.4,1.1-0.5s0.8-0.2,1.2-0.2c0.5,0,0.9,0.1,1.4,0.2c0.4,0.1,0.8,0.3,1.1,0.6c0.3,0.3,0.6,0.6,0.8,0.9
			c0.2,0.4,0.3,0.8,0.3,1.3h-1.6c0-0.6-0.2-1-0.6-1.3c-0.4-0.2-0.8-0.4-1.4-0.4c-0.2,0-0.4,0-0.6,0.1c-0.2,0-0.4,0.1-0.5,0.2
			s-0.3,0.2-0.4,0.4c-0.1,0.2-0.2,0.4-0.2,0.6c0,0.3,0.1,0.6,0.3,0.8c0.2,0.2,0.5,0.3,0.8,0.4c0,0,0.2,0,0.4,0.1
			c0.2,0.1,0.5,0.1,0.8,0.2s0.6,0.2,0.9,0.2c0.3,0.1,0.5,0.1,0.6,0.2c0.3,0.1,0.6,0.2,0.8,0.4c0.2,0.2,0.4,0.4,0.6,0.6
			c0.2,0.2,0.3,0.4,0.3,0.7c0.1,0.2,0.1,0.5,0.1,0.7c0,0.5-0.1,1-0.3,1.3c-0.2,0.4-0.5,0.7-0.8,0.9c-0.3,0.2-0.7,0.4-1.2,0.5
			c-0.4,0.1-0.9,0.2-1.4,0.2c-0.5,0-1-0.1-1.5-0.2c-0.5-0.1-0.9-0.3-1.2-0.6c-0.3-0.3-0.6-0.6-0.8-1c-0.2-0.4-0.3-0.9-0.3-1.5H283.1
			z"/>
		<path fill="#777677" d="M291.4,71.8c0,0.3,0,0.5,0.1,0.8c0.1,0.2,0.2,0.5,0.3,0.6c0.1,0.2,0.3,0.3,0.6,0.4
			c0.2,0.1,0.5,0.2,0.8,0.2c0.4,0,0.8-0.1,1-0.3c0.3-0.2,0.5-0.5,0.6-0.8h1.4c-0.1,0.4-0.2,0.7-0.4,1c-0.2,0.3-0.4,0.5-0.7,0.7
			c-0.3,0.2-0.6,0.3-0.9,0.4c-0.3,0.1-0.7,0.1-1,0.1c-0.5,0-1-0.1-1.4-0.3c-0.4-0.2-0.8-0.4-1-0.7c-0.3-0.3-0.5-0.7-0.6-1.1
			c-0.1-0.4-0.2-0.9-0.2-1.4c0-0.5,0.1-0.9,0.2-1.4c0.2-0.4,0.4-0.8,0.7-1.1s0.6-0.6,1-0.8c0.4-0.2,0.8-0.3,1.4-0.3
			c0.5,0,1,0.1,1.4,0.3c0.4,0.2,0.8,0.5,1,0.9s0.5,0.8,0.6,1.3c0.1,0.5,0.2,1,0.1,1.5H291.4z M294.9,70.8c0-0.2-0.1-0.5-0.2-0.7
			c-0.1-0.2-0.2-0.4-0.3-0.6c-0.1-0.2-0.3-0.3-0.5-0.4s-0.4-0.1-0.7-0.1c-0.3,0-0.5,0-0.7,0.1c-0.2,0.1-0.4,0.2-0.5,0.4
			c-0.2,0.2-0.3,0.3-0.4,0.6s-0.1,0.5-0.2,0.7H294.9z"/>
		<path fill="#777677" d="M302,70.3c-0.1-0.4-0.2-0.7-0.5-0.9c-0.3-0.2-0.6-0.3-1-0.3c-0.2,0-0.4,0-0.6,0.1
			c-0.2,0.1-0.4,0.2-0.6,0.4c-0.2,0.2-0.3,0.4-0.5,0.7c-0.1,0.3-0.2,0.7-0.2,1.2c0,0.3,0,0.6,0.1,0.8c0.1,0.3,0.2,0.5,0.3,0.7
			c0.1,0.2,0.3,0.4,0.6,0.5c0.2,0.1,0.5,0.2,0.8,0.2c0.4,0,0.8-0.1,1.1-0.4c0.3-0.3,0.5-0.6,0.5-1.1h1.5c-0.1,0.9-0.5,1.5-1,2
			c-0.5,0.5-1.2,0.7-2.1,0.7c-0.5,0-1-0.1-1.4-0.3s-0.7-0.4-1-0.7c-0.3-0.3-0.5-0.7-0.6-1.1c-0.1-0.4-0.2-0.9-0.2-1.4
			c0-0.5,0.1-1,0.2-1.4c0.1-0.4,0.3-0.8,0.6-1.2c0.3-0.3,0.6-0.6,1-0.8s0.9-0.3,1.4-0.3c0.4,0,0.8,0,1.1,0.1s0.7,0.2,0.9,0.4
			c0.3,0.2,0.5,0.5,0.7,0.8c0.2,0.3,0.3,0.7,0.3,1.1H302z"/>
		<path fill="#777677" d="M307.8,75c-0.5,0-1-0.1-1.4-0.3c-0.4-0.2-0.8-0.4-1.1-0.7c-0.3-0.3-0.5-0.7-0.7-1.1
			c-0.2-0.4-0.2-0.9-0.2-1.4c0-0.5,0.1-1,0.2-1.4c0.2-0.4,0.4-0.8,0.7-1.1c0.3-0.3,0.6-0.6,1.1-0.7c0.4-0.2,0.9-0.3,1.4-0.3
			s1,0.1,1.4,0.3c0.4,0.2,0.8,0.4,1.1,0.7c0.3,0.3,0.5,0.7,0.7,1.1c0.2,0.4,0.2,0.9,0.2,1.4c0,0.5-0.1,1-0.2,1.4
			c-0.2,0.4-0.4,0.8-0.7,1.1c-0.3,0.3-0.6,0.6-1.1,0.7C308.8,74.9,308.3,75,307.8,75z M307.8,73.8c0.3,0,0.6-0.1,0.9-0.2
			c0.2-0.1,0.4-0.3,0.6-0.5c0.2-0.2,0.3-0.5,0.3-0.8s0.1-0.6,0.1-0.9c0-0.3,0-0.6-0.1-0.9s-0.2-0.5-0.3-0.8
			c-0.2-0.2-0.4-0.4-0.6-0.5c-0.2-0.1-0.5-0.2-0.9-0.2s-0.6,0.1-0.9,0.2s-0.4,0.3-0.6,0.5c-0.2,0.2-0.3,0.5-0.3,0.8
			s-0.1,0.6-0.1,0.9c0,0.3,0,0.6,0.1,0.9s0.2,0.5,0.3,0.8c0.2,0.2,0.4,0.4,0.6,0.5S307.5,73.8,307.8,73.8z"/>
		<path fill="#777677" d="M312.4,68h1.4v1l0,0c0.2-0.4,0.5-0.7,0.9-0.9c0.4-0.2,0.8-0.3,1.2-0.3c0.7,0,1.3,0.2,1.7,0.6
			c0.4,0.4,0.6,1,0.6,1.7v4.6h-1.5v-4.2c0-0.5-0.1-0.9-0.3-1.2c-0.2-0.2-0.5-0.4-1-0.4c-0.2,0-0.5,0-0.7,0.1
			c-0.2,0.1-0.4,0.2-0.5,0.4s-0.2,0.3-0.3,0.6s-0.1,0.4-0.1,0.7v4h-1.5V68z"/>
		<path fill="#777677" d="M326.2,74.8h-1.4v-0.9h0c-0.2,0.4-0.5,0.7-0.9,0.8c-0.4,0.2-0.8,0.3-1.2,0.3c-0.5,0-1-0.1-1.4-0.3
			c-0.4-0.2-0.7-0.4-1-0.8s-0.5-0.7-0.6-1.1c-0.1-0.4-0.2-0.9-0.2-1.4c0-0.6,0.1-1.1,0.2-1.6s0.4-0.8,0.7-1.1
			c0.3-0.3,0.6-0.5,0.9-0.6c0.3-0.1,0.7-0.2,1.1-0.2c0.2,0,0.4,0,0.6,0.1s0.4,0.1,0.6,0.2s0.4,0.2,0.6,0.3c0.2,0.1,0.3,0.3,0.4,0.5
			h0v-3.4h1.5V74.8z M321,71.5c0,0.3,0,0.6,0.1,0.8s0.2,0.5,0.3,0.7s0.3,0.4,0.6,0.5c0.2,0.1,0.5,0.2,0.8,0.2c0.3,0,0.6-0.1,0.9-0.2
			s0.4-0.3,0.6-0.5c0.2-0.2,0.3-0.5,0.3-0.8c0.1-0.3,0.1-0.6,0.1-0.9c0-0.7-0.2-1.3-0.5-1.7s-0.8-0.6-1.4-0.6
			c-0.3,0-0.6,0.1-0.9,0.2c-0.2,0.1-0.4,0.3-0.6,0.6c-0.2,0.2-0.3,0.5-0.3,0.8C321.1,70.9,321,71.2,321,71.5z"/>
		<path fill="#777677" d="M333.5,73.3c0,0.2,0,0.3,0.1,0.4c0,0.1,0.1,0.1,0.3,0.1c0,0,0.1,0,0.2,0s0.1,0,0.2,0v1
			c-0.1,0-0.1,0-0.2,0.1c-0.1,0-0.2,0-0.3,0.1c-0.1,0-0.2,0-0.3,0c-0.1,0-0.2,0-0.2,0c-0.3,0-0.6-0.1-0.8-0.2
			c-0.2-0.1-0.3-0.3-0.4-0.6c-0.3,0.3-0.7,0.5-1.1,0.6s-0.8,0.2-1.2,0.2c-0.3,0-0.6,0-0.9-0.1c-0.3-0.1-0.5-0.2-0.7-0.4
			c-0.2-0.2-0.4-0.4-0.5-0.6c-0.1-0.2-0.2-0.5-0.2-0.9c0-0.4,0.1-0.8,0.2-1c0.2-0.3,0.3-0.5,0.6-0.6c0.2-0.1,0.5-0.3,0.8-0.3
			c0.3-0.1,0.6-0.1,0.9-0.1c0.3-0.1,0.5-0.1,0.8-0.1c0.2,0,0.5-0.1,0.6-0.1c0.2-0.1,0.3-0.1,0.4-0.2c0.1-0.1,0.2-0.3,0.2-0.5
			c0-0.2,0-0.3-0.1-0.5c-0.1-0.1-0.2-0.2-0.3-0.3c-0.1-0.1-0.3-0.1-0.4-0.1c-0.2,0-0.3,0-0.5,0c-0.4,0-0.8,0.1-1,0.3
			c-0.3,0.2-0.4,0.4-0.5,0.8h-1.5c0-0.4,0.1-0.8,0.3-1.1c0.2-0.3,0.4-0.5,0.7-0.7c0.3-0.2,0.6-0.3,1-0.4c0.4-0.1,0.7-0.1,1.1-0.1
			c0.3,0,0.7,0,1,0.1c0.3,0.1,0.6,0.2,0.9,0.3c0.3,0.2,0.5,0.4,0.6,0.6c0.2,0.2,0.2,0.5,0.2,0.9V73.3z M332,71.4
			c-0.2,0.1-0.5,0.2-0.8,0.3c-0.3,0-0.7,0.1-1,0.1c-0.2,0-0.3,0.1-0.5,0.1c-0.1,0-0.3,0.1-0.4,0.2c-0.1,0.1-0.2,0.2-0.3,0.3
			c-0.1,0.1-0.1,0.3-0.1,0.5c0,0.2,0,0.3,0.1,0.4c0.1,0.1,0.2,0.2,0.3,0.3c0.1,0.1,0.3,0.1,0.4,0.1s0.3,0,0.4,0c0.2,0,0.3,0,0.5-0.1
			c0.2,0,0.4-0.1,0.5-0.2c0.2-0.1,0.3-0.2,0.4-0.4c0.1-0.2,0.2-0.4,0.2-0.6V71.4z"/>
		<path fill="#777677" d="M335.1,68h1.4v1.3h0c0-0.2,0.1-0.4,0.3-0.5c0.1-0.2,0.3-0.3,0.5-0.5c0.2-0.1,0.4-0.3,0.6-0.3
			s0.4-0.1,0.7-0.1c0.2,0,0.3,0,0.4,0s0.1,0,0.2,0v1.4c-0.1,0-0.2,0-0.3,0c-0.1,0-0.2,0-0.3,0c-0.3,0-0.5,0-0.7,0.1
			c-0.2,0.1-0.4,0.2-0.6,0.4c-0.2,0.2-0.3,0.4-0.4,0.7c-0.1,0.3-0.1,0.6-0.1,1v3.2h-1.5V68z"/>
		<path fill="#777677" d="M338.9,68h1.6l1.8,5h0l1.7-5h1.5l-2.6,7.1c-0.1,0.3-0.2,0.6-0.4,0.9s-0.3,0.5-0.4,0.7
			c-0.2,0.2-0.4,0.4-0.6,0.5c-0.3,0.1-0.6,0.2-1,0.2c-0.3,0-0.7,0-1-0.1v-1.2c0.1,0,0.2,0,0.4,0.1c0.1,0,0.2,0,0.4,0
			c0.2,0,0.3,0,0.4-0.1c0.1,0,0.2-0.1,0.3-0.2c0.1-0.1,0.1-0.2,0.2-0.3c0.1-0.1,0.1-0.2,0.1-0.4l0.2-0.5L338.9,68z"/>
		<path fill="#777677" d="M350.2,65.5h6.4v1.4h-4.8v2.4h4.2v1.3h-4.2v4.1h-1.6V65.5z"/>
		<path fill="#777677" d="M360.8,75c-0.5,0-1-0.1-1.4-0.3s-0.8-0.4-1.1-0.7c-0.3-0.3-0.5-0.7-0.7-1.1c-0.2-0.4-0.2-0.9-0.2-1.4
			c0-0.5,0.1-1,0.2-1.4c0.2-0.4,0.4-0.8,0.7-1.1c0.3-0.3,0.6-0.6,1.1-0.7s0.9-0.3,1.4-0.3c0.5,0,1,0.1,1.4,0.3s0.8,0.4,1.1,0.7
			c0.3,0.3,0.5,0.7,0.7,1.1c0.2,0.4,0.2,0.9,0.2,1.4c0,0.5-0.1,1-0.2,1.4c-0.2,0.4-0.4,0.8-0.7,1.1c-0.3,0.3-0.6,0.6-1.1,0.7
			S361.3,75,360.8,75z M360.8,73.8c0.3,0,0.6-0.1,0.9-0.2s0.4-0.3,0.6-0.5s0.3-0.5,0.3-0.8c0.1-0.3,0.1-0.6,0.1-0.9
			c0-0.3,0-0.6-0.1-0.9c-0.1-0.3-0.2-0.5-0.3-0.8c-0.2-0.2-0.4-0.4-0.6-0.5s-0.5-0.2-0.9-0.2c-0.3,0-0.6,0.1-0.9,0.2
			s-0.4,0.3-0.6,0.5c-0.2,0.2-0.3,0.5-0.3,0.8c-0.1,0.3-0.1,0.6-0.1,0.9c0,0.3,0,0.6,0.1,0.9c0.1,0.3,0.2,0.5,0.3,0.8
			s0.4,0.4,0.6,0.5S360.5,73.8,360.8,73.8z"/>
		<path fill="#777677" d="M370,70.3c-0.1-0.4-0.2-0.7-0.5-0.9c-0.3-0.2-0.6-0.3-1-0.3c-0.2,0-0.4,0-0.6,0.1
			c-0.2,0.1-0.4,0.2-0.6,0.4c-0.2,0.2-0.3,0.4-0.5,0.7c-0.1,0.3-0.2,0.7-0.2,1.2c0,0.3,0,0.6,0.1,0.8c0.1,0.3,0.2,0.5,0.3,0.7
			c0.1,0.2,0.3,0.4,0.6,0.5c0.2,0.1,0.5,0.2,0.8,0.2c0.4,0,0.8-0.1,1.1-0.4c0.3-0.3,0.5-0.6,0.5-1.1h1.5c-0.1,0.9-0.5,1.5-1,2
			c-0.5,0.5-1.2,0.7-2.1,0.7c-0.5,0-1-0.1-1.4-0.3s-0.7-0.4-1-0.7c-0.3-0.3-0.5-0.7-0.6-1.1c-0.1-0.4-0.2-0.9-0.2-1.4
			c0-0.5,0.1-1,0.2-1.4c0.1-0.4,0.3-0.8,0.6-1.2c0.3-0.3,0.6-0.6,1-0.8s0.9-0.3,1.4-0.3c0.4,0,0.8,0,1.1,0.1s0.7,0.2,0.9,0.4
			c0.3,0.2,0.5,0.5,0.7,0.8c0.2,0.3,0.3,0.7,0.3,1.1H370z"/>
		<path fill="#777677" d="M378.5,74.8h-1.5v-0.9h0c-0.2,0.3-0.5,0.6-0.8,0.8c-0.4,0.2-0.7,0.3-1.1,0.3c-0.9,0-1.5-0.2-1.9-0.7
			s-0.6-1.1-0.6-2V68h1.5v4.1c0,0.6,0.1,1,0.3,1.2c0.2,0.2,0.5,0.4,0.9,0.4c0.3,0,0.6,0,0.8-0.1c0.2-0.1,0.4-0.2,0.5-0.4
			c0.1-0.2,0.2-0.4,0.3-0.6c0.1-0.2,0.1-0.5,0.1-0.7V68h1.5V74.8z"/>
		<path fill="#777677" d="M381.2,72.6c0,0.4,0.2,0.7,0.5,0.9c0.3,0.2,0.6,0.3,1,0.3c0.1,0,0.3,0,0.5,0s0.3-0.1,0.5-0.1
			c0.2-0.1,0.3-0.1,0.4-0.3s0.1-0.3,0.1-0.5c0-0.2-0.1-0.3-0.2-0.5c-0.1-0.1-0.3-0.2-0.5-0.3s-0.4-0.1-0.7-0.2
			c-0.3-0.1-0.5-0.1-0.8-0.2c-0.3-0.1-0.5-0.1-0.8-0.2c-0.3-0.1-0.5-0.2-0.7-0.4c-0.2-0.1-0.4-0.3-0.5-0.6s-0.2-0.5-0.2-0.9
			c0-0.4,0.1-0.7,0.3-0.9c0.2-0.2,0.4-0.4,0.7-0.6c0.3-0.2,0.6-0.3,0.9-0.3c0.3-0.1,0.7-0.1,1-0.1c0.3,0,0.7,0,1,0.1
			s0.6,0.2,0.9,0.4c0.3,0.2,0.5,0.4,0.6,0.6c0.2,0.3,0.3,0.6,0.3,1H384c-0.1-0.4-0.2-0.6-0.5-0.7c-0.3-0.1-0.5-0.2-0.9-0.2
			c-0.1,0-0.2,0-0.4,0c-0.1,0-0.3,0.1-0.4,0.1c-0.1,0-0.2,0.1-0.3,0.2c-0.1,0.1-0.1,0.2-0.1,0.4c0,0.2,0.1,0.3,0.2,0.4
			c0.1,0.1,0.3,0.2,0.5,0.3c0.2,0.1,0.4,0.1,0.7,0.2s0.5,0.1,0.8,0.2c0.3,0.1,0.5,0.1,0.8,0.2s0.5,0.2,0.7,0.4s0.4,0.3,0.5,0.6
			c0.1,0.2,0.2,0.5,0.2,0.8c0,0.4-0.1,0.7-0.3,1s-0.4,0.5-0.7,0.7c-0.3,0.2-0.6,0.3-1,0.4s-0.7,0.1-1.1,0.1c-0.4,0-0.8,0-1.2-0.1
			c-0.4-0.1-0.7-0.2-0.9-0.4c-0.3-0.2-0.5-0.4-0.6-0.7c-0.2-0.3-0.2-0.6-0.2-1H381.2z"/>
	</g>
</g>
<g>
	<g>
		<path fill="#777677" d="M281.1,44.1h4.1c0.7,0,1.2,0.1,1.6,0.3c0.4,0.2,0.7,0.4,1,0.7c0.2,0.3,0.4,0.6,0.5,0.9
			c0.1,0.3,0.1,0.7,0.1,0.9c0,0.3,0,0.6-0.1,0.9c-0.1,0.3-0.2,0.6-0.5,0.9c-0.2,0.3-0.5,0.5-1,0.7s-1,0.3-1.6,0.3h-2.5v3.6h-1.6
			V44.1z M282.7,48.5h2.4c0.2,0,0.4,0,0.6-0.1c0.2-0.1,0.4-0.1,0.5-0.3c0.2-0.1,0.3-0.3,0.4-0.5s0.2-0.4,0.2-0.7
			c0-0.3,0-0.6-0.1-0.8c-0.1-0.2-0.2-0.4-0.4-0.5c-0.1-0.1-0.3-0.2-0.5-0.2c-0.2,0-0.4-0.1-0.6-0.1h-2.4V48.5z"/>
		<path fill="#777677" d="M289.5,46.7h1.4V48h0c0-0.2,0.1-0.4,0.3-0.5s0.3-0.3,0.5-0.5c0.2-0.1,0.4-0.3,0.6-0.3
			c0.2-0.1,0.4-0.1,0.7-0.1c0.2,0,0.3,0,0.4,0c0.1,0,0.1,0,0.2,0v1.4c-0.1,0-0.2,0-0.3,0c-0.1,0-0.2,0-0.3,0c-0.3,0-0.5,0.1-0.7,0.1
			c-0.2,0.1-0.4,0.2-0.6,0.4c-0.2,0.2-0.3,0.4-0.4,0.7c-0.1,0.3-0.1,0.6-0.1,1v3.2h-1.5V46.7z"/>
		<path fill="#777677" d="M294.1,44.1h1.5v1.4h-1.5V44.1z M294.1,46.7h1.5v6.7h-1.5V46.7z"/>
		<path fill="#777677" d="M297.2,46.7h1.4v0.9h0c0.1-0.2,0.2-0.3,0.4-0.5c0.1-0.1,0.3-0.3,0.4-0.4s0.3-0.2,0.6-0.2
			c0.2-0.1,0.4-0.1,0.7-0.1c0.4,0,0.8,0.1,1.1,0.3s0.6,0.5,0.7,0.8c0.2-0.3,0.5-0.6,0.9-0.8c0.3-0.2,0.7-0.3,1.2-0.3
			c0.7,0,1.3,0.2,1.7,0.5c0.4,0.3,0.6,0.9,0.6,1.7v4.6h-1.5v-3.9c0-0.3,0-0.5,0-0.7c0-0.2-0.1-0.4-0.2-0.6s-0.2-0.3-0.4-0.4
			c-0.2-0.1-0.4-0.1-0.7-0.1c-0.5,0-0.9,0.2-1.1,0.5s-0.3,0.8-0.3,1.3v3.9h-1.5v-4.3c0-0.5-0.1-0.8-0.3-1.1
			c-0.2-0.2-0.5-0.4-0.9-0.4c-0.2,0-0.4,0-0.6,0.1c-0.2,0.1-0.3,0.2-0.5,0.3s-0.2,0.3-0.3,0.5c-0.1,0.2-0.1,0.5-0.1,0.7v4h-1.5V46.7
			z"/>
		<path fill="#777677" d="M314.2,51.9c0,0.2,0,0.3,0.1,0.4c0,0.1,0.1,0.1,0.3,0.1c0,0,0.1,0,0.2,0s0.1,0,0.2,0v1
			c-0.1,0-0.1,0-0.2,0.1c-0.1,0-0.2,0-0.3,0.1c-0.1,0-0.2,0-0.3,0c-0.1,0-0.2,0-0.2,0c-0.3,0-0.6-0.1-0.8-0.2s-0.3-0.3-0.4-0.6
			c-0.3,0.3-0.7,0.5-1.1,0.6c-0.4,0.1-0.8,0.2-1.2,0.2c-0.3,0-0.6,0-0.9-0.1c-0.3-0.1-0.5-0.2-0.7-0.4c-0.2-0.2-0.4-0.4-0.5-0.6
			c-0.1-0.2-0.2-0.5-0.2-0.9c0-0.4,0.1-0.8,0.2-1c0.2-0.3,0.4-0.5,0.6-0.6c0.2-0.1,0.5-0.3,0.8-0.3c0.3-0.1,0.6-0.1,0.9-0.1
			c0.3-0.1,0.5-0.1,0.8-0.1s0.5-0.1,0.6-0.1c0.2-0.1,0.3-0.1,0.4-0.2c0.1-0.1,0.2-0.3,0.2-0.5c0-0.2,0-0.3-0.1-0.5
			c-0.1-0.1-0.2-0.2-0.3-0.3c-0.1-0.1-0.3-0.1-0.4-0.1c-0.2,0-0.3,0-0.5,0c-0.4,0-0.8,0.1-1,0.3c-0.3,0.2-0.4,0.4-0.5,0.8h-1.5
			c0-0.4,0.1-0.8,0.3-1.1c0.2-0.3,0.4-0.5,0.7-0.7c0.3-0.2,0.6-0.3,1-0.4s0.7-0.1,1.1-0.1c0.3,0,0.7,0,1,0.1
			c0.3,0.1,0.6,0.2,0.9,0.3s0.5,0.4,0.6,0.6s0.2,0.5,0.2,0.9V51.9z M312.7,50c-0.2,0.1-0.5,0.2-0.8,0.3c-0.3,0-0.7,0.1-1,0.1
			c-0.2,0-0.3,0.1-0.5,0.1c-0.1,0-0.3,0.1-0.4,0.2c-0.1,0.1-0.2,0.2-0.3,0.3c-0.1,0.1-0.1,0.3-0.1,0.5c0,0.2,0,0.3,0.1,0.4
			c0.1,0.1,0.2,0.2,0.3,0.3s0.3,0.1,0.4,0.1c0.2,0,0.3,0,0.4,0c0.2,0,0.3,0,0.5-0.1c0.2,0,0.4-0.1,0.5-0.2c0.2-0.1,0.3-0.2,0.4-0.4
			c0.1-0.2,0.2-0.4,0.2-0.6V50z"/>
		<path fill="#777677" d="M315.8,46.7h1.4V48h0c0-0.2,0.1-0.4,0.3-0.5c0.1-0.2,0.3-0.3,0.5-0.5c0.2-0.1,0.4-0.3,0.6-0.3
			c0.2-0.1,0.4-0.1,0.7-0.1c0.2,0,0.3,0,0.4,0c0.1,0,0.1,0,0.2,0v1.4c-0.1,0-0.2,0-0.3,0c-0.1,0-0.2,0-0.3,0c-0.3,0-0.5,0.1-0.7,0.1
			c-0.2,0.1-0.4,0.2-0.6,0.4c-0.2,0.2-0.3,0.4-0.4,0.7s-0.1,0.6-0.1,1v3.2h-1.5V46.7z"/>
		<path fill="#777677" d="M319.6,46.7h1.6l1.8,5h0l1.7-5h1.5l-2.6,7.1c-0.1,0.3-0.2,0.6-0.4,0.9s-0.3,0.5-0.4,0.7
			c-0.2,0.2-0.4,0.4-0.6,0.5c-0.3,0.1-0.6,0.2-1,0.2c-0.3,0-0.7,0-1-0.1v-1.2c0.1,0,0.2,0,0.4,0.1c0.1,0,0.2,0,0.4,0
			c0.2,0,0.3,0,0.4-0.1c0.1,0,0.2-0.1,0.3-0.2c0.1-0.1,0.1-0.2,0.2-0.3c0.1-0.1,0.1-0.2,0.1-0.4l0.2-0.5L319.6,46.7z"/>
		<path fill="#777677" d="M330.9,44.1h6.4v1.4h-4.8v2.4h4.2v1.3h-4.2v4.1h-1.6V44.1z"/>
		<path fill="#777677" d="M341.5,53.6c-0.5,0-1-0.1-1.4-0.3c-0.4-0.2-0.8-0.4-1.1-0.7c-0.3-0.3-0.5-0.7-0.7-1.1
			c-0.2-0.4-0.2-0.9-0.2-1.4c0-0.5,0.1-1,0.2-1.4c0.2-0.4,0.4-0.8,0.7-1.1c0.3-0.3,0.6-0.6,1.1-0.7c0.4-0.2,0.9-0.3,1.4-0.3
			s1,0.1,1.4,0.3c0.4,0.2,0.8,0.4,1.1,0.7c0.3,0.3,0.5,0.7,0.7,1.1c0.2,0.4,0.2,0.9,0.2,1.4c0,0.5-0.1,1-0.2,1.4
			c-0.2,0.4-0.4,0.8-0.7,1.1c-0.3,0.3-0.6,0.6-1.1,0.7C342.5,53.5,342,53.6,341.5,53.6z M341.5,52.4c0.3,0,0.6-0.1,0.9-0.2
			c0.2-0.1,0.4-0.3,0.6-0.5c0.2-0.2,0.3-0.5,0.3-0.8s0.1-0.6,0.1-0.9c0-0.3,0-0.6-0.1-0.9s-0.2-0.5-0.3-0.8
			c-0.2-0.2-0.4-0.4-0.6-0.5c-0.2-0.1-0.5-0.2-0.9-0.2s-0.6,0.1-0.9,0.2s-0.4,0.3-0.6,0.5c-0.2,0.2-0.3,0.5-0.3,0.8
			s-0.1,0.6-0.1,0.9c0,0.3,0,0.6,0.1,0.9s0.2,0.5,0.3,0.8c0.2,0.2,0.4,0.4,0.6,0.5S341.2,52.4,341.5,52.4z"/>
		<path fill="#777677" d="M350.7,48.9c-0.1-0.4-0.2-0.7-0.5-0.9c-0.3-0.2-0.6-0.3-1-0.3c-0.2,0-0.4,0-0.6,0.1
			c-0.2,0.1-0.4,0.2-0.6,0.4c-0.2,0.2-0.3,0.4-0.5,0.7c-0.1,0.3-0.2,0.7-0.2,1.2c0,0.3,0,0.6,0.1,0.8s0.2,0.5,0.3,0.7
			c0.1,0.2,0.3,0.4,0.6,0.5c0.2,0.1,0.5,0.2,0.8,0.2c0.4,0,0.8-0.1,1.1-0.4s0.5-0.6,0.5-1.1h1.5c-0.1,0.9-0.5,1.5-1,2
			c-0.5,0.5-1.2,0.7-2.1,0.7c-0.5,0-1-0.1-1.4-0.3c-0.4-0.2-0.7-0.4-1-0.7s-0.5-0.7-0.6-1.1c-0.1-0.4-0.2-0.9-0.2-1.4
			c0-0.5,0.1-1,0.2-1.4s0.3-0.8,0.6-1.2c0.3-0.3,0.6-0.6,1-0.8c0.4-0.2,0.9-0.3,1.4-0.3c0.4,0,0.8,0,1.1,0.1
			c0.3,0.1,0.7,0.2,0.9,0.4c0.3,0.2,0.5,0.5,0.7,0.8c0.2,0.3,0.3,0.7,0.3,1.1H350.7z"/>
		<path fill="#777677" d="M359.2,53.4h-1.5v-0.9h0c-0.2,0.3-0.5,0.6-0.8,0.8s-0.7,0.3-1.1,0.3c-0.9,0-1.5-0.2-1.9-0.7
			c-0.4-0.4-0.6-1.1-0.6-2v-4.3h1.5v4.1c0,0.6,0.1,1,0.3,1.2c0.2,0.2,0.5,0.4,0.9,0.4c0.3,0,0.6,0,0.8-0.1c0.2-0.1,0.4-0.2,0.5-0.4
			c0.1-0.2,0.2-0.4,0.3-0.6c0.1-0.2,0.1-0.5,0.1-0.7v-3.9h1.5V53.4z"/>
		<path fill="#777677" d="M361.9,51.2c0,0.4,0.2,0.7,0.5,0.9s0.6,0.3,1,0.3c0.1,0,0.3,0,0.5,0c0.2,0,0.3-0.1,0.5-0.1
			s0.3-0.1,0.4-0.3c0.1-0.1,0.1-0.3,0.1-0.5c0-0.2-0.1-0.3-0.2-0.5c-0.1-0.1-0.3-0.2-0.5-0.3c-0.2-0.1-0.4-0.1-0.7-0.2
			c-0.3-0.1-0.5-0.1-0.8-0.2c-0.3-0.1-0.5-0.1-0.8-0.2s-0.5-0.2-0.7-0.4s-0.4-0.3-0.5-0.6c-0.1-0.2-0.2-0.5-0.2-0.9
			c0-0.4,0.1-0.7,0.3-0.9s0.4-0.4,0.7-0.6c0.3-0.2,0.6-0.3,0.9-0.3s0.7-0.1,1-0.1c0.3,0,0.7,0,1,0.1s0.6,0.2,0.9,0.4
			c0.3,0.2,0.5,0.4,0.6,0.6c0.2,0.3,0.3,0.6,0.3,1h-1.5c-0.1-0.4-0.2-0.6-0.5-0.7c-0.3-0.1-0.5-0.2-0.9-0.2c-0.1,0-0.2,0-0.4,0
			c-0.1,0-0.3,0.1-0.4,0.1c-0.1,0-0.2,0.1-0.3,0.2c-0.1,0.1-0.1,0.2-0.1,0.4c0,0.2,0.1,0.3,0.2,0.4c0.1,0.1,0.3,0.2,0.5,0.3
			c0.2,0.1,0.4,0.1,0.7,0.2c0.3,0.1,0.5,0.1,0.8,0.2c0.3,0.1,0.5,0.1,0.8,0.2c0.3,0.1,0.5,0.2,0.7,0.4c0.2,0.1,0.4,0.3,0.5,0.6
			c0.1,0.2,0.2,0.5,0.2,0.8c0,0.4-0.1,0.7-0.3,1s-0.4,0.5-0.7,0.7c-0.3,0.2-0.6,0.3-1,0.4c-0.4,0.1-0.7,0.1-1.1,0.1
			c-0.4,0-0.8,0-1.2-0.1s-0.7-0.2-0.9-0.4c-0.3-0.2-0.5-0.4-0.6-0.7c-0.2-0.3-0.2-0.6-0.2-1H361.9z"/>
	</g>
</g>
<g>
	<line fill="#777677" x1="114" y1="51" x2="276" y2="51"/>
	<rect x="114" y="50" fill="#9855D4" width="162" height="1"/>
</g>
<g>
	<line fill="#777677" x1="200" y1="71" x2="277" y2="71"/>
	<rect x="200" y="70" fill="#9855D4" width="77" height="1"/>
</g>
<rect x="1.6" y="0.9" fill="#C7C7C7" width="226.4" height="10.5"/>
</svg>
