<?xml version="1.0" encoding="utf-8"?>
<!-- Generator: Adobe Illustrator 18.0.0, SVG Export Plug-In . SVG Version: 6.00 Build 0)  -->
<!DOCTYPE svg PUBLIC "-//W3C//DTD SVG 1.1//EN" "http://www.w3.org/Graphics/SVG/1.1/DTD/svg11.dtd">
<svg version="1.1" id="Layer_1" xmlns="http://www.w3.org/2000/svg" xmlns:xlink="http://www.w3.org/1999/xlink" x="0px" y="0px"
	 viewBox="0 0 397 91" width="397" height="91" enable-background="new 0 0 397 91" xml:space="preserve">
<g>
	<g>
		<path fill="#9855D4" d="M252.2,81.1V64.6V0H125.4v64.6v16.5H252.2z M130,4.5h117.7v58.4H130V4.5z"/>
	</g>
	<g>
		<rect x="164.1" y="84.9" fill="#9855D4" width="47.8" height="6.1"/>
	</g>
</g>
<g>
	<path fill="#9855D4" d="M0,53.8V59V86V91h22.3V86V59v-5.2H0z M20.3,58.9v28.9H2.1V58.9H20.3z"/>
	<rect x="8.4" y="55.4" fill="#FFFFFF" width="4.9" height="1.2"/>
</g>
<path fill="#9855D4" d="M340.3,61.3h7.9h41.1h7.5V91h-7.5h-41.1h-7.9V61.3z M348.8,88.2h42.6V65h-42.6V88.2z M346.6,80.5v-6.1h-2.1
	v6.1H346.6z"/>
<path fill="#9855D4" d="M323.4,91V85V27.4v-5.7h-54.5v5.7V85V91H323.4z M271.7,77.7V27.3h48.8v50.4H271.7z M299,84.7
	c0,1.5-1.3,2.7-2.9,2.7c-1.6,0-2.9-1.2-2.9-2.7c0-1.5,1.3-2.7,2.9-2.7C297.7,82,299,83.2,299,84.7z"/>
<g>
	<path fill="#9855D4" d="M109.4,39.4h-6h-58h-5.8V91h5.8h58h6V39.4z M98.7,88H42.9v-46h55.8V88z M103.3,62.2c1.4,0,2.6,1.1,2.6,2.5
		c0,1.4-1.2,2.5-2.6,2.5s-2.6-1.1-2.6-2.5C100.7,63.4,101.8,62.2,103.3,62.2z"/>
</g>
</svg>
