<?xml version="1.0" encoding="utf-8"?>
<!-- Generator: Adobe Illustrator 18.0.0, SVG Export Plug-In . SVG Version: 6.00 Build 0)  -->
<!DOCTYPE svg PUBLIC "-//W3C//DTD SVG 1.1//EN" "http://www.w3.org/Graphics/SVG/1.1/DTD/svg11.dtd">
<svg version="1.1" id="Layer_1" xmlns="http://www.w3.org/2000/svg" xmlns:xlink="http://www.w3.org/1999/xlink" x="0px" y="0px"
	 viewBox="0 0 227 155" width="227" height="155" enable-background="new 0 0 227 155" xml:space="preserve">
<rect x="0" y="0.7" fill="#F4F4F4" width="226.8" height="153.8"/>
<rect x="4.9" y="14.9" fill="#E0E0E0" width="37.6" height="5.7"/>
<rect x="4.9" y="31.1" fill="#E0E0E0" width="37.6" height="5.7"/>
<rect x="4.9" y="39.2" fill="#E0E0E0" width="37.6" height="5.7"/>
<rect x="50.1" y="14.7" fill="#E0E0E0" width="66.8" height="29.9"/>
<rect x="121.2" y="15.3" fill="#C7C7C7" width="49.7" height="2.7"/>
<rect x="121.2" y="20.8" fill="#C7C7C7" width="49.8" height="2.7"/>
<rect x="0.2" y="-1.8" fill="#C7C7C7" width="227.1" height="9.4"/>
<rect x="48.7" y="95.6" fill="#E0E0E0" width="32.9" height="19.7"/>
<rect x="49.4" y="51.9" fill="#E0E0E0" width="32.9" height="19.7"/>
<rect x="121.2" y="49.3" fill="#E0E0E0" width="32.9" height="19.7"/>
<rect x="48.9" y="119.2" fill="#C7C7C7" width="31" height="2.7"/>
<rect x="48.9" y="124.7" fill="#C7C7C7" width="31.1" height="2.7"/>
<g>
	<rect x="180.5" y="13.2" fill="#C7C7C7" width="42.7" height="2.5"/>
	<rect x="180.5" y="18.4" fill="#C7C7C7" width="40.8" height="2.5"/>
</g>
<g>
	<rect x="180.5" y="35" fill="#C7C7C7" width="42.7" height="2.5"/>
	<rect x="180.5" y="40.3" fill="#C7C7C7" width="40.8" height="2.5"/>
</g>
<g>
	<rect x="180.5" y="56.9" fill="#C7C7C7" width="42.7" height="2.5"/>
	<rect x="180.5" y="62.1" fill="#C7C7C7" width="40.8" height="2.5"/>
</g>
<g>
	<rect x="180.5" y="78.7" fill="#C7C7C7" width="42.7" height="2.5"/>
	<rect x="180.5" y="84" fill="#C7C7C7" width="40.8" height="2.5"/>
</g>
<g>
	<rect x="180.5" y="100.6" fill="#C7C7C7" width="42.7" height="2.5"/>
	<rect x="180.5" y="105.8" fill="#C7C7C7" width="40.8" height="2.5"/>
</g>
<rect x="48.3" y="12.7" opacity="0.25" fill="#BA8FF7" width="126.4" height="33.9"/>
<rect x="48.3" y="49.4" opacity="0.25" fill="#BA8FF7" width="35.6" height="25.7"/>
<rect x="118.9" y="47.7" opacity="0.25" fill="#BA8FF7" width="37.2" height="25.7"/>
<rect x="46.9" y="93.4" opacity="0.25" fill="#BA8FF7" width="36.6" height="37.8"/>
<rect x="4.9" y="22.9" fill="#E0E0E0" width="37.6" height="5.7"/>
</svg>
