<?xml version="1.0" encoding="utf-8"?>
<!-- Generator: Adobe Illustrator 18.0.0, SVG Export Plug-In . SVG Version: 6.00 Build 0)  -->
<!DOCTYPE svg PUBLIC "-//W3C//DTD SVG 1.1//EN" "http://www.w3.org/Graphics/SVG/1.1/DTD/svg11.dtd">
<svg version="1.1" id="Layer_1" xmlns="http://www.w3.org/2000/svg" xmlns:xlink="http://www.w3.org/1999/xlink" x="0px" y="0px"
	 viewBox="0 0 308 209" width="308" height="209" enable-background="new 0 0 308 209" xml:space="preserve">
<rect x="0.9" y="0.9" fill="#F4F4F4" width="307.4" height="208"/>
<rect x="0.9" y="-0.1" fill="#C7C7C7" width="307.9" height="19.4"/>
<rect x="0.9" y="-0.1" fill="#AEAEAE" width="19.1" height="19.1"/>
<rect x="35.3" y="116.1" fill="#FFFFFF" width="187.5" height="87.2"/>
<rect x="35.8" y="26.3" fill="#FFFFFF" width="187.5" height="83.9"/>
<rect x="46.9" y="91.4" fill="#C7C7C7" width="157" height="4.2"/>
<rect x="47" y="43.9" fill="#E0E0E0" width="58.3" height="40.7"/>
<g>
	<path fill="#FFFFFF" d="M10.6,11.1c1.9,0,3.4-1.5,3.4-3.4s-1.5-3.4-3.4-3.4S7.2,5.8,7.2,7.7S8.7,11.1,10.6,11.1z M10.6,4.9
		c1.5,0,2.7,1.2,2.7,2.7s-1.2,2.7-2.7,2.7S7.9,9.2,7.9,7.7S9.1,4.9,10.6,4.9z"/>
	<path fill="#FFFFFF" d="M13.4,11.8H7.9c-0.8,0-1.4,0.6-1.4,1.4v1.4h8.2v-1.4C14.8,12.4,14.1,11.8,13.4,11.8z"/>
</g>
<rect x="112.2" y="43.9" fill="#E0E0E0" width="58.3" height="40.7"/>
<rect x="47" y="33.8" fill="#C7C7C7" width="28" height="4.2"/>
<rect x="178.5" y="35.2" fill="#C7C7C7" width="19" height="4.2"/>
<rect x="46.3" y="185.8" fill="#C7C7C7" width="157" height="4.2"/>
<rect x="46.3" y="130.4" fill="#E0E0E0" width="71.8" height="50.2"/>
<rect x="126.6" y="130.4" fill="#E0E0E0" width="71.8" height="50.2"/>
<rect x="46.3" y="120.3" fill="#C7C7C7" width="28" height="4.2"/>
<rect x="178.5" y="121.7" fill="#C7C7C7" width="19" height="4.2"/>
<g>
	<polygon fill="#CBCBCB" points="212.7,73.1 212,72.4 214.4,70 212,67.5 212.8,66.9 215.8,70 	"/>
</g>
<g>
	<polygon fill="#CBCBCB" points="212.7,159.3 212,158.6 214.4,156.2 212,153.8 212.8,153.1 215.8,156.3 	"/>
</g>
<rect x="232.3" y="117.3" fill="#C7C7C7" width="30.1" height="4.7"/>
<rect x="228.1" y="26.7" fill="#E0E0E0" width="53.3" height="12.2"/>
<rect x="227.9" y="42.2" fill="#E0E0E0" width="53.3" height="12.2"/>
<rect x="227.9" y="58.6" fill="#E0E0E0" width="53.3" height="12.2"/>
<circle fill="#9855D4" cx="47.8" cy="34" r="5.7"/>
<circle fill="#9855D4" cx="232.8" cy="33" r="5.7"/>
<circle fill="#9855D4" cx="47.6" cy="121.6" r="5.7"/>
<circle fill="#9855D4" cx="227.6" cy="121.6" r="5.7"/>
<g>
	<polygon fill="#9855D4" points="46.2,124 45.4,122.1 226.5,35 45,35 45,33 235.3,33 	"/>
</g>
<line fill="#9855D4" stroke="#9855D4" stroke-width="2" stroke-miterlimit="10" x1="44" y1="121" x2="230" y2="121"/>
</svg>
