<?xml version="1.0" encoding="utf-8"?>
<!-- Generator: Adobe Illustrator 18.0.0, SVG Export Plug-In . SVG Version: 6.00 Build 0)  -->
<!DOCTYPE svg PUBLIC "-//W3C//DTD SVG 1.1//EN" "http://www.w3.org/Graphics/SVG/1.1/DTD/svg11.dtd">
<svg version="1.1" id="Layer_1" xmlns="http://www.w3.org/2000/svg" xmlns:xlink="http://www.w3.org/1999/xlink" x="0px" y="0px"
	 viewBox="0 0 193 131" width="193" height="131" enable-background="new 0 0 193 131" xml:space="preserve">
<rect x="0.3" y="-0.3" fill="#F4F4F4" width="193.5" height="130.9"/>
<rect x="0.3" y="-0.6" fill="#C7C7C7" width="193.5" height="13.5"/>
<rect x="19.1" y="26.1" fill="#AEAEAE" width="36.8" height="4.1"/>
<rect x="19.1" y="37.4" fill="#C7C7C7" width="44.4" height="11.9"/>
<rect x="68.2" y="37.4" fill="#C7C7C7" width="14.7" height="2.6"/>
<rect x="108.3" y="37.4" fill="#C7C7C7" width="44.4" height="11.9"/>
<rect x="156.8" y="38.2" fill="#C7C7C7" width="14.7" height="2.6"/>
<rect x="19.1" y="61.1" fill="#C7C7C7" width="42.6" height="26.1"/>
<rect x="19.1" y="90.9" fill="#C7C7C7" width="42.6" height="2.6"/>
<rect x="108.3" y="57" fill="#C7C7C7" width="44.4" height="11.9"/>
<rect x="156.8" y="57.8" fill="#C7C7C7" width="14.7" height="2.6"/>
<rect x="108.3" y="96.2" fill="#C7C7C7" width="44.4" height="11.9"/>
<rect x="156.8" y="97" fill="#C7C7C7" width="14.7" height="2.6"/>
<g>
	<path fill="#9855D4" d="M148.4,107.6c-4.5,0-9.6-1.4-14.5-5.7C121.4,91,140,68.7,150,56.8c2.3-2.7,4.1-4.9,4.7-5.9
		c1.6-2.8,1.3-5.3,0.8-7c-0.6-2.1-2-3.9-3.4-4.6c-0.3-0.1-0.5-0.3-0.8-0.4c-3-1.6-7.5-4-15.4-1.4l-0.2,0
		c-6.9,0.8-34.6,22.2-74.2,57.4c-0.7,0.6-1.1,1-1.2,1c-1.4,1.2-15.9,9.1-24.8,1C26.9,89,33,79.2,33.6,78.2
		c5.1-10.5,17.3-39,12.7-46.2C40.9,23.4,25.1,28,25,28.1L24.4,26c0.7-0.2,17.5-5.1,23.8,4.8c2.7,4.2,1.3,13.6-4,28.1
		c-3.9,10.6-8.5,20.2-8.6,20.3l-0.1,0.1c-0.3,0.4-6.1,9,1.4,15.9c7.6,7,20.7,0,21.9-1c0.1-0.1,0.5-0.4,1.1-1
		c23.7-21.1,64.9-56.5,75.3-57.9c8.8-2.8,14-0.1,17,1.6c0.3,0.1,0.5,0.3,0.8,0.4c2,1,3.7,3.3,4.5,5.9c0.6,2.1,0.9,5.2-1,8.7
		c-0.7,1.2-2.4,3.3-4.9,6.3c-8.8,10.6-27.2,32.6-16.3,42c5.8,5,12.3,6.4,19.5,4.2c5.4-1.7,9.1-4.8,9.1-4.9l1.4,1.6
		C165.3,101.3,157.9,107.6,148.4,107.6z"/>
</g>
</svg>
