<?xml version="1.0" encoding="utf-8"?>
<!-- Generator: Adobe Illustrator 18.0.0, SVG Export Plug-In . SVG Version: 6.00 Build 0)  -->
<!DOCTYPE svg PUBLIC "-//W3C//DTD SVG 1.1//EN" "http://www.w3.org/Graphics/SVG/1.1/DTD/svg11.dtd">
<svg version="1.1" id="Layer_1" xmlns="http://www.w3.org/2000/svg" xmlns:xlink="http://www.w3.org/1999/xlink" x="0px" y="0px"
	 viewBox="0 0 223 150" width="223" height="150" enable-background="new 0 0 223 150" xml:space="preserve">
<g>
	<rect x="0.2" fill="#F4F4F4" width="221.7" height="150"/>
	<rect x="6.6" y="6.7" opacity="0.25" fill="#BA8FF7" width="37.1" height="29.5"/>
	<rect x="49.3" y="6.7" opacity="0.25" fill="#BA8FF7" width="37.1" height="29.5"/>
	<rect x="92.1" y="6.7" opacity="0.25" fill="#BA8FF7" width="37.1" height="29.5"/>
	<rect x="134.9" y="6.7" opacity="0.25" fill="#BA8FF7" width="37.1" height="29.5"/>
	<rect x="177.7" y="6.7" opacity="0.25" fill="#BA8FF7" width="37.1" height="29.5"/>
	<rect x="6.6" y="42.8" opacity="0.25" fill="#BA8FF7" width="37.1" height="29.5"/>
	<rect x="49.3" y="42.8" opacity="0.25" fill="#BA8FF7" width="37.1" height="29.5"/>
	<rect x="92.1" y="42.8" opacity="0.25" fill="#BA8FF7" width="37.1" height="29.5"/>
	<rect x="134.9" y="42.8" opacity="0.25" fill="#BA8FF7" width="37.1" height="29.5"/>
	<rect x="177.7" y="42.8" opacity="0.25" fill="#BA8FF7" width="37.1" height="29.5"/>
	<rect x="6.6" y="78.2" opacity="0.25" fill="#BA8FF7" width="37.1" height="29.5"/>
	<rect x="49.3" y="78.2" opacity="0.25" fill="#BA8FF7" width="37.1" height="29.5"/>
	<rect x="92.1" y="78.2" opacity="0.25" fill="#BA8FF7" width="37.1" height="29.5"/>
	<rect x="134.9" y="78.2" opacity="0.25" fill="#BA8FF7" width="37.1" height="29.5"/>
	<rect x="177.7" y="78.2" opacity="0.25" fill="#BA8FF7" width="37.1" height="29.5"/>
	<rect x="6.6" y="114.3" opacity="0.25" fill="#BA8FF7" width="37.1" height="29.5"/>
	<rect x="49.3" y="114.3" opacity="0.25" fill="#BA8FF7" width="37.1" height="29.5"/>
	<rect x="92.1" y="114.3" opacity="0.25" fill="#BA8FF7" width="37.1" height="29.5"/>
	<rect x="134.9" y="114.3" opacity="0.25" fill="#BA8FF7" width="37.1" height="29.5"/>
	<rect x="177.7" y="114.3" opacity="0.25" fill="#BA8FF7" width="37.1" height="29.5"/>
</g>
</svg>
