<?xml version="1.0" encoding="utf-8"?>
<!-- Generator: Adobe Illustrator 17.1.0, SVG Export Plug-In . SVG Version: 6.00 Build 0)  -->
<!DOCTYPE svg PUBLIC "-//W3C//DTD SVG 1.1//EN" "http://www.w3.org/Graphics/SVG/1.1/DTD/svg11.dtd">
<svg version="1.1" id="Layer_1" xmlns="http://www.w3.org/2000/svg" xmlns:xlink="http://www.w3.org/1999/xlink" x="0px" y="0px"
	 viewBox="0 0 216 216" width="216" height="216" enable-background="new 0 0 216 216" xml:space="preserve">
<path fill="none" stroke="#BA8FF7" stroke-width="3" stroke-miterlimit="10" d="M20.5,25.118"/>
<g opacity="0.5">
	<polygon fill="#734098" points="0,105.894 89.777,16.118 35.845,16.118 35.845,0.118 116.845,0.118 116.845,83.118 100.845,83.118
		100.845,27.666 0,128.511 	"/>
</g>
<circle fill="#734098" cx="107.398" cy="109.72" r="13.602"/>
<polygon fill="#734098" points="0.311,216.118 0.311,204.739 188.932,16.118 135,16.118 135,0.118 216,0.118 216,83.118 200,83.118
	200,27.666 11.548,216.118 "/>
<g opacity="0.5">
	<polygon fill="#734098" points="89.967,216.118 188.932,117.153 135,117.153 135,101.153 216,101.153 216,184.153 200,184.153
		200,128.701 112.583,216.118 	"/>
</g>
<g>
	<path fill="#FFFFFF" d="M107.569,82.22c-15.231,0-27.58,12.34-27.58,27.58s12.349,27.58,27.58,27.58
		c15.24,0,27.58-12.34,27.58-27.58S122.808,82.22,107.569,82.22z M107.569,118.993c-5.081,0-9.193-4.114-9.193-9.193
		c0-5.079,4.112-9.193,9.193-9.193s9.193,4.114,9.193,9.193C116.762,114.879,112.65,118.993,107.569,118.993z"/>
	<path fill="#FFFFFF" d="M107.569,68.43c-30.937,0-54.486,16.663-68.949,41.37c14.463,24.707,38.012,41.37,68.949,41.37
		s54.486-16.663,68.949-41.37C162.055,85.093,138.506,68.43,107.569,68.43z M107.569,146.573c-26.302,0-48.783-13.032-63.579-36.773
		c14.796-23.741,37.278-36.773,63.579-36.773s48.783,13.032,63.579,36.773C156.352,133.54,133.87,146.573,107.569,146.573z"/>
</g>
</svg>
