<?xml version="1.0" encoding="utf-8"?>
<!-- Generator: Adobe Illustrator 18.0.0, SVG Export Plug-In . SVG Version: 6.00 Build 0)  -->
<!DOCTYPE svg PUBLIC "-//W3C//DTD SVG 1.1//EN" "http://www.w3.org/Graphics/SVG/1.1/DTD/svg11.dtd">
<svg version="1.1" id="Layer_1" xmlns="http://www.w3.org/2000/svg" xmlns:xlink="http://www.w3.org/1999/xlink" x="0px" y="0px"
	 viewBox="0 0 228 155" width="228" height="155" enable-background="new 0 0 228 155" xml:space="preserve">
<rect y="0.4" fill="#ECECEC" width="228.6" height="156.4"/>
<rect x="0" fill="#C7C7C7" width="228.6" height="14.3"/>
<rect x="0.2" fill="#AEAEAE" width="32.8" height="14.1"/>
<rect x="0.4" y="27.6" fill="#E0E0E0" width="32.8" height="3.5"/>
<rect x="0.4" y="32.8" fill="#E0E0E0" width="32.8" height="3.5"/>
<rect x="0.4" y="22.5" fill="#E0E0E0" width="32.8" height="3.5"/>
<rect x="43.8" y="37.1" fill="#C7C7C7" width="91.8" height="49.1"/>
<rect x="43.8" y="92.2" fill="#C7C7C7" width="51.5" height="3"/>
<rect x="43.8" y="98.5" fill="#C7C7C7" width="49.2" height="3"/>
<rect x="167.6" y="56.5" fill="#C7C7C7" width="48.5" height="30.5"/>
<rect x="142.7" y="72.5" fill="#C7C7C7" width="22" height="13.8"/>
<rect x="142.7" y="92.2" fill="#C7C7C7" width="73" height="3"/>
<rect x="142.7" y="98.5" fill="#C7C7C7" width="72.2" height="3"/>
<rect x="142.7" y="104.9" fill="#C7C7C7" width="35" height="3"/>
<rect x="43.8" y="106.5" fill="#AEAEAE" width="30.8" height="6.2"/>
<rect x="143" y="0.4" opacity="0.25" fill="#BA8FF7" width="78.8" height="153.4"/>
<rect x="43.7" y="0.4" opacity="0.25" fill="#BA8FF7" width="93" height="153.4"/>
<rect x="5.5" y="0.4" opacity="0.25" fill="#BA8FF7" width="32.5" height="153.4"/>
</svg>
