<?xml version="1.0" encoding="utf-8"?>
<!-- Generator: Adobe Illustrator 18.0.0, SVG Export Plug-In . SVG Version: 6.00 Build 0)  -->
<!DOCTYPE svg PUBLIC "-//W3C//DTD SVG 1.1//EN" "http://www.w3.org/Graphics/SVG/1.1/DTD/svg11.dtd">
<svg version="1.1" id="Layer_1" xmlns="http://www.w3.org/2000/svg" xmlns:xlink="http://www.w3.org/1999/xlink" x="0px" y="0px"
	 viewBox="0 0 193 131" width="193" height="131" enable-background="new 0 0 193 131" xml:space="preserve">
<rect x="0.7" y="0.3" fill="#F4F4F4" width="192" height="129.9"/>
<rect x="-0.5" y="0" fill="#C7C7C7" width="193.3" height="13.2"/>
<rect x="28.9" y="41.8" fill="#C7C7C7" width="40.6" height="25.9"/>
<rect x="28.5" y="75.4" fill="#C7C7C7" width="40.6" height="2.5"/>
<rect x="28.5" y="80.7" fill="#C7C7C7" width="40.2" height="2.5"/>
<rect x="77.3" y="75.4" fill="#C7C7C7" width="41.5" height="2.5"/>
<rect x="77.3" y="80.7" fill="#C7C7C7" width="31.1" height="2.5"/>
<rect x="125.4" y="41.6" fill="#C7C7C7" width="39.9" height="25.9"/>
<rect x="125" y="75.4" fill="#C7C7C7" width="39.9" height="2.5"/>
<rect x="125.1" y="80.7" fill="#C7C7C7" width="39.4" height="2.5"/>
<rect x="77.7" y="61.8" fill="#C7C7C7" width="39.9" height="6.9"/>
<rect x="77.7" y="42.2" fill="#C7C7C7" width="39.9" height="6.9"/>
<rect x="77.7" y="52" fill="#C7C7C7" width="39.9" height="6.9"/>
<g>
	<path fill="#9855D4" d="M71,78.4L70.9,76c8.7-0.5,11-5.6,13.4-11c2.4-5.3,4.9-10.8,13.6-10.8c0.2,0,0.5,0,0.8,0
		c9.5,0.3,12.5,6.6,15,12.1C116,71.5,118,76,125,76v2.3c-9,0-11-5.6-13.4-11c-2.5-5.4-4.8-10.5-12.9-10.8c-7.7-0.3-9.8,4.2-12.2,9.5
		C84,71.6,81.1,77.8,71,78.4z"/>
</g>
<g>
	<path fill="#9855D4" d="M124,78.4l-0.1-2.3c8.7-0.5,11-5.6,13.4-11c2.4-5.3,4.9-10.8,13.6-10.8c0.2,0,0.5,0,0.8,0
		c9.5,0.3,12.5,6.6,15,12.1C169,71.5,171,76,178,76v2.3c-9,0-11-5.6-13.5-11c-2.5-5.4-4.8-10.5-12.9-10.8c-7.8-0.3-9.8,4.2-12.2,9.5
		C137,71.6,134.1,77.8,124,78.4z"/>
</g>
<g>
	<path fill="#9855D4" d="M18.1,78.4L17.9,76c8.7-0.5,11-5.6,13.4-11c2.5-5.5,5.1-11.2,14.3-10.8c9.5,0.3,12.5,6.6,15,12.1
		C63,71.5,65,76,72,76v2.3c-9,0-11-5.6-13.4-11c-2.5-5.4-4.8-10.5-12.9-10.8c-7.8-0.3-9.8,4.2-12.2,9.5C31,71.6,28.2,77.8,18.1,78.4
		z"/>
</g>
</svg>
