<?xml version="1.0" encoding="utf-8"?>
<!-- Generator: Adobe Illustrator 18.0.0, SVG Export Plug-In . SVG Version: 6.00 Build 0)  -->
<!DOCTYPE svg PUBLIC "-//W3C//DTD SVG 1.1//EN" "http://www.w3.org/Graphics/SVG/1.1/DTD/svg11.dtd">
<svg version="1.1" id="Layer_1" xmlns="http://www.w3.org/2000/svg" xmlns:xlink="http://www.w3.org/1999/xlink" x="0px" y="0px"
	 viewBox="0 0 308 209" width="308" height="209" enable-background="new 0 0 308 209" xml:space="preserve">
<g>
	<rect x="1.1" y="0.8" fill="#F4F4F4" width="307.1" height="207.8"/>
</g>
<g>
	<rect x="1.9" y="0.3" fill="#E0E0E0" width="306.3" height="12.8"/>
</g>
<g>
	<rect x="135.4" y="24" fill="#FFFFFF" width="75.9" height="88.3"/>
</g>
<g>
	<rect x="217.6" y="24" fill="#FFFFFF" width="75.9" height="88.3"/>
</g>
<g>
	<rect x="52.8" y="24" fill="#FFFFFF" width="75.9" height="88.3"/>
</g>
<g>
	<rect x="58.4" y="29.3" fill="#C7C7C7" width="64.2" height="41.7"/>
</g>
<g>
	<rect x="58.4" y="78.8" fill="#C7C7C7" width="63" height="3.7"/>
</g>
<g>
	<rect x="57.6" y="86.4" fill="#C7C7C7" width="31.2" height="3.7"/>
</g>
<g>
	<rect x="141" y="29.2" fill="#C7C7C7" width="64.8" height="41.7"/>
</g>
<g>
	<rect x="222.9" y="29" fill="#C7C7C7" width="64.1" height="41.7"/>
</g>
<g>
	<rect x="141" y="78.8" fill="#C7C7C7" width="66.2" height="3.7"/>
</g>
<g>
	<rect x="141" y="86.4" fill="#C7C7C7" width="44.6" height="3.7"/>
</g>
<g>
	<rect x="222.9" y="78.8" fill="#C7C7C7" width="55.3" height="3.7"/>
</g>
<g>
	<path fill="#CBCBCB" d="M181.2,106h-40.5v-7.8h40.5V106z M141.3,105.4h39.4v-6.7h-39.4V105.4z"/>
</g>
<g>
	<path fill="#CBCBCB" d="M262.6,106h-40v-7.8h40V106z M223.2,105.5h38.9v-6.7h-38.9V105.5z"/>
</g>
<g>
	<rect x="1.4" y="23.9" fill="#E0E0E0" width="43.6" height="8.4"/>
</g>
<g>
	<path fill="#CBCBCB" d="M98.2,106H58.1v-7.8h40.1V106z M58.6,105.5h39v-6.7h-39V105.5z"/>
</g>
<g>
	<rect x="1.4" y="34.9" fill="#E0E0E0" width="43.6" height="8.4"/>
</g>
<g>
	<rect x="1.4" y="45.9" fill="#E0E0E0" width="43.6" height="8.4"/>
</g>
<g>
	<rect x="1.4" y="57" fill="#E0E0E0" width="43.6" height="8.4"/>
</g>
<g>
	<rect x="135.4" y="119" fill="#FFFFFF" width="75.9" height="88.3"/>
</g>
<g>
	<rect x="217.6" y="119" fill="#FFFFFF" width="75.9" height="88.3"/>
</g>
<g>
	<rect x="52.8" y="119" fill="#FFFFFF" width="75.9" height="88.3"/>
</g>
<g>
	<rect x="58.4" y="124.4" fill="#C7C7C7" width="64.2" height="41.7"/>
</g>
<g>
	<rect x="58.4" y="173.9" fill="#C7C7C7" width="63" height="3.7"/>
</g>
<g>
	<rect x="57.6" y="181.5" fill="#C7C7C7" width="24.4" height="3.7"/>
</g>
<g>
	<rect x="141" y="124.2" fill="#C7C7C7" width="64.8" height="41.7"/>
</g>
<g>
	<rect x="222.9" y="124" fill="#C7C7C7" width="64.1" height="41.7"/>
</g>
<g>
	<rect x="141" y="173.9" fill="#C7C7C7" width="66.2" height="3.7"/>
</g>
<g>
	<rect x="222.9" y="173.9" fill="#C7C7C7" width="41.1" height="3.7"/>
</g>
<g>
	<path fill="#CBCBCB" d="M177.7,201h-40.5v-7.8h40.5V201z M137.8,200.5h39.4v-6.7h-39.4V200.5z"/>
</g>
<g>
	<path fill="#CBCBCB" d="M259.2,201h-40v-7.8h40V201z M219.7,200.5h38.9v-6.7h-38.9V200.5z"/>
</g>
<g>
	<path fill="#CBCBCB" d="M94.7,201H54.6v-7.8h40.1V201z M55.2,200.5h39v-6.7h-39V200.5z"/>
</g>
<g opacity="0.25">
	<rect x="134.6" y="-0.5" fill="#BA8FF7" width="76.9" height="205.4"/>
</g>
<g opacity="0.25">
	<rect x="52.4" y="-0.5" fill="#BA8FF7" width="76.9" height="205.4"/>
</g>
<g opacity="0.25">
	<rect x="216.9" y="-0.5" fill="#BA8FF7" width="76.9" height="205.4"/>
</g>
</svg>
