<?xml version="1.0" encoding="utf-8"?>
<!-- Generator: Adobe Illustrator 17.1.0, SVG Export Plug-In . SVG Version: 6.00 Build 0)  -->
<!DOCTYPE svg PUBLIC "-//W3C//DTD SVG 1.1//EN" "http://www.w3.org/Graphics/SVG/1.1/DTD/svg11.dtd">
<svg version="1.1" id="Layer_1" xmlns="http://www.w3.org/2000/svg" xmlns:xlink="http://www.w3.org/1999/xlink" x="0px" y="0px"
	 viewBox="0 0 225.336 159.604" width="225.336" height="159.604"  enable-background="new 0 0 225.336 159.604" xml:space="preserve">
<g>
	<g>
		<polygon fill="#FFFFFF" points="220.663,150.784 154.37,150.784 57.273,42.95 62.646,38.112 157.59,143.555 220.663,143.555 		"/>
	</g>
</g>
<g>
	<path fill="#FFFFFF" d="M93.429,18.626L76.82,0.118H-0.123c0,5.868,4.87,10.629,10.856,10.629v0.059h62.216l11.859,12.763
		L93.429,18.626z"/>
</g>
<g>
	<path fill="#FFFFFF" d="M87.903,23.404H22.301v-0.059c-5.858,0-10.619-4.761-10.619-10.629h70.295"/>
</g>
<g>
	<path fill="#FFFFFF" d="M77.963,36.002H34.905v-0.059c-5.858,0-10.619-4.761-10.619-10.629h56.973"/>
</g>
<g>
	<path fill="#FFFFFF" d="M193.367,118.025c-1.347,0-2.675,0.045-3.985,0.127l-6.379-13.43c-18.024,9.615-18.067,9.638-18.081,9.645
		c-1.55,0.807-3.46,0.205-4.266-1.345c-0.807-1.55-0.205-3.46,1.345-4.266c0.161-0.086,9.007-4.804,18.285-9.754l-3.242-6.826
		c-18.389,9.81-18.433,9.833-18.448,9.841c-1.55,0.807-3.459,0.204-4.266-1.345c-0.807-1.55-0.205-3.46,1.345-4.266
		c0.163-0.087,9.241-4.93,18.652-9.95l-4.063-8.555c-9.636,5.141-19.146,10.214-19.339,10.317c-0.474,0.253-0.984,0.373-1.486,0.373
		c-1.131,0-2.224-0.608-2.793-1.675c-0.823-1.541-0.24-3.457,1.302-4.279c8.067-4.304,14.487-7.729,19.599-10.456l-8.791-18.507
		c-4.247,1.726-8.938,2.675-13.863,2.675c-12.525,0-23.605-9.444-29.588-19.81c-3.299-5.73-6.294-13.382-4.12-19.957
		c0.852-2.575,2.043-5.101,2.162-7.81c0.355-8.07-10.693-11.372-15.909-5.996c-0.051,0.052-31.196,32.154-31.196,32.154
		l91.583,102.111l0.84,0.931c0.027,0.009,0.054,0.009,0.081,0c8.468,0.045,62.595,0.045,62.595,0
		C221.341,132.618,213.023,118.025,193.367,118.025z M92.75,49.618c-7.042,0-12.75-5.708-12.75-12.75s5.708-12.75,12.75-12.75
		s12.75,5.708,12.75,12.75S99.792,49.618,92.75,49.618z"/>
</g>
<g>
	<polygon fill="#D0EF9F" points="200,90.578 211.568,97.257 200,103.935 	"/>
</g>
<g>
	<path fill="#9AD512" d="M205,108.35V84.846l20.354,11.751L205,108.35z M207,88.31v16.575l14.354-8.287L207,88.31z"/>
</g>
<g>
	<polygon fill="#9AD512" points="11,94.65 35.568,108.834 11,123.018 	"/>
</g>
<g>
	<polygon fill="#D0EF9F" points="42,64.578 53.568,71.257 42,77.935 	"/>
</g>
<g>
	<path fill="#9AD512" d="M76,159.781v-49.729l43.067,24.865L76,159.781z M79,115.247v39.339l34.067-19.669L79,115.247z"/>
</g>
<g>
	<path fill="#D0EF9F" d="M69,145.668v-21.822l18.897,10.911L69,145.668z M71,127.311v14.893l12.897-7.446L71,127.311z"/>
</g>
<g>
	<polygon fill="#9AD512" points="191,39.876 213.568,52.906 191,65.935 	"/>
</g>
<g>
	<polygon fill="#9AD512" points="146,8.65 162.068,17.926 146,27.203 	"/>
</g>
<g>
	<path fill="#D0EF9F" d="M153,36.167V1.846l29.723,17.16L153,36.167z M155,5.31v27.393l23.723-13.697L155,5.31z"/>
</g>
</svg>
