<?xml version="1.0" encoding="utf-8"?>
<!-- Generator: Adobe Illustrator 17.1.0, SVG Export Plug-In . SVG Version: 6.00 Build 0)  -->
<!DOCTYPE svg PUBLIC "-//W3C//DTD SVG 1.1//EN" "http://www.w3.org/Graphics/SVG/1.1/DTD/svg11.dtd">
<svg version="1.1" id="Layer_1" xmlns="http://www.w3.org/2000/svg" xmlns:xlink="http://www.w3.org/1999/xlink" x="0px" y="0px"
	 viewBox="0 0 225.336 275.604" width="225.336" height="275.604"  enable-background="new 0 0 225.336 275.604" xml:space="preserve">
<g>
	<g>
		<path fill="#FFFFFF" d="M157.352,139.442c13.199,0,23.9-10.701,23.9-23.9s-10.701-23.9-23.9-23.9s-23.9,10.701-23.9,23.9
			S144.153,139.442,157.352,139.442z M157.352,97.617c9.884,0,17.925,8.041,17.925,17.925s-8.041,17.925-17.925,17.925
			s-17.925-8.041-17.925-17.925S147.468,97.617,157.352,97.617z"/>
	</g>
	<g>
		<path fill="#FFFFFF" d="M175.277,151.392h-35.85l-29.875,29.875l-29.875-29.875h-35.85c-6.599,0-11.95,5.351-11.95,11.95v47.8
			l11.95,11.95v41.825c0,3.3,2.672,5.975,5.975,5.975h23.9c3.303,0,5.975-2.675,5.975-5.975v-83.65l29.875,29.875l29.875-29.875
			v83.65c0,3.3,2.672,5.975,5.975,5.975h23.9c3.303,0,5.975-2.675,5.975-5.975v-41.825l11.95-11.95v-47.8
			C187.227,156.742,181.876,151.392,175.277,151.392z"/>
	</g>
	<g>
		<path fill="#FFFFFF" d="M61.752,139.442c13.199,0,23.9-10.701,23.9-23.9s-10.701-23.9-23.9-23.9s-23.9,10.701-23.9,23.9
			S48.554,139.442,61.752,139.442z M61.752,97.617c9.884,0,17.925,8.041,17.925,17.925s-8.041,17.925-17.925,17.925
			s-17.925-8.041-17.925-17.925S51.868,97.617,61.752,97.617z"/>
	</g>
</g>
<g>
	<circle fill="#9AD512" cx="42.71" cy="23.909" r="13.113"/>
</g>
<g>
	<circle fill="#D0EF9F" cx="120.404" cy="61.281" r="9.507"/>
</g>
<g>
	<path fill="#9AD512" d="M107.291,83.906c-9.222,0-16.724-7.503-16.724-16.724s7.503-16.724,16.724-16.724
		s16.724,7.503,16.724,16.724S116.512,83.906,107.291,83.906z M107.291,52.435c-8.131,0-14.746,6.615-14.746,14.746
		s6.615,14.746,14.746,14.746s14.746-6.615,14.746-14.746S115.422,52.435,107.291,52.435z"/>
</g>
<g>
	<rect x="186" y="32" fill="#D0EF9F" width="23" height="23"/>
</g>
<g>
	<path fill="#9AD512" d="M184.984,44.567c-11.933,0-21.642-9.708-21.642-21.642s9.708-21.642,21.642-21.642
		c11.933,0,21.642,9.708,21.642,21.642S196.918,44.567,184.984,44.567z M184.984,3.262c-10.843,0-19.664,8.821-19.664,19.664
		s8.821,19.664,19.664,19.664c10.843,0,19.664-8.821,19.664-19.664S195.827,3.262,184.984,3.262z"/>
</g>
<g>
	<path fill="#D0EF9F" d="M195.146,101.28c-6.872,0-12.463-5.591-12.463-12.463c0-6.872,5.591-12.463,12.463-12.463
		c6.872,0,12.463,5.591,12.463,12.463C207.609,95.69,202.018,101.28,195.146,101.28z M195.146,78.333
		c-5.782,0-10.485,4.703-10.485,10.485c0,5.781,4.703,10.485,10.485,10.485c5.782,0,10.485-4.703,10.485-10.485
		C205.631,83.036,200.928,78.333,195.146,78.333z"/>
</g>
<g>
	<rect x="142" y="54" fill="#9AD512" width="15" height="15"/>
</g>
<g>
	<path fill="#9AD512" d="M224,117h-31V86h31V117z M195,115h27V88h-27V115z"/>
</g>
<g>
	<circle fill="#D0EF9F" cx="88.277" cy="27.188" r="5.901"/>
</g>
<g>
	<path fill="#D0EF9F" d="M44,67H1V25h43V67z M3,65h39V27H3V65z"/>
</g>
<g>
	<path fill="#9AD512" d="M12.223,153.076c-5.788,0-10.496-4.708-10.496-10.496c0-5.788,4.708-10.496,10.496-10.496
		s10.496,4.708,10.496,10.496C22.719,148.367,18.011,153.076,12.223,153.076z M12.223,134.062c-4.697,0-8.518,3.821-8.518,8.518
		c0,4.697,3.821,8.518,8.518,8.518s8.518-3.821,8.518-8.518C20.741,137.883,16.92,134.062,12.223,134.062z"/>
</g>
<g>
	<rect x="13" y="126" fill="#D0EF9F" width="14" height="13"/>
</g>
<g>
	<circle fill="#D0EF9F" cx="101.062" cy="146.186" r="5.901"/>
</g>
<g>
	<path fill="#9AD512" d="M126,133h-24v-24h24V133z M104,131h20v-20h-20V131z"/>
</g>
</svg>
