<?xml version="1.0" encoding="utf-8"?>
<!-- Generator: Adobe Illustrator 17.1.0, SVG Export Plug-In . SVG Version: 6.00 Build 0)  -->
<!DOCTYPE svg PUBLIC "-//W3C//DTD SVG 1.1//EN" "http://www.w3.org/Graphics/SVG/1.1/DTD/svg11.dtd">
<svg version="1.1" id="Layer_1" xmlns="http://www.w3.org/2000/svg" xmlns:xlink="http://www.w3.org/1999/xlink" x="0px" y="0px"
	 viewBox="0 0 525.667 174.667" width="525.667" height="174.667"  enable-background="new 0 0 525.667 174.667" xml:space="preserve">
<g>
	<path fill="#FFFFFF" stroke="#525252" stroke-width="3.1012" stroke-miterlimit="10" d="M475.749,42.093l12.996,4.586
		l20.712,27.588l4.553,41.672l9.771,22.163l-31.245,15.625l-6.463-15.204l-11.531-14.662
		C474.543,123.862,475.758,41.362,475.749,42.093z"/>
	<path fill="#FFFFFF" stroke="#525252" stroke-width="3.1012" stroke-miterlimit="10" d="M250.202,41.478l-13.049,4.434
		l-21.033,27.344l-5.04,41.616l-10.03,22.048l31.06,15.99l6.64-15.128l11.702-14.526C250.452,123.255,250.202,40.747,250.202,41.478
		z"/>
	<g>
		<path fill-rule="evenodd" clip-rule="evenodd" fill="#EDEDED" d="M248,160.158c0,8.025,6.282,13.842,14.309,13.842h200.675
			c8.027,0,15.016-5.817,15.016-13.842V14.017C478,5.992,471.011,0,462.984,0H262.309C254.282,0,248,5.992,248,14.017V160.158z
			 M455,155.734c0,1.251-1.014,2.266-2.266,2.266H273.266c-1.251,0-2.266-1.014-2.266-2.266V18.266c0-1.251,1.014-2.266,2.266-2.266
			h179.469c1.251,0,2.266,1.014,2.266,2.266V155.734z"/>
		<path fill-rule="evenodd" clip-rule="evenodd" fill="#FFFFFF" d="M259.435,90.797V76.599c0-0.52,0.425-0.945,0.945-0.945h0.324
			c0.52,0,0.945,0.425,0.945,0.945v14.198c0,0.52-0.425,0.945-0.945,0.945h-0.324C259.86,91.741,259.435,91.317,259.435,90.797
			L259.435,90.797z"/>
		<path fill-rule="evenodd" clip-rule="evenodd" fill="#FFFFFF" d="M259.533,96.286c0-0.557,0.452-1.008,1.008-1.008
			c0.557,0,1.009,0.452,1.009,1.008c0,0.557-0.452,1.009-1.009,1.009C259.985,97.295,259.533,96.843,259.533,96.286L259.533,96.286z
			"/>
		<path fill-rule="evenodd" clip-rule="evenodd" fill="#FFFFFF" d="M460.698,87.063c0-2.682,2.175-4.857,4.857-4.857
			c2.682,0,4.857,2.174,4.857,4.857c0,2.682-2.174,4.857-4.857,4.857C462.873,91.919,460.698,89.745,460.698,87.063L460.698,87.063z
			 M460.327,87.063c0-2.887,2.341-5.228,5.228-5.228c2.887,0,5.228,2.341,5.228,5.228c0,2.888-2.341,5.228-5.228,5.228
			C462.667,92.291,460.327,89.95,460.327,87.063L460.327,87.063z"/>
	</g>
	<path fill="#FFFFFF" stroke="#525252" stroke-width="2.9836" stroke-miterlimit="10" d="M225.13,95.298l14.015-29.999
		l10.746-11.763c0,0,4.277-1.734,5.637,0.55c0,0,4.717,4.418-0.493,14.266l-9.52,21.471l1.304,8.209c0,0,0.267,17.998-10.884,28.522
		"/>
	<path fill="#FFFFFF" stroke="#525252" stroke-width="2.9836" stroke-miterlimit="10" d="M503.314,91.05l-13.729-30.131
		l-10.633-11.865c0,0-4.26-1.774-5.642,0.496c0,0-4.759,4.373,0.358,14.27l9.315,21.56l-1.382,8.196c0,0-0.438,17.995,10.612,28.624
		"/>
	<path fill-rule="evenodd" clip-rule="evenodd" fill="#E9E9E9" d="M139,13.827C139,6.702,134.633,1,127.557,1h-55.59
		C64.89,1,57,6.702,57,13.827V161.7c0,7.125,7.89,12.3,14.967,12.3h55.59c7.076,0,11.443-5.174,11.443-12.3V13.827z M135,147.021
		c0,1.093-0.886,1.979-1.979,1.979H62.979c-1.093,0-1.979-0.886-1.979-1.979V26.979C61,25.886,61.886,25,62.979,25h70.042
		c1.093,0,1.979,0.886,1.979,1.979V147.021z"/>
	<path fill-rule="evenodd" clip-rule="evenodd" fill="#FFFFFF" d="M93.521,12.486h10.41c0.381,0,0.693,0.312,0.693,0.693v0.238
		c0,0.381-0.312,0.693-0.693,0.693h-10.41c-0.381,0-0.693-0.312-0.693-0.693v-0.238C92.828,12.797,93.14,12.486,93.521,12.486
		L93.521,12.486z"/>
	<path fill-rule="evenodd" clip-rule="evenodd" fill="#FFFFFF" d="M89.496,12.558c0.408,0,0.739,0.331,0.739,0.739
		c0,0.408-0.331,0.739-0.739,0.739c-0.408,0-0.739-0.331-0.739-0.739C88.756,12.889,89.088,12.558,89.496,12.558L89.496,12.558z"/>
	<path fill-rule="evenodd" clip-rule="evenodd" fill="#FFFFFF" d="M98.726,7.775c0.535,0,0.969,0.434,0.969,0.97
		c0,0.535-0.434,0.969-0.969,0.969c-0.535,0-0.97-0.434-0.97-0.969C97.756,8.209,98.191,7.775,98.726,7.775L98.726,7.775z"/>
	<path fill-rule="evenodd" clip-rule="evenodd" fill="#FFFFFF" d="M97.801,154.723c4.17,0,7.551,3.381,7.551,7.552
		c0,4.17-3.381,7.551-7.551,7.551c-4.171,0-7.552-3.381-7.552-7.551C90.249,158.104,93.63,154.723,97.801,154.723L97.801,154.723z
		 M97.801,154.145c4.489,0,8.129,3.639,8.129,8.129c0,4.489-3.639,8.129-8.129,8.129c-4.49,0-8.129-3.639-8.129-8.129
		C89.672,157.784,93.311,154.145,97.801,154.145L97.801,154.145z"/>
	<g>
		<polygon fill="none" points="52.26,144.738 44.89,160.478 4.337,141.911 4.33,141.923 44.89,160.509 52.26,144.8 57,139.308
			57,139.224 		"/>
		<path fill="#FFFFFF" d="M46.28,112.208c9.51-10.64,8.38-27.32,8.26-28.78l-2.13-8.59l8.04-23.29c3.88-9.15-0.12-12.65-0.29-12.8
			l-0.28-0.3c-0.13-0.18-0.348-0.284-0.618-0.331c-0.811-0.14-2.099,0.233-2.932,0.601l-9.67,12.59l-18.53,29.47l-0.11,0.311
			l-9.89,35.842l-0.09,0.164L4.337,141.911l40.553,18.567l7.37-15.74l4.74-5.513V96.118l0.663-5.079
			c-0.002-0.821-0.003-1.281-0.003-1.281c-0.4,6.64-2.21,16.85-9.07,24.52L46.28,112.208z"/>
		<path fill="#414141" d="M62.28,36.488c-2.35-2.97-7.11-0.67-7.65-0.39l-0.31,0.16l-10.16,13.22l-18.74,29.8l-0.34,0.83
			l-9.84,35.65L0,143.338l46.39,21.24l8.5-18.13l2.11-2.454v-4.685l-4.74,5.492l-7.37,15.708L4.33,141.923l0.007-0.012l-0.007-0.003
			l13.71-24.82l0.09-0.16l9.89-35.84l0.11-0.31l18.53-29.47l9.67-12.59c0.832-0.368,2.12-0.741,2.932-0.601
			c0.271,0.047,0.488,0.15,0.618,0.331l0.28,0.3c0.17,0.15,4.17,3.65,0.29,12.8l-8.04,23.29l2.13,8.59
			c0.12,1.46,1.25,18.14-8.26,28.78l2.31,2.07c6.86-7.67,8.67-17.88,9.07-24.52c0.22-3.82-0.02-6.46-0.05-6.74l-1.97-8.04
			l7.68-22.27C67.73,42.288,63.28,37.408,62.28,36.488z M47.44,113.238l8.13-18.68C54.65,100.468,52.47,107.618,47.44,113.238z"/>
		<path fill="#414141" d="M18.13,116.932l9.89-35.842l0.11-0.311l18.53-29.47l9.67-12.59c0.832-0.368,2.12-0.741,2.932-0.601
			c-0.811-0.14-2.099,0.233-2.932,0.601l-9.67,12.59l-18.53,29.47l-0.11,0.31l-9.89,35.84l-0.09,0.16l-13.71,24.82l0.007,0.003
			l13.703-24.815L18.13,116.932z"/>
		<path fill="#414141" d="M55.57,94.558l-8.13,18.68C52.47,107.618,54.65,100.468,55.57,94.558z"/>
	</g>
	<rect x="69" y="100" fill="#9AD512" width="60" height="7"/>
	<rect x="69" y="113" fill="#D0EF9F" width="44" height="4"/>
	<rect x="69" y="122" fill="#D0EF9F" width="53" height="4"/>
	<path fill="#D0EF9F" d="M124.5,44.951v42.667h-53V44.951H124.5 M127.5,41.951h-59v48.667h59V41.951L127.5,41.951z"/>
	<line fill="none" stroke="#D0EF9F" stroke-width="3" stroke-miterlimit="10" x1="69" y1="43.451" x2="127" y2="88.784"/>
	<line fill="none" stroke="#D0EF9F" stroke-width="3" stroke-miterlimit="10" x1="69" y1="88.784" x2="127" y2="43.451"/>
	<rect x="294" y="100" fill="#9AD512" width="60" height="7"/>
	<rect x="294" y="113" fill="#D0EF9F" width="44" height="4"/>
	<rect x="294" y="122" fill="#D0EF9F" width="53" height="4"/>
	<path fill="#D0EF9F" d="M349.5,44.951v42.667h-53V44.951H349.5 M352.5,41.951h-59v48.667h59V41.951L352.5,41.951z"/>
	<line fill="none" stroke="#D0EF9F" stroke-width="3" stroke-miterlimit="10" x1="294" y1="43.451" x2="352" y2="88.784"/>
	<line fill="none" stroke="#D0EF9F" stroke-width="3" stroke-miterlimit="10" x1="294" y1="88.784" x2="352" y2="43.451"/>
	<rect x="375" y="100" fill="#9AD512" width="60" height="7"/>
	<rect x="375" y="113" fill="#D0EF9F" width="44" height="4"/>
	<rect x="375" y="119" fill="#D0EF9F" width="53" height="4"/>
	<path fill="#D0EF9F" d="M430.5,44.951v42.667h-53V44.951H430.5 M433.5,41.951h-59v48.667h59V41.951L433.5,41.951z"/>
	<line fill="none" stroke="#D0EF9F" stroke-width="3" stroke-miterlimit="10" x1="375" y1="43.451" x2="433" y2="88.784"/>
	<line fill="none" stroke="#D0EF9F" stroke-width="3" stroke-miterlimit="10" x1="375" y1="88.784" x2="433" y2="43.451"/>
</g>
</svg>
