<?xml version="1.0" encoding="utf-8"?>
<!-- Generator: Adobe Illustrator 17.1.0, SVG Export Plug-In . SVG Version: 6.00 Build 0)  -->
<!DOCTYPE svg PUBLIC "-//W3C//DTD SVG 1.1//EN" "http://www.w3.org/Graphics/SVG/1.1/DTD/svg11.dtd">
<svg version="1.1" xmlns="http://www.w3.org/2000/svg" xmlns:xlink="http://www.w3.org/1999/xlink" x="0px" y="0px"
	 viewBox="0 0 312 176" width="312" height="176" enable-background="new 0 0 312 176" xml:space="preserve">
<g id="Layer_1">
	<g>
		<g opacity="0.2">
			<rect x="35" y="125.5" fill="#C8F08F" width="244" height="48"/>
		</g>
		<g>
			<path fill="#6EB400" d="M280,174.5H34v-50h246V174.5z M36,172.5h242v-46H36V172.5z"/>
		</g>
	</g>
	<g>
		<g opacity="0.2">
			<rect x="35" y="1.5" fill="#FFD2DD" width="244" height="48"/>
		</g>
		<g>
			<path fill="#FF5050" d="M280,50.5H34v-50h246V50.5z M36,48.5h242v-46H36V48.5z"/>
		</g>
	</g>
	<g>
		<g opacity="0.2">
			<rect x="35" y="63.5" fill="#FFD4A0" width="244" height="48"/>
		</g>
		<g>
			<path fill="#FF7832" d="M280,112.5H34v-50h246V112.5z M36,110.5h242v-46H36V110.5z"/>
		</g>
	</g>
	<g>
		<path fill="#323232" d="M88.968,19.843c-0.507-0.368-1.154-0.552-1.943-0.552c-0.32,0-0.635,0.032-0.944,0.096
			s-0.584,0.17-0.824,0.32s-0.432,0.35-0.576,0.6c-0.144,0.25-0.216,0.562-0.216,0.936c0,0.352,0.104,0.637,0.312,0.856
			s0.485,0.397,0.832,0.536c0.346,0.139,0.738,0.253,1.176,0.344c0.438,0.091,0.882,0.189,1.336,0.296
			c0.453,0.107,0.898,0.232,1.336,0.376s0.829,0.339,1.176,0.584c0.347,0.246,0.624,0.555,0.832,0.928s0.312,0.843,0.312,1.408
			c0,0.608-0.137,1.128-0.408,1.56c-0.272,0.432-0.622,0.784-1.048,1.056c-0.427,0.272-0.904,0.47-1.433,0.592
			c-0.527,0.123-1.053,0.184-1.576,0.184c-0.64,0-1.245-0.08-1.815-0.24c-0.571-0.16-1.072-0.403-1.504-0.728
			c-0.433-0.325-0.773-0.741-1.024-1.248c-0.251-0.506-0.376-1.106-0.376-1.8h1.44c0,0.48,0.093,0.893,0.279,1.24
			s0.433,0.632,0.736,0.856s0.658,0.39,1.064,0.496c0.405,0.107,0.821,0.16,1.248,0.16c0.341,0,0.685-0.032,1.031-0.096
			s0.659-0.173,0.937-0.328c0.277-0.154,0.501-0.365,0.672-0.632s0.256-0.608,0.256-1.024c0-0.395-0.104-0.715-0.312-0.96
			c-0.208-0.246-0.485-0.445-0.832-0.6s-0.739-0.28-1.177-0.376c-0.438-0.096-0.882-0.194-1.336-0.296
			c-0.453-0.102-0.898-0.219-1.336-0.352s-0.829-0.31-1.176-0.528c-0.347-0.218-0.624-0.501-0.832-0.848s-0.312-0.781-0.312-1.304
			c0-0.576,0.117-1.074,0.352-1.496c0.234-0.421,0.547-0.768,0.937-1.04c0.389-0.272,0.832-0.474,1.327-0.608
			c0.496-0.133,1.006-0.2,1.528-0.2c0.587,0,1.131,0.069,1.632,0.208c0.502,0.139,0.941,0.357,1.32,0.656
			c0.379,0.299,0.677,0.675,0.896,1.128c0.219,0.454,0.339,0.995,0.36,1.624h-1.439C89.771,20.806,89.475,20.211,88.968,19.843z"/>
		<path fill="#323232" d="M99.248,29.179c-0.618,0.469-1.397,0.704-2.336,0.704c-0.661,0-1.234-0.106-1.72-0.32
			s-0.894-0.512-1.225-0.896c-0.33-0.384-0.578-0.842-0.743-1.376c-0.166-0.533-0.259-1.114-0.28-1.744
			c0-0.629,0.096-1.205,0.288-1.728c0.191-0.522,0.461-0.976,0.808-1.36c0.347-0.384,0.758-0.683,1.232-0.896s0.994-0.32,1.56-0.32
			c0.736,0,1.347,0.152,1.832,0.456c0.485,0.304,0.875,0.69,1.168,1.16c0.293,0.47,0.496,0.981,0.608,1.536
			c0.111,0.555,0.157,1.083,0.136,1.584h-6.192c-0.011,0.363,0.032,0.707,0.128,1.032c0.097,0.325,0.251,0.613,0.465,0.864
			c0.213,0.251,0.484,0.451,0.815,0.6s0.72,0.224,1.168,0.224c0.576,0,1.048-0.133,1.416-0.4c0.368-0.266,0.61-0.672,0.729-1.216
			h1.344C100.267,28.011,99.866,28.71,99.248,29.179z M98.92,23.867c-0.122-0.288-0.288-0.536-0.496-0.744s-0.453-0.373-0.735-0.496
			c-0.283-0.123-0.595-0.184-0.937-0.184c-0.352,0-0.669,0.062-0.952,0.184c-0.282,0.123-0.525,0.291-0.728,0.504
			c-0.203,0.214-0.363,0.462-0.48,0.744c-0.117,0.283-0.187,0.584-0.208,0.904h4.752C99.114,24.459,99.043,24.155,98.92,23.867z"/>
		<path fill="#323232" d="M103.216,21.435v1.744h0.032c0.33-0.672,0.736-1.168,1.216-1.488c0.48-0.32,1.088-0.469,1.824-0.448v1.44
			c-0.544,0-1.008,0.075-1.393,0.224c-0.384,0.149-0.693,0.368-0.928,0.656s-0.405,0.638-0.512,1.048
			c-0.106,0.411-0.16,0.883-0.16,1.416v3.68h-1.36v-8.272H103.216z"/>
		<path fill="#323232" d="M109.583,29.707l-3.072-8.272h1.521l2.32,6.896h0.031l2.256-6.896h1.425l-3.024,8.272H109.583z"/>
		<path fill="#323232" d="M121.167,29.179c-0.618,0.469-1.397,0.704-2.336,0.704c-0.661,0-1.234-0.106-1.72-0.32
			s-0.894-0.512-1.225-0.896c-0.33-0.384-0.578-0.842-0.743-1.376c-0.166-0.533-0.259-1.114-0.28-1.744
			c0-0.629,0.096-1.205,0.288-1.728c0.191-0.522,0.461-0.976,0.808-1.36c0.347-0.384,0.758-0.683,1.232-0.896s0.994-0.32,1.56-0.32
			c0.736,0,1.347,0.152,1.832,0.456c0.485,0.304,0.875,0.69,1.168,1.16c0.293,0.47,0.496,0.981,0.608,1.536
			c0.111,0.555,0.157,1.083,0.136,1.584h-6.192c-0.011,0.363,0.032,0.707,0.128,1.032c0.097,0.325,0.251,0.613,0.465,0.864
			c0.213,0.251,0.484,0.451,0.815,0.6s0.72,0.224,1.168,0.224c0.576,0,1.048-0.133,1.416-0.4c0.368-0.266,0.61-0.672,0.729-1.216
			h1.344C122.186,28.011,121.785,28.71,121.167,29.179z M120.839,23.867c-0.122-0.288-0.288-0.536-0.496-0.744
			s-0.453-0.373-0.735-0.496c-0.283-0.123-0.595-0.184-0.937-0.184c-0.352,0-0.669,0.062-0.952,0.184
			c-0.282,0.123-0.525,0.291-0.728,0.504c-0.203,0.214-0.363,0.462-0.48,0.744c-0.117,0.283-0.187,0.584-0.208,0.904h4.752
			C121.033,24.459,120.962,24.155,120.839,23.867z"/>
		<path fill="#323232" d="M125.135,21.435v1.744h0.032c0.33-0.672,0.736-1.168,1.216-1.488c0.48-0.32,1.088-0.469,1.824-0.448v1.44
			c-0.544,0-1.008,0.075-1.393,0.224c-0.384,0.149-0.693,0.368-0.928,0.656s-0.405,0.638-0.512,1.048
			c-0.106,0.411-0.16,0.883-0.16,1.416v3.68h-1.36v-8.272H125.135z"/>
		<path fill="#323232" d="M138.911,18.283c1.152,0,2.024,0.296,2.616,0.888c0.592,0.592,0.888,1.422,0.888,2.488
			s-0.296,1.898-0.888,2.496c-0.592,0.597-1.464,0.891-2.616,0.88h-3.488v4.672h-1.52V18.283H138.911z M138.399,23.755
			c0.864,0.011,1.496-0.165,1.896-0.528c0.4-0.362,0.601-0.885,0.601-1.568s-0.2-1.203-0.601-1.56
			c-0.399-0.357-1.031-0.536-1.896-0.536h-2.977v4.192H138.399z"/>
		<path fill="#323232" d="M148.191,18.283c1.76,0,3.114,0.448,4.064,1.344c0.949,0.896,1.424,2.262,1.424,4.096
			c0,0.96-0.107,1.811-0.32,2.552c-0.214,0.742-0.544,1.366-0.992,1.872c-0.447,0.507-1.019,0.894-1.712,1.16s-1.515,0.4-2.464,0.4
			h-3.92V18.283H148.191z M148.319,28.427c0.171,0,0.384-0.014,0.64-0.04c0.257-0.027,0.528-0.091,0.816-0.192
			c0.288-0.101,0.573-0.248,0.856-0.44c0.282-0.192,0.535-0.453,0.76-0.784c0.224-0.331,0.408-0.744,0.552-1.24
			c0.145-0.496,0.216-1.096,0.216-1.8c0-0.683-0.066-1.293-0.2-1.832c-0.133-0.539-0.352-0.998-0.655-1.376
			c-0.305-0.378-0.696-0.667-1.177-0.864c-0.479-0.197-1.071-0.296-1.775-0.296h-2.561v8.864H148.319z"/>
		<path fill="#323232" d="M158.623,29.707v-8.128h-2.944v-1.088c0.385,0,0.758-0.029,1.12-0.088c0.362-0.058,0.69-0.168,0.984-0.328
			c0.293-0.16,0.541-0.379,0.744-0.656c0.202-0.277,0.341-0.629,0.416-1.056h1.04v11.344H158.623z"/>
		<path fill="#323232" d="M166.128,19.755l-0.608,3.264l0.032,0.032c0.245-0.277,0.562-0.483,0.952-0.616
			c0.389-0.133,0.775-0.2,1.16-0.2c0.501,0,0.976,0.08,1.424,0.24c0.447,0.16,0.837,0.403,1.168,0.728
			c0.33,0.325,0.592,0.73,0.784,1.216c0.191,0.485,0.287,1.054,0.287,1.704c0,0.48-0.082,0.947-0.247,1.4
			c-0.166,0.454-0.414,0.856-0.744,1.208c-0.331,0.352-0.744,0.632-1.24,0.84s-1.075,0.312-1.736,0.312
			c-0.49,0-0.952-0.072-1.384-0.216s-0.813-0.352-1.144-0.624c-0.331-0.272-0.593-0.61-0.784-1.016
			c-0.192-0.405-0.294-0.864-0.305-1.376h1.36c0.021,0.288,0.094,0.558,0.216,0.808c0.123,0.251,0.288,0.47,0.496,0.656
			s0.453,0.331,0.736,0.432c0.282,0.102,0.595,0.152,0.936,0.152c0.32,0,0.627-0.056,0.92-0.168c0.294-0.112,0.55-0.28,0.769-0.504
			c0.219-0.224,0.392-0.504,0.52-0.84s0.192-0.728,0.192-1.176c0-0.374-0.062-0.717-0.185-1.032
			c-0.122-0.314-0.296-0.586-0.52-0.816s-0.493-0.408-0.808-0.536c-0.315-0.128-0.664-0.192-1.049-0.192
			c-0.447,0-0.845,0.099-1.191,0.296c-0.347,0.198-0.653,0.456-0.92,0.776l-1.168-0.064l1.056-5.888h5.6v1.2H166.128z"/>
		<path fill="#323232" d="M176.415,29.707v-8.128h-2.944v-1.088c0.385,0,0.758-0.029,1.12-0.088c0.362-0.058,0.69-0.168,0.984-0.328
			c0.293-0.16,0.541-0.379,0.744-0.656c0.202-0.277,0.341-0.629,0.416-1.056h1.04v11.344H176.415z"/>
		<path fill="#323232" d="M186.526,19.947v-1.664h1.36v1.664H186.526z M187.887,21.435v8.272h-1.36v-8.272H187.887z"/>
		<path fill="#323232" d="M191.039,27.859c0.128,0.208,0.296,0.374,0.504,0.496s0.442,0.211,0.704,0.264
			c0.261,0.053,0.53,0.08,0.808,0.08c0.213,0,0.438-0.016,0.672-0.048c0.234-0.032,0.45-0.09,0.648-0.176
			c0.197-0.085,0.359-0.21,0.487-0.376s0.192-0.376,0.192-0.632c0-0.352-0.134-0.618-0.4-0.8c-0.267-0.181-0.6-0.328-1-0.44
			c-0.399-0.112-0.834-0.213-1.304-0.304c-0.47-0.09-0.904-0.218-1.304-0.384c-0.4-0.165-0.733-0.397-1-0.696
			c-0.267-0.299-0.4-0.715-0.4-1.248c0-0.416,0.094-0.773,0.28-1.072c0.187-0.298,0.427-0.541,0.72-0.728
			c0.293-0.187,0.624-0.325,0.992-0.416c0.368-0.09,0.733-0.136,1.096-0.136c0.47,0,0.901,0.04,1.296,0.12
			c0.395,0.08,0.744,0.219,1.048,0.416c0.305,0.198,0.547,0.464,0.729,0.8s0.288,0.755,0.32,1.256h-1.36
			c-0.021-0.267-0.091-0.488-0.208-0.664c-0.117-0.176-0.267-0.317-0.448-0.424c-0.182-0.106-0.381-0.184-0.6-0.232
			c-0.219-0.048-0.44-0.072-0.664-0.072c-0.203,0-0.408,0.016-0.616,0.048c-0.208,0.032-0.397,0.088-0.567,0.168
			c-0.171,0.08-0.31,0.187-0.416,0.32c-0.107,0.133-0.16,0.307-0.16,0.52c0,0.235,0.082,0.43,0.248,0.584
			c0.165,0.155,0.376,0.283,0.632,0.384c0.256,0.102,0.544,0.187,0.864,0.256c0.319,0.069,0.64,0.142,0.96,0.216
			c0.341,0.075,0.674,0.166,1,0.272c0.325,0.107,0.613,0.248,0.863,0.424c0.251,0.176,0.453,0.397,0.608,0.664
			c0.154,0.267,0.231,0.598,0.231,0.992c0,0.501-0.104,0.917-0.312,1.248s-0.48,0.598-0.816,0.8
			c-0.336,0.203-0.714,0.344-1.136,0.424c-0.421,0.08-0.84,0.12-1.256,0.12c-0.459,0-0.896-0.048-1.312-0.144
			c-0.416-0.096-0.784-0.253-1.104-0.472s-0.576-0.506-0.768-0.864c-0.192-0.357-0.299-0.792-0.32-1.304h1.36
			C190.841,27.398,190.91,27.651,191.039,27.859z"/>
		<path fill="#323232" d="M202.375,21.747c0.229-0.72,0.573-1.357,1.032-1.912c0.458-0.554,1.029-0.997,1.712-1.328
			c0.683-0.33,1.477-0.496,2.384-0.496c0.906,0,1.701,0.166,2.384,0.496c0.683,0.331,1.253,0.774,1.712,1.328
			c0.459,0.555,0.803,1.192,1.032,1.912c0.229,0.72,0.344,1.469,0.344,2.248s-0.114,1.528-0.344,2.248
			c-0.229,0.72-0.573,1.357-1.032,1.912s-1.029,0.995-1.712,1.32s-1.478,0.488-2.384,0.488c-0.907,0-1.701-0.163-2.384-0.488
			s-1.254-0.765-1.712-1.32c-0.459-0.555-0.803-1.192-1.032-1.912c-0.229-0.72-0.344-1.469-0.344-2.248
			S202.146,22.467,202.375,21.747z M203.774,25.699c0.149,0.56,0.385,1.064,0.704,1.512c0.32,0.448,0.73,0.808,1.232,1.08
			c0.501,0.272,1.099,0.408,1.792,0.408s1.29-0.136,1.792-0.408c0.501-0.272,0.912-0.632,1.231-1.08
			c0.32-0.448,0.555-0.952,0.704-1.512c0.149-0.56,0.225-1.128,0.225-1.704c0-0.576-0.075-1.144-0.225-1.704
			s-0.384-1.064-0.704-1.512c-0.319-0.448-0.73-0.808-1.231-1.08c-0.502-0.272-1.099-0.408-1.792-0.408s-1.291,0.136-1.792,0.408
			c-0.502,0.272-0.912,0.632-1.232,1.08c-0.319,0.448-0.555,0.952-0.704,1.512s-0.224,1.128-0.224,1.704
			C203.551,24.571,203.625,25.139,203.774,25.699z"/>
		<path fill="#323232" d="M213.775,22.635v-1.2h1.392v-1.232c0-0.672,0.194-1.181,0.584-1.528c0.39-0.346,0.957-0.52,1.704-0.52
			c0.128,0,0.274,0.011,0.439,0.032c0.166,0.021,0.312,0.054,0.44,0.096v1.184c-0.117-0.042-0.245-0.072-0.384-0.088
			s-0.267-0.024-0.384-0.024c-0.331,0-0.587,0.064-0.769,0.192s-0.271,0.374-0.271,0.736v1.152h1.6v1.2h-1.6v7.072h-1.36v-7.072
			H213.775z"/>
		<path fill="#323232" d="M218.224,22.635v-1.2h1.392v-1.232c0-0.672,0.194-1.181,0.584-1.528c0.39-0.346,0.957-0.52,1.704-0.52
			c0.128,0,0.274,0.011,0.439,0.032c0.166,0.021,0.312,0.054,0.44,0.096v1.184c-0.117-0.042-0.245-0.072-0.384-0.088
			s-0.267-0.024-0.384-0.024c-0.331,0-0.587,0.064-0.769,0.192s-0.271,0.374-0.271,0.736v1.152h1.6v1.2h-1.6v7.072h-1.36v-7.072
			H218.224z"/>
		<path fill="#323232" d="M225.23,18.283v11.424h-1.36V18.283H225.23z"/>
		<path fill="#323232" d="M227.422,19.947v-1.664h1.36v1.664H227.422z M228.782,21.435v8.272h-1.36v-8.272H228.782z"/>
		<path fill="#323232" d="M232.174,21.435v1.312h0.032c0.565-1.002,1.461-1.504,2.688-1.504c0.544,0,0.997,0.075,1.359,0.224
			c0.362,0.15,0.656,0.358,0.88,0.624c0.225,0.267,0.382,0.584,0.473,0.952c0.09,0.368,0.136,0.776,0.136,1.224v5.44h-1.36v-5.6
			c0-0.512-0.149-0.917-0.447-1.216c-0.299-0.298-0.71-0.448-1.232-0.448c-0.416,0-0.776,0.064-1.08,0.192
			c-0.304,0.128-0.558,0.309-0.76,0.544c-0.203,0.234-0.354,0.509-0.456,0.824c-0.102,0.315-0.152,0.659-0.152,1.032v4.672h-1.359
			v-8.272H232.174z"/>
		<path fill="#323232" d="M245.646,29.179c-0.618,0.469-1.397,0.704-2.336,0.704c-0.661,0-1.234-0.106-1.72-0.32
			s-0.894-0.512-1.225-0.896c-0.33-0.384-0.578-0.842-0.743-1.376c-0.166-0.533-0.259-1.114-0.28-1.744
			c0-0.629,0.096-1.205,0.288-1.728c0.191-0.522,0.461-0.976,0.808-1.36c0.347-0.384,0.758-0.683,1.232-0.896s0.994-0.32,1.56-0.32
			c0.736,0,1.347,0.152,1.832,0.456c0.485,0.304,0.875,0.69,1.168,1.16c0.293,0.47,0.496,0.981,0.608,1.536
			c0.111,0.555,0.157,1.083,0.136,1.584h-6.192c-0.011,0.363,0.032,0.707,0.128,1.032c0.097,0.325,0.251,0.613,0.465,0.864
			c0.213,0.251,0.484,0.451,0.815,0.6s0.72,0.224,1.168,0.224c0.576,0,1.048-0.133,1.416-0.4c0.368-0.266,0.61-0.672,0.729-1.216
			h1.344C246.664,28.011,246.264,28.71,245.646,29.179z M245.317,23.867c-0.122-0.288-0.288-0.536-0.496-0.744
			s-0.453-0.373-0.735-0.496c-0.283-0.123-0.595-0.184-0.937-0.184c-0.352,0-0.669,0.062-0.952,0.184
			c-0.282,0.123-0.525,0.291-0.728,0.504c-0.203,0.214-0.363,0.462-0.48,0.744c-0.117,0.283-0.187,0.584-0.208,0.904h4.752
			C245.512,24.459,245.44,24.155,245.317,23.867z"/>
	</g>
	<g>
		<path fill="#323232" d="M88.867,92.66c-0.779,0.73-1.889,1.096-3.328,1.096c-1.472,0-2.621-0.349-3.448-1.048
			c-0.826-0.699-1.24-1.811-1.24-3.336v-7.296h1.521v7.296c0,1.024,0.271,1.8,0.815,2.328c0.545,0.528,1.328,0.792,2.353,0.792
			c0.971,0,1.709-0.264,2.216-0.792c0.507-0.528,0.76-1.304,0.76-2.328v-7.296h1.521v7.296C90.035,90.833,89.646,91.93,88.867,92.66
			z"/>
		<path fill="#323232" d="M93.65,85.228v1.12h0.032c0.225-0.458,0.576-0.792,1.056-1c0.48-0.208,1.009-0.312,1.584-0.312
			c0.641,0,1.197,0.117,1.673,0.352c0.475,0.234,0.869,0.552,1.184,0.952c0.314,0.4,0.552,0.862,0.712,1.384s0.24,1.077,0.24,1.664
			c0,0.586-0.077,1.141-0.232,1.664c-0.154,0.523-0.39,0.979-0.704,1.368c-0.314,0.39-0.709,0.696-1.184,0.92
			c-0.475,0.224-1.026,0.336-1.656,0.336c-0.202,0-0.43-0.021-0.68-0.064c-0.251-0.042-0.499-0.112-0.744-0.208
			c-0.245-0.096-0.478-0.226-0.696-0.392s-0.402-0.371-0.552-0.616H93.65v4.256h-1.359V85.228H93.65z M98.539,88.164
			c-0.102-0.368-0.256-0.696-0.464-0.984c-0.208-0.288-0.476-0.518-0.801-0.688c-0.325-0.171-0.706-0.256-1.144-0.256
			c-0.459,0-0.848,0.091-1.168,0.272c-0.32,0.182-0.582,0.419-0.784,0.712c-0.203,0.293-0.35,0.626-0.44,1
			c-0.09,0.373-0.136,0.752-0.136,1.136c0,0.406,0.048,0.797,0.145,1.176c0.096,0.378,0.248,0.712,0.456,1
			c0.208,0.288,0.477,0.52,0.808,0.696c0.33,0.176,0.73,0.264,1.2,0.264c0.469,0,0.861-0.091,1.176-0.272
			c0.314-0.182,0.568-0.421,0.76-0.72c0.192-0.298,0.331-0.64,0.416-1.024c0.086-0.384,0.128-0.779,0.128-1.184
			C98.69,88.908,98.64,88.532,98.539,88.164z"/>
		<path fill="#323232" d="M107.762,93.5v-1.12h-0.031c-0.225,0.459-0.576,0.79-1.057,0.992c-0.479,0.203-1.008,0.304-1.584,0.304
			c-0.64,0-1.197-0.117-1.672-0.352c-0.475-0.235-0.869-0.549-1.184-0.944c-0.315-0.395-0.553-0.853-0.712-1.376
			c-0.16-0.522-0.24-1.077-0.24-1.664c0-0.586,0.077-1.141,0.231-1.664c0.155-0.522,0.39-0.979,0.704-1.368s0.71-0.699,1.185-0.928
			c0.475-0.229,1.026-0.344,1.655-0.344c0.214,0,0.443,0.021,0.688,0.064s0.49,0.115,0.736,0.216c0.245,0.102,0.477,0.235,0.695,0.4
			c0.219,0.166,0.402,0.371,0.553,0.616h0.031v-4.256h1.36V93.5H107.762z M102.874,90.564c0.102,0.368,0.256,0.696,0.464,0.984
			s0.475,0.518,0.8,0.688c0.325,0.171,0.707,0.256,1.145,0.256c0.458,0,0.848-0.091,1.168-0.272c0.32-0.182,0.581-0.419,0.784-0.712
			c0.202-0.293,0.349-0.626,0.439-1c0.091-0.373,0.136-0.752,0.136-1.136c0-0.405-0.048-0.797-0.144-1.176
			c-0.096-0.378-0.248-0.712-0.456-1c-0.208-0.288-0.478-0.52-0.808-0.696c-0.331-0.176-0.731-0.264-1.2-0.264
			c-0.459,0-0.848,0.091-1.168,0.272c-0.32,0.182-0.576,0.422-0.769,0.72c-0.191,0.299-0.33,0.64-0.416,1.024
			c-0.085,0.384-0.128,0.779-0.128,1.184C102.722,89.82,102.772,90.196,102.874,90.564z"/>
		<path fill="#323232" d="M117.57,93.676c-0.352,0-0.632-0.099-0.84-0.296s-0.312-0.52-0.312-0.968
			c-0.373,0.448-0.808,0.771-1.304,0.968s-1.032,0.296-1.608,0.296c-0.373,0-0.725-0.04-1.056-0.12s-0.621-0.213-0.872-0.4
			c-0.251-0.186-0.448-0.426-0.592-0.72s-0.216-0.648-0.216-1.064c0-0.469,0.08-0.854,0.24-1.152
			c0.159-0.299,0.37-0.542,0.632-0.728c0.261-0.187,0.56-0.328,0.896-0.424c0.336-0.096,0.681-0.176,1.032-0.24
			c0.373-0.075,0.728-0.131,1.064-0.168c0.336-0.038,0.632-0.091,0.888-0.16s0.458-0.17,0.607-0.304
			c0.149-0.133,0.225-0.328,0.225-0.584c0-0.298-0.057-0.538-0.168-0.72c-0.112-0.181-0.256-0.32-0.433-0.416
			c-0.176-0.096-0.373-0.16-0.592-0.192c-0.219-0.032-0.435-0.048-0.647-0.048c-0.576,0-1.057,0.11-1.44,0.328
			c-0.384,0.219-0.592,0.632-0.624,1.24h-1.359c0.021-0.512,0.128-0.944,0.319-1.296c0.192-0.352,0.448-0.637,0.769-0.856
			c0.319-0.218,0.688-0.376,1.104-0.472c0.416-0.096,0.854-0.144,1.312-0.144c0.373,0,0.743,0.027,1.111,0.08s0.701,0.163,1,0.328
			c0.299,0.166,0.539,0.397,0.721,0.696c0.181,0.299,0.271,0.688,0.271,1.168v4.256c0,0.32,0.019,0.555,0.056,0.704
			c0.038,0.149,0.163,0.224,0.376,0.224c0.118,0,0.257-0.027,0.416-0.08v1.056C118.312,93.606,117.986,93.676,117.57,93.676z
			 M115.666,89.508c-0.277,0.059-0.567,0.107-0.872,0.144c-0.304,0.038-0.61,0.08-0.92,0.128c-0.31,0.048-0.587,0.125-0.832,0.232
			c-0.245,0.106-0.445,0.258-0.6,0.456c-0.155,0.198-0.232,0.467-0.232,0.808c0,0.224,0.046,0.414,0.137,0.568
			c0.09,0.154,0.208,0.28,0.352,0.376c0.145,0.096,0.314,0.166,0.512,0.208s0.397,0.064,0.601,0.064
			c0.448,0,0.832-0.062,1.151-0.184c0.32-0.123,0.582-0.277,0.784-0.464c0.203-0.187,0.353-0.39,0.448-0.608
			c0.096-0.218,0.144-0.424,0.144-0.616v-1.392C116.168,89.356,115.943,89.45,115.666,89.508z"/>
		<path fill="#323232" d="M123.346,85.228v1.2h-1.647v5.136c0,0.16,0.013,0.288,0.04,0.384c0.026,0.096,0.077,0.17,0.151,0.224
			c0.075,0.054,0.179,0.088,0.312,0.104c0.133,0.016,0.307,0.024,0.52,0.024h0.624v1.2h-1.04c-0.352,0-0.653-0.024-0.903-0.072
			c-0.251-0.048-0.454-0.136-0.608-0.264s-0.27-0.309-0.344-0.544c-0.075-0.234-0.112-0.544-0.112-0.928v-5.264h-1.408v-1.2h1.408
			v-2.48h1.36v2.48H123.346z"/>
		<path fill="#323232" d="M130.706,92.972c-0.618,0.469-1.397,0.704-2.336,0.704c-0.661,0-1.234-0.106-1.72-0.32
			s-0.894-0.512-1.225-0.896c-0.33-0.384-0.578-0.842-0.743-1.376c-0.166-0.533-0.259-1.114-0.28-1.744
			c0-0.629,0.096-1.205,0.288-1.728c0.191-0.522,0.461-0.976,0.808-1.36c0.347-0.384,0.758-0.683,1.232-0.896s0.994-0.32,1.56-0.32
			c0.736,0,1.347,0.152,1.832,0.456c0.485,0.304,0.875,0.69,1.168,1.16c0.293,0.47,0.496,0.981,0.608,1.536
			c0.111,0.555,0.157,1.083,0.136,1.584h-6.192c-0.011,0.363,0.032,0.707,0.128,1.032c0.097,0.325,0.251,0.613,0.465,0.864
			c0.213,0.251,0.484,0.451,0.815,0.6s0.72,0.224,1.168,0.224c0.576,0,1.048-0.133,1.416-0.4c0.368-0.266,0.61-0.672,0.729-1.216
			h1.344C131.725,91.804,131.324,92.503,130.706,92.972z M130.378,87.66c-0.122-0.288-0.288-0.536-0.496-0.744
			s-0.453-0.373-0.735-0.496c-0.283-0.123-0.595-0.184-0.937-0.184c-0.352,0-0.669,0.062-0.952,0.184
			c-0.282,0.123-0.525,0.291-0.728,0.504c-0.203,0.214-0.363,0.462-0.48,0.744c-0.117,0.283-0.187,0.584-0.208,0.904h4.752
			C130.572,88.252,130.501,87.948,130.378,87.66z"/>
		<path fill="#323232" d="M141.202,93.5v-8.128h-2.944v-1.088c0.385,0,0.758-0.029,1.12-0.088c0.362-0.058,0.69-0.168,0.984-0.328
			c0.293-0.16,0.541-0.379,0.744-0.656c0.202-0.277,0.341-0.629,0.416-1.056h1.04V93.5H141.202z"/>
		<path fill="#323232" d="M146.466,86.636c0.021-0.448,0.074-0.885,0.16-1.312c0.085-0.427,0.208-0.832,0.368-1.216
			c0.159-0.384,0.378-0.72,0.655-1.008s0.627-0.518,1.048-0.688c0.422-0.17,0.926-0.256,1.513-0.256c0.586,0,1.09,0.086,1.512,0.256
			c0.421,0.17,0.771,0.4,1.048,0.688s0.496,0.624,0.656,1.008c0.16,0.384,0.282,0.79,0.368,1.216
			c0.085,0.427,0.139,0.864,0.16,1.312c0.021,0.448,0.031,0.88,0.031,1.296s-0.011,0.848-0.031,1.296
			c-0.021,0.448-0.075,0.885-0.16,1.312c-0.086,0.427-0.208,0.83-0.368,1.208c-0.16,0.379-0.379,0.712-0.656,1
			s-0.624,0.515-1.04,0.68c-0.416,0.165-0.923,0.248-1.52,0.248c-0.587,0-1.091-0.083-1.513-0.248
			c-0.421-0.166-0.771-0.392-1.048-0.68s-0.496-0.621-0.655-1c-0.16-0.378-0.283-0.781-0.368-1.208
			c-0.086-0.427-0.139-0.864-0.16-1.312c-0.021-0.448-0.032-0.88-0.032-1.296S146.444,87.084,146.466,86.636z M147.914,89.348
			c0.026,0.528,0.111,1.024,0.256,1.488c0.144,0.464,0.376,0.856,0.695,1.176c0.32,0.32,0.769,0.48,1.345,0.48
			s1.023-0.16,1.344-0.48c0.32-0.32,0.552-0.712,0.696-1.176c0.144-0.464,0.229-0.96,0.256-1.488c0.026-0.528,0.04-1.005,0.04-1.432
			c0-0.277-0.003-0.584-0.008-0.92c-0.006-0.336-0.032-0.672-0.08-1.008c-0.048-0.336-0.118-0.664-0.208-0.984
			c-0.091-0.32-0.225-0.6-0.4-0.84c-0.176-0.24-0.397-0.435-0.664-0.584s-0.592-0.224-0.976-0.224s-0.71,0.075-0.977,0.224
			s-0.487,0.344-0.664,0.584c-0.176,0.24-0.31,0.52-0.399,0.84c-0.091,0.32-0.16,0.648-0.208,0.984
			c-0.048,0.336-0.075,0.672-0.08,1.008c-0.006,0.336-0.008,0.643-0.008,0.92C147.874,88.343,147.887,88.82,147.914,89.348z"/>
		<path fill="#323232" d="M157.761,91.724V93.5h-1.775v-1.776H157.761z"/>
		<path fill="#323232" d="M160.417,83.812c0.182-0.357,0.427-0.659,0.736-0.904c0.31-0.246,0.664-0.432,1.064-0.56
			c0.399-0.128,0.818-0.192,1.256-0.192c0.618,0,1.146,0.083,1.584,0.248c0.438,0.166,0.792,0.384,1.063,0.656
			c0.272,0.272,0.473,0.582,0.601,0.928c0.128,0.347,0.191,0.702,0.191,1.064c0,0.512-0.142,0.979-0.424,1.4
			s-0.664,0.739-1.144,0.952c0.683,0.214,1.189,0.563,1.52,1.048c0.331,0.485,0.496,1.08,0.496,1.784
			c0,0.555-0.099,1.046-0.296,1.472c-0.197,0.427-0.464,0.787-0.8,1.08s-0.733,0.515-1.192,0.664
			c-0.459,0.149-0.949,0.224-1.472,0.224c-0.544,0-1.051-0.069-1.521-0.208c-0.469-0.138-0.877-0.352-1.224-0.64
			s-0.619-0.648-0.816-1.08s-0.296-0.936-0.296-1.512c0-0.672,0.171-1.256,0.513-1.752c0.341-0.496,0.832-0.856,1.472-1.08
			c-0.48-0.192-0.864-0.504-1.152-0.936c-0.288-0.432-0.432-0.904-0.432-1.416C160.146,84.583,160.236,84.169,160.417,83.812z
			 M161.865,91.908c0.453,0.389,1.032,0.584,1.736,0.584c0.341,0,0.653-0.056,0.936-0.168c0.283-0.112,0.528-0.267,0.736-0.464
			c0.208-0.197,0.368-0.429,0.48-0.696c0.111-0.267,0.168-0.56,0.168-0.88c0-0.31-0.062-0.595-0.185-0.856s-0.291-0.488-0.504-0.68
			c-0.214-0.192-0.462-0.344-0.744-0.456s-0.584-0.168-0.903-0.168c-0.331,0-0.644,0.051-0.937,0.152
			c-0.293,0.102-0.55,0.248-0.768,0.44c-0.219,0.192-0.39,0.422-0.513,0.688c-0.122,0.267-0.184,0.566-0.184,0.896
			C161.186,90.983,161.412,91.519,161.865,91.908z M161.745,85.908c0.106,0.229,0.251,0.418,0.433,0.568
			c0.181,0.149,0.395,0.261,0.64,0.336s0.507,0.112,0.784,0.112c0.544,0,0.992-0.16,1.344-0.48c0.353-0.32,0.528-0.768,0.528-1.344
			c0-0.576-0.179-1.011-0.536-1.304c-0.357-0.293-0.813-0.44-1.368-0.44c-0.267,0-0.522,0.038-0.768,0.112
			c-0.246,0.075-0.456,0.187-0.632,0.336c-0.177,0.149-0.318,0.331-0.425,0.544s-0.159,0.464-0.159,0.752
			C161.586,85.41,161.639,85.679,161.745,85.908z"/>
		<path fill="#323232" d="M173.554,83.74v-1.664h1.36v1.664H173.554z M174.914,85.228V93.5h-1.36v-8.272H174.914z"/>
		<path fill="#323232" d="M178.065,91.652c0.128,0.208,0.296,0.374,0.504,0.496s0.442,0.211,0.704,0.264
			c0.261,0.053,0.53,0.08,0.808,0.08c0.213,0,0.438-0.016,0.672-0.048c0.234-0.032,0.45-0.09,0.648-0.176
			c0.197-0.085,0.359-0.21,0.487-0.376s0.192-0.376,0.192-0.632c0-0.352-0.134-0.618-0.4-0.8c-0.267-0.181-0.6-0.328-1-0.44
			c-0.399-0.112-0.834-0.213-1.304-0.304c-0.47-0.09-0.904-0.218-1.304-0.384c-0.4-0.165-0.733-0.397-1-0.696
			c-0.267-0.299-0.4-0.715-0.4-1.248c0-0.416,0.094-0.773,0.28-1.072c0.187-0.298,0.427-0.541,0.72-0.728
			c0.293-0.187,0.624-0.325,0.992-0.416c0.368-0.09,0.733-0.136,1.096-0.136c0.47,0,0.901,0.04,1.296,0.12
			c0.395,0.08,0.744,0.219,1.048,0.416c0.305,0.198,0.547,0.464,0.729,0.8s0.288,0.755,0.32,1.256h-1.36
			c-0.021-0.267-0.091-0.488-0.208-0.664c-0.117-0.176-0.267-0.317-0.448-0.424c-0.182-0.106-0.381-0.184-0.6-0.232
			c-0.219-0.048-0.44-0.072-0.664-0.072c-0.203,0-0.408,0.016-0.616,0.048c-0.208,0.032-0.397,0.088-0.567,0.168
			c-0.171,0.08-0.31,0.187-0.416,0.32c-0.107,0.133-0.16,0.307-0.16,0.52c0,0.235,0.082,0.43,0.248,0.584
			c0.165,0.155,0.376,0.283,0.632,0.384c0.256,0.102,0.544,0.187,0.864,0.256c0.319,0.069,0.64,0.142,0.96,0.216
			c0.341,0.075,0.674,0.166,1,0.272c0.325,0.107,0.613,0.248,0.863,0.424c0.251,0.176,0.453,0.397,0.608,0.664
			c0.154,0.267,0.231,0.598,0.231,0.992c0,0.501-0.104,0.917-0.312,1.248s-0.48,0.598-0.816,0.8
			c-0.336,0.203-0.714,0.344-1.136,0.424c-0.421,0.08-0.84,0.12-1.256,0.12c-0.459,0-0.896-0.048-1.312-0.144
			c-0.416-0.096-0.784-0.253-1.104-0.472s-0.576-0.506-0.768-0.864c-0.192-0.357-0.299-0.792-0.32-1.304h1.36
			C177.867,91.191,177.937,91.444,178.065,91.652z"/>
		<path fill="#323232" d="M190.705,85.228v1.744h0.032c0.33-0.672,0.736-1.168,1.216-1.488c0.48-0.32,1.088-0.469,1.824-0.448v1.44
			c-0.544,0-1.008,0.075-1.393,0.224c-0.384,0.149-0.693,0.368-0.928,0.656s-0.405,0.638-0.512,1.048
			c-0.106,0.411-0.16,0.883-0.16,1.416v3.68h-1.36v-8.272H190.705z"/>
		<path fill="#323232" d="M200.369,92.972c-0.618,0.469-1.397,0.704-2.336,0.704c-0.661,0-1.234-0.106-1.72-0.32
			s-0.894-0.512-1.225-0.896c-0.33-0.384-0.578-0.842-0.743-1.376c-0.166-0.533-0.259-1.114-0.28-1.744
			c0-0.629,0.096-1.205,0.288-1.728c0.191-0.522,0.461-0.976,0.808-1.36c0.347-0.384,0.758-0.683,1.232-0.896s0.994-0.32,1.56-0.32
			c0.736,0,1.347,0.152,1.832,0.456c0.485,0.304,0.875,0.69,1.168,1.16c0.293,0.47,0.496,0.981,0.608,1.536
			c0.111,0.555,0.157,1.083,0.136,1.584h-6.192c-0.011,0.363,0.032,0.707,0.128,1.032c0.097,0.325,0.251,0.613,0.465,0.864
			c0.213,0.251,0.484,0.451,0.815,0.6s0.72,0.224,1.168,0.224c0.576,0,1.048-0.133,1.416-0.4c0.368-0.266,0.61-0.672,0.729-1.216
			h1.344C201.388,91.804,200.987,92.503,200.369,92.972z M200.041,87.66c-0.122-0.288-0.288-0.536-0.496-0.744
			s-0.453-0.373-0.735-0.496c-0.283-0.123-0.595-0.184-0.937-0.184c-0.352,0-0.669,0.062-0.952,0.184
			c-0.282,0.123-0.525,0.291-0.728,0.504c-0.203,0.214-0.363,0.462-0.48,0.744c-0.117,0.283-0.187,0.584-0.208,0.904h4.752
			C200.235,88.252,200.164,87.948,200.041,87.66z"/>
		<path fill="#323232" d="M209.457,93.676c-0.352,0-0.632-0.099-0.84-0.296s-0.312-0.52-0.312-0.968
			c-0.373,0.448-0.808,0.771-1.304,0.968s-1.032,0.296-1.608,0.296c-0.373,0-0.725-0.04-1.056-0.12s-0.621-0.213-0.872-0.4
			c-0.251-0.186-0.448-0.426-0.592-0.72s-0.216-0.648-0.216-1.064c0-0.469,0.08-0.854,0.24-1.152
			c0.159-0.299,0.37-0.542,0.632-0.728c0.261-0.187,0.56-0.328,0.896-0.424c0.336-0.096,0.681-0.176,1.032-0.24
			c0.373-0.075,0.728-0.131,1.064-0.168c0.336-0.038,0.632-0.091,0.888-0.16s0.458-0.17,0.607-0.304
			c0.149-0.133,0.225-0.328,0.225-0.584c0-0.298-0.057-0.538-0.168-0.72c-0.112-0.181-0.256-0.32-0.433-0.416
			c-0.176-0.096-0.373-0.16-0.592-0.192c-0.219-0.032-0.435-0.048-0.647-0.048c-0.576,0-1.057,0.11-1.44,0.328
			c-0.384,0.219-0.592,0.632-0.624,1.24h-1.359c0.021-0.512,0.128-0.944,0.319-1.296c0.192-0.352,0.448-0.637,0.769-0.856
			c0.319-0.218,0.688-0.376,1.104-0.472c0.416-0.096,0.854-0.144,1.312-0.144c0.373,0,0.743,0.027,1.111,0.08s0.701,0.163,1,0.328
			c0.299,0.166,0.539,0.397,0.721,0.696c0.181,0.299,0.271,0.688,0.271,1.168v4.256c0,0.32,0.019,0.555,0.056,0.704
			c0.038,0.149,0.163,0.224,0.376,0.224c0.118,0,0.257-0.027,0.416-0.08v1.056C210.198,93.606,209.873,93.676,209.457,93.676z
			 M207.553,89.508c-0.277,0.059-0.567,0.107-0.872,0.144c-0.304,0.038-0.61,0.08-0.92,0.128c-0.31,0.048-0.587,0.125-0.832,0.232
			c-0.245,0.106-0.445,0.258-0.6,0.456c-0.155,0.198-0.232,0.467-0.232,0.808c0,0.224,0.046,0.414,0.137,0.568
			c0.09,0.154,0.208,0.28,0.352,0.376c0.145,0.096,0.314,0.166,0.512,0.208s0.397,0.064,0.601,0.064
			c0.448,0,0.832-0.062,1.151-0.184c0.32-0.123,0.582-0.277,0.784-0.464c0.203-0.187,0.353-0.39,0.448-0.608
			c0.096-0.218,0.144-0.424,0.144-0.616v-1.392C208.055,89.356,207.83,89.45,207.553,89.508z"/>
		<path fill="#323232" d="M217.729,93.5v-1.12h-0.031c-0.225,0.459-0.576,0.79-1.057,0.992c-0.479,0.203-1.008,0.304-1.584,0.304
			c-0.64,0-1.197-0.117-1.672-0.352c-0.475-0.235-0.869-0.549-1.184-0.944c-0.315-0.395-0.553-0.853-0.712-1.376
			c-0.16-0.522-0.24-1.077-0.24-1.664c0-0.586,0.077-1.141,0.231-1.664c0.155-0.522,0.39-0.979,0.704-1.368s0.71-0.699,1.185-0.928
			c0.475-0.229,1.026-0.344,1.655-0.344c0.214,0,0.443,0.021,0.688,0.064s0.49,0.115,0.736,0.216c0.245,0.102,0.477,0.235,0.695,0.4
			c0.219,0.166,0.402,0.371,0.553,0.616h0.031v-4.256h1.36V93.5H217.729z M212.841,90.564c0.102,0.368,0.256,0.696,0.464,0.984
			s0.475,0.518,0.8,0.688c0.325,0.171,0.707,0.256,1.145,0.256c0.458,0,0.848-0.091,1.168-0.272c0.32-0.182,0.581-0.419,0.784-0.712
			c0.202-0.293,0.349-0.626,0.439-1c0.091-0.373,0.136-0.752,0.136-1.136c0-0.405-0.048-0.797-0.144-1.176
			c-0.096-0.378-0.248-0.712-0.456-1c-0.208-0.288-0.478-0.52-0.808-0.696c-0.331-0.176-0.731-0.264-1.2-0.264
			c-0.459,0-0.848,0.091-1.168,0.272c-0.32,0.182-0.576,0.422-0.769,0.72c-0.191,0.299-0.33,0.64-0.416,1.024
			c-0.085,0.384-0.128,0.779-0.128,1.184C212.688,89.82,212.739,90.196,212.841,90.564z"/>
		<path fill="#323232" d="M223.961,95.612c-0.154,0.277-0.325,0.504-0.512,0.68s-0.392,0.304-0.616,0.384
			c-0.224,0.08-0.49,0.12-0.8,0.12c-0.16,0-0.32-0.011-0.48-0.032c-0.159-0.021-0.314-0.059-0.464-0.112v-1.248
			c0.128,0.042,0.259,0.085,0.393,0.128c0.133,0.042,0.269,0.064,0.407,0.064c0.277,0,0.502-0.064,0.673-0.192
			c0.17-0.128,0.319-0.314,0.447-0.56l0.561-1.392l-3.28-8.224h1.536l2.416,6.768h0.032l2.319-6.768h1.44l-3.6,9.36
			C224.273,94.993,224.115,95.334,223.961,95.612z"/>
	</g>
	<g>
		<path fill="#323232" d="M91.168,142.076c1.76,0,3.114,0.448,4.064,1.344c0.949,0.896,1.424,2.262,1.424,4.096
			c0,0.96-0.107,1.811-0.32,2.552c-0.214,0.742-0.544,1.366-0.992,1.872c-0.447,0.507-1.019,0.894-1.712,1.16s-1.515,0.4-2.464,0.4
			h-3.92v-11.424H91.168z M91.296,152.22c0.171,0,0.384-0.014,0.64-0.04c0.257-0.027,0.528-0.091,0.816-0.192
			c0.288-0.101,0.573-0.248,0.856-0.44c0.282-0.192,0.535-0.453,0.76-0.784c0.224-0.331,0.408-0.744,0.552-1.24
			c0.145-0.496,0.216-1.096,0.216-1.8c0-0.683-0.066-1.293-0.2-1.832c-0.133-0.539-0.352-0.998-0.655-1.376
			c-0.305-0.378-0.696-0.667-1.177-0.864c-0.479-0.197-1.071-0.296-1.775-0.296h-2.561v8.864H91.296z"/>
		<path fill="#323232" d="M104.144,152.972c-0.618,0.469-1.397,0.704-2.336,0.704c-0.661,0-1.234-0.106-1.72-0.32
			s-0.894-0.512-1.225-0.896c-0.33-0.384-0.578-0.842-0.743-1.376c-0.166-0.533-0.259-1.114-0.28-1.744
			c0-0.629,0.096-1.205,0.288-1.728c0.191-0.522,0.461-0.976,0.808-1.36c0.347-0.384,0.758-0.683,1.232-0.896s0.994-0.32,1.56-0.32
			c0.736,0,1.347,0.152,1.832,0.456c0.485,0.304,0.875,0.69,1.168,1.16c0.293,0.47,0.496,0.981,0.608,1.536
			c0.111,0.555,0.157,1.083,0.136,1.584h-6.192c-0.011,0.363,0.032,0.707,0.128,1.032c0.097,0.325,0.251,0.613,0.465,0.864
			c0.213,0.251,0.484,0.451,0.815,0.6s0.72,0.224,1.168,0.224c0.576,0,1.048-0.133,1.416-0.4c0.368-0.266,0.61-0.672,0.729-1.216
			h1.344C105.162,151.804,104.762,152.503,104.144,152.972z M103.815,147.66c-0.122-0.288-0.288-0.536-0.496-0.744
			s-0.453-0.373-0.735-0.496c-0.283-0.123-0.595-0.184-0.937-0.184c-0.352,0-0.669,0.062-0.952,0.184
			c-0.282,0.123-0.525,0.291-0.728,0.504c-0.203,0.214-0.363,0.462-0.48,0.744c-0.117,0.283-0.187,0.584-0.208,0.904h4.752
			C104.01,148.252,103.938,147.948,103.815,147.66z"/>
		<path fill="#323232" d="M108.287,145.228v1.12h0.032c0.225-0.458,0.576-0.792,1.056-1c0.48-0.208,1.009-0.312,1.584-0.312
			c0.641,0,1.197,0.117,1.673,0.352c0.475,0.234,0.869,0.552,1.184,0.952c0.314,0.4,0.552,0.862,0.712,1.384s0.24,1.077,0.24,1.664
			c0,0.586-0.077,1.141-0.232,1.664c-0.154,0.523-0.39,0.979-0.704,1.368c-0.314,0.39-0.709,0.696-1.184,0.92
			c-0.475,0.224-1.026,0.336-1.656,0.336c-0.202,0-0.43-0.021-0.68-0.064c-0.251-0.042-0.499-0.112-0.744-0.208
			c-0.245-0.096-0.478-0.226-0.696-0.392s-0.402-0.371-0.552-0.616h-0.032v4.256h-1.359v-11.424H108.287z M113.176,148.164
			c-0.102-0.368-0.256-0.696-0.464-0.984c-0.208-0.288-0.476-0.518-0.801-0.688c-0.325-0.171-0.706-0.256-1.144-0.256
			c-0.459,0-0.848,0.091-1.168,0.272c-0.32,0.182-0.582,0.419-0.784,0.712c-0.203,0.293-0.35,0.626-0.44,1
			c-0.09,0.373-0.136,0.752-0.136,1.136c0,0.406,0.048,0.797,0.145,1.176c0.096,0.378,0.248,0.712,0.456,1
			c0.208,0.288,0.477,0.52,0.808,0.696c0.33,0.176,0.73,0.264,1.2,0.264c0.469,0,0.861-0.091,1.176-0.272
			c0.314-0.182,0.568-0.421,0.76-0.72c0.192-0.298,0.331-0.64,0.416-1.024c0.086-0.384,0.128-0.779,0.128-1.184
			C113.327,148.908,113.276,148.532,113.176,148.164z"/>
		<path fill="#323232" d="M117.808,142.076V153.5h-1.36v-11.424H117.808z"/>
		<path fill="#323232" d="M119.728,147.668c0.171-0.528,0.427-0.986,0.768-1.376c0.342-0.389,0.763-0.696,1.265-0.92
			c0.501-0.224,1.077-0.336,1.728-0.336c0.661,0,1.24,0.112,1.736,0.336s0.914,0.531,1.256,0.92c0.341,0.39,0.598,0.848,0.768,1.376
			c0.171,0.528,0.257,1.096,0.257,1.704s-0.086,1.173-0.257,1.696c-0.17,0.523-0.427,0.979-0.768,1.368
			c-0.342,0.39-0.76,0.693-1.256,0.912c-0.496,0.218-1.075,0.328-1.736,0.328c-0.65,0-1.227-0.109-1.728-0.328
			c-0.502-0.219-0.923-0.522-1.265-0.912c-0.341-0.389-0.597-0.845-0.768-1.368c-0.171-0.522-0.256-1.088-0.256-1.696
			S119.557,148.196,119.728,147.668z M121.111,150.708c0.134,0.39,0.317,0.715,0.552,0.976c0.235,0.261,0.51,0.461,0.824,0.6
			s0.648,0.208,1,0.208c0.353,0,0.686-0.069,1-0.208s0.59-0.339,0.824-0.6s0.419-0.586,0.552-0.976c0.134-0.389,0.2-0.834,0.2-1.336
			s-0.066-0.947-0.2-1.336c-0.133-0.389-0.317-0.717-0.552-0.984c-0.234-0.266-0.51-0.469-0.824-0.608
			c-0.314-0.138-0.647-0.208-1-0.208c-0.352,0-0.686,0.07-1,0.208c-0.314,0.139-0.589,0.342-0.824,0.608
			c-0.234,0.267-0.418,0.595-0.552,0.984s-0.2,0.834-0.2,1.336S120.978,150.319,121.111,150.708z"/>
		<path fill="#323232" d="M131.879,155.612c-0.154,0.277-0.325,0.504-0.512,0.68s-0.392,0.304-0.616,0.384
			c-0.224,0.08-0.49,0.12-0.8,0.12c-0.16,0-0.32-0.011-0.48-0.032c-0.159-0.021-0.314-0.059-0.464-0.112v-1.248
			c0.128,0.042,0.259,0.085,0.393,0.128c0.133,0.042,0.269,0.064,0.407,0.064c0.277,0,0.502-0.064,0.673-0.192
			c0.17-0.128,0.319-0.314,0.447-0.56l0.561-1.392l-3.28-8.224h1.536l2.416,6.768h0.032l2.319-6.768h1.44l-3.6,9.36
			C132.191,154.993,132.033,155.334,131.879,155.612z"/>
		<path fill="#323232" d="M138.383,145.228v1.216h0.032c0.618-0.938,1.51-1.408,2.672-1.408c0.512,0,0.977,0.106,1.393,0.32
			s0.709,0.576,0.88,1.088c0.277-0.448,0.643-0.794,1.096-1.04c0.453-0.245,0.952-0.368,1.496-0.368
			c0.416,0,0.792,0.045,1.128,0.136c0.336,0.091,0.624,0.232,0.864,0.424c0.239,0.192,0.426,0.44,0.56,0.744
			c0.134,0.304,0.2,0.669,0.2,1.096v6.064h-1.36v-5.424c0-0.256-0.021-0.496-0.063-0.72c-0.043-0.224-0.123-0.418-0.24-0.584
			c-0.117-0.165-0.28-0.296-0.488-0.392c-0.208-0.096-0.478-0.144-0.808-0.144c-0.672,0-1.2,0.192-1.584,0.576
			s-0.576,0.896-0.576,1.536v5.152h-1.36v-5.424c0-0.267-0.023-0.512-0.071-0.736c-0.048-0.224-0.131-0.418-0.248-0.584
			c-0.118-0.165-0.275-0.293-0.473-0.384c-0.197-0.09-0.45-0.136-0.76-0.136c-0.395,0-0.733,0.08-1.016,0.24
			c-0.283,0.16-0.512,0.352-0.688,0.576c-0.176,0.224-0.304,0.456-0.384,0.696c-0.08,0.24-0.12,0.44-0.12,0.6v5.152h-1.359v-8.272
			H138.383z"/>
		<path fill="#323232" d="M156.606,152.972c-0.618,0.469-1.397,0.704-2.336,0.704c-0.661,0-1.234-0.106-1.72-0.32
			s-0.894-0.512-1.225-0.896c-0.33-0.384-0.578-0.842-0.743-1.376c-0.166-0.533-0.259-1.114-0.28-1.744
			c0-0.629,0.096-1.205,0.288-1.728c0.191-0.522,0.461-0.976,0.808-1.36c0.347-0.384,0.758-0.683,1.232-0.896s0.994-0.32,1.56-0.32
			c0.736,0,1.347,0.152,1.832,0.456c0.485,0.304,0.875,0.69,1.168,1.16c0.293,0.47,0.496,0.981,0.608,1.536
			c0.111,0.555,0.157,1.083,0.136,1.584h-6.192c-0.011,0.363,0.032,0.707,0.128,1.032c0.097,0.325,0.251,0.613,0.465,0.864
			c0.213,0.251,0.484,0.451,0.815,0.6s0.72,0.224,1.168,0.224c0.576,0,1.048-0.133,1.416-0.4c0.368-0.266,0.61-0.672,0.729-1.216
			h1.344C157.625,151.804,157.225,152.503,156.606,152.972z M156.278,147.66c-0.122-0.288-0.288-0.536-0.496-0.744
			s-0.453-0.373-0.735-0.496c-0.283-0.123-0.595-0.184-0.937-0.184c-0.352,0-0.669,0.062-0.952,0.184
			c-0.282,0.123-0.525,0.291-0.728,0.504c-0.203,0.214-0.363,0.462-0.48,0.744c-0.117,0.283-0.187,0.584-0.208,0.904h4.752
			C156.473,148.252,156.401,147.948,156.278,147.66z"/>
		<path fill="#323232" d="M160.622,145.228v1.312h0.032c0.565-1.002,1.461-1.504,2.688-1.504c0.544,0,0.997,0.075,1.359,0.224
			c0.362,0.15,0.656,0.358,0.88,0.624c0.225,0.267,0.382,0.584,0.473,0.952c0.09,0.368,0.136,0.776,0.136,1.224v5.44h-1.36v-5.6
			c0-0.512-0.149-0.917-0.447-1.216c-0.299-0.298-0.71-0.448-1.232-0.448c-0.416,0-0.776,0.064-1.08,0.192
			c-0.304,0.128-0.558,0.309-0.76,0.544c-0.203,0.234-0.354,0.509-0.456,0.824c-0.102,0.315-0.152,0.659-0.152,1.032v4.672h-1.359
			v-8.272H160.622z"/>
		<path fill="#323232" d="M171.774,145.228v1.2h-1.647v5.136c0,0.16,0.013,0.288,0.04,0.384c0.026,0.096,0.077,0.17,0.151,0.224
			c0.075,0.054,0.179,0.088,0.312,0.104c0.133,0.016,0.307,0.024,0.52,0.024h0.624v1.2h-1.04c-0.352,0-0.653-0.024-0.903-0.072
			c-0.251-0.048-0.454-0.136-0.608-0.264s-0.27-0.309-0.344-0.544c-0.075-0.234-0.112-0.544-0.112-0.928v-5.264h-1.408v-1.2h1.408
			v-2.48h1.36v2.48H171.774z"/>
		<path fill="#323232" d="M178.768,151.652c0.128,0.208,0.296,0.374,0.504,0.496s0.442,0.211,0.704,0.264
			c0.261,0.053,0.53,0.08,0.808,0.08c0.213,0,0.438-0.016,0.672-0.048c0.234-0.032,0.45-0.09,0.648-0.176
			c0.197-0.085,0.359-0.21,0.487-0.376s0.192-0.376,0.192-0.632c0-0.352-0.134-0.618-0.4-0.8c-0.267-0.181-0.6-0.328-1-0.44
			c-0.399-0.112-0.834-0.213-1.304-0.304c-0.47-0.09-0.904-0.218-1.304-0.384c-0.4-0.165-0.733-0.397-1-0.696
			c-0.267-0.299-0.4-0.715-0.4-1.248c0-0.416,0.094-0.773,0.28-1.072c0.187-0.298,0.427-0.541,0.72-0.728
			c0.293-0.187,0.624-0.325,0.992-0.416c0.368-0.09,0.733-0.136,1.096-0.136c0.47,0,0.901,0.04,1.296,0.12
			c0.395,0.08,0.744,0.219,1.048,0.416c0.305,0.198,0.547,0.464,0.729,0.8s0.288,0.755,0.32,1.256h-1.36
			c-0.021-0.267-0.091-0.488-0.208-0.664c-0.117-0.176-0.267-0.317-0.448-0.424c-0.182-0.106-0.381-0.184-0.6-0.232
			c-0.219-0.048-0.44-0.072-0.664-0.072c-0.203,0-0.408,0.016-0.616,0.048c-0.208,0.032-0.397,0.088-0.567,0.168
			c-0.171,0.08-0.31,0.187-0.416,0.32c-0.107,0.133-0.16,0.307-0.16,0.52c0,0.235,0.082,0.43,0.248,0.584
			c0.165,0.155,0.376,0.283,0.632,0.384c0.256,0.102,0.544,0.187,0.864,0.256c0.319,0.069,0.64,0.142,0.96,0.216
			c0.341,0.075,0.674,0.166,1,0.272c0.325,0.107,0.613,0.248,0.863,0.424c0.251,0.176,0.453,0.397,0.608,0.664
			c0.154,0.267,0.231,0.598,0.231,0.992c0,0.501-0.104,0.917-0.312,1.248s-0.48,0.598-0.816,0.8
			c-0.336,0.203-0.714,0.344-1.136,0.424c-0.421,0.08-0.84,0.12-1.256,0.12c-0.459,0-0.896-0.048-1.312-0.144
			c-0.416-0.096-0.784-0.253-1.104-0.472s-0.576-0.506-0.768-0.864c-0.192-0.357-0.299-0.792-0.32-1.304h1.36
			C178.569,151.191,178.639,151.444,178.768,151.652z"/>
		<path fill="#323232" d="M191.295,153.5v-1.312h-0.032c-0.287,0.512-0.655,0.888-1.104,1.128c-0.448,0.24-0.976,0.36-1.584,0.36
			c-0.544,0-0.998-0.072-1.36-0.216s-0.655-0.349-0.88-0.616c-0.224-0.267-0.381-0.584-0.472-0.952
			c-0.091-0.368-0.136-0.776-0.136-1.224v-5.44h1.359v5.6c0,0.512,0.149,0.917,0.448,1.216c0.299,0.299,0.709,0.448,1.232,0.448
			c0.416,0,0.775-0.064,1.079-0.192c0.305-0.128,0.558-0.309,0.761-0.544c0.202-0.234,0.354-0.509,0.456-0.824
			c0.101-0.314,0.151-0.659,0.151-1.032v-4.672h1.36v8.272H191.295z"/>
		<path fill="#323232" d="M199.566,146.668c-0.341-0.288-0.8-0.432-1.376-0.432c-0.49,0-0.901,0.091-1.231,0.272
			c-0.331,0.182-0.595,0.422-0.792,0.72c-0.198,0.299-0.339,0.643-0.425,1.032c-0.085,0.39-0.128,0.792-0.128,1.208
			c0,0.384,0.046,0.758,0.137,1.12c0.09,0.363,0.231,0.686,0.424,0.968c0.191,0.283,0.442,0.509,0.752,0.68
			c0.31,0.171,0.677,0.256,1.104,0.256c0.672,0,1.197-0.176,1.576-0.528s0.61-0.848,0.696-1.488h1.392
			c-0.149,1.024-0.53,1.813-1.144,2.368s-1.448,0.832-2.504,0.832c-0.63,0-1.187-0.101-1.672-0.304
			c-0.486-0.203-0.892-0.491-1.217-0.864c-0.325-0.373-0.57-0.818-0.735-1.336c-0.166-0.517-0.248-1.085-0.248-1.704
			c0-0.618,0.08-1.197,0.24-1.736c0.159-0.539,0.402-1.008,0.728-1.408c0.325-0.4,0.733-0.715,1.224-0.944
			c0.491-0.229,1.062-0.344,1.713-0.344c0.469,0,0.909,0.056,1.319,0.168c0.411,0.112,0.773,0.285,1.088,0.52
			s0.573,0.531,0.776,0.888c0.202,0.358,0.33,0.782,0.384,1.272h-1.408C200.132,147.361,199.908,146.956,199.566,146.668z"/>
		<path fill="#323232" d="M208.158,146.668c-0.341-0.288-0.8-0.432-1.376-0.432c-0.49,0-0.901,0.091-1.231,0.272
			c-0.331,0.182-0.595,0.422-0.792,0.72c-0.198,0.299-0.339,0.643-0.425,1.032c-0.085,0.39-0.128,0.792-0.128,1.208
			c0,0.384,0.046,0.758,0.137,1.12c0.09,0.363,0.231,0.686,0.424,0.968c0.191,0.283,0.442,0.509,0.752,0.68
			c0.31,0.171,0.677,0.256,1.104,0.256c0.672,0,1.197-0.176,1.576-0.528s0.61-0.848,0.696-1.488h1.392
			c-0.149,1.024-0.53,1.813-1.144,2.368s-1.448,0.832-2.504,0.832c-0.63,0-1.187-0.101-1.672-0.304
			c-0.486-0.203-0.892-0.491-1.217-0.864c-0.325-0.373-0.57-0.818-0.735-1.336c-0.166-0.517-0.248-1.085-0.248-1.704
			c0-0.618,0.08-1.197,0.24-1.736c0.159-0.539,0.402-1.008,0.728-1.408c0.325-0.4,0.733-0.715,1.224-0.944
			c0.491-0.229,1.062-0.344,1.713-0.344c0.469,0,0.909,0.056,1.319,0.168c0.411,0.112,0.773,0.285,1.088,0.52
			s0.573,0.531,0.776,0.888c0.202,0.358,0.33,0.782,0.384,1.272h-1.408C208.724,147.361,208.5,146.956,208.158,146.668z"/>
		<path fill="#323232" d="M217.662,152.972c-0.618,0.469-1.397,0.704-2.336,0.704c-0.661,0-1.234-0.106-1.72-0.32
			s-0.894-0.512-1.225-0.896c-0.33-0.384-0.578-0.842-0.743-1.376c-0.166-0.533-0.259-1.114-0.28-1.744
			c0-0.629,0.096-1.205,0.288-1.728c0.191-0.522,0.461-0.976,0.808-1.36c0.347-0.384,0.758-0.683,1.232-0.896s0.994-0.32,1.56-0.32
			c0.736,0,1.347,0.152,1.832,0.456c0.485,0.304,0.875,0.69,1.168,1.16c0.293,0.47,0.496,0.981,0.608,1.536
			c0.111,0.555,0.157,1.083,0.136,1.584h-6.192c-0.011,0.363,0.032,0.707,0.128,1.032c0.097,0.325,0.251,0.613,0.465,0.864
			c0.213,0.251,0.484,0.451,0.815,0.6s0.72,0.224,1.168,0.224c0.576,0,1.048-0.133,1.416-0.4c0.368-0.266,0.61-0.672,0.729-1.216
			h1.344C218.681,151.804,218.28,152.503,217.662,152.972z M217.334,147.66c-0.122-0.288-0.288-0.536-0.496-0.744
			s-0.453-0.373-0.735-0.496c-0.283-0.123-0.595-0.184-0.937-0.184c-0.352,0-0.669,0.062-0.952,0.184
			c-0.282,0.123-0.525,0.291-0.728,0.504c-0.203,0.214-0.363,0.462-0.48,0.744c-0.117,0.283-0.187,0.584-0.208,0.904h4.752
			C217.528,148.252,217.457,147.948,217.334,147.66z"/>
		<path fill="#323232" d="M221.438,151.652c0.128,0.208,0.296,0.374,0.504,0.496s0.442,0.211,0.704,0.264
			c0.261,0.053,0.53,0.08,0.808,0.08c0.213,0,0.438-0.016,0.672-0.048c0.234-0.032,0.45-0.09,0.648-0.176
			c0.197-0.085,0.359-0.21,0.487-0.376s0.192-0.376,0.192-0.632c0-0.352-0.134-0.618-0.4-0.8c-0.267-0.181-0.6-0.328-1-0.44
			c-0.399-0.112-0.834-0.213-1.304-0.304c-0.47-0.09-0.904-0.218-1.304-0.384c-0.4-0.165-0.733-0.397-1-0.696
			c-0.267-0.299-0.4-0.715-0.4-1.248c0-0.416,0.094-0.773,0.28-1.072c0.187-0.298,0.427-0.541,0.72-0.728
			c0.293-0.187,0.624-0.325,0.992-0.416c0.368-0.09,0.733-0.136,1.096-0.136c0.47,0,0.901,0.04,1.296,0.12
			c0.395,0.08,0.744,0.219,1.048,0.416c0.305,0.198,0.547,0.464,0.729,0.8s0.288,0.755,0.32,1.256h-1.36
			c-0.021-0.267-0.091-0.488-0.208-0.664c-0.117-0.176-0.267-0.317-0.448-0.424c-0.182-0.106-0.381-0.184-0.6-0.232
			c-0.219-0.048-0.44-0.072-0.664-0.072c-0.203,0-0.408,0.016-0.616,0.048c-0.208,0.032-0.397,0.088-0.567,0.168
			c-0.171,0.08-0.31,0.187-0.416,0.32c-0.107,0.133-0.16,0.307-0.16,0.52c0,0.235,0.082,0.43,0.248,0.584
			c0.165,0.155,0.376,0.283,0.632,0.384c0.256,0.102,0.544,0.187,0.864,0.256c0.319,0.069,0.64,0.142,0.96,0.216
			c0.341,0.075,0.674,0.166,1,0.272c0.325,0.107,0.613,0.248,0.863,0.424c0.251,0.176,0.453,0.397,0.608,0.664
			c0.154,0.267,0.231,0.598,0.231,0.992c0,0.501-0.104,0.917-0.312,1.248s-0.48,0.598-0.816,0.8
			c-0.336,0.203-0.714,0.344-1.136,0.424c-0.421,0.08-0.84,0.12-1.256,0.12c-0.459,0-0.896-0.048-1.312-0.144
			c-0.416-0.096-0.784-0.253-1.104-0.472s-0.576-0.506-0.768-0.864c-0.192-0.357-0.299-0.792-0.32-1.304h1.36
			C221.24,151.191,221.31,151.444,221.438,151.652z"/>
		<path fill="#323232" d="M229.438,151.652c0.128,0.208,0.296,0.374,0.504,0.496s0.442,0.211,0.704,0.264
			c0.261,0.053,0.53,0.08,0.808,0.08c0.213,0,0.438-0.016,0.672-0.048c0.234-0.032,0.45-0.09,0.648-0.176
			c0.197-0.085,0.359-0.21,0.487-0.376s0.192-0.376,0.192-0.632c0-0.352-0.134-0.618-0.4-0.8c-0.267-0.181-0.6-0.328-1-0.44
			c-0.399-0.112-0.834-0.213-1.304-0.304c-0.47-0.09-0.904-0.218-1.304-0.384c-0.4-0.165-0.733-0.397-1-0.696
			c-0.267-0.299-0.4-0.715-0.4-1.248c0-0.416,0.094-0.773,0.28-1.072c0.187-0.298,0.427-0.541,0.72-0.728
			c0.293-0.187,0.624-0.325,0.992-0.416c0.368-0.09,0.733-0.136,1.096-0.136c0.47,0,0.901,0.04,1.296,0.12
			c0.395,0.08,0.744,0.219,1.048,0.416c0.305,0.198,0.547,0.464,0.729,0.8s0.288,0.755,0.32,1.256h-1.36
			c-0.021-0.267-0.091-0.488-0.208-0.664c-0.117-0.176-0.267-0.317-0.448-0.424c-0.182-0.106-0.381-0.184-0.6-0.232
			c-0.219-0.048-0.44-0.072-0.664-0.072c-0.203,0-0.408,0.016-0.616,0.048c-0.208,0.032-0.397,0.088-0.567,0.168
			c-0.171,0.08-0.31,0.187-0.416,0.32c-0.107,0.133-0.16,0.307-0.16,0.52c0,0.235,0.082,0.43,0.248,0.584
			c0.165,0.155,0.376,0.283,0.632,0.384c0.256,0.102,0.544,0.187,0.864,0.256c0.319,0.069,0.64,0.142,0.96,0.216
			c0.341,0.075,0.674,0.166,1,0.272c0.325,0.107,0.613,0.248,0.863,0.424c0.251,0.176,0.453,0.397,0.608,0.664
			c0.154,0.267,0.231,0.598,0.231,0.992c0,0.501-0.104,0.917-0.312,1.248s-0.48,0.598-0.816,0.8
			c-0.336,0.203-0.714,0.344-1.136,0.424c-0.421,0.08-0.84,0.12-1.256,0.12c-0.459,0-0.896-0.048-1.312-0.144
			c-0.416-0.096-0.784-0.253-1.104-0.472s-0.576-0.506-0.768-0.864c-0.192-0.357-0.299-0.792-0.32-1.304h1.36
			C229.24,151.191,229.31,151.444,229.438,151.652z"/>
		<path fill="#323232" d="M235.566,146.428v-1.2h1.392v-1.232c0-0.672,0.194-1.181,0.584-1.528c0.39-0.346,0.957-0.52,1.704-0.52
			c0.128,0,0.274,0.011,0.439,0.032c0.166,0.021,0.312,0.054,0.44,0.096v1.184c-0.117-0.042-0.245-0.072-0.384-0.088
			s-0.267-0.024-0.384-0.024c-0.331,0-0.587,0.064-0.769,0.192s-0.271,0.374-0.271,0.736v1.152h1.6v1.2h-1.6v7.072h-1.36v-7.072
			H235.566z"/>
		<path fill="#323232" d="M246.701,153.5v-1.312h-0.032c-0.287,0.512-0.655,0.888-1.104,1.128c-0.448,0.24-0.976,0.36-1.584,0.36
			c-0.544,0-0.998-0.072-1.36-0.216s-0.655-0.349-0.88-0.616c-0.224-0.267-0.381-0.584-0.472-0.952
			c-0.091-0.368-0.136-0.776-0.136-1.224v-5.44h1.359v5.6c0,0.512,0.149,0.917,0.448,1.216c0.299,0.299,0.709,0.448,1.232,0.448
			c0.416,0,0.775-0.064,1.079-0.192c0.305-0.128,0.558-0.309,0.761-0.544c0.202-0.234,0.354-0.509,0.456-0.824
			c0.101-0.314,0.151-0.659,0.151-1.032v-4.672h1.36v8.272H246.701z"/>
		<path fill="#323232" d="M251.47,142.076V153.5h-1.36v-11.424H251.47z"/>
		<path fill="#323232" d="M255.021,142.076V153.5h-1.36v-11.424H255.021z"/>
	</g>
	<g>
		<path fill="#E71D32" d="M67.727,17.722c-4.295-4.295-11.261-4.295-15.556,0s-4.295,11.261,0,15.556
			c4.295,4.295,11.261,4.295,15.556,0S72.022,22.017,67.727,17.722z M62.777,29.743l-2.828-2.828l-2.828,2.828l-1.414-1.414
			l2.828-2.828l-2.828-2.828l1.414-1.414l2.828,2.828l2.828-2.828l1.414,1.414L61.363,25.5l2.828,2.828L62.777,29.743z"/>
	</g>
	<g>
		<path fill="#FF5003" d="M71,98.494H49l11-19.07L71,98.494z M59,86.494v2l0.266,4.984l1.468,0.016l0.267-5v-2H59z M60,94.494
			c-0.553,0-1,0.448-1,1s0.447,1,1,1s1-0.448,1-1S60.553,94.494,60,94.494z"/>
	</g>
	<g>
		<path fill="#6EB400" d="M59.793,153.755l-3.707-3.707l1.414-1.414l2.293,2.293l5.293-5.293l1.414,1.414L59.793,153.755z
			 M69.071,141.917c-4.295-4.295-11.261-4.295-15.556,0s-4.295,11.261,0,15.556c4.295,4.295,11.261,4.295,15.556,0
			C73.367,153.178,73.366,146.212,69.071,141.917z"/>
	</g>
</g>
<g id="Layer_3" display="none">
	<g display="inline" opacity="0.2">
		<g>
			<line fill="none" stroke="#00FFFF" stroke-miterlimit="10" x1="-524" y1="149" x2="500" y2="149"/>
		</g>
		<g>
			<line fill="none" stroke="#00FFFF" stroke-miterlimit="10" x1="-524" y1="143" x2="500" y2="143"/>
		</g>
		<g>
			<line fill="none" stroke="#00FFFF" stroke-miterlimit="10" x1="-524" y1="137" x2="500" y2="137"/>
		</g>
		<g>
			<line fill="none" stroke="#00FFFF" stroke-miterlimit="10" x1="-524" y1="131" x2="500" y2="131"/>
		</g>
		<g>
			<line fill="none" stroke="#00FFFF" stroke-miterlimit="10" x1="-524" y1="125" x2="500" y2="125"/>
		</g>
		<g>
			<line fill="none" stroke="#00FFFF" stroke-miterlimit="10" x1="-524" y1="119" x2="500" y2="119"/>
		</g>
		<g>
			<line fill="none" stroke="#00FFFF" stroke-miterlimit="10" x1="-524" y1="113" x2="500" y2="113"/>
		</g>
		<g>
			<line fill="none" stroke="#00FFFF" stroke-miterlimit="10" x1="-524" y1="107" x2="500" y2="107"/>
		</g>
		<g>
			<line fill="none" stroke="#00FFFF" stroke-miterlimit="10" x1="-524" y1="101" x2="500" y2="101"/>
		</g>
		<g>
			<line fill="none" stroke="#00FFFF" stroke-miterlimit="10" x1="-524" y1="95" x2="500" y2="95"/>
		</g>
		<g>
			<line fill="none" stroke="#00FFFF" stroke-miterlimit="10" x1="-524" y1="89" x2="500" y2="89"/>
		</g>
		<g>
			<line fill="none" stroke="#00FFFF" stroke-miterlimit="10" x1="-524" y1="83" x2="500" y2="83"/>
		</g>
		<g>
			<line fill="none" stroke="#00FFFF" stroke-miterlimit="10" x1="-524" y1="77" x2="500" y2="77"/>
		</g>
		<g>
			<line fill="none" stroke="#00FFFF" stroke-miterlimit="10" x1="-524" y1="71" x2="500" y2="71"/>
		</g>
		<g>
			<line fill="none" stroke="#00FFFF" stroke-miterlimit="10" x1="-524" y1="65" x2="500" y2="65"/>
		</g>
		<g>
			<line fill="none" stroke="#00FFFF" stroke-miterlimit="10" x1="-524" y1="59" x2="500" y2="59"/>
		</g>
		<g>
			<line fill="none" stroke="#00FFFF" stroke-miterlimit="10" x1="-524" y1="53" x2="500" y2="53"/>
		</g>
		<g>
			<line fill="none" stroke="#00FFFF" stroke-miterlimit="10" x1="-524" y1="47" x2="500" y2="47"/>
		</g>
		<g>
			<line fill="none" stroke="#00FFFF" stroke-miterlimit="10" x1="-524" y1="41" x2="500" y2="41"/>
		</g>
		<g>
			<line fill="none" stroke="#00FFFF" stroke-miterlimit="10" x1="-524" y1="35" x2="500" y2="35"/>
		</g>
		<g>
			<line fill="none" stroke="#00FFFF" stroke-miterlimit="10" x1="-524" y1="29" x2="500" y2="29"/>
		</g>
		<g>
			<line fill="none" stroke="#00FFFF" stroke-miterlimit="10" x1="-524" y1="23" x2="500" y2="23"/>
		</g>
		<g>
			<line fill="none" stroke="#00FFFF" stroke-miterlimit="10" x1="-524" y1="17" x2="500" y2="17"/>
		</g>
		<g>
			<line fill="none" stroke="#00FFFF" stroke-miterlimit="10" x1="-524" y1="11" x2="500" y2="11"/>
		</g>
		<g>
			<line fill="none" stroke="#00FFFF" stroke-miterlimit="10" x1="-524" y1="5" x2="500" y2="5"/>
		</g>
	</g>
</g>
<g id="Layer_2" display="none">
	<rect y="-5850.618" display="inline" opacity="0.08" fill="#00FFFF" width="60" height="10542.133"/>
	<rect x="84" y="-5850.618" display="inline" opacity="0.08" fill="#00FFFF" width="60" height="10542.133"/>
	<rect x="168" y="-5850.618" display="inline" opacity="0.08" fill="#00FFFF" width="60" height="10542.133"/>
	<rect x="252" y="-5850.618" display="inline" opacity="0.08" fill="#00FFFF" width="60" height="10542.133"/>
</g>
</svg>
