<?xml version="1.0" encoding="utf-8"?>
<!-- Generator: Adobe Illustrator 18.0.0, SVG Export Plug-In . SVG Version: 6.00 Build 0)  -->
<!DOCTYPE svg PUBLIC "-//W3C//DTD SVG 1.1//EN" "http://www.w3.org/Graphics/SVG/1.1/DTD/svg11.dtd">
<svg version="1.1" id="Layer_1" xmlns="http://www.w3.org/2000/svg" xmlns:xlink="http://www.w3.org/1999/xlink" x="0px" y="0px"
	 viewBox="0 0 316 323" width="316" height="323" enable-background="new 0 0 316 323" xml:space="preserve">
<g>
	<rect fill="#464646" width="316" height="323"/>
</g>
<g>
	<g>
		<path fill="#FFFFFF" d="M41.1,41.6l4.5,11.5h-1.2L43,49.5h-5.2l-1.4,3.6h-1.2l4.6-11.5H41.1z M42.6,48.6l-2.2-5.9l-2.3,5.9H42.6z"
			/>
	</g>
	<g>
		<path fill="#FFFFFF" d="M47.4,41.6v11.5h-1V41.6H47.4z"/>
	</g>
	<g>
		<path fill="#FFFFFF" d="M50.4,41.6v11.5h-1V41.6H50.4z"/>
	</g>
	<g>
		<path fill="#FFFFFF" d="M60.1,44.8v0.9h-1.7v5.6c0,0.3,0,0.6,0.1,0.8c0.1,0.2,0.3,0.3,0.7,0.3c0.3,0,0.6,0,0.9,0v0.9
			c-0.1,0-0.3,0-0.4,0s-0.3,0-0.4,0c-0.7,0-1.1-0.1-1.4-0.4s-0.4-0.7-0.4-1.5v-5.7H56v-0.9h1.4v-2.5h1v2.5H60.1z"/>
	</g>
	<g>
		<path fill="#FFFFFF" d="M61.8,46.1c0.2-0.4,0.4-0.6,0.7-0.9s0.6-0.4,1-0.5c0.4-0.1,0.8-0.2,1.3-0.2c0.4,0,0.7,0,1.1,0.1
			c0.4,0.1,0.7,0.2,1,0.4c0.3,0.2,0.5,0.5,0.7,0.8c0.2,0.3,0.3,0.8,0.3,1.4v4.4c0,0.4,0.2,0.6,0.6,0.6c0.1,0,0.2,0,0.3-0.1V53
			c-0.1,0-0.2,0-0.3,0c-0.1,0-0.2,0-0.3,0c-0.3,0-0.5,0-0.6-0.1c-0.2-0.1-0.3-0.2-0.4-0.3c-0.1-0.1-0.1-0.3-0.2-0.5
			c0-0.2,0-0.4,0-0.6h0c-0.2,0.3-0.4,0.5-0.6,0.7c-0.2,0.2-0.4,0.4-0.6,0.5c-0.2,0.1-0.5,0.2-0.8,0.3c-0.3,0.1-0.6,0.1-1.1,0.1
			c-0.4,0-0.7,0-1.1-0.1s-0.6-0.2-0.9-0.4c-0.3-0.2-0.4-0.4-0.6-0.8s-0.2-0.7-0.2-1.1c0-0.6,0.1-1,0.4-1.4s0.6-0.6,1-0.7
			c0.4-0.2,0.9-0.3,1.4-0.4c0.5-0.1,1.1-0.1,1.6-0.2c0.2,0,0.4,0,0.6-0.1c0.2,0,0.3-0.1,0.4-0.2c0.1-0.1,0.2-0.2,0.2-0.3
			c0.1-0.1,0.1-0.3,0.1-0.5c0-0.3-0.1-0.6-0.2-0.8c-0.1-0.2-0.3-0.4-0.5-0.5c-0.2-0.1-0.4-0.2-0.7-0.3c-0.3,0-0.5-0.1-0.8-0.1
			c-0.6,0-1.2,0.2-1.6,0.5c-0.4,0.3-0.6,0.8-0.6,1.5h-1C61.5,46.8,61.6,46.4,61.8,46.1z M66.8,48.5c-0.1,0.1-0.2,0.2-0.4,0.3
			c-0.2,0.1-0.3,0.1-0.5,0.1c-0.4,0.1-0.9,0.1-1.3,0.2c-0.5,0.1-0.9,0.1-1.2,0.3c-0.4,0.1-0.7,0.3-0.9,0.5c-0.2,0.2-0.4,0.5-0.4,0.9
			c0,0.3,0.1,0.5,0.2,0.7c0.1,0.2,0.2,0.4,0.4,0.5s0.4,0.3,0.6,0.3s0.5,0.1,0.7,0.1c0.4,0,0.8-0.1,1.1-0.2c0.4-0.1,0.7-0.3,0.9-0.5
			s0.5-0.5,0.6-0.8c0.2-0.3,0.2-0.7,0.2-1.1L66.8,48.5L66.8,48.5z"/>
	</g>
	<g>
		<path fill="#FFFFFF" d="M74.7,46.4c-0.1-0.2-0.3-0.4-0.5-0.6c-0.2-0.2-0.4-0.3-0.7-0.3s-0.5-0.1-0.8-0.1c-0.2,0-0.5,0-0.7,0.1
			c-0.2,0-0.4,0.1-0.6,0.2c-0.2,0.1-0.3,0.3-0.5,0.4c-0.1,0.2-0.2,0.4-0.2,0.7c0,0.2,0.1,0.4,0.2,0.6s0.3,0.3,0.4,0.4
			c0.2,0.1,0.4,0.2,0.6,0.3c0.2,0.1,0.4,0.1,0.6,0.2l1.3,0.3c0.3,0,0.6,0.1,0.9,0.2c0.3,0.1,0.5,0.3,0.8,0.4
			c0.2,0.2,0.4,0.4,0.5,0.7c0.1,0.3,0.2,0.6,0.2,0.9c0,0.4-0.1,0.8-0.3,1.1s-0.5,0.6-0.8,0.8c-0.3,0.2-0.7,0.3-1.1,0.4
			c-0.4,0.1-0.8,0.1-1.2,0.1c-1,0-1.8-0.2-2.4-0.7s-0.9-1.2-1-2.2h1c0,0.7,0.3,1.2,0.7,1.5c0.5,0.3,1,0.5,1.7,0.5
			c0.2,0,0.5,0,0.8-0.1c0.3-0.1,0.5-0.1,0.7-0.3c0.2-0.1,0.4-0.3,0.6-0.5c0.1-0.2,0.2-0.4,0.2-0.7c0-0.2-0.1-0.5-0.2-0.6
			s-0.2-0.3-0.4-0.4c-0.2-0.1-0.4-0.2-0.6-0.3c-0.2-0.1-0.4-0.1-0.7-0.2L72,49.1c-0.3-0.1-0.6-0.2-0.9-0.3c-0.3-0.1-0.5-0.3-0.7-0.4
			S70,48,69.9,47.8c-0.1-0.2-0.2-0.5-0.2-0.9c0-0.4,0.1-0.8,0.3-1.1c0.2-0.3,0.4-0.5,0.7-0.7c0.3-0.2,0.6-0.3,1-0.4
			c0.4-0.1,0.7-0.1,1.1-0.1c0.4,0,0.8,0.1,1.2,0.2c0.4,0.1,0.7,0.3,0.9,0.5c0.3,0.2,0.5,0.5,0.6,0.8c0.2,0.3,0.3,0.7,0.3,1.2h-1
			C74.8,46.9,74.8,46.6,74.7,46.4z"/>
	</g>
	<g>
		<path fill="#FFFFFF" d="M78.6,41.6v7.2l4.6-4h1.3L81,47.8l3.8,5.2h-1.3l-3.3-4.5l-1.6,1.4v3.1h-1V41.6H78.6z"/>
	</g>
	<g>
		<path fill="#FFFFFF" d="M90.4,46.4c-0.1-0.2-0.3-0.4-0.5-0.6c-0.2-0.2-0.4-0.3-0.7-0.3s-0.5-0.1-0.8-0.1c-0.2,0-0.5,0-0.7,0.1
			c-0.2,0-0.4,0.1-0.6,0.2c-0.2,0.1-0.3,0.3-0.5,0.4c-0.1,0.2-0.2,0.4-0.2,0.7c0,0.2,0.1,0.4,0.2,0.6s0.3,0.3,0.4,0.4
			c0.2,0.1,0.4,0.2,0.6,0.3c0.2,0.1,0.4,0.1,0.6,0.2l1.3,0.3c0.3,0,0.6,0.1,0.9,0.2c0.3,0.1,0.5,0.3,0.8,0.4
			c0.2,0.2,0.4,0.4,0.5,0.7c0.1,0.3,0.2,0.6,0.2,0.9c0,0.4-0.1,0.8-0.3,1.1s-0.5,0.6-0.8,0.8c-0.3,0.2-0.7,0.3-1.1,0.4
			c-0.4,0.1-0.8,0.1-1.2,0.1c-1,0-1.8-0.2-2.4-0.7s-0.9-1.2-1-2.2h1c0,0.7,0.3,1.2,0.7,1.5c0.5,0.3,1,0.5,1.7,0.5
			c0.2,0,0.5,0,0.8-0.1c0.3-0.1,0.5-0.1,0.7-0.3c0.2-0.1,0.4-0.3,0.6-0.5c0.1-0.2,0.2-0.4,0.2-0.7c0-0.2-0.1-0.5-0.2-0.6
			s-0.2-0.3-0.4-0.4c-0.2-0.1-0.4-0.2-0.6-0.3c-0.2-0.1-0.4-0.1-0.7-0.2l-1.3-0.3c-0.3-0.1-0.6-0.2-0.9-0.3
			c-0.3-0.1-0.5-0.3-0.7-0.4s-0.4-0.4-0.5-0.6c-0.1-0.2-0.2-0.5-0.2-0.9c0-0.4,0.1-0.8,0.3-1.1c0.2-0.3,0.4-0.5,0.7-0.7
			c0.3-0.2,0.6-0.3,1-0.4c0.4-0.1,0.7-0.1,1.1-0.1c0.4,0,0.8,0.1,1.2,0.2c0.4,0.1,0.7,0.3,0.9,0.5c0.3,0.2,0.5,0.5,0.6,0.8
			c0.2,0.3,0.3,0.7,0.3,1.2h-1C90.6,46.9,90.5,46.6,90.4,46.4z"/>
	</g>
</g>
<g>
	<rect x="33" y="66" fill="#ADADAD" width="283" height="1"/>
</g>
<g>
	<g>
		<path fill="#FFFFFF" d="M70.8,95.2c0.2-0.6,0.5-1.2,0.9-1.7c0.4-0.5,0.9-0.9,1.5-1.2c0.6-0.3,1.3-0.4,2.1-0.4
			c0.8,0,1.5,0.1,2.1,0.4c0.6,0.3,1.1,0.7,1.5,1.2c0.4,0.5,0.7,1,0.9,1.7c0.2,0.6,0.3,1.3,0.3,2c0,0.7-0.1,1.3-0.3,2
			s-0.5,1.2-0.9,1.7c-0.4,0.5-0.9,0.9-1.5,1.2c-0.6,0.3-1.3,0.4-2.1,0.4c-0.8,0-1.5-0.1-2.1-0.4c-0.6-0.3-1.1-0.7-1.5-1.2
			c-0.4-0.5-0.7-1-0.9-1.7s-0.3-1.3-0.3-2C70.5,96.4,70.6,95.8,70.8,95.2z M72,98.6c0.1,0.5,0.3,0.9,0.6,1.3
			c0.3,0.4,0.6,0.7,1.1,0.9c0.4,0.2,1,0.4,1.6,0.4c0.6,0,1.1-0.1,1.6-0.4c0.4-0.2,0.8-0.6,1.1-0.9c0.3-0.4,0.5-0.8,0.6-1.3
			c0.1-0.5,0.2-1,0.2-1.5s-0.1-1-0.2-1.5s-0.3-0.9-0.6-1.3c-0.3-0.4-0.6-0.7-1.1-0.9c-0.4-0.2-1-0.4-1.6-0.4c-0.6,0-1.1,0.1-1.6,0.4
			c-0.4,0.2-0.8,0.6-1.1,0.9c-0.3,0.4-0.5,0.8-0.6,1.3s-0.2,1-0.2,1.5S71.9,98.1,72,98.6z"/>
	</g>
	<g>
		<path fill="#FFFFFF" d="M82.7,94.9v1h0c0.2-0.4,0.5-0.7,0.9-0.9s0.9-0.3,1.4-0.3c0.6,0,1,0.1,1.5,0.3c0.4,0.2,0.8,0.5,1,0.8
			s0.5,0.8,0.6,1.2c0.1,0.5,0.2,0.9,0.2,1.5s-0.1,1-0.2,1.5c-0.1,0.5-0.3,0.9-0.6,1.2s-0.6,0.6-1,0.8s-0.9,0.3-1.4,0.3
			c-0.2,0-0.4,0-0.6-0.1c-0.2,0-0.4-0.1-0.7-0.2s-0.4-0.2-0.6-0.3c-0.2-0.1-0.4-0.3-0.5-0.5h0v3.7h-1.2v-10H82.7z M87,97.4
			c-0.1-0.3-0.2-0.6-0.4-0.9s-0.4-0.5-0.7-0.6c-0.3-0.2-0.6-0.2-1-0.2c-0.4,0-0.7,0.1-1,0.2c-0.3,0.2-0.5,0.4-0.7,0.6
			c-0.2,0.3-0.3,0.5-0.4,0.9c-0.1,0.3-0.1,0.7-0.1,1c0,0.4,0,0.7,0.1,1s0.2,0.6,0.4,0.9s0.4,0.5,0.7,0.6c0.3,0.2,0.6,0.2,1.1,0.2
			c0.4,0,0.8-0.1,1-0.2c0.3-0.2,0.5-0.4,0.7-0.6c0.2-0.3,0.3-0.6,0.4-0.9c0.1-0.3,0.1-0.7,0.1-1C87.2,98.1,87.1,97.8,87,97.4z"/>
	</g>
	<g>
		<path fill="#FFFFFF" d="M94.9,101.7c-0.5,0.4-1.2,0.6-2,0.6c-0.6,0-1.1-0.1-1.5-0.3c-0.4-0.2-0.8-0.4-1.1-0.8
			c-0.3-0.3-0.5-0.7-0.7-1.2s-0.2-1-0.2-1.5c0-0.5,0.1-1.1,0.3-1.5c0.2-0.5,0.4-0.9,0.7-1.2c0.3-0.3,0.7-0.6,1.1-0.8
			c0.4-0.2,0.9-0.3,1.4-0.3c0.6,0,1.2,0.1,1.6,0.4c0.4,0.3,0.8,0.6,1,1c0.3,0.4,0.4,0.9,0.5,1.3s0.1,0.9,0.1,1.4h-5.4
			c0,0.3,0,0.6,0.1,0.9s0.2,0.5,0.4,0.8s0.4,0.4,0.7,0.5c0.3,0.1,0.6,0.2,1,0.2c0.5,0,0.9-0.1,1.2-0.4s0.5-0.6,0.6-1.1H96
			C95.8,100.6,95.5,101.2,94.9,101.7z M94.7,97c-0.1-0.3-0.3-0.5-0.4-0.7c-0.2-0.2-0.4-0.3-0.6-0.4s-0.5-0.2-0.8-0.2
			c-0.3,0-0.6,0.1-0.8,0.2c-0.2,0.1-0.5,0.3-0.6,0.4c-0.2,0.2-0.3,0.4-0.4,0.7s-0.2,0.5-0.2,0.8h4.2C94.8,97.5,94.8,97.3,94.7,97z"
			/>
	</g>
	<g>
		<path fill="#FFFFFF" d="M98.5,94.9V96h0c0.5-0.9,1.3-1.3,2.4-1.3c0.5,0,0.9,0.1,1.2,0.2c0.3,0.1,0.6,0.3,0.8,0.5
			c0.2,0.2,0.3,0.5,0.4,0.8s0.1,0.7,0.1,1.1v4.8h-1.2v-4.9c0-0.4-0.1-0.8-0.4-1.1c-0.3-0.3-0.6-0.4-1.1-0.4c-0.4,0-0.7,0.1-0.9,0.2
			s-0.5,0.3-0.7,0.5c-0.2,0.2-0.3,0.4-0.4,0.7c-0.1,0.3-0.1,0.6-0.1,0.9v4.1h-1.2v-7.2H98.5z"/>
	</g>
	<g>
		<path fill="#FFFFFF" d="M112.1,94.9v1h-1.4v4.5c0,0.1,0,0.3,0,0.3s0.1,0.1,0.1,0.2c0.1,0,0.2,0.1,0.3,0.1c0.1,0,0.3,0,0.5,0h0.5v1
			h-0.9c-0.3,0-0.6,0-0.8-0.1s-0.4-0.1-0.5-0.2c-0.1-0.1-0.2-0.3-0.3-0.5c-0.1-0.2-0.1-0.5-0.1-0.8v-4.6h-1.2v-1h1.2v-2.2h1.2v2.2
			H112.1z"/>
	</g>
	<g>
		<path fill="#FFFFFF" d="M113.5,93.6v-1.5h1.2v1.5H113.5z M114.7,94.9v7.2h-1.2v-7.2H114.7z"/>
	</g>
	<g>
		<path fill="#FFFFFF" d="M120.9,96.1c-0.3-0.3-0.7-0.4-1.2-0.4c-0.4,0-0.8,0.1-1.1,0.2c-0.3,0.2-0.5,0.4-0.7,0.6
			c-0.2,0.3-0.3,0.6-0.4,0.9c-0.1,0.3-0.1,0.7-0.1,1.1c0,0.3,0,0.7,0.1,1c0.1,0.3,0.2,0.6,0.4,0.8c0.2,0.2,0.4,0.4,0.7,0.6
			c0.3,0.1,0.6,0.2,1,0.2c0.6,0,1-0.2,1.4-0.5c0.3-0.3,0.5-0.7,0.6-1.3h1.2c-0.1,0.9-0.5,1.6-1,2.1c-0.5,0.5-1.3,0.7-2.2,0.7
			c-0.6,0-1-0.1-1.5-0.3c-0.4-0.2-0.8-0.4-1.1-0.8c-0.3-0.3-0.5-0.7-0.6-1.2c-0.1-0.5-0.2-0.9-0.2-1.5s0.1-1,0.2-1.5
			c0.1-0.5,0.4-0.9,0.6-1.2c0.3-0.4,0.6-0.6,1.1-0.8s0.9-0.3,1.5-0.3c0.4,0,0.8,0,1.2,0.1c0.4,0.1,0.7,0.2,1,0.5
			c0.3,0.2,0.5,0.5,0.7,0.8c0.2,0.3,0.3,0.7,0.3,1.1h-1.2C121.3,96.7,121.2,96.4,120.9,96.1z"/>
	</g>
	<g>
		<path fill="#FFFFFF" d="M125.3,92.1V98l3.3-3.2h1.6l-2.9,2.6l3.1,4.6h-1.5l-2.5-3.8l-1.1,1v2.7h-1.2v-10H125.3z"/>
	</g>
	<g>
		<path fill="#FFFFFF" d="M136.4,101.7c-0.5,0.4-1.2,0.6-2,0.6c-0.6,0-1.1-0.1-1.5-0.3c-0.4-0.2-0.8-0.4-1.1-0.8s-0.5-0.7-0.7-1.2
			s-0.2-1-0.2-1.5c0-0.5,0.1-1.1,0.3-1.5c0.2-0.5,0.4-0.9,0.7-1.2c0.3-0.3,0.7-0.6,1.1-0.8c0.4-0.2,0.9-0.3,1.4-0.3
			c0.6,0,1.2,0.1,1.6,0.4c0.4,0.3,0.8,0.6,1,1c0.3,0.4,0.4,0.9,0.5,1.3c0.1,0.5,0.1,0.9,0.1,1.4h-5.4c0,0.3,0,0.6,0.1,0.9
			s0.2,0.5,0.4,0.8c0.2,0.2,0.4,0.4,0.7,0.5c0.3,0.1,0.6,0.2,1,0.2c0.5,0,0.9-0.1,1.2-0.4s0.5-0.6,0.6-1.1h1.2
			C137.3,100.6,137,101.2,136.4,101.7z M136.1,97c-0.1-0.3-0.3-0.5-0.4-0.7c-0.2-0.2-0.4-0.3-0.6-0.4c-0.2-0.1-0.5-0.2-0.8-0.2
			c-0.3,0-0.6,0.1-0.8,0.2c-0.2,0.1-0.5,0.3-0.6,0.4c-0.2,0.2-0.3,0.4-0.4,0.7c-0.1,0.2-0.2,0.5-0.2,0.8h4.2
			C136.3,97.5,136.3,97.3,136.1,97z"/>
	</g>
	<g>
		<path fill="#FFFFFF" d="M141.9,94.9v1h-1.4v4.5c0,0.1,0,0.3,0,0.3s0.1,0.1,0.1,0.2c0.1,0,0.2,0.1,0.3,0.1s0.3,0,0.5,0h0.5v1H141
			c-0.3,0-0.6,0-0.8-0.1c-0.2,0-0.4-0.1-0.5-0.2c-0.1-0.1-0.2-0.3-0.3-0.5c-0.1-0.2-0.1-0.5-0.1-0.8v-4.6h-1.2v-1h1.2v-2.2h1.2v2.2
			H141.9z"/>
	</g>
	<g>
		<path fill="#FFFFFF" d="M146.4,95.9v-1h1.2v-1.1c0-0.6,0.2-1,0.5-1.3c0.3-0.3,0.8-0.5,1.5-0.5c0.1,0,0.2,0,0.4,0
			c0.1,0,0.3,0,0.4,0.1v1c-0.1,0-0.2-0.1-0.3-0.1c-0.1,0-0.2,0-0.3,0c-0.3,0-0.5,0.1-0.7,0.2s-0.2,0.3-0.2,0.6v1h1.4v1h-1.4v6.2
			h-1.2v-6.2H146.4z"/>
	</g>
	<g>
		<path fill="#FFFFFF" d="M151.1,97c0.2-0.5,0.4-0.9,0.7-1.2c0.3-0.3,0.7-0.6,1.1-0.8c0.4-0.2,0.9-0.3,1.5-0.3
			c0.6,0,1.1,0.1,1.5,0.3c0.4,0.2,0.8,0.5,1.1,0.8c0.3,0.3,0.5,0.7,0.7,1.2c0.2,0.5,0.2,1,0.2,1.5c0,0.5-0.1,1-0.2,1.5
			c-0.1,0.5-0.4,0.9-0.7,1.2s-0.7,0.6-1.1,0.8c-0.4,0.2-0.9,0.3-1.5,0.3c-0.6,0-1.1-0.1-1.5-0.3c-0.4-0.2-0.8-0.5-1.1-0.8
			c-0.3-0.3-0.5-0.7-0.7-1.2c-0.1-0.5-0.2-1-0.2-1.5C150.9,98,151,97.5,151.1,97z M152.3,99.7c0.1,0.3,0.3,0.6,0.5,0.9
			s0.4,0.4,0.7,0.5c0.3,0.1,0.6,0.2,0.9,0.2s0.6-0.1,0.9-0.2c0.3-0.1,0.5-0.3,0.7-0.5s0.4-0.5,0.5-0.9c0.1-0.3,0.2-0.7,0.2-1.2
			c0-0.4-0.1-0.8-0.2-1.2c-0.1-0.3-0.3-0.6-0.5-0.9s-0.4-0.4-0.7-0.5s-0.6-0.2-0.9-0.2s-0.6,0.1-0.9,0.2s-0.5,0.3-0.7,0.5
			s-0.4,0.5-0.5,0.9c-0.1,0.3-0.2,0.7-0.2,1.2C152.1,98.9,152.2,99.3,152.3,99.7z"/>
	</g>
	<g>
		<path fill="#FFFFFF" d="M160.4,94.9v1.5h0c0.3-0.6,0.6-1,1.1-1.3c0.4-0.3,1-0.4,1.6-0.4V96c-0.5,0-0.9,0.1-1.2,0.2
			s-0.6,0.3-0.8,0.6s-0.4,0.6-0.4,0.9c-0.1,0.4-0.1,0.8-0.1,1.2v3.2h-1.2v-7.2H160.4z"/>
	</g>
	<g>
		<path fill="#FFFFFF" d="M173.1,102.1v-1h0c-0.2,0.4-0.5,0.7-0.9,0.9s-0.9,0.3-1.4,0.3c-0.6,0-1-0.1-1.5-0.3
			c-0.4-0.2-0.8-0.5-1-0.8s-0.5-0.7-0.6-1.2c-0.1-0.5-0.2-0.9-0.2-1.5c0-0.5,0.1-1,0.2-1.5c0.1-0.5,0.3-0.9,0.6-1.2
			c0.3-0.3,0.6-0.6,1-0.8c0.4-0.2,0.9-0.3,1.4-0.3c0.2,0,0.4,0,0.6,0.1s0.4,0.1,0.6,0.2c0.2,0.1,0.4,0.2,0.6,0.3s0.4,0.3,0.5,0.5h0
			v-3.7h1.2v10H173.1z M168.9,99.5c0.1,0.3,0.2,0.6,0.4,0.9s0.4,0.5,0.7,0.6s0.6,0.2,1,0.2c0.4,0,0.7-0.1,1-0.2
			c0.3-0.2,0.5-0.4,0.7-0.6c0.2-0.3,0.3-0.5,0.4-0.9c0.1-0.3,0.1-0.7,0.1-1c0-0.4,0-0.7-0.1-1c-0.1-0.3-0.2-0.6-0.4-0.9
			c-0.2-0.3-0.4-0.5-0.7-0.6c-0.3-0.2-0.6-0.2-1.1-0.2c-0.4,0-0.7,0.1-1,0.2c-0.3,0.2-0.5,0.4-0.7,0.6s-0.3,0.6-0.4,0.9
			s-0.1,0.7-0.1,1C168.7,98.9,168.8,99.2,168.9,99.5z"/>
	</g>
	<g>
		<path fill="#FFFFFF" d="M181.3,101.7c-0.5,0.4-1.2,0.6-2,0.6c-0.6,0-1.1-0.1-1.5-0.3c-0.4-0.2-0.8-0.4-1.1-0.8s-0.5-0.7-0.7-1.2
			s-0.2-1-0.2-1.5c0-0.5,0.1-1.1,0.3-1.5c0.2-0.5,0.4-0.9,0.7-1.2c0.3-0.3,0.7-0.6,1.1-0.8c0.4-0.2,0.9-0.3,1.4-0.3
			c0.6,0,1.2,0.1,1.6,0.4c0.4,0.3,0.8,0.6,1,1c0.3,0.4,0.4,0.9,0.5,1.3c0.1,0.5,0.1,0.9,0.1,1.4H177c0,0.3,0,0.6,0.1,0.9
			s0.2,0.5,0.4,0.8c0.2,0.2,0.4,0.4,0.7,0.5c0.3,0.1,0.6,0.2,1,0.2c0.5,0,0.9-0.1,1.2-0.4s0.5-0.6,0.6-1.1h1.2
			C182.2,100.6,181.8,101.2,181.3,101.7z M181,97c-0.1-0.3-0.3-0.5-0.4-0.7c-0.2-0.2-0.4-0.3-0.6-0.4c-0.2-0.1-0.5-0.2-0.8-0.2
			c-0.3,0-0.6,0.1-0.8,0.2c-0.2,0.1-0.5,0.3-0.6,0.4c-0.2,0.2-0.3,0.4-0.4,0.7c-0.1,0.2-0.2,0.5-0.2,0.8h4.2
			C181.2,97.5,181.1,97.3,181,97z"/>
	</g>
	<g>
		<path fill="#FFFFFF" d="M184.9,94.9v1h0c0.2-0.4,0.5-0.7,0.9-0.9s0.9-0.3,1.4-0.3c0.6,0,1,0.1,1.5,0.3c0.4,0.2,0.8,0.5,1,0.8
			s0.5,0.8,0.6,1.2c0.1,0.5,0.2,0.9,0.2,1.5s-0.1,1-0.2,1.5c-0.1,0.5-0.3,0.9-0.6,1.2s-0.6,0.6-1,0.8s-0.9,0.3-1.4,0.3
			c-0.2,0-0.4,0-0.6-0.1c-0.2,0-0.4-0.1-0.7-0.2s-0.4-0.2-0.6-0.3c-0.2-0.1-0.4-0.3-0.5-0.5h0v3.7h-1.2v-10H184.9z M189.2,97.4
			c-0.1-0.3-0.2-0.6-0.4-0.9s-0.4-0.5-0.7-0.6c-0.3-0.2-0.6-0.2-1-0.2c-0.4,0-0.7,0.1-1,0.2c-0.3,0.2-0.5,0.4-0.7,0.6
			c-0.2,0.3-0.3,0.5-0.4,0.9c-0.1,0.3-0.1,0.7-0.1,1c0,0.4,0,0.7,0.1,1s0.2,0.6,0.4,0.9s0.4,0.5,0.7,0.6c0.3,0.2,0.6,0.2,1.1,0.2
			c0.4,0,0.8-0.1,1-0.2c0.3-0.2,0.5-0.4,0.7-0.6c0.2-0.3,0.3-0.6,0.4-0.9c0.1-0.3,0.1-0.7,0.1-1C189.3,98.1,189.3,97.8,189.2,97.4z"
			/>
	</g>
	<g>
		<path fill="#FFFFFF" d="M193.2,92.1v10h-1.2v-10H193.2z"/>
	</g>
	<g>
		<path fill="#FFFFFF" d="M194.9,97c0.1-0.5,0.4-0.9,0.7-1.2c0.3-0.3,0.7-0.6,1.1-0.8c0.4-0.2,0.9-0.3,1.5-0.3
			c0.6,0,1.1,0.1,1.5,0.3c0.4,0.2,0.8,0.5,1.1,0.8c0.3,0.3,0.5,0.7,0.7,1.2c0.1,0.5,0.2,1,0.2,1.5c0,0.5-0.1,1-0.2,1.5
			c-0.2,0.5-0.4,0.9-0.7,1.2s-0.7,0.6-1.1,0.8s-0.9,0.3-1.5,0.3c-0.6,0-1.1-0.1-1.5-0.3c-0.4-0.2-0.8-0.5-1.1-0.8s-0.5-0.7-0.7-1.2
			c-0.2-0.5-0.2-1-0.2-1.5C194.7,98,194.8,97.5,194.9,97z M196.1,99.7c0.1,0.3,0.3,0.6,0.5,0.9s0.4,0.4,0.7,0.5
			c0.3,0.1,0.6,0.2,0.9,0.2c0.3,0,0.6-0.1,0.9-0.2c0.3-0.1,0.5-0.3,0.7-0.5c0.2-0.2,0.4-0.5,0.5-0.9s0.2-0.7,0.2-1.2
			c0-0.4-0.1-0.8-0.2-1.2s-0.3-0.6-0.5-0.9c-0.2-0.2-0.4-0.4-0.7-0.5s-0.6-0.2-0.9-0.2c-0.3,0-0.6,0.1-0.9,0.2s-0.5,0.3-0.7,0.5
			s-0.4,0.5-0.5,0.9s-0.2,0.7-0.2,1.2C196,98.9,196,99.3,196.1,99.7z"/>
	</g>
	<g>
		<path fill="#FFFFFF" d="M205.6,104c-0.1,0.2-0.3,0.4-0.4,0.6c-0.2,0.2-0.3,0.3-0.5,0.3c-0.2,0.1-0.4,0.1-0.7,0.1
			c-0.1,0-0.3,0-0.4,0s-0.3-0.1-0.4-0.1v-1.1c0.1,0,0.2,0.1,0.3,0.1c0.1,0,0.2,0.1,0.4,0.1c0.2,0,0.4-0.1,0.6-0.2
			c0.2-0.1,0.3-0.3,0.4-0.5l0.5-1.2l-2.9-7.2h1.3l2.1,5.9h0l2-5.9h1.3l-3.2,8.2C205.8,103.4,205.7,103.7,205.6,104z"/>
	</g>
	<g>
		<path fill="#FFFFFF" d="M211.2,94.9v1.1h0c0.5-0.8,1.3-1.2,2.3-1.2c0.4,0,0.9,0.1,1.2,0.3c0.4,0.2,0.6,0.5,0.8,1
			c0.2-0.4,0.6-0.7,1-0.9s0.8-0.3,1.3-0.3c0.4,0,0.7,0,1,0.1c0.3,0.1,0.5,0.2,0.8,0.4c0.2,0.2,0.4,0.4,0.5,0.7
			c0.1,0.3,0.2,0.6,0.2,1v5.3h-1.2v-4.7c0-0.2,0-0.4-0.1-0.6c0-0.2-0.1-0.4-0.2-0.5c-0.1-0.1-0.2-0.3-0.4-0.3s-0.4-0.1-0.7-0.1
			c-0.6,0-1.1,0.2-1.4,0.5s-0.5,0.8-0.5,1.3v4.5h-1.2v-4.7c0-0.2,0-0.4-0.1-0.6c0-0.2-0.1-0.4-0.2-0.5c-0.1-0.1-0.2-0.3-0.4-0.3
			c-0.2-0.1-0.4-0.1-0.7-0.1c-0.3,0-0.6,0.1-0.9,0.2c-0.2,0.1-0.4,0.3-0.6,0.5s-0.3,0.4-0.3,0.6c-0.1,0.2-0.1,0.4-0.1,0.5v4.5h-1.2
			v-7.2H211.2z"/>
	</g>
	<g>
		<path fill="#FFFFFF" d="M227.2,101.7c-0.5,0.4-1.2,0.6-2,0.6c-0.6,0-1.1-0.1-1.5-0.3c-0.4-0.2-0.8-0.4-1.1-0.8
			c-0.3-0.3-0.5-0.7-0.7-1.2s-0.2-1-0.2-1.5c0-0.5,0.1-1.1,0.3-1.5c0.2-0.5,0.4-0.9,0.7-1.2c0.3-0.3,0.7-0.6,1.1-0.8
			c0.4-0.2,0.9-0.3,1.4-0.3c0.6,0,1.2,0.1,1.6,0.4c0.4,0.3,0.8,0.6,1,1c0.3,0.4,0.4,0.9,0.5,1.3s0.1,0.9,0.1,1.4h-5.4
			c0,0.3,0,0.6,0.1,0.9s0.2,0.5,0.4,0.8s0.4,0.4,0.7,0.5c0.3,0.1,0.6,0.2,1,0.2c0.5,0,0.9-0.1,1.2-0.4s0.5-0.6,0.6-1.1h1.2
			C228.1,100.6,227.7,101.2,227.2,101.7z M226.9,97c-0.1-0.3-0.3-0.5-0.4-0.7c-0.2-0.2-0.4-0.3-0.6-0.4s-0.5-0.2-0.8-0.2
			c-0.3,0-0.6,0.1-0.8,0.2c-0.2,0.1-0.5,0.3-0.6,0.4c-0.2,0.2-0.3,0.4-0.4,0.7s-0.2,0.5-0.2,0.8h4.2C227.1,97.5,227,97.3,226.9,97z"
			/>
	</g>
	<g>
		<path fill="#FFFFFF" d="M230.7,94.9V96h0c0.5-0.9,1.3-1.3,2.4-1.3c0.5,0,0.9,0.1,1.2,0.2c0.3,0.1,0.6,0.3,0.8,0.5
			c0.2,0.2,0.3,0.5,0.4,0.8c0.1,0.3,0.1,0.7,0.1,1.1v4.8h-1.2v-4.9c0-0.4-0.1-0.8-0.4-1.1c-0.3-0.3-0.6-0.4-1.1-0.4
			c-0.4,0-0.7,0.1-0.9,0.2c-0.3,0.1-0.5,0.3-0.7,0.5s-0.3,0.4-0.4,0.7c-0.1,0.3-0.1,0.6-0.1,0.9v4.1h-1.2v-7.2H230.7z"/>
	</g>
	<g>
		<path fill="#FFFFFF" d="M240.5,94.9v1H239v4.5c0,0.1,0,0.3,0,0.3s0.1,0.1,0.1,0.2c0.1,0,0.2,0.1,0.3,0.1c0.1,0,0.3,0,0.5,0h0.5v1
			h-0.9c-0.3,0-0.6,0-0.8-0.1s-0.4-0.1-0.5-0.2c-0.1-0.1-0.2-0.3-0.3-0.5c-0.1-0.2-0.1-0.5-0.1-0.8v-4.6h-1.2v-1h1.2v-2.2h1.2v2.2
			H240.5z"/>
	</g>
</g>
<g>
	<g>
		<path fill="#C6C6C6" d="M138.8,41.6l3.8,10l3.9-10h1.6v11.5h-1.1v-9.9h0l-3.9,9.9h-1l-3.8-9.9h0v9.9h-1.1V41.6H138.8z"/>
	</g>
	<g>
		<path fill="#C6C6C6" d="M150.4,44.8l2.7,7.1l2.6-7.1h1l-3.6,9.5c-0.1,0.4-0.3,0.6-0.4,0.9c-0.1,0.2-0.3,0.4-0.4,0.5
			c-0.2,0.1-0.3,0.2-0.5,0.3c-0.2,0.1-0.5,0.1-0.8,0.1c-0.2,0-0.4,0-0.5,0c-0.1,0-0.2,0-0.3-0.1v-0.9c0.1,0,0.2,0,0.3,0.1
			c0.1,0,0.2,0,0.3,0c0.2,0,0.4,0,0.6-0.1c0.1-0.1,0.3-0.2,0.4-0.3c0.1-0.1,0.2-0.2,0.3-0.4c0.1-0.2,0.2-0.3,0.2-0.5l0.4-0.9
			l-3.3-8.2H150.4z"/>
	</g>
	<g>
		<path fill="#C6C6C6" d="M165.4,44.8v0.9h-1.7v5.6c0,0.3,0,0.6,0.1,0.8c0.1,0.2,0.3,0.3,0.7,0.3c0.3,0,0.6,0,0.9,0v0.9
			c-0.1,0-0.3,0-0.4,0s-0.3,0-0.4,0c-0.7,0-1.1-0.1-1.4-0.4s-0.4-0.7-0.4-1.5v-5.7h-1.4v-0.9h1.4v-2.5h1v2.5H165.4z"/>
	</g>
	<g>
		<path fill="#C6C6C6" d="M167.1,46.1c0.2-0.4,0.4-0.6,0.7-0.9s0.6-0.4,1-0.5c0.4-0.1,0.8-0.2,1.3-0.2c0.4,0,0.7,0,1.1,0.1
			c0.4,0.1,0.7,0.2,1,0.4c0.3,0.2,0.5,0.5,0.7,0.8c0.2,0.3,0.3,0.8,0.3,1.4v4.4c0,0.4,0.2,0.6,0.6,0.6c0.1,0,0.2,0,0.3-0.1V53
			c-0.1,0-0.2,0-0.3,0c-0.1,0-0.2,0-0.3,0c-0.3,0-0.5,0-0.6-0.1c-0.2-0.1-0.3-0.2-0.4-0.3c-0.1-0.1-0.1-0.3-0.2-0.5
			c0-0.2,0-0.4,0-0.6h0c-0.2,0.3-0.4,0.5-0.6,0.7c-0.2,0.2-0.4,0.4-0.6,0.5c-0.2,0.1-0.5,0.2-0.8,0.3c-0.3,0.1-0.6,0.1-1.1,0.1
			c-0.4,0-0.7,0-1.1-0.1s-0.6-0.2-0.9-0.4c-0.3-0.2-0.4-0.4-0.6-0.8s-0.2-0.7-0.2-1.1c0-0.6,0.1-1,0.4-1.4s0.6-0.6,1-0.7
			c0.4-0.2,0.9-0.3,1.4-0.4c0.5-0.1,1.1-0.1,1.6-0.2c0.2,0,0.4,0,0.6-0.1c0.2,0,0.3-0.1,0.4-0.2c0.1-0.1,0.2-0.2,0.2-0.3
			c0.1-0.1,0.1-0.3,0.1-0.5c0-0.3-0.1-0.6-0.2-0.8c-0.1-0.2-0.3-0.4-0.5-0.5c-0.2-0.1-0.4-0.2-0.7-0.3c-0.3,0-0.5-0.1-0.8-0.1
			c-0.6,0-1.2,0.2-1.6,0.5c-0.4,0.3-0.6,0.8-0.6,1.5h-1C166.8,46.8,166.9,46.4,167.1,46.1z M172.1,48.5c-0.1,0.1-0.2,0.2-0.4,0.3
			c-0.2,0.1-0.3,0.1-0.5,0.1c-0.4,0.1-0.9,0.1-1.3,0.2c-0.5,0.1-0.9,0.1-1.2,0.3c-0.4,0.1-0.7,0.3-0.9,0.5c-0.2,0.2-0.4,0.5-0.4,0.9
			c0,0.3,0.1,0.5,0.2,0.7c0.1,0.2,0.2,0.4,0.4,0.5s0.4,0.3,0.6,0.3s0.5,0.1,0.7,0.1c0.4,0,0.8-0.1,1.1-0.2c0.4-0.1,0.7-0.3,0.9-0.5
			s0.5-0.5,0.6-0.8c0.2-0.3,0.2-0.7,0.2-1.1L172.1,48.5L172.1,48.5z"/>
	</g>
	<g>
		<path fill="#C6C6C6" d="M179.9,46.4c-0.1-0.2-0.3-0.4-0.5-0.6c-0.2-0.2-0.4-0.3-0.7-0.3s-0.5-0.1-0.8-0.1c-0.2,0-0.5,0-0.7,0.1
			c-0.2,0-0.4,0.1-0.6,0.2c-0.2,0.1-0.3,0.3-0.5,0.4c-0.1,0.2-0.2,0.4-0.2,0.7c0,0.2,0.1,0.4,0.2,0.6s0.3,0.3,0.4,0.4
			c0.2,0.1,0.4,0.2,0.6,0.3c0.2,0.1,0.4,0.1,0.6,0.2l1.3,0.3c0.3,0,0.6,0.1,0.9,0.2c0.3,0.1,0.5,0.3,0.8,0.4
			c0.2,0.2,0.4,0.4,0.5,0.7c0.1,0.3,0.2,0.6,0.2,0.9c0,0.4-0.1,0.8-0.3,1.1s-0.5,0.6-0.8,0.8c-0.3,0.2-0.7,0.3-1.1,0.4
			c-0.4,0.1-0.8,0.1-1.2,0.1c-1,0-1.8-0.2-2.4-0.7s-0.9-1.2-1-2.2h1c0,0.7,0.3,1.2,0.7,1.5c0.5,0.3,1,0.5,1.7,0.5
			c0.2,0,0.5,0,0.8-0.1c0.3-0.1,0.5-0.1,0.7-0.3c0.2-0.1,0.4-0.3,0.6-0.5c0.1-0.2,0.2-0.4,0.2-0.7c0-0.2-0.1-0.5-0.2-0.6
			s-0.2-0.3-0.4-0.4c-0.2-0.1-0.4-0.2-0.6-0.3c-0.2-0.1-0.4-0.1-0.7-0.2l-1.3-0.3c-0.3-0.1-0.6-0.2-0.9-0.3
			c-0.3-0.1-0.5-0.3-0.7-0.4s-0.4-0.4-0.5-0.6c-0.1-0.2-0.2-0.5-0.2-0.9c0-0.4,0.1-0.8,0.3-1.1c0.2-0.3,0.4-0.5,0.7-0.7
			c0.3-0.2,0.6-0.3,1-0.4c0.4-0.1,0.7-0.1,1.1-0.1c0.4,0,0.8,0.1,1.2,0.2c0.4,0.1,0.7,0.3,0.9,0.5c0.3,0.2,0.5,0.5,0.6,0.8
			c0.2,0.3,0.3,0.7,0.3,1.2h-1C180.1,46.9,180.1,46.6,179.9,46.4z"/>
	</g>
	<g>
		<path fill="#C6C6C6" d="M183.9,41.6v7.2l4.6-4h1.3l-3.5,3.1l3.8,5.2h-1.3l-3.3-4.5l-1.6,1.4v3.1h-1V41.6H183.9z"/>
	</g>
	<g>
		<path fill="#C6C6C6" d="M195.7,46.4c-0.1-0.2-0.3-0.4-0.5-0.6c-0.2-0.2-0.4-0.3-0.7-0.3s-0.5-0.1-0.8-0.1c-0.2,0-0.5,0-0.7,0.1
			c-0.2,0-0.4,0.1-0.6,0.2c-0.2,0.1-0.3,0.3-0.5,0.4c-0.1,0.2-0.2,0.4-0.2,0.7c0,0.2,0.1,0.4,0.2,0.6s0.3,0.3,0.4,0.4
			c0.2,0.1,0.4,0.2,0.6,0.3c0.2,0.1,0.4,0.1,0.6,0.2l1.3,0.3c0.3,0,0.6,0.1,0.9,0.2c0.3,0.1,0.5,0.3,0.8,0.4
			c0.2,0.2,0.4,0.4,0.5,0.7c0.1,0.3,0.2,0.6,0.2,0.9c0,0.4-0.1,0.8-0.3,1.1s-0.5,0.6-0.8,0.8c-0.3,0.2-0.7,0.3-1.1,0.4
			c-0.4,0.1-0.8,0.1-1.2,0.1c-1,0-1.8-0.2-2.4-0.7s-0.9-1.2-1-2.2h1c0,0.7,0.3,1.2,0.7,1.5c0.5,0.3,1,0.5,1.7,0.5
			c0.2,0,0.5,0,0.8-0.1c0.3-0.1,0.5-0.1,0.7-0.3c0.2-0.1,0.4-0.3,0.6-0.5c0.1-0.2,0.2-0.4,0.2-0.7c0-0.2-0.1-0.5-0.2-0.6
			s-0.2-0.3-0.4-0.4c-0.2-0.1-0.4-0.2-0.6-0.3c-0.2-0.1-0.4-0.1-0.7-0.2l-1.3-0.3c-0.3-0.1-0.6-0.2-0.9-0.3
			c-0.3-0.1-0.5-0.3-0.7-0.4s-0.4-0.4-0.5-0.6c-0.1-0.2-0.2-0.5-0.2-0.9c0-0.4,0.1-0.8,0.3-1.1c0.2-0.3,0.4-0.5,0.7-0.7
			c0.3-0.2,0.6-0.3,1-0.4c0.4-0.1,0.7-0.1,1.1-0.1c0.4,0,0.8,0.1,1.2,0.2c0.4,0.1,0.7,0.3,0.9,0.5c0.3,0.2,0.5,0.5,0.6,0.8
			c0.2,0.3,0.3,0.7,0.3,1.2h-1C195.9,46.9,195.8,46.6,195.7,46.4z"/>
	</g>
</g>
<g>
	<g>
		<path fill="#C6C6C6" d="M241.7,41.6v11.5h-1.1V41.6H241.7z"/>
	</g>
	<g>
		<path fill="#C6C6C6" d="M244.9,44.8v1.4h0c0.2-0.5,0.5-0.9,1-1.2c0.5-0.3,1-0.5,1.6-0.5c0.6,0,1.1,0.1,1.5,0.2
			c0.4,0.2,0.7,0.4,0.9,0.6c0.2,0.3,0.4,0.6,0.5,1c0.1,0.4,0.1,0.8,0.1,1.3v5.3h-1v-5.2c0-0.4,0-0.7-0.1-1c-0.1-0.3-0.2-0.6-0.3-0.8
			c-0.2-0.2-0.4-0.4-0.6-0.5c-0.3-0.1-0.6-0.2-1-0.2c-0.4,0-0.8,0.1-1.1,0.2s-0.6,0.3-0.8,0.6c-0.2,0.3-0.4,0.6-0.5,0.9
			s-0.2,0.7-0.2,1.1v4.8h-1v-8.3H244.9z"/>
	</g>
	<g>
		<path fill="#C6C6C6" d="M257.9,44.8v1.6h0c0.2-0.6,0.6-1,1.1-1.3c0.5-0.3,1.1-0.5,1.8-0.5c0.6,0,1.2,0.1,1.6,0.4
			c0.5,0.2,0.9,0.6,1.2,1c0.3,0.4,0.5,0.9,0.7,1.4s0.2,1.1,0.2,1.7c0,0.6-0.1,1.1-0.2,1.7s-0.4,1-0.7,1.4c-0.3,0.4-0.7,0.7-1.2,0.9
			c-0.5,0.2-1,0.3-1.6,0.3c-0.3,0-0.6,0-0.9-0.1c-0.3-0.1-0.6-0.2-0.8-0.3c-0.3-0.1-0.5-0.3-0.7-0.6s-0.4-0.5-0.5-0.8h0v4.6h-1V44.8
			H257.9z M263.5,47.6c-0.1-0.4-0.3-0.8-0.5-1.1c-0.2-0.3-0.5-0.6-0.8-0.8c-0.3-0.2-0.8-0.3-1.2-0.3c-0.6,0-1,0.1-1.4,0.3
			c-0.4,0.2-0.7,0.4-0.9,0.8c-0.2,0.3-0.4,0.7-0.5,1.1s-0.1,0.9-0.1,1.3c0,0.4,0.1,0.9,0.2,1.3c0.1,0.4,0.3,0.8,0.5,1.1
			c0.2,0.3,0.5,0.6,0.9,0.8c0.4,0.2,0.8,0.3,1.4,0.3c0.5,0,0.9-0.1,1.2-0.3c0.3-0.2,0.6-0.5,0.8-0.8c0.2-0.3,0.4-0.7,0.5-1.1
			c0.1-0.4,0.2-0.8,0.2-1.3S263.6,48.1,263.5,47.6z"/>
	</g>
	<g>
		<path fill="#C6C6C6" d="M267.1,44.8v1.9h0c0.3-0.7,0.7-1.2,1.2-1.6c0.5-0.4,1.2-0.5,1.9-0.5v1c-0.5,0-0.9,0-1.3,0.2
			c-0.4,0.1-0.7,0.4-1,0.6c-0.3,0.3-0.5,0.6-0.6,1s-0.2,0.8-0.2,1.2v4.4h-1v-8.3H267.1z"/>
	</g>
	<g>
		<path fill="#C6C6C6" d="M276.1,44.9c0.5,0.2,0.9,0.6,1.2,0.9c0.3,0.4,0.6,0.9,0.8,1.4c0.2,0.5,0.3,1.1,0.3,1.7
			c0,0.6-0.1,1.2-0.3,1.7c-0.2,0.5-0.4,1-0.8,1.4c-0.3,0.4-0.7,0.7-1.2,0.9c-0.5,0.2-1,0.3-1.7,0.3c-0.6,0-1.2-0.1-1.7-0.3
			c-0.5-0.2-0.9-0.5-1.2-0.9c-0.3-0.4-0.6-0.9-0.8-1.4c-0.2-0.5-0.3-1.1-0.3-1.7c0-0.6,0.1-1.2,0.3-1.7c0.2-0.5,0.4-1,0.8-1.4
			c0.3-0.4,0.7-0.7,1.2-0.9c0.5-0.2,1-0.4,1.7-0.4C275.1,44.5,275.6,44.7,276.1,44.9z M273.2,45.7c-0.4,0.2-0.7,0.5-0.9,0.8
			c-0.2,0.3-0.4,0.7-0.5,1.1c-0.1,0.4-0.2,0.9-0.2,1.3s0.1,0.9,0.2,1.3s0.3,0.8,0.5,1.1c0.2,0.3,0.5,0.6,0.9,0.8
			c0.4,0.2,0.8,0.3,1.3,0.3s0.9-0.1,1.3-0.3c0.4-0.2,0.7-0.5,0.9-0.8c0.2-0.3,0.4-0.7,0.5-1.1s0.2-0.9,0.2-1.3s-0.1-0.9-0.2-1.3
			c-0.1-0.4-0.3-0.8-0.5-1.1c-0.2-0.3-0.5-0.6-0.9-0.8c-0.4-0.2-0.8-0.3-1.3-0.3S273.5,45.5,273.2,45.7z"/>
	</g>
	<g>
		<path fill="#C6C6C6" d="M286.7,54c-0.1,0.5-0.3,0.9-0.6,1.3c-0.3,0.3-0.7,0.6-1.1,0.8c-0.5,0.2-1,0.3-1.7,0.3
			c-0.4,0-0.8,0-1.2-0.1c-0.4-0.1-0.8-0.2-1.1-0.4c-0.3-0.2-0.6-0.5-0.8-0.8c-0.2-0.3-0.3-0.7-0.4-1.1h1c0.1,0.3,0.2,0.6,0.3,0.8
			c0.2,0.2,0.3,0.4,0.6,0.5c0.2,0.1,0.5,0.2,0.7,0.3c0.3,0.1,0.5,0.1,0.8,0.1c0.9,0,1.6-0.3,2-0.8s0.6-1.3,0.6-2.3v-1.1h0
			c-0.2,0.5-0.6,0.9-1,1.2c-0.5,0.3-1,0.5-1.6,0.5c-0.7,0-1.2-0.1-1.7-0.3c-0.5-0.2-0.9-0.5-1.2-0.9c-0.3-0.4-0.5-0.8-0.7-1.4
			c-0.1-0.5-0.2-1.1-0.2-1.7c0-0.6,0.1-1.1,0.2-1.6s0.4-1,0.7-1.3c0.3-0.4,0.7-0.7,1.2-0.9c0.5-0.2,1-0.3,1.6-0.3
			c0.3,0,0.6,0,0.9,0.1c0.3,0.1,0.5,0.2,0.7,0.4c0.2,0.2,0.4,0.3,0.6,0.5s0.3,0.4,0.4,0.6h0v-1.4h1v7.6
			C286.9,53,286.8,53.5,286.7,54z M284.4,51.8c0.3-0.2,0.6-0.4,0.8-0.7c0.2-0.3,0.4-0.7,0.5-1.1c0.1-0.4,0.2-0.8,0.2-1.2
			c0-0.4,0-0.8-0.1-1.2c-0.1-0.4-0.3-0.8-0.5-1.1s-0.5-0.6-0.8-0.8s-0.7-0.3-1.2-0.3s-0.9,0.1-1.2,0.3c-0.3,0.2-0.6,0.5-0.9,0.8
			s-0.4,0.7-0.5,1.1c-0.1,0.4-0.2,0.8-0.2,1.3c0,0.4,0.1,0.8,0.2,1.2c0.1,0.4,0.3,0.7,0.5,1.1c0.2,0.3,0.5,0.6,0.8,0.7
			c0.3,0.2,0.7,0.3,1.2,0.3C283.6,52.1,284,52,284.4,51.8z"/>
	</g>
	<g>
		<path fill="#C6C6C6" d="M289.7,44.8v1.9h0c0.3-0.7,0.7-1.2,1.2-1.6c0.5-0.4,1.2-0.5,1.9-0.5v1c-0.5,0-0.9,0-1.3,0.2
			c-0.4,0.1-0.7,0.4-1,0.6c-0.3,0.3-0.5,0.6-0.6,1s-0.2,0.8-0.2,1.2v4.4h-1v-8.3H289.7z"/>
	</g>
	<g>
		<path fill="#C6C6C6" d="M294.3,50.3c0.1,0.4,0.3,0.7,0.5,1.1s0.5,0.6,0.9,0.8c0.3,0.2,0.8,0.3,1.2,0.3c0.7,0,1.3-0.2,1.7-0.6
			c0.4-0.4,0.7-0.9,0.9-1.5h1c-0.2,0.9-0.6,1.7-1.2,2.2c-0.6,0.5-1.4,0.8-2.4,0.8c-0.7,0-1.2-0.1-1.7-0.3c-0.5-0.2-0.9-0.5-1.2-0.9
			c-0.3-0.4-0.5-0.9-0.7-1.4c-0.1-0.5-0.2-1.1-0.2-1.7c0-0.5,0.1-1.1,0.2-1.6c0.1-0.5,0.4-1,0.7-1.4c0.3-0.4,0.7-0.7,1.2-1
			c0.5-0.3,1-0.4,1.7-0.4c0.7,0,1.2,0.1,1.7,0.4s0.9,0.6,1.1,1.1c0.3,0.4,0.5,0.9,0.6,1.5c0.1,0.6,0.2,1.1,0.2,1.7h-6.4
			C294.2,49.6,294.2,49.9,294.3,50.3z M299.3,47.2c-0.1-0.4-0.3-0.7-0.5-0.9c-0.2-0.3-0.5-0.5-0.8-0.7c-0.3-0.2-0.7-0.2-1.1-0.2
			c-0.4,0-0.8,0.1-1.1,0.2c-0.3,0.2-0.6,0.4-0.8,0.7c-0.2,0.3-0.4,0.6-0.5,0.9s-0.2,0.7-0.3,1.1h5.4C299.5,48,299.4,47.6,299.3,47.2
			z"/>
	</g>
	<g>
		<path fill="#C6C6C6" d="M306.7,46.4c-0.1-0.2-0.3-0.4-0.5-0.6c-0.2-0.2-0.4-0.3-0.7-0.3s-0.5-0.1-0.8-0.1c-0.2,0-0.5,0-0.7,0.1
			c-0.2,0-0.4,0.1-0.6,0.2c-0.2,0.1-0.3,0.3-0.5,0.4c-0.1,0.2-0.2,0.4-0.2,0.7c0,0.2,0.1,0.4,0.2,0.6s0.3,0.3,0.4,0.4
			c0.2,0.1,0.4,0.2,0.6,0.3c0.2,0.1,0.4,0.1,0.6,0.2l1.3,0.3c0.3,0,0.6,0.1,0.9,0.2c0.3,0.1,0.5,0.3,0.8,0.4
			c0.2,0.2,0.4,0.4,0.5,0.7c0.1,0.3,0.2,0.6,0.2,0.9c0,0.4-0.1,0.8-0.3,1.1s-0.5,0.6-0.8,0.8c-0.3,0.2-0.7,0.3-1.1,0.4
			c-0.4,0.1-0.8,0.1-1.2,0.1c-1,0-1.8-0.2-2.4-0.7s-0.9-1.2-1-2.2h1c0,0.7,0.3,1.2,0.7,1.5c0.5,0.3,1,0.5,1.7,0.5
			c0.2,0,0.5,0,0.8-0.1c0.3-0.1,0.5-0.1,0.7-0.3c0.2-0.1,0.4-0.3,0.6-0.5c0.1-0.2,0.2-0.4,0.2-0.7c0-0.2-0.1-0.5-0.2-0.6
			s-0.2-0.3-0.4-0.4c-0.2-0.1-0.4-0.2-0.6-0.3c-0.2-0.1-0.4-0.1-0.7-0.2l-1.3-0.3c-0.3-0.1-0.6-0.2-0.9-0.3
			c-0.3-0.1-0.5-0.3-0.7-0.4s-0.4-0.4-0.5-0.6c-0.1-0.2-0.2-0.5-0.2-0.9c0-0.4,0.1-0.8,0.3-1.1c0.2-0.3,0.4-0.5,0.7-0.7
			c0.3-0.2,0.6-0.3,1-0.4c0.4-0.1,0.7-0.1,1.1-0.1c0.4,0,0.8,0.1,1.2,0.2c0.4,0.1,0.7,0.3,0.9,0.5c0.3,0.2,0.5,0.5,0.6,0.8
			c0.2,0.3,0.3,0.7,0.3,1.2h-1C306.8,46.9,306.8,46.6,306.7,46.4z"/>
	</g>
	<g>
		<path fill="#C6C6C6" d="M314.4,46.4c-0.1-0.2-0.3-0.4-0.5-0.6c-0.2-0.2-0.4-0.3-0.7-0.3s-0.5-0.1-0.8-0.1c-0.2,0-0.5,0-0.7,0.1
			c-0.2,0-0.4,0.1-0.6,0.2c-0.2,0.1-0.3,0.3-0.5,0.4c-0.1,0.2-0.2,0.4-0.2,0.7c0,0.2,0.1,0.4,0.2,0.6s0.3,0.3,0.4,0.4
			c0.2,0.1,0.4,0.2,0.6,0.3c0.2,0.1,0.4,0.1,0.6,0.2l1.3,0.3c0.3,0,0.6,0.1,0.9,0.2c0.3,0.1,0.5,0.3,0.8,0.4
			c0.2,0.2,0.4,0.4,0.5,0.7c0.1,0.3,0.2,0.6,0.2,0.9c0,0.4-0.1,0.8-0.3,1.1s-0.5,0.6-0.8,0.8c-0.3,0.2-0.7,0.3-1.1,0.4
			c-0.4,0.1-0.8,0.1-1.2,0.1c-1,0-1.8-0.2-2.4-0.7s-0.9-1.2-1-2.2h1c0,0.7,0.3,1.2,0.7,1.5c0.5,0.3,1,0.5,1.7,0.5
			c0.2,0,0.5,0,0.8-0.1c0.3-0.1,0.5-0.1,0.7-0.3c0.2-0.1,0.4-0.3,0.6-0.5c0.1-0.2,0.2-0.4,0.2-0.7c0-0.2-0.1-0.5-0.2-0.6
			s-0.2-0.3-0.4-0.4c-0.2-0.1-0.4-0.2-0.6-0.3c-0.2-0.1-0.4-0.1-0.7-0.2l-1.3-0.3c-0.3-0.1-0.6-0.2-0.9-0.3
			c-0.3-0.1-0.5-0.3-0.7-0.4s-0.4-0.4-0.5-0.6c-0.1-0.2-0.2-0.5-0.2-0.9c0-0.4,0.1-0.8,0.3-1.1c0.2-0.3,0.4-0.5,0.7-0.7
			c0.3-0.2,0.6-0.3,1-0.4c0.4-0.1,0.7-0.1,1.1-0.1c0.4,0,0.8,0.1,1.2,0.2c0.4,0.1,0.7,0.3,0.9,0.5c0.3,0.2,0.5,0.5,0.6,0.8
			c0.2,0.3,0.3,0.7,0.3,1.2h-1C314.6,46.9,314.5,46.6,314.4,46.4z"/>
	</g>
</g>
<g>
	<rect x="33" y="64" fill="#FFFFFF" width="62" height="3"/>
</g>
<g>
	<rect x="33" y="91" fill="#AD6EE6" width="27" height="27"/>
</g>
<g>
	<g>
		<path fill="#C6C6C6" d="M73.5,110.3c1.2,0,2.1,0.3,2.8,0.9c0.7,0.6,1,1.6,1,2.8c0,0.7-0.1,1.2-0.2,1.8s-0.4,0.9-0.7,1.3
			c-0.3,0.3-0.7,0.6-1.2,0.8s-1,0.3-1.7,0.3h-2.7v-7.9H73.5z M73.6,117.2c0.1,0,0.3,0,0.4,0s0.4-0.1,0.6-0.1
			c0.2-0.1,0.4-0.2,0.6-0.3c0.2-0.1,0.4-0.3,0.5-0.5c0.2-0.2,0.3-0.5,0.4-0.9c0.1-0.3,0.1-0.8,0.1-1.2c0-0.5,0-0.9-0.1-1.3
			c-0.1-0.4-0.2-0.7-0.5-0.9s-0.5-0.5-0.8-0.6c-0.3-0.1-0.7-0.2-1.2-0.2h-1.8v6.1H73.6z"/>
	</g>
	<g>
		<path fill="#C6C6C6" d="M82.3,118.1v-0.9h0c-0.2,0.4-0.5,0.6-0.8,0.8c-0.3,0.2-0.7,0.2-1.1,0.2c-0.4,0-0.7,0-0.9-0.1
			c-0.2-0.1-0.5-0.2-0.6-0.4c-0.2-0.2-0.3-0.4-0.3-0.7c-0.1-0.3-0.1-0.5-0.1-0.8v-3.7h0.9v3.9c0,0.4,0.1,0.6,0.3,0.8
			c0.2,0.2,0.5,0.3,0.8,0.3c0.3,0,0.5,0,0.7-0.1s0.4-0.2,0.5-0.4c0.1-0.2,0.2-0.3,0.3-0.6c0.1-0.2,0.1-0.5,0.1-0.7v-3.2h0.9v5.7
			H82.3z"/>
	</g>
	<g>
		<path fill="#C6C6C6" d="M88.6,117.8c-0.4,0.3-1,0.5-1.6,0.5c-0.5,0-0.8-0.1-1.2-0.2c-0.3-0.1-0.6-0.4-0.8-0.6
			c-0.2-0.3-0.4-0.6-0.5-0.9c-0.1-0.4-0.2-0.8-0.2-1.2c0-0.4,0.1-0.8,0.2-1.2c0.1-0.4,0.3-0.7,0.6-0.9s0.5-0.5,0.8-0.6
			c0.3-0.1,0.7-0.2,1.1-0.2c0.5,0,0.9,0.1,1.3,0.3c0.3,0.2,0.6,0.5,0.8,0.8c0.2,0.3,0.3,0.7,0.4,1.1c0.1,0.4,0.1,0.7,0.1,1.1h-4.3
			c0,0.2,0,0.5,0.1,0.7c0.1,0.2,0.2,0.4,0.3,0.6s0.3,0.3,0.6,0.4c0.2,0.1,0.5,0.2,0.8,0.2c0.4,0,0.7-0.1,1-0.3
			c0.3-0.2,0.4-0.5,0.5-0.8h0.9C89.3,117,89,117.4,88.6,117.8z M88.3,114.1c-0.1-0.2-0.2-0.4-0.3-0.5c-0.1-0.1-0.3-0.3-0.5-0.3
			c-0.2-0.1-0.4-0.1-0.6-0.1c-0.2,0-0.5,0-0.7,0.1c-0.2,0.1-0.4,0.2-0.5,0.3c-0.1,0.1-0.2,0.3-0.3,0.5s-0.1,0.4-0.1,0.6h3.3
			C88.5,114.5,88.4,114.3,88.3,114.1z"/>
	</g>
	<g>
		<path fill="#C6C6C6" d="M94.8,110.3l4.1,6.4h0v-6.4h1v7.9h-1.1l-4.1-6.3h0v6.3h-1v-7.9H94.8z"/>
	</g>
	<g>
		<path fill="#C6C6C6" d="M101.3,114.1c0.1-0.4,0.3-0.7,0.5-0.9c0.2-0.3,0.5-0.5,0.9-0.6c0.3-0.2,0.7-0.2,1.2-0.2
			c0.5,0,0.9,0.1,1.2,0.2c0.3,0.2,0.6,0.4,0.9,0.6s0.4,0.6,0.5,0.9c0.1,0.4,0.2,0.8,0.2,1.2s-0.1,0.8-0.2,1.2s-0.3,0.7-0.5,0.9
			s-0.5,0.5-0.9,0.6c-0.3,0.2-0.7,0.2-1.2,0.2c-0.4,0-0.8-0.1-1.2-0.2c-0.3-0.2-0.6-0.4-0.9-0.6c-0.2-0.3-0.4-0.6-0.5-0.9
			s-0.2-0.7-0.2-1.2S101.2,114.5,101.3,114.1z M102.3,116.2c0.1,0.3,0.2,0.5,0.4,0.7c0.2,0.2,0.3,0.3,0.6,0.4
			c0.2,0.1,0.4,0.1,0.7,0.1s0.5,0,0.7-0.1c0.2-0.1,0.4-0.2,0.6-0.4c0.2-0.2,0.3-0.4,0.4-0.7s0.1-0.6,0.1-0.9c0-0.3,0-0.7-0.1-0.9
			s-0.2-0.5-0.4-0.7c-0.2-0.2-0.4-0.3-0.6-0.4c-0.2-0.1-0.4-0.1-0.7-0.1s-0.5,0-0.7,0.1c-0.2,0.1-0.4,0.2-0.6,0.4
			c-0.2,0.2-0.3,0.4-0.4,0.7s-0.1,0.6-0.1,0.9C102.1,115.6,102.2,115.9,102.3,116.2z"/>
	</g>
	<g>
		<path fill="#C6C6C6" d="M109.3,118.1l-2.1-5.7h1l1.6,4.7h0l1.6-4.7h1l-2.1,5.7H109.3z"/>
	</g>
	<g>
		<path fill="#C6C6C6" d="M118.6,118.1v-5.6h-2v-0.7c0.3,0,0.5,0,0.8-0.1c0.2,0,0.5-0.1,0.7-0.2c0.2-0.1,0.4-0.3,0.5-0.5
			c0.1-0.2,0.2-0.4,0.3-0.7h0.7v7.8H118.6z"/>
	</g>
	<g>
		<path fill="#C6C6C6" d="M127.4,115.5v0.8h-1.1v1.8h-0.9v-1.8H122v-0.9l3.6-5.1h0.7v5.1H127.4z M125.5,111.7L125.5,111.7l-2.6,3.8
			h2.6V111.7z"/>
	</g>
</g>
<g>
	<g>
		<path fill="#FFFFFF" d="M79.9,149.5c-0.5-0.4-1.1-0.5-1.8-0.5c-0.6,0-1.1,0.1-1.5,0.3c-0.4,0.2-0.8,0.5-1,0.9
			c-0.3,0.4-0.5,0.8-0.6,1.3c-0.1,0.5-0.2,1-0.2,1.5c0,0.6,0.1,1.1,0.2,1.6c0.1,0.5,0.3,1,0.6,1.3c0.3,0.4,0.6,0.7,1.1,0.9
			c0.4,0.2,0.9,0.3,1.5,0.3c0.4,0,0.8-0.1,1.2-0.2c0.3-0.1,0.6-0.3,0.9-0.6c0.2-0.3,0.4-0.6,0.6-0.9c0.1-0.4,0.2-0.7,0.3-1.1h1.3
			c-0.1,1.3-0.6,2.2-1.3,2.9c-0.7,0.7-1.7,1.1-3,1.1c-0.8,0-1.5-0.1-2-0.4c-0.6-0.3-1.1-0.6-1.4-1.1s-0.7-1-0.9-1.7s-0.3-1.3-0.3-2
			s0.1-1.4,0.3-2.1s0.5-1.2,0.9-1.7c0.4-0.5,0.9-0.9,1.5-1.1s1.3-0.4,2-0.4c0.5,0,1,0.1,1.5,0.2c0.5,0.1,0.9,0.3,1.2,0.6
			c0.4,0.3,0.7,0.6,0.9,1c0.2,0.4,0.4,0.9,0.5,1.4h-1.3C80.8,150.4,80.4,149.9,79.9,149.5z"/>
	</g>
	<g>
		<path fill="#FFFFFF" d="M84.9,150.9v1.5h0c0.3-0.6,0.6-1,1.1-1.3c0.4-0.3,1-0.4,1.6-0.4v1.3c-0.5,0-0.9,0.1-1.2,0.2
			s-0.6,0.3-0.8,0.6s-0.4,0.6-0.4,0.9c-0.1,0.4-0.1,0.8-0.1,1.2v3.2h-1.2v-7.2H84.9z"/>
	</g>
	<g>
		<path fill="#FFFFFF" d="M93.3,157.7c-0.5,0.4-1.2,0.6-2,0.6c-0.6,0-1.1-0.1-1.5-0.3c-0.4-0.2-0.8-0.4-1.1-0.8
			c-0.3-0.3-0.5-0.7-0.7-1.2s-0.2-1-0.2-1.5c0-0.5,0.1-1.1,0.3-1.5c0.2-0.5,0.4-0.9,0.7-1.2s0.7-0.6,1.1-0.8
			c0.4-0.2,0.9-0.3,1.4-0.3c0.6,0,1.2,0.1,1.6,0.4c0.4,0.3,0.8,0.6,1,1c0.3,0.4,0.4,0.9,0.5,1.3c0.1,0.5,0.1,0.9,0.1,1.4h-5.4
			c0,0.3,0,0.6,0.1,0.9s0.2,0.5,0.4,0.8c0.2,0.2,0.4,0.4,0.7,0.5c0.3,0.1,0.6,0.2,1,0.2c0.5,0,0.9-0.1,1.2-0.4s0.5-0.6,0.6-1.1h1.2
			C94.2,156.6,93.9,157.2,93.3,157.7z M93.1,153c-0.1-0.3-0.3-0.5-0.4-0.7c-0.2-0.2-0.4-0.3-0.6-0.4c-0.2-0.1-0.5-0.2-0.8-0.2
			c-0.3,0-0.6,0.1-0.8,0.2s-0.5,0.3-0.6,0.4c-0.2,0.2-0.3,0.4-0.4,0.7c-0.1,0.2-0.2,0.5-0.2,0.8h4.2C93.2,153.5,93.2,153.3,93.1,153
			z"/>
	</g>
	<g>
		<path fill="#FFFFFF" d="M101.3,158.3c-0.3,0-0.6-0.1-0.7-0.3c-0.2-0.2-0.3-0.5-0.3-0.8c-0.3,0.4-0.7,0.7-1.1,0.8
			c-0.4,0.2-0.9,0.3-1.4,0.3c-0.3,0-0.6,0-0.9-0.1c-0.3-0.1-0.5-0.2-0.8-0.3c-0.2-0.2-0.4-0.4-0.5-0.6s-0.2-0.6-0.2-0.9
			c0-0.4,0.1-0.7,0.2-1s0.3-0.5,0.6-0.6c0.2-0.2,0.5-0.3,0.8-0.4s0.6-0.2,0.9-0.2c0.3-0.1,0.6-0.1,0.9-0.1s0.6-0.1,0.8-0.1
			c0.2-0.1,0.4-0.1,0.5-0.3c0.1-0.1,0.2-0.3,0.2-0.5c0-0.3,0-0.5-0.1-0.6c-0.1-0.2-0.2-0.3-0.4-0.4c-0.2-0.1-0.3-0.1-0.5-0.2
			s-0.4,0-0.6,0c-0.5,0-0.9,0.1-1.3,0.3c-0.3,0.2-0.5,0.6-0.5,1.1h-1.2c0-0.4,0.1-0.8,0.3-1.1c0.2-0.3,0.4-0.6,0.7-0.8
			c0.3-0.2,0.6-0.3,1-0.4s0.7-0.1,1.1-0.1c0.3,0,0.7,0,1,0.1c0.3,0,0.6,0.1,0.9,0.3c0.3,0.1,0.5,0.3,0.6,0.6c0.2,0.3,0.2,0.6,0.2,1
			v3.7c0,0.3,0,0.5,0,0.6c0,0.1,0.1,0.2,0.3,0.2c0.1,0,0.2,0,0.4-0.1v0.9C101.9,158.2,101.7,158.3,101.3,158.3z M99.6,154.6
			c-0.2,0.1-0.5,0.1-0.8,0.1c-0.3,0-0.5,0.1-0.8,0.1c-0.3,0-0.5,0.1-0.7,0.2c-0.2,0.1-0.4,0.2-0.5,0.4c-0.1,0.2-0.2,0.4-0.2,0.7
			c0,0.2,0,0.4,0.1,0.5c0.1,0.1,0.2,0.2,0.3,0.3s0.3,0.1,0.4,0.2s0.3,0.1,0.5,0.1c0.4,0,0.7-0.1,1-0.2s0.5-0.2,0.7-0.4
			c0.2-0.2,0.3-0.3,0.4-0.5s0.1-0.4,0.1-0.5v-1.2C100.1,154.5,99.9,154.6,99.6,154.6z"/>
	</g>
	<g>
		<path fill="#FFFFFF" d="M106.3,150.9v1h-1.4v4.5c0,0.1,0,0.3,0,0.3s0.1,0.1,0.1,0.2c0.1,0,0.2,0.1,0.3,0.1c0.1,0,0.3,0,0.5,0h0.5
			v1h-0.9c-0.3,0-0.6,0-0.8-0.1c-0.2,0-0.4-0.1-0.5-0.2c-0.1-0.1-0.2-0.3-0.3-0.5s-0.1-0.5-0.1-0.8v-4.6h-1.2v-1h1.2v-2.2h1.2v2.2
			H106.3z"/>
	</g>
	<g>
		<path fill="#FFFFFF" d="M112.8,157.7c-0.5,0.4-1.2,0.6-2,0.6c-0.6,0-1.1-0.1-1.5-0.3c-0.4-0.2-0.8-0.4-1.1-0.8
			c-0.3-0.3-0.5-0.7-0.7-1.2s-0.2-1-0.2-1.5c0-0.5,0.1-1.1,0.3-1.5c0.2-0.5,0.4-0.9,0.7-1.2s0.7-0.6,1.1-0.8
			c0.4-0.2,0.9-0.3,1.4-0.3c0.6,0,1.2,0.1,1.6,0.4c0.4,0.3,0.8,0.6,1,1c0.3,0.4,0.4,0.9,0.5,1.3c0.1,0.5,0.1,0.9,0.1,1.4h-5.4
			c0,0.3,0,0.6,0.1,0.9s0.2,0.5,0.4,0.8c0.2,0.2,0.4,0.4,0.7,0.5c0.3,0.1,0.6,0.2,1,0.2c0.5,0,0.9-0.1,1.2-0.4s0.5-0.6,0.6-1.1h1.2
			C113.7,156.6,113.3,157.2,112.8,157.7z M112.5,153c-0.1-0.3-0.3-0.5-0.4-0.7c-0.2-0.2-0.4-0.3-0.6-0.4c-0.2-0.1-0.5-0.2-0.8-0.2
			c-0.3,0-0.6,0.1-0.8,0.2s-0.5,0.3-0.6,0.4c-0.2,0.2-0.3,0.4-0.4,0.7c-0.1,0.2-0.2,0.5-0.2,0.8h4.2
			C112.7,153.5,112.6,153.3,112.5,153z"/>
	</g>
	<g>
		<path fill="#FFFFFF" d="M122.7,148.1c1.5,0,2.7,0.4,3.6,1.2c0.8,0.8,1.2,2,1.2,3.6c0,0.8-0.1,1.6-0.3,2.2s-0.5,1.2-0.9,1.6
			c-0.4,0.4-0.9,0.8-1.5,1c-0.6,0.2-1.3,0.3-2.2,0.3h-3.4v-10H122.7z M122.8,157c0.1,0,0.3,0,0.6,0c0.2,0,0.5-0.1,0.7-0.2
			c0.3-0.1,0.5-0.2,0.7-0.4c0.2-0.2,0.5-0.4,0.7-0.7c0.2-0.3,0.4-0.7,0.5-1.1s0.2-1,0.2-1.6c0-0.6-0.1-1.1-0.2-1.6
			c-0.1-0.5-0.3-0.9-0.6-1.2c-0.3-0.3-0.6-0.6-1-0.8c-0.4-0.2-0.9-0.3-1.6-0.3h-2.2v7.8H122.8z"/>
	</g>
	<g>
		<path fill="#FFFFFF" d="M130,150.9v1.5h0c0.3-0.6,0.6-1,1.1-1.3c0.4-0.3,1-0.4,1.6-0.4v1.3c-0.5,0-0.9,0.1-1.2,0.2
			s-0.6,0.3-0.8,0.6s-0.4,0.6-0.4,0.9c-0.1,0.4-0.1,0.8-0.1,1.2v3.2h-1.2v-7.2H130z"/>
	</g>
	<g>
		<path fill="#FFFFFF" d="M133.2,153c0.1-0.5,0.4-0.9,0.7-1.2c0.3-0.3,0.7-0.6,1.1-0.8c0.4-0.2,0.9-0.3,1.5-0.3
			c0.6,0,1.1,0.1,1.5,0.3c0.4,0.2,0.8,0.5,1.1,0.8c0.3,0.3,0.5,0.7,0.7,1.2s0.2,1,0.2,1.5c0,0.5-0.1,1-0.2,1.5s-0.4,0.9-0.7,1.2
			s-0.7,0.6-1.1,0.8c-0.4,0.2-0.9,0.3-1.5,0.3c-0.6,0-1.1-0.1-1.5-0.3s-0.8-0.5-1.1-0.8c-0.3-0.3-0.5-0.7-0.7-1.2s-0.2-1-0.2-1.5
			C132.9,154,133,153.5,133.2,153z M134.4,155.7c0.1,0.3,0.3,0.6,0.5,0.9s0.4,0.4,0.7,0.5c0.3,0.1,0.6,0.2,0.9,0.2
			c0.3,0,0.6-0.1,0.9-0.2c0.3-0.1,0.5-0.3,0.7-0.5c0.2-0.2,0.4-0.5,0.5-0.9c0.1-0.3,0.2-0.7,0.2-1.2c0-0.4-0.1-0.8-0.2-1.2
			c-0.1-0.3-0.3-0.6-0.5-0.9c-0.2-0.2-0.4-0.4-0.7-0.5s-0.6-0.2-0.9-0.2c-0.3,0-0.6,0.1-0.9,0.2s-0.5,0.3-0.7,0.5s-0.4,0.5-0.5,0.9
			c-0.1,0.3-0.2,0.7-0.2,1.2C134.2,154.9,134.3,155.3,134.4,155.7z"/>
	</g>
	<g>
		<path fill="#FFFFFF" d="M142.6,150.9v1h0c0.2-0.4,0.5-0.7,0.9-0.9s0.9-0.3,1.4-0.3c0.6,0,1,0.1,1.5,0.3s0.8,0.5,1,0.8
			s0.5,0.8,0.6,1.2c0.1,0.5,0.2,0.9,0.2,1.5s-0.1,1-0.2,1.5c-0.1,0.5-0.3,0.9-0.6,1.2s-0.6,0.6-1,0.8c-0.4,0.2-0.9,0.3-1.4,0.3
			c-0.2,0-0.4,0-0.6-0.1c-0.2,0-0.4-0.1-0.7-0.2s-0.4-0.2-0.6-0.3c-0.2-0.1-0.4-0.3-0.5-0.5h0v3.7h-1.2v-10H142.6z M146.9,153.4
			c-0.1-0.3-0.2-0.6-0.4-0.9s-0.4-0.5-0.7-0.6c-0.3-0.2-0.6-0.2-1-0.2c-0.4,0-0.7,0.1-1,0.2c-0.3,0.2-0.5,0.4-0.7,0.6
			c-0.2,0.3-0.3,0.5-0.4,0.9c-0.1,0.3-0.1,0.7-0.1,1c0,0.4,0,0.7,0.1,1s0.2,0.6,0.4,0.9c0.2,0.3,0.4,0.5,0.7,0.6
			c0.3,0.2,0.6,0.2,1,0.2c0.4,0,0.8-0.1,1-0.2c0.3-0.2,0.5-0.4,0.7-0.6c0.2-0.3,0.3-0.6,0.4-0.9c0.1-0.3,0.1-0.7,0.1-1
			C147,154.1,147,153.8,146.9,153.4z"/>
	</g>
	<g>
		<path fill="#FFFFFF" d="M157.2,148.1c1.5,0,2.7,0.4,3.6,1.2c0.8,0.8,1.2,2,1.2,3.6c0,0.8-0.1,1.6-0.3,2.2s-0.5,1.2-0.9,1.6
			c-0.4,0.4-0.9,0.8-1.5,1c-0.6,0.2-1.3,0.3-2.2,0.3h-3.4v-10H157.2z M157.3,157c0.1,0,0.3,0,0.6,0c0.2,0,0.5-0.1,0.7-0.2
			c0.3-0.1,0.5-0.2,0.7-0.4c0.2-0.2,0.5-0.4,0.7-0.7c0.2-0.3,0.4-0.7,0.5-1.1s0.2-1,0.2-1.6c0-0.6-0.1-1.1-0.2-1.6
			c-0.1-0.5-0.3-0.9-0.6-1.2c-0.3-0.3-0.6-0.6-1-0.8c-0.4-0.2-0.9-0.3-1.6-0.3h-2.2v7.8H157.3z"/>
	</g>
	<g>
		<path fill="#FFFFFF" d="M163.3,153c0.1-0.5,0.4-0.9,0.7-1.2c0.3-0.3,0.7-0.6,1.1-0.8c0.4-0.2,0.9-0.3,1.5-0.3
			c0.6,0,1.1,0.1,1.5,0.3c0.4,0.2,0.8,0.5,1.1,0.8c0.3,0.3,0.5,0.7,0.7,1.2s0.2,1,0.2,1.5c0,0.5-0.1,1-0.2,1.5s-0.4,0.9-0.7,1.2
			s-0.7,0.6-1.1,0.8c-0.4,0.2-0.9,0.3-1.5,0.3c-0.6,0-1.1-0.1-1.5-0.3s-0.8-0.5-1.1-0.8c-0.3-0.3-0.5-0.7-0.7-1.2s-0.2-1-0.2-1.5
			C163,154,163.1,153.5,163.3,153z M164.5,155.7c0.1,0.3,0.3,0.6,0.5,0.9s0.4,0.4,0.7,0.5c0.3,0.1,0.6,0.2,0.9,0.2
			c0.3,0,0.6-0.1,0.9-0.2c0.3-0.1,0.5-0.3,0.7-0.5c0.2-0.2,0.4-0.5,0.5-0.9c0.1-0.3,0.2-0.7,0.2-1.2c0-0.4-0.1-0.8-0.2-1.2
			c-0.1-0.3-0.3-0.6-0.5-0.9c-0.2-0.2-0.4-0.4-0.7-0.5s-0.6-0.2-0.9-0.2c-0.3,0-0.6,0.1-0.9,0.2s-0.5,0.3-0.7,0.5s-0.4,0.5-0.5,0.9
			c-0.1,0.3-0.2,0.7-0.2,1.2C164.3,154.9,164.3,155.3,164.5,155.7z"/>
	</g>
	<g>
		<path fill="#FFFFFF" d="M177.4,158.1l-1.5-5.8h0l-1.5,5.8h-1.3l-2.3-7.2h1.3l1.6,5.9h0l1.5-5.9h1.3l1.5,5.9h0l1.6-5.9h1.2
			l-2.3,7.2H177.4z"/>
	</g>
	<g>
		<path fill="#FFFFFF" d="M183.2,150.9v1.1h0c0.5-0.9,1.3-1.3,2.4-1.3c0.5,0,0.9,0.1,1.2,0.2s0.6,0.3,0.8,0.5
			c0.2,0.2,0.3,0.5,0.4,0.8c0.1,0.3,0.1,0.7,0.1,1.1v4.8h-1.2v-4.9c0-0.4-0.1-0.8-0.4-1.1c-0.3-0.3-0.6-0.4-1.1-0.4
			c-0.4,0-0.7,0.1-0.9,0.2c-0.3,0.1-0.5,0.3-0.7,0.5c-0.2,0.2-0.3,0.4-0.4,0.7s-0.1,0.6-0.1,0.9v4.1h-1.2v-7.2H183.2z"/>
	</g>
	<g>
		<path fill="#FFFFFF" d="M194.9,150.9v1.1h0c0.5-0.9,1.3-1.3,2.4-1.3c0.5,0,0.9,0.1,1.2,0.2s0.6,0.3,0.8,0.5
			c0.2,0.2,0.3,0.5,0.4,0.8c0.1,0.3,0.1,0.7,0.1,1.1v4.8h-1.2v-4.9c0-0.4-0.1-0.8-0.4-1.1c-0.3-0.3-0.6-0.4-1.1-0.4
			c-0.4,0-0.7,0.1-0.9,0.2c-0.3,0.1-0.5,0.3-0.7,0.5c-0.2,0.2-0.3,0.4-0.4,0.7s-0.1,0.6-0.1,0.9v4.1h-1.2v-7.2H194.9z"/>
	</g>
	<g>
		<path fill="#FFFFFF" d="M207.1,158.3c-0.3,0-0.6-0.1-0.7-0.3c-0.2-0.2-0.3-0.5-0.3-0.8c-0.3,0.4-0.7,0.7-1.1,0.8
			c-0.4,0.2-0.9,0.3-1.4,0.3c-0.3,0-0.6,0-0.9-0.1c-0.3-0.1-0.5-0.2-0.8-0.3c-0.2-0.2-0.4-0.4-0.5-0.6s-0.2-0.6-0.2-0.9
			c0-0.4,0.1-0.7,0.2-1s0.3-0.5,0.6-0.6c0.2-0.2,0.5-0.3,0.8-0.4s0.6-0.2,0.9-0.2c0.3-0.1,0.6-0.1,0.9-0.1s0.6-0.1,0.8-0.1
			c0.2-0.1,0.4-0.1,0.5-0.3c0.1-0.1,0.2-0.3,0.2-0.5c0-0.3,0-0.5-0.1-0.6c-0.1-0.2-0.2-0.3-0.4-0.4c-0.2-0.1-0.3-0.1-0.5-0.2
			s-0.4,0-0.6,0c-0.5,0-0.9,0.1-1.3,0.3c-0.3,0.2-0.5,0.6-0.5,1.1h-1.2c0-0.4,0.1-0.8,0.3-1.1c0.2-0.3,0.4-0.6,0.7-0.8
			c0.3-0.2,0.6-0.3,1-0.4s0.7-0.1,1.1-0.1c0.3,0,0.7,0,1,0.1c0.3,0,0.6,0.1,0.9,0.3c0.3,0.1,0.5,0.3,0.6,0.6c0.2,0.3,0.2,0.6,0.2,1
			v3.7c0,0.3,0,0.5,0,0.6c0,0.1,0.1,0.2,0.3,0.2c0.1,0,0.2,0,0.4-0.1v0.9C207.7,158.2,207.5,158.3,207.1,158.3z M205.4,154.6
			c-0.2,0.1-0.5,0.1-0.8,0.1c-0.3,0-0.5,0.1-0.8,0.1c-0.3,0-0.5,0.1-0.7,0.2c-0.2,0.1-0.4,0.2-0.5,0.4c-0.1,0.2-0.2,0.4-0.2,0.7
			c0,0.2,0,0.4,0.1,0.5c0.1,0.1,0.2,0.2,0.3,0.3s0.3,0.1,0.4,0.2s0.3,0.1,0.5,0.1c0.4,0,0.7-0.1,1-0.2s0.5-0.2,0.7-0.4
			c0.2-0.2,0.3-0.3,0.4-0.5s0.1-0.4,0.1-0.5v-1.2C205.9,154.5,205.7,154.6,205.4,154.6z"/>
	</g>
	<g>
		<path fill="#FFFFFF" d="M211,158.1l-2.7-7.2h1.3l2,6h0l2-6h1.2l-2.6,7.2H211z"/>
	</g>
	<g>
		<path fill="#FFFFFF" d="M216.1,149.6v-1.5h1.2v1.5H216.1z M217.3,150.9v7.2h-1.2v-7.2H217.3z"/>
	</g>
	<g>
		<path fill="#FFFFFF" d="M224.6,160.2c-0.5,0.6-1.4,0.9-2.5,0.9c-0.3,0-0.7,0-1-0.1s-0.7-0.2-1-0.4c-0.3-0.2-0.5-0.4-0.7-0.7
			c-0.2-0.3-0.3-0.6-0.3-1h1.2c0,0.2,0.1,0.4,0.2,0.5s0.3,0.3,0.5,0.4c0.2,0.1,0.4,0.2,0.6,0.2c0.2,0,0.4,0.1,0.6,0.1
			c0.4,0,0.7-0.1,1-0.2s0.5-0.3,0.7-0.6c0.2-0.2,0.3-0.5,0.4-0.9c0.1-0.3,0.1-0.7,0.1-1.1v-0.5h0c-0.2,0.4-0.5,0.8-0.9,1
			c-0.4,0.2-0.9,0.3-1.3,0.3c-0.5,0-1-0.1-1.4-0.3s-0.7-0.5-1-0.8c-0.3-0.3-0.5-0.7-0.6-1.2c-0.1-0.4-0.2-0.9-0.2-1.4
			c0-0.4,0.1-0.9,0.2-1.3s0.3-0.9,0.6-1.2c0.3-0.4,0.6-0.7,1-0.9c0.4-0.2,1-0.4,1.6-0.4c0.5,0,0.9,0.1,1.3,0.3
			c0.4,0.2,0.7,0.5,0.9,0.9h0v-1h1.1v6.6C225.4,158.7,225.1,159.6,224.6,160.2z M223.1,156.9c0.3-0.2,0.5-0.4,0.7-0.6
			s0.3-0.6,0.4-0.9s0.1-0.7,0.1-1c0-0.3,0-0.6-0.1-0.9c-0.1-0.3-0.2-0.6-0.4-0.8c-0.2-0.2-0.4-0.4-0.6-0.6c-0.3-0.2-0.6-0.2-1-0.2
			c-0.4,0-0.7,0.1-1,0.2s-0.5,0.3-0.7,0.6s-0.3,0.5-0.4,0.8c-0.1,0.3-0.1,0.6-0.1,1c0,0.3,0,0.7,0.1,1c0.1,0.3,0.2,0.6,0.3,0.9
			c0.2,0.3,0.4,0.5,0.6,0.6c0.3,0.2,0.6,0.2,1,0.2C222.5,157.2,222.8,157.1,223.1,156.9z"/>
	</g>
	<g>
		<path fill="#FFFFFF" d="M232.7,158.3c-0.3,0-0.6-0.1-0.7-0.3c-0.2-0.2-0.3-0.5-0.3-0.8c-0.3,0.4-0.7,0.7-1.1,0.8
			c-0.4,0.2-0.9,0.3-1.4,0.3c-0.3,0-0.6,0-0.9-0.1c-0.3-0.1-0.5-0.2-0.8-0.3c-0.2-0.2-0.4-0.4-0.5-0.6s-0.2-0.6-0.2-0.9
			c0-0.4,0.1-0.7,0.2-1s0.3-0.5,0.6-0.6c0.2-0.2,0.5-0.3,0.8-0.4s0.6-0.2,0.9-0.2c0.3-0.1,0.6-0.1,0.9-0.1s0.6-0.1,0.8-0.1
			c0.2-0.1,0.4-0.1,0.5-0.3c0.1-0.1,0.2-0.3,0.2-0.5c0-0.3,0-0.5-0.1-0.6c-0.1-0.2-0.2-0.3-0.4-0.4c-0.2-0.1-0.3-0.1-0.5-0.2
			s-0.4,0-0.6,0c-0.5,0-0.9,0.1-1.3,0.3c-0.3,0.2-0.5,0.6-0.5,1.1h-1.2c0-0.4,0.1-0.8,0.3-1.1c0.2-0.3,0.4-0.6,0.7-0.8
			c0.3-0.2,0.6-0.3,1-0.4s0.7-0.1,1.1-0.1c0.3,0,0.7,0,1,0.1c0.3,0,0.6,0.1,0.9,0.3c0.3,0.1,0.5,0.3,0.6,0.6c0.2,0.3,0.2,0.6,0.2,1
			v3.7c0,0.3,0,0.5,0,0.6c0,0.1,0.1,0.2,0.3,0.2c0.1,0,0.2,0,0.4-0.1v0.9C233.4,158.2,233.1,158.3,232.7,158.3z M231.1,154.6
			c-0.2,0.1-0.5,0.1-0.8,0.1c-0.3,0-0.5,0.1-0.8,0.1c-0.3,0-0.5,0.1-0.7,0.2c-0.2,0.1-0.4,0.2-0.5,0.4c-0.1,0.2-0.2,0.4-0.2,0.7
			c0,0.2,0,0.4,0.1,0.5c0.1,0.1,0.2,0.2,0.3,0.3s0.3,0.1,0.4,0.2s0.3,0.1,0.5,0.1c0.4,0,0.7-0.1,1-0.2s0.5-0.2,0.7-0.4
			c0.2-0.2,0.3-0.3,0.4-0.5s0.1-0.4,0.1-0.5v-1.2C231.5,154.5,231.3,154.6,231.1,154.6z"/>
	</g>
	<g>
		<path fill="#FFFFFF" d="M237.8,150.9v1h-1.4v4.5c0,0.1,0,0.3,0,0.3s0.1,0.1,0.1,0.2c0.1,0,0.2,0.1,0.3,0.1c0.1,0,0.3,0,0.5,0h0.5
			v1h-0.9c-0.3,0-0.6,0-0.8-0.1c-0.2,0-0.4-0.1-0.5-0.2c-0.1-0.1-0.2-0.3-0.3-0.5s-0.1-0.5-0.1-0.8v-4.6h-1.2v-1h1.2v-2.2h1.2v2.2
			H237.8z"/>
	</g>
	<g>
		<path fill="#FFFFFF" d="M239.2,149.6v-1.5h1.2v1.5H239.2z M240.4,150.9v7.2h-1.2v-7.2H240.4z"/>
	</g>
	<g>
		<path fill="#FFFFFF" d="M242.1,153c0.1-0.5,0.4-0.9,0.7-1.2c0.3-0.3,0.7-0.6,1.1-0.8c0.4-0.2,0.9-0.3,1.5-0.3
			c0.6,0,1.1,0.1,1.5,0.3c0.4,0.2,0.8,0.5,1.1,0.8c0.3,0.3,0.5,0.7,0.7,1.2s0.2,1,0.2,1.5c0,0.5-0.1,1-0.2,1.5s-0.4,0.9-0.7,1.2
			s-0.7,0.6-1.1,0.8c-0.4,0.2-0.9,0.3-1.5,0.3c-0.6,0-1.1-0.1-1.5-0.3s-0.8-0.5-1.1-0.8c-0.3-0.3-0.5-0.7-0.7-1.2s-0.2-1-0.2-1.5
			C241.8,154,241.9,153.5,242.1,153z M243.3,155.7c0.1,0.3,0.3,0.6,0.5,0.9s0.4,0.4,0.7,0.5c0.3,0.1,0.6,0.2,0.9,0.2
			c0.3,0,0.6-0.1,0.9-0.2c0.3-0.1,0.5-0.3,0.7-0.5c0.2-0.2,0.4-0.5,0.5-0.9c0.1-0.3,0.2-0.7,0.2-1.2c0-0.4-0.1-0.8-0.2-1.2
			c-0.1-0.3-0.3-0.6-0.5-0.9c-0.2-0.2-0.4-0.4-0.7-0.5s-0.6-0.2-0.9-0.2c-0.3,0-0.6,0.1-0.9,0.2s-0.5,0.3-0.7,0.5s-0.4,0.5-0.5,0.9
			c-0.1,0.3-0.2,0.7-0.2,1.2C243.1,154.9,243.2,155.3,243.3,155.7z"/>
	</g>
	<g>
		<path fill="#FFFFFF" d="M251.4,150.9v1.1h0c0.5-0.9,1.3-1.3,2.4-1.3c0.5,0,0.9,0.1,1.2,0.2s0.6,0.3,0.8,0.5
			c0.2,0.2,0.3,0.5,0.4,0.8c0.1,0.3,0.1,0.7,0.1,1.1v4.8h-1.2v-4.9c0-0.4-0.1-0.8-0.4-1.1c-0.3-0.3-0.6-0.4-1.1-0.4
			c-0.4,0-0.7,0.1-0.9,0.2c-0.3,0.1-0.5,0.3-0.7,0.5c-0.2,0.2-0.3,0.4-0.4,0.7s-0.1,0.6-0.1,0.9v4.1h-1.2v-7.2H251.4z"/>
	</g>
</g>
<g>
	<g>
		<path fill="#C6C6C6" d="M76.4,166.3c1.2,0,2.1,0.3,2.8,0.9c0.7,0.6,1,1.6,1,2.8c0,0.7-0.1,1.2-0.2,1.8c-0.1,0.5-0.4,0.9-0.7,1.3
			c-0.3,0.3-0.7,0.6-1.2,0.8s-1,0.3-1.7,0.3h-2.7v-7.9H76.4z M76.4,173.2c0.1,0,0.3,0,0.4,0s0.4-0.1,0.6-0.1
			c0.2-0.1,0.4-0.2,0.6-0.3c0.2-0.1,0.4-0.3,0.5-0.5c0.2-0.2,0.3-0.5,0.4-0.9c0.1-0.3,0.1-0.8,0.1-1.2c0-0.5,0-0.9-0.1-1.3
			c-0.1-0.4-0.2-0.7-0.5-0.9s-0.5-0.5-0.8-0.6c-0.3-0.1-0.7-0.2-1.2-0.2h-1.8v6.1H76.4z"/>
	</g>
	<g>
		<path fill="#C6C6C6" d="M85.1,174.1v-0.9h0c-0.2,0.4-0.5,0.6-0.8,0.8s-0.7,0.2-1.1,0.2c-0.4,0-0.7,0-0.9-0.1
			c-0.2-0.1-0.5-0.2-0.6-0.4c-0.2-0.2-0.3-0.4-0.3-0.7c-0.1-0.3-0.1-0.5-0.1-0.8v-3.7h0.9v3.9c0,0.4,0.1,0.6,0.3,0.8
			c0.2,0.2,0.5,0.3,0.8,0.3c0.3,0,0.5,0,0.7-0.1s0.4-0.2,0.5-0.4c0.1-0.2,0.2-0.3,0.3-0.6c0.1-0.2,0.1-0.5,0.1-0.7v-3.2H86v5.7H85.1
			z"/>
	</g>
	<g>
		<path fill="#C6C6C6" d="M91.4,173.8c-0.4,0.3-1,0.5-1.6,0.5c-0.5,0-0.8-0.1-1.2-0.2c-0.3-0.1-0.6-0.4-0.8-0.6
			c-0.2-0.3-0.4-0.6-0.5-0.9c-0.1-0.4-0.2-0.8-0.2-1.2c0-0.4,0.1-0.8,0.2-1.2s0.3-0.7,0.6-0.9s0.5-0.5,0.8-0.6
			c0.3-0.1,0.7-0.2,1.1-0.2c0.5,0,0.9,0.1,1.3,0.3c0.3,0.2,0.6,0.5,0.8,0.8c0.2,0.3,0.3,0.7,0.4,1.1s0.1,0.7,0.1,1.1H88
			c0,0.2,0,0.5,0.1,0.7c0.1,0.2,0.2,0.4,0.3,0.6s0.3,0.3,0.6,0.4c0.2,0.1,0.5,0.2,0.8,0.2c0.4,0,0.7-0.1,1-0.3
			c0.3-0.2,0.4-0.5,0.5-0.8h0.9C92.1,173,91.8,173.4,91.4,173.8z M91.2,170.1c-0.1-0.2-0.2-0.4-0.3-0.5c-0.1-0.1-0.3-0.3-0.5-0.3
			s-0.4-0.1-0.6-0.1c-0.2,0-0.5,0-0.7,0.1s-0.4,0.2-0.5,0.3c-0.1,0.1-0.2,0.3-0.3,0.5c-0.1,0.2-0.1,0.4-0.1,0.6h3.3
			C91.3,170.5,91.2,170.3,91.2,170.1z"/>
	</g>
	<g>
		<path fill="#C6C6C6" d="M97.6,166.3l4.1,6.4h0v-6.4h1v7.9h-1.1l-4.1-6.3h0v6.3h-1v-7.9H97.6z"/>
	</g>
	<g>
		<path fill="#C6C6C6" d="M104.1,170.1c0.1-0.4,0.3-0.7,0.5-0.9c0.2-0.3,0.5-0.5,0.9-0.6s0.7-0.2,1.2-0.2c0.5,0,0.9,0.1,1.2,0.2
			s0.6,0.4,0.9,0.6s0.4,0.6,0.5,0.9c0.1,0.4,0.2,0.8,0.2,1.2s-0.1,0.8-0.2,1.2s-0.3,0.7-0.5,0.9s-0.5,0.5-0.9,0.6s-0.7,0.2-1.2,0.2
			c-0.4,0-0.8-0.1-1.2-0.2s-0.6-0.4-0.9-0.6c-0.2-0.3-0.4-0.6-0.5-0.9s-0.2-0.7-0.2-1.2S104,170.5,104.1,170.1z M105.1,172.2
			c0.1,0.3,0.2,0.5,0.4,0.7c0.2,0.2,0.3,0.3,0.6,0.4c0.2,0.1,0.4,0.1,0.7,0.1s0.5,0,0.7-0.1c0.2-0.1,0.4-0.2,0.6-0.4
			s0.3-0.4,0.4-0.7s0.1-0.6,0.1-0.9c0-0.3,0-0.7-0.1-0.9s-0.2-0.5-0.4-0.7c-0.2-0.2-0.4-0.3-0.6-0.4c-0.2-0.1-0.4-0.1-0.7-0.1
			s-0.5,0-0.7,0.1c-0.2,0.1-0.4,0.2-0.6,0.4c-0.2,0.2-0.3,0.4-0.4,0.7s-0.1,0.6-0.1,0.9C105,171.6,105,171.9,105.1,172.2z"/>
	</g>
	<g>
		<path fill="#C6C6C6" d="M112.1,174.1l-2.1-5.7h1l1.6,4.7h0l1.6-4.7h1l-2.1,5.7H112.1z"/>
	</g>
	<g>
		<path fill="#C6C6C6" d="M121.4,174.1v-5.6h-2v-0.7c0.3,0,0.5,0,0.8-0.1c0.2,0,0.5-0.1,0.7-0.2c0.2-0.1,0.4-0.3,0.5-0.5
			c0.1-0.2,0.2-0.4,0.3-0.7h0.7v7.8H121.4z"/>
	</g>
	<g>
		<path fill="#C6C6C6" d="M125,169.4c0-0.3,0.1-0.6,0.1-0.9c0.1-0.3,0.1-0.6,0.3-0.8c0.1-0.3,0.3-0.5,0.5-0.7s0.4-0.4,0.7-0.5
			c0.3-0.1,0.6-0.2,1-0.2s0.8,0.1,1,0.2c0.3,0.1,0.5,0.3,0.7,0.5c0.2,0.2,0.3,0.4,0.5,0.7c0.1,0.3,0.2,0.5,0.3,0.8
			c0.1,0.3,0.1,0.6,0.1,0.9c0,0.3,0,0.6,0,0.9c0,0.3,0,0.6,0,0.9s-0.1,0.6-0.1,0.9c-0.1,0.3-0.1,0.6-0.3,0.8
			c-0.1,0.3-0.3,0.5-0.5,0.7c-0.2,0.2-0.4,0.4-0.7,0.5c-0.3,0.1-0.6,0.2-1,0.2c-0.4,0-0.7-0.1-1-0.2s-0.5-0.3-0.7-0.5
			s-0.3-0.4-0.5-0.7c-0.1-0.3-0.2-0.5-0.3-0.8c-0.1-0.3-0.1-0.6-0.1-0.9c0-0.3,0-0.6,0-0.9C125,170,125,169.7,125,169.4z M126,171.3
			c0,0.4,0.1,0.7,0.2,1c0.1,0.3,0.3,0.6,0.5,0.8s0.5,0.3,0.9,0.3c0.4,0,0.7-0.1,0.9-0.3c0.2-0.2,0.4-0.5,0.5-0.8
			c0.1-0.3,0.2-0.7,0.2-1c0-0.4,0-0.7,0-1c0-0.2,0-0.4,0-0.6c0-0.2,0-0.5-0.1-0.7s-0.1-0.5-0.1-0.7c-0.1-0.2-0.2-0.4-0.3-0.6
			s-0.3-0.3-0.5-0.4c-0.2-0.1-0.4-0.2-0.7-0.2c-0.3,0-0.5,0.1-0.7,0.2s-0.3,0.2-0.5,0.4s-0.2,0.4-0.3,0.6c-0.1,0.2-0.1,0.4-0.1,0.7
			s-0.1,0.5-0.1,0.7c0,0.2,0,0.4,0,0.6C126,170.6,126,170.9,126,171.3z"/>
	</g>
</g>
<g>
	<g>
		<path fill="#FFFFFF" d="M73.6,212.2c0.2-0.6,0.5-1.2,0.9-1.7c0.4-0.5,0.9-0.9,1.5-1.2c0.6-0.3,1.3-0.4,2.1-0.4
			c0.8,0,1.5,0.1,2.1,0.4c0.6,0.3,1.1,0.7,1.5,1.2c0.4,0.5,0.7,1,0.9,1.7c0.2,0.6,0.3,1.3,0.3,2c0,0.7-0.1,1.3-0.3,2
			s-0.5,1.2-0.9,1.7c-0.4,0.5-0.9,0.9-1.5,1.2c-0.6,0.3-1.3,0.4-2.1,0.4c-0.8,0-1.5-0.1-2.1-0.4c-0.6-0.3-1.1-0.7-1.5-1.2
			c-0.4-0.5-0.7-1-0.9-1.7s-0.3-1.3-0.3-2C73.3,213.4,73.4,212.8,73.6,212.2z M74.9,215.6c0.1,0.5,0.3,0.9,0.6,1.3
			c0.3,0.4,0.6,0.7,1.1,0.9c0.4,0.2,1,0.4,1.6,0.4c0.6,0,1.1-0.1,1.6-0.4c0.4-0.2,0.8-0.6,1.1-0.9c0.3-0.4,0.5-0.8,0.6-1.3
			c0.1-0.5,0.2-1,0.2-1.5s-0.1-1-0.2-1.5s-0.3-0.9-0.6-1.3c-0.3-0.4-0.6-0.7-1.1-0.9c-0.4-0.2-1-0.4-1.6-0.4c-0.6,0-1.1,0.1-1.6,0.4
			c-0.4,0.2-0.8,0.6-1.1,0.9c-0.3,0.4-0.5,0.8-0.6,1.3s-0.2,1-0.2,1.5S74.7,215.1,74.9,215.6z"/>
	</g>
	<g>
		<path fill="#FFFFFF" d="M85.5,211.9v1.1h0c0.5-0.9,1.3-1.3,2.4-1.3c0.5,0,0.9,0.1,1.2,0.2c0.3,0.1,0.6,0.3,0.8,0.5
			c0.2,0.2,0.3,0.5,0.4,0.8s0.1,0.7,0.1,1.1v4.8h-1.2v-4.9c0-0.4-0.1-0.8-0.4-1.1c-0.3-0.3-0.6-0.4-1.1-0.4c-0.4,0-0.7,0.1-0.9,0.2
			s-0.5,0.3-0.7,0.5c-0.2,0.2-0.3,0.4-0.4,0.7c-0.1,0.3-0.1,0.6-0.1,0.9v4.1h-1.2v-7.2H85.5z"/>
	</g>
	<g>
		<path fill="#FFFFFF" d="M93.4,209.1v3.7h0c0.2-0.4,0.5-0.7,0.9-0.9s0.9-0.3,1.4-0.3c0.6,0,1,0.1,1.5,0.3c0.4,0.2,0.8,0.5,1,0.8
			s0.5,0.8,0.6,1.2c0.1,0.5,0.2,0.9,0.2,1.5s-0.1,1-0.2,1.5c-0.1,0.5-0.3,0.9-0.6,1.2s-0.6,0.6-1,0.8c-0.4,0.2-0.9,0.3-1.4,0.3
			c-0.2,0-0.4,0-0.6-0.1c-0.2,0-0.4-0.1-0.7-0.2s-0.4-0.2-0.6-0.3c-0.2-0.1-0.4-0.3-0.5-0.5h0v1h-1.2v-10H93.4z M97.6,214.4
			c-0.1-0.3-0.2-0.6-0.4-0.9s-0.4-0.5-0.7-0.6c-0.3-0.2-0.6-0.2-1-0.2c-0.4,0-0.7,0.1-1,0.2s-0.5,0.4-0.7,0.6
			c-0.2,0.3-0.3,0.5-0.4,0.9c-0.1,0.3-0.1,0.7-0.1,1c0,0.4,0,0.7,0.1,1s0.2,0.6,0.4,0.9c0.2,0.3,0.4,0.5,0.7,0.6
			c0.3,0.2,0.6,0.2,1,0.2s0.8-0.1,1-0.2c0.3-0.2,0.5-0.4,0.7-0.6c0.2-0.3,0.3-0.6,0.4-0.9s0.1-0.7,0.1-1
			C97.8,215.1,97.7,214.8,97.6,214.4z"/>
	</g>
	<g>
		<path fill="#FFFFFF" d="M100.3,214c0.1-0.5,0.4-0.9,0.7-1.2c0.3-0.3,0.7-0.6,1.1-0.8c0.4-0.2,0.9-0.3,1.5-0.3
			c0.6,0,1.1,0.1,1.5,0.3c0.4,0.2,0.8,0.5,1.1,0.8c0.3,0.3,0.5,0.7,0.7,1.2c0.1,0.5,0.2,1,0.2,1.5c0,0.5-0.1,1-0.2,1.5
			c-0.2,0.5-0.4,0.9-0.7,1.2s-0.7,0.6-1.1,0.8s-0.9,0.3-1.5,0.3c-0.6,0-1.1-0.1-1.5-0.3c-0.4-0.2-0.8-0.5-1.1-0.8s-0.5-0.7-0.7-1.2
			c-0.2-0.5-0.2-1-0.2-1.5C100,215,100.1,214.5,100.3,214z M101.5,216.7c0.1,0.3,0.3,0.6,0.5,0.9s0.4,0.4,0.7,0.5
			c0.3,0.1,0.6,0.2,0.9,0.2c0.3,0,0.6-0.1,0.9-0.2c0.3-0.1,0.5-0.3,0.7-0.5c0.2-0.2,0.4-0.5,0.5-0.9s0.2-0.7,0.2-1.2
			c0-0.4-0.1-0.8-0.2-1.2s-0.3-0.6-0.5-0.9c-0.2-0.2-0.4-0.4-0.7-0.5s-0.6-0.2-0.9-0.2c-0.3,0-0.6,0.1-0.9,0.2s-0.5,0.3-0.7,0.5
			s-0.4,0.5-0.5,0.9s-0.2,0.7-0.2,1.2C101.3,215.9,101.3,216.3,101.5,216.7z"/>
	</g>
	<g>
		<path fill="#FFFFFF" d="M114,219.3c-0.3,0-0.6-0.1-0.7-0.3s-0.3-0.5-0.3-0.8c-0.3,0.4-0.7,0.7-1.1,0.8s-0.9,0.3-1.4,0.3
			c-0.3,0-0.6,0-0.9-0.1c-0.3-0.1-0.5-0.2-0.8-0.3c-0.2-0.2-0.4-0.4-0.5-0.6c-0.1-0.3-0.2-0.6-0.2-0.9c0-0.4,0.1-0.7,0.2-1
			c0.1-0.3,0.3-0.5,0.6-0.6c0.2-0.2,0.5-0.3,0.8-0.4c0.3-0.1,0.6-0.2,0.9-0.2c0.3-0.1,0.6-0.1,0.9-0.1c0.3,0,0.6-0.1,0.8-0.1
			c0.2-0.1,0.4-0.1,0.5-0.3s0.2-0.3,0.2-0.5c0-0.3,0-0.5-0.1-0.6s-0.2-0.3-0.4-0.4c-0.2-0.1-0.3-0.1-0.5-0.2s-0.4,0-0.6,0
			c-0.5,0-0.9,0.1-1.3,0.3s-0.5,0.6-0.5,1.1h-1.2c0-0.4,0.1-0.8,0.3-1.1c0.2-0.3,0.4-0.6,0.7-0.8c0.3-0.2,0.6-0.3,1-0.4
			c0.4-0.1,0.7-0.1,1.1-0.1c0.3,0,0.7,0,1,0.1s0.6,0.1,0.9,0.3s0.5,0.3,0.6,0.6c0.2,0.3,0.2,0.6,0.2,1v3.7c0,0.3,0,0.5,0,0.6
			c0,0.1,0.1,0.2,0.3,0.2c0.1,0,0.2,0,0.4-0.1v0.9C114.7,219.2,114.4,219.3,114,219.3z M112.3,215.6c-0.2,0.1-0.5,0.1-0.8,0.1
			c-0.3,0-0.5,0.1-0.8,0.1c-0.3,0-0.5,0.1-0.7,0.2c-0.2,0.1-0.4,0.2-0.5,0.4s-0.2,0.4-0.2,0.7c0,0.2,0,0.4,0.1,0.5
			c0.1,0.1,0.2,0.2,0.3,0.3c0.1,0.1,0.3,0.1,0.4,0.2c0.2,0,0.3,0.1,0.5,0.1c0.4,0,0.7-0.1,1-0.2c0.3-0.1,0.5-0.2,0.7-0.4
			c0.2-0.2,0.3-0.3,0.4-0.5s0.1-0.4,0.1-0.5v-1.2C112.8,215.5,112.6,215.6,112.3,215.6z"/>
	</g>
	<g>
		<path fill="#FFFFFF" d="M117.1,211.9v1.5h0c0.3-0.6,0.6-1,1.1-1.3c0.4-0.3,1-0.4,1.6-0.4v1.3c-0.5,0-0.9,0.1-1.2,0.2
			s-0.6,0.3-0.8,0.6s-0.4,0.6-0.4,0.9s-0.1,0.8-0.1,1.2v3.2h-1.2v-7.2H117.1z"/>
	</g>
	<g>
		<path fill="#FFFFFF" d="M125.7,219.1v-1h0c-0.2,0.4-0.5,0.7-0.9,0.9s-0.9,0.3-1.4,0.3c-0.6,0-1-0.1-1.5-0.3
			c-0.4-0.2-0.8-0.5-1-0.8s-0.5-0.7-0.6-1.2c-0.1-0.5-0.2-0.9-0.2-1.5c0-0.5,0.1-1,0.2-1.5c0.1-0.5,0.3-0.9,0.6-1.2
			c0.3-0.3,0.6-0.6,1-0.8c0.4-0.2,0.9-0.3,1.4-0.3c0.2,0,0.4,0,0.6,0.1s0.4,0.1,0.6,0.2c0.2,0.1,0.4,0.2,0.6,0.3s0.4,0.3,0.5,0.5h0
			v-3.7h1.2v10H125.7z M121.4,216.5c0.1,0.3,0.2,0.6,0.4,0.9s0.4,0.5,0.7,0.6s0.6,0.2,1,0.2c0.4,0,0.7-0.1,1-0.2
			c0.3-0.2,0.5-0.4,0.7-0.6c0.2-0.3,0.3-0.5,0.4-0.9c0.1-0.3,0.1-0.7,0.1-1c0-0.4,0-0.7-0.1-1c-0.1-0.3-0.2-0.6-0.4-0.9
			c-0.2-0.3-0.4-0.5-0.7-0.6c-0.3-0.2-0.6-0.2-1.1-0.2c-0.4,0-0.7,0.1-1,0.2c-0.3,0.2-0.5,0.4-0.7,0.6s-0.3,0.6-0.4,0.9
			s-0.1,0.7-0.1,1C121.3,215.9,121.3,216.2,121.4,216.5z"/>
	</g>
	<g>
		<path fill="#FFFFFF" d="M128.8,210.6v-1.5h1.2v1.5H128.8z M129.9,211.9v7.2h-1.2v-7.2H129.9z"/>
	</g>
	<g>
		<path fill="#FFFFFF" d="M132.9,211.9v1.1h0c0.5-0.9,1.3-1.3,2.4-1.3c0.5,0,0.9,0.1,1.2,0.2c0.3,0.1,0.6,0.3,0.8,0.5
			c0.2,0.2,0.3,0.5,0.4,0.8s0.1,0.7,0.1,1.1v4.8h-1.2v-4.9c0-0.4-0.1-0.8-0.4-1.1c-0.3-0.3-0.6-0.4-1.1-0.4c-0.4,0-0.7,0.1-0.9,0.2
			s-0.5,0.3-0.7,0.5c-0.2,0.2-0.3,0.4-0.4,0.7c-0.1,0.3-0.1,0.6-0.1,0.9v4.1h-1.2v-7.2H132.9z"/>
	</g>
	<g>
		<path fill="#FFFFFF" d="M145,221.2c-0.5,0.6-1.4,0.9-2.5,0.9c-0.3,0-0.7,0-1-0.1s-0.7-0.2-1-0.4s-0.5-0.4-0.7-0.7
			c-0.2-0.3-0.3-0.6-0.3-1h1.2c0,0.2,0.1,0.4,0.2,0.5c0.1,0.1,0.3,0.3,0.5,0.4c0.2,0.1,0.4,0.2,0.6,0.2c0.2,0,0.4,0.1,0.6,0.1
			c0.4,0,0.7-0.1,1-0.2c0.3-0.1,0.5-0.3,0.7-0.6c0.2-0.2,0.3-0.5,0.4-0.9s0.1-0.7,0.1-1.1v-0.5h0c-0.2,0.4-0.5,0.8-0.9,1
			c-0.4,0.2-0.9,0.3-1.3,0.3c-0.5,0-1-0.1-1.4-0.3c-0.4-0.2-0.7-0.5-1-0.8c-0.3-0.3-0.5-0.7-0.6-1.2c-0.1-0.4-0.2-0.9-0.2-1.4
			c0-0.4,0.1-0.9,0.2-1.3c0.1-0.5,0.3-0.9,0.6-1.2c0.3-0.4,0.6-0.7,1-0.9s1-0.4,1.6-0.4c0.5,0,0.9,0.1,1.3,0.3s0.7,0.5,0.9,0.9h0v-1
			h1.1v6.6C145.8,219.7,145.6,220.6,145,221.2z M143.5,217.9c0.3-0.2,0.5-0.4,0.7-0.6s0.3-0.6,0.4-0.9c0.1-0.3,0.1-0.7,0.1-1
			c0-0.3,0-0.6-0.1-0.9c-0.1-0.3-0.2-0.6-0.4-0.8c-0.2-0.2-0.4-0.4-0.6-0.6c-0.3-0.2-0.6-0.2-1-0.2c-0.4,0-0.7,0.1-1,0.2
			c-0.3,0.1-0.5,0.3-0.7,0.6c-0.2,0.2-0.3,0.5-0.4,0.8c-0.1,0.3-0.1,0.6-0.1,1c0,0.3,0,0.7,0.1,1c0.1,0.3,0.2,0.6,0.3,0.9
			s0.4,0.5,0.6,0.6c0.3,0.2,0.6,0.2,1,0.2C142.9,218.2,143.2,218.1,143.5,217.9z"/>
	</g>
	<g>
		<path fill="#FFFFFF" d="M157.4,219.1l-1.5-5.8h0l-1.5,5.8h-1.3l-2.3-7.2h1.3l1.6,5.9h0l1.5-5.9h1.3l1.5,5.9h0l1.6-5.9h1.2
			l-2.3,7.2H157.4z"/>
	</g>
	<g>
		<path fill="#FFFFFF" d="M167.7,219.3c-0.3,0-0.6-0.1-0.7-0.3c-0.2-0.2-0.3-0.5-0.3-0.8c-0.3,0.4-0.7,0.7-1.1,0.8
			c-0.4,0.2-0.9,0.3-1.4,0.3c-0.3,0-0.6,0-0.9-0.1c-0.3-0.1-0.5-0.2-0.8-0.3c-0.2-0.2-0.4-0.4-0.5-0.6c-0.1-0.3-0.2-0.6-0.2-0.9
			c0-0.4,0.1-0.7,0.2-1c0.1-0.3,0.3-0.5,0.6-0.6c0.2-0.2,0.5-0.3,0.8-0.4c0.3-0.1,0.6-0.2,0.9-0.2c0.3-0.1,0.6-0.1,0.9-0.1
			c0.3,0,0.6-0.1,0.8-0.1c0.2-0.1,0.4-0.1,0.5-0.3c0.1-0.1,0.2-0.3,0.2-0.5c0-0.3,0-0.5-0.1-0.6c-0.1-0.2-0.2-0.3-0.4-0.4
			s-0.3-0.1-0.5-0.2s-0.4,0-0.6,0c-0.5,0-0.9,0.1-1.3,0.3c-0.3,0.2-0.5,0.6-0.5,1.1H162c0-0.4,0.1-0.8,0.3-1.1
			c0.2-0.3,0.4-0.6,0.7-0.8c0.3-0.2,0.6-0.3,1-0.4c0.4-0.1,0.7-0.1,1.1-0.1c0.3,0,0.7,0,1,0.1c0.3,0,0.6,0.1,0.9,0.3
			c0.3,0.1,0.5,0.3,0.6,0.6s0.2,0.6,0.2,1v3.7c0,0.3,0,0.5,0,0.6c0,0.1,0.1,0.2,0.3,0.2c0.1,0,0.2,0,0.4-0.1v0.9
			C168.3,219.2,168,219.3,167.7,219.3z M166,215.6c-0.2,0.1-0.5,0.1-0.8,0.1c-0.3,0-0.5,0.1-0.8,0.1c-0.3,0-0.5,0.1-0.7,0.2
			c-0.2,0.1-0.4,0.2-0.5,0.4c-0.1,0.2-0.2,0.4-0.2,0.7c0,0.2,0,0.4,0.1,0.5c0.1,0.1,0.2,0.2,0.3,0.3c0.1,0.1,0.3,0.1,0.4,0.2
			c0.2,0,0.3,0.1,0.5,0.1c0.4,0,0.7-0.1,1-0.2c0.3-0.1,0.5-0.2,0.7-0.4c0.2-0.2,0.3-0.3,0.4-0.5s0.1-0.4,0.1-0.5v-1.2
			C166.4,215.5,166.3,215.6,166,215.6z"/>
	</g>
	<g>
		<path fill="#FFFFFF" d="M170.9,209.1v10h-1.2v-10H170.9z"/>
	</g>
	<g>
		<path fill="#FFFFFF" d="M174,209.1v5.9l3.3-3.2h1.6l-2.9,2.6l3.1,4.6h-1.5l-2.5-3.8l-1.1,1v2.7h-1.2v-10H174z"/>
	</g>
	<g>
		<path fill="#FFFFFF" d="M183.1,211.9v1h-1.4v4.5c0,0.1,0,0.3,0,0.3s0.1,0.1,0.1,0.2c0.1,0,0.2,0.1,0.3,0.1s0.3,0,0.5,0h0.5v1h-0.9
			c-0.3,0-0.6,0-0.8-0.1c-0.2,0-0.4-0.1-0.5-0.2c-0.1-0.1-0.2-0.3-0.3-0.5c-0.1-0.2-0.1-0.5-0.1-0.8v-4.6h-1.2v-1h1.2v-2.2h1.2v2.2
			H183.1z"/>
	</g>
	<g>
		<path fill="#FFFFFF" d="M185.6,209.1v3.8h0c0.1-0.2,0.2-0.4,0.4-0.6s0.4-0.3,0.6-0.4c0.2-0.1,0.4-0.2,0.7-0.2s0.5-0.1,0.7-0.1
			c0.5,0,0.9,0.1,1.2,0.2c0.3,0.1,0.6,0.3,0.8,0.5c0.2,0.2,0.3,0.5,0.4,0.8c0.1,0.3,0.1,0.7,0.1,1.1v4.8h-1.2v-4.9
			c0-0.4-0.1-0.8-0.4-1.1c-0.3-0.3-0.6-0.4-1.1-0.4c-0.4,0-0.7,0.1-0.9,0.2c-0.3,0.1-0.5,0.3-0.7,0.5s-0.3,0.4-0.4,0.7
			c-0.1,0.3-0.1,0.6-0.1,0.9v4.1h-1.2v-10H185.6z"/>
	</g>
	<g>
		<path fill="#FFFFFF" d="M193.3,211.9v1.5h0c0.3-0.6,0.6-1,1.1-1.3c0.4-0.3,1-0.4,1.6-0.4v1.3c-0.5,0-0.9,0.1-1.2,0.2
			s-0.6,0.3-0.8,0.6s-0.4,0.6-0.4,0.9s-0.1,0.8-0.1,1.2v3.2h-1.2v-7.2H193.3z"/>
	</g>
	<g>
		<path fill="#FFFFFF" d="M196.4,214c0.2-0.5,0.4-0.9,0.7-1.2c0.3-0.3,0.7-0.6,1.1-0.8c0.4-0.2,0.9-0.3,1.5-0.3
			c0.6,0,1.1,0.1,1.5,0.3c0.4,0.2,0.8,0.5,1.1,0.8c0.3,0.3,0.5,0.7,0.7,1.2c0.2,0.5,0.2,1,0.2,1.5c0,0.5-0.1,1-0.2,1.5
			c-0.1,0.5-0.4,0.9-0.7,1.2s-0.7,0.6-1.1,0.8c-0.4,0.2-0.9,0.3-1.5,0.3c-0.6,0-1.1-0.1-1.5-0.3c-0.4-0.2-0.8-0.5-1.1-0.8
			c-0.3-0.3-0.5-0.7-0.7-1.2c-0.1-0.5-0.2-1-0.2-1.5C196.2,215,196.3,214.5,196.4,214z M197.7,216.7c0.1,0.3,0.3,0.6,0.5,0.9
			s0.4,0.4,0.7,0.5c0.3,0.1,0.6,0.2,0.9,0.2s0.6-0.1,0.9-0.2c0.3-0.1,0.5-0.3,0.7-0.5s0.4-0.5,0.5-0.9c0.1-0.3,0.2-0.7,0.2-1.2
			c0-0.4-0.1-0.8-0.2-1.2c-0.1-0.3-0.3-0.6-0.5-0.9s-0.4-0.4-0.7-0.5s-0.6-0.2-0.9-0.2s-0.6,0.1-0.9,0.2s-0.5,0.3-0.7,0.5
			s-0.4,0.5-0.5,0.9c-0.1,0.3-0.2,0.7-0.2,1.2C197.5,215.9,197.5,216.3,197.7,216.7z"/>
	</g>
	<g>
		<path fill="#FFFFFF" d="M209.5,219.1V218h0c-0.3,0.4-0.6,0.8-1,1c-0.4,0.2-0.9,0.3-1.4,0.3c-0.5,0-0.9-0.1-1.2-0.2
			c-0.3-0.1-0.6-0.3-0.8-0.5c-0.2-0.2-0.3-0.5-0.4-0.8c-0.1-0.3-0.1-0.7-0.1-1.1v-4.8h1.2v4.9c0,0.4,0.1,0.8,0.4,1.1
			s0.6,0.4,1.1,0.4c0.4,0,0.7-0.1,0.9-0.2c0.3-0.1,0.5-0.3,0.7-0.5s0.3-0.4,0.4-0.7c0.1-0.3,0.1-0.6,0.1-0.9v-4.1h1.2v7.2H209.5z"/>
	</g>
	<g>
		<path fill="#FFFFFF" d="M217.9,221.2c-0.5,0.6-1.4,0.9-2.5,0.9c-0.3,0-0.7,0-1-0.1s-0.7-0.2-1-0.4s-0.5-0.4-0.7-0.7
			c-0.2-0.3-0.3-0.6-0.3-1h1.2c0,0.2,0.1,0.4,0.2,0.5c0.1,0.1,0.3,0.3,0.5,0.4c0.2,0.1,0.4,0.2,0.6,0.2c0.2,0,0.4,0.1,0.6,0.1
			c0.4,0,0.7-0.1,1-0.2c0.3-0.1,0.5-0.3,0.7-0.6c0.2-0.2,0.3-0.5,0.4-0.9s0.1-0.7,0.1-1.1v-0.5h0c-0.2,0.4-0.5,0.8-0.9,1
			c-0.4,0.2-0.9,0.3-1.3,0.3c-0.5,0-1-0.1-1.4-0.3c-0.4-0.2-0.7-0.5-1-0.8c-0.3-0.3-0.5-0.7-0.6-1.2c-0.1-0.4-0.2-0.9-0.2-1.4
			c0-0.4,0.1-0.9,0.2-1.3c0.1-0.5,0.3-0.9,0.6-1.2c0.3-0.4,0.6-0.7,1-0.9s1-0.4,1.6-0.4c0.5,0,0.9,0.1,1.3,0.3s0.7,0.5,0.9,0.9h0v-1
			h1.1v6.6C218.7,219.7,218.4,220.6,217.9,221.2z M216.3,217.9c0.3-0.2,0.5-0.4,0.7-0.6s0.3-0.6,0.4-0.9c0.1-0.3,0.1-0.7,0.1-1
			c0-0.3,0-0.6-0.1-0.9c-0.1-0.3-0.2-0.6-0.4-0.8c-0.2-0.2-0.4-0.4-0.6-0.6c-0.3-0.2-0.6-0.2-1-0.2c-0.4,0-0.7,0.1-1,0.2
			c-0.3,0.1-0.5,0.3-0.7,0.6c-0.2,0.2-0.3,0.5-0.4,0.8c-0.1,0.3-0.1,0.6-0.1,1c0,0.3,0,0.7,0.1,1c0.1,0.3,0.2,0.6,0.3,0.9
			s0.4,0.5,0.6,0.6c0.3,0.2,0.6,0.2,1,0.2C215.7,218.2,216.1,218.1,216.3,217.9z"/>
	</g>
	<g>
		<path fill="#FFFFFF" d="M221.7,209.1v3.8h0c0.1-0.2,0.2-0.4,0.4-0.6s0.4-0.3,0.6-0.4c0.2-0.1,0.4-0.2,0.7-0.2
			c0.2,0,0.4-0.1,0.7-0.1c0.5,0,0.9,0.1,1.2,0.2c0.3,0.1,0.6,0.3,0.8,0.5c0.2,0.2,0.3,0.5,0.4,0.8s0.1,0.7,0.1,1.1v4.8h-1.2v-4.9
			c0-0.4-0.1-0.8-0.4-1.1c-0.3-0.3-0.6-0.4-1.1-0.4c-0.4,0-0.7,0.1-0.9,0.2s-0.5,0.3-0.7,0.5c-0.2,0.2-0.3,0.4-0.4,0.7
			c-0.1,0.3-0.1,0.6-0.1,0.9v4.1h-1.2v-10H221.7z"/>
	</g>
	<g>
		<path fill="#FFFFFF" d="M237.4,219.1v-1h0c-0.2,0.4-0.5,0.7-0.9,0.9s-0.9,0.3-1.4,0.3c-0.6,0-1-0.1-1.5-0.3
			c-0.4-0.2-0.8-0.5-1-0.8s-0.5-0.7-0.6-1.2c-0.1-0.5-0.2-0.9-0.2-1.5c0-0.5,0.1-1,0.2-1.5s0.3-0.9,0.6-1.2c0.3-0.3,0.6-0.6,1-0.8
			s0.9-0.3,1.4-0.3c0.2,0,0.4,0,0.6,0.1s0.4,0.1,0.6,0.2c0.2,0.1,0.4,0.2,0.6,0.3s0.4,0.3,0.5,0.5h0v-3.7h1.2v10H237.4z
			 M233.1,216.5c0.1,0.3,0.2,0.6,0.4,0.9c0.2,0.3,0.4,0.5,0.7,0.6c0.3,0.1,0.6,0.2,1,0.2c0.4,0,0.7-0.1,1-0.2
			c0.3-0.2,0.5-0.4,0.7-0.6c0.2-0.3,0.3-0.5,0.4-0.9c0.1-0.3,0.1-0.7,0.1-1c0-0.4,0-0.7-0.1-1c-0.1-0.3-0.2-0.6-0.4-0.9
			s-0.4-0.5-0.7-0.6c-0.3-0.2-0.6-0.2-1.1-0.2c-0.4,0-0.7,0.1-1,0.2c-0.3,0.2-0.5,0.4-0.7,0.6s-0.3,0.6-0.4,0.9
			c-0.1,0.3-0.1,0.7-0.1,1C233,215.9,233.1,216.2,233.1,216.5z"/>
	</g>
	<g>
		<path fill="#FFFFFF" d="M245.6,218.7c-0.5,0.4-1.2,0.6-2,0.6c-0.6,0-1.1-0.1-1.5-0.3c-0.4-0.2-0.8-0.4-1.1-0.8
			c-0.3-0.3-0.5-0.7-0.7-1.2s-0.2-1-0.2-1.5c0-0.5,0.1-1.1,0.3-1.5c0.2-0.5,0.4-0.9,0.7-1.2c0.3-0.3,0.7-0.6,1.1-0.8
			c0.4-0.2,0.9-0.3,1.4-0.3c0.6,0,1.2,0.1,1.6,0.4c0.4,0.3,0.8,0.6,1,1c0.3,0.4,0.4,0.9,0.5,1.3s0.1,0.9,0.1,1.4h-5.4
			c0,0.3,0,0.6,0.1,0.9s0.2,0.5,0.4,0.8s0.4,0.4,0.7,0.5c0.3,0.1,0.6,0.2,1,0.2c0.5,0,0.9-0.1,1.2-0.4s0.5-0.6,0.6-1.1h1.2
			C246.5,217.6,246.1,218.2,245.6,218.7z M245.3,214c-0.1-0.3-0.3-0.5-0.4-0.7c-0.2-0.2-0.4-0.3-0.6-0.4s-0.5-0.2-0.8-0.2
			c-0.3,0-0.6,0.1-0.8,0.2c-0.2,0.1-0.5,0.3-0.6,0.4c-0.2,0.2-0.3,0.4-0.4,0.7s-0.2,0.5-0.2,0.8h4.2
			C245.5,214.5,245.4,214.3,245.3,214z"/>
	</g>
	<g>
		<path fill="#FFFFFF" d="M249.1,211.9v1.1h0c0.5-0.8,1.3-1.2,2.3-1.2c0.4,0,0.9,0.1,1.2,0.3c0.4,0.2,0.6,0.5,0.8,1
			c0.2-0.4,0.6-0.7,1-0.9s0.8-0.3,1.3-0.3c0.4,0,0.7,0,1,0.1c0.3,0.1,0.5,0.2,0.8,0.4c0.2,0.2,0.4,0.4,0.5,0.7
			c0.1,0.3,0.2,0.6,0.2,1v5.3h-1.2v-4.7c0-0.2,0-0.4-0.1-0.6c0-0.2-0.1-0.4-0.2-0.5c-0.1-0.1-0.2-0.3-0.4-0.3s-0.4-0.1-0.7-0.1
			c-0.6,0-1,0.2-1.4,0.5s-0.5,0.8-0.5,1.3v4.5h-1.2v-4.7c0-0.2,0-0.4-0.1-0.6c0-0.2-0.1-0.4-0.2-0.5c-0.1-0.1-0.2-0.3-0.4-0.3
			c-0.2-0.1-0.4-0.1-0.7-0.1c-0.3,0-0.6,0.1-0.9,0.2c-0.2,0.1-0.4,0.3-0.6,0.5c-0.2,0.2-0.3,0.4-0.3,0.6c-0.1,0.2-0.1,0.4-0.1,0.5
			v4.5H248v-7.2H249.1z"/>
	</g>
	<g>
		<path fill="#FFFFFF" d="M259.7,214c0.1-0.5,0.4-0.9,0.7-1.2c0.3-0.3,0.7-0.6,1.1-0.8c0.4-0.2,0.9-0.3,1.5-0.3
			c0.6,0,1.1,0.1,1.5,0.3c0.4,0.2,0.8,0.5,1.1,0.8c0.3,0.3,0.5,0.7,0.7,1.2c0.1,0.5,0.2,1,0.2,1.5c0,0.5-0.1,1-0.2,1.5
			c-0.2,0.5-0.4,0.9-0.7,1.2s-0.7,0.6-1.1,0.8s-0.9,0.3-1.5,0.3c-0.6,0-1.1-0.1-1.5-0.3c-0.4-0.2-0.8-0.5-1.1-0.8s-0.5-0.7-0.7-1.2
			c-0.2-0.5-0.2-1-0.2-1.5C259.5,215,259.6,214.5,259.7,214z M261,216.7c0.1,0.3,0.3,0.6,0.5,0.9s0.4,0.4,0.7,0.5
			c0.3,0.1,0.6,0.2,0.9,0.2c0.3,0,0.6-0.1,0.9-0.2c0.3-0.1,0.5-0.3,0.7-0.5c0.2-0.2,0.4-0.5,0.5-0.9s0.2-0.7,0.2-1.2
			c0-0.4-0.1-0.8-0.2-1.2s-0.3-0.6-0.5-0.9c-0.2-0.2-0.4-0.4-0.7-0.5s-0.6-0.2-0.9-0.2c-0.3,0-0.6,0.1-0.9,0.2s-0.5,0.3-0.7,0.5
			s-0.4,0.5-0.5,0.9s-0.2,0.7-0.2,1.2C260.8,215.9,260.8,216.3,261,216.7z"/>
	</g>
</g>
<g>
	<g>
		<path fill="#C6C6C6" d="M76.4,227.3c1.2,0,2.1,0.3,2.8,0.9c0.7,0.6,1,1.6,1,2.8c0,0.7-0.1,1.2-0.2,1.8s-0.4,0.9-0.7,1.3
			c-0.3,0.3-0.7,0.6-1.2,0.8s-1,0.3-1.7,0.3h-2.7v-7.9H76.4z M76.4,234.2c0.1,0,0.3,0,0.4,0s0.4-0.1,0.6-0.1
			c0.2-0.1,0.4-0.2,0.6-0.3c0.2-0.1,0.4-0.3,0.5-0.5c0.2-0.2,0.3-0.5,0.4-0.9c0.1-0.3,0.1-0.8,0.1-1.2c0-0.5,0-0.9-0.1-1.3
			c-0.1-0.4-0.2-0.7-0.5-0.9s-0.5-0.5-0.8-0.6c-0.3-0.1-0.7-0.2-1.2-0.2h-1.8v6.1H76.4z"/>
	</g>
	<g>
		<path fill="#C6C6C6" d="M85.1,235.1v-0.9h0c-0.2,0.4-0.5,0.6-0.8,0.8c-0.3,0.2-0.7,0.2-1.1,0.2c-0.4,0-0.7,0-0.9-0.1
			c-0.2-0.1-0.5-0.2-0.6-0.4c-0.2-0.2-0.3-0.4-0.3-0.7c-0.1-0.3-0.1-0.5-0.1-0.8v-3.7h0.9v3.9c0,0.4,0.1,0.6,0.3,0.8
			c0.2,0.2,0.5,0.3,0.8,0.3c0.3,0,0.5,0,0.7-0.1s0.4-0.2,0.5-0.4c0.1-0.2,0.2-0.3,0.3-0.6c0.1-0.2,0.1-0.5,0.1-0.7v-3.2H86v5.7H85.1
			z"/>
	</g>
	<g>
		<path fill="#C6C6C6" d="M91.4,234.8c-0.4,0.3-1,0.5-1.6,0.5c-0.5,0-0.8-0.1-1.2-0.2c-0.3-0.1-0.6-0.4-0.8-0.6
			c-0.2-0.3-0.4-0.6-0.5-0.9c-0.1-0.4-0.2-0.8-0.2-1.2c0-0.4,0.1-0.8,0.2-1.2c0.1-0.4,0.3-0.7,0.6-0.9s0.5-0.5,0.8-0.6
			c0.3-0.1,0.7-0.2,1.1-0.2c0.5,0,0.9,0.1,1.3,0.3c0.3,0.2,0.6,0.5,0.8,0.8c0.2,0.3,0.3,0.7,0.4,1.1c0.1,0.4,0.1,0.7,0.1,1.1H88
			c0,0.2,0,0.5,0.1,0.7c0.1,0.2,0.2,0.4,0.3,0.6s0.3,0.3,0.6,0.4c0.2,0.1,0.5,0.2,0.8,0.2c0.4,0,0.7-0.1,1-0.3
			c0.3-0.2,0.4-0.5,0.5-0.8h0.9C92.1,234,91.8,234.4,91.4,234.8z M91.2,231.1c-0.1-0.2-0.2-0.4-0.3-0.5c-0.1-0.1-0.3-0.3-0.5-0.3
			c-0.2-0.1-0.4-0.1-0.6-0.1c-0.2,0-0.5,0-0.7,0.1c-0.2,0.1-0.4,0.2-0.5,0.3c-0.1,0.1-0.2,0.3-0.3,0.5s-0.1,0.4-0.1,0.6h3.3
			C91.3,231.5,91.2,231.3,91.2,231.1z"/>
	</g>
	<g>
		<path fill="#C6C6C6" d="M97.6,227.3l4.1,6.4h0v-6.4h1v7.9h-1.1l-4.1-6.3h0v6.3h-1v-7.9H97.6z"/>
	</g>
	<g>
		<path fill="#C6C6C6" d="M104.1,231.1c0.1-0.4,0.3-0.7,0.5-0.9c0.2-0.3,0.5-0.5,0.9-0.6c0.3-0.2,0.7-0.2,1.2-0.2
			c0.5,0,0.9,0.1,1.2,0.2c0.3,0.2,0.6,0.4,0.9,0.6s0.4,0.6,0.5,0.9c0.1,0.4,0.2,0.8,0.2,1.2s-0.1,0.8-0.2,1.2s-0.3,0.7-0.5,0.9
			s-0.5,0.5-0.9,0.6c-0.3,0.2-0.7,0.2-1.2,0.2c-0.4,0-0.8-0.1-1.2-0.2c-0.3-0.2-0.6-0.4-0.9-0.6c-0.2-0.3-0.4-0.6-0.5-0.9
			s-0.2-0.7-0.2-1.2S104,231.5,104.1,231.1z M105.1,233.2c0.1,0.3,0.2,0.5,0.4,0.7c0.2,0.2,0.3,0.3,0.6,0.4c0.2,0.1,0.4,0.1,0.7,0.1
			s0.5,0,0.7-0.1c0.2-0.1,0.4-0.2,0.6-0.4c0.2-0.2,0.3-0.4,0.4-0.7s0.1-0.6,0.1-0.9c0-0.3,0-0.7-0.1-0.9s-0.2-0.5-0.4-0.7
			c-0.2-0.2-0.4-0.3-0.6-0.4c-0.2-0.1-0.4-0.1-0.7-0.1s-0.5,0-0.7,0.1c-0.2,0.1-0.4,0.2-0.6,0.4c-0.2,0.2-0.3,0.4-0.4,0.7
			s-0.1,0.6-0.1,0.9C105,232.6,105,232.9,105.1,233.2z"/>
	</g>
	<g>
		<path fill="#C6C6C6" d="M112.1,235.1l-2.1-5.7h1l1.6,4.7h0l1.6-4.7h1l-2.1,5.7H112.1z"/>
	</g>
	<g>
		<path fill="#C6C6C6" d="M119,229c0.1-0.3,0.3-0.6,0.5-0.9c0.2-0.2,0.5-0.4,0.8-0.6c0.3-0.1,0.7-0.2,1.1-0.2c0.3,0,0.7,0,1,0.1
			c0.3,0.1,0.6,0.2,0.8,0.4c0.2,0.2,0.4,0.4,0.5,0.7c0.1,0.3,0.2,0.6,0.2,1c0,0.3-0.1,0.6-0.2,0.9c-0.1,0.3-0.2,0.5-0.4,0.7
			c-0.2,0.2-0.4,0.4-0.6,0.6c-0.2,0.2-0.5,0.3-0.7,0.5c-0.2,0.1-0.5,0.3-0.7,0.4c-0.2,0.1-0.5,0.3-0.7,0.5c-0.2,0.2-0.4,0.3-0.5,0.5
			s-0.2,0.4-0.3,0.6h4v0.8h-5.1c0-0.5,0.1-0.9,0.2-1.2c0.1-0.3,0.3-0.6,0.5-0.9c0.2-0.2,0.4-0.5,0.7-0.6c0.2-0.2,0.5-0.4,0.8-0.5
			c0.3-0.2,0.6-0.4,0.9-0.6c0.2-0.2,0.5-0.3,0.6-0.5c0.2-0.2,0.3-0.4,0.4-0.6c0.1-0.2,0.1-0.4,0.1-0.7c0-0.2,0-0.4-0.1-0.6
			c-0.1-0.2-0.2-0.3-0.3-0.4c-0.1-0.1-0.3-0.2-0.5-0.3c-0.2-0.1-0.4-0.1-0.6-0.1c-0.3,0-0.5,0.1-0.7,0.2c-0.2,0.1-0.4,0.3-0.5,0.4
			s-0.2,0.4-0.3,0.6c-0.1,0.2-0.1,0.5-0.1,0.7h-0.9C118.9,229.7,118.9,229.3,119,229z"/>
	</g>
	<g>
		<path fill="#C6C6C6" d="M127.1,230.7c0,0,0.1,0,0.1,0h0.2c0.2,0,0.4,0,0.6-0.1c0.2-0.1,0.3-0.1,0.5-0.2c0.1-0.1,0.2-0.2,0.3-0.4
			c0.1-0.2,0.1-0.3,0.1-0.5c0-0.4-0.1-0.7-0.4-0.9s-0.6-0.3-1-0.3c-0.2,0-0.5,0-0.7,0.1s-0.3,0.2-0.5,0.4c-0.1,0.2-0.2,0.3-0.3,0.5
			c-0.1,0.2-0.1,0.4-0.1,0.6h-0.9c0-0.4,0.1-0.7,0.2-1c0.1-0.3,0.3-0.6,0.5-0.8c0.2-0.2,0.4-0.4,0.7-0.5c0.3-0.1,0.6-0.2,1-0.2
			c0.3,0,0.7,0,0.9,0.1c0.3,0.1,0.5,0.2,0.8,0.4c0.2,0.2,0.4,0.4,0.5,0.6s0.2,0.6,0.2,0.9c0,0.4-0.1,0.7-0.3,0.9s-0.5,0.5-0.8,0.6v0
			c0.5,0.1,0.8,0.3,1.1,0.7c0.2,0.3,0.3,0.8,0.3,1.2c0,0.4-0.1,0.7-0.2,1s-0.3,0.5-0.6,0.7c-0.2,0.2-0.5,0.3-0.9,0.4
			c-0.3,0.1-0.7,0.1-1,0.1c-0.4,0-0.8-0.1-1.1-0.2c-0.3-0.1-0.6-0.3-0.8-0.5c-0.2-0.2-0.4-0.5-0.5-0.8c-0.1-0.3-0.2-0.7-0.2-1.1h0.9
			c0,0.5,0.2,0.9,0.4,1.2s0.7,0.5,1.2,0.5c0.2,0,0.4,0,0.7-0.1c0.2-0.1,0.4-0.2,0.5-0.3c0.2-0.1,0.3-0.3,0.4-0.5
			c0.1-0.2,0.1-0.4,0.1-0.6c0-0.2,0-0.5-0.1-0.6s-0.2-0.3-0.4-0.5c-0.1-0.1-0.3-0.2-0.5-0.3c-0.2-0.1-0.4-0.1-0.7-0.1
			c-0.2,0-0.4,0-0.6,0L127.1,230.7C127,230.7,127,230.7,127.1,230.7z"/>
	</g>
</g>
<g>
	<rect x="33" y="149" fill="#7CC5FF" width="27" height="27"/>
</g>
<g>
	<g>
		<path fill="#FFFFFF" d="M78.9,272.5c-0.4-0.3-1-0.5-1.7-0.5c-0.3,0-0.6,0-0.8,0.1c-0.3,0.1-0.5,0.1-0.7,0.3
			c-0.2,0.1-0.4,0.3-0.5,0.5c-0.1,0.2-0.2,0.5-0.2,0.8c0,0.3,0.1,0.6,0.3,0.7c0.2,0.2,0.4,0.3,0.7,0.5c0.3,0.1,0.6,0.2,1,0.3
			c0.4,0.1,0.8,0.2,1.2,0.3c0.4,0.1,0.8,0.2,1.2,0.3c0.4,0.1,0.7,0.3,1,0.5c0.3,0.2,0.5,0.5,0.7,0.8c0.2,0.3,0.3,0.7,0.3,1.2
			c0,0.5-0.1,1-0.4,1.4c-0.2,0.4-0.5,0.7-0.9,0.9c-0.4,0.2-0.8,0.4-1.3,0.5c-0.5,0.1-0.9,0.2-1.4,0.2c-0.6,0-1.1-0.1-1.6-0.2
			c-0.5-0.1-0.9-0.4-1.3-0.6c-0.4-0.3-0.7-0.6-0.9-1.1c-0.2-0.4-0.3-1-0.3-1.6h1.3c0,0.4,0.1,0.8,0.2,1.1c0.2,0.3,0.4,0.6,0.6,0.8
			c0.3,0.2,0.6,0.3,0.9,0.4s0.7,0.1,1.1,0.1c0.3,0,0.6,0,0.9-0.1c0.3-0.1,0.6-0.2,0.8-0.3c0.2-0.1,0.4-0.3,0.6-0.6s0.2-0.5,0.2-0.9
			c0-0.3-0.1-0.6-0.3-0.8c-0.2-0.2-0.4-0.4-0.7-0.5c-0.3-0.1-0.6-0.2-1-0.3c-0.4-0.1-0.8-0.2-1.2-0.3c-0.4-0.1-0.8-0.2-1.2-0.3
			c-0.4-0.1-0.7-0.3-1-0.5c-0.3-0.2-0.5-0.4-0.7-0.7c-0.2-0.3-0.3-0.7-0.3-1.1c0-0.5,0.1-0.9,0.3-1.3c0.2-0.4,0.5-0.7,0.8-0.9
			c0.3-0.2,0.7-0.4,1.2-0.5c0.4-0.1,0.9-0.2,1.3-0.2c0.5,0,1,0.1,1.4,0.2c0.4,0.1,0.8,0.3,1.2,0.6c0.3,0.3,0.6,0.6,0.8,1
			c0.2,0.4,0.3,0.9,0.3,1.4h-1.3C79.6,273.3,79.3,272.8,78.9,272.5z"/>
	</g>
	<g>
		<path fill="#FFFFFF" d="M87.9,280.7c-0.5,0.4-1.2,0.6-2,0.6c-0.6,0-1.1-0.1-1.5-0.3c-0.4-0.2-0.8-0.4-1.1-0.8
			c-0.3-0.3-0.5-0.7-0.7-1.2s-0.2-1-0.2-1.5c0-0.5,0.1-1.1,0.3-1.5c0.2-0.5,0.4-0.9,0.7-1.2s0.7-0.6,1.1-0.8
			c0.4-0.2,0.9-0.3,1.4-0.3c0.6,0,1.2,0.1,1.6,0.4c0.4,0.3,0.8,0.6,1,1c0.3,0.4,0.4,0.9,0.5,1.3c0.1,0.5,0.1,0.9,0.1,1.4h-5.4
			c0,0.3,0,0.6,0.1,0.9s0.2,0.5,0.4,0.8c0.2,0.2,0.4,0.4,0.7,0.5c0.3,0.1,0.6,0.2,1,0.2c0.5,0,0.9-0.1,1.2-0.4s0.5-0.6,0.6-1.1h1.2
			C88.8,279.6,88.4,280.2,87.9,280.7z M87.6,276c-0.1-0.3-0.3-0.5-0.4-0.7c-0.2-0.2-0.4-0.3-0.6-0.4c-0.2-0.1-0.5-0.2-0.8-0.2
			c-0.3,0-0.6,0.1-0.8,0.2s-0.5,0.3-0.6,0.4c-0.2,0.2-0.3,0.4-0.4,0.7c-0.1,0.2-0.2,0.5-0.2,0.8h4.2C87.8,276.5,87.7,276.3,87.6,276
			z"/>
	</g>
	<g>
		<path fill="#FFFFFF" d="M91.5,271.1v10h-1.2v-10H91.5z"/>
	</g>
	<g>
		<path fill="#FFFFFF" d="M92.7,274.9v-1h1.2v-1.1c0-0.6,0.2-1,0.5-1.3c0.3-0.3,0.8-0.5,1.5-0.5c0.1,0,0.2,0,0.4,0
			c0.1,0,0.3,0,0.4,0.1v1c-0.1,0-0.2-0.1-0.3-0.1c-0.1,0-0.2,0-0.3,0c-0.3,0-0.5,0.1-0.7,0.2c-0.2,0.1-0.2,0.3-0.2,0.6v1h1.4v1h-1.4
			v6.2h-1.2v-6.2H92.7z"/>
	</g>
	<g>
		<path fill="#FFFFFF" d="M101.4,276.7v1.1h-4v-1.1H101.4z"/>
	</g>
	<g>
		<path fill="#FFFFFF" d="M108.1,280.7c-0.5,0.4-1.2,0.6-2,0.6c-0.6,0-1.1-0.1-1.5-0.3c-0.4-0.2-0.8-0.4-1.1-0.8
			c-0.3-0.3-0.5-0.7-0.7-1.2s-0.2-1-0.2-1.5c0-0.5,0.1-1.1,0.3-1.5c0.2-0.5,0.4-0.9,0.7-1.2s0.7-0.6,1.1-0.8
			c0.4-0.2,0.9-0.3,1.4-0.3c0.6,0,1.2,0.1,1.6,0.4c0.4,0.3,0.8,0.6,1,1c0.3,0.4,0.4,0.9,0.5,1.3c0.1,0.5,0.1,0.9,0.1,1.4h-5.4
			c0,0.3,0,0.6,0.1,0.9s0.2,0.5,0.4,0.8c0.2,0.2,0.4,0.4,0.7,0.5c0.3,0.1,0.6,0.2,1,0.2c0.5,0,0.9-0.1,1.2-0.4s0.5-0.6,0.6-1.1h1.2
			C109,279.6,108.6,280.2,108.1,280.7z M107.8,276c-0.1-0.3-0.3-0.5-0.4-0.7c-0.2-0.2-0.4-0.3-0.6-0.4c-0.2-0.1-0.5-0.2-0.8-0.2
			c-0.3,0-0.6,0.1-0.8,0.2s-0.5,0.3-0.6,0.4c-0.2,0.2-0.3,0.4-0.4,0.7c-0.1,0.2-0.2,0.5-0.2,0.8h4.2
			C108,276.5,107.9,276.3,107.8,276z"/>
	</g>
	<g>
		<path fill="#FFFFFF" d="M111.6,273.9v1.1h0c0.5-0.9,1.3-1.3,2.4-1.3c0.5,0,0.9,0.1,1.2,0.2s0.6,0.3,0.8,0.5
			c0.2,0.2,0.3,0.5,0.4,0.8c0.1,0.3,0.1,0.7,0.1,1.1v4.8h-1.2v-4.9c0-0.4-0.1-0.8-0.4-1.1c-0.3-0.3-0.6-0.4-1.1-0.4
			c-0.4,0-0.7,0.1-0.9,0.2c-0.3,0.1-0.5,0.3-0.7,0.5c-0.2,0.2-0.3,0.4-0.4,0.7s-0.1,0.6-0.1,0.9v4.1h-1.2v-7.2H111.6z"/>
	</g>
	<g>
		<path fill="#FFFFFF" d="M123.8,281.3c-0.3,0-0.6-0.1-0.7-0.3c-0.2-0.2-0.3-0.5-0.3-0.8c-0.3,0.4-0.7,0.7-1.1,0.8
			c-0.4,0.2-0.9,0.3-1.4,0.3c-0.3,0-0.6,0-0.9-0.1c-0.3-0.1-0.5-0.2-0.8-0.3c-0.2-0.2-0.4-0.4-0.5-0.6s-0.2-0.6-0.2-0.9
			c0-0.4,0.1-0.7,0.2-1s0.3-0.5,0.6-0.6c0.2-0.2,0.5-0.3,0.8-0.4s0.6-0.2,0.9-0.2c0.3-0.1,0.6-0.1,0.9-0.1s0.6-0.1,0.8-0.1
			c0.2-0.1,0.4-0.1,0.5-0.3c0.1-0.1,0.2-0.3,0.2-0.5c0-0.3,0-0.5-0.1-0.6c-0.1-0.2-0.2-0.3-0.4-0.4c-0.2-0.1-0.3-0.1-0.5-0.2
			s-0.4,0-0.6,0c-0.5,0-0.9,0.1-1.3,0.3c-0.3,0.2-0.5,0.6-0.5,1.1h-1.2c0-0.4,0.1-0.8,0.3-1.1c0.2-0.3,0.4-0.6,0.7-0.8
			c0.3-0.2,0.6-0.3,1-0.4s0.7-0.1,1.1-0.1c0.3,0,0.7,0,1,0.1c0.3,0,0.6,0.1,0.9,0.3c0.3,0.1,0.5,0.3,0.6,0.6c0.2,0.3,0.2,0.6,0.2,1
			v3.7c0,0.3,0,0.5,0,0.6c0,0.1,0.1,0.2,0.3,0.2c0.1,0,0.2,0,0.4-0.1v0.9C124.5,281.2,124.2,281.3,123.8,281.3z M122.2,277.6
			c-0.2,0.1-0.5,0.1-0.8,0.1c-0.3,0-0.5,0.1-0.8,0.1c-0.3,0-0.5,0.1-0.7,0.2c-0.2,0.1-0.4,0.2-0.5,0.4c-0.1,0.2-0.2,0.4-0.2,0.7
			c0,0.2,0,0.4,0.1,0.5c0.1,0.1,0.2,0.2,0.3,0.3s0.3,0.1,0.4,0.2s0.3,0.1,0.5,0.1c0.4,0,0.7-0.1,1-0.2s0.5-0.2,0.7-0.4
			c0.2-0.2,0.3-0.3,0.4-0.5s0.1-0.4,0.1-0.5v-1.2C122.6,277.5,122.4,277.6,122.2,277.6z"/>
	</g>
	<g>
		<path fill="#FFFFFF" d="M127,271.1v3.7h0c0.2-0.4,0.5-0.7,0.9-0.9s0.9-0.3,1.4-0.3c0.6,0,1,0.1,1.5,0.3s0.8,0.5,1,0.8
			s0.5,0.8,0.6,1.2c0.1,0.5,0.2,0.9,0.2,1.5s-0.1,1-0.2,1.5c-0.1,0.5-0.3,0.9-0.6,1.2s-0.6,0.6-1,0.8c-0.4,0.2-0.9,0.3-1.4,0.3
			c-0.2,0-0.4,0-0.6-0.1c-0.2,0-0.4-0.1-0.7-0.2s-0.4-0.2-0.6-0.3c-0.2-0.1-0.4-0.3-0.5-0.5h0v1h-1.2v-10H127z M131.3,276.4
			c-0.1-0.3-0.2-0.6-0.4-0.9s-0.4-0.5-0.7-0.6c-0.3-0.2-0.6-0.2-1-0.2c-0.4,0-0.7,0.1-1,0.2c-0.3,0.2-0.5,0.4-0.7,0.6
			c-0.2,0.3-0.3,0.5-0.4,0.9c-0.1,0.3-0.1,0.7-0.1,1c0,0.4,0,0.7,0.1,1s0.2,0.6,0.4,0.9c0.2,0.3,0.4,0.5,0.7,0.6
			c0.3,0.2,0.6,0.2,1,0.2c0.4,0,0.8-0.1,1-0.2c0.3-0.2,0.5-0.4,0.7-0.6c0.2-0.3,0.3-0.6,0.4-0.9c0.1-0.3,0.1-0.7,0.1-1
			C131.4,277.1,131.4,276.8,131.3,276.4z"/>
	</g>
	<g>
		<path fill="#FFFFFF" d="M135.4,271.1v10h-1.2v-10H135.4z"/>
	</g>
	<g>
		<path fill="#FFFFFF" d="M142.3,280.7c-0.5,0.4-1.2,0.6-2,0.6c-0.6,0-1.1-0.1-1.5-0.3c-0.4-0.2-0.8-0.4-1.1-0.8
			c-0.3-0.3-0.5-0.7-0.7-1.2s-0.2-1-0.2-1.5c0-0.5,0.1-1.1,0.3-1.5c0.2-0.5,0.4-0.9,0.7-1.2s0.7-0.6,1.1-0.8
			c0.4-0.2,0.9-0.3,1.4-0.3c0.6,0,1.2,0.1,1.6,0.4c0.4,0.3,0.8,0.6,1,1c0.3,0.4,0.4,0.9,0.5,1.3c0.1,0.5,0.1,0.9,0.1,1.4h-5.4
			c0,0.3,0,0.6,0.1,0.9s0.2,0.5,0.4,0.8c0.2,0.2,0.4,0.4,0.7,0.5c0.3,0.1,0.6,0.2,1,0.2c0.5,0,0.9-0.1,1.2-0.4s0.5-0.6,0.6-1.1h1.2
			C143.2,279.6,142.9,280.2,142.3,280.7z M142.1,276c-0.1-0.3-0.3-0.5-0.4-0.7c-0.2-0.2-0.4-0.3-0.6-0.4c-0.2-0.1-0.5-0.2-0.8-0.2
			c-0.3,0-0.6,0.1-0.8,0.2s-0.5,0.3-0.6,0.4c-0.2,0.2-0.3,0.4-0.4,0.7c-0.1,0.2-0.2,0.5-0.2,0.8h4.2
			C142.2,276.5,142.2,276.3,142.1,276z"/>
	</g>
	<g>
		<path fill="#FFFFFF" d="M150,281.1v-1h0c-0.2,0.4-0.5,0.7-0.9,0.9s-0.9,0.3-1.4,0.3c-0.6,0-1-0.1-1.5-0.3c-0.4-0.2-0.8-0.5-1-0.8
			s-0.5-0.7-0.6-1.2s-0.2-0.9-0.2-1.5c0-0.5,0.1-1,0.2-1.5c0.1-0.5,0.3-0.9,0.6-1.2c0.3-0.3,0.6-0.6,1-0.8c0.4-0.2,0.9-0.3,1.4-0.3
			c0.2,0,0.4,0,0.6,0.1s0.4,0.1,0.6,0.2c0.2,0.1,0.4,0.2,0.6,0.3s0.4,0.3,0.5,0.5h0v-3.7h1.2v10H150z M145.7,278.5
			c0.1,0.3,0.2,0.6,0.4,0.9c0.2,0.3,0.4,0.5,0.7,0.6c0.3,0.1,0.6,0.2,1,0.2c0.4,0,0.7-0.1,1-0.2c0.3-0.2,0.5-0.4,0.7-0.6
			c0.2-0.3,0.3-0.5,0.4-0.9c0.1-0.3,0.1-0.7,0.1-1c0-0.4,0-0.7-0.1-1c-0.1-0.3-0.2-0.6-0.4-0.9c-0.2-0.3-0.4-0.5-0.7-0.6
			c-0.3-0.2-0.6-0.2-1.1-0.2c-0.4,0-0.7,0.1-1,0.2s-0.5,0.4-0.7,0.6s-0.3,0.6-0.4,0.9c-0.1,0.3-0.1,0.7-0.1,1
			C145.6,277.9,145.6,278.2,145.7,278.5z"/>
	</g>
	<g>
		<path fill="#FFFFFF" d="M162.2,281.1v-1h0c-0.2,0.4-0.5,0.7-0.9,0.9s-0.9,0.3-1.4,0.3c-0.6,0-1-0.1-1.5-0.3
			c-0.4-0.2-0.8-0.5-1-0.8s-0.5-0.7-0.6-1.2s-0.2-0.9-0.2-1.5c0-0.5,0.1-1,0.2-1.5c0.1-0.5,0.3-0.9,0.6-1.2c0.3-0.3,0.6-0.6,1-0.8
			c0.4-0.2,0.9-0.3,1.4-0.3c0.2,0,0.4,0,0.6,0.1s0.4,0.1,0.6,0.2c0.2,0.1,0.4,0.2,0.6,0.3s0.4,0.3,0.5,0.5h0v-3.7h1.2v10H162.2z
			 M157.9,278.5c0.1,0.3,0.2,0.6,0.4,0.9c0.2,0.3,0.4,0.5,0.7,0.6c0.3,0.1,0.6,0.2,1,0.2c0.4,0,0.7-0.1,1-0.2
			c0.3-0.2,0.5-0.4,0.7-0.6c0.2-0.3,0.3-0.5,0.4-0.9c0.1-0.3,0.1-0.7,0.1-1c0-0.4,0-0.7-0.1-1c-0.1-0.3-0.2-0.6-0.4-0.9
			c-0.2-0.3-0.4-0.5-0.7-0.6c-0.3-0.2-0.6-0.2-1.1-0.2c-0.4,0-0.7,0.1-1,0.2s-0.5,0.4-0.7,0.6s-0.3,0.6-0.4,0.9
			c-0.1,0.3-0.1,0.7-0.1,1C157.8,277.9,157.8,278.2,157.9,278.5z"/>
	</g>
	<g>
		<path fill="#FFFFFF" d="M170.4,280.7c-0.5,0.4-1.2,0.6-2,0.6c-0.6,0-1.1-0.1-1.5-0.3c-0.4-0.2-0.8-0.4-1.1-0.8
			c-0.3-0.3-0.5-0.7-0.7-1.2s-0.2-1-0.2-1.5c0-0.5,0.1-1.1,0.3-1.5c0.2-0.5,0.4-0.9,0.7-1.2s0.7-0.6,1.1-0.8
			c0.4-0.2,0.9-0.3,1.4-0.3c0.6,0,1.2,0.1,1.6,0.4c0.4,0.3,0.8,0.6,1,1c0.3,0.4,0.4,0.9,0.5,1.3c0.1,0.5,0.1,0.9,0.1,1.4h-5.4
			c0,0.3,0,0.6,0.1,0.9s0.2,0.5,0.4,0.8c0.2,0.2,0.4,0.4,0.7,0.5c0.3,0.1,0.6,0.2,1,0.2c0.5,0,0.9-0.1,1.2-0.4s0.5-0.6,0.6-1.1h1.2
			C171.2,279.6,170.9,280.2,170.4,280.7z M170.1,276c-0.1-0.3-0.3-0.5-0.4-0.7c-0.2-0.2-0.4-0.3-0.6-0.4c-0.2-0.1-0.5-0.2-0.8-0.2
			c-0.3,0-0.6,0.1-0.8,0.2s-0.5,0.3-0.6,0.4c-0.2,0.2-0.3,0.4-0.4,0.7c-0.1,0.2-0.2,0.5-0.2,0.8h4.2
			C170.2,276.5,170.2,276.3,170.1,276z"/>
	</g>
	<g>
		<path fill="#FFFFFF" d="M174,273.9v1h0c0.2-0.4,0.5-0.7,0.9-0.9s0.9-0.3,1.4-0.3c0.6,0,1,0.1,1.5,0.3s0.8,0.5,1,0.8
			s0.5,0.8,0.6,1.2c0.1,0.5,0.2,0.9,0.2,1.5s-0.1,1-0.2,1.5c-0.1,0.5-0.3,0.9-0.6,1.2s-0.6,0.6-1,0.8c-0.4,0.2-0.9,0.3-1.4,0.3
			c-0.2,0-0.4,0-0.6-0.1c-0.2,0-0.4-0.1-0.7-0.2s-0.4-0.2-0.6-0.3c-0.2-0.1-0.4-0.3-0.5-0.5h0v3.7h-1.2v-10H174z M178.3,276.4
			c-0.1-0.3-0.2-0.6-0.4-0.9s-0.4-0.5-0.7-0.6c-0.3-0.2-0.6-0.2-1-0.2c-0.4,0-0.7,0.1-1,0.2c-0.3,0.2-0.5,0.4-0.7,0.6
			c-0.2,0.3-0.3,0.5-0.4,0.9c-0.1,0.3-0.1,0.7-0.1,1c0,0.4,0,0.7,0.1,1s0.2,0.6,0.4,0.9c0.2,0.3,0.4,0.5,0.7,0.6
			c0.3,0.2,0.6,0.2,1,0.2c0.4,0,0.8-0.1,1-0.2c0.3-0.2,0.5-0.4,0.7-0.6c0.2-0.3,0.3-0.6,0.4-0.9c0.1-0.3,0.1-0.7,0.1-1
			C178.4,277.1,178.3,276.8,178.3,276.4z"/>
	</g>
	<g>
		<path fill="#FFFFFF" d="M182.3,271.1v10h-1.2v-10H182.3z"/>
	</g>
	<g>
		<path fill="#FFFFFF" d="M184,276c0.1-0.5,0.4-0.9,0.7-1.2c0.3-0.3,0.7-0.6,1.1-0.8c0.4-0.2,0.9-0.3,1.5-0.3c0.6,0,1.1,0.1,1.5,0.3
			c0.4,0.2,0.8,0.5,1.1,0.8c0.3,0.3,0.5,0.7,0.7,1.2s0.2,1,0.2,1.5c0,0.5-0.1,1-0.2,1.5s-0.4,0.9-0.7,1.2s-0.7,0.6-1.1,0.8
			c-0.4,0.2-0.9,0.3-1.5,0.3c-0.6,0-1.1-0.1-1.5-0.3s-0.8-0.5-1.1-0.8c-0.3-0.3-0.5-0.7-0.7-1.2s-0.2-1-0.2-1.5
			C183.8,277,183.8,276.5,184,276z M185.2,278.7c0.1,0.3,0.3,0.6,0.5,0.9s0.4,0.4,0.7,0.5c0.3,0.1,0.6,0.2,0.9,0.2
			c0.3,0,0.6-0.1,0.9-0.2c0.3-0.1,0.5-0.3,0.7-0.5c0.2-0.2,0.4-0.5,0.5-0.9c0.1-0.3,0.2-0.7,0.2-1.2c0-0.4-0.1-0.8-0.2-1.2
			c-0.1-0.3-0.3-0.6-0.5-0.9c-0.2-0.2-0.4-0.4-0.7-0.5s-0.6-0.2-0.9-0.2c-0.3,0-0.6,0.1-0.9,0.2s-0.5,0.3-0.7,0.5s-0.4,0.5-0.5,0.9
			c-0.1,0.3-0.2,0.7-0.2,1.2C185,277.9,185.1,278.3,185.2,278.7z"/>
	</g>
	<g>
		<path fill="#FFFFFF" d="M194.6,283c-0.1,0.2-0.3,0.4-0.4,0.6s-0.3,0.3-0.5,0.3s-0.4,0.1-0.7,0.1c-0.1,0-0.3,0-0.4,0
			c-0.1,0-0.3-0.1-0.4-0.1v-1.1c0.1,0,0.2,0.1,0.3,0.1c0.1,0,0.2,0.1,0.4,0.1c0.2,0,0.4-0.1,0.6-0.2c0.1-0.1,0.3-0.3,0.4-0.5
			l0.5-1.2l-2.9-7.2h1.3l2.1,5.9h0l2-5.9h1.3l-3.1,8.2C194.9,282.4,194.8,282.7,194.6,283z"/>
	</g>
	<g>
		<path fill="#FFFFFF" d="M200.3,273.9v1.1h0c0.5-0.8,1.3-1.2,2.3-1.2c0.4,0,0.9,0.1,1.2,0.3c0.4,0.2,0.6,0.5,0.8,1
			c0.2-0.4,0.6-0.7,1-0.9s0.8-0.3,1.3-0.3c0.4,0,0.7,0,1,0.1c0.3,0.1,0.5,0.2,0.8,0.4s0.4,0.4,0.5,0.7c0.1,0.3,0.2,0.6,0.2,1v5.3
			h-1.2v-4.7c0-0.2,0-0.4-0.1-0.6c0-0.2-0.1-0.4-0.2-0.5s-0.2-0.3-0.4-0.3s-0.4-0.1-0.7-0.1c-0.6,0-1,0.2-1.4,0.5s-0.5,0.8-0.5,1.3
			v4.5h-1.2v-4.7c0-0.2,0-0.4-0.1-0.6s-0.1-0.4-0.2-0.5s-0.2-0.3-0.4-0.3c-0.2-0.1-0.4-0.1-0.7-0.1c-0.3,0-0.6,0.1-0.9,0.2
			s-0.4,0.3-0.6,0.5c-0.2,0.2-0.3,0.4-0.3,0.6c-0.1,0.2-0.1,0.4-0.1,0.5v4.5h-1.2v-7.2H200.3z"/>
	</g>
	<g>
		<path fill="#FFFFFF" d="M216.3,280.7c-0.5,0.4-1.2,0.6-2,0.6c-0.6,0-1.1-0.1-1.5-0.3c-0.4-0.2-0.8-0.4-1.1-0.8
			c-0.3-0.3-0.5-0.7-0.7-1.2s-0.2-1-0.2-1.5c0-0.5,0.1-1.1,0.3-1.5c0.2-0.5,0.4-0.9,0.7-1.2s0.7-0.6,1.1-0.8
			c0.4-0.2,0.9-0.3,1.4-0.3c0.6,0,1.2,0.1,1.6,0.4c0.4,0.3,0.8,0.6,1,1c0.3,0.4,0.4,0.9,0.5,1.3c0.1,0.5,0.1,0.9,0.1,1.4H212
			c0,0.3,0,0.6,0.1,0.9s0.2,0.5,0.4,0.8c0.2,0.2,0.4,0.4,0.7,0.5c0.3,0.1,0.6,0.2,1,0.2c0.5,0,0.9-0.1,1.2-0.4s0.5-0.6,0.6-1.1h1.2
			C217.1,279.6,216.8,280.2,216.3,280.7z M216,276c-0.1-0.3-0.3-0.5-0.4-0.7c-0.2-0.2-0.4-0.3-0.6-0.4c-0.2-0.1-0.5-0.2-0.8-0.2
			c-0.3,0-0.6,0.1-0.8,0.2s-0.5,0.3-0.6,0.4c-0.2,0.2-0.3,0.4-0.4,0.7c-0.1,0.2-0.2,0.5-0.2,0.8h4.2
			C216.1,276.5,216.1,276.3,216,276z"/>
	</g>
	<g>
		<path fill="#FFFFFF" d="M219.8,273.9v1.1h0c0.5-0.9,1.3-1.3,2.4-1.3c0.5,0,0.9,0.1,1.2,0.2s0.6,0.3,0.8,0.5
			c0.2,0.2,0.3,0.5,0.4,0.8c0.1,0.3,0.1,0.7,0.1,1.1v4.8h-1.2v-4.9c0-0.4-0.1-0.8-0.4-1.1c-0.3-0.3-0.6-0.4-1.1-0.4
			c-0.4,0-0.7,0.1-0.9,0.2c-0.3,0.1-0.5,0.3-0.7,0.5c-0.2,0.2-0.3,0.4-0.4,0.7s-0.1,0.6-0.1,0.9v4.1h-1.2v-7.2H219.8z"/>
	</g>
	<g>
		<path fill="#FFFFFF" d="M229.5,273.9v1h-1.4v4.5c0,0.1,0,0.3,0,0.3s0.1,0.1,0.1,0.2c0.1,0,0.2,0.1,0.3,0.1c0.1,0,0.3,0,0.5,0h0.5
			v1h-0.9c-0.3,0-0.6,0-0.8-0.1c-0.2,0-0.4-0.1-0.5-0.2c-0.1-0.1-0.2-0.3-0.3-0.5s-0.1-0.5-0.1-0.8v-4.6h-1.2v-1h1.2v-2.2h1.2v2.2
			H229.5z"/>
	</g>
</g>
<g>
	<g>
		<path fill="#C6C6C6" d="M76.4,289.3c1.2,0,2.1,0.3,2.8,0.9c0.7,0.6,1,1.6,1,2.8c0,0.7-0.1,1.2-0.2,1.8c-0.1,0.5-0.4,0.9-0.7,1.3
			c-0.3,0.3-0.7,0.6-1.2,0.8s-1,0.3-1.7,0.3h-2.7v-7.9H76.4z M76.4,296.2c0.1,0,0.3,0,0.4,0s0.4-0.1,0.6-0.1
			c0.2-0.1,0.4-0.2,0.6-0.3c0.2-0.1,0.4-0.3,0.5-0.5c0.2-0.2,0.3-0.5,0.4-0.9c0.1-0.3,0.1-0.8,0.1-1.2c0-0.5,0-0.9-0.1-1.3
			c-0.1-0.4-0.2-0.7-0.5-0.9s-0.5-0.5-0.8-0.6c-0.3-0.1-0.7-0.2-1.2-0.2h-1.8v6.1H76.4z"/>
	</g>
	<g>
		<path fill="#C6C6C6" d="M85.1,297.1v-0.9h0c-0.2,0.4-0.5,0.6-0.8,0.8s-0.7,0.2-1.1,0.2c-0.4,0-0.7,0-0.9-0.1
			c-0.2-0.1-0.5-0.2-0.6-0.4c-0.2-0.2-0.3-0.4-0.3-0.7c-0.1-0.3-0.1-0.5-0.1-0.8v-3.7h0.9v3.9c0,0.4,0.1,0.6,0.3,0.8
			c0.2,0.2,0.5,0.3,0.8,0.3c0.3,0,0.5,0,0.7-0.1s0.4-0.2,0.5-0.4c0.1-0.2,0.2-0.3,0.3-0.6c0.1-0.2,0.1-0.5,0.1-0.7v-3.2H86v5.7H85.1
			z"/>
	</g>
	<g>
		<path fill="#C6C6C6" d="M91.4,296.8c-0.4,0.3-1,0.5-1.6,0.5c-0.5,0-0.8-0.1-1.2-0.2c-0.3-0.1-0.6-0.4-0.8-0.6
			c-0.2-0.3-0.4-0.6-0.5-0.9c-0.1-0.4-0.2-0.8-0.2-1.2c0-0.4,0.1-0.8,0.2-1.2s0.3-0.7,0.6-0.9s0.5-0.5,0.8-0.6
			c0.3-0.1,0.7-0.2,1.1-0.2c0.5,0,0.9,0.1,1.3,0.3c0.3,0.2,0.6,0.5,0.8,0.8c0.2,0.3,0.3,0.7,0.4,1.1s0.1,0.7,0.1,1.1H88
			c0,0.2,0,0.5,0.1,0.7c0.1,0.2,0.2,0.4,0.3,0.6s0.3,0.3,0.6,0.4c0.2,0.1,0.5,0.2,0.8,0.2c0.4,0,0.7-0.1,1-0.3
			c0.3-0.2,0.4-0.5,0.5-0.8h0.9C92.1,296,91.8,296.4,91.4,296.8z M91.2,293.1c-0.1-0.2-0.2-0.4-0.3-0.5c-0.1-0.1-0.3-0.3-0.5-0.3
			s-0.4-0.1-0.6-0.1c-0.2,0-0.5,0-0.7,0.1s-0.4,0.2-0.5,0.3c-0.1,0.1-0.2,0.3-0.3,0.5c-0.1,0.2-0.1,0.4-0.1,0.6h3.3
			C91.3,293.5,91.2,293.3,91.2,293.1z"/>
	</g>
	<g>
		<path fill="#C6C6C6" d="M97.6,289.3l4.1,6.4h0v-6.4h1v7.9h-1.1l-4.1-6.3h0v6.3h-1v-7.9H97.6z"/>
	</g>
	<g>
		<path fill="#C6C6C6" d="M104.1,293.1c0.1-0.4,0.3-0.7,0.5-0.9c0.2-0.3,0.5-0.5,0.9-0.6s0.7-0.2,1.2-0.2c0.5,0,0.9,0.1,1.2,0.2
			s0.6,0.4,0.9,0.6s0.4,0.6,0.5,0.9c0.1,0.4,0.2,0.8,0.2,1.2s-0.1,0.8-0.2,1.2s-0.3,0.7-0.5,0.9s-0.5,0.5-0.9,0.6s-0.7,0.2-1.2,0.2
			c-0.4,0-0.8-0.1-1.2-0.2s-0.6-0.4-0.9-0.6c-0.2-0.3-0.4-0.6-0.5-0.9s-0.2-0.7-0.2-1.2S104,293.5,104.1,293.1z M105.1,295.2
			c0.1,0.3,0.2,0.5,0.4,0.7c0.2,0.2,0.3,0.3,0.6,0.4c0.2,0.1,0.4,0.1,0.7,0.1s0.5,0,0.7-0.1c0.2-0.1,0.4-0.2,0.6-0.4
			s0.3-0.4,0.4-0.7s0.1-0.6,0.1-0.9c0-0.3,0-0.7-0.1-0.9s-0.2-0.5-0.4-0.7c-0.2-0.2-0.4-0.3-0.6-0.4c-0.2-0.1-0.4-0.1-0.7-0.1
			s-0.5,0-0.7,0.1c-0.2,0.1-0.4,0.2-0.6,0.4c-0.2,0.2-0.3,0.4-0.4,0.7s-0.1,0.6-0.1,0.9C105,294.6,105,294.9,105.1,295.2z"/>
	</g>
	<g>
		<path fill="#C6C6C6" d="M112.1,297.1l-2.1-5.7h1l1.6,4.7h0l1.6-4.7h1l-2.1,5.7H112.1z"/>
	</g>
	<g>
		<path fill="#C6C6C6" d="M119,291c0.1-0.3,0.3-0.6,0.5-0.9c0.2-0.2,0.5-0.4,0.8-0.6c0.3-0.1,0.7-0.2,1.1-0.2c0.3,0,0.7,0,1,0.1
			c0.3,0.1,0.6,0.2,0.8,0.4c0.2,0.2,0.4,0.4,0.5,0.7c0.1,0.3,0.2,0.6,0.2,1c0,0.3-0.1,0.6-0.2,0.9c-0.1,0.3-0.2,0.5-0.4,0.7
			c-0.2,0.2-0.4,0.4-0.6,0.6c-0.2,0.2-0.5,0.3-0.7,0.5c-0.2,0.1-0.5,0.3-0.7,0.4c-0.2,0.1-0.5,0.3-0.7,0.5c-0.2,0.2-0.4,0.3-0.5,0.5
			c-0.1,0.2-0.2,0.4-0.3,0.6h4v0.8h-5.1c0-0.5,0.1-0.9,0.2-1.2c0.1-0.3,0.3-0.6,0.5-0.9c0.2-0.2,0.4-0.5,0.7-0.6
			c0.2-0.2,0.5-0.4,0.8-0.5c0.3-0.2,0.6-0.4,0.9-0.6c0.2-0.2,0.5-0.3,0.6-0.5c0.2-0.2,0.3-0.4,0.4-0.6c0.1-0.2,0.1-0.4,0.1-0.7
			c0-0.2,0-0.4-0.1-0.6c-0.1-0.2-0.2-0.3-0.3-0.4c-0.1-0.1-0.3-0.2-0.5-0.3c-0.2-0.1-0.4-0.1-0.6-0.1c-0.3,0-0.5,0.1-0.7,0.2
			s-0.4,0.3-0.5,0.4s-0.2,0.4-0.3,0.6c-0.1,0.2-0.1,0.5-0.1,0.7h-0.9C118.9,291.7,118.9,291.3,119,291z"/>
	</g>
	<g>
		<path fill="#C6C6C6" d="M127.1,292.7c0,0,0.1,0,0.1,0h0.2c0.2,0,0.4,0,0.6-0.1c0.2-0.1,0.3-0.1,0.5-0.2c0.1-0.1,0.2-0.2,0.3-0.4
			c0.1-0.2,0.1-0.3,0.1-0.5c0-0.4-0.1-0.7-0.4-0.9c-0.3-0.2-0.6-0.3-1-0.3c-0.2,0-0.5,0-0.7,0.1c-0.2,0.1-0.3,0.2-0.5,0.4
			c-0.1,0.2-0.2,0.3-0.3,0.5c-0.1,0.2-0.1,0.4-0.1,0.6h-0.9c0-0.4,0.1-0.7,0.2-1c0.1-0.3,0.3-0.6,0.5-0.8s0.4-0.4,0.7-0.5
			c0.3-0.1,0.6-0.2,1-0.2c0.3,0,0.7,0,0.9,0.1c0.3,0.1,0.5,0.2,0.8,0.4c0.2,0.2,0.4,0.4,0.5,0.6s0.2,0.6,0.2,0.9
			c0,0.4-0.1,0.7-0.3,0.9s-0.5,0.5-0.8,0.6v0c0.5,0.1,0.8,0.3,1.1,0.7c0.2,0.3,0.3,0.8,0.3,1.2c0,0.4-0.1,0.7-0.2,1
			s-0.3,0.5-0.6,0.7c-0.2,0.2-0.5,0.3-0.9,0.4c-0.3,0.1-0.7,0.1-1,0.1c-0.4,0-0.8-0.1-1.1-0.2c-0.3-0.1-0.6-0.3-0.8-0.5
			c-0.2-0.2-0.4-0.5-0.5-0.8c-0.1-0.3-0.2-0.7-0.2-1.1h0.9c0,0.5,0.2,0.9,0.4,1.2c0.3,0.3,0.7,0.5,1.2,0.5c0.2,0,0.4,0,0.6-0.1
			c0.2-0.1,0.4-0.2,0.5-0.3c0.2-0.1,0.3-0.3,0.4-0.5c0.1-0.2,0.1-0.4,0.1-0.6c0-0.2,0-0.5-0.1-0.6s-0.2-0.3-0.4-0.5
			c-0.1-0.1-0.3-0.2-0.5-0.3c-0.2-0.1-0.4-0.1-0.7-0.1c-0.2,0-0.4,0-0.6,0L127.1,292.7C127,292.7,127,292.7,127.1,292.7z"/>
	</g>
</g>
<g>
	<rect x="33" y="132" fill="#777677" width="283" height="1"/>
</g>
<g>
	<rect x="33" y="190" fill="#777677" width="283" height="1"/>
</g>
<g>
	<rect x="33" y="251" fill="#777677" width="283" height="1"/>
</g>
<g>
	<rect x="33" y="315" fill="#777677" width="283" height="1"/>
</g>
<g>
	<g>
		<path fill="#464646" d="M45.5,106.3c0,0.8-0.2,1.4-0.6,1.8c-0.4,0.4-1,0.5-1.8,0.5c-0.4,0-0.8-0.1-1-0.2c-0.3-0.1-0.5-0.3-0.6-0.5
			c-0.2-0.2-0.3-0.5-0.3-0.7c-0.1-0.3-0.1-0.6-0.1-0.9V106h1.5v0.2c0,0.4,0,0.7,0.1,0.9c0.1,0.2,0.3,0.3,0.6,0.3s0.5-0.1,0.6-0.3
			c0.1-0.2,0.1-0.5,0.1-0.9v-5.6h1.6V106.3z"/>
	</g>
	<g>
		<path fill="#464646" d="M49.2,100.6c0.6,0,1,0.1,1.3,0.3c0.3,0.2,0.6,0.4,0.8,0.8c0.2,0.3,0.3,0.7,0.4,1.2c0.1,0.5,0.1,1,0.1,1.6
			c0,0.7,0,1.3-0.1,1.8s-0.2,0.9-0.4,1.3s-0.5,0.6-0.8,0.7s-0.8,0.2-1.3,0.2h-2.5v-7.9H49.2z M48.9,107.3c0.3,0,0.5,0,0.7-0.1
			c0.2-0.1,0.3-0.3,0.4-0.5c0.1-0.2,0.2-0.5,0.2-0.9s0-0.8,0-1.3c0-0.4,0-0.8,0-1.2c0-0.3-0.1-0.6-0.2-0.8s-0.2-0.4-0.4-0.5
			c-0.2-0.1-0.4-0.2-0.7-0.2h-0.7v5.5H48.9z"/>
	</g>
</g>
<g>
	<g>
		<path fill="#464646" d="M42.7,164.2c0,0.2,0,0.4,0,0.5s0.1,0.3,0.2,0.4c0.1,0.1,0.2,0.2,0.3,0.2c0.1,0.1,0.3,0.1,0.5,0.1
			c0.2,0,0.5-0.1,0.7-0.2c0.2-0.2,0.3-0.4,0.3-0.7c0-0.2,0-0.3-0.1-0.5c0-0.1-0.1-0.2-0.2-0.3c-0.1-0.1-0.3-0.2-0.4-0.3
			c-0.2-0.1-0.4-0.2-0.7-0.3c-0.4-0.1-0.7-0.2-0.9-0.4s-0.5-0.3-0.6-0.5c-0.2-0.2-0.3-0.4-0.4-0.6c-0.1-0.2-0.1-0.5-0.1-0.9
			c0-0.8,0.2-1.4,0.6-1.7c0.4-0.4,1-0.6,1.8-0.6c0.4,0,0.7,0,1,0.1s0.6,0.2,0.8,0.4c0.2,0.2,0.4,0.4,0.5,0.7s0.2,0.6,0.2,1v0.2h-1.5
			c0-0.4-0.1-0.7-0.2-0.9c-0.1-0.2-0.4-0.3-0.7-0.3c-0.2,0-0.3,0-0.4,0.1c-0.1,0.1-0.2,0.1-0.3,0.2c-0.1,0.1-0.1,0.2-0.1,0.3
			c0,0.1,0,0.2,0,0.3c0,0.2,0.1,0.4,0.2,0.6s0.3,0.3,0.7,0.5l1.2,0.5c0.3,0.1,0.5,0.3,0.7,0.4c0.2,0.1,0.3,0.3,0.5,0.5
			c0.1,0.2,0.2,0.3,0.2,0.5s0.1,0.4,0.1,0.7c0,0.8-0.2,1.4-0.7,1.8c-0.5,0.4-1.1,0.6-2,0.6c-0.9,0-1.5-0.2-1.9-0.6s-0.6-0.9-0.6-1.7
			V164h1.6V164.2z"/>
	</g>
	<g>
		<path fill="#464646" d="M48.7,158.6v3h1.8v-3h1.6v7.9h-1.6V163h-1.8v3.5h-1.6v-7.9H48.7z"/>
	</g>
</g>
<g>
	<rect x="33" y="210" fill="#41D4C1" width="27" height="27"/>
</g>
<g>
	<g>
		<path fill="#464646" d="M42.8,219.6l1.1,5.5h0l1.1-5.5h2.3v7.9H46v-6.3h0l-1.4,6.3h-1.2l-1.4-6.3h0v6.3h-1.5v-7.9H42.8z"/>
	</g>
	<g>
		<path fill="#464646" d="M52,221.5c0-0.2-0.1-0.3-0.2-0.4c-0.1-0.1-0.2-0.2-0.3-0.3c-0.1-0.1-0.3-0.1-0.4-0.1
			c-0.4,0-0.7,0.2-0.8,0.6c-0.2,0.4-0.3,1.1-0.3,2.1c0,0.5,0,0.9,0,1.3c0,0.4,0.1,0.7,0.2,1s0.2,0.5,0.3,0.6
			c0.1,0.1,0.3,0.2,0.6,0.2c0.1,0,0.2,0,0.3-0.1c0.1-0.1,0.2-0.1,0.3-0.2c0.1-0.1,0.2-0.2,0.2-0.4c0.1-0.2,0.1-0.3,0.1-0.6v-0.8h-1
			v-1.2h2.6v4.2h-1.2v-0.7h0c-0.2,0.3-0.4,0.5-0.7,0.7c-0.3,0.1-0.6,0.2-1,0.2c-0.5,0-0.9-0.1-1.2-0.3c-0.3-0.2-0.5-0.4-0.7-0.8
			c-0.2-0.4-0.3-0.8-0.3-1.3s-0.1-1.1-0.1-1.8c0-0.7,0-1.2,0.1-1.7c0.1-0.5,0.2-0.9,0.4-1.2c0.2-0.3,0.5-0.6,0.8-0.8
			c0.3-0.2,0.8-0.3,1.3-0.3c0.9,0,1.5,0.2,1.9,0.6c0.4,0.4,0.6,1,0.6,1.8h-1.5C52.1,221.8,52.1,221.6,52,221.5z"/>
	</g>
</g>
<g>
	<rect x="33" y="270" fill="#AD6EE6" width="27" height="27"/>
</g>
<g>
	<g>
		<path fill="#464646" d="M45.5,285.3c0,0.8-0.2,1.4-0.6,1.8c-0.4,0.4-1,0.5-1.8,0.5c-0.4,0-0.8-0.1-1-0.2c-0.3-0.1-0.5-0.3-0.6-0.5
			c-0.2-0.2-0.3-0.5-0.3-0.7c-0.1-0.3-0.1-0.6-0.1-0.9V285h1.5v0.2c0,0.4,0,0.7,0.1,0.9c0.1,0.2,0.3,0.3,0.6,0.3s0.5-0.1,0.6-0.3
			c0.1-0.2,0.1-0.5,0.1-0.9v-5.6h1.6V285.3z"/>
	</g>
	<g>
		<path fill="#464646" d="M49.2,279.6c0.6,0,1,0.1,1.3,0.3c0.3,0.2,0.6,0.4,0.8,0.8c0.2,0.3,0.3,0.7,0.4,1.2c0.1,0.5,0.1,1,0.1,1.6
			c0,0.7,0,1.3-0.1,1.8s-0.2,0.9-0.4,1.3s-0.5,0.6-0.8,0.7s-0.8,0.2-1.3,0.2h-2.5v-7.9H49.2z M48.9,286.3c0.3,0,0.5,0,0.7-0.1
			c0.2-0.1,0.3-0.3,0.4-0.5c0.1-0.2,0.2-0.5,0.2-0.9s0-0.8,0-1.3c0-0.4,0-0.8,0-1.2c0-0.3-0.1-0.6-0.2-0.8s-0.2-0.4-0.4-0.5
			c-0.2-0.1-0.4-0.2-0.7-0.2h-0.7v5.5H48.9z"/>
	</g>
</g>
</svg>
