<?xml version="1.0" encoding="utf-8"?>
<!-- Generator: Adobe Illustrator 17.1.0, SVG Export Plug-In . SVG Version: 6.00 Build 0)  -->
<!DOCTYPE svg PUBLIC "-//W3C//DTD SVG 1.1//EN" "http://www.w3.org/Graphics/SVG/1.1/DTD/svg11.dtd">
<svg version="1.1" xmlns="http://www.w3.org/2000/svg" xmlns:xlink="http://www.w3.org/1999/xlink" x="0px" y="0px"
	 viewBox="0 0 229.568 169.5" width="229.568" height="169.5"  enable-background="new 0 0 229.568 169.5" xml:space="preserve">
<g id="Layer_1">
	<g>
		<g id="Layer_3_2_" display="none">
			<g display="inline" opacity="0.2">
				<g>
					<line fill="none" stroke="#00FFFF" stroke-miterlimit="10" x1="-133.426" y1="168.704" x2="593.982" y2="168.704"/>
				</g>
				<g>
					<line fill="none" stroke="#00FFFF" stroke-miterlimit="10" x1="-133.426" y1="164.441" x2="593.982" y2="164.441"/>
				</g>
				<g>
					<line fill="none" stroke="#00FFFF" stroke-miterlimit="10" x1="-133.426" y1="160.179" x2="593.982" y2="160.179"/>
				</g>
				<g>
					<line fill="none" stroke="#00FFFF" stroke-miterlimit="10" x1="-133.426" y1="155.917" x2="593.982" y2="155.917"/>
				</g>
				<g>
					<line fill="none" stroke="#00FFFF" stroke-miterlimit="10" x1="-133.426" y1="151.655" x2="593.982" y2="151.655"/>
				</g>
				<g>
					<line fill="none" stroke="#00FFFF" stroke-miterlimit="10" x1="-133.426" y1="147.393" x2="593.982" y2="147.393"/>
				</g>
				<g>
					<line fill="none" stroke="#00FFFF" stroke-miterlimit="10" x1="-133.426" y1="143.131" x2="593.982" y2="143.131"/>
				</g>
				<g>
					<line fill="none" stroke="#00FFFF" stroke-miterlimit="10" x1="-133.426" y1="138.868" x2="593.982" y2="138.868"/>
				</g>
				<g>
					<line fill="none" stroke="#00FFFF" stroke-miterlimit="10" x1="-133.426" y1="134.606" x2="593.982" y2="134.606"/>
				</g>
				<g>
					<line fill="none" stroke="#00FFFF" stroke-miterlimit="10" x1="-133.426" y1="130.344" x2="593.982" y2="130.344"/>
				</g>
				<g>
					<line fill="none" stroke="#00FFFF" stroke-miterlimit="10" x1="-133.426" y1="126.082" x2="593.982" y2="126.082"/>
				</g>
				<g>
					<line fill="none" stroke="#00FFFF" stroke-miterlimit="10" x1="-133.426" y1="121.82" x2="593.982" y2="121.82"/>
				</g>
				<g>
					<line fill="none" stroke="#00FFFF" stroke-miterlimit="10" x1="-133.426" y1="117.558" x2="593.982" y2="117.558"/>
				</g>
				<g>
					<line fill="none" stroke="#00FFFF" stroke-miterlimit="10" x1="-133.426" y1="113.296" x2="593.982" y2="113.296"/>
				</g>
				<g>
					<line fill="none" stroke="#00FFFF" stroke-miterlimit="10" x1="-133.426" y1="109.033" x2="593.982" y2="109.033"/>
				</g>
				<g>
					<line fill="none" stroke="#00FFFF" stroke-miterlimit="10" x1="-133.426" y1="104.771" x2="593.982" y2="104.771"/>
				</g>
				<g>
					<line fill="none" stroke="#00FFFF" stroke-miterlimit="10" x1="-133.426" y1="100.509" x2="593.982" y2="100.509"/>
				</g>
				<g>
					<line fill="none" stroke="#00FFFF" stroke-miterlimit="10" x1="-133.426" y1="96.247" x2="593.982" y2="96.247"/>
				</g>
				<g>
					<line fill="none" stroke="#00FFFF" stroke-miterlimit="10" x1="-133.426" y1="91.985" x2="593.982" y2="91.985"/>
				</g>
				<g>
					<line fill="none" stroke="#00FFFF" stroke-miterlimit="10" x1="-133.426" y1="87.723" x2="593.982" y2="87.723"/>
				</g>
				<g>
					<line fill="none" stroke="#00FFFF" stroke-miterlimit="10" x1="-133.426" y1="83.46" x2="593.982" y2="83.46"/>
				</g>
				<g>
					<line fill="none" stroke="#00FFFF" stroke-miterlimit="10" x1="-133.426" y1="79.198" x2="593.982" y2="79.198"/>
				</g>
				<g>
					<line fill="none" stroke="#00FFFF" stroke-miterlimit="10" x1="-133.426" y1="74.936" x2="593.982" y2="74.936"/>
				</g>
				<g>
					<line fill="none" stroke="#00FFFF" stroke-miterlimit="10" x1="-133.426" y1="70.674" x2="593.982" y2="70.674"/>
				</g>
				<g>
					<line fill="none" stroke="#00FFFF" stroke-miterlimit="10" x1="-133.426" y1="66.412" x2="593.982" y2="66.412"/>
				</g>
				<g>
					<line fill="none" stroke="#00FFFF" stroke-miterlimit="10" x1="-133.426" y1="62.15" x2="593.982" y2="62.15"/>
				</g>
				<g>
					<line fill="none" stroke="#00FFFF" stroke-miterlimit="10" x1="-133.426" y1="57.887" x2="593.982" y2="57.887"/>
				</g>
				<g>
					<line fill="none" stroke="#00FFFF" stroke-miterlimit="10" x1="-133.426" y1="53.625" x2="593.982" y2="53.625"/>
				</g>
				<g>
					<line fill="none" stroke="#00FFFF" stroke-miterlimit="10" x1="-133.426" y1="49.363" x2="593.982" y2="49.363"/>
				</g>
				<g>
					<line fill="none" stroke="#00FFFF" stroke-miterlimit="10" x1="-133.426" y1="45.101" x2="593.982" y2="45.101"/>
				</g>
				<g>
					<line fill="none" stroke="#00FFFF" stroke-miterlimit="10" x1="-133.426" y1="40.839" x2="593.982" y2="40.839"/>
				</g>
				<g>
					<line fill="none" stroke="#00FFFF" stroke-miterlimit="10" x1="-133.426" y1="36.577" x2="593.982" y2="36.577"/>
				</g>
				<g>
					<line fill="none" stroke="#00FFFF" stroke-miterlimit="10" x1="-133.426" y1="32.315" x2="593.982" y2="32.315"/>
				</g>
				<g>
					<line fill="none" stroke="#00FFFF" stroke-miterlimit="10" x1="-133.426" y1="28.052" x2="593.982" y2="28.052"/>
				</g>
				<g>
					<line fill="none" stroke="#00FFFF" stroke-miterlimit="10" x1="-133.426" y1="23.79" x2="593.982" y2="23.79"/>
				</g>
				<g>
					<line fill="none" stroke="#00FFFF" stroke-miterlimit="10" x1="-133.426" y1="19.528" x2="593.982" y2="19.528"/>
				</g>
				<g>
					<line fill="none" stroke="#00FFFF" stroke-miterlimit="10" x1="-133.426" y1="15.266" x2="593.982" y2="15.266"/>
				</g>
				<g>
					<line fill="none" stroke="#00FFFF" stroke-miterlimit="10" x1="-133.426" y1="11.004" x2="593.982" y2="11.004"/>
				</g>
				<g>
					<line fill="none" stroke="#00FFFF" stroke-miterlimit="10" x1="-133.426" y1="6.742" x2="593.982" y2="6.742"/>
				</g>
				<g>
					<line fill="none" stroke="#00FFFF" stroke-miterlimit="10" x1="-133.426" y1="2.479" x2="593.982" y2="2.479"/>
				</g>
			</g>
		</g>
		<g id="Layer_2_2_" display="none">

				<rect x="0.121" y="-1838.5" display="inline" opacity="0.08" fill="#00FFFF" enable-background="new    " width="42.622" height="7488.703"/>

				<rect x="59.792" y="-1838.5" display="inline" opacity="0.08" fill="#00FFFF" enable-background="new    " width="42.622" height="7488.703"/>

				<rect x="119.462" y="-1838.5" display="inline" opacity="0.08" fill="#00FFFF" enable-background="new    " width="42.622" height="7488.703"/>

				<rect x="179.132" y="-1838.5" display="inline" opacity="0.08" fill="#00FFFF" enable-background="new    " width="42.622" height="7488.703"/>
		</g>
	</g>
	<g id="Layer_1_2_">
		<rect x="182.562" y="41.194" fill="#9655D2" width="46.173" height="46.884"/>
		<rect x="137.099" y="41.194" fill="#AD6EE6" width="45.463" height="46.884"/>
		<rect x="91.636" y="41.194" fill="#B88DF5" width="45.463" height="46.884"/>
		<rect x="46.173" y="41.194" fill="#D5A8FF" width="45.463" height="46.884"/>
		<rect x="0" y="41.194" fill="#ECD0FF" width="46.173" height="46.884"/>
		<rect x="46.173" y="88.078" fill="#562F72" width="45.463" height="46.884"/>
		<rect x="0" y="88.078" fill="#734096" width="46.173" height="46.884"/>
		<g>
			<path d="M22.813,57.556l4.742,12.68H24.66l-0.959-2.824h-4.742l-0.995,2.824h-2.806l4.795-12.68H22.813z M22.973,65.333
				l-1.598-4.653h-0.036l-1.652,4.653H22.973z"/>
		</g>
		<g>
			<path d="M70.625,57.556l4.742,12.68h-2.895l-0.959-2.824h-4.742l-0.995,2.824h-2.806l4.795-12.68H70.625z M70.784,65.333
				l-1.598-4.653h-0.036l-1.652,4.653H70.784z"/>
		</g>
		<g>
			<path d="M116.305,57.556l4.742,12.68h-2.895l-0.959-2.824h-4.742l-0.994,2.824h-2.806l4.795-12.68H116.305z M116.464,65.333
				l-1.598-4.653h-0.036l-1.652,4.653H116.464z"/>
		</g>
		<g>
			<path d="M161.274,57.556l4.742,12.68h-2.895l-0.96-2.824h-4.742l-0.994,2.824h-2.806l4.795-12.68H161.274z M161.434,65.333
				l-1.598-4.653H159.8l-1.652,4.653H161.434z"/>
		</g>
		<g>
			<path fill="#FFFFFF" d="M25.165,104.439l4.742,12.68h-2.895l-0.96-2.824h-4.742l-0.994,2.824h-2.806l4.795-12.68H25.165z
				 M25.325,112.217l-1.598-4.653h-0.036l-1.652,4.653H25.325z"/>
		</g>
		<g>
			<path d="M197.739,57.556l4.742,12.68h-2.895l-0.959-2.824h-4.742l-0.994,2.824h-2.806l4.795-12.68H197.739z M197.899,65.333
				l-1.598-4.653h-0.036l-1.652,4.653H197.899z"/>
		</g>
		<g>
			<path fill="#FFFFFF" d="M215.683,57.556l4.742,12.68h-2.895l-0.959-2.824h-4.742l-0.994,2.824h-2.806l4.795-12.68H215.683z
				 M215.843,65.333l-1.598-4.653h-0.036l-1.652,4.653H215.843z"/>
		</g>
		<g>
			<path fill="#777677" d="M20.588,31.639v-4.33h-1.568v-0.58c0.205,0,0.403-0.015,0.597-0.046c0.193-0.031,0.368-0.09,0.524-0.175
				c0.156-0.085,0.288-0.202,0.396-0.349c0.107-0.148,0.182-0.335,0.222-0.563h0.554v6.044L20.588,31.639L20.588,31.639z"/>
			<path fill="#777677" d="M23.818,27.982c0.011-0.239,0.04-0.471,0.085-0.698c0.045-0.227,0.11-0.443,0.196-0.648
				c0.085-0.205,0.201-0.384,0.349-0.537c0.148-0.153,0.334-0.276,0.558-0.367c0.224-0.091,0.493-0.136,0.806-0.136
				s0.581,0.045,0.806,0.136c0.224,0.092,0.411,0.214,0.559,0.367c0.147,0.153,0.264,0.332,0.349,0.537
				c0.085,0.205,0.151,0.421,0.196,0.648c0.045,0.227,0.074,0.46,0.085,0.698c0.011,0.239,0.016,0.469,0.016,0.691
				c0,0.222-0.006,0.452-0.016,0.69c-0.012,0.239-0.04,0.472-0.085,0.699c-0.045,0.227-0.111,0.442-0.196,0.643
				c-0.085,0.202-0.202,0.379-0.349,0.533c-0.148,0.154-0.333,0.275-0.554,0.363c-0.222,0.088-0.492,0.132-0.811,0.132
				c-0.312,0-0.58-0.044-0.806-0.132c-0.225-0.088-0.411-0.209-0.558-0.363c-0.148-0.153-0.264-0.331-0.349-0.533
				c-0.086-0.201-0.151-0.416-0.196-0.643c-0.045-0.227-0.074-0.46-0.085-0.699c-0.011-0.239-0.017-0.469-0.017-0.69
				C23.801,28.451,23.807,28.221,23.818,27.982z M24.59,29.427c0.014,0.281,0.06,0.546,0.136,0.793
				c0.077,0.247,0.2,0.456,0.371,0.627c0.17,0.17,0.409,0.256,0.716,0.256c0.308,0,0.546-0.085,0.717-0.256
				c0.17-0.17,0.294-0.379,0.37-0.627c0.077-0.247,0.122-0.511,0.136-0.793s0.021-0.536,0.021-0.763
				c0-0.147-0.001-0.311-0.004-0.489c-0.003-0.178-0.016-0.358-0.043-0.537s-0.063-0.354-0.111-0.524s-0.119-0.32-0.213-0.448
				s-0.212-0.232-0.354-0.311c-0.142-0.079-0.315-0.119-0.52-0.119s-0.378,0.04-0.519,0.119c-0.142,0.08-0.26,0.184-0.354,0.311
				s-0.165,0.277-0.214,0.448c-0.048,0.17-0.085,0.345-0.11,0.524c-0.026,0.179-0.04,0.358-0.043,0.537
				c-0.004,0.179-0.005,0.342-0.005,0.489C24.568,28.891,24.576,29.146,24.59,29.427z"/>
			<path fill="#777677" d="M62.63,26.882c0.08-0.261,0.203-0.487,0.371-0.678c0.167-0.19,0.376-0.34,0.627-0.448
				c0.25-0.107,0.534-0.162,0.852-0.162c0.261,0,0.507,0.038,0.737,0.115c0.23,0.076,0.43,0.188,0.602,0.332
				c0.17,0.145,0.305,0.325,0.404,0.541c0.1,0.217,0.15,0.466,0.15,0.751c0,0.267-0.042,0.503-0.124,0.707
				c-0.082,0.205-0.192,0.389-0.328,0.55c-0.136,0.163-0.293,0.309-0.469,0.439s-0.358,0.256-0.546,0.375
				c-0.188,0.114-0.375,0.225-0.563,0.337c-0.188,0.112-0.359,0.229-0.516,0.354c-0.157,0.125-0.29,0.26-0.401,0.405
				c-0.111,0.144-0.183,0.311-0.217,0.498h3.103v0.639h-3.947c0.028-0.358,0.092-0.663,0.193-0.916
				c0.099-0.252,0.225-0.473,0.379-0.661c0.153-0.188,0.326-0.352,0.519-0.494c0.193-0.142,0.395-0.276,0.606-0.401
				c0.255-0.159,0.48-0.305,0.673-0.438c0.193-0.134,0.354-0.269,0.482-0.405c0.129-0.136,0.224-0.284,0.29-0.443
				c0.065-0.159,0.099-0.344,0.099-0.554c0-0.164-0.032-0.313-0.094-0.448c-0.063-0.134-0.146-0.249-0.251-0.345
				c-0.105-0.097-0.229-0.17-0.37-0.222c-0.143-0.051-0.293-0.077-0.452-0.077c-0.21,0-0.391,0.044-0.541,0.133
				s-0.275,0.203-0.371,0.345c-0.097,0.141-0.166,0.303-0.209,0.482c-0.043,0.179-0.061,0.359-0.055,0.541h-0.725
				C62.518,27.429,62.549,27.144,62.63,26.882z"/>
			<path fill="#777677" d="M67.702,27.982c0.011-0.239,0.04-0.471,0.085-0.698c0.045-0.227,0.11-0.443,0.195-0.648
				s0.202-0.384,0.349-0.537c0.148-0.153,0.334-0.276,0.558-0.367c0.224-0.091,0.493-0.136,0.806-0.136s0.581,0.045,0.806,0.136
				c0.224,0.092,0.411,0.214,0.558,0.367c0.148,0.153,0.264,0.332,0.349,0.537c0.085,0.205,0.151,0.421,0.195,0.648
				c0.045,0.227,0.074,0.46,0.086,0.698c0.011,0.239,0.016,0.469,0.016,0.691c0,0.222-0.006,0.452-0.016,0.69
				c-0.012,0.239-0.04,0.472-0.086,0.699c-0.045,0.227-0.11,0.442-0.195,0.643c-0.085,0.202-0.202,0.379-0.349,0.533
				c-0.148,0.154-0.332,0.275-0.553,0.363c-0.222,0.088-0.492,0.132-0.811,0.132c-0.312,0-0.581-0.044-0.806-0.132
				c-0.224-0.088-0.411-0.209-0.558-0.363c-0.148-0.153-0.264-0.331-0.349-0.533c-0.085-0.201-0.151-0.416-0.195-0.643
				c-0.045-0.227-0.074-0.46-0.085-0.699c-0.012-0.239-0.017-0.469-0.017-0.69C67.684,28.451,67.69,28.221,67.702,27.982z
				 M68.473,29.427c0.014,0.281,0.06,0.546,0.136,0.793c0.077,0.247,0.2,0.456,0.371,0.627c0.17,0.17,0.409,0.256,0.716,0.256
				s0.546-0.085,0.716-0.256c0.17-0.17,0.294-0.379,0.371-0.627c0.077-0.247,0.122-0.511,0.136-0.793s0.021-0.536,0.021-0.763
				c0-0.147-0.001-0.311-0.004-0.489c-0.003-0.178-0.016-0.358-0.043-0.537c-0.025-0.179-0.063-0.354-0.11-0.524
				c-0.048-0.17-0.119-0.32-0.213-0.448c-0.094-0.128-0.212-0.232-0.354-0.311c-0.142-0.079-0.315-0.119-0.52-0.119
				c-0.205,0-0.378,0.04-0.52,0.119c-0.141,0.08-0.259,0.184-0.354,0.311c-0.093,0.128-0.164,0.277-0.213,0.448
				c-0.048,0.17-0.085,0.345-0.11,0.524c-0.026,0.179-0.04,0.358-0.043,0.537c-0.003,0.179-0.004,0.342-0.004,0.489
				C68.452,28.891,68.459,29.146,68.473,29.427z"/>
			<path fill="#777677" d="M110.775,28.196c0.028,0,0.057,0,0.085,0h0.153c0.153,0,0.3-0.021,0.439-0.065
				c0.139-0.043,0.261-0.104,0.367-0.188c0.105-0.082,0.19-0.186,0.251-0.311s0.094-0.267,0.094-0.427
				c0-0.324-0.103-0.567-0.308-0.728c-0.204-0.163-0.46-0.244-0.767-0.244c-0.193,0-0.362,0.036-0.506,0.107
				c-0.146,0.072-0.265,0.166-0.359,0.286c-0.094,0.119-0.163,0.259-0.209,0.418c-0.046,0.159-0.068,0.327-0.068,0.503h-0.725
				c0.011-0.29,0.058-0.554,0.14-0.793c0.082-0.239,0.2-0.443,0.354-0.614s0.345-0.304,0.576-0.4
				c0.231-0.096,0.495-0.145,0.796-0.145c0.261,0,0.505,0.033,0.729,0.098c0.224,0.065,0.419,0.163,0.584,0.294
				c0.164,0.131,0.294,0.298,0.388,0.503c0.094,0.205,0.141,0.446,0.141,0.725c0,0.273-0.08,0.514-0.239,0.725
				c-0.16,0.21-0.359,0.37-0.597,0.477v0.017c0.37,0.08,0.644,0.252,0.823,0.519c0.179,0.267,0.269,0.582,0.269,0.946
				c0,0.302-0.055,0.567-0.166,0.797s-0.26,0.422-0.448,0.576c-0.188,0.153-0.408,0.269-0.661,0.345
				c-0.252,0.077-0.521,0.115-0.806,0.115c-0.307,0-0.585-0.043-0.835-0.128c-0.251-0.085-0.463-0.212-0.639-0.379
				s-0.311-0.374-0.404-0.618c-0.094-0.244-0.138-0.522-0.133-0.835h0.725c0.011,0.392,0.125,0.712,0.34,0.959
				c0.216,0.248,0.531,0.371,0.946,0.371c0.176,0,0.344-0.027,0.503-0.081c0.159-0.054,0.298-0.131,0.418-0.23
				c0.119-0.099,0.215-0.222,0.286-0.367c0.071-0.145,0.107-0.308,0.107-0.49c0-0.188-0.035-0.354-0.103-0.498
				c-0.068-0.145-0.16-0.267-0.273-0.367c-0.114-0.099-0.249-0.173-0.405-0.222c-0.156-0.048-0.325-0.073-0.507-0.073
				c-0.153,0-0.298,0.009-0.435,0.026v-0.614C110.727,28.193,110.752,28.196,110.775,28.196z"/>
			<path fill="#777677" d="M114.381,27.982c0.011-0.239,0.04-0.471,0.085-0.698c0.045-0.227,0.111-0.443,0.196-0.648
				c0.085-0.205,0.202-0.384,0.35-0.537c0.148-0.153,0.334-0.276,0.558-0.367c0.224-0.091,0.492-0.136,0.806-0.136
				c0.313,0,0.58,0.045,0.806,0.136c0.224,0.092,0.411,0.214,0.558,0.367c0.148,0.153,0.264,0.332,0.35,0.537
				c0.085,0.205,0.151,0.421,0.196,0.648c0.045,0.227,0.074,0.46,0.085,0.698c0.012,0.239,0.017,0.469,0.017,0.691
				c0,0.222-0.006,0.452-0.017,0.69c-0.011,0.239-0.04,0.472-0.085,0.699c-0.045,0.227-0.111,0.442-0.196,0.643
				c-0.085,0.202-0.202,0.379-0.35,0.533c-0.148,0.154-0.332,0.275-0.554,0.363c-0.222,0.088-0.491,0.132-0.81,0.132
				c-0.313,0-0.581-0.044-0.806-0.132c-0.224-0.088-0.411-0.209-0.558-0.363c-0.148-0.153-0.264-0.331-0.35-0.533
				c-0.085-0.201-0.151-0.416-0.196-0.643c-0.045-0.227-0.074-0.46-0.085-0.699c-0.012-0.239-0.017-0.469-0.017-0.69
				C114.364,28.451,114.369,28.221,114.381,27.982z M115.152,29.427c0.014,0.281,0.06,0.546,0.136,0.793
				c0.077,0.247,0.2,0.456,0.371,0.627c0.17,0.17,0.409,0.256,0.716,0.256c0.308,0,0.546-0.085,0.716-0.256
				c0.17-0.17,0.294-0.379,0.371-0.627c0.076-0.247,0.122-0.511,0.136-0.793c0.015-0.281,0.021-0.536,0.021-0.763
				c0-0.147-0.001-0.311-0.004-0.489c-0.003-0.178-0.017-0.358-0.043-0.537c-0.026-0.179-0.063-0.354-0.111-0.524
				c-0.048-0.17-0.119-0.32-0.214-0.448c-0.093-0.128-0.212-0.232-0.353-0.311c-0.142-0.079-0.315-0.119-0.52-0.119
				c-0.205,0-0.378,0.04-0.519,0.119c-0.142,0.08-0.26,0.184-0.354,0.311c-0.094,0.128-0.165,0.277-0.214,0.448
				c-0.048,0.17-0.085,0.345-0.111,0.524c-0.025,0.179-0.04,0.358-0.043,0.537c-0.003,0.179-0.004,0.342-0.004,0.489
				C115.131,28.891,115.137,29.146,115.152,29.427z"/>
			<path fill="#777677" d="M157.112,29.585v0.639h-0.818v1.415h-0.682v-1.415h-2.651v-0.698l2.753-3.93h0.58v3.989
				C156.295,29.585,157.112,29.585,157.112,29.585z M155.613,26.627h-0.017l-2.012,2.958h2.029V26.627z"/>
			<path fill="#777677" d="M158.263,27.982c0.011-0.239,0.04-0.471,0.085-0.698c0.045-0.227,0.111-0.443,0.196-0.648
				c0.085-0.205,0.201-0.384,0.35-0.537c0.147-0.153,0.334-0.276,0.558-0.367c0.224-0.091,0.493-0.136,0.806-0.136
				c0.312,0,0.58,0.045,0.806,0.136c0.224,0.092,0.41,0.214,0.558,0.367c0.147,0.153,0.264,0.332,0.35,0.537
				c0.085,0.205,0.15,0.421,0.195,0.648s0.074,0.46,0.085,0.698c0.011,0.239,0.017,0.469,0.017,0.691
				c0,0.222-0.006,0.452-0.017,0.69c-0.012,0.239-0.04,0.472-0.085,0.699c-0.045,0.227-0.111,0.442-0.195,0.643
				c-0.086,0.202-0.202,0.379-0.35,0.533c-0.148,0.154-0.333,0.275-0.554,0.363c-0.221,0.088-0.492,0.132-0.81,0.132
				c-0.313,0-0.581-0.044-0.806-0.132c-0.224-0.088-0.411-0.209-0.558-0.363c-0.148-0.153-0.265-0.331-0.35-0.533
				c-0.085-0.201-0.151-0.416-0.196-0.643c-0.045-0.227-0.074-0.46-0.085-0.699c-0.011-0.239-0.016-0.469-0.016-0.69
				C158.247,28.451,158.252,28.221,158.263,27.982z M159.035,29.427c0.014,0.281,0.06,0.546,0.136,0.793
				c0.077,0.246,0.2,0.456,0.37,0.627c0.17,0.17,0.409,0.256,0.717,0.256c0.307,0,0.546-0.085,0.716-0.256
				c0.17-0.17,0.294-0.379,0.37-0.627c0.077-0.247,0.122-0.511,0.136-0.793c0.014-0.281,0.021-0.536,0.021-0.763
				c0-0.147-0.001-0.311-0.004-0.489c-0.004-0.179-0.017-0.358-0.043-0.537s-0.063-0.354-0.111-0.524s-0.119-0.32-0.213-0.448
				s-0.212-0.232-0.354-0.311c-0.142-0.079-0.315-0.119-0.519-0.119c-0.205,0-0.378,0.04-0.52,0.119
				c-0.142,0.08-0.26,0.184-0.354,0.311c-0.094,0.127-0.165,0.277-0.213,0.448c-0.048,0.17-0.085,0.345-0.111,0.524
				c-0.026,0.179-0.04,0.358-0.043,0.537c-0.003,0.179-0.004,0.342-0.004,0.489C159.014,28.891,159.021,29.146,159.035,29.427z"/>
			<path fill="#777677" d="M200.971,26.337l-0.324,1.739l0.016,0.016c0.131-0.148,0.3-0.256,0.508-0.328
				c0.207-0.071,0.413-0.106,0.618-0.106c0.267,0,0.519,0.043,0.758,0.128s0.446,0.215,0.622,0.388
				c0.176,0.173,0.315,0.389,0.418,0.648c0.102,0.259,0.153,0.561,0.153,0.907c0,0.256-0.044,0.505-0.132,0.747
				c-0.088,0.242-0.221,0.456-0.396,0.643c-0.176,0.188-0.397,0.337-0.661,0.448c-0.264,0.11-0.573,0.166-0.925,0.166
				c-0.261,0-0.507-0.038-0.737-0.115c-0.23-0.076-0.433-0.188-0.609-0.332c-0.176-0.145-0.315-0.325-0.418-0.541
				c-0.103-0.216-0.157-0.46-0.163-0.733h0.725c0.012,0.153,0.05,0.297,0.115,0.43c0.065,0.134,0.154,0.25,0.265,0.349
				c0.11,0.1,0.242,0.176,0.391,0.23c0.151,0.054,0.317,0.081,0.499,0.081c0.17,0,0.333-0.03,0.489-0.09
				c0.156-0.06,0.293-0.149,0.409-0.269c0.117-0.119,0.209-0.269,0.277-0.448c0.069-0.179,0.103-0.388,0.103-0.627
				c0-0.198-0.033-0.381-0.099-0.549c-0.065-0.168-0.158-0.313-0.277-0.435c-0.119-0.122-0.263-0.217-0.43-0.285
				c-0.168-0.069-0.354-0.103-0.559-0.103c-0.239,0-0.45,0.053-0.635,0.158c-0.185,0.105-0.348,0.244-0.49,0.413l-0.622-0.034
				l0.562-3.137h2.984v0.639h-2.436V26.337z"/>
			<path fill="#777677" d="M204.942,27.982c0.012-0.239,0.04-0.471,0.085-0.698s0.111-0.443,0.196-0.648s0.201-0.384,0.349-0.537
				c0.148-0.153,0.335-0.276,0.558-0.367c0.224-0.091,0.493-0.136,0.806-0.136s0.581,0.045,0.806,0.136
				c0.224,0.092,0.411,0.214,0.558,0.367c0.148,0.153,0.264,0.332,0.349,0.537c0.085,0.205,0.151,0.421,0.196,0.648
				c0.045,0.227,0.074,0.46,0.085,0.698c0.011,0.239,0.016,0.469,0.016,0.691c0,0.222-0.006,0.452-0.016,0.69
				s-0.04,0.472-0.085,0.699c-0.045,0.227-0.111,0.442-0.196,0.643c-0.085,0.202-0.201,0.379-0.349,0.533
				c-0.148,0.154-0.332,0.275-0.554,0.363c-0.222,0.088-0.492,0.132-0.811,0.132c-0.312,0-0.58-0.044-0.806-0.132
				c-0.224-0.088-0.41-0.209-0.558-0.363c-0.148-0.153-0.264-0.331-0.349-0.533c-0.085-0.201-0.151-0.416-0.196-0.643
				c-0.045-0.227-0.074-0.46-0.085-0.699c-0.011-0.239-0.017-0.469-0.017-0.69C204.925,28.451,204.932,28.221,204.942,27.982z
				 M205.714,29.427c0.015,0.281,0.06,0.546,0.136,0.793c0.076,0.247,0.2,0.456,0.37,0.627c0.17,0.17,0.409,0.256,0.716,0.256
				c0.308,0,0.546-0.085,0.717-0.256c0.17-0.17,0.294-0.379,0.37-0.627c0.077-0.247,0.122-0.511,0.136-0.793
				c0.014-0.281,0.021-0.536,0.021-0.763c0-0.147-0.001-0.311-0.004-0.489c-0.003-0.178-0.016-0.358-0.043-0.537
				s-0.063-0.354-0.111-0.524c-0.048-0.17-0.119-0.32-0.213-0.448c-0.094-0.128-0.212-0.232-0.354-0.311
				c-0.142-0.079-0.315-0.119-0.52-0.119c-0.204,0-0.377,0.04-0.519,0.119c-0.142,0.08-0.26,0.184-0.354,0.311
				c-0.094,0.127-0.165,0.277-0.213,0.448c-0.048,0.17-0.085,0.345-0.111,0.524c-0.026,0.179-0.04,0.358-0.043,0.537
				c-0.004,0.179-0.005,0.342-0.005,0.489C205.692,28.891,205.7,29.146,205.714,29.427z"/>
			<path fill="#777677" d="M21.434,142.724c-0.176-0.165-0.409-0.248-0.698-0.248c-0.308,0-0.554,0.075-0.742,0.226
				c-0.188,0.151-0.334,0.341-0.438,0.571c-0.105,0.23-0.178,0.479-0.218,0.747c-0.04,0.267-0.063,0.517-0.068,0.75l0.016,0.016
				c0.17-0.278,0.382-0.48,0.636-0.605c0.252-0.125,0.544-0.188,0.874-0.188c0.289,0,0.549,0.049,0.78,0.149
				c0.23,0.099,0.423,0.237,0.58,0.413c0.156,0.176,0.277,0.384,0.362,0.622c0.085,0.239,0.128,0.497,0.128,0.776
				c0,0.222-0.034,0.452-0.103,0.69c-0.068,0.239-0.18,0.457-0.337,0.652c-0.156,0.196-0.364,0.358-0.622,0.487
				c-0.259,0.128-0.578,0.192-0.959,0.192c-0.45,0-0.811-0.091-1.083-0.273c-0.272-0.182-0.483-0.415-0.631-0.699
				c-0.148-0.283-0.246-0.597-0.294-0.937c-0.048-0.341-0.072-0.671-0.072-0.99c0-0.415,0.035-0.816,0.106-1.206
				c0.072-0.389,0.193-0.734,0.362-1.035c0.17-0.302,0.398-0.543,0.682-0.725c0.284-0.182,0.642-0.273,1.074-0.273
				c0.501,0,0.899,0.132,1.194,0.396s0.465,0.646,0.511,1.147h-0.725C21.715,143.108,21.61,142.889,21.434,142.724z M20.122,144.74
				c-0.153,0.071-0.284,0.168-0.392,0.29c-0.108,0.122-0.19,0.267-0.244,0.434c-0.054,0.168-0.081,0.345-0.081,0.533
				c0,0.188,0.029,0.364,0.086,0.529c0.056,0.165,0.137,0.308,0.243,0.427c0.104,0.119,0.236,0.215,0.392,0.285
				c0.156,0.072,0.334,0.107,0.533,0.107c0.199,0,0.374-0.036,0.524-0.107c0.151-0.071,0.278-0.168,0.38-0.294
				c0.102-0.125,0.18-0.269,0.234-0.43c0.054-0.163,0.081-0.331,0.081-0.507c0-0.188-0.024-0.366-0.072-0.533
				c-0.048-0.168-0.124-0.313-0.226-0.435s-0.23-0.22-0.384-0.294c-0.153-0.074-0.332-0.111-0.537-0.111
				C20.453,144.634,20.274,144.67,20.122,144.74z"/>
			<path fill="#777677" d="M23.762,144.225c0.011-0.239,0.04-0.471,0.085-0.698c0.045-0.227,0.111-0.443,0.196-0.648
				s0.202-0.384,0.349-0.537s0.334-0.276,0.558-0.367c0.224-0.091,0.492-0.136,0.806-0.136s0.58,0.045,0.806,0.136
				c0.224,0.092,0.411,0.214,0.558,0.367s0.264,0.332,0.349,0.537c0.085,0.205,0.151,0.421,0.196,0.648
				c0.045,0.227,0.074,0.46,0.085,0.698c0.012,0.239,0.017,0.469,0.017,0.691c0,0.222-0.006,0.452-0.017,0.69
				c-0.011,0.239-0.04,0.472-0.085,0.699c-0.045,0.227-0.111,0.442-0.196,0.643c-0.085,0.202-0.202,0.379-0.349,0.533
				c-0.148,0.154-0.332,0.275-0.554,0.363s-0.491,0.132-0.81,0.132c-0.313,0-0.581-0.044-0.806-0.132
				c-0.224-0.088-0.411-0.209-0.558-0.363c-0.148-0.153-0.264-0.331-0.349-0.533c-0.085-0.201-0.151-0.416-0.196-0.643
				c-0.045-0.227-0.074-0.46-0.085-0.699c-0.012-0.239-0.017-0.469-0.017-0.69C23.744,144.693,23.749,144.463,23.762,144.225z
				 M24.533,145.669c0.014,0.281,0.06,0.546,0.136,0.793c0.077,0.247,0.2,0.456,0.371,0.627s0.409,0.256,0.716,0.256
				c0.308,0,0.546-0.085,0.716-0.256c0.17-0.17,0.294-0.379,0.371-0.627c0.076-0.247,0.122-0.511,0.136-0.793
				c0.015-0.281,0.021-0.536,0.021-0.763c0-0.147-0.001-0.311-0.004-0.489s-0.017-0.358-0.043-0.537
				c-0.026-0.179-0.063-0.354-0.111-0.524c-0.048-0.17-0.119-0.32-0.214-0.448c-0.093-0.128-0.212-0.232-0.353-0.311
				c-0.142-0.079-0.315-0.119-0.52-0.119s-0.378,0.04-0.519,0.119c-0.142,0.08-0.26,0.184-0.354,0.311
				c-0.094,0.128-0.165,0.277-0.214,0.448c-0.048,0.17-0.085,0.345-0.111,0.524c-0.025,0.179-0.04,0.358-0.043,0.537
				c-0.003,0.179-0.004,0.342-0.004,0.489C24.511,145.134,24.518,145.388,24.533,145.669z"/>
			<path fill="#777677" d="M65.581,143.636c-0.267,0.415-0.504,0.858-0.712,1.33c-0.207,0.472-0.376,0.958-0.507,1.458
				c-0.131,0.5-0.21,0.986-0.239,1.458h-0.81c0.034-0.511,0.118-1.01,0.251-1.496c0.134-0.486,0.306-0.952,0.516-1.398
				c0.21-0.446,0.453-0.868,0.728-1.266c0.276-0.398,0.573-0.764,0.891-1.1h-3.17v-0.682h3.913v0.622
				C66.135,142.864,65.849,143.222,65.581,143.636z"/>
			<path fill="#777677" d="M67.644,144.225c0.012-0.239,0.04-0.471,0.085-0.698c0.045-0.227,0.111-0.443,0.196-0.648
				s0.201-0.384,0.349-0.537c0.148-0.153,0.334-0.276,0.558-0.367c0.224-0.091,0.493-0.136,0.806-0.136
				c0.312,0,0.58,0.045,0.806,0.136c0.224,0.092,0.411,0.214,0.558,0.367c0.148,0.153,0.264,0.332,0.349,0.537
				c0.085,0.205,0.151,0.421,0.195,0.648c0.045,0.227,0.074,0.46,0.085,0.698c0.012,0.239,0.017,0.469,0.017,0.691
				c0,0.222-0.006,0.452-0.017,0.69c-0.011,0.239-0.04,0.472-0.085,0.699c-0.045,0.227-0.111,0.442-0.195,0.643
				c-0.085,0.202-0.202,0.379-0.349,0.533c-0.148,0.154-0.332,0.275-0.554,0.363c-0.222,0.088-0.492,0.132-0.81,0.132
				c-0.313,0-0.581-0.044-0.806-0.132c-0.224-0.088-0.41-0.209-0.558-0.363c-0.148-0.153-0.264-0.331-0.349-0.533
				c-0.085-0.201-0.151-0.416-0.196-0.643c-0.045-0.227-0.074-0.46-0.085-0.699c-0.011-0.239-0.016-0.469-0.016-0.69
				C67.628,144.693,67.633,144.463,67.644,144.225z M68.415,145.669c0.015,0.281,0.06,0.546,0.136,0.793s0.2,0.456,0.371,0.627
				c0.17,0.17,0.409,0.256,0.716,0.256c0.307,0,0.546-0.085,0.716-0.256c0.17-0.17,0.294-0.379,0.37-0.627
				c0.077-0.247,0.122-0.511,0.136-0.793c0.015-0.281,0.021-0.536,0.021-0.763c0-0.147-0.001-0.311-0.004-0.489
				s-0.017-0.358-0.043-0.537c-0.025-0.179-0.063-0.354-0.111-0.524c-0.048-0.17-0.119-0.32-0.213-0.448
				c-0.094-0.128-0.212-0.232-0.353-0.311c-0.143-0.079-0.315-0.119-0.52-0.119s-0.378,0.04-0.52,0.119
				c-0.141,0.08-0.259,0.184-0.354,0.311c-0.094,0.128-0.165,0.277-0.213,0.448c-0.048,0.17-0.085,0.345-0.111,0.524
				c-0.026,0.179-0.04,0.358-0.043,0.537c-0.003,0.179-0.004,0.342-0.004,0.489C68.395,145.134,68.401,145.388,68.415,145.669z"/>
			<path fill="#777677" d="M110.3,142.72c0.097-0.191,0.227-0.351,0.392-0.482c0.165-0.131,0.354-0.229,0.568-0.298
				c0.213-0.068,0.435-0.102,0.668-0.102c0.33,0,0.611,0.044,0.844,0.132c0.233,0.088,0.422,0.205,0.567,0.35
				c0.145,0.145,0.251,0.31,0.32,0.494c0.068,0.185,0.102,0.374,0.102,0.567c0,0.273-0.075,0.521-0.225,0.746
				c-0.151,0.224-0.354,0.394-0.609,0.507c0.364,0.114,0.634,0.3,0.811,0.558c0.175,0.259,0.264,0.576,0.264,0.95
				c0,0.296-0.053,0.557-0.158,0.784c-0.105,0.227-0.247,0.419-0.426,0.575c-0.18,0.157-0.391,0.275-0.636,0.354
				c-0.244,0.08-0.506,0.119-0.784,0.119c-0.29,0-0.56-0.037-0.811-0.111c-0.25-0.074-0.467-0.188-0.652-0.34
				c-0.185-0.153-0.33-0.345-0.435-0.576c-0.104-0.229-0.158-0.498-0.158-0.806c0-0.358,0.091-0.668,0.273-0.933
				c0.182-0.264,0.444-0.457,0.784-0.576c-0.256-0.102-0.46-0.269-0.614-0.499c-0.153-0.229-0.23-0.482-0.23-0.754
				C110.155,143.131,110.203,142.91,110.3,142.72z M111.072,147.033c0.242,0.207,0.549,0.311,0.925,0.311
				c0.182,0,0.347-0.03,0.499-0.09c0.15-0.06,0.281-0.142,0.392-0.248c0.11-0.104,0.196-0.228,0.256-0.37
				c0.06-0.142,0.089-0.298,0.089-0.469c0-0.164-0.033-0.316-0.098-0.456c-0.065-0.14-0.155-0.26-0.269-0.363
				c-0.114-0.102-0.246-0.183-0.396-0.243c-0.151-0.06-0.311-0.09-0.482-0.09c-0.176,0-0.342,0.027-0.498,0.081
				c-0.157,0.054-0.293,0.132-0.409,0.234c-0.117,0.102-0.208,0.224-0.273,0.367c-0.065,0.142-0.098,0.302-0.098,0.477
				C110.709,146.54,110.83,146.826,111.072,147.033z M111.007,143.837c0.057,0.123,0.134,0.223,0.23,0.303
				c0.097,0.079,0.21,0.139,0.34,0.179c0.131,0.04,0.271,0.06,0.418,0.06c0.289,0,0.528-0.085,0.716-0.256
				c0.188-0.17,0.281-0.409,0.281-0.716c0-0.308-0.095-0.538-0.285-0.695c-0.191-0.156-0.433-0.234-0.729-0.234
				c-0.142,0-0.278,0.02-0.409,0.06c-0.131,0.04-0.243,0.1-0.337,0.179c-0.094,0.08-0.169,0.176-0.226,0.29
				s-0.085,0.248-0.085,0.401C110.922,143.571,110.95,143.715,111.007,143.837z"/>
			<path fill="#777677" d="M115.141,144.225c0.011-0.239,0.04-0.471,0.085-0.698c0.045-0.227,0.111-0.443,0.195-0.648
				c0.085-0.205,0.202-0.384,0.35-0.537s0.335-0.276,0.558-0.367c0.224-0.091,0.493-0.136,0.806-0.136s0.581,0.045,0.806,0.136
				c0.224,0.092,0.41,0.214,0.558,0.367c0.148,0.153,0.264,0.332,0.35,0.537s0.151,0.421,0.196,0.648
				c0.045,0.227,0.074,0.46,0.085,0.698c0.011,0.239,0.016,0.469,0.016,0.691c0,0.222-0.006,0.452-0.016,0.69
				c-0.012,0.239-0.04,0.472-0.085,0.699c-0.045,0.227-0.111,0.442-0.196,0.643c-0.085,0.202-0.202,0.379-0.35,0.533
				c-0.148,0.154-0.332,0.275-0.553,0.363c-0.222,0.088-0.492,0.132-0.811,0.132c-0.312,0-0.581-0.044-0.806-0.132
				c-0.224-0.088-0.411-0.209-0.558-0.363c-0.148-0.153-0.264-0.331-0.35-0.533c-0.085-0.201-0.151-0.416-0.195-0.643
				c-0.045-0.227-0.074-0.46-0.085-0.699c-0.012-0.239-0.017-0.469-0.017-0.69C115.124,144.693,115.13,144.463,115.141,144.225z
				 M115.913,145.669c0.014,0.281,0.06,0.546,0.136,0.793c0.076,0.247,0.2,0.456,0.37,0.627s0.409,0.256,0.716,0.256
				c0.308,0,0.546-0.085,0.716-0.256c0.17-0.17,0.294-0.379,0.371-0.627s0.122-0.511,0.136-0.793
				c0.014-0.281,0.021-0.536,0.021-0.763c0-0.147-0.001-0.311-0.004-0.489c-0.003-0.178-0.016-0.358-0.043-0.537
				c-0.026-0.179-0.063-0.354-0.111-0.524c-0.048-0.17-0.119-0.32-0.213-0.448c-0.094-0.128-0.212-0.232-0.354-0.311
				c-0.142-0.079-0.315-0.119-0.52-0.119c-0.204,0-0.377,0.04-0.519,0.119c-0.142,0.08-0.26,0.184-0.354,0.311
				c-0.094,0.127-0.165,0.277-0.213,0.448c-0.048,0.17-0.085,0.345-0.111,0.524s-0.04,0.358-0.043,0.537
				c-0.003,0.179-0.004,0.342-0.004,0.489C115.892,145.134,115.899,145.388,115.913,145.669z"/>
			<path fill="#777677" d="M156.825,147.106c0.21,0.159,0.46,0.239,0.75,0.239c0.444,0,0.776-0.193,0.997-0.576
				c0.222-0.384,0.344-0.97,0.367-1.76l-0.016-0.017c-0.136,0.256-0.33,0.459-0.58,0.609c-0.25,0.151-0.522,0.226-0.818,0.226
				c-0.308,0-0.58-0.05-0.818-0.149c-0.239-0.1-0.439-0.237-0.601-0.413c-0.162-0.176-0.284-0.389-0.367-0.639
				c-0.082-0.25-0.124-0.523-0.124-0.818c0-0.289,0.048-0.555,0.145-0.797c0.097-0.242,0.233-0.449,0.409-0.622
				c0.176-0.173,0.386-0.308,0.631-0.404c0.244-0.096,0.512-0.145,0.802-0.145c0.283,0,0.551,0.044,0.801,0.132
				c0.251,0.088,0.469,0.24,0.657,0.457c0.188,0.216,0.337,0.51,0.448,0.882c0.111,0.372,0.166,0.845,0.166,1.419
				c0,1.046-0.166,1.849-0.499,2.409c-0.332,0.56-0.865,0.84-1.598,0.84c-0.506,0-0.926-0.128-1.261-0.384
				c-0.336-0.255-0.526-0.644-0.572-1.168h0.725C156.496,146.719,156.615,146.947,156.825,147.106z M158.731,143.329
				c-0.054-0.164-0.134-0.311-0.239-0.439c-0.105-0.128-0.234-0.228-0.389-0.303c-0.153-0.074-0.332-0.111-0.537-0.111
				c-0.216,0-0.399,0.04-0.549,0.119c-0.151,0.08-0.273,0.187-0.367,0.32c-0.094,0.134-0.162,0.286-0.205,0.457
				c-0.043,0.17-0.064,0.349-0.064,0.537c0,0.164,0.03,0.324,0.09,0.477c0.06,0.153,0.142,0.29,0.248,0.409
				c0.104,0.119,0.229,0.215,0.374,0.285c0.145,0.072,0.305,0.107,0.482,0.107c0.188,0,0.359-0.036,0.512-0.107
				c0.153-0.071,0.283-0.167,0.392-0.289c0.107-0.122,0.191-0.264,0.248-0.427c0.056-0.162,0.085-0.331,0.085-0.507
				C158.811,143.67,158.785,143.494,158.731,143.329z"/>
			<path fill="#777677" d="M160.867,144.225c0.011-0.239,0.04-0.471,0.085-0.698c0.045-0.227,0.111-0.443,0.196-0.648
				s0.202-0.384,0.35-0.537s0.334-0.276,0.558-0.367c0.224-0.091,0.492-0.136,0.806-0.136s0.58,0.045,0.806,0.136
				c0.224,0.092,0.411,0.214,0.558,0.367c0.148,0.153,0.264,0.332,0.349,0.537s0.151,0.421,0.196,0.648
				c0.045,0.227,0.074,0.46,0.085,0.698c0.012,0.239,0.017,0.469,0.017,0.691c0,0.222-0.006,0.452-0.017,0.69
				c-0.011,0.239-0.04,0.472-0.085,0.699c-0.045,0.227-0.111,0.442-0.196,0.643c-0.085,0.202-0.202,0.379-0.349,0.533
				c-0.148,0.154-0.332,0.275-0.554,0.363c-0.222,0.088-0.491,0.132-0.81,0.132c-0.313,0-0.581-0.044-0.806-0.132
				c-0.224-0.088-0.411-0.209-0.558-0.363c-0.148-0.153-0.264-0.331-0.35-0.533c-0.085-0.201-0.151-0.416-0.196-0.643
				c-0.045-0.227-0.074-0.46-0.085-0.699c-0.012-0.239-0.017-0.469-0.017-0.69C160.849,144.693,160.854,144.463,160.867,144.225z
				 M161.637,145.669c0.014,0.281,0.06,0.546,0.136,0.793c0.077,0.247,0.2,0.456,0.371,0.627c0.17,0.17,0.409,0.256,0.716,0.256
				c0.308,0,0.546-0.085,0.716-0.256c0.17-0.17,0.294-0.379,0.371-0.627c0.076-0.247,0.122-0.511,0.136-0.793
				c0.015-0.281,0.021-0.536,0.021-0.763c0-0.147-0.001-0.311-0.004-0.489c-0.003-0.178-0.017-0.358-0.043-0.537
				c-0.026-0.179-0.063-0.354-0.111-0.524c-0.048-0.17-0.119-0.32-0.214-0.448c-0.093-0.128-0.212-0.232-0.353-0.311
				c-0.142-0.079-0.315-0.119-0.52-0.119c-0.205,0-0.378,0.04-0.519,0.119c-0.142,0.08-0.26,0.184-0.354,0.311
				c-0.094,0.128-0.165,0.277-0.214,0.448c-0.048,0.17-0.085,0.345-0.111,0.524c-0.025,0.179-0.04,0.358-0.043,0.537
				c-0.003,0.179-0.004,0.342-0.004,0.489C161.616,145.134,161.623,145.388,161.637,145.669z"/>
			<path fill="#777677" d="M199.2,147.881v-4.33h-1.568v-0.58c0.205,0,0.403-0.015,0.597-0.046c0.193-0.031,0.368-0.09,0.524-0.175
				c0.156-0.085,0.288-0.202,0.396-0.35c0.107-0.148,0.182-0.335,0.222-0.563h0.554v6.044L199.2,147.881L199.2,147.881z"/>
			<path fill="#777677" d="M202.43,144.225c0.011-0.239,0.04-0.471,0.085-0.698c0.045-0.227,0.111-0.443,0.196-0.648
				c0.085-0.205,0.201-0.384,0.35-0.537c0.147-0.153,0.334-0.276,0.558-0.367c0.224-0.091,0.493-0.136,0.806-0.136
				c0.312,0,0.58,0.045,0.806,0.136c0.224,0.092,0.41,0.214,0.558,0.367c0.147,0.153,0.264,0.332,0.35,0.537
				c0.085,0.205,0.15,0.421,0.195,0.648c0.045,0.227,0.074,0.46,0.085,0.698c0.011,0.239,0.017,0.469,0.017,0.691
				c0,0.222-0.006,0.452-0.017,0.69c-0.012,0.239-0.04,0.472-0.085,0.699c-0.045,0.227-0.111,0.442-0.195,0.643
				c-0.086,0.202-0.202,0.379-0.35,0.533c-0.148,0.154-0.333,0.275-0.554,0.363c-0.221,0.088-0.492,0.132-0.81,0.132
				c-0.313,0-0.581-0.044-0.806-0.132c-0.224-0.088-0.411-0.209-0.558-0.363c-0.148-0.153-0.265-0.331-0.35-0.533
				c-0.085-0.201-0.151-0.416-0.196-0.643c-0.045-0.227-0.074-0.46-0.085-0.699c-0.011-0.239-0.016-0.469-0.016-0.69
				C202.414,144.693,202.42,144.463,202.43,144.225z M203.202,145.669c0.014,0.281,0.06,0.546,0.136,0.793
				c0.077,0.246,0.2,0.456,0.37,0.627c0.17,0.17,0.409,0.256,0.717,0.256c0.307,0,0.546-0.085,0.716-0.256
				c0.17-0.17,0.294-0.379,0.37-0.627c0.077-0.247,0.122-0.511,0.136-0.793c0.014-0.281,0.021-0.536,0.021-0.763
				c0-0.147-0.001-0.311-0.004-0.489c-0.004-0.179-0.017-0.358-0.043-0.537c-0.026-0.179-0.063-0.354-0.111-0.524
				c-0.048-0.17-0.119-0.32-0.213-0.448c-0.094-0.128-0.212-0.232-0.354-0.311c-0.142-0.079-0.315-0.119-0.519-0.119
				c-0.205,0-0.378,0.04-0.52,0.119c-0.142,0.08-0.26,0.184-0.354,0.311c-0.094,0.127-0.165,0.277-0.213,0.448
				c-0.048,0.17-0.085,0.345-0.111,0.524c-0.026,0.179-0.04,0.358-0.043,0.537c-0.003,0.179-0.004,0.342-0.004,0.489
				C203.181,145.134,203.188,145.388,203.202,145.669z"/>
			<path fill="#777677" d="M207.597,144.225c0.011-0.239,0.04-0.471,0.085-0.698c0.045-0.227,0.11-0.443,0.195-0.648
				c0.085-0.205,0.202-0.384,0.35-0.537c0.148-0.153,0.334-0.276,0.558-0.367c0.224-0.091,0.493-0.136,0.806-0.136
				s0.581,0.045,0.806,0.136c0.224,0.092,0.411,0.214,0.558,0.367c0.148,0.153,0.264,0.332,0.349,0.537
				c0.085,0.205,0.151,0.421,0.195,0.648c0.045,0.227,0.074,0.46,0.086,0.698c0.011,0.239,0.016,0.469,0.016,0.691
				c0,0.222-0.006,0.452-0.016,0.69c-0.012,0.239-0.04,0.472-0.086,0.699c-0.045,0.227-0.11,0.442-0.195,0.643
				c-0.085,0.202-0.202,0.379-0.349,0.533c-0.148,0.154-0.332,0.275-0.553,0.363c-0.222,0.088-0.492,0.132-0.811,0.132
				c-0.312,0-0.581-0.044-0.806-0.132c-0.224-0.088-0.411-0.209-0.558-0.363c-0.148-0.153-0.264-0.331-0.35-0.533
				c-0.085-0.201-0.151-0.416-0.195-0.643c-0.045-0.227-0.074-0.46-0.085-0.699c-0.012-0.239-0.017-0.469-0.017-0.69
				C207.579,144.693,207.585,144.463,207.597,144.225z M208.368,145.669c0.014,0.281,0.06,0.546,0.136,0.793
				c0.077,0.247,0.2,0.456,0.371,0.627c0.17,0.17,0.409,0.256,0.716,0.256s0.546-0.085,0.716-0.256
				c0.17-0.17,0.294-0.379,0.371-0.627s0.122-0.511,0.136-0.793c0.014-0.281,0.021-0.536,0.021-0.763
				c0-0.147-0.001-0.311-0.004-0.489s-0.016-0.358-0.043-0.537c-0.025-0.179-0.063-0.354-0.11-0.524
				c-0.048-0.17-0.119-0.32-0.213-0.448c-0.094-0.128-0.212-0.232-0.354-0.311c-0.142-0.079-0.315-0.119-0.52-0.119
				c-0.205,0-0.378,0.04-0.52,0.119c-0.141,0.08-0.259,0.184-0.354,0.311c-0.093,0.128-0.164,0.277-0.213,0.448
				c-0.048,0.17-0.085,0.345-0.11,0.524c-0.026,0.179-0.04,0.358-0.043,0.537c-0.003,0.179-0.004,0.342-0.004,0.489
				C208.346,145.134,208.353,145.388,208.368,145.669z"/>
		</g>
		<g>
			<path fill="#333333" d="M63.616,3.536c0.174,0,0.362,0.002,0.563,0.006c0.2,0.004,0.399,0.015,0.597,0.034
				c0.197,0.019,0.381,0.048,0.551,0.085c0.17,0.038,0.316,0.095,0.438,0.17c0.265,0.159,0.49,0.379,0.676,0.659
				c0.185,0.281,0.278,0.625,0.278,1.034c0,0.432-0.104,0.806-0.313,1.12c-0.208,0.314-0.506,0.548-0.892,0.698v0.023
				c0.5,0.106,0.882,0.334,1.148,0.682c0.265,0.349,0.398,0.773,0.398,1.273c0,0.296-0.053,0.583-0.159,0.864
				c-0.106,0.281-0.263,0.529-0.472,0.745c-0.208,0.216-0.465,0.39-0.773,0.522c-0.307,0.134-0.661,0.199-1.063,0.199h-3.921V3.536
				H63.616z M63.911,7.026c0.614,0,1.055-0.108,1.324-0.324c0.269-0.217,0.403-0.54,0.403-0.972c0-0.288-0.045-0.516-0.136-0.682
				c-0.091-0.166-0.217-0.296-0.376-0.386s-0.342-0.15-0.551-0.176c-0.208-0.026-0.43-0.039-0.664-0.039h-2.159v2.579H63.911z
				 M64.456,10.742c0.478,0,0.85-0.129,1.12-0.386c0.269-0.257,0.403-0.614,0.403-1.068c0-0.265-0.049-0.485-0.148-0.659
				s-0.229-0.313-0.392-0.415c-0.163-0.103-0.351-0.174-0.563-0.216c-0.212-0.041-0.431-0.063-0.659-0.063h-2.466v2.807H64.456z"/>
			<path fill="#333333" d="M69.321,3.536v8.115h-0.966V3.536H69.321z"/>
			<path fill="#333333" d="M75.334,11.777c-0.251,0-0.45-0.07-0.597-0.21c-0.148-0.14-0.222-0.369-0.222-0.688
				c-0.265,0.318-0.574,0.548-0.926,0.688c-0.352,0.14-0.733,0.21-1.142,0.21c-0.265,0-0.516-0.028-0.75-0.085
				c-0.235-0.057-0.442-0.151-0.619-0.283c-0.178-0.133-0.318-0.303-0.421-0.512c-0.103-0.208-0.154-0.46-0.154-0.755
				c0-0.334,0.057-0.607,0.17-0.818c0.114-0.212,0.264-0.384,0.45-0.517c0.185-0.133,0.398-0.233,0.636-0.301
				c0.239-0.069,0.483-0.126,0.733-0.17c0.265-0.053,0.517-0.093,0.755-0.119c0.238-0.026,0.449-0.065,0.631-0.114
				c0.183-0.049,0.326-0.121,0.432-0.216c0.106-0.095,0.159-0.233,0.159-0.415c0-0.212-0.04-0.383-0.119-0.512
				c-0.079-0.129-0.182-0.227-0.307-0.296c-0.125-0.068-0.265-0.113-0.421-0.136c-0.156-0.023-0.309-0.034-0.46-0.034
				c-0.409,0-0.75,0.077-1.022,0.233s-0.421,0.449-0.443,0.88H70.73c0.015-0.364,0.091-0.67,0.227-0.921
				c0.136-0.25,0.318-0.452,0.546-0.607c0.227-0.156,0.489-0.267,0.784-0.336c0.296-0.068,0.606-0.102,0.932-0.102
				c0.265,0,0.529,0.018,0.79,0.057c0.261,0.038,0.498,0.115,0.71,0.233c0.212,0.117,0.382,0.282,0.511,0.494
				c0.129,0.212,0.193,0.489,0.193,0.83v3.024c0,0.227,0.013,0.394,0.04,0.499c0.026,0.107,0.115,0.16,0.267,0.16
				c0.083,0,0.182-0.018,0.296-0.057v0.75C75.86,11.728,75.629,11.777,75.334,11.777z M73.98,8.816
				c-0.197,0.042-0.403,0.076-0.619,0.103s-0.433,0.057-0.654,0.091s-0.417,0.089-0.591,0.164C71.942,9.25,71.8,9.358,71.69,9.498
				c-0.11,0.14-0.165,0.332-0.165,0.575c0,0.159,0.033,0.293,0.097,0.403c0.065,0.11,0.148,0.199,0.251,0.267
				c0.102,0.069,0.223,0.118,0.364,0.148c0.14,0.031,0.282,0.045,0.427,0.045c0.318,0,0.591-0.044,0.818-0.131
				c0.227-0.087,0.413-0.197,0.557-0.33c0.143-0.133,0.25-0.276,0.318-0.431c0.068-0.156,0.102-0.302,0.102-0.438V8.617
				C74.336,8.709,74.178,8.774,73.98,8.816z"/>
			<path fill="#333333" d="M80.436,6.798c-0.243-0.205-0.568-0.307-0.977-0.307c-0.349,0-0.64,0.065-0.874,0.193
				c-0.235,0.129-0.423,0.3-0.563,0.511c-0.14,0.212-0.24,0.457-0.301,0.733c-0.06,0.277-0.091,0.563-0.091,0.858
				c0,0.273,0.033,0.538,0.097,0.796c0.065,0.258,0.165,0.487,0.301,0.688c0.136,0.201,0.315,0.362,0.534,0.484
				c0.22,0.121,0.482,0.182,0.784,0.182c0.477,0,0.85-0.125,1.12-0.375c0.269-0.25,0.433-0.602,0.494-1.057h0.989
				c-0.106,0.727-0.376,1.288-0.813,1.682c-0.436,0.394-1.029,0.591-1.779,0.591c-0.448,0-0.844-0.072-1.188-0.216
				c-0.345-0.143-0.633-0.348-0.864-0.614c-0.231-0.265-0.405-0.581-0.523-0.949c-0.117-0.368-0.176-0.771-0.176-1.21
				c0-0.439,0.057-0.85,0.17-1.232c0.114-0.383,0.286-0.717,0.518-1c0.231-0.284,0.521-0.508,0.869-0.671
				c0.349-0.163,0.754-0.244,1.216-0.244c0.334,0,0.646,0.04,0.938,0.119c0.291,0.08,0.549,0.202,0.773,0.369
				c0.223,0.167,0.407,0.377,0.551,0.632c0.143,0.254,0.234,0.555,0.273,0.903h-1C80.838,7.291,80.679,7.003,80.436,6.798z"/>
			<path fill="#333333" d="M84.05,3.536v4.808l2.682-2.569h1.296l-2.329,2.137l2.5,3.739h-1.228l-2.012-3.069L84.05,9.425v2.228
				h-0.966V3.536H84.05z"/>
			<path fill="#333333" d="M94.598,5.776v0.852h-1.17v3.649c0,0.113,0.009,0.204,0.028,0.273c0.018,0.068,0.055,0.121,0.107,0.159
				c0.053,0.038,0.127,0.063,0.222,0.074c0.094,0.011,0.217,0.016,0.369,0.016h0.443v0.852h-0.739c-0.25,0-0.464-0.017-0.641-0.051
				c-0.178-0.034-0.323-0.097-0.432-0.188c-0.11-0.091-0.192-0.22-0.244-0.386c-0.053-0.166-0.08-0.386-0.08-0.659V6.628h-1V5.776h1
				V4.014h0.966v1.762H94.598z"/>
			<path fill="#333333" d="M99.825,11.277c-0.439,0.334-0.992,0.5-1.659,0.5c-0.47,0-0.877-0.075-1.222-0.227
				c-0.345-0.152-0.635-0.364-0.869-0.636c-0.235-0.273-0.411-0.599-0.529-0.977c-0.118-0.379-0.184-0.791-0.199-1.239
				c0-0.447,0.069-0.856,0.205-1.228c0.136-0.371,0.327-0.694,0.575-0.966c0.246-0.273,0.538-0.485,0.874-0.636
				c0.337-0.152,0.707-0.227,1.109-0.227c0.522,0,0.957,0.108,1.301,0.324c0.345,0.216,0.622,0.49,0.83,0.824
				c0.208,0.333,0.352,0.697,0.431,1.091c0.08,0.394,0.112,0.769,0.097,1.125h-4.398c-0.008,0.257,0.023,0.502,0.091,0.732
				c0.068,0.232,0.178,0.436,0.33,0.614c0.151,0.178,0.345,0.32,0.58,0.426c0.234,0.107,0.511,0.16,0.83,0.16
				c0.409,0,0.744-0.095,1.006-0.284c0.261-0.19,0.433-0.477,0.517-0.864h0.955C100.55,10.447,100.265,10.943,99.825,11.277z
				 M99.593,7.503c-0.087-0.205-0.205-0.381-0.352-0.529c-0.148-0.148-0.323-0.265-0.523-0.352c-0.2-0.087-0.423-0.131-0.665-0.131
				c-0.251,0-0.476,0.044-0.676,0.131c-0.201,0.087-0.373,0.207-0.518,0.358c-0.143,0.152-0.257,0.328-0.34,0.529
				c-0.084,0.201-0.133,0.415-0.148,0.642h3.376C99.731,7.924,99.68,7.708,99.593,7.503z"/>
			<path fill="#333333" d="M101.303,5.776h1.239l1.409,2.057l1.466-2.057h1.159l-2.023,2.706l2.273,3.171h-1.239l-1.637-2.432
				l-1.637,2.432h-1.17l2.205-3.091L101.303,5.776z"/>
			<path fill="#333333" d="M110.169,5.776v0.852h-1.171v3.649c0,0.113,0.01,0.204,0.028,0.273c0.018,0.068,0.055,0.121,0.108,0.159
				c0.053,0.038,0.127,0.063,0.222,0.074c0.095,0.011,0.218,0.016,0.37,0.016h0.443v0.852h-0.739c-0.251,0-0.464-0.017-0.642-0.051
				s-0.322-0.097-0.432-0.188c-0.109-0.091-0.192-0.22-0.244-0.386s-0.079-0.386-0.079-0.659V6.628h-1V5.776h1V4.014h0.965v1.762
				H110.169z"/>
			<path fill="#333333" d="M118.908,11.777c-0.251,0-0.449-0.07-0.597-0.21c-0.147-0.14-0.222-0.369-0.222-0.688
				c-0.265,0.318-0.574,0.548-0.926,0.688c-0.352,0.14-0.733,0.21-1.142,0.21c-0.265,0-0.516-0.028-0.75-0.085
				c-0.235-0.057-0.441-0.151-0.619-0.283c-0.178-0.132-0.318-0.303-0.421-0.512c-0.103-0.208-0.153-0.46-0.153-0.755
				c0-0.334,0.057-0.607,0.17-0.818c0.114-0.212,0.264-0.384,0.449-0.517c0.186-0.133,0.399-0.233,0.636-0.301
				c0.239-0.069,0.483-0.126,0.733-0.17c0.265-0.053,0.517-0.093,0.755-0.119c0.238-0.026,0.45-0.065,0.632-0.114
				c0.182-0.049,0.325-0.121,0.431-0.216c0.106-0.095,0.16-0.233,0.16-0.415c0-0.212-0.04-0.383-0.119-0.512
				c-0.08-0.129-0.182-0.227-0.308-0.296c-0.125-0.068-0.265-0.113-0.421-0.136c-0.156-0.023-0.309-0.034-0.46-0.034
				c-0.409,0-0.751,0.077-1.023,0.233s-0.421,0.449-0.443,0.88h-0.966c0.015-0.364,0.091-0.67,0.227-0.921
				c0.136-0.25,0.318-0.452,0.546-0.607c0.227-0.156,0.489-0.267,0.784-0.336c0.296-0.068,0.607-0.102,0.932-0.102
				c0.266,0,0.529,0.018,0.79,0.057c0.261,0.038,0.498,0.115,0.71,0.233c0.212,0.117,0.383,0.282,0.511,0.494
				c0.129,0.212,0.193,0.489,0.193,0.83v3.024c0,0.227,0.013,0.394,0.04,0.499c0.026,0.107,0.116,0.16,0.267,0.16
				c0.083,0,0.182-0.018,0.296-0.057v0.75C119.436,11.728,119.204,11.777,118.908,11.777z M117.556,8.816
				c-0.197,0.042-0.403,0.076-0.619,0.103c-0.216,0.026-0.433,0.057-0.654,0.091c-0.22,0.034-0.417,0.089-0.591,0.164
				c-0.174,0.076-0.316,0.184-0.426,0.324c-0.11,0.14-0.165,0.332-0.165,0.575c0,0.159,0.032,0.293,0.097,0.403
				c0.064,0.11,0.147,0.199,0.25,0.267c0.102,0.069,0.223,0.118,0.364,0.148c0.14,0.031,0.282,0.045,0.426,0.045
				c0.318,0,0.591-0.044,0.818-0.131c0.227-0.087,0.413-0.197,0.557-0.33c0.143-0.133,0.251-0.276,0.318-0.431
				c0.067-0.155,0.102-0.302,0.102-0.438V8.617C117.912,8.709,117.753,8.774,117.556,8.816z"/>
			<path fill="#333333" d="M124.012,6.798c-0.243-0.205-0.568-0.307-0.977-0.307c-0.348,0-0.64,0.065-0.875,0.193
				c-0.234,0.129-0.423,0.3-0.562,0.511c-0.141,0.212-0.242,0.457-0.302,0.733c-0.06,0.277-0.091,0.563-0.091,0.858
				c0,0.273,0.032,0.538,0.097,0.796c0.064,0.258,0.164,0.487,0.301,0.688c0.136,0.201,0.314,0.362,0.534,0.484
				c0.22,0.121,0.481,0.182,0.784,0.182c0.477,0,0.85-0.125,1.12-0.375s0.433-0.602,0.494-1.057h0.989
				c-0.106,0.727-0.377,1.288-0.813,1.682c-0.436,0.394-1.028,0.591-1.779,0.591c-0.447,0-0.843-0.072-1.188-0.216
				c-0.345-0.143-0.633-0.348-0.864-0.614c-0.231-0.265-0.405-0.581-0.522-0.949c-0.118-0.368-0.176-0.771-0.176-1.21
				c0-0.439,0.057-0.85,0.17-1.232c0.114-0.383,0.286-0.717,0.518-1c0.231-0.284,0.521-0.508,0.869-0.671s0.754-0.244,1.216-0.244
				c0.334,0,0.646,0.04,0.938,0.119c0.291,0.08,0.549,0.202,0.773,0.369c0.223,0.167,0.407,0.377,0.551,0.632
				c0.143,0.254,0.234,0.555,0.273,0.903h-1C124.413,7.291,124.254,7.003,124.012,6.798z"/>
			<path fill="#333333" d="M130.115,6.798c-0.243-0.205-0.568-0.307-0.977-0.307c-0.348,0-0.64,0.065-0.875,0.193
				c-0.234,0.129-0.423,0.3-0.562,0.511c-0.141,0.212-0.242,0.457-0.302,0.733c-0.06,0.277-0.091,0.563-0.091,0.858
				c0,0.273,0.032,0.538,0.097,0.796c0.064,0.258,0.164,0.487,0.301,0.688c0.136,0.201,0.314,0.362,0.534,0.484
				c0.22,0.121,0.481,0.182,0.784,0.182c0.477,0,0.85-0.125,1.12-0.375s0.433-0.602,0.494-1.057h0.989
				c-0.106,0.727-0.377,1.288-0.813,1.682c-0.436,0.394-1.028,0.591-1.779,0.591c-0.447,0-0.843-0.072-1.188-0.216
				c-0.345-0.143-0.633-0.348-0.864-0.614c-0.231-0.265-0.405-0.581-0.522-0.949c-0.118-0.368-0.176-0.771-0.176-1.21
				c0-0.439,0.057-0.85,0.17-1.232c0.114-0.383,0.286-0.717,0.518-1c0.231-0.284,0.521-0.508,0.869-0.671
				c0.349-0.163,0.754-0.244,1.216-0.244c0.334,0,0.646,0.04,0.938,0.119c0.291,0.08,0.549,0.202,0.773,0.369
				c0.223,0.167,0.407,0.377,0.551,0.632c0.143,0.254,0.234,0.555,0.273,0.903h-1C130.516,7.291,130.357,7.003,130.115,6.798z"/>
			<path fill="#333333" d="M136.866,11.277c-0.44,0.334-0.992,0.5-1.659,0.5c-0.47,0-0.877-0.075-1.222-0.227
				c-0.345-0.152-0.636-0.364-0.87-0.636c-0.234-0.272-0.411-0.599-0.529-0.977c-0.117-0.379-0.184-0.791-0.198-1.239
				c0-0.447,0.068-0.856,0.204-1.228c0.136-0.371,0.328-0.694,0.575-0.966s0.538-0.485,0.875-0.636
				c0.337-0.152,0.706-0.227,1.108-0.227c0.522,0,0.957,0.108,1.301,0.324c0.345,0.216,0.621,0.49,0.83,0.824
				c0.208,0.333,0.352,0.697,0.432,1.091c0.079,0.394,0.111,0.769,0.097,1.125h-4.399c-0.008,0.257,0.023,0.502,0.091,0.732
				c0.069,0.232,0.178,0.436,0.33,0.614c0.152,0.178,0.345,0.32,0.58,0.426c0.234,0.107,0.511,0.16,0.83,0.16
				c0.409,0,0.744-0.095,1.006-0.284c0.261-0.189,0.433-0.477,0.518-0.864h0.955C137.59,10.447,137.305,10.943,136.866,11.277z
				 M136.633,7.503c-0.087-0.205-0.205-0.381-0.352-0.529c-0.148-0.148-0.322-0.265-0.522-0.352
				c-0.201-0.087-0.423-0.131-0.666-0.131c-0.251,0-0.475,0.044-0.676,0.131c-0.201,0.087-0.373,0.207-0.517,0.358
				c-0.144,0.152-0.258,0.328-0.341,0.529c-0.083,0.201-0.133,0.415-0.148,0.642h3.376C136.771,7.924,136.72,7.708,136.633,7.503z"
				/>
			<path fill="#333333" d="M139.548,10.339c0.091,0.148,0.21,0.265,0.359,0.352c0.147,0.087,0.313,0.149,0.499,0.188
				c0.186,0.038,0.377,0.057,0.575,0.057c0.151,0,0.311-0.012,0.477-0.034c0.166-0.023,0.32-0.065,0.46-0.126
				c0.14-0.06,0.256-0.149,0.347-0.267c0.091-0.117,0.136-0.267,0.136-0.449c0-0.25-0.095-0.439-0.284-0.568
				s-0.426-0.233-0.71-0.313c-0.284-0.079-0.593-0.151-0.926-0.216c-0.334-0.064-0.642-0.156-0.926-0.273
				c-0.284-0.117-0.521-0.282-0.71-0.494c-0.19-0.212-0.284-0.507-0.284-0.887c0-0.296,0.066-0.548,0.198-0.761
				c0.134-0.212,0.303-0.385,0.512-0.518c0.208-0.133,0.443-0.231,0.705-0.296c0.261-0.065,0.52-0.097,0.779-0.097
				c0.333,0,0.64,0.028,0.921,0.085c0.281,0.057,0.529,0.156,0.744,0.296c0.217,0.14,0.389,0.33,0.518,0.568
				c0.129,0.239,0.205,0.536,0.227,0.892h-0.966c-0.015-0.19-0.065-0.347-0.148-0.472s-0.19-0.225-0.318-0.301
				c-0.129-0.075-0.271-0.131-0.427-0.165s-0.312-0.05-0.471-0.05c-0.144,0-0.29,0.011-0.438,0.034
				c-0.148,0.023-0.282,0.063-0.403,0.119c-0.121,0.057-0.22,0.133-0.296,0.227c-0.075,0.094-0.114,0.218-0.114,0.369
				c0,0.166,0.059,0.305,0.176,0.415c0.118,0.109,0.268,0.201,0.45,0.273c0.182,0.072,0.386,0.133,0.613,0.182
				c0.227,0.05,0.455,0.101,0.682,0.154c0.243,0.053,0.48,0.117,0.71,0.193c0.231,0.075,0.435,0.176,0.614,0.301
				c0.178,0.125,0.322,0.282,0.432,0.472c0.109,0.19,0.164,0.425,0.164,0.705c0,0.357-0.074,0.652-0.222,0.887
				c-0.148,0.235-0.341,0.425-0.58,0.568c-0.239,0.144-0.508,0.244-0.807,0.301c-0.3,0.057-0.597,0.085-0.892,0.085
				c-0.326,0-0.636-0.034-0.932-0.102c-0.296-0.069-0.556-0.18-0.784-0.336c-0.227-0.155-0.409-0.359-0.546-0.613
				c-0.136-0.254-0.212-0.563-0.227-0.927h0.965C139.408,10.011,139.457,10.191,139.548,10.339z"/>
			<path fill="#333333" d="M145.231,10.339c0.091,0.148,0.21,0.265,0.359,0.352c0.147,0.087,0.313,0.149,0.499,0.188
				c0.186,0.038,0.377,0.057,0.575,0.057c0.151,0,0.311-0.012,0.477-0.034c0.166-0.023,0.32-0.065,0.46-0.126
				c0.14-0.06,0.256-0.149,0.347-0.267c0.091-0.117,0.136-0.267,0.136-0.449c0-0.25-0.095-0.439-0.284-0.568
				s-0.426-0.233-0.71-0.313c-0.284-0.079-0.593-0.151-0.926-0.216c-0.334-0.064-0.642-0.156-0.926-0.273
				c-0.284-0.117-0.521-0.282-0.71-0.494c-0.19-0.212-0.284-0.507-0.284-0.887c0-0.296,0.066-0.548,0.198-0.761
				c0.134-0.212,0.303-0.385,0.512-0.518c0.208-0.133,0.443-0.231,0.705-0.296c0.261-0.065,0.52-0.097,0.779-0.097
				c0.333,0,0.64,0.028,0.921,0.085c0.281,0.057,0.529,0.156,0.744,0.296c0.217,0.14,0.389,0.33,0.518,0.568
				c0.129,0.239,0.205,0.536,0.227,0.892h-0.966c-0.015-0.19-0.065-0.347-0.148-0.472c-0.083-0.125-0.19-0.225-0.318-0.301
				c-0.129-0.075-0.271-0.131-0.427-0.165s-0.312-0.05-0.471-0.05c-0.144,0-0.29,0.011-0.438,0.034
				c-0.148,0.023-0.282,0.063-0.403,0.119c-0.121,0.057-0.22,0.133-0.296,0.227c-0.075,0.094-0.114,0.218-0.114,0.369
				c0,0.166,0.059,0.305,0.176,0.415c0.118,0.109,0.268,0.201,0.45,0.273c0.182,0.072,0.386,0.133,0.613,0.182
				c0.227,0.05,0.455,0.101,0.682,0.154c0.243,0.053,0.48,0.117,0.71,0.193c0.231,0.075,0.435,0.176,0.614,0.301
				c0.178,0.125,0.322,0.282,0.432,0.472c0.109,0.19,0.164,0.425,0.164,0.705c0,0.357-0.074,0.652-0.222,0.887
				c-0.148,0.235-0.341,0.425-0.58,0.568c-0.239,0.144-0.508,0.244-0.807,0.301c-0.3,0.057-0.597,0.085-0.892,0.085
				c-0.326,0-0.636-0.034-0.932-0.102c-0.296-0.069-0.556-0.18-0.784-0.336c-0.227-0.155-0.409-0.359-0.546-0.613
				c-0.136-0.254-0.212-0.563-0.227-0.927h0.965C145.091,10.011,145.14,10.191,145.231,10.339z"/>
			<path fill="#333333" d="M150.232,4.718V3.536h0.966v1.182H150.232z M151.198,5.776v5.876h-0.966V5.776H151.198z"/>
			<path fill="#333333" d="M153.698,3.536v3.035h0.023c0.159-0.325,0.409-0.563,0.75-0.71c0.341-0.148,0.717-0.222,1.125-0.222
				c0.455,0,0.85,0.083,1.188,0.25c0.337,0.167,0.618,0.393,0.842,0.676c0.223,0.284,0.392,0.612,0.506,0.983s0.17,0.766,0.17,1.182
				c0,0.417-0.055,0.811-0.165,1.182c-0.11,0.372-0.277,0.695-0.5,0.972s-0.504,0.494-0.841,0.654
				c-0.337,0.16-0.73,0.239-1.176,0.239c-0.144,0-0.305-0.015-0.483-0.045c-0.178-0.031-0.354-0.08-0.529-0.148
				c-0.175-0.069-0.34-0.161-0.494-0.279c-0.156-0.117-0.286-0.263-0.392-0.437h-0.023v0.784h-0.966V3.536H153.698z M157.171,7.861
				c-0.072-0.261-0.182-0.494-0.33-0.699c-0.148-0.205-0.337-0.367-0.568-0.489s-0.502-0.182-0.813-0.182
				c-0.326,0-0.603,0.065-0.83,0.193c-0.227,0.129-0.413,0.298-0.556,0.506c-0.144,0.209-0.249,0.445-0.313,0.71
				c-0.065,0.266-0.097,0.534-0.097,0.808c0,0.288,0.034,0.566,0.103,0.835c0.068,0.269,0.175,0.506,0.323,0.71
				c0.148,0.205,0.34,0.369,0.575,0.494c0.234,0.126,0.519,0.188,0.852,0.188c0.334,0,0.612-0.065,0.836-0.193
				c0.223-0.129,0.403-0.299,0.54-0.511c0.137-0.212,0.235-0.455,0.296-0.727c0.06-0.273,0.091-0.553,0.091-0.841
				C157.279,8.39,157.242,8.123,157.171,7.861z"/>
			<path fill="#333333" d="M160.462,3.536v8.115h-0.966V3.536H160.462z"/>
			<path fill="#333333" d="M166.12,11.277c-0.439,0.334-0.992,0.5-1.659,0.5c-0.47,0-0.877-0.075-1.222-0.227
				c-0.345-0.152-0.635-0.364-0.869-0.636c-0.235-0.273-0.411-0.599-0.529-0.977c-0.118-0.379-0.184-0.791-0.199-1.239
				c0-0.447,0.069-0.856,0.205-1.228s0.327-0.694,0.575-0.966c0.246-0.273,0.538-0.485,0.874-0.636
				c0.337-0.152,0.706-0.227,1.108-0.227c0.523,0,0.957,0.108,1.301,0.324c0.345,0.216,0.622,0.49,0.83,0.824
				c0.209,0.333,0.352,0.697,0.432,1.091c0.08,0.394,0.112,0.769,0.097,1.125h-4.398c-0.008,0.257,0.022,0.502,0.091,0.732
				c0.068,0.232,0.178,0.436,0.33,0.614c0.151,0.178,0.345,0.32,0.58,0.426c0.234,0.107,0.511,0.16,0.83,0.16
				c0.408,0,0.744-0.095,1.006-0.284c0.261-0.19,0.433-0.477,0.517-0.864h0.955C166.844,10.447,166.56,10.943,166.12,11.277z
				 M165.887,7.503c-0.087-0.205-0.204-0.381-0.352-0.529c-0.147-0.148-0.322-0.265-0.522-0.352c-0.2-0.087-0.423-0.131-0.666-0.131
				c-0.25,0-0.475,0.044-0.676,0.131c-0.201,0.087-0.373,0.207-0.518,0.358c-0.144,0.152-0.257,0.328-0.34,0.529
				c-0.084,0.201-0.133,0.415-0.148,0.642h3.376C166.027,7.924,165.975,7.708,165.887,7.503z"/>
		</g>
		<g>
			<path fill="#333333" d="M68.138,166.712l-1.852-6.819h-0.023l-1.875,6.819h-1.125l-2.081-8.115h1.103l1.59,6.751h0.023
				l1.819-6.751h1.17l1.796,6.751h0.022l1.648-6.751h1.08l-2.171,8.115H68.138z"/>
			<path fill="#333333" d="M73.264,158.597v3.103h0.023c0.075-0.182,0.183-0.336,0.318-0.46c0.136-0.124,0.29-0.227,0.46-0.307
				c0.17-0.08,0.348-0.138,0.534-0.176c0.185-0.038,0.365-0.057,0.54-0.057c0.386,0,0.708,0.053,0.965,0.159
				c0.258,0.106,0.466,0.254,0.626,0.443c0.159,0.19,0.271,0.415,0.335,0.676s0.097,0.551,0.097,0.869v3.864h-0.965v-3.978
				c0-0.364-0.107-0.652-0.318-0.865c-0.212-0.212-0.504-0.318-0.875-0.318c-0.296,0-0.551,0.045-0.767,0.136
				c-0.216,0.091-0.396,0.22-0.54,0.386c-0.144,0.167-0.251,0.362-0.324,0.585c-0.072,0.223-0.108,0.468-0.108,0.733v3.319h-0.965
				v-8.115L73.264,158.597L73.264,158.597z"/>
			<path fill="#333333" d="M78.674,159.779v-1.182h0.966v1.182H78.674z M79.641,160.836v5.876h-0.966v-5.876H79.641z"/>
			<path fill="#333333" d="M83.652,160.836v0.852h-1.17v3.649c0,0.113,0.009,0.204,0.028,0.273c0.019,0.068,0.055,0.121,0.108,0.159
				c0.053,0.038,0.127,0.062,0.222,0.074c0.094,0.011,0.218,0.016,0.369,0.016h0.443v0.852h-0.739c-0.25,0-0.464-0.017-0.642-0.051
				c-0.178-0.034-0.322-0.097-0.431-0.188s-0.192-0.22-0.244-0.386c-0.053-0.166-0.08-0.386-0.08-0.659v-3.74h-1v-0.852h1v-1.761
				h0.966v1.761L83.652,160.836L83.652,160.836z"/>
			<path fill="#333333" d="M88.881,166.337c-0.44,0.334-0.993,0.5-1.659,0.5c-0.47,0-0.877-0.075-1.223-0.227
				c-0.345-0.152-0.635-0.364-0.869-0.636c-0.235-0.273-0.411-0.599-0.529-0.977c-0.117-0.379-0.184-0.791-0.199-1.239
				c0-0.447,0.069-0.856,0.205-1.227c0.136-0.371,0.328-0.694,0.575-0.966s0.538-0.485,0.874-0.636
				c0.337-0.152,0.706-0.227,1.109-0.227c0.522,0,0.956,0.108,1.301,0.324c0.344,0.216,0.621,0.49,0.83,0.824
				c0.208,0.333,0.352,0.697,0.431,1.091c0.08,0.394,0.112,0.769,0.097,1.125h-4.399c-0.008,0.257,0.023,0.502,0.091,0.732
				c0.068,0.232,0.178,0.436,0.33,0.614c0.152,0.178,0.345,0.32,0.58,0.426c0.234,0.107,0.511,0.16,0.83,0.16
				c0.408,0,0.744-0.095,1.006-0.284s0.433-0.477,0.517-0.864h0.955C89.603,165.507,89.32,166.003,88.881,166.337z M88.647,162.563
				c-0.087-0.205-0.205-0.381-0.352-0.529c-0.148-0.148-0.322-0.265-0.523-0.352c-0.2-0.087-0.423-0.131-0.665-0.131
				c-0.251,0-0.476,0.044-0.676,0.131c-0.201,0.087-0.373,0.207-0.517,0.358c-0.144,0.152-0.258,0.328-0.341,0.529
				c-0.083,0.201-0.133,0.415-0.148,0.642h3.376C88.786,162.984,88.735,162.768,88.647,162.563z"/>
			<path fill="#333333" d="M96.495,160.836v0.852h-1.171v3.649c0,0.113,0.01,0.204,0.028,0.273c0.018,0.068,0.055,0.121,0.108,0.159
				c0.053,0.038,0.126,0.062,0.222,0.074c0.095,0.011,0.218,0.016,0.37,0.016h0.443v0.852h-0.739c-0.251,0-0.465-0.017-0.642-0.051
				c-0.178-0.034-0.322-0.097-0.431-0.188c-0.11-0.091-0.192-0.22-0.245-0.386c-0.053-0.166-0.08-0.386-0.08-0.659v-3.74H93.36
				v-0.852h0.999v-1.761h0.966v1.761L96.495,160.836L96.495,160.836z"/>
			<path fill="#333333" d="M101.723,166.337c-0.439,0.334-0.992,0.5-1.659,0.5c-0.47,0-0.877-0.075-1.222-0.227
				c-0.345-0.152-0.635-0.364-0.87-0.636c-0.234-0.273-0.411-0.599-0.529-0.977c-0.117-0.379-0.183-0.791-0.198-1.239
				c0-0.447,0.068-0.856,0.205-1.227c0.136-0.371,0.327-0.694,0.574-0.966s0.538-0.485,0.875-0.636
				c0.337-0.152,0.706-0.227,1.108-0.227c0.523,0,0.957,0.108,1.301,0.324c0.345,0.216,0.621,0.49,0.83,0.824
				c0.209,0.333,0.352,0.697,0.432,1.091c0.079,0.394,0.112,0.769,0.097,1.125h-4.399c-0.007,0.257,0.023,0.502,0.092,0.732
				c0.068,0.232,0.178,0.436,0.329,0.614c0.152,0.178,0.345,0.32,0.58,0.426c0.234,0.107,0.512,0.16,0.83,0.16
				c0.409,0,0.744-0.095,1.006-0.284c0.261-0.189,0.433-0.477,0.518-0.864h0.955C102.447,165.507,102.162,166.003,101.723,166.337z
				 M101.49,162.563c-0.087-0.205-0.205-0.381-0.352-0.529c-0.148-0.148-0.322-0.265-0.522-0.352
				c-0.201-0.087-0.423-0.131-0.666-0.131c-0.25,0-0.475,0.044-0.676,0.131c-0.2,0.087-0.373,0.207-0.517,0.358
				c-0.144,0.152-0.257,0.328-0.34,0.529c-0.084,0.201-0.134,0.415-0.148,0.642h3.376
				C101.628,162.984,101.578,162.768,101.49,162.563z"/>
			<path fill="#333333" d="M103.201,160.836h1.239l1.409,2.057l1.466-2.057h1.159l-2.023,2.706l2.273,3.171h-1.239l-1.637-2.432
				l-1.637,2.432h-1.17l2.205-3.091L103.201,160.836z"/>
			<path fill="#333333" d="M112.066,160.836v0.852h-1.17v3.649c0,0.113,0.009,0.204,0.028,0.273
				c0.018,0.068,0.055,0.121,0.107,0.159c0.053,0.038,0.127,0.062,0.222,0.074c0.094,0.011,0.217,0.016,0.369,0.016h0.443v0.852
				h-0.739c-0.25,0-0.464-0.017-0.641-0.051c-0.178-0.034-0.323-0.097-0.432-0.188c-0.11-0.091-0.192-0.22-0.244-0.386
				c-0.053-0.166-0.08-0.386-0.08-0.659v-3.74h-1v-0.852h1v-1.761h0.966v1.761L112.066,160.836L112.066,160.836z"/>
			<path fill="#333333" d="M120.806,166.837c-0.25,0-0.449-0.07-0.597-0.21c-0.148-0.14-0.222-0.369-0.222-0.688
				c-0.266,0.318-0.575,0.548-0.927,0.688c-0.352,0.14-0.732,0.21-1.142,0.21c-0.266,0-0.516-0.028-0.751-0.085
				c-0.234-0.057-0.441-0.151-0.619-0.283c-0.178-0.133-0.318-0.303-0.421-0.512c-0.102-0.208-0.153-0.46-0.153-0.755
				c0-0.334,0.057-0.607,0.17-0.818c0.114-0.212,0.263-0.384,0.449-0.517c0.185-0.133,0.398-0.233,0.636-0.301
				c0.239-0.069,0.484-0.126,0.733-0.17c0.266-0.053,0.518-0.093,0.756-0.119c0.238-0.026,0.449-0.065,0.631-0.114
				c0.182-0.049,0.326-0.121,0.432-0.216c0.106-0.095,0.159-0.233,0.159-0.415c0-0.212-0.04-0.383-0.119-0.512
				c-0.08-0.129-0.182-0.227-0.307-0.296c-0.125-0.068-0.266-0.113-0.421-0.136c-0.156-0.023-0.31-0.034-0.46-0.034
				c-0.409,0-0.751,0.077-1.023,0.233c-0.272,0.156-0.421,0.449-0.443,0.88h-0.965c0.015-0.364,0.091-0.67,0.227-0.921
				c0.136-0.25,0.318-0.452,0.546-0.607s0.489-0.267,0.784-0.336c0.296-0.068,0.607-0.102,0.932-0.102
				c0.265,0,0.529,0.018,0.789,0.057c0.261,0.038,0.498,0.115,0.71,0.233c0.212,0.117,0.383,0.282,0.512,0.494
				c0.129,0.212,0.193,0.489,0.193,0.83v3.024c0,0.227,0.013,0.394,0.04,0.499c0.026,0.107,0.115,0.16,0.267,0.16
				c0.083,0,0.182-0.018,0.296-0.057v0.75C121.332,166.788,121.101,166.837,120.806,166.837z M119.454,163.876
				c-0.197,0.042-0.403,0.076-0.619,0.103c-0.217,0.026-0.434,0.057-0.654,0.091c-0.22,0.034-0.416,0.089-0.591,0.164
				c-0.174,0.076-0.316,0.184-0.426,0.324c-0.11,0.14-0.164,0.332-0.164,0.575c0,0.159,0.032,0.293,0.097,0.403
				c0.064,0.11,0.148,0.199,0.25,0.267c0.103,0.069,0.223,0.118,0.364,0.148c0.139,0.031,0.282,0.045,0.426,0.045
				c0.318,0,0.591-0.044,0.818-0.131c0.227-0.087,0.413-0.197,0.557-0.33c0.143-0.133,0.25-0.276,0.318-0.431
				c0.067-0.155,0.103-0.302,0.103-0.438v-0.99C119.81,163.769,119.651,163.835,119.454,163.876z"/>
			<path fill="#333333" d="M125.91,161.859c-0.243-0.205-0.569-0.307-0.978-0.307c-0.348,0-0.64,0.065-0.874,0.193
				c-0.235,0.129-0.423,0.3-0.563,0.511c-0.14,0.212-0.241,0.457-0.301,0.733c-0.061,0.277-0.091,0.563-0.091,0.858
				c0,0.273,0.032,0.538,0.097,0.796c0.064,0.258,0.165,0.487,0.301,0.688c0.136,0.201,0.314,0.362,0.534,0.484
				s0.482,0.182,0.784,0.182c0.478,0,0.85-0.125,1.12-0.375s0.434-0.602,0.494-1.057h0.989c-0.105,0.727-0.376,1.288-0.813,1.682
				s-1.029,0.591-1.779,0.591c-0.448,0-0.843-0.072-1.188-0.216c-0.345-0.143-0.633-0.348-0.864-0.614
				c-0.232-0.265-0.406-0.581-0.523-0.949c-0.118-0.368-0.176-0.771-0.176-1.21c0-0.439,0.057-0.85,0.17-1.232
				c0.114-0.383,0.286-0.717,0.517-1c0.231-0.284,0.521-0.508,0.87-0.671c0.348-0.163,0.754-0.244,1.216-0.244
				c0.333,0,0.646,0.04,0.938,0.119c0.291,0.08,0.548,0.202,0.773,0.369c0.223,0.167,0.406,0.377,0.551,0.632
				c0.144,0.254,0.234,0.555,0.273,0.903h-1C126.31,162.352,126.151,162.063,125.91,161.859z"/>
			<path fill="#333333" d="M132.012,161.859c-0.243-0.205-0.569-0.307-0.978-0.307c-0.348,0-0.64,0.065-0.874,0.193
				c-0.235,0.129-0.423,0.3-0.563,0.511c-0.14,0.212-0.241,0.457-0.301,0.733c-0.061,0.277-0.091,0.563-0.091,0.858
				c0,0.273,0.032,0.538,0.097,0.796c0.064,0.258,0.165,0.487,0.301,0.688c0.136,0.201,0.314,0.362,0.534,0.484
				c0.22,0.121,0.482,0.182,0.784,0.182c0.478,0,0.85-0.125,1.12-0.375s0.434-0.602,0.494-1.057h0.989
				c-0.105,0.727-0.376,1.288-0.813,1.682s-1.029,0.591-1.779,0.591c-0.448,0-0.843-0.072-1.188-0.216
				c-0.345-0.143-0.633-0.348-0.864-0.614c-0.232-0.265-0.406-0.581-0.523-0.949c-0.118-0.368-0.176-0.771-0.176-1.21
				c0-0.439,0.057-0.85,0.171-1.232c0.114-0.383,0.286-0.717,0.517-1c0.231-0.284,0.521-0.508,0.87-0.671
				c0.348-0.163,0.754-0.244,1.216-0.244c0.333,0,0.646,0.04,0.938,0.119c0.291,0.08,0.548,0.202,0.773,0.369
				c0.223,0.167,0.406,0.377,0.551,0.632c0.144,0.254,0.234,0.555,0.273,0.903h-1C132.414,162.352,132.255,162.063,132.012,161.859z
				"/>
			<path fill="#333333" d="M138.763,166.337c-0.439,0.334-0.992,0.5-1.659,0.5c-0.47,0-0.877-0.075-1.222-0.227
				c-0.345-0.152-0.635-0.364-0.869-0.636c-0.235-0.273-0.411-0.599-0.529-0.977c-0.118-0.379-0.184-0.791-0.199-1.239
				c0-0.447,0.068-0.856,0.205-1.227c0.136-0.372,0.327-0.694,0.574-0.966s0.538-0.485,0.875-0.636
				c0.337-0.152,0.706-0.227,1.109-0.227c0.522,0,0.956,0.108,1.301,0.324c0.345,0.216,0.622,0.49,0.83,0.824
				c0.208,0.333,0.352,0.697,0.431,1.091c0.08,0.394,0.112,0.769,0.097,1.125h-4.398c-0.008,0.257,0.023,0.502,0.091,0.732
				c0.068,0.232,0.178,0.436,0.33,0.614c0.151,0.178,0.345,0.32,0.579,0.426c0.235,0.107,0.512,0.16,0.83,0.16
				c0.409,0,0.745-0.095,1.006-0.284c0.261-0.19,0.434-0.477,0.518-0.864h0.955C139.487,165.507,139.203,166.003,138.763,166.337z
				 M138.531,162.563c-0.087-0.205-0.205-0.381-0.352-0.529c-0.148-0.148-0.322-0.265-0.523-0.352
				c-0.201-0.087-0.423-0.131-0.665-0.131c-0.251,0-0.476,0.044-0.677,0.131c-0.2,0.087-0.373,0.207-0.517,0.358
				c-0.143,0.152-0.257,0.328-0.34,0.529c-0.084,0.201-0.134,0.415-0.148,0.642h3.376
				C138.669,162.984,138.617,162.768,138.531,162.563z"/>
			<path fill="#333333" d="M141.446,165.4c0.091,0.148,0.21,0.265,0.358,0.352c0.148,0.087,0.314,0.149,0.5,0.188
				c0.185,0.038,0.376,0.057,0.574,0.057c0.151,0,0.311-0.012,0.477-0.034c0.166-0.023,0.32-0.065,0.46-0.126
				c0.14-0.06,0.255-0.149,0.347-0.267c0.091-0.117,0.136-0.267,0.136-0.449c0-0.25-0.094-0.439-0.284-0.568
				c-0.189-0.129-0.426-0.233-0.71-0.313c-0.283-0.079-0.592-0.151-0.926-0.216c-0.334-0.064-0.641-0.156-0.926-0.273
				s-0.521-0.282-0.71-0.494c-0.19-0.212-0.284-0.507-0.284-0.887c0-0.296,0.067-0.548,0.199-0.761
				c0.132-0.212,0.303-0.385,0.511-0.518c0.209-0.133,0.443-0.231,0.705-0.296c0.261-0.065,0.521-0.097,0.779-0.097
				c0.334,0,0.64,0.028,0.921,0.085c0.281,0.057,0.529,0.156,0.744,0.296c0.216,0.14,0.388,0.33,0.517,0.568
				c0.129,0.239,0.205,0.536,0.227,0.892h-0.966c-0.015-0.19-0.065-0.347-0.148-0.472c-0.083-0.125-0.19-0.225-0.318-0.301
				c-0.129-0.075-0.271-0.131-0.427-0.165c-0.156-0.034-0.313-0.05-0.472-0.05c-0.143,0-0.289,0.011-0.438,0.034
				c-0.147,0.023-0.282,0.063-0.403,0.119c-0.121,0.057-0.22,0.133-0.296,0.227c-0.075,0.094-0.114,0.218-0.114,0.369
				c0,0.166,0.059,0.305,0.176,0.415c0.117,0.109,0.267,0.201,0.449,0.273c0.182,0.072,0.386,0.133,0.614,0.182
				c0.227,0.05,0.455,0.101,0.682,0.154c0.242,0.053,0.479,0.117,0.71,0.193c0.231,0.075,0.435,0.176,0.613,0.301
				c0.178,0.125,0.322,0.282,0.432,0.472s0.165,0.425,0.165,0.705c0,0.357-0.074,0.652-0.222,0.887
				c-0.148,0.235-0.34,0.425-0.579,0.568c-0.239,0.144-0.508,0.244-0.808,0.301c-0.299,0.057-0.597,0.085-0.892,0.085
				c-0.326,0-0.636-0.034-0.932-0.102c-0.296-0.069-0.557-0.18-0.784-0.336c-0.227-0.155-0.409-0.359-0.546-0.613
				c-0.136-0.254-0.212-0.563-0.227-0.927h0.966C141.305,165.071,141.355,165.252,141.446,165.4z"/>
			<path fill="#333333" d="M147.129,165.4c0.091,0.148,0.21,0.265,0.358,0.352c0.148,0.087,0.314,0.149,0.5,0.188
				c0.185,0.038,0.376,0.057,0.574,0.057c0.151,0,0.311-0.012,0.477-0.034c0.166-0.023,0.32-0.065,0.46-0.126
				c0.14-0.06,0.255-0.149,0.347-0.267c0.091-0.117,0.136-0.267,0.136-0.449c0-0.25-0.094-0.439-0.284-0.568
				c-0.189-0.129-0.426-0.233-0.71-0.313c-0.283-0.079-0.592-0.151-0.926-0.216c-0.334-0.064-0.641-0.156-0.926-0.273
				s-0.521-0.282-0.71-0.494c-0.19-0.212-0.284-0.507-0.284-0.887c0-0.296,0.067-0.548,0.199-0.761
				c0.132-0.212,0.303-0.385,0.511-0.518c0.209-0.133,0.443-0.231,0.705-0.296c0.261-0.065,0.521-0.097,0.779-0.097
				c0.334,0,0.64,0.028,0.921,0.085c0.281,0.057,0.529,0.156,0.744,0.296c0.216,0.14,0.388,0.33,0.517,0.568
				c0.129,0.239,0.205,0.536,0.227,0.892h-0.966c-0.015-0.19-0.065-0.347-0.148-0.472c-0.083-0.125-0.19-0.225-0.318-0.301
				c-0.129-0.075-0.271-0.131-0.427-0.165c-0.156-0.034-0.313-0.05-0.472-0.05c-0.143,0-0.289,0.011-0.438,0.034
				c-0.147,0.023-0.282,0.063-0.403,0.119c-0.121,0.057-0.22,0.133-0.296,0.227c-0.075,0.094-0.114,0.218-0.114,0.369
				c0,0.166,0.059,0.305,0.176,0.415c0.117,0.109,0.267,0.201,0.449,0.273c0.182,0.072,0.386,0.133,0.614,0.182
				c0.227,0.05,0.455,0.101,0.682,0.154c0.242,0.053,0.479,0.117,0.71,0.193c0.231,0.075,0.435,0.176,0.613,0.301
				c0.178,0.125,0.322,0.282,0.432,0.472s0.165,0.425,0.165,0.705c0,0.357-0.074,0.652-0.222,0.887
				c-0.148,0.235-0.34,0.425-0.579,0.568c-0.239,0.144-0.508,0.244-0.808,0.301c-0.299,0.057-0.597,0.085-0.892,0.085
				c-0.326,0-0.636-0.034-0.932-0.102c-0.296-0.069-0.557-0.18-0.784-0.336c-0.227-0.155-0.409-0.359-0.546-0.613
				c-0.136-0.254-0.212-0.563-0.227-0.927h0.966C146.988,165.071,147.038,165.252,147.129,165.4z"/>
			<path fill="#333333" d="M152.13,159.779v-1.182h0.966v1.182H152.13z M153.096,160.836v5.876h-0.966v-5.876H153.096z"/>
			<path fill="#333333" d="M155.596,158.597v3.034h0.022c0.16-0.325,0.409-0.563,0.751-0.71c0.34-0.148,0.716-0.222,1.125-0.222
				c0.455,0,0.85,0.083,1.188,0.25c0.337,0.167,0.617,0.393,0.841,0.676c0.223,0.284,0.393,0.612,0.506,0.983
				c0.113,0.372,0.17,0.766,0.17,1.182c0,0.417-0.055,0.811-0.164,1.182c-0.11,0.372-0.277,0.695-0.5,0.972
				c-0.224,0.277-0.504,0.494-0.842,0.654c-0.337,0.16-0.729,0.239-1.176,0.239c-0.143,0-0.305-0.015-0.483-0.045
				c-0.178-0.031-0.354-0.08-0.529-0.148c-0.174-0.069-0.339-0.161-0.494-0.279c-0.156-0.117-0.286-0.263-0.393-0.437h-0.022v0.784
				h-0.966v-8.115H155.596z M159.068,162.921c-0.072-0.261-0.182-0.494-0.33-0.699c-0.148-0.205-0.337-0.367-0.569-0.489
				c-0.231-0.121-0.502-0.182-0.813-0.182c-0.325,0-0.602,0.065-0.83,0.193c-0.227,0.129-0.413,0.298-0.557,0.506
				c-0.143,0.209-0.249,0.445-0.312,0.71c-0.065,0.266-0.097,0.534-0.097,0.808c0,0.288,0.035,0.566,0.103,0.835
				c0.068,0.269,0.176,0.506,0.324,0.71s0.34,0.369,0.574,0.494c0.235,0.126,0.519,0.188,0.852,0.188
				c0.334,0,0.612-0.065,0.835-0.193c0.223-0.129,0.403-0.299,0.541-0.511c0.136-0.212,0.234-0.455,0.296-0.727
				c0.06-0.273,0.09-0.553,0.09-0.841C159.176,163.45,159.14,163.183,159.068,162.921z"/>
			<path fill="#333333" d="M162.358,158.597v8.115h-0.966v-8.115H162.358z"/>
			<path fill="#333333" d="M168.018,166.337c-0.44,0.334-0.992,0.5-1.659,0.5c-0.47,0-0.877-0.075-1.222-0.227
				c-0.345-0.152-0.636-0.364-0.87-0.636s-0.411-0.599-0.529-0.977c-0.117-0.379-0.184-0.791-0.198-1.239
				c0-0.447,0.068-0.856,0.204-1.227c0.136-0.371,0.328-0.694,0.575-0.966s0.538-0.485,0.875-0.636
				c0.337-0.152,0.706-0.227,1.108-0.227c0.522,0,0.957,0.108,1.301,0.324c0.345,0.216,0.621,0.49,0.83,0.824
				c0.208,0.333,0.352,0.697,0.432,1.091c0.079,0.394,0.111,0.769,0.097,1.125h-4.399c-0.008,0.257,0.023,0.502,0.091,0.732
				c0.069,0.232,0.178,0.436,0.33,0.614c0.152,0.178,0.345,0.32,0.58,0.426c0.234,0.107,0.511,0.16,0.83,0.16
				c0.409,0,0.744-0.095,1.006-0.284c0.261-0.189,0.433-0.477,0.518-0.864h0.955C168.742,165.507,168.457,166.003,168.018,166.337z
				 M167.785,162.563c-0.087-0.205-0.205-0.381-0.352-0.529c-0.148-0.148-0.322-0.265-0.522-0.352
				c-0.201-0.087-0.423-0.131-0.666-0.131c-0.251,0-0.475,0.044-0.676,0.131c-0.201,0.087-0.373,0.207-0.517,0.358
				c-0.144,0.152-0.258,0.328-0.341,0.529c-0.083,0.201-0.133,0.415-0.148,0.642h3.376
				C167.923,162.984,167.872,162.768,167.785,162.563z"/>
		</g>
		<rect x="91.636" y="88.078" fill="#412356" width="45.463" height="46.884"/>
		<rect x="137.099" y="88.078" fill="#311A41" width="45.463" height="46.884"/>
		<rect x="182.562" y="88.078" fill="#030103" width="46.173" height="46.884"/>
		<g>
			<path fill="#FFFFFF" d="M72.049,104.439l4.742,12.68h-2.895l-0.96-2.824h-4.742l-0.994,2.824h-2.806l4.795-12.68H72.049z
				 M72.209,112.217l-1.598-4.653h-0.036l-1.652,4.653H72.209z"/>
		</g>
		<g>
			<path fill="#FFFFFF" d="M118.222,104.439l4.742,12.68h-2.895l-0.96-2.824h-4.742l-0.994,2.824h-2.806l4.795-12.68H118.222z
				 M118.382,112.217l-1.598-4.653h-0.036l-1.652,4.653H118.382z"/>
		</g>
		<g>
			<path fill="#FFFFFF" d="M164.396,104.439l4.742,12.68h-2.895l-0.96-2.824h-4.742l-0.994,2.824h-2.806l4.795-12.68H164.396z
				 M164.555,112.217l-1.598-4.653h-0.036l-1.652,4.653H164.555z"/>
		</g>
		<g>
			<path fill="#FFFFFF" d="M208.438,104.439l4.742,12.68h-2.895l-0.96-2.824h-4.742l-0.994,2.824h-2.806l4.795-12.68H208.438z
				 M208.598,112.217l-1.598-4.653h-0.036l-1.652,4.653H208.598z"/>
		</g>
	</g>
</g>
<g id="Layer_3" display="none">
</g>
<g id="Layer_2" display="none">
</g>
</svg>
