<?xml version="1.0" encoding="utf-8"?>
<!-- Generator: Adobe Illustrator 18.0.0, SVG Export Plug-In . SVG Version: 6.00 Build 0)  -->
<!DOCTYPE svg PUBLIC "-//W3C//DTD SVG 1.1//EN" "http://www.w3.org/Graphics/SVG/1.1/DTD/svg11.dtd">
<svg version="1.1" id="Layer_1" xmlns="http://www.w3.org/2000/svg" xmlns:xlink="http://www.w3.org/1999/xlink" x="0px" y="0px"
	 viewBox="0 0 650 286" width="650" height="286"  enable-background="new 0 0 650 286" xml:space="preserve">
<g>
	<rect fill="#F0F2F4" width="650" height="286"/>
</g>
<g>
	<g>
		<path fill="#323232" d="M50.6,29.8l-5-8.3H49l3.2,5.4l3.2-5.4h3.3l-5,8.4v5.2h-3V29.8z"/>
	</g>
	<g>
		<path fill="#323232" d="M61.3,25c3.1,0,5.1,2.1,5.1,5.2c0,3.1-2,5.2-5.1,5.2c-3.1,0-5.1-2.1-5.1-5.2C56.2,27.1,58.2,25,61.3,25z
			 M61.3,33.4c1.8,0,2.4-1.6,2.4-3.1c0-1.6-0.6-3.2-2.4-3.2c-1.8,0-2.4,1.6-2.4,3.2C58.9,31.8,59.5,33.4,61.3,33.4z"/>
	</g>
	<g>
		<path fill="#323232" d="M77,35.1h-2.6v-1.4h-0.1c-0.7,1.1-1.9,1.6-3,1.6c-2.9,0-3.6-1.6-3.6-4v-6h2.7v5.5c0,1.6,0.5,2.4,1.7,2.4
			c1.5,0,2.1-0.8,2.1-2.8v-5.1H77V35.1z"/>
	</g>
	<g>
		<path fill="#323232" d="M78.8,25.3h2.6v1.8h0c0.5-1.2,1.8-2.1,3.1-2.1c0.2,0,0.4,0,0.6,0.1v2.5c-0.2-0.1-0.6-0.1-1-0.1
			c-2,0-2.7,1.4-2.7,3.2v4.4h-2.7V25.3z"/>
	</g>
	<g>
		<path fill="#323232" d="M90.6,21.6h3v5.2h5.5v-5.2h3v13.6h-3v-5.9h-5.5v5.9h-3V21.6z"/>
	</g>
	<g>
		<path fill="#323232" d="M106.3,30.9c0.1,1.7,0.9,2.5,2.4,2.5c1.1,0,2-0.7,2.1-1.3h2.4c-0.8,2.3-2.4,3.3-4.6,3.3
			c-3.1,0-5-2.1-5-5.2c0-2.9,2-5.2,5-5.2c3.3,0,5,2.8,4.8,5.8H106.3z M110.7,29.2c-0.2-1.4-0.8-2.1-2.1-2.1c-1.7,0-2.2,1.3-2.2,2.1
			H110.7z"/>
	</g>
	<g>
		<path fill="#323232" d="M114.7,28.3c0.2-2.5,2.4-3.3,4.6-3.3c2,0,4.3,0.4,4.3,2.8v5.1c0,0.9,0.1,1.8,0.3,2.2h-2.7
			c-0.1-0.3-0.2-0.6-0.2-0.9c-0.9,0.9-2.1,1.2-3.3,1.2c-1.9,0-3.3-0.9-3.3-2.9c0-4.5,6.6-2.1,6.5-4.3c0-1.1-0.8-1.3-1.7-1.3
			c-1,0-1.7,0.4-1.8,1.5H114.7z M121,30.3c-0.5,0.4-1.4,0.4-2.2,0.6c-0.8,0.2-1.6,0.5-1.6,1.4c0,1,0.8,1.3,1.7,1.3
			c2.1,0,2.2-1.7,2.2-2.3V30.3z"/>
	</g>
	<g>
		<path fill="#323232" d="M125.7,21.6h2.7v13.6h-2.7V21.6z"/>
	</g>
	<g>
		<path fill="#323232" d="M133.6,25.3h2v1.8h-2V32c0,0.9,0.2,1.1,1.1,1.1c0.3,0,0.6,0,0.8-0.1v2.1c-0.5,0.1-1,0.1-1.6,0.1
			c-1.7,0-3.1-0.4-3.1-2.3v-5.8h-1.6v-1.8h1.6v-2.9h2.7V25.3z"/>
	</g>
	<g>
		<path fill="#323232" d="M137,21.6h2.7v5.1h0.1c0.7-1.1,1.9-1.6,2.9-1.6c2.9,0,3.6,1.6,3.6,4v6h-2.7v-5.5c0-1.6-0.5-2.4-1.7-2.4
			c-1.5,0-2.1,0.8-2.1,2.8v5.1H137V21.6z"/>
	</g>
	<g>
		<path fill="#323232" d="M152.8,21.6h3v13.6h-3V21.6z"/>
	</g>
	<g>
		<path fill="#323232" d="M161.2,25.3h2v1.8h-2V32c0,0.9,0.2,1.1,1.1,1.1c0.3,0,0.6,0,0.8-0.1v2.1c-0.5,0.1-1,0.1-1.6,0.1
			c-1.7,0-3.1-0.4-3.1-2.3v-5.8h-1.6v-1.8h1.6v-2.9h2.7V25.3z"/>
	</g>
	<g>
		<path fill="#323232" d="M167.3,23.8h-2.7v-2.2h2.7V23.8z M164.6,25.3h2.7v9.8h-2.7V25.3z"/>
	</g>
	<g>
		<path fill="#323232" d="M169.1,25.3h2.6v1.4h0.1c0.7-1.1,1.9-1.6,3-1.6c2.9,0,3.6,1.6,3.6,4v6h-2.7v-5.5c0-1.6-0.5-2.4-1.7-2.4
			c-1.5,0-2.1,0.8-2.1,2.8v5.1h-2.7V25.3z"/>
	</g>
	<g>
		<path fill="#323232" d="M182.3,30.9c0.1,1.7,0.9,2.5,2.4,2.5c1.1,0,2-0.7,2.1-1.3h2.4c-0.8,2.3-2.4,3.3-4.6,3.3
			c-3.1,0-5-2.1-5-5.2c0-2.9,2-5.2,5-5.2c3.3,0,5,2.8,4.8,5.8H182.3z M186.7,29.2c-0.2-1.4-0.8-2.1-2.1-2.1c-1.7,0-2.2,1.3-2.2,2.1
			H186.7z"/>
	</g>
	<g>
		<path fill="#323232" d="M190.8,25.3h2.6v1.8h0c0.5-1.2,1.8-2.1,3.1-2.1c0.2,0,0.4,0,0.6,0.1v2.5c-0.2-0.1-0.6-0.1-1-0.1
			c-2,0-2.7,1.4-2.7,3.2v4.4h-2.7V25.3z"/>
	</g>
	<g>
		<path fill="#323232" d="M197.8,28.3c0.2-2.5,2.4-3.3,4.6-3.3c2,0,4.3,0.4,4.3,2.8v5.1c0,0.9,0.1,1.8,0.3,2.2h-2.7
			c-0.1-0.3-0.2-0.6-0.2-0.9c-0.9,0.9-2.1,1.2-3.3,1.2c-1.9,0-3.3-0.9-3.3-2.9c0-4.5,6.6-2.1,6.5-4.3c0-1.1-0.8-1.3-1.7-1.3
			c-1,0-1.7,0.4-1.8,1.5H197.8z M204,30.3c-0.5,0.4-1.4,0.4-2.2,0.6c-0.8,0.2-1.6,0.5-1.6,1.4c0,1,0.8,1.3,1.7,1.3
			c2.1,0,2.2-1.7,2.2-2.3V30.3z"/>
	</g>
	<g>
		<path fill="#323232" d="M208.7,25.3h2.6v1.8h0c0.5-1.2,1.8-2.1,3.1-2.1c0.2,0,0.4,0,0.6,0.1v2.5c-0.2-0.1-0.6-0.1-1-0.1
			c-2,0-2.7,1.4-2.7,3.2v4.4h-2.7V25.3z"/>
	</g>
	<g>
		<path fill="#323232" d="M221.9,36.4c-0.6,1.6-1.5,2.2-3.4,2.2c-0.6,0-1.1,0-1.7-0.1v-2.2c0.5,0.1,1,0.1,1.6,0.1
			c0.7-0.1,1-0.6,1-1.2c0-0.2,0-0.4-0.1-0.6l-3.5-9.2h2.9L221,32h0l2.1-6.7h2.8L221.9,36.4z"/>
	</g>
</g>
<g>
	<rect x="46" y="70.1" fill="#FCFCFC" width="213" height="45"/>
</g>
<g>
	<rect x="46" y="117.6" fill="#FCFCFC" width="213" height="45"/>
</g>
<g>
	<rect x="46" y="165.1" fill="#FCFCFC" width="213" height="45"/>
</g>
<g>
	<rect x="46" y="241" fill="#FCFCFC" width="213" height="45"/>
</g>
<g>
	<rect x="46" y="70" fill="#8BD111" width="149" height="45"/>
</g>
<g>
	<rect x="46" y="118" fill="#8BD111" width="3" height="45"/>
</g>
<g>
	<rect x="46" y="165" fill="#8BD111" width="3" height="45"/>
</g>
<g>
	<rect x="46" y="241" fill="#FF7832" width="3" height="45"/>
</g>
<g>
	<g>
		<path fill="#323232" d="M51.2,55.9c-0.1-0.8-0.9-1.4-1.7-1.4c-1.6,0-2.1,1.3-2.1,2.7c0,1.3,0.6,2.6,2.1,2.6c1.1,0,1.7-0.7,1.8-1.8
			H53c-0.2,2-1.5,3.2-3.5,3.2c-2.4,0-3.9-1.8-3.9-4.1c0-2.3,1.4-4.1,3.9-4.1c1.7,0,3.2,1,3.4,2.8H51.2z"/>
	</g>
	<g>
		<path fill="#323232" d="M53.7,53.3h1.6v3h0c0.4-0.7,1.1-0.9,1.7-0.9c1.7,0,2.1,0.9,2.1,2.3v3.5h-1.6v-3.2c0-0.9-0.3-1.4-1-1.4
			c-0.8,0-1.2,0.5-1.2,1.6v3h-1.6V53.3z"/>
	</g>
	<g>
		<path fill="#323232" d="M61.3,58.7c0,1,0.5,1.4,1.4,1.4c0.6,0,1.1-0.4,1.2-0.7h1.4c-0.4,1.4-1.4,1.9-2.7,1.9c-1.8,0-2.9-1.2-2.9-3
			c0-1.7,1.2-3,2.9-3c1.9,0,2.9,1.6,2.8,3.4H61.3z M63.9,57.7c-0.1-0.8-0.5-1.2-1.2-1.2c-1,0-1.3,0.8-1.3,1.2H63.9z"/>
	</g>
	<g>
		<path fill="#323232" d="M72.6,61.1H71l-1-3.8h0l-1,3.8h-1.6l-1.8-5.7h1.6l1,3.9h0l0.9-3.9h1.5l1,3.9h0l1-3.9h1.6L72.6,61.1z"/>
	</g>
	<g>
		<path fill="#323232" d="M76,59.3c0,0.7,0.6,1,1.2,1c0.4,0,1-0.2,1-0.7c0-0.5-0.7-0.6-1.8-0.9c-0.9-0.2-1.8-0.5-1.8-1.5
			c0-1.5,1.3-1.8,2.5-1.8c1.2,0,2.4,0.4,2.5,1.8h-1.5c0-0.6-0.5-0.8-1.1-0.8c-0.4,0-0.9,0.1-0.9,0.5c0,0.6,0.9,0.6,1.8,0.8
			c0.9,0.2,1.8,0.5,1.8,1.6c0,1.5-1.3,2-2.6,2c-1.3,0-2.6-0.5-2.7-2H76z"/>
	</g>
	<g>
		<path fill="#323232" d="M89.7,61.1h-1.6l-1-3.8h0l-1,3.8h-1.6l-1.8-5.7h1.6l1,3.9h0l0.9-3.9h1.5l1,3.9h0l1-3.9h1.6L89.7,61.1z"/>
	</g>
	<g>
		<path fill="#323232" d="M93.6,54.5H92v-1.3h1.6V54.5z M92,55.4h1.6v5.7H92V55.4z"/>
	</g>
	<g>
		<path fill="#323232" d="M95.9,59.3c0,0.7,0.6,1,1.2,1c0.4,0,1-0.2,1-0.7c0-0.5-0.7-0.6-1.8-0.9c-0.9-0.2-1.8-0.5-1.8-1.5
			c0-1.5,1.3-1.8,2.5-1.8c1.2,0,2.4,0.4,2.5,1.8H98c0-0.6-0.5-0.8-1.1-0.8c-0.4,0-0.9,0.1-0.9,0.5c0,0.6,0.9,0.6,1.8,0.8
			c0.9,0.2,1.8,0.5,1.8,1.6c0,1.5-1.3,2-2.6,2c-1.3,0-2.6-0.5-2.7-2H95.9z"/>
	</g>
	<g>
		<path fill="#323232" d="M101.7,58.7c0,1,0.5,1.4,1.4,1.4c0.6,0,1.1-0.4,1.2-0.7h1.4c-0.4,1.4-1.4,1.9-2.7,1.9
			c-1.8,0-2.9-1.2-2.9-3c0-1.7,1.2-3,2.9-3c1.9,0,2.9,1.6,2.8,3.4H101.7z M104.2,57.7c-0.1-0.8-0.5-1.2-1.2-1.2
			c-1,0-1.3,0.8-1.3,1.2H104.2z"/>
	</g>
	<g>
		<path fill="#323232" d="M106.6,53.3h1.6v7.9h-1.6V53.3z"/>
	</g>
	<g>
		<path fill="#323232" d="M112.2,61.8c-0.3,0.9-0.9,1.3-2,1.3c-0.3,0-0.6,0-1-0.1v-1.3c0.3,0,0.6,0.1,0.9,0.1c0.4,0,0.6-0.4,0.6-0.7
			c0-0.1,0-0.2-0.1-0.4l-2-5.3h1.7l1.3,3.9h0l1.2-3.9h1.6L112.2,61.8z"/>
	</g>
</g>
<g>
	<g>
		<path fill="#323232" d="M63.8,130.6h1v7.9h-1V130.6z"/>
	</g>
	<g>
		<path fill="#323232" d="M66.2,132.8h0.9v0.9h0c0.4-0.7,1-1,1.8-1c1.5,0,2,0.9,2,2.1v3.7H70v-3.9c0-0.7-0.4-1.1-1.2-1.1
			c-1.1,0-1.7,0.8-1.7,1.8v3.2h-0.9V132.8z"/>
	</g>
	<g>
		<path fill="#323232" d="M73.3,132.8h1.1v0.8h-1.1v3.5c0,0.4,0.1,0.5,0.7,0.5h0.4v0.8h-0.7c-1,0-1.4-0.2-1.4-1.2v-3.6h-1v-0.8h1
			v-1.7h0.9V132.8z"/>
	</g>
	<g>
		<path fill="#323232" d="M75.3,132.8h0.9v1.2h0c0.5-0.9,1.1-1.4,2.1-1.3v1c-1.5,0-2.1,0.8-2.1,2.3v2.5h-0.9V132.8z"/>
	</g>
	<g>
		<path fill="#323232" d="M81.2,132.6c1.8,0,2.8,1.3,2.8,3c0,1.7-1,3-2.8,3c-1.8,0-2.8-1.3-2.8-3C78.5,133.9,79.4,132.6,81.2,132.6z
			 M81.2,137.8c1,0,1.8-0.8,1.8-2.1s-0.8-2.2-1.8-2.2s-1.8,0.8-1.8,2.2S80.2,137.8,81.2,137.8z"/>
	</g>
	<g>
		<path fill="#323232" d="M90.1,138.5h-0.9v-0.8h0c-0.3,0.6-1,0.9-1.8,0.9c-1.7,0-2.6-1.4-2.6-3s0.9-3,2.6-3c0.6,0,1.4,0.2,1.8,0.9
			h0v-2.9h0.9V138.5z M87.5,137.8c1.3,0,1.7-1.1,1.7-2.1c0-1.1-0.5-2.2-1.8-2.2c-1.3,0-1.7,1.1-1.7,2.2
			C85.7,136.7,86.3,137.8,87.5,137.8z"/>
	</g>
	<g>
		<path fill="#323232" d="M96,138.5h-0.9v-0.9h0c-0.4,0.7-1,1-1.8,1c-1.5,0-2-0.9-2-2.1v-3.7h0.9v3.8c0,0.7,0.4,1.1,1.2,1.1
			c1.1,0,1.7-0.8,1.7-1.8v-3.2H96V138.5z"/>
	</g>
	<g>
		<path fill="#323232" d="M101.1,134.6c-0.1-0.7-0.6-1.1-1.4-1.1c-1.4,0-1.8,1.1-1.8,2.2c0,1.1,0.5,2.1,1.7,2.1
			c0.9,0,1.4-0.5,1.6-1.4h1c-0.2,1.4-1.1,2.2-2.5,2.2c-1.7,0-2.7-1.2-2.7-2.9s0.9-3,2.7-3c1.3,0,2.3,0.6,2.5,2H101.1z"/>
	</g>
	<g>
		<path fill="#323232" d="M107.9,136.6c-0.3,1.3-1.1,1.9-2.4,1.9c-1.8,0-2.7-1.3-2.7-3c0-1.7,1.1-3,2.7-3c2,0,2.6,1.9,2.6,3.3h-4.3
			c0,1,0.5,1.9,1.8,1.9c0.8,0,1.3-0.4,1.5-1.1H107.9z M107,135.1c-0.1-0.9-0.7-1.6-1.6-1.6c-1,0-1.6,0.7-1.6,1.6H107z"/>
	</g>
	<g>
		<path fill="#323232" d="M117.2,138.5h-1l-1.2-4.5h0l-1.1,4.5h-1l-1.8-5.7h1l1.3,4.7h0l1.1-4.7h1l1.2,4.7h0l1.3-4.7h1L117.2,138.5z
			"/>
	</g>
	<g>
		<path fill="#323232" d="M119.6,130.6h0.9v3h0c0.3-0.7,1.1-1,1.8-1c1.5,0,2,0.9,2,2.1v3.7h-0.9v-3.9c0-0.7-0.4-1.1-1.2-1.1
			c-1.1,0-1.7,0.8-1.7,1.8v3.2h-0.9V130.6z"/>
	</g>
	<g>
		<path fill="#323232" d="M128,132.6c1.8,0,2.8,1.3,2.8,3c0,1.7-1,3-2.8,3c-1.8,0-2.8-1.3-2.8-3C125.2,133.9,126.2,132.6,128,132.6z
			 M128,137.8c1,0,1.8-0.8,1.8-2.1s-0.8-2.2-1.8-2.2s-1.8,0.8-1.8,2.2S127,137.8,128,137.8z"/>
	</g>
	<g>
		<path fill="#323232" d="M131.7,130.6h0.9v7.9h-0.9V130.6z"/>
	</g>
	<g>
		<path fill="#323232" d="M138.7,136.6c-0.3,1.3-1.1,1.9-2.4,1.9c-1.8,0-2.7-1.3-2.7-3c0-1.7,1.1-3,2.7-3c2,0,2.6,1.9,2.6,3.3h-4.3
			c0,1,0.5,1.9,1.8,1.9c0.8,0,1.3-0.4,1.5-1.1H138.7z M137.8,135.1c-0.1-0.9-0.7-1.6-1.6-1.6c-1,0-1.6,0.7-1.6,1.6H137.8z"/>
	</g>
	<g>
		<path fill="#323232" d="M147.3,138c0,1.9-0.8,2.8-2.6,2.8c-1.1,0-2.3-0.4-2.4-1.7h0.9c0,0.7,0.9,0.9,1.5,0.9
			c1.2,0,1.7-0.9,1.7-2.2v-0.4h0c-0.3,0.7-1,1-1.8,1c-1.7,0-2.5-1.3-2.5-2.9c0-1.3,0.6-3,2.6-3c0.7,0,1.4,0.3,1.7,0.9h0v-0.8h0.9
			V138z M146.4,135.5c0-1-0.4-2-1.6-2c-1.2,0-1.7,1-1.7,2.1c0,1,0.4,2.2,1.6,2.2C146,137.7,146.4,136.6,146.4,135.5z"/>
	</g>
	<g>
		<path fill="#323232" d="M148.5,132.8h0.9v1.2h0c0.5-0.9,1.1-1.4,2.1-1.3v1c-1.5,0-2.1,0.8-2.1,2.3v2.5h-0.9V132.8z"/>
	</g>
	<g>
		<path fill="#323232" d="M157.1,138.4c-0.2,0.1-0.4,0.2-0.7,0.2c-0.5,0-0.8-0.3-0.8-0.9c-0.5,0.6-1.2,0.9-2,0.9
			c-1,0-1.9-0.5-1.9-1.6c0-1.3,1-1.6,1.9-1.8c1-0.2,1.9-0.1,1.9-0.8c0-0.8-0.7-0.9-1.3-0.9c-0.8,0-1.4,0.2-1.4,1.1h-0.9
			c0.1-1.4,1.1-1.9,2.4-1.9c1,0,2.1,0.2,2.1,1.6v2.9c0,0.4,0,0.6,0.3,0.6c0.1,0,0.2,0,0.3-0.1V138.4z M155.6,135.5
			c-0.7,0.5-2.8,0-2.8,1.4c0,0.6,0.5,0.8,1.1,0.8c1.2,0,1.7-0.8,1.7-1.3V135.5z"/>
	</g>
	<g>
		<path fill="#323232" d="M158.8,131.7h-0.9v-1.1h0.9V131.7z M157.9,132.8h0.9v5.7h-0.9V132.8z"/>
	</g>
	<g>
		<path fill="#323232" d="M160,132.8h0.9v0.9h0c0.4-0.7,1-1,1.8-1c1.5,0,2,0.9,2,2.1v3.7h-0.9v-3.9c0-0.7-0.4-1.1-1.2-1.1
			c-1.1,0-1.7,0.8-1.7,1.8v3.2H160V132.8z"/>
	</g>
	<g>
		<path fill="#323232" d="M166.5,136.7c0,0.8,0.8,1.1,1.5,1.1c0.6,0,1.4-0.1,1.4-0.8c0-1.5-3.7-0.5-3.7-2.7c0-1.1,1.1-1.6,2.1-1.6
			c1.3,0,2.2,0.4,2.3,1.8h-0.9c-0.1-0.7-0.7-1-1.3-1c-0.6,0-1.2,0.2-1.2,0.7c0,0.7,1,0.8,1.9,1c0.9,0.2,1.9,0.5,1.9,1.6
			c0,1.4-1.3,1.8-2.4,1.8c-1.3,0-2.4-0.5-2.4-1.9H166.5z"/>
	</g>
	<g>
		<path fill="#323232" d="M175.2,132.8h1.1v0.8h-1.1v3.5c0,0.4,0.1,0.5,0.7,0.5h0.4v0.8h-0.7c-1,0-1.4-0.2-1.4-1.2v-3.6h-1v-0.8h1
			v-1.7h0.9V132.8z"/>
	</g>
	<g>
		<path fill="#323232" d="M179.5,132.6c1.8,0,2.8,1.3,2.8,3c0,1.7-1,3-2.8,3c-1.8,0-2.8-1.3-2.8-3
			C176.7,133.9,177.7,132.6,179.5,132.6z M179.5,137.8c1,0,1.8-0.8,1.8-2.1s-0.8-2.2-1.8-2.2s-1.8,0.8-1.8,2.2
			S178.5,137.8,179.5,137.8z"/>
	</g>
	<g>
		<path fill="#323232" d="M190.9,138.5H190v-0.8h0c-0.3,0.6-1,0.9-1.8,0.9c-1.7,0-2.6-1.4-2.6-3s0.9-3,2.6-3c0.6,0,1.4,0.2,1.8,0.9
			h0v-2.9h0.9V138.5z M188.3,137.8c1.3,0,1.7-1.1,1.7-2.1c0-1.1-0.5-2.2-1.8-2.2c-1.3,0-1.7,1.1-1.7,2.2
			C186.5,136.7,187.1,137.8,188.3,137.8z"/>
	</g>
	<g>
		<path fill="#323232" d="M193,131.7h-0.9v-1.1h0.9V131.7z M192.1,132.8h0.9v5.7h-0.9V132.8z"/>
	</g>
	<g>
		<path fill="#323232" d="M199.1,136.6c-0.3,1.3-1.1,1.9-2.4,1.9c-1.8,0-2.7-1.3-2.7-3c0-1.7,1.1-3,2.7-3c2,0,2.6,1.9,2.6,3.3H195
			c0,1,0.5,1.9,1.8,1.9c0.8,0,1.3-0.4,1.5-1.1H199.1z M198.2,135.1c-0.1-0.9-0.7-1.6-1.6-1.6c-1,0-1.6,0.7-1.6,1.6H198.2z"/>
	</g>
	<g>
		<path fill="#323232" d="M201.4,132.8h1.1v0.8h-1.1v3.5c0,0.4,0.1,0.5,0.7,0.5h0.4v0.8h-0.7c-1,0-1.4-0.2-1.4-1.2v-3.6h-1v-0.8h1
			v-1.7h0.9V132.8z"/>
	</g>
</g>
<g opacity="0.5">
	<g>
		<path fill="#5A6464" d="M64.8,153.6c-0.9-1.3-1.4-2.6-1.4-4.2c0-1.4,0.5-2.9,1.4-4.2h0.6c-0.9,1.4-1.2,2.7-1.2,4.2
			c0,1.5,0.3,2.8,1.2,4.2H64.8z"/>
	</g>
	<g>
		<path fill="#5A6464" d="M66,145.4h2.3c0.6,0,1.3,0,1.7,0.2c0.4,0.3,0.8,0.7,0.8,1.3c0,0.7-0.4,1.2-1,1.4v0
			c0.8,0.2,1.2,0.8,1.2,1.5c0,0.9-0.7,1.8-2,1.8H66V145.4z M66.8,148.1h1.7c1,0,1.4-0.3,1.4-1c0-0.9-0.6-1-1.4-1h-1.7V148.1z
			 M66.8,151.1H69c0.7,0,1.2-0.4,1.2-1.2c0-0.8-0.7-1.1-1.4-1.1h-2V151.1z"/>
	</g>
	<g>
		<path fill="#5A6464" d="M76,151.8c-0.1,0.1-0.3,0.1-0.5,0.1c-0.4,0-0.6-0.2-0.6-0.7c-0.4,0.5-1,0.7-1.6,0.7
			c-0.8,0-1.5-0.4-1.5-1.3c0-1.1,0.8-1.3,1.6-1.4c0.8-0.2,1.6-0.1,1.6-0.7c0-0.7-0.6-0.8-1-0.8c-0.6,0-1.1,0.2-1.2,0.9h-0.8
			c0-1.2,0.9-1.6,2-1.6c0.8,0,1.7,0.2,1.7,1.3v2.4c0,0.4,0,0.5,0.2,0.5c0.1,0,0.2,0,0.2,0V151.8z M74.8,149.4
			c-0.6,0.4-2.3,0-2.3,1.2c0,0.5,0.4,0.7,0.9,0.7c1,0,1.4-0.6,1.4-1.1V149.4z"/>
	</g>
	<g>
		<path fill="#5A6464" d="M77.2,150.3c0,0.7,0.6,0.9,1.3,0.9c0.5,0,1.1-0.1,1.1-0.7c0-1.2-3-0.4-3-2.2c0-0.9,0.9-1.3,1.7-1.3
			c1,0,1.8,0.3,1.9,1.5h-0.8c0-0.6-0.6-0.8-1.1-0.8c-0.5,0-1,0.1-1,0.6c0,0.5,0.8,0.6,1.5,0.8c0.8,0.2,1.5,0.4,1.5,1.3
			c0,1.1-1,1.5-2,1.5c-1,0-1.9-0.4-2-1.6H77.2z"/>
	</g>
	<g>
		<path fill="#5A6464" d="M85.1,150.3c-0.2,1-0.9,1.6-2,1.6c-1.5,0-2.2-1-2.2-2.4c0-1.4,0.9-2.4,2.2-2.4c1.6,0,2.2,1.5,2.1,2.7h-3.5
			c0,0.8,0.4,1.5,1.4,1.5c0.6,0,1.1-0.3,1.2-0.9H85.1z M84.4,149c0-0.7-0.6-1.3-1.3-1.3c-0.8,0-1.3,0.6-1.3,1.3H84.4z"/>
	</g>
	<g>
		<path fill="#5A6464" d="M90.2,151.8h-0.8v-0.6h0c-0.3,0.5-0.8,0.7-1.5,0.7c-1.4,0-2.1-1.1-2.1-2.4s0.7-2.4,2.1-2.4
			c0.5,0,1.2,0.2,1.5,0.7h0v-2.4h0.8V151.8z M88,151.2c1,0,1.4-0.9,1.4-1.8c0-0.9-0.4-1.8-1.5-1.8c-1,0-1.4,0.9-1.4,1.8
			C86.6,150.4,87,151.2,88,151.2z"/>
	</g>
	<g>
		<path fill="#5A6464" d="M95.4,147c1.5,0,2.3,1.1,2.3,2.4c0,1.4-0.8,2.4-2.3,2.4s-2.3-1.1-2.3-2.4C93.1,148.1,93.9,147,95.4,147z
			 M95.4,151.2c0.8,0,1.4-0.6,1.4-1.8c0-1.1-0.6-1.8-1.4-1.8c-0.8,0-1.5,0.6-1.5,1.8C93.9,150.6,94.6,151.2,95.4,151.2z"/>
	</g>
	<g>
		<path fill="#5A6464" d="M98.4,147.1h0.7v0.7h0c0.3-0.6,0.8-0.8,1.5-0.8c1.2,0,1.6,0.7,1.6,1.7v3.1h-0.8v-3.2
			c0-0.6-0.4-0.9-0.9-0.9c-0.9,0-1.4,0.6-1.4,1.5v2.6h-0.8V147.1z"/>
	</g>
	<g>
		<path fill="#5A6464" d="M105.3,147.1h0.8v0.6h0c0.3-0.5,0.8-0.7,1.5-0.7c1.4,0,2.1,1.1,2.1,2.4c0,1.3-0.7,2.4-2.1,2.4
			c-0.5,0-1.2-0.2-1.5-0.7h0v2.4h-0.8V147.1z M107.5,147.7c-1,0-1.4,0.9-1.4,1.8c0,0.9,0.4,1.8,1.5,1.8c1,0,1.4-0.9,1.4-1.8
			C108.9,148.5,108.5,147.7,107.5,147.7z"/>
	</g>
	<g>
		<path fill="#5A6464" d="M110.5,147.1h0.7v1h0c0.4-0.8,0.9-1.1,1.7-1.1v0.8c-1.2,0-1.7,0.7-1.7,1.9v2.1h-0.8V147.1z"/>
	</g>
	<g>
		<path fill="#5A6464" d="M117.3,150.3c-0.2,1-0.9,1.6-2,1.6c-1.5,0-2.2-1-2.2-2.4c0-1.4,0.9-2.4,2.2-2.4c1.6,0,2.2,1.5,2.1,2.7
			h-3.5c0,0.8,0.4,1.5,1.4,1.5c0.6,0,1.1-0.3,1.2-0.9H117.3z M116.5,149c0-0.7-0.6-1.3-1.3-1.3c-0.8,0-1.3,0.6-1.3,1.3H116.5z"/>
	</g>
	<g>
		<path fill="#5A6464" d="M122.4,151.8h-0.8v-0.6h0c-0.3,0.5-0.8,0.7-1.5,0.7c-1.4,0-2.1-1.1-2.1-2.4s0.7-2.4,2.1-2.4
			c0.5,0,1.2,0.2,1.5,0.7h0v-2.4h0.8V151.8z M120.2,151.2c1,0,1.4-0.9,1.4-1.8c0-0.9-0.4-1.8-1.5-1.8c-1,0-1.4,0.9-1.4,1.8
			C118.8,150.4,119.2,151.2,120.2,151.2z"/>
	</g>
	<g>
		<path fill="#5A6464" d="M124.1,146.3h-0.8v-0.9h0.8V146.3z M123.4,147.1h0.8v4.7h-0.8V147.1z"/>
	</g>
	<g>
		<path fill="#5A6464" d="M129.2,151.8c-0.1,0.1-0.3,0.1-0.5,0.1c-0.4,0-0.6-0.2-0.6-0.7c-0.4,0.5-1,0.7-1.6,0.7
			c-0.8,0-1.5-0.4-1.5-1.3c0-1.1,0.8-1.3,1.6-1.4c0.8-0.2,1.6-0.1,1.6-0.7c0-0.7-0.6-0.8-1-0.8c-0.6,0-1.1,0.2-1.2,0.9h-0.8
			c0-1.2,0.9-1.6,2-1.6c0.8,0,1.7,0.2,1.7,1.3v2.4c0,0.4,0,0.5,0.2,0.5c0.1,0,0.2,0,0.2,0V151.8z M128,149.4c-0.6,0.4-2.3,0-2.3,1.2
			c0,0.5,0.4,0.7,0.9,0.7c1,0,1.4-0.6,1.4-1.1V149.4z"/>
	</g>
	<g>
		<path fill="#5A6464" d="M130,145.4h0.8v2.4h0c0.3-0.5,0.8-0.7,1.5-0.7c1.4,0,2.1,1.1,2.1,2.4c0,1.3-0.7,2.4-2.1,2.4
			c-0.5,0-1.2-0.2-1.5-0.7h0v0.6H130V145.4z M132.1,147.7c-1,0-1.4,0.9-1.4,1.8c0,0.9,0.4,1.8,1.5,1.8c1,0,1.4-0.9,1.4-1.8
			C133.6,148.5,133.1,147.7,132.1,147.7z"/>
	</g>
	<g>
		<path fill="#5A6464" d="M139.2,150.3c-0.2,1-0.9,1.6-2,1.6c-1.5,0-2.2-1-2.2-2.4c0-1.4,0.9-2.4,2.2-2.4c1.6,0,2.2,1.5,2.1,2.7
			h-3.5c0,0.8,0.4,1.5,1.4,1.5c0.6,0,1.1-0.3,1.2-0.9H139.2z M138.4,149c0-0.7-0.6-1.3-1.3-1.3c-0.8,0-1.3,0.6-1.3,1.3H138.4z"/>
	</g>
	<g>
		<path fill="#5A6464" d="M141,147.1h0.9v0.7H141v2.9c0,0.4,0.1,0.4,0.6,0.4h0.4v0.7h-0.6c-0.8,0-1.1-0.2-1.1-1v-3h-0.8v-0.7h0.8
			v-1.4h0.8V147.1z"/>
	</g>
	<g>
		<path fill="#5A6464" d="M146.4,150.3c-0.2,1-0.9,1.6-2,1.6c-1.5,0-2.2-1-2.2-2.4c0-1.4,0.9-2.4,2.2-2.4c1.6,0,2.2,1.5,2.1,2.7H143
			c0,0.8,0.4,1.5,1.4,1.5c0.6,0,1.1-0.3,1.2-0.9H146.4z M145.7,149c0-0.7-0.6-1.3-1.3-1.3c-0.8,0-1.3,0.6-1.3,1.3H145.7z"/>
	</g>
	<g>
		<path fill="#5A6464" d="M147.8,150.3c0,0.7,0.6,0.9,1.3,0.9c0.5,0,1.1-0.1,1.1-0.7c0-1.2-3-0.4-3-2.2c0-0.9,0.9-1.3,1.7-1.3
			c1,0,1.8,0.3,1.9,1.5H150c0-0.6-0.6-0.8-1.1-0.8c-0.5,0-1,0.1-1,0.6c0,0.5,0.8,0.6,1.5,0.8c0.8,0.2,1.5,0.4,1.5,1.3
			c0,1.1-1,1.5-2,1.5c-1,0-1.9-0.4-2-1.6H147.8z"/>
	</g>
	<g>
		<path fill="#5A6464" d="M157.9,151.4c0,1.5-0.7,2.3-2.2,2.3c-0.9,0-1.9-0.4-1.9-1.4h0.8c0,0.5,0.7,0.8,1.2,0.8
			c1,0,1.4-0.7,1.4-1.8V151h0c-0.3,0.6-0.9,0.8-1.4,0.8c-1.4,0-2.1-1.1-2.1-2.4c0-1.1,0.5-2.5,2.2-2.5c0.6,0,1.1,0.3,1.4,0.8h0v-0.7
			h0.7V151.4z M157.1,149.4c0-0.8-0.4-1.7-1.3-1.7c-1,0-1.4,0.8-1.4,1.7c0,0.8,0.3,1.8,1.3,1.8C156.8,151.2,157.1,150.2,157.1,149.4
			z"/>
	</g>
	<g>
		<path fill="#5A6464" d="M160.9,147c1.5,0,2.3,1.1,2.3,2.4c0,1.4-0.8,2.4-2.3,2.4s-2.3-1.1-2.3-2.4
			C158.7,148.1,159.4,147,160.9,147z M160.9,151.2c0.8,0,1.4-0.6,1.4-1.8c0-1.1-0.6-1.8-1.4-1.8c-0.8,0-1.5,0.6-1.5,1.8
			C159.5,150.6,160.1,151.2,160.9,151.2z"/>
	</g>
	<g>
		<path fill="#5A6464" d="M168.1,151.8c-0.1,0.1-0.3,0.1-0.5,0.1c-0.4,0-0.6-0.2-0.6-0.7c-0.4,0.5-1,0.7-1.6,0.7
			c-0.8,0-1.5-0.4-1.5-1.3c0-1.1,0.8-1.3,1.6-1.4c0.8-0.2,1.6-0.1,1.6-0.7c0-0.7-0.6-0.8-1-0.8c-0.6,0-1.1,0.2-1.2,0.9h-0.8
			c0-1.2,0.9-1.6,2-1.6c0.8,0,1.7,0.2,1.7,1.3v2.4c0,0.4,0,0.5,0.2,0.5c0.1,0,0.2,0,0.2,0V151.8z M166.8,149.4
			c-0.6,0.4-2.3,0-2.3,1.2c0,0.5,0.4,0.7,0.9,0.7c1,0,1.4-0.6,1.4-1.1V149.4z"/>
	</g>
	<g>
		<path fill="#5A6464" d="M168.8,145.4h0.8v6.4h-0.8V145.4z"/>
	</g>
	<g>
		<path fill="#5A6464" d="M170,153.6c0.9-1.4,1.2-2.7,1.2-4.2c0-1.5-0.3-2.8-1.2-4.2h0.6c0.9,1.3,1.4,2.6,1.4,4.2
			c0,1.4-0.5,2.9-1.4,4.2H170z"/>
	</g>
</g>
<g>
	<g>
		<path fill="#323232" d="M68.3,175.4c-0.1-1.1-0.9-1.6-1.9-1.6c-0.9,0-1.8,0.3-1.8,1.3c0,1.9,5,0.6,5,3.7c0,1.7-1.6,2.3-3.1,2.3
			c-1.8,0-3.2-0.9-3.2-2.8h1c0,1.3,1.1,1.9,2.3,1.9c0.9,0,2-0.3,2-1.4c0-2.2-5-0.7-5-3.6c0-1.6,1.4-2.3,2.8-2.3
			c1.6,0,2.8,0.8,2.9,2.5H68.3z"/>
	</g>
	<g>
		<path fill="#323232" d="M76.2,181h-1l-1.2-4.5h0l-1.1,4.5h-1l-1.8-5.7h1l1.3,4.7h0l1.1-4.7h1l1.2,4.7h0l1.3-4.7h1L76.2,181z"/>
	</g>
	<g>
		<path fill="#323232" d="M83.5,180.9c-0.2,0.1-0.4,0.2-0.7,0.2c-0.5,0-0.8-0.3-0.8-0.9c-0.5,0.6-1.2,0.9-2,0.9
			c-1,0-1.9-0.5-1.9-1.6c0-1.3,1-1.6,1.9-1.8c1-0.2,1.9-0.1,1.9-0.8c0-0.8-0.7-0.9-1.3-0.9c-0.8,0-1.4,0.2-1.4,1.1h-0.9
			c0.1-1.4,1.1-1.9,2.4-1.9c1,0,2.1,0.2,2.1,1.6v2.9c0,0.4,0,0.6,0.3,0.6c0.1,0,0.2,0,0.3-0.1V180.9z M82,178
			c-0.7,0.5-2.8,0-2.8,1.4c0,0.6,0.5,0.8,1.1,0.8c1.2,0,1.7-0.8,1.7-1.3V178z"/>
	</g>
	<g>
		<path fill="#323232" d="M84.4,175.3h0.9v0.8h0c0.3-0.6,1-0.9,1.8-0.9c1.8,0,2.6,1.4,2.6,3c0,1.6-0.9,3-2.6,3
			c-0.6,0-1.4-0.2-1.8-0.9h0v2.9h-0.9V175.3z M87.1,176c-1.3,0-1.7,1.1-1.7,2.1c0,1.1,0.5,2.2,1.8,2.2c1.3,0,1.7-1.1,1.7-2.2
			C88.8,177,88.3,176,87.1,176z"/>
	</g>
	<g>
		<path fill="#323232" d="M93.4,173.1h0.9v2.9h0c0.3-0.6,1-0.9,1.8-0.9c1.8,0,2.6,1.4,2.6,3c0,1.6-0.9,3-2.6,3
			c-0.6,0-1.4-0.2-1.8-0.9h0v0.8h-0.9V173.1z M96,176c-1.3,0-1.7,1.1-1.7,2.1c0,1.1,0.5,2.2,1.8,2.2c1.3,0,1.7-1.1,1.7-2.2
			C97.8,177,97.2,176,96,176z"/>
	</g>
	<g>
		<path fill="#323232" d="M104.6,179.1c-0.3,1.3-1.1,1.9-2.4,1.9c-1.8,0-2.7-1.3-2.7-3c0-1.7,1.1-3,2.7-3c2,0,2.6,1.9,2.6,3.3h-4.3
			c0,1,0.5,1.9,1.8,1.9c0.8,0,1.3-0.4,1.5-1.1H104.6z M103.7,177.6c-0.1-0.9-0.7-1.6-1.6-1.6c-1,0-1.6,0.7-1.6,1.6H103.7z"/>
	</g>
	<g>
		<path fill="#323232" d="M105.7,175.3h0.9v1.2h0c0.5-0.9,1.1-1.4,2.1-1.3v1c-1.5,0-2.1,0.8-2.1,2.3v2.5h-0.9V175.3z"/>
	</g>
	<g>
		<path fill="#323232" d="M109.5,175.3h0.9v1.2h0c0.5-0.9,1.1-1.4,2.1-1.3v1c-1.5,0-2.1,0.8-2.1,2.3v2.5h-0.9V175.3z"/>
	</g>
	<g>
		<path fill="#323232" d="M114.2,174.2h-0.9v-1.1h0.9V174.2z M113.3,175.3h0.9v5.7h-0.9V175.3z"/>
	</g>
	<g>
		<path fill="#323232" d="M120.3,179.1c-0.3,1.3-1.1,1.9-2.4,1.9c-1.8,0-2.7-1.3-2.7-3c0-1.7,1.1-3,2.7-3c2,0,2.6,1.9,2.6,3.3h-4.3
			c0,1,0.5,1.9,1.8,1.9c0.8,0,1.3-0.4,1.5-1.1H120.3z M119.4,177.6c-0.1-0.9-0.7-1.6-1.6-1.6c-1,0-1.6,0.7-1.6,1.6H119.4z"/>
	</g>
	<g>
		<path fill="#323232" d="M122,179.2c0,0.8,0.8,1.1,1.5,1.1c0.6,0,1.4-0.1,1.4-0.8c0-1.5-3.7-0.5-3.7-2.7c0-1.1,1.1-1.6,2.1-1.6
			c1.3,0,2.2,0.4,2.3,1.8h-0.9c-0.1-0.7-0.7-1-1.3-1c-0.6,0-1.2,0.2-1.2,0.7c0,0.7,1,0.8,1.9,1c0.9,0.2,1.9,0.5,1.9,1.6
			c0,1.4-1.3,1.8-2.4,1.8c-1.3,0-2.4-0.5-2.4-1.9H122z"/>
	</g>
	<g>
		<path fill="#323232" d="M129.7,176.1h-1v-0.8h1v-0.8c0-0.9,0.5-1.4,1.6-1.4c0.2,0,0.4,0,0.6,0.1v0.8c-0.2-0.1-0.4-0.1-0.5-0.1
			c-0.5,0-0.7,0.1-0.7,0.6v0.8h1.1v0.8h-1.1v4.9h-0.9V176.1z"/>
	</g>
	<g>
		<path fill="#323232" d="M134.7,175.1c1.8,0,2.8,1.3,2.8,3c0,1.7-1,3-2.8,3c-1.8,0-2.8-1.3-2.8-3
			C131.9,176.4,132.9,175.1,134.7,175.1z M134.7,180.3c1,0,1.8-0.8,1.8-2.1s-0.8-2.2-1.8-2.2s-1.8,0.8-1.8,2.2
			S133.7,180.3,134.7,180.3z"/>
	</g>
	<g>
		<path fill="#323232" d="M138.4,175.3h0.9v1.2h0c0.5-0.9,1.1-1.4,2.1-1.3v1c-1.5,0-2.1,0.8-2.1,2.3v2.5h-0.9V175.3z"/>
	</g>
	<g>
		<path fill="#323232" d="M148.5,177.1c-0.1-0.7-0.6-1.1-1.4-1.1c-1.4,0-1.8,1.1-1.8,2.2c0,1.1,0.5,2.1,1.7,2.1
			c0.9,0,1.4-0.5,1.6-1.4h1c-0.2,1.4-1.1,2.2-2.5,2.2c-1.7,0-2.7-1.2-2.7-2.9s0.9-3,2.7-3c1.3,0,2.3,0.6,2.5,2H148.5z"/>
	</g>
	<g>
		<path fill="#323232" d="M155.5,180.9c-0.2,0.1-0.4,0.2-0.7,0.2c-0.5,0-0.8-0.3-0.8-0.9c-0.5,0.6-1.2,0.9-2,0.9
			c-1,0-1.9-0.5-1.9-1.6c0-1.3,1-1.6,1.9-1.8c1-0.2,1.9-0.1,1.9-0.8c0-0.8-0.7-0.9-1.3-0.9c-0.8,0-1.4,0.2-1.4,1.1h-0.9
			c0.1-1.4,1.1-1.9,2.4-1.9c1,0,2.1,0.2,2.1,1.6v2.9c0,0.4,0,0.6,0.3,0.6c0.1,0,0.2,0,0.3-0.1V180.9z M153.9,178
			c-0.7,0.5-2.8,0-2.8,1.4c0,0.6,0.5,0.8,1.1,0.8c1.2,0,1.7-0.8,1.7-1.3V178z"/>
	</g>
	<g>
		<path fill="#323232" d="M156.3,175.3h0.9v0.9h0c0.4-0.7,1-1,1.8-1c1.5,0,2,0.9,2,2.1v3.7h-0.9v-3.9c0-0.7-0.4-1.1-1.2-1.1
			c-1.1,0-1.7,0.8-1.7,1.8v3.2h-0.9V175.3z"/>
	</g>
	<g>
		<path fill="#323232" d="M167.3,181h-0.9v-0.8h0c-0.3,0.6-1,0.9-1.8,0.9c-1.7,0-2.6-1.4-2.6-3s0.9-3,2.6-3c0.6,0,1.4,0.2,1.8,0.9h0
			v-2.9h0.9V181z M164.7,180.3c1.3,0,1.7-1.1,1.7-2.1c0-1.1-0.5-2.2-1.8-2.2c-1.3,0-1.7,1.1-1.7,2.2
			C162.9,179.2,163.5,180.3,164.7,180.3z"/>
	</g>
	<g>
		<path fill="#323232" d="M169.4,174.2h-0.9v-1.1h0.9V174.2z M168.5,175.3h0.9v5.7h-0.9V175.3z"/>
	</g>
	<g>
		<path fill="#323232" d="M175.5,179.1c-0.3,1.3-1.1,1.9-2.4,1.9c-1.8,0-2.7-1.3-2.7-3c0-1.7,1.1-3,2.7-3c2,0,2.6,1.9,2.6,3.3h-4.3
			c0,1,0.5,1.9,1.8,1.9c0.8,0,1.3-0.4,1.5-1.1H175.5z M174.6,177.6c-0.1-0.9-0.7-1.6-1.6-1.6c-1,0-1.6,0.7-1.6,1.6H174.6z"/>
	</g>
	<g>
		<path fill="#323232" d="M177.2,179.2c0,0.8,0.8,1.1,1.5,1.1c0.6,0,1.4-0.1,1.4-0.8c0-1.5-3.7-0.5-3.7-2.7c0-1.1,1.1-1.6,2.1-1.6
			c1.3,0,2.2,0.4,2.3,1.8h-0.9c-0.1-0.7-0.7-1-1.3-1c-0.6,0-1.2,0.2-1.2,0.7c0,0.7,1,0.8,1.9,1c0.9,0.2,1.9,0.5,1.9,1.6
			c0,1.4-1.3,1.8-2.4,1.8c-1.3,0-2.4-0.5-2.4-1.9H177.2z"/>
	</g>
</g>
<g opacity="0.5">
	<g>
		<path fill="#5A6464" d="M64.8,196.1c-0.9-1.3-1.4-2.6-1.4-4.2c0-1.4,0.5-2.9,1.4-4.2h0.6c-0.9,1.4-1.2,2.7-1.2,4.2
			c0,1.5,0.3,2.8,1.2,4.2H64.8z"/>
	</g>
	<g>
		<path fill="#5A6464" d="M66,187.9h2.3c0.6,0,1.3,0,1.7,0.2c0.4,0.3,0.8,0.7,0.8,1.3c0,0.7-0.4,1.2-1,1.4v0
			c0.8,0.2,1.2,0.8,1.2,1.5c0,0.9-0.7,1.8-2,1.8H66V187.9z M66.8,190.6h1.7c1,0,1.4-0.3,1.4-1c0-0.9-0.6-1-1.4-1h-1.7V190.6z
			 M66.8,193.6H69c0.7,0,1.2-0.4,1.2-1.2c0-0.8-0.7-1.1-1.4-1.1h-2V193.6z"/>
	</g>
	<g>
		<path fill="#5A6464" d="M76,194.3c-0.1,0.1-0.3,0.1-0.5,0.1c-0.4,0-0.6-0.2-0.6-0.7c-0.4,0.5-1,0.7-1.6,0.7
			c-0.8,0-1.5-0.4-1.5-1.3c0-1.1,0.8-1.3,1.6-1.4c0.8-0.2,1.6-0.1,1.6-0.7c0-0.7-0.6-0.8-1-0.8c-0.6,0-1.1,0.2-1.2,0.9h-0.8
			c0-1.2,0.9-1.6,2-1.6c0.8,0,1.7,0.2,1.7,1.3v2.4c0,0.4,0,0.5,0.2,0.5c0.1,0,0.2,0,0.2,0V194.3z M74.8,191.9
			c-0.6,0.4-2.3,0-2.3,1.2c0,0.5,0.4,0.7,0.9,0.7c1,0,1.4-0.6,1.4-1.1V191.9z"/>
	</g>
	<g>
		<path fill="#5A6464" d="M77.2,192.8c0,0.7,0.6,0.9,1.3,0.9c0.5,0,1.1-0.1,1.1-0.7c0-1.2-3-0.4-3-2.2c0-0.9,0.9-1.3,1.7-1.3
			c1,0,1.8,0.3,1.9,1.5h-0.8c0-0.6-0.6-0.8-1.1-0.8c-0.5,0-1,0.1-1,0.6c0,0.5,0.8,0.6,1.5,0.8c0.8,0.2,1.5,0.4,1.5,1.3
			c0,1.1-1,1.5-2,1.5c-1,0-1.9-0.4-2-1.6H77.2z"/>
	</g>
	<g>
		<path fill="#5A6464" d="M85.1,192.8c-0.2,1-0.9,1.6-2,1.6c-1.5,0-2.2-1-2.2-2.4c0-1.4,0.9-2.4,2.2-2.4c1.6,0,2.2,1.5,2.1,2.7h-3.5
			c0,0.8,0.4,1.5,1.4,1.5c0.6,0,1.1-0.3,1.2-0.9H85.1z M84.4,191.5c0-0.7-0.6-1.3-1.3-1.3c-0.8,0-1.3,0.6-1.3,1.3H84.4z"/>
	</g>
	<g>
		<path fill="#5A6464" d="M90.2,194.3h-0.8v-0.6h0c-0.3,0.5-0.8,0.7-1.5,0.7c-1.4,0-2.1-1.1-2.1-2.4s0.7-2.4,2.1-2.4
			c0.5,0,1.2,0.2,1.5,0.7h0v-2.4h0.8V194.3z M88,193.7c1,0,1.4-0.9,1.4-1.8c0-0.9-0.4-1.8-1.5-1.8c-1,0-1.4,0.9-1.4,1.8
			C86.6,192.9,87,193.7,88,193.7z"/>
	</g>
	<g>
		<path fill="#5A6464" d="M95.4,189.5c1.5,0,2.3,1.1,2.3,2.4c0,1.4-0.8,2.4-2.3,2.4s-2.3-1.1-2.3-2.4
			C93.1,190.6,93.9,189.5,95.4,189.5z M95.4,193.7c0.8,0,1.4-0.6,1.4-1.8c0-1.1-0.6-1.8-1.4-1.8c-0.8,0-1.5,0.6-1.5,1.8
			C93.9,193.1,94.6,193.7,95.4,193.7z"/>
	</g>
	<g>
		<path fill="#5A6464" d="M98.4,189.6h0.7v0.7h0c0.3-0.6,0.8-0.8,1.5-0.8c1.2,0,1.6,0.7,1.6,1.7v3.1h-0.8v-3.2
			c0-0.6-0.4-0.9-0.9-0.9c-0.9,0-1.4,0.6-1.4,1.5v2.6h-0.8V189.6z"/>
	</g>
	<g>
		<path fill="#5A6464" d="M105.3,189.6h0.8v0.6h0c0.3-0.5,0.8-0.7,1.5-0.7c1.4,0,2.1,1.1,2.1,2.4c0,1.3-0.7,2.4-2.1,2.4
			c-0.5,0-1.2-0.2-1.5-0.7h0v2.4h-0.8V189.6z M107.5,190.2c-1,0-1.4,0.9-1.4,1.8c0,0.9,0.4,1.8,1.5,1.8c1,0,1.4-0.9,1.4-1.8
			C108.9,191,108.5,190.2,107.5,190.2z"/>
	</g>
	<g>
		<path fill="#5A6464" d="M110.5,189.6h0.7v1h0c0.4-0.8,0.9-1.1,1.7-1.1v0.8c-1.2,0-1.7,0.7-1.7,1.9v2.1h-0.8V189.6z"/>
	</g>
	<g>
		<path fill="#5A6464" d="M117.3,192.8c-0.2,1-0.9,1.6-2,1.6c-1.5,0-2.2-1-2.2-2.4c0-1.4,0.9-2.4,2.2-2.4c1.6,0,2.2,1.5,2.1,2.7
			h-3.5c0,0.8,0.4,1.5,1.4,1.5c0.6,0,1.1-0.3,1.2-0.9H117.3z M116.5,191.5c0-0.7-0.6-1.3-1.3-1.3c-0.8,0-1.3,0.6-1.3,1.3H116.5z"/>
	</g>
	<g>
		<path fill="#5A6464" d="M122.4,194.3h-0.8v-0.6h0c-0.3,0.5-0.8,0.7-1.5,0.7c-1.4,0-2.1-1.1-2.1-2.4s0.7-2.4,2.1-2.4
			c0.5,0,1.2,0.2,1.5,0.7h0v-2.4h0.8V194.3z M120.2,193.7c1,0,1.4-0.9,1.4-1.8c0-0.9-0.4-1.8-1.5-1.8c-1,0-1.4,0.9-1.4,1.8
			C118.8,192.9,119.2,193.7,120.2,193.7z"/>
	</g>
	<g>
		<path fill="#5A6464" d="M124.1,188.8h-0.8v-0.9h0.8V188.8z M123.4,189.6h0.8v4.7h-0.8V189.6z"/>
	</g>
	<g>
		<path fill="#5A6464" d="M129.2,194.3c-0.1,0.1-0.3,0.1-0.5,0.1c-0.4,0-0.6-0.2-0.6-0.7c-0.4,0.5-1,0.7-1.6,0.7
			c-0.8,0-1.5-0.4-1.5-1.3c0-1.1,0.8-1.3,1.6-1.4c0.8-0.2,1.6-0.1,1.6-0.7c0-0.7-0.6-0.8-1-0.8c-0.6,0-1.1,0.2-1.2,0.9h-0.8
			c0-1.2,0.9-1.6,2-1.6c0.8,0,1.7,0.2,1.7,1.3v2.4c0,0.4,0,0.5,0.2,0.5c0.1,0,0.2,0,0.2,0V194.3z M128,191.9c-0.6,0.4-2.3,0-2.3,1.2
			c0,0.5,0.4,0.7,0.9,0.7c1,0,1.4-0.6,1.4-1.1V191.9z"/>
	</g>
	<g>
		<path fill="#5A6464" d="M130,187.9h0.8v2.4h0c0.3-0.5,0.8-0.7,1.5-0.7c1.4,0,2.1,1.1,2.1,2.4c0,1.3-0.7,2.4-2.1,2.4
			c-0.5,0-1.2-0.2-1.5-0.7h0v0.6H130V187.9z M132.1,190.2c-1,0-1.4,0.9-1.4,1.8c0,0.9,0.4,1.8,1.5,1.8c1,0,1.4-0.9,1.4-1.8
			C133.6,191,133.1,190.2,132.1,190.2z"/>
	</g>
	<g>
		<path fill="#5A6464" d="M139.2,192.8c-0.2,1-0.9,1.6-2,1.6c-1.5,0-2.2-1-2.2-2.4c0-1.4,0.9-2.4,2.2-2.4c1.6,0,2.2,1.5,2.1,2.7
			h-3.5c0,0.8,0.4,1.5,1.4,1.5c0.6,0,1.1-0.3,1.2-0.9H139.2z M138.4,191.5c0-0.7-0.6-1.3-1.3-1.3c-0.8,0-1.3,0.6-1.3,1.3H138.4z"/>
	</g>
	<g>
		<path fill="#5A6464" d="M141,189.6h0.9v0.7H141v2.9c0,0.4,0.1,0.4,0.6,0.4h0.4v0.7h-0.6c-0.8,0-1.1-0.2-1.1-1v-3h-0.8v-0.7h0.8
			v-1.4h0.8V189.6z"/>
	</g>
	<g>
		<path fill="#5A6464" d="M146.4,192.8c-0.2,1-0.9,1.6-2,1.6c-1.5,0-2.2-1-2.2-2.4c0-1.4,0.9-2.4,2.2-2.4c1.6,0,2.2,1.5,2.1,2.7H143
			c0,0.8,0.4,1.5,1.4,1.5c0.6,0,1.1-0.3,1.2-0.9H146.4z M145.7,191.5c0-0.7-0.6-1.3-1.3-1.3c-0.8,0-1.3,0.6-1.3,1.3H145.7z"/>
	</g>
	<g>
		<path fill="#5A6464" d="M147.8,192.8c0,0.7,0.6,0.9,1.3,0.9c0.5,0,1.1-0.1,1.1-0.7c0-1.2-3-0.4-3-2.2c0-0.9,0.9-1.3,1.7-1.3
			c1,0,1.8,0.3,1.9,1.5H150c0-0.6-0.6-0.8-1.1-0.8c-0.5,0-1,0.1-1,0.6c0,0.5,0.8,0.6,1.5,0.8c0.8,0.2,1.5,0.4,1.5,1.3
			c0,1.1-1,1.5-2,1.5c-1,0-1.9-0.4-2-1.6H147.8z"/>
	</g>
	<g>
		<path fill="#5A6464" d="M157.9,193.9c0,1.5-0.7,2.3-2.2,2.3c-0.9,0-1.9-0.4-1.9-1.4h0.8c0,0.5,0.7,0.8,1.2,0.8
			c1,0,1.4-0.7,1.4-1.8v-0.3h0c-0.3,0.6-0.9,0.8-1.4,0.8c-1.4,0-2.1-1.1-2.1-2.4c0-1.1,0.5-2.5,2.2-2.5c0.6,0,1.1,0.3,1.4,0.8h0
			v-0.7h0.7V193.9z M157.1,191.9c0-0.8-0.4-1.7-1.3-1.7c-1,0-1.4,0.8-1.4,1.7c0,0.8,0.3,1.8,1.3,1.8
			C156.8,193.7,157.1,192.7,157.1,191.9z"/>
	</g>
	<g>
		<path fill="#5A6464" d="M160.9,189.5c1.5,0,2.3,1.1,2.3,2.4c0,1.4-0.8,2.4-2.3,2.4s-2.3-1.1-2.3-2.4
			C158.7,190.6,159.4,189.5,160.9,189.5z M160.9,193.7c0.8,0,1.4-0.6,1.4-1.8c0-1.1-0.6-1.8-1.4-1.8c-0.8,0-1.5,0.6-1.5,1.8
			C159.5,193.1,160.1,193.7,160.9,193.7z"/>
	</g>
	<g>
		<path fill="#5A6464" d="M168.1,194.3c-0.1,0.1-0.3,0.1-0.5,0.1c-0.4,0-0.6-0.2-0.6-0.7c-0.4,0.5-1,0.7-1.6,0.7
			c-0.8,0-1.5-0.4-1.5-1.3c0-1.1,0.8-1.3,1.6-1.4c0.8-0.2,1.6-0.1,1.6-0.7c0-0.7-0.6-0.8-1-0.8c-0.6,0-1.1,0.2-1.2,0.9h-0.8
			c0-1.2,0.9-1.6,2-1.6c0.8,0,1.7,0.2,1.7,1.3v2.4c0,0.4,0,0.5,0.2,0.5c0.1,0,0.2,0,0.2,0V194.3z M166.8,191.9
			c-0.6,0.4-2.3,0-2.3,1.2c0,0.5,0.4,0.7,0.9,0.7c1,0,1.4-0.6,1.4-1.1V191.9z"/>
	</g>
	<g>
		<path fill="#5A6464" d="M168.8,187.9h0.8v6.4h-0.8V187.9z"/>
	</g>
	<g>
		<path fill="#5A6464" d="M170,196.1c0.9-1.4,1.2-2.7,1.2-4.2c0-1.5-0.3-2.8-1.2-4.2h0.6c0.9,1.3,1.4,2.6,1.4,4.2
			c0,1.4-0.5,2.9-1.4,4.2H170z"/>
	</g>
</g>
<g>
	<g>
		<path fill="#323232" d="M51.7,232.9c-0.6,0.8-1.4,1.1-2.2,1.1c-2.4,0-3.9-1.8-3.9-4.1c0-2.3,1.4-4.1,3.9-4.1c1.6,0,3.1,1,3.3,2.8
			h-1.7c-0.2-0.9-0.8-1.3-1.7-1.3c-1.6,0-2.1,1.3-2.1,2.7c0,1.3,0.6,2.6,2.1,2.6c1.1,0,1.8-0.6,1.9-1.7h-1.7v-1.3h3.3v4.2h-1.1
			L51.7,232.9z"/>
	</g>
	<g>
		<path fill="#323232" d="M55.3,231.3c0,1,0.5,1.4,1.4,1.4c0.6,0,1.1-0.4,1.2-0.7h1.4c-0.4,1.4-1.4,1.9-2.7,1.9
			c-1.8,0-2.9-1.2-2.9-3c0-1.7,1.2-3,2.9-3c1.9,0,2.9,1.6,2.8,3.4H55.3z M57.9,230.3c-0.1-0.8-0.5-1.2-1.2-1.2c-1,0-1.3,0.8-1.3,1.2
			H57.9z"/>
	</g>
	<g>
		<path fill="#323232" d="M62.1,228.1h1.1v1h-1.1v2.8c0,0.5,0.1,0.7,0.7,0.7c0.2,0,0.3,0,0.5,0v1.2c-0.3,0-0.6,0.1-0.9,0.1
			c-1,0-1.8-0.2-1.8-1.4v-3.4h-0.9v-1h0.9v-1.7h1.6V228.1z"/>
	</g>
	<g>
		<path fill="#323232" d="M69.6,234.5c-0.3,0.9-0.9,1.3-2,1.3c-0.3,0-0.6,0-1-0.1v-1.3c0.3,0,0.6,0.1,0.9,0.1c0.4,0,0.6-0.4,0.6-0.7
			c0-0.1,0-0.2-0.1-0.4l-2-5.3h1.7l1.3,3.9h0l1.2-3.9H72L69.6,234.5z"/>
	</g>
	<g>
		<path fill="#323232" d="M75,227.9c1.8,0,2.9,1.2,2.9,3c0,1.8-1.2,3-2.9,3c-1.8,0-2.9-1.2-2.9-3C72,229.1,73.2,227.9,75,227.9z
			 M75,232.8c1.1,0,1.4-0.9,1.4-1.8c0-0.9-0.3-1.8-1.4-1.8c-1.1,0-1.4,0.9-1.4,1.8C73.6,231.9,73.9,232.8,75,232.8z"/>
	</g>
	<g>
		<path fill="#323232" d="M84.1,233.8h-1.5V233h0c-0.4,0.6-1.1,0.9-1.7,0.9c-1.7,0-2.1-0.9-2.1-2.3v-3.5h1.6v3.2
			c0,0.9,0.3,1.4,1,1.4c0.8,0,1.2-0.5,1.2-1.6v-3h1.6V233.8z"/>
	</g>
	<g>
		<path fill="#323232" d="M85.1,228.1h1.5v1.1h0c0.3-0.7,1-1.2,1.8-1.2c0.1,0,0.2,0,0.3,0.1v1.5c-0.1,0-0.4-0.1-0.6-0.1
			c-1.2,0-1.5,0.8-1.5,1.8v2.6h-1.6V228.1z"/>
	</g>
	<g>
		<path fill="#323232" d="M91.8,228.1h1.5v0.8h0c0.4-0.6,1-0.9,1.7-0.9c0.7,0,1.4,0.3,1.7,0.9c0.3-0.5,0.9-0.9,1.7-0.9
			c1.2,0,2.1,0.6,2.1,2v3.8H99v-3.2c0-0.8-0.1-1.4-1-1.4c-0.9,0-1,0.7-1,1.4v3.2h-1.6v-3.2c0-0.7,0-1.4-0.9-1.4
			c-0.3,0-1.1,0.2-1.1,1.3v3.3h-1.6V228.1z"/>
	</g>
	<g>
		<path fill="#323232" d="M104.2,227.9c1.8,0,2.9,1.2,2.9,3c0,1.8-1.2,3-2.9,3c-1.8,0-2.9-1.2-2.9-3
			C101.3,229.1,102.5,227.9,104.2,227.9z M104.2,232.8c1.1,0,1.4-0.9,1.4-1.8c0-0.9-0.3-1.8-1.4-1.8c-1.1,0-1.4,0.9-1.4,1.8
			C102.9,231.9,103.2,232.8,104.2,232.8z"/>
	</g>
	<g>
		<path fill="#323232" d="M110.9,233.8h-1.7l-1.9-5.7h1.6l1.2,3.9h0l1.2-3.9h1.6L110.9,233.8z"/>
	</g>
	<g>
		<path fill="#323232" d="M114.4,231.3c0,1,0.5,1.4,1.4,1.4c0.6,0,1.1-0.4,1.2-0.7h1.4c-0.4,1.4-1.4,1.9-2.7,1.9
			c-1.8,0-2.9-1.2-2.9-3c0-1.7,1.2-3,2.9-3c1.9,0,2.9,1.6,2.8,3.4H114.4z M116.9,230.3c-0.1-0.8-0.5-1.2-1.2-1.2
			c-1,0-1.3,0.8-1.3,1.2H116.9z"/>
	</g>
	<g>
		<path fill="#323232" d="M124.6,227.9c1.8,0,2.9,1.2,2.9,3c0,1.8-1.2,3-2.9,3c-1.8,0-2.9-1.2-2.9-3
			C121.7,229.1,122.8,227.9,124.6,227.9z M124.6,232.8c1.1,0,1.4-0.9,1.4-1.8c0-0.9-0.3-1.8-1.4-1.8c-1.1,0-1.4,0.9-1.4,1.8
			C123.2,231.9,123.6,232.8,124.6,232.8z"/>
	</g>
	<g>
		<path fill="#323232" d="M128.4,228.1h1.5v0.8h0c0.4-0.6,1.1-0.9,1.7-0.9c1.7,0,2.1,0.9,2.1,2.3v3.5h-1.6v-3.2c0-0.9-0.3-1.4-1-1.4
			c-0.8,0-1.2,0.5-1.2,1.6v3h-1.6V228.1z"/>
	</g>
</g>
<g>
	<g>
		<path fill="#323232" d="M63.7,259.1h2.7c2.4,0,3.8,1.2,3.8,3.7c0,2.6-1.2,4.1-3.8,4.1h-2.7V259.1z M64.8,266.1h1.7
			c0.7,0,2.6-0.2,2.6-3.1c0-1.9-0.7-3-2.6-3h-1.8V266.1z"/>
	</g>
	<g>
		<path fill="#323232" d="M73.7,261.1c1.8,0,2.8,1.3,2.8,3c0,1.7-1,3-2.8,3c-1.8,0-2.8-1.3-2.8-3C71,262.4,71.9,261.1,73.7,261.1z
			 M73.7,266.3c1,0,1.8-0.8,1.8-2.1s-0.8-2.2-1.8-2.2s-1.8,0.8-1.8,2.2S72.7,266.3,73.7,266.3z"/>
	</g>
	<g>
		<path fill="#323232" d="M80,261.9c-0.1-1.6,0.9-2.8,2.5-2.8c1.4,0,2.4,0.8,2.4,2.2c0,1.4-0.9,2.1-1.9,2.7c-1,0.6-2,1.1-2.2,2.1h4
			v0.8h-5.1c0.1-1.8,1.1-2.5,2.2-3.2c1.3-0.8,2-1.3,2-2.4c0-0.8-0.7-1.4-1.5-1.4c-1.1,0-1.6,1-1.5,1.9H80z"/>
	</g>
	<g>
		<path fill="#323232" d="M89.1,265.2c0,0.8,0.8,1.1,1.5,1.1c0.6,0,1.4-0.1,1.4-0.8c0-1.5-3.7-0.5-3.7-2.7c0-1.1,1.1-1.6,2.1-1.6
			c1.3,0,2.2,0.4,2.3,1.8h-0.9c-0.1-0.7-0.7-1-1.3-1c-0.6,0-1.2,0.2-1.2,0.7c0,0.7,1,0.8,1.9,1c0.9,0.2,1.9,0.5,1.9,1.6
			c0,1.4-1.3,1.8-2.4,1.8c-1.3,0-2.4-0.5-2.4-1.9H89.1z"/>
	</g>
	<g>
		<path fill="#323232" d="M98.8,265.1c-0.3,1.3-1.1,1.9-2.4,1.9c-1.8,0-2.7-1.3-2.7-3c0-1.7,1.1-3,2.7-3c2,0,2.6,1.9,2.6,3.3h-4.3
			c0,1,0.5,1.9,1.8,1.9c0.8,0,1.3-0.4,1.5-1.1H98.8z M97.9,263.6c-0.1-0.9-0.7-1.6-1.6-1.6c-1,0-1.6,0.7-1.6,1.6H97.9z"/>
	</g>
	<g>
		<path fill="#323232" d="M101.1,261.3h1.1v0.8h-1.1v3.5c0,0.4,0.1,0.5,0.7,0.5h0.4v0.8h-0.7c-1,0-1.4-0.2-1.4-1.2v-3.6h-1v-0.8h1
			v-1.7h0.9V261.3z"/>
	</g>
	<g>
		<path fill="#323232" d="M103.7,265.2c0,0.8,0.8,1.1,1.5,1.1c0.6,0,1.4-0.1,1.4-0.8c0-1.5-3.7-0.5-3.7-2.7c0-1.1,1.1-1.6,2.1-1.6
			c1.3,0,2.2,0.4,2.3,1.8h-0.9c-0.1-0.7-0.7-1-1.3-1c-0.6,0-1.2,0.2-1.2,0.7c0,0.7,1,0.8,1.9,1c0.9,0.2,1.9,0.5,1.9,1.6
			c0,1.4-1.3,1.8-2.4,1.8c-1.3,0-2.4-0.5-2.4-1.9H103.7z"/>
	</g>
	<g>
		<path fill="#323232" d="M113.6,261.1c1.8,0,2.8,1.3,2.8,3c0,1.7-1,3-2.8,3c-1.8,0-2.8-1.3-2.8-3
			C110.9,262.4,111.8,261.1,113.6,261.1z M113.6,266.3c1,0,1.8-0.8,1.8-2.1s-0.8-2.2-1.8-2.2s-1.8,0.8-1.8,2.2
			S112.7,266.3,113.6,266.3z"/>
	</g>
	<g>
		<path fill="#323232" d="M117.6,262.1h-1v-0.8h1v-0.8c0-0.9,0.5-1.4,1.6-1.4c0.2,0,0.4,0,0.6,0.1v0.8c-0.2-0.1-0.4-0.1-0.5-0.1
			c-0.5,0-0.7,0.1-0.7,0.6v0.8h1.1v0.8h-1.1v4.9h-0.9V262.1z"/>
	</g>
	<g>
		<path fill="#323232" d="M122.8,261.9c-0.1-1.6,0.9-2.8,2.5-2.8c1.4,0,2.4,0.8,2.4,2.2c0,1.4-0.9,2.1-1.9,2.7c-1,0.6-2,1.1-2.2,2.1
			h4v0.8h-5.1c0.1-1.8,1.1-2.5,2.2-3.2c1.3-0.8,2-1.3,2-2.4c0-0.8-0.7-1.4-1.5-1.4c-1.1,0-1.6,1-1.5,1.9H122.8z"/>
	</g>
	<g>
		<path fill="#323232" d="M131.2,259.2c2.4,0,2.6,2.3,2.6,4c0,1.7-0.2,4-2.6,4s-2.6-2.2-2.6-4C128.6,261.4,128.8,259.2,131.2,259.2z
			 M131.2,266.3c1.6,0,1.6-2,1.6-3.1c0-1.2,0-3.1-1.6-3.1c-1.6,0-1.6,2-1.6,3.1C129.6,264.3,129.6,266.3,131.2,266.3z"/>
	</g>
	<g>
		<path fill="#323232" d="M137.5,261.3h0.9v0.8h0c0.3-0.6,1-0.9,1.8-0.9c1.8,0,2.6,1.4,2.6,3c0,1.6-0.9,3-2.6,3
			c-0.6,0-1.4-0.2-1.8-0.9h0v2.9h-0.9V261.3z M140.1,262c-1.3,0-1.7,1.1-1.7,2.1c0,1.1,0.5,2.2,1.8,2.2c1.3,0,1.7-1.1,1.7-2.2
			C141.9,263,141.3,262,140.1,262z"/>
	</g>
	<g>
		<path fill="#323232" d="M148.5,267h-0.9V266h0c-0.4,0.7-1,1-1.8,1c-1.5,0-2-0.9-2-2.1v-3.7h0.9v3.8c0,0.7,0.4,1.1,1.2,1.1
			c1.1,0,1.7-0.8,1.7-1.8v-3.2h0.9V267z"/>
	</g>
	<g>
		<path fill="#323232" d="M150.3,265.2c0,0.8,0.8,1.1,1.5,1.1c0.6,0,1.4-0.1,1.4-0.8c0-1.5-3.7-0.5-3.7-2.7c0-1.1,1.1-1.6,2.1-1.6
			c1.3,0,2.2,0.4,2.3,1.8H153c-0.1-0.7-0.7-1-1.3-1c-0.6,0-1.2,0.2-1.2,0.7c0,0.7,1,0.8,1.9,1c0.9,0.2,1.9,0.5,1.9,1.6
			c0,1.4-1.3,1.8-2.4,1.8c-1.3,0-2.4-0.5-2.4-1.9H150.3z"/>
	</g>
	<g>
		<path fill="#323232" d="M155.1,259.1h0.9v3h0c0.3-0.7,1.1-1,1.8-1c1.5,0,2,0.9,2,2.1v3.7h-0.9v-3.9c0-0.7-0.4-1.1-1.2-1.1
			c-1.1,0-1.7,0.8-1.7,1.8v3.2h-0.9V259.1z"/>
	</g>
	<g>
		<path fill="#323232" d="M165.7,267h-0.9V266h0c-0.4,0.7-1,1-1.8,1c-1.5,0-2-0.9-2-2.1v-3.7h0.9v3.8c0,0.7,0.4,1.1,1.2,1.1
			c1.1,0,1.7-0.8,1.7-1.8v-3.2h0.9V267z"/>
	</g>
	<g>
		<path fill="#323232" d="M166.8,261.3h0.9v0.8h0c0.3-0.6,1-0.9,1.8-0.9c1.8,0,2.6,1.4,2.6,3c0,1.6-0.9,3-2.6,3
			c-0.6,0-1.4-0.2-1.8-0.9h0v2.9h-0.9V261.3z M169.5,262c-1.3,0-1.7,1.1-1.7,2.1c0,1.1,0.5,2.2,1.8,2.2c1.3,0,1.7-1.1,1.7-2.2
			C171.3,263,170.7,262,169.5,262z"/>
	</g>
	<g>
		<path fill="#323232" d="M173.9,265.2c0,0.8,0.8,1.1,1.5,1.1c0.6,0,1.4-0.1,1.4-0.8c0-1.5-3.7-0.5-3.7-2.7c0-1.1,1.1-1.6,2.1-1.6
			c1.3,0,2.2,0.4,2.3,1.8h-0.9c-0.1-0.7-0.7-1-1.3-1c-0.6,0-1.2,0.2-1.2,0.7c0,0.7,1,0.8,1.9,1c0.9,0.2,1.9,0.5,1.9,1.6
			c0,1.4-1.3,1.8-2.4,1.8c-1.3,0-2.4-0.5-2.4-1.9H173.9z"/>
	</g>
</g>
<g>
	<path fill="#0A3C02" d="M179.5,87c-3.1-3.1-8.2-3.1-11.3,0c-3.1,3.1-3.1,8.2,0,11.3c3.1,3.1,8.2,3.1,11.3,0S182.6,90.1,179.5,87z
		 M172.7,95.6l-2.7-2.7l1-1l1.7,1.7l3.9-3.9l1,1L172.7,95.6z"/>
</g>
<g>
	<g>
		<path fill="#0A3C02" d="M115.6,90.9c-0.1-0.8-0.9-1.4-1.7-1.4c-1.6,0-2.1,1.3-2.1,2.7c0,1.3,0.6,2.6,2.1,2.6
			c1.1,0,1.7-0.7,1.8-1.8h1.7c-0.2,2-1.5,3.2-3.5,3.2c-2.4,0-3.9-1.8-3.9-4.1c0-2.3,1.4-4.1,3.9-4.1c1.7,0,3.2,1,3.4,2.8H115.6z"/>
	</g>
	<g>
		<path fill="#0A3C02" d="M120.9,90.3c1.8,0,2.9,1.2,2.9,3c0,1.8-1.2,3-2.9,3c-1.8,0-2.9-1.2-2.9-3C118,91.5,119.1,90.3,120.9,90.3z
			 M120.9,95.1c1.1,0,1.4-0.9,1.4-1.8s-0.3-1.8-1.4-1.8c-1.1,0-1.4,0.9-1.4,1.8S119.9,95.1,120.9,95.1z"/>
	</g>
	<g>
		<path fill="#0A3C02" d="M124.7,90.4h1.5v0.8h0c0.4-0.6,1-0.9,1.7-0.9c0.7,0,1.4,0.3,1.7,0.9c0.3-0.5,0.9-0.9,1.7-0.9
			c1.2,0,2.1,0.6,2.1,2v3.8h-1.6v-3.2c0-0.8-0.1-1.4-1-1.4c-0.9,0-1,0.7-1,1.4v3.2h-1.6v-3.2c0-0.7,0-1.4-0.9-1.4
			c-0.3,0-1.1,0.2-1.1,1.3v3.3h-1.6V90.4z"/>
	</g>
	<g>
		<path fill="#0A3C02" d="M134.4,90.4h1.5v0.7h0c0.4-0.6,1-0.9,1.7-0.9c1.8,0,2.6,1.4,2.6,3.1c0,1.5-0.8,2.9-2.5,2.9
			c-0.7,0-1.3-0.3-1.7-0.9h0v2.7h-1.6V90.4z M138.7,93.3c0-0.9-0.4-1.8-1.4-1.8c-1,0-1.4,0.9-1.4,1.8c0,0.9,0.4,1.8,1.4,1.8
			C138.3,95.1,138.7,94.2,138.7,93.3z"/>
	</g>
	<g>
		<path fill="#0A3C02" d="M141,88.3h1.6v7.9H141V88.3z"/>
	</g>
	<g>
		<path fill="#0A3C02" d="M145,93.7c0,1,0.5,1.4,1.4,1.4c0.6,0,1.1-0.4,1.2-0.7h1.4c-0.4,1.4-1.4,1.9-2.7,1.9c-1.8,0-2.9-1.2-2.9-3
			c0-1.7,1.2-3,2.9-3c1.9,0,2.9,1.6,2.8,3.4H145z M147.5,92.7c-0.1-0.8-0.5-1.2-1.2-1.2c-1,0-1.3,0.8-1.3,1.2H147.5z"/>
	</g>
	<g>
		<path fill="#0A3C02" d="M151.8,90.4h1.1v1h-1.1v2.8c0,0.5,0.1,0.7,0.7,0.7c0.2,0,0.3,0,0.5,0v1.2c-0.3,0-0.6,0.1-0.9,0.1
			c-1,0-1.8-0.2-1.8-1.4v-3.4h-0.9v-1h0.9v-1.7h1.6V90.4z"/>
	</g>
	<g>
		<path fill="#0A3C02" d="M154.7,93.7c0,1,0.5,1.4,1.4,1.4c0.6,0,1.1-0.4,1.2-0.7h1.4c-0.4,1.4-1.4,1.9-2.7,1.9
			c-1.8,0-2.9-1.2-2.9-3c0-1.7,1.2-3,2.9-3c1.9,0,2.9,1.6,2.8,3.4H154.7z M157.3,92.7c-0.1-0.8-0.5-1.2-1.2-1.2
			c-1,0-1.3,0.8-1.3,1.2H157.3z"/>
	</g>
</g>
<g>
	<g>
		<path fill="#323232" d="M338.6,24.1h-4.1v-2.5h11.1v2.5h-4.1v11.1h-3V24.1z"/>
	</g>
	<g>
		<path fill="#323232" d="M349.1,25c3.1,0,5.1,2.1,5.1,5.2c0,3.1-2,5.2-5.1,5.2c-3.1,0-5.1-2.1-5.1-5.2C344,27.1,346,25,349.1,25z
			 M349.1,33.4c1.8,0,2.4-1.6,2.4-3.1c0-1.6-0.6-3.2-2.4-3.2c-1.8,0-2.4,1.6-2.4,3.2C346.7,31.8,347.2,33.4,349.1,33.4z"/>
	</g>
	<g>
		<path fill="#323232" d="M362.5,33.9L362.5,33.9c-0.7,1.1-1.7,1.5-3,1.5c-3,0-4.4-2.5-4.4-5.3c0-2.6,1.5-5.1,4.4-5.1
			c1.2,0,2.3,0.5,2.9,1.5h0v-4.9h2.7v13.6h-2.6V33.9z M360.2,27.1c-1.8,0-2.4,1.5-2.4,3.1c0,1.5,0.7,3.2,2.4,3.2
			c1.8,0,2.3-1.6,2.3-3.2C362.5,28.6,361.9,27.1,360.2,27.1z"/>
	</g>
	<g>
		<path fill="#323232" d="M366.7,28.3c0.2-2.5,2.4-3.3,4.6-3.3c2,0,4.3,0.4,4.3,2.8v5.1c0,0.9,0.1,1.8,0.3,2.2h-2.7
			c-0.1-0.3-0.2-0.6-0.2-0.9c-0.9,0.9-2.1,1.2-3.3,1.2c-1.9,0-3.3-0.9-3.3-2.9c0-4.5,6.6-2.1,6.5-4.3c0-1.1-0.8-1.3-1.7-1.3
			c-1,0-1.7,0.4-1.8,1.5H366.7z M373,30.3c-0.5,0.4-1.4,0.4-2.2,0.6c-0.8,0.2-1.6,0.5-1.6,1.4c0,1,0.8,1.3,1.7,1.3
			c2.1,0,2.2-1.7,2.2-2.3V30.3z"/>
	</g>
	<g>
		<path fill="#323232" d="M382.4,36.4c-0.6,1.6-1.5,2.2-3.4,2.2c-0.6,0-1.1,0-1.7-0.1v-2.2c0.5,0.1,1,0.1,1.6,0.1
			c0.7-0.1,1-0.6,1-1.2c0-0.2,0-0.4-0.1-0.6l-3.5-9.2h2.9l2.2,6.7h0l2.1-6.7h2.8L382.4,36.4z"/>
	</g>
	<g>
		<path fill="#323232" d="M388,21.6h2.7v2.9c0.1,1.7-1.1,3-2.7,3.2v-1.3c1-0.3,1.3-1,1.3-1.9H388V21.6z"/>
	</g>
	<g>
		<path fill="#323232" d="M393.2,31.9c0,1.2,1,1.7,2.1,1.7c0.8,0,1.8-0.3,1.8-1.3c0-0.8-1.1-1.1-3.1-1.5c-1.6-0.4-3.1-0.9-3.1-2.6
			c0-2.5,2.2-3.2,4.3-3.2c2.1,0,4.1,0.7,4.3,3.1h-2.6c-0.1-1-0.9-1.3-1.8-1.3c-0.6,0-1.5,0.1-1.5,0.9c0,1,1.5,1.1,3.1,1.5
			c1.6,0.4,3.1,0.9,3.1,2.8c0,2.6-2.3,3.4-4.5,3.4c-2.3,0-4.5-0.9-4.6-3.5H393.2z"/>
	</g>
	<g>
		<path fill="#323232" d="M405.5,25.3h2.6v1.3h0c0.7-1.1,1.7-1.5,2.9-1.5c3.1,0,4.5,2.5,4.5,5.3c0,2.6-1.4,5.1-4.3,5.1
			c-1.2,0-2.3-0.5-2.9-1.5h0v4.7h-2.7V25.3z M412.8,30.2c0-1.6-0.6-3.2-2.4-3.2c-1.8,0-2.3,1.6-2.3,3.2s0.6,3.1,2.4,3.1
			C412.2,33.4,412.8,31.8,412.8,30.2z"/>
	</g>
	<g>
		<path fill="#323232" d="M416.8,25.3h2.6v1.8h0c0.5-1.2,1.8-2.1,3.1-2.1c0.2,0,0.4,0,0.6,0.1v2.5c-0.2-0.1-0.6-0.1-1-0.1
			c-2,0-2.7,1.4-2.7,3.2v4.4h-2.7V25.3z"/>
	</g>
	<g>
		<path fill="#323232" d="M428.4,25c3.1,0,5.1,2.1,5.1,5.2c0,3.1-2,5.2-5.1,5.2c-3.1,0-5.1-2.1-5.1-5.2
			C423.4,27.1,425.4,25,428.4,25z M428.4,33.4c1.8,0,2.4-1.6,2.4-3.1c0-1.6-0.6-3.2-2.4-3.2c-1.8,0-2.4,1.6-2.4,3.2
			C426.1,31.8,426.6,33.4,428.4,33.4z"/>
	</g>
	<g>
		<path fill="#323232" d="M444.3,34.5c0,1.6-0.6,4.4-5.1,4.4c-1.9,0-4.2-0.9-4.3-3.2h2.7c0.2,1,1,1.3,2,1.3c1.5,0,2.2-1,2.2-2.4
			v-1.3h0c-0.6,1-1.7,1.5-2.9,1.5c-3,0-4.2-2.2-4.2-4.9c0-2.5,1.5-4.9,4.2-4.9c1.3,0,2.3,0.4,2.9,1.6h0v-1.3h2.6V34.5z M441.7,30.1
			c0-1.6-0.6-3-2.3-3c-1.5,0-2.2,1.3-2.2,2.8c0,1.4,0.5,2.9,2.2,2.9C441,32.8,441.7,31.5,441.7,30.1z"/>
	</g>
	<g>
		<path fill="#323232" d="M446.1,25.3h2.6v1.8h0c0.5-1.2,1.8-2.1,3.1-2.1c0.2,0,0.4,0,0.6,0.1v2.5c-0.2-0.1-0.6-0.1-1-0.1
			c-2,0-2.7,1.4-2.7,3.2v4.4h-2.7V25.3z"/>
	</g>
	<g>
		<path fill="#323232" d="M455.3,30.9c0.1,1.7,0.9,2.5,2.4,2.5c1.1,0,2-0.7,2.1-1.3h2.4c-0.8,2.3-2.4,3.3-4.6,3.3
			c-3.1,0-5-2.1-5-5.2c0-2.9,2-5.2,5-5.2c3.3,0,5,2.8,4.8,5.8H455.3z M459.6,29.2c-0.2-1.4-0.8-2.1-2.1-2.1c-1.7,0-2.2,1.3-2.2,2.1
			H459.6z"/>
	</g>
	<g>
		<path fill="#323232" d="M465.8,31.9c0,1.2,1,1.7,2.1,1.7c0.8,0,1.8-0.3,1.8-1.3c0-0.8-1.1-1.1-3.1-1.5c-1.6-0.4-3.1-0.9-3.1-2.6
			c0-2.5,2.2-3.2,4.3-3.2c2.1,0,4.1,0.7,4.3,3.1h-2.6c-0.1-1-0.9-1.3-1.8-1.3c-0.6,0-1.5,0.1-1.5,0.9c0,1,1.5,1.1,3.1,1.5
			c1.6,0.4,3.1,0.9,3.1,2.8c0,2.6-2.3,3.4-4.5,3.4c-2.3,0-4.5-0.9-4.6-3.5H465.8z"/>
	</g>
	<g>
		<path fill="#323232" d="M475.9,31.9c0,1.2,1,1.7,2.1,1.7c0.8,0,1.8-0.3,1.8-1.3c0-0.8-1.1-1.1-3.1-1.5c-1.6-0.4-3.1-0.9-3.1-2.6
			c0-2.5,2.2-3.2,4.3-3.2c2.1,0,4.1,0.7,4.3,3.1h-2.6c-0.1-1-0.9-1.3-1.8-1.3c-0.6,0-1.5,0.1-1.5,0.9c0,1,1.5,1.1,3.1,1.5
			c1.6,0.4,3.1,0.9,3.1,2.8c0,2.6-2.3,3.4-4.5,3.4c-2.3,0-4.5-0.9-4.6-3.5H475.9z"/>
	</g>
</g>
<g>
	<path fill="#8CD211" d="M463,273.1v-20c50.2,0,91-40.8,91-91s-40.8-91-91-91v-20c61.2,0,111,49.8,111,111S524.2,273.1,463,273.1z"
		/>
</g>
<g>
	<path fill="#FCFCFC" d="M379.8,125.2l-18.3-8.1c17.8-40.1,57.6-66,101.5-66v20C427.1,71.1,394.4,92.4,379.8,125.2z"/>
</g>
<g>
	<path fill="#BA8FF7" d="M357.3,196.2c-3.5-11-5.3-22.5-5.3-34.1c0-15.7,3.2-30.8,9.5-45l18.3,8.1c-5.2,11.6-7.8,24.1-7.8,36.9
		c0,9.6,1.5,19,4.4,28L357.3,196.2z"/>
</g>
<g>
	<path fill="#FF7832" d="M463,273.1c-48.4,0-90.8-30.9-105.7-76.9l19-6.1c12.2,37.7,47,63,86.6,63V273.1z"/>
</g>
<g>
	<g>
		<path fill="#323232" d="M431.9,130.6c7,0,9.4,4.8,9.4,7.5c0,2.8-1.4,5-4.1,5.9v0.1c3.4,0.8,5.2,3.3,5.2,6.8
			c0,5.9-5.2,8.8-10.5,8.8c-5.4,0-10.6-2.7-10.6-8.8c0-3.6,2-6.1,5.3-6.9V144c-2.7-0.8-4.1-3-4.1-5.8
			C422.5,133.2,427.4,130.6,431.9,130.6z M432,155.4c2.7,0,4.8-1.9,4.8-4.7c0-2.7-2.2-4.5-4.8-4.5c-2.8,0-5,1.6-5,4.4
			C427,153.5,429.3,155.4,432,155.4z M431.9,142.4c2.4,0,4.2-1.3,4.2-3.7c0-1.4-0.7-3.9-4.2-3.9c-2.3,0-4.3,1.4-4.3,3.9
			C427.7,141.1,429.7,142.4,431.9,142.4z"/>
	</g>
	<g>
		<path fill="#323232" d="M464.5,135.8H453l-1.1,6.4l0.1,0.1c1.6-1.6,3.2-2.2,5.5-2.2c5.5,0,8.6,4.3,8.6,9.5
			c0,5.8-4.8,10.2-10.4,10.1c-5.4,0-10.3-3-10.4-8.9h5.7c0.3,2.5,2.1,4.2,4.6,4.2c3,0,4.8-2.6,4.8-5.4c0-2.9-1.8-5.2-4.8-5.2
			c-2,0-3.2,0.7-4.3,2.2h-5.1l2.8-15.5h15.6V135.8z"/>
	</g>
	<g>
		<path fill="#323232" d="M476.7,130.6c5,0,6.6,3.7,6.6,8.1c0,4.4-2.1,7.5-6.8,7.5c-4.9,0-6.6-3.3-6.6-7.7
			C469.9,134.1,472.1,130.6,476.7,130.6z M476.6,143.2c2.5,0,2.6-2.9,2.6-4.6c0-1.6-0.1-5-2.5-5c-2.6,0-2.7,3.2-2.7,5
			C474,140.3,474,143.2,476.6,143.2z M493.7,130.2h3.4L480.6,160h-3.5L493.7,130.2z M497.4,144.1c5,0,6.6,3.5,6.6,7.9
			c0,4.3-2.1,7.7-6.8,7.7c-4.9,0-6.6-3.5-6.6-7.9C490.6,147.5,492.7,144.1,497.4,144.1z M497.2,156.7c2.5,0,2.6-3.1,2.6-4.8
			c0-1.6-0.1-4.8-2.5-4.8c-2.6,0-2.7,2.9-2.7,4.8C494.7,153.6,494.7,156.7,497.2,156.7z"/>
	</g>
</g>
<g>
	<g>
		<path fill="#323232" d="M416,177.9l-2.9-4.8h1.9l1.8,3.1l1.8-3.1h1.9l-2.9,4.8v3H416V177.9z"/>
	</g>
	<g>
		<path fill="#323232" d="M422.2,175.1c1.8,0,2.9,1.2,2.9,3c0,1.8-1.2,3-2.9,3c-1.8,0-2.9-1.2-2.9-3
			C419.2,176.3,420.4,175.1,422.2,175.1z M422.2,179.9c1.1,0,1.4-0.9,1.4-1.8c0-0.9-0.3-1.8-1.4-1.8c-1.1,0-1.4,0.9-1.4,1.8
			C420.8,179,421.1,179.9,422.2,179.9z"/>
	</g>
	<g>
		<path fill="#323232" d="M431.2,181h-1.5v-0.8h0c-0.4,0.6-1.1,0.9-1.7,0.9c-1.7,0-2.1-0.9-2.1-2.3v-3.5h1.6v3.2
			c0,0.9,0.3,1.4,1,1.4c0.8,0,1.2-0.5,1.2-1.6v-3h1.6V181z"/>
	</g>
	<g>
		<path fill="#323232" d="M432.5,173.1h1.6v1.7c0,1-0.6,1.7-1.6,1.8v-0.7c0.6-0.2,0.7-0.6,0.7-1.1h-0.7V173.1z"/>
	</g>
	<g>
		<path fill="#323232" d="M434.7,175.3h1.5v1.1h0c0.3-0.7,1-1.2,1.8-1.2c0.1,0,0.2,0,0.3,0.1v1.5c-0.1,0-0.4-0.1-0.6-0.1
			c-1.2,0-1.5,0.8-1.5,1.8v2.6h-1.6V175.3z"/>
	</g>
	<g>
		<path fill="#323232" d="M440,178.5c0,1,0.5,1.4,1.4,1.4c0.6,0,1.1-0.4,1.2-0.7h1.4c-0.4,1.4-1.4,1.9-2.7,1.9c-1.8,0-2.9-1.2-2.9-3
			c0-1.7,1.2-3,2.9-3c1.9,0,2.9,1.6,2.8,3.4H440z M442.6,177.5c-0.1-0.8-0.5-1.2-1.2-1.2c-1,0-1.3,0.8-1.3,1.2H442.6z"/>
	</g>
	<g>
		<path fill="#323232" d="M447.5,177c0.1-1.5,1.4-1.9,2.7-1.9c1.1,0,2.5,0.3,2.5,1.6v3c0,0.5,0.1,1,0.2,1.3h-1.6
			c-0.1-0.2-0.1-0.4-0.1-0.6c-0.5,0.5-1.2,0.7-1.9,0.7c-1.1,0-1.9-0.5-1.9-1.7c0-2.6,3.9-1.2,3.8-2.5c0-0.7-0.5-0.8-1-0.8
			c-0.6,0-1,0.2-1,0.9H447.5z M451.1,178.2c-0.3,0.2-0.8,0.2-1.3,0.3c-0.5,0.1-0.9,0.3-0.9,0.8s0.5,0.7,1,0.7c1.2,0,1.3-1,1.3-1.3
			V178.2z"/>
	</g>
	<g>
		<path fill="#323232" d="M453.8,173.1h1.6v7.9h-1.6V173.1z"/>
	</g>
	<g>
		<path fill="#323232" d="M456.5,175.3h1.5v0.8h0c0.4-0.6,1-0.9,1.7-0.9c0.7,0,1.4,0.3,1.7,0.9c0.3-0.5,0.9-0.9,1.7-0.9
			c1.2,0,2.1,0.6,2.1,2v3.8h-1.6v-3.2c0-0.8-0.1-1.4-1-1.4c-0.9,0-1,0.7-1,1.4v3.2h-1.6v-3.2c0-0.7,0-1.4-0.9-1.4
			c-0.3,0-1.1,0.2-1.1,1.3v3.3h-1.6V175.3z"/>
	</g>
	<g>
		<path fill="#323232" d="M468.9,175.1c1.8,0,2.9,1.2,2.9,3c0,1.8-1.2,3-2.9,3c-1.8,0-2.9-1.2-2.9-3
			C466,176.3,467.1,175.1,468.9,175.1z M468.9,179.9c1.1,0,1.4-0.9,1.4-1.8c0-0.9-0.3-1.8-1.4-1.8c-1.1,0-1.4,0.9-1.4,1.8
			C467.5,179,467.9,179.9,468.9,179.9z"/>
	</g>
	<g>
		<path fill="#323232" d="M473.9,179.1c0,0.7,0.6,1,1.2,1c0.4,0,1-0.2,1-0.7c0-0.5-0.7-0.6-1.8-0.9c-0.9-0.2-1.8-0.5-1.8-1.5
			c0-1.5,1.3-1.8,2.5-1.8c1.2,0,2.4,0.4,2.5,1.8H476c0-0.6-0.5-0.8-1.1-0.8c-0.4,0-0.9,0.1-0.9,0.5c0,0.6,0.9,0.6,1.8,0.8
			c0.9,0.2,1.8,0.5,1.8,1.6c0,1.5-1.3,2-2.6,2c-1.3,0-2.6-0.5-2.7-2H473.9z"/>
	</g>
	<g>
		<path fill="#323232" d="M480.3,175.3h1.1v1h-1.1v2.8c0,0.5,0.1,0.7,0.7,0.7c0.2,0,0.3,0,0.5,0v1.2c-0.3,0-0.6,0.1-0.9,0.1
			c-1,0-1.8-0.2-1.8-1.4v-3.4h-0.9v-1h0.9v-1.7h1.6V175.3z"/>
	</g>
	<g>
		<path fill="#323232" d="M486.9,175.3h1.1v1h-1.1v2.8c0,0.5,0.1,0.7,0.7,0.7c0.2,0,0.3,0,0.5,0v1.2c-0.3,0-0.6,0.1-0.9,0.1
			c-1,0-1.8-0.2-1.8-1.4v-3.4h-0.9v-1h0.9v-1.7h1.6V175.3z"/>
	</g>
	<g>
		<path fill="#323232" d="M488.9,173.1h1.6v3h0c0.4-0.6,1.1-0.9,1.7-0.9c1.7,0,2.1,0.9,2.1,2.3v3.5h-1.6v-3.2c0-0.9-0.3-1.4-1-1.4
			c-0.8,0-1.2,0.5-1.2,1.6v3h-1.6V173.1z"/>
	</g>
	<g>
		<path fill="#323232" d="M496.5,178.5c0,1,0.5,1.4,1.4,1.4c0.6,0,1.1-0.4,1.2-0.7h1.4c-0.4,1.4-1.4,1.9-2.7,1.9
			c-1.8,0-2.9-1.2-2.9-3c0-1.7,1.2-3,2.9-3c1.9,0,2.9,1.6,2.8,3.4H496.5z M499,177.5c-0.1-0.8-0.5-1.2-1.2-1.2c-1,0-1.3,0.8-1.3,1.2
			H499z"/>
	</g>
	<g>
		<path fill="#323232" d="M501.4,175.3h1.5v1.1h0c0.3-0.7,1-1.2,1.8-1.2c0.1,0,0.2,0,0.3,0.1v1.5c-0.1,0-0.4-0.1-0.6-0.1
			c-1.2,0-1.5,0.8-1.5,1.8v2.6h-1.6V175.3z"/>
	</g>
	<g>
		<path fill="#323232" d="M506.7,178.5c0,1,0.5,1.4,1.4,1.4c0.6,0,1.1-0.4,1.2-0.7h1.4c-0.4,1.4-1.4,1.9-2.7,1.9
			c-1.8,0-2.9-1.2-2.9-3c0-1.7,1.2-3,2.9-3c1.9,0,2.9,1.6,2.8,3.4H506.7z M509.3,177.5c-0.1-0.8-0.5-1.2-1.2-1.2
			c-1,0-1.3,0.8-1.3,1.2H509.3z"/>
	</g>
	<g>
		<path fill="#323232" d="M511.4,179.3h1.7v1.7c0,1-0.8,1.7-1.7,1.8V182c0.5-0.1,0.8-0.5,0.8-1h-0.8V179.3z"/>
	</g>
	<g>
		<path fill="#323232" d="M437.8,187.1h1.6v4.2l2-2h1.8l-2.1,2.1l2.4,3.6h-1.9l-1.6-2.5l-0.6,0.6v2h-1.6V187.1z"/>
	</g>
	<g>
		<path fill="#323232" d="M444.7,192.5c0,1,0.5,1.4,1.4,1.4c0.6,0,1.1-0.4,1.2-0.7h1.4c-0.4,1.4-1.4,1.9-2.7,1.9
			c-1.8,0-2.9-1.2-2.9-3c0-1.7,1.2-3,2.9-3c1.9,0,2.9,1.6,2.8,3.4H444.7z M447.3,191.5c-0.1-0.8-0.5-1.2-1.2-1.2
			c-1,0-1.3,0.8-1.3,1.2H447.3z"/>
	</g>
	<g>
		<path fill="#323232" d="M451,192.5c0,1,0.5,1.4,1.4,1.4c0.6,0,1.1-0.4,1.2-0.7h1.4c-0.4,1.4-1.4,1.9-2.7,1.9c-1.8,0-2.9-1.2-2.9-3
			c0-1.7,1.2-3,2.9-3c1.9,0,2.9,1.6,2.8,3.4H451z M453.5,191.5c-0.1-0.8-0.5-1.2-1.2-1.2c-1,0-1.3,0.8-1.3,1.2H453.5z"/>
	</g>
	<g>
		<path fill="#323232" d="M455.9,189.3h1.5v0.7h0c0.4-0.6,1-0.9,1.7-0.9c1.8,0,2.6,1.4,2.6,3.1c0,1.5-0.8,2.9-2.5,2.9
			c-0.7,0-1.3-0.3-1.7-0.9h0v2.7h-1.6V189.3z M460.1,192.1c0-0.9-0.4-1.8-1.4-1.8c-1,0-1.4,0.9-1.4,1.8c0,0.9,0.4,1.8,1.4,1.8
			C459.8,193.9,460.1,193,460.1,192.1z"/>
	</g>
	<g>
		<path fill="#323232" d="M466.7,188.4h-1.6v-1.3h1.6V188.4z M465.1,189.3h1.6v5.7h-1.6V189.3z"/>
	</g>
	<g>
		<path fill="#323232" d="M469.7,189.3h1.1v1h-1.1v2.8c0,0.5,0.1,0.7,0.7,0.7c0.2,0,0.3,0,0.5,0v1.2c-0.3,0-0.6,0.1-0.9,0.1
			c-1,0-1.8-0.2-1.8-1.4v-3.4h-0.9v-1h0.9v-1.7h1.6V189.3z"/>
	</g>
	<g>
		<path fill="#323232" d="M479.6,195h-1.5v-0.8h0c-0.4,0.6-1.1,0.9-1.7,0.9c-1.7,0-2.1-0.9-2.1-2.3v-3.5h1.6v3.2
			c0,0.9,0.3,1.4,1,1.4c0.8,0,1.2-0.5,1.2-1.6v-3h1.6V195z"/>
	</g>
	<g>
		<path fill="#323232" d="M480.6,189.3h1.5v0.7h0c0.4-0.6,1-0.9,1.7-0.9c1.8,0,2.6,1.4,2.6,3.1c0,1.5-0.8,2.9-2.5,2.9
			c-0.7,0-1.3-0.3-1.7-0.9h0v2.7h-1.6V189.3z M484.8,192.1c0-0.9-0.4-1.8-1.4-1.8c-1,0-1.4,0.9-1.4,1.8c0,0.9,0.4,1.8,1.4,1.8
			C484.5,193.9,484.8,193,484.8,192.1z"/>
	</g>
	<g>
		<path fill="#323232" d="M487.2,193.3h1.7v1.7h-1.7V193.3z M488.9,189.2l-0.4,3.4h-0.8l-0.4-3.4v-2.1h1.6V189.2z"/>
	</g>
</g>
<g>
	<g>
		<path fill="#323232" d="M227.2,143.1h-1.4v-4.5h-1.8v-1.1c1,0,1.9-0.3,2-1.4h1.1V143.1z"/>
	</g>
	<g>
		<path fill="#323232" d="M230.9,136c1.4,0,2.6,0.9,2.6,3.6c0,2.8-1.2,3.7-2.6,3.7c-1.4,0-2.6-0.9-2.6-3.7
			C228.3,136.9,229.5,136,230.9,136z M230.9,142.1c1.2,0,1.2-1.7,1.2-2.5c0-0.7,0-2.4-1.2-2.4c-1.1,0-1.1,1.7-1.1,2.4
			C229.7,140.4,229.7,142.1,230.9,142.1z"/>
	</g>
	<g>
		<path fill="#323232" d="M236.7,136c1.4,0,2.6,0.9,2.6,3.6c0,2.8-1.2,3.7-2.6,3.7c-1.4,0-2.6-0.9-2.6-3.7
			C234.2,136.9,235.3,136,236.7,136z M236.7,142.1c1.2,0,1.2-1.7,1.2-2.5c0-0.7,0-2.4-1.2-2.4c-1.1,0-1.1,1.7-1.1,2.4
			C235.6,140.4,235.6,142.1,236.7,142.1z"/>
	</g>
	<g>
		<path fill="#323232" d="M240.2,138h0.8v0.7h0c0.3-0.6,0.9-0.8,1.6-0.8c1.6,0,2.4,1.3,2.4,2.7c0,1.5-0.8,2.7-2.4,2.7
			c-0.5,0-1.3-0.2-1.7-0.8h0v2.7h-0.8V138z M242.6,138.6c-1.1,0-1.6,1-1.6,1.9c0,1,0.5,2,1.6,2c1.2,0,1.5-1,1.5-2
			C244.2,139.5,243.7,138.6,242.6,138.6z"/>
	</g>
	<g>
		<path fill="#323232" d="M247.1,138h1v0.7h-1v3.2c0,0.4,0.1,0.5,0.6,0.5h0.4v0.7h-0.6c-0.9,0-1.2-0.2-1.2-1.1v-3.3h-0.9V138h0.9
			v-1.5h0.8V138z"/>
	</g>
	<g>
		<path fill="#323232" d="M249.5,141.5c0,0.8,0.7,1,1.4,1c0.5,0,1.2-0.1,1.2-0.8c0-1.3-3.4-0.4-3.4-2.4c0-1,1-1.5,1.9-1.5
			c1.2,0,2,0.4,2.1,1.6H252c-0.1-0.7-0.7-0.9-1.2-0.9c-0.5,0-1.1,0.1-1.1,0.7c0,0.6,0.9,0.7,1.7,0.9c0.8,0.2,1.7,0.5,1.7,1.5
			c0,1.2-1.1,1.6-2.2,1.6c-1.2,0-2.1-0.5-2.2-1.8H249.5z"/>
	</g>
</g>
<g>
	<g>
		<path fill="#323232" d="M227.2,187.6h-1.4v-4.5h-1.8V182c1,0,1.9-0.3,2-1.4h1.1V187.6z"/>
	</g>
	<g>
		<path fill="#323232" d="M230.9,180.5c1.4,0,2.6,0.9,2.6,3.6c0,2.8-1.2,3.7-2.6,3.7c-1.4,0-2.6-0.9-2.6-3.7
			C228.3,181.4,229.5,180.5,230.9,180.5z M230.9,186.6c1.2,0,1.2-1.7,1.2-2.5c0-0.7,0-2.4-1.2-2.4c-1.1,0-1.1,1.7-1.1,2.4
			C229.7,184.9,229.7,186.6,230.9,186.6z"/>
	</g>
	<g>
		<path fill="#323232" d="M236.7,180.5c1.4,0,2.6,0.9,2.6,3.6c0,2.8-1.2,3.7-2.6,3.7c-1.4,0-2.6-0.9-2.6-3.7
			C234.2,181.4,235.3,180.5,236.7,180.5z M236.7,186.6c1.2,0,1.2-1.7,1.2-2.5c0-0.7,0-2.4-1.2-2.4c-1.1,0-1.1,1.7-1.1,2.4
			C235.6,184.9,235.6,186.6,236.7,186.6z"/>
	</g>
	<g>
		<path fill="#323232" d="M240.2,182.5h0.8v0.7h0c0.3-0.6,0.9-0.8,1.6-0.8c1.6,0,2.4,1.3,2.4,2.7c0,1.5-0.8,2.7-2.4,2.7
			c-0.5,0-1.3-0.2-1.7-0.8h0v2.7h-0.8V182.5z M242.6,183.1c-1.1,0-1.6,1-1.6,1.9c0,1,0.5,2,1.6,2c1.2,0,1.5-1,1.5-2
			C244.2,184,243.7,183.1,242.6,183.1z"/>
	</g>
	<g>
		<path fill="#323232" d="M247.1,182.5h1v0.7h-1v3.2c0,0.4,0.1,0.5,0.6,0.5h0.4v0.7h-0.6c-0.9,0-1.2-0.2-1.2-1.1v-3.3h-0.9v-0.7h0.9
			v-1.5h0.8V182.5z"/>
	</g>
	<g>
		<path fill="#323232" d="M249.5,186c0,0.8,0.7,1,1.4,1c0.5,0,1.2-0.1,1.2-0.8c0-1.3-3.4-0.4-3.4-2.4c0-1,1-1.5,1.9-1.5
			c1.2,0,2,0.4,2.1,1.6H252c-0.1-0.7-0.7-0.9-1.2-0.9c-0.5,0-1.1,0.1-1.1,0.7c0,0.6,0.9,0.7,1.7,0.9c0.8,0.2,1.7,0.5,1.7,1.5
			c0,1.2-1.1,1.6-2.2,1.6c-1.2,0-2.1-0.5-2.2-1.8H249.5z"/>
	</g>
</g>
<g>
	<g>
		<path fill="#323232" d="M230.9,261.1H228l-0.3,1.6l0,0c0.4-0.4,0.8-0.5,1.4-0.5c1.4,0,2.2,1.1,2.2,2.4c0,1.4-1.2,2.5-2.6,2.5
			c-1.4,0-2.6-0.8-2.6-2.2h1.4c0.1,0.6,0.5,1,1.1,1c0.7,0,1.2-0.7,1.2-1.3c0-0.7-0.4-1.3-1.2-1.3c-0.5,0-0.8,0.2-1.1,0.6h-1.3
			l0.7-3.9h3.9V261.1z"/>
	</g>
	<g>
		<path fill="#323232" d="M234.5,259.8c1.4,0,2.6,0.9,2.6,3.6c0,2.8-1.2,3.7-2.6,3.7c-1.4,0-2.6-0.9-2.6-3.7
			C232,260.7,233.1,259.8,234.5,259.8z M234.5,265.9c1.2,0,1.2-1.7,1.2-2.5c0-0.7,0-2.4-1.2-2.4c-1.1,0-1.1,1.7-1.1,2.4
			C233.4,264.2,233.4,265.9,234.5,265.9z"/>
	</g>
	<g>
		<path fill="#323232" d="M238,261.8h0.8v0.7h0c0.3-0.6,0.9-0.8,1.6-0.8c1.6,0,2.4,1.3,2.4,2.7c0,1.5-0.8,2.7-2.4,2.7
			c-0.5,0-1.3-0.2-1.7-0.8h0v2.7H238V261.8z M240.4,262.4c-1.1,0-1.6,1-1.6,1.9c0,1,0.5,2,1.6,2c1.2,0,1.5-1,1.5-2
			C242,263.4,241.5,262.4,240.4,262.4z"/>
	</g>
	<g>
		<path fill="#323232" d="M244.9,261.8h1v0.7h-1v3.2c0,0.4,0.1,0.5,0.6,0.5h0.4v0.8h-0.6c-0.9,0-1.2-0.2-1.2-1.1v-3.3h-0.9v-0.7h0.9
			v-1.5h0.8V261.8z"/>
	</g>
	<g>
		<path fill="#323232" d="M247.3,265.3c0,0.8,0.7,1,1.4,1c0.5,0,1.2-0.1,1.2-0.8c0-1.3-3.4-0.4-3.4-2.4c0-1,1-1.5,1.9-1.5
			c1.2,0,2,0.4,2.1,1.6h-0.8c-0.1-0.7-0.7-0.9-1.2-0.9c-0.5,0-1.1,0.1-1.1,0.7c0,0.6,0.9,0.7,1.7,0.9c0.8,0.2,1.7,0.5,1.7,1.5
			c0,1.2-1.1,1.6-2.2,1.6c-1.2,0-2.1-0.5-2.2-1.7H247.3z"/>
	</g>
</g>
<g>
	<g>
		<path fill="#323232" d="M230.9,90.3H228l-0.3,1.6l0,0c0.4-0.4,0.8-0.5,1.4-0.5c1.4,0,2.2,1.1,2.2,2.4c0,1.4-1.2,2.5-2.6,2.5
			c-1.4,0-2.6-0.8-2.6-2.2h1.4c0.1,0.6,0.5,1,1.1,1c0.7,0,1.2-0.7,1.2-1.3c0-0.7-0.4-1.3-1.2-1.3c-0.5,0-0.8,0.2-1.1,0.6h-1.3
			l0.7-3.9h3.9V90.3z"/>
	</g>
	<g>
		<path fill="#323232" d="M234.5,89c1.4,0,2.6,0.9,2.6,3.6c0,2.8-1.2,3.7-2.6,3.7c-1.4,0-2.6-0.9-2.6-3.7
			C232,89.9,233.1,89,234.5,89z M234.5,95.1c1.2,0,1.2-1.7,1.2-2.5c0-0.7,0-2.4-1.2-2.4c-1.1,0-1.1,1.7-1.1,2.4
			C233.4,93.4,233.4,95.1,234.5,95.1z"/>
	</g>
	<g>
		<path fill="#323232" d="M238,91h0.8v0.7h0c0.3-0.6,0.9-0.8,1.6-0.8c1.6,0,2.4,1.3,2.4,2.7c0,1.5-0.8,2.7-2.4,2.7
			c-0.5,0-1.3-0.2-1.7-0.8h0v2.7H238V91z M240.4,91.6c-1.1,0-1.6,1-1.6,1.9c0,1,0.5,2,1.6,2c1.2,0,1.5-1,1.5-2
			C242,92.5,241.5,91.6,240.4,91.6z"/>
	</g>
	<g>
		<path fill="#323232" d="M244.9,91h1v0.7h-1v3.2c0,0.4,0.1,0.5,0.6,0.5h0.4v0.8h-0.6c-0.9,0-1.2-0.2-1.2-1.1v-3.3h-0.9V91h0.9v-1.5
			h0.8V91z"/>
	</g>
	<g>
		<path fill="#323232" d="M247.3,94.5c0,0.8,0.7,1,1.4,1c0.5,0,1.2-0.1,1.2-0.8c0-1.3-3.4-0.4-3.4-2.4c0-1,1-1.5,1.9-1.5
			c1.2,0,2,0.4,2.1,1.6h-0.8c-0.1-0.7-0.7-0.9-1.2-0.9c-0.5,0-1.1,0.1-1.1,0.7c0,0.6,0.9,0.7,1.7,0.9c0.8,0.2,1.7,0.5,1.7,1.5
			c0,1.2-1.1,1.6-2.2,1.6c-1.2,0-2.1-0.5-2.2-1.7H247.3z"/>
	</g>
</g>
</svg>
