<?xml version="1.0" encoding="utf-8"?>
<!-- Generator: Adobe Illustrator 18.0.0, SVG Export Plug-In . SVG Version: 6.00 Build 0)  -->
<!DOCTYPE svg PUBLIC "-//W3C//DTD SVG 1.1//EN" "http://www.w3.org/Graphics/SVG/1.1/DTD/svg11.dtd">
<svg version="1.1" id="Layer_1" xmlns="http://www.w3.org/2000/svg" xmlns:xlink="http://www.w3.org/1999/xlink" x="0px" y="0px"
	 viewBox="0 0 230 211" width="230" height="211"  enable-background="new 0 0 230 211" xml:space="preserve">
<g>
	<rect y="-1" fill="#F3F3F3" width="230" height="211"/>
</g>
<g>
	<g>
		<path fill="#464646" d="M45.3,26.3h1.3v12.1h7.4v1.1h-8.6V26.3z"/>
	</g>
	<g>
		<path fill="#464646" d="M63.9,34.7c0,2.7-1.6,5-4.5,5s-4.5-2.3-4.5-5c0-2.7,1.6-5,4.5-5S63.9,32,63.9,34.7z M56.1,34.7
			c0,2,1.1,4.1,3.3,4.1c2.2,0,3.3-2,3.3-4.1s-1.1-4.1-3.3-4.1C57.2,30.7,56.1,32.7,56.1,34.7z"/>
	</g>
	<g>
		<path fill="#464646" d="M73.8,38.7c0,2.9-1.1,4.6-4.2,4.6c-1.9,0-3.8-0.9-3.9-2.9h1.2c0.2,1.4,1.5,1.9,2.8,1.9
			c2.2,0,3.1-1.3,3.1-3.6v-1.3h0c-0.5,1.2-1.6,2-3,2c-3,0-4.3-2.2-4.3-4.9c0-2.6,1.6-4.8,4.3-4.8c1.4,0,2.6,0.9,3,1.9h0V30h1.2V38.7
			z M72.6,34.6c0-1.9-0.8-3.9-3.1-3.9s-3.1,2-3.1,3.9c0,1.9,1,3.8,3.1,3.8C71.6,38.4,72.6,36.5,72.6,34.6z"/>
	</g>
	<g>
		<path fill="#464646" d="M80.8,26.3H82v13.2h-1.3V26.3z"/>
	</g>
	<g>
		<path fill="#464646" d="M84.6,30h1.2v1.6h0c0.4-1.1,1.7-1.9,3-1.9c2.7,0,3.5,1.4,3.5,3.7v6.1h-1.2v-5.9c0-1.6-0.5-2.9-2.4-2.9
			c-1.9,0-2.9,1.4-3,3.3v5.6h-1.2V30z"/>
	</g>
</g>
<g>
	<rect x="42" y="70" fill="#FCFCFC" width="151" height="24"/>
</g>
<g>
	<rect x="42" y="120" fill="#FCFCFC" width="152" height="23"/>
</g>
<g>
	<g>
		<path fill="#5A5A5A" d="M48.6,60.2c0,1.3-0.8,2-2.1,2c-1.3,0-2.1-0.6-2.1-2v-3.1h1.1v3.1c0,0.5,0.1,1.1,1,1.1c0.8,0,1-0.3,1-1.1
			v-3.1h1.1V60.2z"/>
	</g>
	<g>
		<path fill="#5A5A5A" d="M50.2,60.9c0,0.4,0.4,0.6,0.8,0.6c0.3,0,0.6-0.1,0.6-0.5c0-0.3-0.4-0.4-1.1-0.6c-0.6-0.1-1.1-0.3-1.1-1
			c0-0.9,0.8-1.1,1.6-1.1c0.8,0,1.5,0.3,1.6,1.1h-0.9c0-0.4-0.3-0.5-0.7-0.5c-0.2,0-0.5,0-0.5,0.3c0,0.4,0.6,0.4,1.1,0.5
			c0.6,0.1,1.1,0.3,1.1,1c0,0.9-0.8,1.2-1.6,1.2c-0.8,0-1.6-0.3-1.7-1.3H50.2z"/>
	</g>
	<g>
		<path fill="#5A5A5A" d="M54,60.5c0,0.6,0.3,0.9,0.9,0.9c0.4,0,0.7-0.2,0.8-0.5h0.9c-0.3,0.8-0.9,1.2-1.7,1.2
			c-1.1,0-1.8-0.8-1.8-1.9c0-1.1,0.7-1.9,1.8-1.9c1.2,0,1.8,1,1.7,2.1H54z M55.6,59.9c-0.1-0.5-0.3-0.8-0.8-0.8
			c-0.6,0-0.8,0.5-0.8,0.8H55.6z"/>
	</g>
	<g>
		<path fill="#5A5A5A" d="M57.3,58.5h0.9v0.7h0c0.2-0.4,0.7-0.8,1.1-0.8c0.1,0,0.1,0,0.2,0v0.9c-0.1,0-0.2,0-0.4,0
			c-0.7,0-1,0.5-1,1.1V62h-1V58.5z"/>
	</g>
	<g>
		<path fill="#5A5A5A" d="M60,58.5h0.9V59h0c0.2-0.4,0.7-0.6,1.1-0.6c1,0,1.3,0.6,1.3,1.5V62h-1v-2c0-0.6-0.2-0.9-0.6-0.9
			c-0.5,0-0.8,0.3-0.8,1V62h-1V58.5z"/>
	</g>
	<g>
		<path fill="#5A5A5A" d="M64.1,59.6c0.1-0.9,0.9-1.2,1.7-1.2c0.7,0,1.6,0.2,1.6,1v1.9c0,0.3,0,0.7,0.1,0.8h-1
			c0-0.1-0.1-0.2-0.1-0.3c-0.3,0.3-0.8,0.4-1.2,0.4c-0.7,0-1.2-0.3-1.2-1.1c0-1.6,2.4-0.8,2.4-1.6c0-0.4-0.3-0.5-0.6-0.5
			c-0.4,0-0.6,0.2-0.7,0.5H64.1z M66.4,60.3c-0.2,0.1-0.5,0.2-0.8,0.2C65.3,60.6,65,60.7,65,61s0.3,0.5,0.6,0.5
			c0.8,0,0.8-0.6,0.8-0.8V60.3z"/>
	</g>
	<g>
		<path fill="#5A5A5A" d="M68.2,58.5h0.9V59h0c0.3-0.4,0.6-0.6,1.1-0.6c0.4,0,0.8,0.2,1,0.6c0.2-0.3,0.6-0.6,1.1-0.6
			c0.8,0,1.3,0.4,1.3,1.3V62h-1v-2c0-0.5,0-0.9-0.6-0.9c-0.6,0-0.7,0.5-0.7,0.9v2h-1v-2c0-0.4,0-0.9-0.6-0.9c-0.2,0-0.7,0.1-0.7,0.8
			V62h-1V58.5z"/>
	</g>
	<g>
		<path fill="#5A5A5A" d="M75.3,60.5c0,0.6,0.3,0.9,0.9,0.9c0.4,0,0.7-0.2,0.8-0.5h0.9c-0.3,0.8-0.9,1.2-1.7,1.2
			c-1.1,0-1.8-0.8-1.8-1.9c0-1.1,0.7-1.9,1.8-1.9c1.2,0,1.8,1,1.7,2.1H75.3z M76.9,59.9c-0.1-0.5-0.3-0.8-0.8-0.8
			c-0.6,0-0.8,0.5-0.8,0.8H76.9z"/>
	</g>
</g>
<g>
	<g>
		<path fill="#5A5A5A" d="M44.4,108.8h2.2c1.2,0,1.7,0.8,1.7,1.6c0,0.8-0.5,1.6-1.7,1.6h-1.1v1.8h-1.1V108.8z M45.5,111.1h0.8
			c0.5,0,1-0.1,1-0.7s-0.5-0.7-1-0.7h-0.8V111.1z"/>
	</g>
	<g>
		<path fill="#5A5A5A" d="M48.8,111.2c0.1-0.9,0.9-1.2,1.7-1.2c0.7,0,1.6,0.2,1.6,1v1.9c0,0.3,0,0.6,0.1,0.8h-1
			c0-0.1-0.1-0.2-0.1-0.3c-0.3,0.3-0.8,0.4-1.2,0.4c-0.7,0-1.2-0.3-1.2-1.1c0-1.6,2.4-0.8,2.4-1.6c0-0.4-0.3-0.5-0.6-0.5
			c-0.4,0-0.6,0.2-0.7,0.5H48.8z M51.1,111.9c-0.2,0.1-0.5,0.2-0.8,0.2c-0.3,0.1-0.6,0.2-0.6,0.5s0.3,0.5,0.6,0.5
			c0.8,0,0.8-0.6,0.8-0.8V111.9z"/>
	</g>
	<g>
		<path fill="#5A5A5A" d="M53.6,112.5c0,0.4,0.4,0.6,0.8,0.6c0.3,0,0.6-0.1,0.6-0.5c0-0.3-0.4-0.4-1.1-0.6c-0.6-0.1-1.1-0.3-1.1-1
			c0-0.9,0.8-1.1,1.6-1.1c0.8,0,1.5,0.3,1.6,1.1H55c0-0.4-0.3-0.5-0.7-0.5c-0.2,0-0.5,0-0.5,0.3c0,0.4,0.6,0.4,1.1,0.5
			c0.6,0.1,1.1,0.3,1.1,1c0,0.9-0.8,1.2-1.6,1.2c-0.8,0-1.6-0.3-1.7-1.3H53.6z"/>
	</g>
	<g>
		<path fill="#5A5A5A" d="M57.4,112.5c0,0.4,0.4,0.6,0.8,0.6c0.3,0,0.6-0.1,0.6-0.5c0-0.3-0.4-0.4-1.1-0.6c-0.6-0.1-1.1-0.3-1.1-1
			c0-0.9,0.8-1.1,1.6-1.1c0.8,0,1.5,0.3,1.6,1.1h-0.9c0-0.4-0.3-0.5-0.7-0.5c-0.2,0-0.5,0-0.5,0.3c0,0.4,0.6,0.4,1.1,0.5
			c0.6,0.1,1.1,0.3,1.1,1c0,0.9-0.8,1.2-1.6,1.2c-0.8,0-1.6-0.3-1.7-1.3H57.4z"/>
	</g>
	<g>
		<path fill="#5A5A5A" d="M64.4,113.7h-1l-0.6-2.4h0l-0.6,2.4h-1l-1.1-3.6h1l0.7,2.4h0l0.6-2.4h1l0.6,2.4h0l0.7-2.4h1L64.4,113.7z"
			/>
	</g>
	<g>
		<path fill="#5A5A5A" d="M67.6,110c1.1,0,1.9,0.7,1.9,1.9c0,1.1-0.7,1.9-1.9,1.9c-1.1,0-1.8-0.7-1.8-1.9
			C65.8,110.8,66.5,110,67.6,110z M67.6,113c0.7,0,0.9-0.6,0.9-1.1c0-0.6-0.2-1.1-0.9-1.1c-0.7,0-0.9,0.6-0.9,1.1
			C66.8,112.5,67,113,67.6,113z"/>
	</g>
	<g>
		<path fill="#5A5A5A" d="M70.2,110.1h0.9v0.7h0c0.2-0.4,0.7-0.8,1.1-0.8c0.1,0,0.1,0,0.2,0v0.9c-0.1,0-0.2,0-0.4,0
			c-0.7,0-1,0.5-1,1.1v1.6h-1V110.1z"/>
	</g>
	<g>
		<path fill="#5A5A5A" d="M75.5,113.2L75.5,113.2c-0.2,0.4-0.6,0.6-1.1,0.6c-1.1,0-1.6-0.9-1.6-1.9c0-1,0.5-1.9,1.6-1.9
			c0.4,0,0.8,0.2,1.1,0.5h0v-1.8h1v4.9h-0.9V113.2z M74.6,110.8c-0.6,0-0.9,0.6-0.9,1.1c0,0.6,0.3,1.1,0.9,1.1
			c0.6,0,0.8-0.6,0.8-1.2C75.5,111.3,75.3,110.8,74.6,110.8z"/>
	</g>
</g>
<g>
	<g>
		<path fill="#949494" d="M54.8,79.3h0.5v3.6c0,1-0.4,1.5-1.4,1.5c-1.1,0-1.4-0.8-1.4-1.7h0.5c0,0.4,0,1.3,0.9,1.3
			c0.7,0,0.9-0.4,0.9-1.3V79.3z"/>
	</g>
	<g>
		<path fill="#949494" d="M59.3,82.4c0,1-0.6,1.9-1.7,1.9c-1.1,0-1.7-0.9-1.7-1.9c0-1,0.6-1.9,1.7-1.9
			C58.7,80.5,59.3,81.4,59.3,82.4z M56.3,82.4c0,0.8,0.4,1.5,1.2,1.5c0.8,0,1.3-0.8,1.3-1.5c0-0.8-0.4-1.5-1.3-1.5
			C56.8,80.9,56.3,81.7,56.3,82.4z"/>
	</g>
	<g>
		<path fill="#949494" d="M60,79.3h0.4v2h0c0.2-0.4,0.6-0.7,1.1-0.7c1,0,1.3,0.5,1.3,1.4v2.3h-0.4V82c0-0.6-0.2-1.1-0.9-1.1
			c-0.7,0-1.1,0.5-1.1,1.2v2.1H60V79.3z"/>
	</g>
	<g>
		<path fill="#949494" d="M63.7,80.6h0.4v0.6h0c0.2-0.4,0.6-0.7,1.1-0.7c1,0,1.3,0.5,1.3,1.4v2.3h-0.4V82c0-0.6-0.2-1.1-0.9-1.1
			c-0.7,0-1.1,0.5-1.1,1.2v2.1h-0.4V80.6z"/>
	</g>
	<g>
		<path fill="#949494" d="M70.7,82.4c-0.1,0.3-0.1,0.6,0.1,0.6c0.6,0,1.2-0.9,1.2-1.7c0-1.1-0.9-1.8-2-1.8c-1.3,0-2.2,1-2.2,2.3
			c0,1.3,0.9,2.2,2.2,2.2c0.7,0,1.4-0.4,1.8-0.9h0.4c-0.4,0.8-1.3,1.2-2.1,1.2c-1.5,0-2.6-1.1-2.6-2.6c0-1.4,1.1-2.6,2.5-2.6
			c1.3,0,2.3,0.9,2.3,2.2c0,1.1-0.8,2-1.6,2c-0.2,0-0.4-0.2-0.5-0.5h0c-0.2,0.2-0.5,0.5-0.9,0.5c-0.6,0-0.9-0.5-0.9-1
			c0-1,0.7-2,1.6-2c0.3,0,0.6,0.2,0.7,0.6l0.2-0.4h0.4L70.7,82.4z M68.8,82.3c0,0.4,0.2,0.7,0.6,0.7c0.6,0,1.1-1,1.1-1.6
			c0-0.3-0.3-0.6-0.5-0.6C69.3,80.7,68.8,81.6,68.8,82.3z"/>
	</g>
	<g>
		<path fill="#949494" d="M76,84.2h-0.4v-0.6h0c-0.2,0.5-0.7,0.7-1.2,0.7c-0.9,0-1.3-0.5-1.3-1.4v-2.3h0.4v2.3c0,0.6,0.3,1,1,1
			c0.7,0,1.1-0.7,1.1-1.4v-1.9H76V84.2z"/>
	</g>
	<g>
		<path fill="#949494" d="M79,81.7c0-0.5-0.4-0.8-0.9-0.8c-0.4,0-0.8,0.2-0.8,0.6c0,0.4,0.4,0.5,0.7,0.6l0.6,0.1c0.5,0.1,1,0.4,1,1
			c0,0.8-0.8,1.1-1.4,1.1c-0.8,0-1.4-0.4-1.5-1.3h0.4c0,0.6,0.5,0.9,1.1,0.9c0.4,0,1-0.2,1-0.7c0-0.4-0.4-0.6-0.8-0.7l-0.6-0.1
			c-0.6-0.1-1-0.4-1-1c0-0.7,0.7-1,1.3-1c0.7,0,1.3,0.4,1.3,1.1H79z"/>
	</g>
	<g>
		<path fill="#949494" d="M80.2,84.2v-0.7h0.6v0.7H80.2z"/>
	</g>
	<g>
		<path fill="#949494" d="M81.6,79.3h0.4V80h-0.4V79.3z M81.6,80.6h0.4v3.6h-0.4V80.6z"/>
	</g>
	<g>
		<path fill="#949494" d="M82.9,79.3h0.4v2h0c0.2-0.5,0.7-0.8,1.2-0.8c1.1,0,1.6,0.9,1.6,1.9c0,1-0.5,1.9-1.6,1.9
			c-0.6,0-1.1-0.3-1.3-0.8h0v0.7h-0.4V79.3z M84.6,80.9c-0.9,0-1.2,0.8-1.2,1.5c0,0.7,0.3,1.5,1.2,1.5c0.8,0,1.2-0.8,1.2-1.5
			C85.8,81.7,85.5,80.9,84.6,80.9z"/>
	</g>
	<g>
		<path fill="#949494" d="M87,80.6h0.4v0.6h0c0.2-0.4,0.6-0.7,1.2-0.7c0.5,0,0.9,0.2,1,0.7c0.2-0.5,0.7-0.7,1.1-0.7
			c0.8,0,1.2,0.4,1.2,1.3v2.4h-0.4v-2.4c0-0.6-0.2-0.9-0.8-0.9c-0.8,0-1,0.6-1,1.3v2h-0.4v-2.4c0-0.5-0.2-0.9-0.7-0.9
			c-0.7,0-1.1,0.6-1.1,1.3v2H87V80.6z"/>
	</g>
	<g>
		<path fill="#949494" d="M92.7,84.2v-0.7h0.6v0.7H92.7z"/>
	</g>
	<g>
		<path fill="#949494" d="M96.6,81.7c-0.1-0.5-0.4-0.9-1-0.9c-0.8,0-1.2,0.8-1.2,1.5c0,0.8,0.4,1.5,1.2,1.5c0.5,0,1-0.4,1-1H97
			c-0.1,0.9-0.7,1.4-1.5,1.4c-1.1,0-1.7-0.9-1.7-1.9c0-1,0.6-1.9,1.7-1.9c0.8,0,1.3,0.4,1.4,1.2H96.6z"/>
	</g>
	<g>
		<path fill="#949494" d="M100.9,82.4c0,1-0.6,1.9-1.7,1.9c-1.1,0-1.7-0.9-1.7-1.9c0-1,0.6-1.9,1.7-1.9
			C100.3,80.5,100.9,81.4,100.9,82.4z M97.9,82.4c0,0.8,0.4,1.5,1.3,1.5c0.8,0,1.2-0.8,1.2-1.5c0-0.8-0.4-1.5-1.2-1.5
			C98.4,80.9,97.9,81.7,97.9,82.4z"/>
	</g>
	<g>
		<path fill="#949494" d="M101.6,80.6h0.4v0.6h0c0.2-0.4,0.6-0.7,1.2-0.7c0.5,0,0.9,0.2,1,0.7c0.2-0.5,0.7-0.7,1.1-0.7
			c0.8,0,1.2,0.4,1.2,1.3v2.4h-0.4v-2.4c0-0.6-0.2-0.9-0.8-0.9c-0.8,0-1,0.6-1,1.3v2h-0.4v-2.4c0-0.5-0.2-0.9-0.7-0.9
			c-0.7,0-1.1,0.6-1.1,1.3v2h-0.4V80.6z"/>
	</g>
</g>
<g>
	<g>
		<path fill="#949494" d="M54.1,129.8c0.7,0,1.2,0.5,1.2,1.2c0,0.7-0.6,1.2-1.2,1.2c-0.7,0-1.2-0.6-1.2-1.2
			C52.8,130.4,53.4,129.8,54.1,129.8z"/>
	</g>
	<g>
		<path fill="#949494" d="M59.3,129.8c0.7,0,1.2,0.5,1.2,1.2c0,0.7-0.6,1.2-1.2,1.2c-0.7,0-1.2-0.6-1.2-1.2
			C58,130.4,58.6,129.8,59.3,129.8z"/>
	</g>
	<g>
		<path fill="#949494" d="M64.4,129.8c0.7,0,1.2,0.5,1.2,1.2c0,0.7-0.6,1.2-1.2,1.2c-0.7,0-1.2-0.6-1.2-1.2
			C63.2,130.4,63.8,129.8,64.4,129.8z"/>
	</g>
	<g>
		<path fill="#949494" d="M69.6,129.8c0.7,0,1.2,0.5,1.2,1.2c0,0.7-0.6,1.2-1.2,1.2c-0.7,0-1.2-0.6-1.2-1.2
			C68.4,130.4,68.9,129.8,69.6,129.8z"/>
	</g>
	<g>
		<path fill="#949494" d="M74.8,129.8c0.7,0,1.2,0.5,1.2,1.2c0,0.7-0.6,1.2-1.2,1.2c-0.7,0-1.2-0.6-1.2-1.2
			C73.6,130.4,74.1,129.8,74.8,129.8z"/>
	</g>
	<g>
		<path fill="#949494" d="M80,129.8c0.7,0,1.2,0.5,1.2,1.2c0,0.7-0.6,1.2-1.2,1.2c-0.7,0-1.2-0.6-1.2-1.2
			C78.8,130.4,79.3,129.8,80,129.8z"/>
	</g>
	<g>
		<path fill="#949494" d="M85.2,129.8c0.7,0,1.2,0.5,1.2,1.2c0,0.7-0.6,1.2-1.2,1.2c-0.7,0-1.2-0.6-1.2-1.2
			C84,130.4,84.5,129.8,85.2,129.8z"/>
	</g>
	<g>
		<path fill="#949494" d="M90.4,129.8c0.7,0,1.2,0.5,1.2,1.2c0,0.7-0.6,1.2-1.2,1.2c-0.7,0-1.2-0.6-1.2-1.2
			C89.1,130.4,89.7,129.8,90.4,129.8z"/>
	</g>
	<g>
		<path fill="#949494" d="M95.6,129.8c0.7,0,1.2,0.5,1.2,1.2c0,0.7-0.6,1.2-1.2,1.2c-0.7,0-1.2-0.6-1.2-1.2
			C94.3,130.4,94.9,129.8,95.6,129.8z"/>
	</g>
</g>
<g>
	<rect x="140" y="160" fill="#6EECD7" width="54" height="27"/>
</g>
<g>
	<g>
		<path fill="#464646" d="M155.3,169.6h1.4v5.2h3.1v1.2h-4.6V169.6z"/>
	</g>
	<g>
		<path fill="#464646" d="M162.6,171.2c1.5,0,2.4,1,2.4,2.5c0,1.5-0.9,2.5-2.4,2.5c-1.5,0-2.4-1-2.4-2.5
			C160.2,172.2,161.1,171.2,162.6,171.2z M162.6,175.2c0.9,0,1.1-0.7,1.1-1.5c0-0.7-0.3-1.5-1.1-1.5c-0.9,0-1.1,0.7-1.1,1.5
			C161.5,174.4,161.7,175.2,162.6,175.2z"/>
	</g>
	<g>
		<path fill="#464646" d="M170.1,175.7c0,0.8-0.3,2.1-2.4,2.1c-0.9,0-2-0.4-2.1-1.5h1.3c0.1,0.5,0.5,0.6,1,0.6c0.7,0,1-0.5,1-1.2
			v-0.6h0c-0.3,0.5-0.8,0.7-1.4,0.7c-1.4,0-2-1.1-2-2.3c0-1.2,0.7-2.3,2-2.3c0.6,0,1.1,0.2,1.4,0.7h0v-0.6h1.2V175.7z M168.9,173.6
			c0-0.8-0.3-1.4-1.1-1.4c-0.7,0-1,0.6-1,1.3c0,0.7,0.2,1.4,1,1.4C168.5,174.9,168.9,174.3,168.9,173.6z"/>
	</g>
	<g>
		<path fill="#464646" d="M173.2,169.6h1.4v6.4h-1.4V169.6z"/>
	</g>
	<g>
		<path fill="#464646" d="M175.6,171.3h1.2v0.6h0c0.3-0.5,0.9-0.8,1.4-0.8c1.4,0,1.7,0.8,1.7,1.9v2.9h-1.3v-2.6
			c0-0.8-0.2-1.1-0.8-1.1c-0.7,0-1,0.4-1,1.3v2.4h-1.3V171.3z"/>
	</g>
</g>
</svg>
