<?xml version="1.0" encoding="utf-8"?>
<!-- Generator: Adobe Illustrator 17.1.0, SVG Export Plug-In . SVG Version: 6.00 Build 0)  -->
<!DOCTYPE svg PUBLIC "-//W3C//DTD SVG 1.1//EN" "http://www.w3.org/Graphics/SVG/1.1/DTD/svg11.dtd">
<svg version="1.1" xmlns="http://www.w3.org/2000/svg" xmlns:xlink="http://www.w3.org/1999/xlink" x="0px" y="0px"
	 viewBox="0 0 311 168" width="311" height="168"  enable-background="new 0 0 311 168" xml:space="preserve">
<g id="Layer_1">
	<rect x="0" fill="#264A60" width="311" height="168"/>
	<g>
		<path fill="#FFFFFF" d="M39.029,56c1.475,0,2.729,0.214,3.762,0.644c1.035,0.429,1.875,0.996,2.525,1.699
			c0.648,0.705,1.121,1.507,1.418,2.409c0.297,0.902,0.445,1.837,0.445,2.805c0,0.946-0.148,1.876-0.445,2.788
			c-0.297,0.913-0.77,1.722-1.418,2.426c-0.65,0.704-1.49,1.271-2.525,1.699c-1.033,0.429-2.287,0.644-3.762,0.644h-5.445v8.448
			h-5.18V56H39.029z M37.611,67.087c0.594,0,1.164-0.044,1.715-0.132s1.033-0.259,1.453-0.512c0.416-0.252,0.752-0.61,1.006-1.072
			c0.252-0.462,0.379-1.067,0.379-1.815c0-0.748-0.127-1.353-0.379-1.815c-0.254-0.462-0.59-0.819-1.006-1.073
			c-0.42-0.253-0.902-0.423-1.453-0.512c-0.551-0.087-1.121-0.132-1.715-0.132h-4.027v7.062H37.611z"/>
		<path fill="#FFFFFF" d="M61.469,79.562v-2.376h-0.098c-0.596,0.99-1.365,1.705-2.311,2.145c-0.947,0.44-1.914,0.66-2.904,0.66
			c-1.254,0-2.283-0.165-3.086-0.495c-0.803-0.33-1.436-0.797-1.896-1.403c-0.463-0.605-0.787-1.342-0.975-2.211
			c-0.188-0.869-0.279-1.832-0.279-2.887V62.5h4.686v9.636c0,1.408,0.219,2.458,0.66,3.152c0.439,0.693,1.221,1.04,2.342,1.04
			c1.277,0,2.201-0.38,2.773-1.138c0.57-0.759,0.857-2.007,0.857-3.746V62.5h4.686v17.061H61.469z"/>
		<path fill="#FFFFFF" d="M73.943,62.5v3.168h0.064c0.221-0.528,0.518-1.017,0.893-1.469c0.373-0.451,0.803-0.836,1.287-1.155
			c0.482-0.319,1-0.566,1.551-0.743c0.549-0.176,1.121-0.264,1.715-0.264c0.309,0,0.648,0.055,1.023,0.165v4.356
			c-0.221-0.044-0.484-0.083-0.793-0.116c-0.307-0.033-0.604-0.049-0.891-0.049c-0.857,0-1.584,0.143-2.178,0.429
			c-0.594,0.286-1.072,0.677-1.436,1.172s-0.621,1.073-0.775,1.733c-0.154,0.66-0.23,1.375-0.23,2.145v7.689h-4.686V62.5H73.943z"/>
		<path fill="#FFFFFF" d="M86.746,75.469c0.705,0.682,1.717,1.023,3.037,1.023c0.945,0,1.76-0.236,2.441-0.709
			c0.682-0.473,1.1-0.973,1.254-1.502h4.125c-0.66,2.046-1.672,3.51-3.035,4.389c-1.365,0.88-3.016,1.32-4.951,1.32
			c-1.342,0-2.553-0.214-3.629-0.643c-1.078-0.429-1.992-1.04-2.74-1.832s-1.324-1.738-1.732-2.838
			c-0.406-1.1-0.609-2.31-0.609-3.63c0-1.276,0.209-2.464,0.627-3.564c0.418-1.1,1.012-2.051,1.781-2.854
			c0.77-0.803,1.688-1.436,2.756-1.897c1.066-0.462,2.25-0.693,3.547-0.693c1.453,0,2.717,0.28,3.795,0.841s1.965,1.315,2.656,2.26
			c0.693,0.946,1.193,2.024,1.502,3.234c0.309,1.21,0.418,2.475,0.33,3.795H85.592C85.658,73.688,86.043,74.788,86.746,75.469z
			 M92.043,66.493c-0.561-0.616-1.414-0.924-2.557-0.924c-0.748,0-1.369,0.127-1.865,0.379c-0.494,0.253-0.891,0.567-1.188,0.941
			c-0.297,0.374-0.506,0.77-0.627,1.188c-0.121,0.418-0.193,0.792-0.215,1.122h7.623C92.994,68.011,92.604,67.11,92.043,66.493z"/>
		<path fill="#FFFFFF" d="M110.672,56l9.24,23.562h-2.41l-2.871-7.326h-10.725l-2.838,7.326h-2.377L108.164,56H110.672z
			 M113.873,70.321l-4.555-12.078L104.6,70.321H113.873z"/>
		<path fill="#FFFFFF" d="M123.574,62.533v3.234h0.066c0.482-1.188,1.27-2.106,2.359-2.756c1.088-0.648,2.326-0.973,3.713-0.973
			c1.297,0,2.424,0.242,3.381,0.726c0.957,0.484,1.756,1.138,2.393,1.964c0.639,0.825,1.111,1.782,1.42,2.871
			s0.463,2.239,0.463,3.448c0,1.21-0.154,2.359-0.463,3.448s-0.781,2.046-1.42,2.871c-0.637,0.825-1.436,1.474-2.393,1.947
			c-0.957,0.473-2.084,0.709-3.381,0.709c-0.617,0-1.232-0.077-1.85-0.231c-0.615-0.154-1.188-0.385-1.715-0.693
			c-0.527-0.308-0.996-0.693-1.402-1.155c-0.408-0.462-0.721-1.001-0.941-1.617h-0.066v9.504h-2.078V62.533H123.574z
			 M134.977,68.424c-0.211-0.869-0.541-1.644-0.99-2.326c-0.451-0.682-1.029-1.238-1.732-1.667
			c-0.705-0.429-1.551-0.644-2.541-0.644c-1.145,0-2.102,0.198-2.871,0.594c-0.771,0.396-1.387,0.924-1.848,1.584
			c-0.463,0.66-0.787,1.43-0.975,2.31c-0.188,0.88-0.281,1.804-0.281,2.772c0,0.88,0.105,1.755,0.314,2.624
			c0.209,0.869,0.549,1.645,1.023,2.327c0.473,0.682,1.088,1.237,1.848,1.667c0.76,0.429,1.688,0.643,2.789,0.643
			c0.99,0,1.836-0.215,2.541-0.643c0.703-0.429,1.281-0.984,1.732-1.667c0.449-0.682,0.779-1.457,0.99-2.327
			c0.207-0.869,0.312-1.743,0.312-2.624C135.289,70.168,135.184,69.293,134.977,68.424z"/>
		<path fill="#FFFFFF" d="M142.516,62.533v3.234h0.066c0.482-1.188,1.27-2.106,2.359-2.756c1.088-0.648,2.326-0.973,3.713-0.973
			c1.297,0,2.424,0.242,3.381,0.726c0.957,0.484,1.756,1.138,2.393,1.964c0.639,0.825,1.111,1.782,1.42,2.871
			s0.463,2.239,0.463,3.448c0,1.21-0.154,2.359-0.463,3.448s-0.781,2.046-1.42,2.871c-0.637,0.825-1.436,1.474-2.393,1.947
			c-0.957,0.473-2.084,0.709-3.381,0.709c-0.617,0-1.232-0.077-1.85-0.231c-0.615-0.154-1.188-0.385-1.715-0.693
			c-0.527-0.308-0.996-0.693-1.402-1.155c-0.408-0.462-0.721-1.001-0.941-1.617h-0.066v9.504h-2.078V62.533H142.516z
			 M153.918,68.424c-0.211-0.869-0.541-1.644-0.99-2.326c-0.451-0.682-1.029-1.238-1.732-1.667
			c-0.705-0.429-1.551-0.644-2.541-0.644c-1.145,0-2.102,0.198-2.871,0.594c-0.771,0.396-1.387,0.924-1.848,1.584
			c-0.463,0.66-0.787,1.43-0.975,2.31c-0.188,0.88-0.281,1.804-0.281,2.772c0,0.88,0.105,1.755,0.314,2.624
			c0.209,0.869,0.549,1.645,1.023,2.327c0.473,0.682,1.088,1.237,1.848,1.667c0.76,0.429,1.688,0.643,2.789,0.643
			c0.99,0,1.836-0.215,2.541-0.643c0.703-0.429,1.281-0.984,1.732-1.667c0.449-0.682,0.779-1.457,0.99-2.327
			c0.207-0.869,0.312-1.743,0.312-2.624C154.23,70.168,154.125,69.293,153.918,68.424z"/>
		<path fill="#FFFFFF" d="M161.654,56v23.562h-2.078V56H161.654z"/>
		<path fill="#FFFFFF" d="M167.76,56v3.333h-2.08V56H167.76z M167.76,62.533v17.028h-2.08V62.533H167.76z"/>
		<path fill="#FFFFFF" d="M182.18,64.876c-0.77-0.726-1.848-1.089-3.234-1.089c-0.99,0-1.859,0.209-2.605,0.627
			c-0.75,0.418-1.371,0.968-1.865,1.65c-0.496,0.682-0.869,1.458-1.123,2.326c-0.252,0.869-0.379,1.755-0.379,2.656
			c0,0.902,0.127,1.788,0.379,2.656c0.254,0.869,0.627,1.645,1.123,2.326c0.494,0.682,1.115,1.232,1.865,1.65
			c0.746,0.418,1.615,0.627,2.605,0.627c0.639,0,1.244-0.121,1.816-0.363c0.57-0.242,1.076-0.577,1.518-1.006
			c0.439-0.429,0.803-0.94,1.088-1.535c0.287-0.594,0.463-1.243,0.529-1.947h2.078c-0.285,2.068-1.045,3.679-2.277,4.834
			c-1.232,1.155-2.816,1.732-4.752,1.732c-1.297,0-2.447-0.237-3.447-0.709c-1.002-0.473-1.844-1.116-2.525-1.931
			c-0.682-0.813-1.199-1.765-1.551-2.854c-0.352-1.089-0.527-2.249-0.527-3.481c0-1.232,0.176-2.393,0.527-3.481
			s0.869-2.041,1.551-2.854c0.682-0.814,1.523-1.463,2.525-1.947c1-0.484,2.15-0.726,3.447-0.726c1.826,0,3.371,0.484,4.637,1.452
			c1.266,0.969,2.02,2.431,2.262,4.389h-2.08C183.479,66.604,182.949,65.603,182.18,64.876z"/>
		<path fill="#FFFFFF" d="M189.309,65.173c0.352-0.726,0.83-1.32,1.436-1.782c0.604-0.462,1.314-0.803,2.127-1.023
			c0.814-0.219,1.717-0.33,2.707-0.33c0.748,0,1.496,0.072,2.244,0.214c0.748,0.143,1.418,0.413,2.012,0.809
			c0.596,0.396,1.078,0.952,1.453,1.667c0.373,0.715,0.561,1.645,0.561,2.788v9.042c0,0.836,0.406,1.254,1.221,1.254
			c0.242,0,0.463-0.044,0.66-0.132v1.749c-0.242,0.044-0.457,0.077-0.643,0.099c-0.188,0.022-0.424,0.033-0.711,0.033
			c-0.527,0-0.951-0.071-1.27-0.215c-0.318-0.143-0.566-0.346-0.742-0.611c-0.176-0.264-0.293-0.577-0.348-0.94
			s-0.082-0.764-0.082-1.205h-0.066c-0.373,0.55-0.754,1.04-1.139,1.469c-0.385,0.429-0.812,0.787-1.285,1.072
			c-0.475,0.286-1.014,0.506-1.617,0.66c-0.605,0.154-1.326,0.231-2.162,0.231c-0.793,0-1.535-0.094-2.229-0.281
			c-0.691-0.187-1.297-0.484-1.814-0.891c-0.518-0.407-0.924-0.924-1.221-1.551s-0.445-1.369-0.445-2.228
			c0-1.188,0.264-2.117,0.791-2.788c0.529-0.671,1.227-1.182,2.096-1.534c0.869-0.352,1.848-0.599,2.938-0.743
			c1.09-0.143,2.195-0.28,3.316-0.412c0.439-0.044,0.826-0.099,1.154-0.165c0.33-0.066,0.605-0.181,0.826-0.346
			c0.219-0.165,0.391-0.39,0.512-0.677c0.121-0.286,0.182-0.66,0.182-1.122c0-0.704-0.115-1.281-0.348-1.733
			c-0.23-0.45-0.549-0.808-0.957-1.072c-0.406-0.264-0.879-0.446-1.418-0.544c-0.539-0.099-1.117-0.149-1.732-0.149
			c-1.32,0-2.398,0.314-3.234,0.941s-1.275,1.633-1.32,3.02h-2.078C188.746,66.757,188.955,65.899,189.309,65.173z M199.703,70.255
			c-0.133,0.242-0.385,0.418-0.76,0.528c-0.373,0.11-0.703,0.187-0.99,0.231c-0.879,0.154-1.787,0.292-2.723,0.412
			c-0.934,0.121-1.787,0.303-2.557,0.545c-0.77,0.242-1.402,0.589-1.896,1.039c-0.496,0.451-0.744,1.095-0.744,1.931
			c0,0.528,0.105,0.996,0.314,1.402c0.209,0.407,0.488,0.759,0.842,1.056c0.352,0.297,0.758,0.523,1.221,0.677
			c0.461,0.154,0.936,0.231,1.418,0.231c0.793,0,1.553-0.121,2.277-0.363c0.727-0.242,1.359-0.594,1.898-1.056
			c0.539-0.462,0.967-1.023,1.287-1.683c0.318-0.66,0.479-1.408,0.479-2.244v-2.706H199.703z"/>
		<path fill="#FFFFFF" d="M212.771,62.533v1.749h-3.465v11.484c0,0.682,0.092,1.216,0.279,1.601c0.188,0.385,0.654,0.6,1.402,0.643
			c0.594,0,1.189-0.033,1.783-0.099v1.749c-0.309,0-0.617,0.011-0.924,0.033c-0.309,0.022-0.617,0.033-0.924,0.033
			c-1.387,0-2.355-0.269-2.904-0.809c-0.551-0.539-0.814-1.535-0.793-2.987V64.282h-2.969v-1.749h2.969v-5.115h2.08v5.115H212.771z"
			/>
		<path fill="#FFFFFF" d="M217.885,56v3.333h-2.078V56H217.885z M217.885,62.533v17.028h-2.078V62.533H217.885z"/>
		<path fill="#FFFFFF" d="M232.52,62.764c1.002,0.484,1.844,1.133,2.525,1.947c0.682,0.814,1.199,1.766,1.551,2.854
			s0.527,2.25,0.527,3.481c0,1.232-0.176,2.393-0.527,3.481c-0.352,1.089-0.869,2.041-1.551,2.854
			c-0.682,0.814-1.523,1.458-2.525,1.931c-1,0.473-2.15,0.709-3.447,0.709c-1.299,0-2.447-0.237-3.449-0.709
			c-1-0.473-1.842-1.116-2.523-1.931c-0.684-0.813-1.199-1.765-1.551-2.854c-0.354-1.089-0.529-2.249-0.529-3.481
			c0-1.232,0.176-2.393,0.529-3.481c0.352-1.089,0.867-2.041,1.551-2.854c0.682-0.814,1.523-1.463,2.523-1.947
			c1.002-0.484,2.15-0.726,3.449-0.726C230.369,62.039,231.52,62.281,232.52,62.764z M226.465,64.415
			c-0.748,0.418-1.369,0.968-1.865,1.65c-0.494,0.682-0.869,1.458-1.121,2.326c-0.254,0.869-0.379,1.755-0.379,2.656
			c0,0.902,0.125,1.788,0.379,2.656c0.252,0.869,0.627,1.645,1.121,2.326c0.496,0.682,1.117,1.232,1.865,1.65
			c0.748,0.418,1.617,0.627,2.607,0.627s1.859-0.209,2.607-0.627c0.746-0.418,1.369-0.968,1.863-1.65
			c0.496-0.682,0.869-1.457,1.123-2.326c0.252-0.869,0.379-1.754,0.379-2.656c0-0.902-0.127-1.787-0.379-2.656
			c-0.254-0.869-0.627-1.644-1.123-2.326c-0.494-0.682-1.117-1.232-1.863-1.65c-0.748-0.418-1.617-0.627-2.607-0.627
			S227.213,63.997,226.465,64.415z"/>
		<path fill="#FFFFFF" d="M242.271,62.533v2.937h0.066c0.396-1.034,1.1-1.865,2.111-2.491s2.123-0.94,3.334-0.94
			c1.188,0,2.182,0.154,2.986,0.462c0.803,0.308,1.445,0.742,1.93,1.303c0.484,0.561,0.826,1.249,1.023,2.062
			c0.197,0.814,0.297,1.727,0.297,2.739v10.956h-2.078V68.936c0-0.726-0.066-1.403-0.199-2.03c-0.131-0.627-0.363-1.171-0.693-1.633
			s-0.775-0.825-1.336-1.089s-1.26-0.396-2.096-0.396s-1.578,0.149-2.227,0.446c-0.65,0.297-1.199,0.704-1.65,1.221
			c-0.451,0.517-0.803,1.134-1.057,1.848c-0.252,0.715-0.391,1.491-0.412,2.327v9.933h-2.078V62.533H242.271z"/>
		<path fill="#FFFFFF" d="M262.664,54.992c0.555,0.232,1.035,0.555,1.443,0.967s0.729,0.896,0.961,1.451
			c0.232,0.555,0.35,1.151,0.35,1.788c0,0.645-0.117,1.243-0.35,1.793s-0.553,1.031-0.961,1.438
			c-0.408,0.408-0.889,0.729-1.443,0.961c-0.557,0.233-1.156,0.349-1.801,0.349s-1.244-0.116-1.799-0.349
			c-0.557-0.233-1.037-0.553-1.445-0.961c-0.408-0.408-0.729-0.888-0.961-1.438s-0.35-1.149-0.35-1.793
			c0-0.637,0.117-1.232,0.35-1.788c0.232-0.555,0.553-1.039,0.961-1.451s0.889-0.735,1.445-0.967
			c0.555-0.233,1.154-0.349,1.799-0.349S262.107,54.76,262.664,54.992z M259.326,55.598c-0.469,0.204-0.875,0.482-1.217,0.833
			c-0.344,0.351-0.611,0.763-0.803,1.237s-0.287,0.984-0.287,1.531s0.096,1.057,0.287,1.53c0.191,0.473,0.459,0.886,0.803,1.236
			c0.342,0.351,0.748,0.629,1.217,0.833c0.471,0.204,0.982,0.306,1.537,0.306c0.547,0,1.055-0.102,1.525-0.306
			c0.469-0.204,0.875-0.481,1.217-0.833c0.344-0.351,0.613-0.763,0.809-1.236c0.195-0.473,0.293-0.983,0.293-1.53
			s-0.098-1.057-0.293-1.531s-0.465-0.885-0.809-1.237c-0.342-0.351-0.748-0.628-1.217-0.833c-0.471-0.204-0.979-0.306-1.525-0.306
			C260.309,55.292,259.797,55.394,259.326,55.598z M259.211,61.83v-5.264h2.02c0.596,0,1.031,0.125,1.305,0.373
			c0.273,0.249,0.41,0.61,0.41,1.084c0,0.229-0.035,0.428-0.105,0.6c-0.068,0.171-0.164,0.316-0.287,0.435
			c-0.123,0.119-0.264,0.212-0.422,0.282c-0.16,0.069-0.328,0.121-0.508,0.153l1.566,2.338h-0.76l-1.48-2.338h-1.09v2.338H259.211z
			 M261.299,58.922c0.191-0.012,0.361-0.047,0.508-0.104c0.146-0.057,0.266-0.149,0.355-0.276c0.09-0.126,0.135-0.3,0.135-0.52
			c0-0.188-0.035-0.339-0.105-0.453c-0.068-0.114-0.162-0.206-0.281-0.275s-0.25-0.116-0.398-0.141
			c-0.146-0.025-0.301-0.037-0.465-0.037h-1.188v1.824h0.857C260.912,58.94,261.105,58.934,261.299,58.922z"/>
	</g>
	<g>
		<path fill="#D5A8FF" d="M37.98,97.998c-0.287-0.454-0.637-0.836-1.05-1.145c-0.413-0.308-0.868-0.542-1.365-0.703
			s-1.019-0.241-1.564-0.241c-0.994,0-1.848,0.188-2.562,0.566c-0.715,0.378-1.299,0.879-1.754,1.502s-0.791,1.326-1.008,2.11
			c-0.218,0.784-0.326,1.589-0.326,2.415c0,0.812,0.108,1.614,0.326,2.404c0.217,0.791,0.553,1.498,1.008,2.121
			s1.039,1.124,1.754,1.502c0.714,0.378,1.567,0.566,2.562,0.566c0.7,0,1.33-0.126,1.89-0.378c0.561-0.252,1.043-0.595,1.449-1.028
			c0.406-0.435,0.735-0.941,0.987-1.522s0.413-1.208,0.483-1.88h1.428c-0.099,0.924-0.315,1.757-0.651,2.499
			s-0.771,1.372-1.302,1.89c-0.532,0.519-1.158,0.917-1.88,1.197c-0.721,0.28-1.522,0.42-2.404,0.42
			c-1.176,0-2.208-0.214-3.098-0.641s-1.628-0.997-2.216-1.711c-0.588-0.715-1.028-1.54-1.322-2.479
			c-0.294-0.938-0.441-1.925-0.441-2.961s0.147-2.022,0.441-2.961c0.294-0.938,0.734-1.768,1.322-2.488s1.326-1.295,2.216-1.723
			c0.89-0.427,1.922-0.64,3.098-0.64c0.714,0,1.41,0.104,2.09,0.314c0.679,0.21,1.294,0.521,1.848,0.935
			c0.553,0.413,1.015,0.921,1.386,1.522c0.371,0.603,0.605,1.295,0.704,2.079H38.6C38.474,98.968,38.268,98.453,37.98,97.998z"/>
		<path fill="#D5A8FF" d="M43.514,95.006V110h-1.322V95.006H43.514z"/>
		<path fill="#D5A8FF" d="M52.827,99.311c0.638,0.309,1.173,0.722,1.606,1.239c0.434,0.519,0.764,1.124,0.987,1.816
			c0.224,0.693,0.336,1.432,0.336,2.216s-0.112,1.522-0.336,2.216c-0.224,0.692-0.554,1.299-0.987,1.816s-0.969,0.928-1.606,1.229
			c-0.637,0.301-1.368,0.451-2.194,0.451s-1.558-0.15-2.194-0.451c-0.638-0.301-1.173-0.711-1.606-1.229
			c-0.435-0.518-0.764-1.124-0.987-1.816c-0.224-0.693-0.336-1.432-0.336-2.216s0.112-1.522,0.336-2.216
			c0.224-0.692,0.553-1.298,0.987-1.816c0.434-0.518,0.969-0.931,1.606-1.239c0.637-0.308,1.368-0.462,2.194-0.462
			S52.19,99.003,52.827,99.311z M48.974,100.361c-0.476,0.266-0.871,0.616-1.187,1.05c-0.314,0.434-0.553,0.928-0.714,1.48
			s-0.241,1.116-0.241,1.69s0.08,1.138,0.241,1.69c0.161,0.554,0.399,1.047,0.714,1.48c0.315,0.435,0.711,0.784,1.187,1.05
			c0.476,0.267,1.029,0.399,1.659,0.399s1.184-0.133,1.659-0.399c0.476-0.266,0.871-0.615,1.187-1.05
			c0.314-0.434,0.553-0.927,0.714-1.48c0.161-0.553,0.241-1.116,0.241-1.69s-0.08-1.138-0.241-1.69s-0.399-1.047-0.714-1.48
			c-0.315-0.434-0.711-0.784-1.187-1.05s-1.029-0.399-1.659-0.399S49.449,100.096,48.974,100.361z"/>
		<path fill="#D5A8FF" d="M65.291,110v-1.953h-0.042c-0.351,0.729-0.858,1.285-1.522,1.67c-0.666,0.385-1.404,0.577-2.216,0.577
			c-0.687,0-1.271-0.095-1.753-0.283c-0.483-0.189-0.876-0.459-1.177-0.809s-0.521-0.777-0.661-1.281
			c-0.141-0.504-0.21-1.078-0.21-1.722v-7.035h1.323v7.056c0.027,0.98,0.255,1.723,0.682,2.227c0.428,0.504,1.166,0.756,2.216,0.756
			c0.574,0,1.063-0.122,1.47-0.367s0.742-0.57,1.008-0.977c0.267-0.406,0.463-0.872,0.588-1.396
			c0.127-0.525,0.189-1.061,0.189-1.606v-5.691h1.323V110H65.291z"/>
		<path fill="#D5A8FF" d="M77.323,110v-2.058h-0.042c-0.14,0.35-0.346,0.672-0.619,0.966s-0.585,0.543-0.935,0.745
			c-0.351,0.203-0.725,0.36-1.124,0.473c-0.398,0.112-0.794,0.168-1.186,0.168c-0.826,0-1.544-0.15-2.152-0.451
			c-0.609-0.301-1.117-0.714-1.523-1.239s-0.707-1.134-0.902-1.827c-0.196-0.692-0.294-1.424-0.294-2.194
			c0-0.77,0.098-1.502,0.294-2.194c0.195-0.693,0.496-1.302,0.902-1.827s0.914-0.941,1.523-1.25
			c0.608-0.308,1.326-0.462,2.152-0.462c0.405,0,0.801,0.05,1.186,0.147c0.386,0.098,0.746,0.249,1.082,0.451
			c0.336,0.203,0.633,0.452,0.893,0.746c0.259,0.294,0.458,0.637,0.599,1.028h0.042v-6.216h1.322V110H77.323z M70.068,106.252
			c0.133,0.553,0.343,1.046,0.63,1.48c0.286,0.434,0.654,0.787,1.103,1.061c0.447,0.272,0.986,0.409,1.617,0.409
			c0.699,0,1.291-0.137,1.774-0.409c0.482-0.273,0.874-0.627,1.176-1.061c0.301-0.435,0.518-0.928,0.651-1.48
			c0.133-0.554,0.199-1.109,0.199-1.67c0-0.56-0.066-1.116-0.199-1.67c-0.134-0.553-0.351-1.046-0.651-1.48
			c-0.302-0.434-0.693-0.787-1.176-1.061c-0.483-0.272-1.075-0.409-1.774-0.409c-0.631,0-1.17,0.137-1.617,0.409
			c-0.448,0.273-0.816,0.627-1.103,1.061c-0.287,0.435-0.497,0.928-0.63,1.48c-0.134,0.554-0.199,1.11-0.199,1.67
			C69.869,105.143,69.935,105.698,70.068,106.252z"/>
		<path fill="#D5A8FF" d="M81.838,107.774h1.765V110h-1.765V107.774z"/>
		<path fill="#D5A8FF" d="M99.646,95.006c0.672,0,1.281,0.095,1.827,0.283c0.546,0.189,1.015,0.47,1.407,0.841
			c0.391,0.371,0.692,0.822,0.902,1.354s0.315,1.134,0.315,1.806s-0.105,1.274-0.315,1.806c-0.21,0.532-0.512,0.984-0.902,1.354
			c-0.393,0.371-0.861,0.651-1.407,0.84c-0.546,0.189-1.155,0.284-1.827,0.284h-5.229V110h-1.428V95.006H99.646z M99.331,102.356
			c0.994,0,1.799-0.253,2.415-0.757s0.924-1.273,0.924-2.31s-0.308-1.806-0.924-2.31c-0.616-0.505-1.421-0.757-2.415-0.757h-4.914
			v6.133H99.331z"/>
		<path fill="#D5A8FF" d="M113.527,110v-1.953h-0.042c-0.351,0.729-0.858,1.285-1.522,1.67c-0.666,0.385-1.404,0.577-2.216,0.577
			c-0.687,0-1.271-0.095-1.753-0.283c-0.483-0.189-0.876-0.459-1.177-0.809s-0.521-0.777-0.661-1.281
			c-0.141-0.504-0.21-1.078-0.21-1.722v-7.035h1.323v7.056c0.027,0.98,0.255,1.723,0.682,2.227c0.428,0.504,1.166,0.756,2.216,0.756
			c0.574,0,1.063-0.122,1.47-0.367s0.742-0.57,1.008-0.977c0.267-0.406,0.463-0.872,0.588-1.396
			c0.127-0.525,0.189-1.061,0.189-1.606v-5.691h1.323V110H113.527z"/>
		<path fill="#D5A8FF" d="M118.462,99.164v2.541h0.042c0.336-0.882,0.857-1.561,1.564-2.037c0.707-0.476,1.551-0.693,2.53-0.651
			v1.323c-0.602-0.027-1.147,0.053-1.638,0.241c-0.49,0.189-0.914,0.459-1.271,0.809c-0.356,0.351-0.634,0.767-0.829,1.25
			c-0.197,0.482-0.295,1.012-0.295,1.585V110h-1.322V99.164H118.462z"/>
		<path fill="#D5A8FF" d="M124.457,106.42c0.133,0.511,0.347,0.969,0.641,1.375s0.665,0.742,1.113,1.008
			c0.447,0.267,0.986,0.399,1.617,0.399c0.966,0,1.722-0.252,2.268-0.756s0.924-1.177,1.134-2.017h1.323
			c-0.28,1.232-0.795,2.185-1.543,2.856c-0.75,0.672-1.811,1.008-3.182,1.008c-0.854,0-1.594-0.15-2.216-0.451
			c-0.623-0.301-1.131-0.714-1.522-1.239c-0.393-0.525-0.683-1.134-0.871-1.827c-0.189-0.692-0.284-1.424-0.284-2.194
			c0-0.714,0.095-1.414,0.284-2.1c0.188-0.687,0.479-1.299,0.871-1.838c0.392-0.539,0.899-0.973,1.522-1.302
			c0.622-0.329,1.361-0.494,2.216-0.494c0.867,0,1.609,0.176,2.226,0.525s1.116,0.809,1.501,1.375
			c0.386,0.567,0.662,1.219,0.83,1.953c0.168,0.735,0.238,1.48,0.21,2.237h-8.337C124.258,105.415,124.324,105.908,124.457,106.42z
			 M131.01,102.377c-0.162-0.462-0.389-0.871-0.684-1.229c-0.293-0.357-0.65-0.644-1.07-0.861c-0.42-0.217-0.896-0.325-1.428-0.325
			c-0.547,0-1.029,0.108-1.449,0.325c-0.42,0.218-0.777,0.504-1.071,0.861s-0.528,0.771-0.703,1.239
			c-0.176,0.469-0.291,0.948-0.347,1.438h7.014C131.258,103.322,131.17,102.839,131.01,102.377z"/>
		<path fill="#D5A8FF" d="M140.49,100.844c0.225-0.462,0.529-0.84,0.914-1.134s0.836-0.511,1.354-0.651
			c0.518-0.14,1.092-0.21,1.722-0.21c0.477,0,0.952,0.046,1.428,0.137c0.477,0.092,0.903,0.263,1.281,0.515
			c0.379,0.252,0.686,0.605,0.924,1.061s0.357,1.047,0.357,1.774v5.754c0,0.532,0.259,0.798,0.777,0.798
			c0.153,0,0.294-0.027,0.42-0.084v1.113c-0.154,0.028-0.291,0.049-0.41,0.062c-0.119,0.015-0.27,0.021-0.451,0.021
			c-0.336,0-0.605-0.045-0.809-0.137c-0.203-0.091-0.36-0.221-0.473-0.389c-0.111-0.168-0.186-0.367-0.221-0.598
			c-0.034-0.231-0.052-0.486-0.052-0.767h-0.042c-0.238,0.35-0.48,0.661-0.725,0.935c-0.245,0.272-0.518,0.5-0.819,0.682
			c-0.301,0.183-0.644,0.322-1.028,0.421c-0.386,0.098-0.844,0.146-1.376,0.146c-0.504,0-0.977-0.06-1.417-0.179
			c-0.441-0.118-0.826-0.308-1.155-0.566s-0.588-0.588-0.777-0.987c-0.188-0.399-0.283-0.871-0.283-1.418
			c0-0.756,0.168-1.347,0.504-1.774c0.336-0.427,0.78-0.752,1.333-0.977c0.554-0.224,1.177-0.381,1.869-0.472
			c0.693-0.091,1.396-0.179,2.111-0.263c0.279-0.028,0.524-0.063,0.734-0.105s0.385-0.115,0.525-0.221
			c0.14-0.104,0.248-0.248,0.325-0.43s0.115-0.42,0.115-0.714c0-0.448-0.073-0.815-0.22-1.103c-0.147-0.287-0.351-0.515-0.609-0.683
			c-0.26-0.168-0.561-0.284-0.903-0.347c-0.343-0.063-0.71-0.095-1.103-0.095c-0.84,0-1.525,0.199-2.058,0.599
			s-0.812,1.039-0.84,1.922h-1.323C140.134,101.852,140.267,101.306,140.49,100.844z M147.105,104.078
			c-0.084,0.154-0.245,0.266-0.482,0.336c-0.238,0.07-0.448,0.119-0.631,0.146c-0.56,0.099-1.137,0.187-1.732,0.263
			c-0.595,0.077-1.137,0.192-1.627,0.347s-0.893,0.375-1.207,0.661c-0.315,0.287-0.473,0.697-0.473,1.229
			c0,0.337,0.066,0.634,0.199,0.893c0.133,0.26,0.312,0.483,0.535,0.672c0.225,0.189,0.483,0.333,0.777,0.431
			c0.294,0.099,0.595,0.147,0.902,0.147c0.505,0,0.987-0.077,1.449-0.231c0.463-0.153,0.865-0.378,1.208-0.672
			s0.616-0.65,0.819-1.071c0.202-0.42,0.304-0.896,0.304-1.428v-1.722H147.105z"/>
		<path fill="#D5A8FF" d="M152.419,99.164v1.869h0.042c0.252-0.658,0.699-1.187,1.344-1.586c0.644-0.398,1.351-0.599,2.121-0.599
			c0.756,0,1.389,0.099,1.9,0.294c0.511,0.196,0.92,0.473,1.229,0.83c0.308,0.356,0.525,0.795,0.651,1.312s0.188,1.099,0.188,1.743
			V110h-1.322v-6.762c0-0.462-0.043-0.893-0.127-1.292c-0.084-0.398-0.23-0.745-0.44-1.039s-0.493-0.525-0.851-0.693
			s-0.802-0.252-1.334-0.252c-0.531,0-1.004,0.095-1.417,0.283c-0.413,0.189-0.764,0.448-1.05,0.777
			c-0.287,0.329-0.512,0.722-0.672,1.176c-0.162,0.455-0.249,0.949-0.263,1.48V110h-1.323V99.164H152.419z"/>
		<path fill="#D5A8FF" d="M170.709,110v-2.058h-0.042c-0.14,0.35-0.347,0.672-0.619,0.966s-0.585,0.543-0.935,0.745
			c-0.35,0.203-0.725,0.36-1.123,0.473c-0.399,0.112-0.795,0.168-1.188,0.168c-0.826,0-1.543-0.15-2.152-0.451
			c-0.608-0.301-1.116-0.714-1.521-1.239c-0.406-0.525-0.708-1.134-0.903-1.827c-0.196-0.692-0.294-1.424-0.294-2.194
			c0-0.77,0.098-1.502,0.294-2.194c0.195-0.693,0.497-1.302,0.903-1.827c0.405-0.525,0.913-0.941,1.521-1.25
			c0.609-0.308,1.326-0.462,2.152-0.462c0.406,0,0.802,0.05,1.188,0.147c0.385,0.098,0.745,0.249,1.081,0.451
			c0.336,0.203,0.634,0.452,0.893,0.746s0.458,0.637,0.599,1.028h0.042v-6.216h1.323V110H170.709z M163.454,106.252
			c0.133,0.553,0.343,1.046,0.63,1.48c0.287,0.434,0.654,0.787,1.103,1.061c0.448,0.272,0.987,0.409,1.616,0.409
			c0.7,0,1.292-0.137,1.775-0.409c0.482-0.273,0.875-0.627,1.176-1.061c0.301-0.435,0.518-0.928,0.65-1.48
			c0.133-0.554,0.2-1.109,0.2-1.67c0-0.56-0.067-1.116-0.2-1.67c-0.133-0.553-0.35-1.046-0.65-1.48
			c-0.301-0.434-0.693-0.787-1.176-1.061c-0.483-0.272-1.075-0.409-1.775-0.409c-0.629,0-1.168,0.137-1.616,0.409
			c-0.448,0.273-0.815,0.627-1.103,1.061c-0.287,0.435-0.497,0.928-0.63,1.48c-0.134,0.554-0.2,1.11-0.2,1.67
			C163.254,105.143,163.32,105.698,163.454,106.252z"/>
		<path fill="#D5A8FF" d="M186.522,101.274c-0.154-0.301-0.36-0.549-0.62-0.745c-0.259-0.196-0.557-0.34-0.893-0.431
			s-0.692-0.137-1.07-0.137c-0.294,0-0.592,0.031-0.893,0.095c-0.302,0.062-0.578,0.168-0.83,0.314
			c-0.252,0.147-0.455,0.34-0.608,0.578c-0.154,0.238-0.231,0.532-0.231,0.882c0,0.294,0.074,0.543,0.221,0.745
			c0.146,0.203,0.332,0.375,0.557,0.515c0.224,0.141,0.469,0.256,0.734,0.347c0.267,0.091,0.512,0.165,0.735,0.221l1.765,0.398
			c0.377,0.057,0.752,0.158,1.123,0.305c0.371,0.147,0.699,0.34,0.986,0.578c0.287,0.237,0.521,0.532,0.704,0.882
			c0.182,0.35,0.272,0.763,0.272,1.238c0,0.589-0.133,1.089-0.398,1.502s-0.605,0.749-1.019,1.008
			c-0.413,0.26-0.879,0.444-1.396,0.557c-0.519,0.112-1.029,0.168-1.533,0.168c-1.274,0-2.307-0.301-3.097-0.903
			c-0.792-0.602-1.243-1.567-1.355-2.897h1.323c0.056,0.896,0.382,1.571,0.977,2.026s1.333,0.683,2.216,0.683
			c0.321,0,0.654-0.035,0.997-0.105c0.343-0.069,0.661-0.188,0.956-0.356c0.294-0.168,0.535-0.382,0.725-0.641
			c0.188-0.259,0.283-0.577,0.283-0.956c0-0.321-0.066-0.591-0.199-0.808c-0.134-0.218-0.312-0.399-0.536-0.547
			c-0.224-0.146-0.479-0.269-0.767-0.367c-0.287-0.098-0.577-0.182-0.871-0.252l-1.701-0.378c-0.434-0.112-0.833-0.241-1.197-0.389
			c-0.364-0.146-0.682-0.328-0.955-0.546c-0.273-0.217-0.486-0.483-0.641-0.798c-0.154-0.315-0.23-0.703-0.23-1.166
			c0-0.546,0.122-1.015,0.367-1.406c0.244-0.392,0.563-0.707,0.955-0.945c0.393-0.238,0.83-0.413,1.312-0.525
			c0.483-0.111,0.963-0.168,1.438-0.168c0.546,0,1.054,0.07,1.522,0.21c0.469,0.141,0.883,0.357,1.239,0.651
			s0.641,0.658,0.851,1.092c0.21,0.435,0.328,0.945,0.357,1.533h-1.323C186.76,101.929,186.676,101.576,186.522,101.274z"/>
		<path fill="#D5A8FF" d="M191.73,95.006v2.121h-1.323v-2.121H191.73z M191.73,99.164V110h-1.323V99.164H191.73z"/>
		<path fill="#D5A8FF" d="M195.488,99.164v1.827h0.063c0.35-0.672,0.809-1.197,1.376-1.575c0.566-0.378,1.291-0.567,2.173-0.567
			c0.714,0,1.361,0.176,1.942,0.525s0.97,0.882,1.166,1.596c0.321-0.714,0.798-1.246,1.428-1.596s1.302-0.525,2.016-0.525
			c2.395,0,3.592,1.268,3.592,3.802V110h-1.323v-7.287c0-0.896-0.189-1.578-0.567-2.048c-0.378-0.469-1.043-0.703-1.995-0.703
			c-0.574,0-1.05,0.108-1.428,0.325c-0.378,0.218-0.679,0.508-0.903,0.872c-0.224,0.364-0.381,0.78-0.473,1.249
			c-0.091,0.47-0.136,0.956-0.136,1.46V110h-1.323v-7.35c0-0.364-0.039-0.711-0.115-1.04c-0.077-0.329-0.203-0.616-0.378-0.861
			c-0.176-0.244-0.41-0.437-0.704-0.577c-0.294-0.14-0.65-0.21-1.07-0.21c-0.561,0-1.047,0.102-1.46,0.305s-0.749,0.482-1.008,0.84
			s-0.452,0.777-0.577,1.26c-0.127,0.483-0.189,1.012-0.189,1.586V110h-1.323V99.164H195.488z"/>
		<path fill="#D5A8FF" d="M212.981,99.164v2.058h0.042c0.309-0.756,0.809-1.34,1.502-1.753s1.48-0.62,2.362-0.62
			c0.826,0,1.544,0.154,2.152,0.462c0.609,0.309,1.116,0.725,1.522,1.25s0.707,1.134,0.903,1.827
			c0.196,0.692,0.294,1.425,0.294,2.194c0,0.771-0.098,1.502-0.294,2.194c-0.196,0.693-0.497,1.302-0.903,1.827
			s-0.913,0.938-1.522,1.239c-0.608,0.301-1.326,0.451-2.152,0.451c-0.392,0-0.784-0.049-1.176-0.146
			c-0.393-0.099-0.757-0.245-1.093-0.441s-0.633-0.441-0.893-0.735c-0.259-0.294-0.458-0.637-0.598-1.028h-0.042v6.048h-1.323
			V99.164H212.981z M220.237,102.912c-0.134-0.553-0.343-1.046-0.63-1.48c-0.287-0.434-0.654-0.787-1.103-1.061
			c-0.448-0.272-0.987-0.409-1.617-0.409c-0.728,0-1.337,0.126-1.827,0.378s-0.882,0.588-1.176,1.008s-0.501,0.91-0.619,1.471
			c-0.119,0.56-0.179,1.147-0.179,1.764c0,0.561,0.065,1.116,0.199,1.67c0.133,0.553,0.35,1.046,0.651,1.48
			c0.301,0.434,0.692,0.787,1.176,1.061c0.482,0.272,1.074,0.409,1.774,0.409c0.63,0,1.169-0.137,1.617-0.409
			c0.448-0.273,0.815-0.627,1.103-1.061c0.287-0.435,0.496-0.928,0.63-1.48c0.133-0.554,0.199-1.109,0.199-1.67
			C220.437,104.022,220.37,103.466,220.237,102.912z"/>
		<path fill="#D5A8FF" d="M225.162,95.006V110h-1.323V95.006H225.162z"/>
		<path fill="#D5A8FF" d="M228.679,106.42c0.133,0.511,0.347,0.969,0.641,1.375s0.665,0.742,1.113,1.008
			c0.448,0.267,0.987,0.399,1.616,0.399c0.967,0,1.723-0.252,2.269-0.756s0.924-1.177,1.134-2.017h1.323
			c-0.28,1.232-0.795,2.185-1.544,2.856s-1.809,1.008-3.182,1.008c-0.854,0-1.592-0.15-2.215-0.451s-1.131-0.714-1.522-1.239
			c-0.393-0.525-0.683-1.134-0.872-1.827c-0.188-0.692-0.283-1.424-0.283-2.194c0-0.714,0.095-1.414,0.283-2.1
			c0.189-0.687,0.479-1.299,0.872-1.838c0.392-0.539,0.899-0.973,1.522-1.302s1.361-0.494,2.215-0.494
			c0.868,0,1.61,0.176,2.227,0.525s1.116,0.809,1.502,1.375c0.385,0.567,0.661,1.219,0.829,1.953c0.168,0.735,0.237,1.48,0.21,2.237
			h-8.337C228.479,105.415,228.546,105.908,228.679,106.42z M235.23,102.377c-0.16-0.462-0.389-0.871-0.682-1.229
			c-0.295-0.357-0.651-0.644-1.071-0.861c-0.42-0.217-0.896-0.325-1.429-0.325c-0.545,0-1.028,0.108-1.448,0.325
			c-0.42,0.218-0.777,0.504-1.071,0.861s-0.528,0.771-0.703,1.239c-0.176,0.469-0.291,0.948-0.347,1.438h7.014
			C235.479,103.322,235.392,102.839,235.23,102.377z"/>
		<path fill="#D5A8FF" d="M239.379,107.774h1.764V110h-1.764V107.774z"/>
	</g>
</g>
<g id="Layer_3" display="none">
	<g display="inline" opacity="0.2">
		<g>
			<line fill="none" stroke="#00FFFF" stroke-miterlimit="10" x1="-188" y1="166.618" x2="836" y2="166.618"/>
		</g>
		<g>
			<line fill="none" stroke="#00FFFF" stroke-miterlimit="10" x1="-188" y1="160.618" x2="836" y2="160.618"/>
		</g>
		<g>
			<line fill="none" stroke="#00FFFF" stroke-miterlimit="10" x1="-188" y1="154.618" x2="836" y2="154.618"/>
		</g>
		<g>
			<line fill="none" stroke="#00FFFF" stroke-miterlimit="10" x1="-188" y1="148.618" x2="836" y2="148.618"/>
		</g>
		<g>
			<line fill="none" stroke="#00FFFF" stroke-miterlimit="10" x1="-188" y1="142.618" x2="836" y2="142.618"/>
		</g>
		<g>
			<line fill="none" stroke="#00FFFF" stroke-miterlimit="10" x1="-188" y1="136.618" x2="836" y2="136.618"/>
		</g>
		<g>
			<line fill="none" stroke="#00FFFF" stroke-miterlimit="10" x1="-188" y1="130.618" x2="836" y2="130.618"/>
		</g>
		<g>
			<line fill="none" stroke="#00FFFF" stroke-miterlimit="10" x1="-188" y1="124.618" x2="836" y2="124.618"/>
		</g>
		<g>
			<line fill="none" stroke="#00FFFF" stroke-miterlimit="10" x1="-188" y1="118.618" x2="836" y2="118.618"/>
		</g>
		<g>
			<line fill="none" stroke="#00FFFF" stroke-miterlimit="10" x1="-188" y1="112.618" x2="836" y2="112.618"/>
		</g>
		<g>
			<line fill="none" stroke="#00FFFF" stroke-miterlimit="10" x1="-188" y1="106.618" x2="836" y2="106.618"/>
		</g>
		<g>
			<line fill="none" stroke="#00FFFF" stroke-miterlimit="10" x1="-188" y1="100.618" x2="836" y2="100.618"/>
		</g>
		<g>
			<line fill="none" stroke="#00FFFF" stroke-miterlimit="10" x1="-188" y1="94.618" x2="836" y2="94.618"/>
		</g>
		<g>
			<line fill="none" stroke="#00FFFF" stroke-miterlimit="10" x1="-188" y1="88.618" x2="836" y2="88.618"/>
		</g>
		<g>
			<line fill="none" stroke="#00FFFF" stroke-miterlimit="10" x1="-188" y1="82.618" x2="836" y2="82.618"/>
		</g>
		<g>
			<line fill="none" stroke="#00FFFF" stroke-miterlimit="10" x1="-188" y1="76.618" x2="836" y2="76.618"/>
		</g>
		<g>
			<line fill="none" stroke="#00FFFF" stroke-miterlimit="10" x1="-188" y1="70.618" x2="836" y2="70.618"/>
		</g>
		<g>
			<line fill="none" stroke="#00FFFF" stroke-miterlimit="10" x1="-188" y1="64.618" x2="836" y2="64.618"/>
		</g>
		<g>
			<line fill="none" stroke="#00FFFF" stroke-miterlimit="10" x1="-188" y1="58.618" x2="836" y2="58.618"/>
		</g>
		<g>
			<line fill="none" stroke="#00FFFF" stroke-miterlimit="10" x1="-188" y1="52.618" x2="836" y2="52.618"/>
		</g>
		<g>
			<line fill="none" stroke="#00FFFF" stroke-miterlimit="10" x1="-188" y1="46.618" x2="836" y2="46.618"/>
		</g>
		<g>
			<line fill="none" stroke="#00FFFF" stroke-miterlimit="10" x1="-188" y1="40.618" x2="836" y2="40.618"/>
		</g>
		<g>
			<line fill="none" stroke="#00FFFF" stroke-miterlimit="10" x1="-188" y1="34.618" x2="836" y2="34.618"/>
		</g>
		<g>
			<line fill="none" stroke="#00FFFF" stroke-miterlimit="10" x1="-188" y1="28.618" x2="836" y2="28.618"/>
		</g>
		<g>
			<line fill="none" stroke="#00FFFF" stroke-miterlimit="10" x1="-188" y1="22.618" x2="836" y2="22.618"/>
		</g>
		<g>
			<line fill="none" stroke="#00FFFF" stroke-miterlimit="10" x1="-188" y1="16.618" x2="836" y2="16.618"/>
		</g>
		<g>
			<line fill="none" stroke="#00FFFF" stroke-miterlimit="10" x1="-188" y1="10.618" x2="836" y2="10.618"/>
		</g>
		<g>
			<line fill="none" stroke="#00FFFF" stroke-miterlimit="10" x1="-188" y1="4.618" x2="836" y2="4.618"/>
		</g>
	</g>
</g>
<g id="Layer_2" display="none">
	<rect y="-2995" display="inline" opacity="0.08" fill="#00FFFF" width="60" height="10542.133"/>
	<rect x="84" y="-2995" display="inline" opacity="0.08" fill="#00FFFF" width="60" height="10542.133"/>
	<rect x="168" y="-2995" display="inline" opacity="0.08" fill="#00FFFF" width="60" height="10542.133"/>
	<rect x="252" y="-2995" display="inline" opacity="0.08" fill="#00FFFF" width="60" height="10542.133"/>
</g>
</svg>
