<?xml version="1.0" encoding="utf-8"?>
<!-- Generator: Adobe Illustrator 18.0.0, SVG Export Plug-In . SVG Version: 6.00 Build 0)  -->
<!DOCTYPE svg PUBLIC "-//W3C//DTD SVG 1.1//EN" "http://www.w3.org/Graphics/SVG/1.1/DTD/svg11.dtd">
<svg version="1.1" id="Layer_1" xmlns="http://www.w3.org/2000/svg" xmlns:xlink="http://www.w3.org/1999/xlink" x="0px" y="0px"
	 viewBox="0 0 472 217" width="472" height="217" enable-background="new 0 0 472 217" xml:space="preserve">
<g>
	<rect fill="#323232" width="472" height="217"/>
</g>
<g>
	<rect x="365" y="76" fill="#325C80" width="37" height="111"/>
</g>
<g>
	<rect x="150" y="152" fill="#FF5050" width="33" height="35"/>
</g>
<g>
	<rect x="311" y="37" fill="#325C80" width="37" height="150"/>
</g>
<g>
	<rect x="94" y="57" fill="#325C80" width="37" height="130"/>
</g>
<g>
	<rect x="202" y="78" fill="#325C80" width="37" height="109"/>
</g>
<g>
	<rect x="257" y="57" fill="#325C80" width="37" height="130"/>
</g>
<g>
	<g>
		<rect x="32" y="112" fill="#777677" width="2" height="1"/>
	</g>
	<g>
		<path fill="#777677" d="M434,113h-5v-1h5V113z M424,113h-5v-1h5V113z M414,113h-5v-1h5V113z M404,113h-5v-1h5V113z M394,113h-5v-1
			h5V113z M384,113h-5v-1h5V113z M374,113h-5v-1h5V113z M364,113h-5v-1h5V113z M354,113h-5v-1h5V113z M344,113h-5v-1h5V113z
			 M334,113h-5v-1h5V113z M324,113h-5v-1h5V113z M314,113h-5v-1h5V113z M304,113h-5v-1h5V113z M294,113h-5v-1h5V113z M284,113h-5v-1
			h5V113z M274,113h-5v-1h5V113z M264,113h-5v-1h5V113z M254,113h-5v-1h5V113z M244,113h-5v-1h5V113z M234,113h-5v-1h5V113z
			 M224,113h-5v-1h5V113z M214,113h-5v-1h5V113z M204,113h-5v-1h5V113z M194,113h-5v-1h5V113z M184,113h-5v-1h5V113z M174,113h-5v-1
			h5V113z M164,113h-5v-1h5V113z M154,113h-5v-1h5V113z M144,113h-5v-1h5V113z M134,113h-5v-1h5V113z M124,113h-5v-1h5V113z
			 M114,113h-5v-1h5V113z M104,113h-5v-1h5V113z M94,113h-5v-1h5V113z M84,113h-5v-1h5V113z M74,113h-5v-1h5V113z M64,113h-5v-1h5
			V113z M54,113h-5v-1h5V113z M44,113h-5v-1h5V113z"/>
	</g>
	<g>
		<rect x="438" y="112" fill="#777677" width="3" height="1"/>
	</g>
</g>
<g>
	<rect x="29" y="187" fill="#C6C6C6" width="412" height="2"/>
</g>
</svg>
