<?xml version="1.0" encoding="utf-8"?>
<!-- Generator: Adobe Illustrator 17.1.0, SVG Export Plug-In . SVG Version: 6.00 Build 0)  -->
<!DOCTYPE svg PUBLIC "-//W3C//DTD SVG 1.1//EN" "http://www.w3.org/Graphics/SVG/1.1/DTD/svg11.dtd">
<svg version="1.1" xmlns="http://www.w3.org/2000/svg" xmlns:xlink="http://www.w3.org/1999/xlink" x="0px" y="0px"
	 viewBox="0 0 226 245" width="226" height="245"  enable-background="new 0 0 226 245" xml:space="preserve">
<g id="Layer_1" display="none">
	<rect x="-609.743" y="-105.443" display="inline" fill="#9655D2" width="1024" height="444.751"/>
</g>
<g id="Layer_4">
	<g>
		<g>
			<path fill="#FFFFFF" d="M150.257,66.759v36h-36v-36H150.257 M152.257,64.759h-40v40h40V64.759L152.257,64.759z"/>
		</g>
		<g>
			<path fill="#FFFFFF" d="M195.257,146.759v18h-19v-18H195.257 M197.257,144.759h-23v22h23V144.759L197.257,144.759z"/>
		</g>
		<rect x="112.257" y="104.759" fill="#BA8FF7" width="62" height="62"/>
		<rect x="50.257" y="2.759" fill="#BA8FF7" width="62" height="62"/>
		<rect x="30.257" y="104.759" fill="#734098" width="82" height="31"/>
		<rect x="97.257" y="166.759" fill="#734098" width="77" height="35"/>
		<rect x="112.257" y="33.759" fill="#734098" width="85" height="31"/>
		<rect x="39.257" y="166.759" fill="#BA8FF7" width="58" height="58"/>
		<g>
			<path fill="#FFFFFF" d="M139.257,203.759v39h-40v-39H139.257 M141.257,201.759h-44v43h44V201.759L141.257,201.759z"/>
		</g>
	</g>
</g>
<g id="Layer_3" display="none">
</g>
<g id="Layer_2" display="none">
	<rect x="-1.743" y="-6514.358" display="inline" opacity="0.08" fill="#00FFFF" width="60" height="10542.133"/>
	<rect x="82.257" y="-6514.358" display="inline" opacity="0.08" fill="#00FFFF" width="60" height="10542.133"/>
	<rect x="166.257" y="-6514.358" display="inline" opacity="0.08" fill="#00FFFF" width="60" height="10542.133"/>
</g>
</svg>
