<?xml version="1.0" encoding="utf-8"?>
<!-- Generator: Adobe Illustrator 18.0.0, SVG Export Plug-In . SVG Version: 6.00 Build 0)  -->
<!DOCTYPE svg PUBLIC "-//W3C//DTD SVG 1.1//EN" "http://www.w3.org/Graphics/SVG/1.1/DTD/svg11.dtd">
<svg version="1.1" id="Layer_1" xmlns="http://www.w3.org/2000/svg" xmlns:xlink="http://www.w3.org/1999/xlink" x="0px" y="0px"
	 viewBox="0 0 223.8 160.4" width="223.8" height="160.4"  enable-background="new 0 0 223.8 160.4" xml:space="preserve">
<g opacity="0.5">
	<path fill="#AE6EE7" d="M162.8,0l60,160.4h-36.6l-12.1-35.7h-60l-12.6,35.7H66L126.7,0H162.8z M164.9,98.4l-20.2-58.9h-0.5
		l-20.9,58.9H164.9z"/>
</g>
<g>
	<path fill="#B98EF6" d="M129.7,0l60,160.4H153l-12.1-35.7h-60l-12.6,35.7H32.8L93.5,0H129.7z M131.7,98.4l-20.2-58.9H111L90.1,98.4
		H131.7z"/>
</g>
<g>
	<path fill="#FFFFFF" d="M96.8,0l60,160.4h-36.6l-12.1-35.7h-60l-12.6,35.7H0L60.7,0H96.8z M98.9,98.4L78.6,39.5h-0.5L57.3,98.4
		H98.9z"/>
</g>
</svg>
