<?xml version="1.0" encoding="utf-8"?>
<!-- Generator: Adobe Illustrator 17.1.0, SVG Export Plug-In . SVG Version: 6.00 Build 0)  -->
<!DOCTYPE svg PUBLIC "-//W3C//DTD SVG 1.1//EN" "http://www.w3.org/Graphics/SVG/1.1/DTD/svg11.dtd">
<svg version="1.1" xmlns="http://www.w3.org/2000/svg" xmlns:xlink="http://www.w3.org/1999/xlink" x="0px" y="0px"
	 viewBox="0 0 144 130" width="144" height="130" enable-background="new 0 0 144 130" xml:space="preserve">
<g id="Layer_1">
	<rect x="74" y="71" fill="#777677" width="56" height="57"/>
	<g>
		<polygon fill="none" points="113.344,71 74,110.344 74,113.495 116.495,71 		"/>
		<polygon fill="none" points="119.646,71 74,116.646 74,119.797 122.797,71 		"/>
		<polygon fill="none" points="130,79.551 81.551,128 84.702,128 130,82.702 		"/>
		<polygon fill="none" points="107.043,71 74,104.043 74,107.194 110.194,71 		"/>
		<polygon fill="none" points="130,73.249 75.249,128 78.4,128 130,76.4 		"/>
		<polygon fill="none" points="125.948,71 74,122.948 74,126.099 129.099,71 		"/>
		<polygon fill="none" points="130,85.853 87.853,128 91.004,128 130,89.004 		"/>
		<polygon fill="none" points="81.836,71 74,78.836 74,81.987 84.987,71 		"/>
		<polygon fill="none" points="74,71 74,75.685 78.685,71 		"/>
		<polygon fill="none" points="100.741,71 74,97.741 74,100.892 103.892,71 		"/>
		<polygon fill="none" points="88.138,71 74,85.138 74,88.289 91.289,71 		"/>
		<polygon fill="none" points="94.439,71 74,91.439 74,94.59 97.59,71 		"/>
		<polygon fill="none" points="130,111.059 113.059,128 116.21,128 130,114.21 		"/>
		<polygon fill="none" points="125.663,128 130,128 130,123.663 		"/>
		<polygon fill="none" points="130,98.456 100.456,128 103.607,128 130,101.607 		"/>
		<polygon fill="none" points="130,104.758 106.758,128 109.908,128 130,107.909 		"/>
		<polygon fill="none" points="130,117.361 119.361,128 122.512,128 130,120.512 		"/>
		<polygon fill="none" points="130,92.154 94.154,128 97.305,128 130,95.305 		"/>
		<polygon fill="#5A5A5A" points="84.987,71 74,81.987 74,85.138 88.138,71 		"/>
		<polygon fill="#5A5A5A" points="97.59,71 74,94.59 74,97.741 100.741,71 		"/>
		<polygon fill="#5A5A5A" points="110.194,71 74,107.194 74,110.344 113.344,71 		"/>
		<polygon fill="#5A5A5A" points="122.797,71 74,119.797 74,122.948 125.948,71 		"/>
		<polygon fill="#5A5A5A" points="130,76.4 78.4,128 81.551,128 130,79.551 		"/>
		<polygon fill="#5A5A5A" points="130,89.004 91.004,128 94.154,128 130,92.154 		"/>
		<polygon fill="#5A5A5A" points="130,101.607 103.607,128 106.758,128 130,104.758 		"/>
		<polygon fill="#5A5A5A" points="130,114.21 116.21,128 119.361,128 130,117.361 		"/>
		<polygon fill="#5A5A5A" points="91.289,71 74,88.289 74,91.439 94.439,71 		"/>
		<polygon fill="#5A5A5A" points="103.892,71 74,100.892 74,104.043 107.043,71 		"/>
		<polygon fill="#5A5A5A" points="116.495,71 74,113.495 74,116.646 119.646,71 		"/>
		<polygon fill="#5A5A5A" points="130,71 129.099,71 74,126.099 74,128 75.249,128 130,73.249 		"/>
		<polygon fill="#5A5A5A" points="130,82.702 84.702,128 87.853,128 130,85.853 		"/>
		<polygon fill="#5A5A5A" points="130,95.305 97.305,128 100.456,128 130,98.456 		"/>
		<polygon fill="#5A5A5A" points="130,107.909 109.908,128 113.059,128 130,111.059 		"/>
		<polygon fill="#5A5A5A" points="130,120.512 122.512,128 125.663,128 130,123.663 		"/>
		<polygon fill="#5A5A5A" points="78.685,71 74,75.685 74,78.836 81.836,71 		"/>
	</g>
	<rect x="17" y="71" fill="#666666" width="57" height="57"/>
	<rect x="17" y="2" fill="#666666" width="57" height="56"/>
	<rect x="74" y="2" fill="#5E5E5E" width="56" height="56"/>
	<g>
		<polygon fill="#FFFFFF" points="45.194,32.306 42.587,29.699 41.468,30.819 45.194,34.545 52.087,27.652 50.967,26.533 		"/>
		<path fill="#FFFFFF" d="M46.777,19.176c-6.12,0-11.082,4.962-11.082,11.082s4.962,11.082,11.082,11.082S57.86,36.379,57.86,30.259
			S52.898,19.176,46.777,19.176z M46.777,39.758c-5.238,0-9.499-4.261-9.499-9.499s4.261-9.499,9.499-9.499s9.499,4.261,9.499,9.499
			S52.016,39.758,46.777,39.758z"/>
	</g>
	<g>
		<polygon fill="#FFFFFF" points="105.984,26.021 102.586,29.419 99.187,26.021 98.068,27.14 101.466,30.539 98.068,33.937
			99.187,35.056 102.586,31.658 105.984,35.056 107.103,33.937 103.705,30.539 107.103,27.14 		"/>
		<path fill="#FFFFFF" d="M102.586,19.456c-6.12,0-11.082,4.962-11.082,11.082s4.962,11.082,11.082,11.082
			c6.12,0,11.082-4.962,11.082-11.082S108.706,19.456,102.586,19.456z M102.586,40.038c-5.238,0-9.499-4.261-9.499-9.499
			s4.261-9.499,9.499-9.499c5.238,0,9.499,4.261,9.499,9.499S107.824,40.038,102.586,40.038z"/>
	</g>
</g>
<g id="Layer_4">
</g>
<g id="Layer_3" display="none">
</g>
<g id="Layer_2" display="none">
	<rect y="-6104.118" display="inline" opacity="0.08" fill="#00FFFF" width="60" height="10542.133"/>
	<rect x="84" y="-6104.118" display="inline" opacity="0.08" fill="#00FFFF" width="60" height="10542.133"/>
</g>
</svg>
