<?xml version="1.0" encoding="utf-8"?>
<!-- Generator: Adobe Illustrator 17.1.0, SVG Export Plug-In . SVG Version: 6.00 Build 0)  -->
<!DOCTYPE svg PUBLIC "-//W3C//DTD SVG 1.1//EN" "http://www.w3.org/Graphics/SVG/1.1/DTD/svg11.dtd">
<svg version="1.1" xmlns="http://www.w3.org/2000/svg" xmlns:xlink="http://www.w3.org/1999/xlink" x="0px" y="0px"
	 viewBox="0 0 644 145.5" width="644" height="145.5"  enable-background="new 0 0 644 145.5" xml:space="preserve">
<g id="Layer_1">
	<rect x="257" y="24.5" fill="#9655D2" width="65" height="66"/>
	<rect x="193" y="24.5" fill="#AD6EE6" width="64" height="66"/>
	<rect x="129" y="24.5" fill="#B88DF5" width="64" height="66"/>
	<rect x="65" y="24.5" fill="#D5A8FF" width="64" height="66"/>
	<rect y="24.5" fill="#ECD0FF" width="65" height="66"/>
	<rect x="387" y="24.5" fill="#562F72" width="64" height="66"/>
	<rect x="322" y="24.5" fill="#734096" width="65" height="66"/>
	<g>
		<path d="M32.115,47.533l6.675,17.85h-4.075l-1.35-3.975H26.69l-1.4,3.975h-3.95l6.75-17.85H32.115z M32.34,58.482l-2.25-6.55
			h-0.05l-2.325,6.55H32.34z"/>
	</g>
	<g>
		<path d="M99.421,47.533l6.675,17.85h-4.075l-1.35-3.975h-6.675l-1.4,3.975h-3.95l6.75-17.85H99.421z M99.646,58.482l-2.25-6.55
			h-0.05l-2.325,6.55H99.646z"/>
	</g>
	<g>
		<path d="M163.727,47.533l6.675,17.85h-4.075l-1.35-3.975h-6.676l-1.399,3.975h-3.95l6.75-17.85H163.727z M163.951,58.482
			l-2.25-6.55h-0.05l-2.325,6.55H163.951z"/>
	</g>
	<g>
		<path d="M227.031,47.533l6.676,17.85h-4.075l-1.351-3.975h-6.675l-1.399,3.975h-3.95l6.75-17.85H227.031z M227.257,58.482
			l-2.25-6.55h-0.05l-2.325,6.55H227.257z"/>
	</g>
	<g>
		<path fill="#FFFFFF" d="M359.426,47.533l6.676,17.85h-4.075l-1.351-3.975h-6.675l-1.399,3.975h-3.95l6.75-17.85H359.426z
			 M359.651,58.482l-2.25-6.55h-0.05l-2.325,6.55H359.651z"/>
	</g>
	<g>
		<polygon fill="#333333" points="286,121.5 29,121.5 29,102.5 30,102.5 30,120.5 285,120.5 285,102.5 286,102.5 		"/>
	</g>
	<g>
		<polygon fill="#333333" points="613,121.5 293,121.5 293,102.5 294,102.5 294,120.5 612,120.5 612,102.5 613,102.5 		"/>
	</g>
	<g>
		<path d="M278.365,47.533l6.675,17.85h-4.075l-1.35-3.975h-6.675l-1.4,3.975h-3.95l6.75-17.85H278.365z M278.59,58.482l-2.25-6.55
			h-0.05l-2.325,6.55H278.59z"/>
	</g>
	<g>
		<path fill="#FFFFFF" d="M303.625,47.533l6.675,17.85h-4.075l-1.35-3.975H298.2l-1.4,3.975h-3.95l6.75-17.85H303.625z
			 M303.85,58.482l-2.25-6.55h-0.05l-2.325,6.55H303.85z"/>
	</g>
	<g>
		<path fill="#777677" d="M29.919,11.049V4.954h-2.208V4.137c0.288,0,0.567-0.021,0.84-0.065c0.271-0.044,0.518-0.126,0.738-0.246
			c0.22-0.12,0.405-0.284,0.558-0.492c0.151-0.208,0.256-0.472,0.312-0.792h0.78v8.508H29.919z"/>
		<path fill="#777677" d="M34.467,5.901c0.016-0.336,0.056-0.663,0.12-0.983c0.063-0.32,0.155-0.624,0.276-0.912
			c0.119-0.288,0.283-0.54,0.491-0.756s0.47-0.388,0.786-0.517c0.316-0.128,0.694-0.191,1.134-0.191c0.44,0,0.818,0.063,1.134,0.191
			c0.316,0.129,0.578,0.301,0.787,0.517c0.207,0.216,0.371,0.468,0.491,0.756s0.212,0.592,0.276,0.912
			c0.063,0.32,0.104,0.647,0.12,0.983c0.016,0.337,0.023,0.66,0.023,0.973c0,0.312-0.008,0.636-0.023,0.972
			c-0.017,0.336-0.057,0.664-0.12,0.984c-0.064,0.319-0.156,0.622-0.276,0.905c-0.12,0.284-0.284,0.534-0.491,0.75
			c-0.209,0.217-0.469,0.387-0.78,0.511c-0.312,0.124-0.692,0.186-1.141,0.186c-0.439,0-0.817-0.062-1.134-0.186
			s-0.578-0.294-0.786-0.511c-0.208-0.216-0.372-0.466-0.491-0.75c-0.121-0.283-0.213-0.586-0.276-0.905
			c-0.064-0.32-0.104-0.648-0.12-0.984s-0.024-0.66-0.024-0.972C34.442,6.561,34.451,6.238,34.467,5.901z M35.553,7.935
			c0.02,0.396,0.084,0.769,0.191,1.116c0.108,0.348,0.282,0.642,0.522,0.882s0.576,0.36,1.008,0.36c0.433,0,0.769-0.12,1.009-0.36
			c0.239-0.24,0.414-0.534,0.521-0.882c0.108-0.348,0.172-0.72,0.192-1.116c0.02-0.396,0.029-0.754,0.029-1.074
			c0-0.207-0.002-0.438-0.006-0.689s-0.023-0.504-0.06-0.756s-0.088-0.498-0.156-0.738s-0.168-0.45-0.3-0.63
			s-0.298-0.326-0.498-0.438c-0.2-0.111-0.444-0.168-0.732-0.168s-0.532,0.057-0.731,0.168c-0.2,0.112-0.366,0.259-0.498,0.438
			s-0.232,0.39-0.301,0.63c-0.067,0.24-0.119,0.486-0.155,0.738s-0.056,0.504-0.06,0.756c-0.005,0.252-0.007,0.482-0.007,0.689
			C35.522,7.181,35.533,7.54,35.553,7.935z"/>
		<path fill="#777677" d="M89.103,4.353c0.112-0.367,0.286-0.686,0.522-0.954c0.235-0.268,0.529-0.478,0.882-0.63
			c0.352-0.151,0.752-0.228,1.2-0.228c0.367,0,0.714,0.054,1.037,0.162c0.324,0.107,0.606,0.264,0.847,0.468
			c0.239,0.204,0.43,0.458,0.569,0.762c0.141,0.305,0.211,0.656,0.211,1.057c0,0.376-0.059,0.708-0.175,0.995
			c-0.116,0.288-0.27,0.547-0.462,0.774c-0.191,0.229-0.412,0.435-0.66,0.618s-0.504,0.36-0.768,0.528
			c-0.264,0.16-0.528,0.317-0.792,0.474s-0.506,0.322-0.726,0.498c-0.221,0.176-0.408,0.366-0.564,0.57
			c-0.156,0.203-0.258,0.438-0.306,0.701h4.368v0.9H88.73c0.04-0.504,0.13-0.934,0.271-1.29c0.14-0.355,0.317-0.666,0.534-0.93
			c0.216-0.265,0.459-0.496,0.731-0.696s0.556-0.388,0.853-0.564c0.359-0.224,0.676-0.43,0.947-0.617
			c0.272-0.188,0.498-0.378,0.678-0.57c0.181-0.192,0.316-0.4,0.408-0.624s0.139-0.484,0.139-0.78c0-0.231-0.045-0.441-0.133-0.63
			c-0.088-0.188-0.205-0.35-0.354-0.486c-0.148-0.136-0.322-0.239-0.521-0.312c-0.201-0.072-0.412-0.108-0.637-0.108
			c-0.296,0-0.55,0.062-0.762,0.187s-0.387,0.286-0.522,0.486c-0.136,0.199-0.233,0.426-0.294,0.678
			c-0.06,0.252-0.086,0.506-0.078,0.762h-1.02C88.946,5.122,88.99,4.721,89.103,4.353z"/>
		<path fill="#777677" d="M96.243,5.901c0.016-0.336,0.056-0.663,0.12-0.983c0.063-0.32,0.155-0.624,0.275-0.912
			s0.284-0.54,0.492-0.756s0.47-0.388,0.786-0.517c0.315-0.128,0.694-0.191,1.134-0.191s0.818,0.063,1.134,0.191
			c0.316,0.129,0.578,0.301,0.786,0.517s0.372,0.468,0.492,0.756s0.212,0.592,0.275,0.912c0.064,0.32,0.104,0.647,0.121,0.983
			c0.016,0.337,0.023,0.66,0.023,0.973c0,0.312-0.008,0.636-0.023,0.972c-0.017,0.336-0.057,0.664-0.121,0.984
			c-0.063,0.319-0.155,0.622-0.275,0.905c-0.12,0.284-0.284,0.534-0.492,0.75c-0.208,0.217-0.468,0.387-0.779,0.511
			c-0.312,0.124-0.692,0.186-1.141,0.186c-0.439,0-0.818-0.062-1.134-0.186c-0.316-0.124-0.578-0.294-0.786-0.511
			c-0.208-0.216-0.372-0.466-0.492-0.75c-0.12-0.283-0.212-0.586-0.275-0.905c-0.064-0.32-0.104-0.648-0.12-0.984
			c-0.017-0.336-0.024-0.66-0.024-0.972C96.219,6.561,96.227,6.238,96.243,5.901z M97.329,7.935c0.02,0.396,0.084,0.769,0.191,1.116
			c0.108,0.348,0.282,0.642,0.522,0.882s0.576,0.36,1.008,0.36s0.768-0.12,1.008-0.36s0.414-0.534,0.522-0.882
			s0.172-0.72,0.192-1.116c0.02-0.396,0.029-0.754,0.029-1.074c0-0.207-0.002-0.438-0.006-0.689s-0.023-0.504-0.061-0.756
			c-0.035-0.252-0.088-0.498-0.155-0.738c-0.068-0.24-0.168-0.45-0.3-0.63c-0.133-0.18-0.299-0.326-0.498-0.438
			c-0.2-0.111-0.444-0.168-0.732-0.168s-0.532,0.057-0.732,0.168c-0.199,0.112-0.365,0.259-0.498,0.438
			c-0.131,0.18-0.231,0.39-0.3,0.63c-0.067,0.24-0.12,0.486-0.155,0.738c-0.036,0.252-0.057,0.504-0.061,0.756
			s-0.006,0.482-0.006,0.689C97.299,7.181,97.309,7.54,97.329,7.935z"/>
		<path fill="#777677" d="M156.879,6.202c0.04,0,0.08,0,0.12,0h0.216c0.216,0,0.422-0.03,0.618-0.091
			c0.196-0.06,0.368-0.147,0.516-0.264c0.148-0.116,0.267-0.262,0.354-0.438s0.132-0.376,0.132-0.601
			c0-0.456-0.145-0.798-0.433-1.025c-0.287-0.229-0.647-0.343-1.08-0.343c-0.271,0-0.51,0.051-0.713,0.15
			c-0.205,0.101-0.373,0.234-0.505,0.402s-0.229,0.364-0.294,0.588s-0.096,0.46-0.096,0.708h-1.02
			c0.016-0.408,0.081-0.78,0.197-1.116s0.282-0.624,0.498-0.864s0.486-0.428,0.811-0.563s0.697-0.204,1.121-0.204
			c0.368,0,0.711,0.046,1.026,0.138c0.316,0.092,0.59,0.23,0.822,0.414c0.231,0.185,0.414,0.42,0.546,0.708s0.198,0.628,0.198,1.021
			c0,0.384-0.112,0.724-0.336,1.02c-0.225,0.296-0.505,0.521-0.841,0.672v0.024c0.521,0.112,0.906,0.355,1.158,0.731
			s0.379,0.82,0.379,1.332c0,0.425-0.078,0.798-0.234,1.122s-0.366,0.594-0.63,0.811c-0.265,0.216-0.574,0.378-0.931,0.485
			c-0.355,0.108-0.733,0.162-1.134,0.162c-0.432,0-0.824-0.06-1.176-0.18c-0.353-0.12-0.652-0.298-0.9-0.534
			s-0.438-0.526-0.569-0.87c-0.133-0.344-0.194-0.735-0.187-1.176h1.021c0.016,0.552,0.176,1.002,0.479,1.35
			c0.304,0.349,0.748,0.522,1.332,0.522c0.248,0,0.484-0.038,0.708-0.114s0.42-0.184,0.588-0.324
			c0.168-0.14,0.302-0.312,0.402-0.516c0.1-0.204,0.15-0.434,0.15-0.69c0-0.264-0.049-0.498-0.145-0.701
			c-0.096-0.204-0.225-0.376-0.384-0.517c-0.16-0.14-0.351-0.244-0.57-0.312c-0.22-0.068-0.458-0.103-0.714-0.103
			c-0.216,0-0.42,0.013-0.612,0.036V6.189C156.811,6.198,156.847,6.202,156.879,6.202z"/>
		<path fill="#777677" d="M161.955,5.901c0.016-0.336,0.056-0.663,0.119-0.983c0.064-0.32,0.156-0.624,0.276-0.912
			s0.284-0.54,0.492-0.756s0.47-0.388,0.786-0.517c0.315-0.128,0.693-0.191,1.134-0.191s0.817,0.063,1.134,0.191
			c0.316,0.129,0.578,0.301,0.786,0.517s0.372,0.468,0.492,0.756s0.212,0.592,0.276,0.912c0.063,0.32,0.104,0.647,0.119,0.983
			c0.017,0.337,0.024,0.66,0.024,0.973c0,0.312-0.008,0.636-0.024,0.972c-0.016,0.336-0.056,0.664-0.119,0.984
			c-0.064,0.319-0.156,0.622-0.276,0.905c-0.12,0.284-0.284,0.534-0.492,0.75c-0.208,0.217-0.468,0.387-0.78,0.511
			c-0.312,0.124-0.691,0.186-1.14,0.186c-0.44,0-0.818-0.062-1.134-0.186c-0.316-0.124-0.578-0.294-0.786-0.511
			c-0.208-0.216-0.372-0.466-0.492-0.75c-0.12-0.283-0.212-0.586-0.276-0.905c-0.063-0.32-0.104-0.648-0.119-0.984
			c-0.017-0.336-0.024-0.66-0.024-0.972C161.931,6.561,161.938,6.238,161.955,5.901z M163.041,7.935
			c0.02,0.396,0.084,0.769,0.191,1.116c0.108,0.348,0.282,0.642,0.522,0.882s0.576,0.36,1.008,0.36c0.433,0,0.769-0.12,1.008-0.36
			c0.24-0.24,0.414-0.534,0.522-0.882c0.107-0.348,0.172-0.72,0.191-1.116c0.021-0.396,0.03-0.754,0.03-1.074
			c0-0.207-0.002-0.438-0.006-0.689s-0.024-0.504-0.06-0.756c-0.036-0.252-0.089-0.498-0.156-0.738
			c-0.068-0.24-0.168-0.45-0.301-0.63c-0.131-0.18-0.298-0.326-0.497-0.438c-0.2-0.111-0.444-0.168-0.732-0.168
			s-0.532,0.057-0.731,0.168c-0.2,0.112-0.366,0.259-0.498,0.438c-0.133,0.18-0.232,0.39-0.301,0.63
			c-0.067,0.24-0.119,0.486-0.156,0.738c-0.035,0.252-0.056,0.504-0.06,0.756s-0.006,0.482-0.006,0.689
			C163.011,7.181,163.021,7.54,163.041,7.935z"/>
		<path fill="#777677" d="M222.11,8.158v0.899h-1.151v1.992h-0.96V9.057h-3.732V8.074l3.876-5.532h0.816v5.616H222.11z
			 M219.999,3.994h-0.024l-2.832,4.164h2.856V3.994z"/>
		<path fill="#777677" d="M223.73,5.901c0.016-0.336,0.057-0.663,0.12-0.983s0.156-0.624,0.276-0.912
			c0.119-0.288,0.283-0.54,0.492-0.756c0.207-0.216,0.47-0.388,0.785-0.517c0.316-0.128,0.694-0.191,1.135-0.191
			c0.439,0,0.817,0.063,1.134,0.191c0.315,0.129,0.577,0.301,0.786,0.517c0.207,0.216,0.371,0.468,0.492,0.756
			c0.119,0.288,0.211,0.592,0.275,0.912s0.104,0.647,0.12,0.983c0.016,0.337,0.024,0.66,0.024,0.973
			c0,0.312-0.009,0.636-0.024,0.972c-0.017,0.336-0.056,0.664-0.12,0.984c-0.064,0.319-0.156,0.622-0.275,0.905
			c-0.121,0.284-0.285,0.534-0.492,0.75c-0.209,0.217-0.469,0.387-0.78,0.511s-0.692,0.186-1.14,0.186
			c-0.44,0-0.818-0.062-1.135-0.186c-0.315-0.124-0.578-0.294-0.785-0.511c-0.209-0.216-0.373-0.466-0.492-0.75
			c-0.12-0.283-0.213-0.586-0.276-0.905c-0.063-0.32-0.104-0.648-0.12-0.984s-0.023-0.66-0.023-0.972
			C223.707,6.561,223.715,6.238,223.73,5.901z M224.816,7.935c0.02,0.396,0.084,0.769,0.192,1.116s0.282,0.642,0.521,0.882
			c0.24,0.24,0.576,0.36,1.009,0.36c0.432,0,0.768-0.12,1.008-0.36s0.414-0.534,0.521-0.882c0.108-0.348,0.172-0.72,0.192-1.116
			c0.02-0.396,0.03-0.754,0.03-1.074c0-0.207-0.002-0.438-0.006-0.689c-0.005-0.252-0.024-0.504-0.061-0.756
			s-0.088-0.498-0.156-0.738s-0.168-0.45-0.3-0.63s-0.298-0.326-0.498-0.438c-0.2-0.111-0.444-0.168-0.731-0.168
			c-0.288,0-0.532,0.057-0.732,0.168c-0.2,0.112-0.366,0.259-0.498,0.438s-0.232,0.39-0.3,0.63c-0.068,0.24-0.12,0.486-0.156,0.738
			s-0.056,0.504-0.06,0.756s-0.006,0.482-0.006,0.689C224.787,7.181,224.797,7.54,224.816,7.935z"/>
		<path fill="#777677" d="M283.851,3.585l-0.456,2.448l0.023,0.023c0.185-0.208,0.422-0.361,0.715-0.462
			c0.292-0.1,0.582-0.149,0.87-0.149c0.376,0,0.731,0.06,1.067,0.18s0.628,0.302,0.876,0.546s0.444,0.548,0.589,0.912
			c0.144,0.364,0.215,0.79,0.215,1.277c0,0.36-0.062,0.711-0.186,1.051s-0.311,0.642-0.558,0.905
			c-0.248,0.265-0.559,0.475-0.931,0.631c-0.371,0.155-0.806,0.233-1.302,0.233c-0.368,0-0.714-0.054-1.038-0.162
			c-0.324-0.107-0.609-0.264-0.857-0.468s-0.444-0.458-0.588-0.762c-0.145-0.304-0.221-0.648-0.229-1.032h1.02
			c0.017,0.216,0.07,0.418,0.162,0.606c0.092,0.188,0.217,0.352,0.373,0.491c0.155,0.141,0.34,0.248,0.551,0.324
			c0.213,0.076,0.446,0.114,0.703,0.114c0.239,0,0.469-0.042,0.689-0.126c0.22-0.084,0.412-0.21,0.576-0.378s0.294-0.378,0.39-0.63
			c0.097-0.252,0.145-0.546,0.145-0.883c0-0.279-0.046-0.537-0.139-0.773c-0.092-0.236-0.222-0.44-0.39-0.612
			s-0.37-0.306-0.605-0.401c-0.236-0.097-0.498-0.145-0.787-0.145c-0.336,0-0.634,0.074-0.894,0.222
			c-0.26,0.148-0.49,0.343-0.69,0.582l-0.875-0.048l0.791-4.416h4.2v0.9H283.851z"/>
		<path fill="#777677" d="M289.442,5.901c0.017-0.336,0.056-0.663,0.12-0.983s0.156-0.624,0.276-0.912s0.283-0.54,0.491-0.756
			c0.209-0.216,0.471-0.388,0.786-0.517c0.316-0.128,0.694-0.191,1.134-0.191c0.44,0,0.818,0.063,1.135,0.191
			c0.315,0.129,0.578,0.301,0.786,0.517s0.372,0.468,0.491,0.756c0.12,0.288,0.213,0.592,0.276,0.912s0.104,0.647,0.12,0.983
			c0.016,0.337,0.023,0.66,0.023,0.973c0,0.312-0.008,0.636-0.023,0.972s-0.057,0.664-0.12,0.984
			c-0.063,0.319-0.156,0.622-0.276,0.905c-0.119,0.284-0.283,0.534-0.491,0.75c-0.208,0.217-0.468,0.387-0.78,0.511
			s-0.692,0.186-1.141,0.186c-0.439,0-0.817-0.062-1.134-0.186c-0.315-0.124-0.577-0.294-0.786-0.511
			c-0.208-0.216-0.371-0.466-0.491-0.75c-0.12-0.283-0.212-0.586-0.276-0.905c-0.064-0.32-0.104-0.648-0.12-0.984
			c-0.016-0.336-0.024-0.66-0.024-0.972C289.418,6.561,289.427,6.238,289.442,5.901z M290.528,7.935
			c0.021,0.396,0.084,0.769,0.192,1.116c0.107,0.348,0.281,0.642,0.521,0.882s0.576,0.36,1.008,0.36c0.433,0,0.769-0.12,1.009-0.36
			c0.239-0.24,0.414-0.534,0.521-0.882c0.108-0.348,0.172-0.72,0.192-1.116c0.02-0.396,0.029-0.754,0.029-1.074
			c0-0.207-0.002-0.438-0.006-0.689s-0.023-0.504-0.06-0.756s-0.088-0.498-0.156-0.738c-0.067-0.24-0.168-0.45-0.3-0.63
			s-0.298-0.326-0.498-0.438c-0.2-0.111-0.443-0.168-0.732-0.168c-0.287,0-0.531,0.057-0.731,0.168
			c-0.2,0.112-0.366,0.259-0.498,0.438s-0.232,0.39-0.3,0.63c-0.068,0.24-0.12,0.486-0.156,0.738s-0.056,0.504-0.06,0.756
			c-0.005,0.252-0.007,0.482-0.007,0.689C290.498,7.181,290.509,7.54,290.528,7.935z"/>
		<path fill="#777677" d="M354.854,3.79c-0.248-0.232-0.576-0.349-0.983-0.349c-0.433,0-0.78,0.106-1.045,0.318
			c-0.264,0.212-0.47,0.48-0.617,0.804c-0.148,0.324-0.25,0.675-0.307,1.051c-0.056,0.376-0.088,0.728-0.096,1.056l0.023,0.023
			c0.24-0.392,0.538-0.676,0.895-0.852c0.355-0.176,0.766-0.264,1.23-0.264c0.407,0,0.773,0.069,1.098,0.21
			c0.324,0.14,0.596,0.334,0.816,0.582c0.22,0.248,0.39,0.54,0.51,0.876c0.119,0.336,0.18,0.7,0.18,1.092
			c0,0.312-0.048,0.636-0.145,0.972c-0.096,0.336-0.254,0.643-0.474,0.918c-0.22,0.276-0.512,0.504-0.876,0.685
			c-0.364,0.18-0.814,0.27-1.35,0.27c-0.633,0-1.141-0.128-1.524-0.384s-0.68-0.584-0.888-0.984
			c-0.208-0.399-0.346-0.84-0.414-1.319c-0.068-0.48-0.102-0.944-0.102-1.393c0-0.584,0.049-1.149,0.149-1.698
			c0.101-0.548,0.271-1.033,0.51-1.457c0.24-0.425,0.56-0.765,0.96-1.021s0.904-0.384,1.512-0.384c0.705,0,1.265,0.186,1.681,0.558
			s0.655,0.91,0.72,1.614h-1.02C355.25,4.33,355.103,4.021,354.854,3.79z M353.007,6.627c-0.216,0.1-0.4,0.236-0.552,0.408
			c-0.152,0.172-0.267,0.376-0.343,0.611c-0.076,0.236-0.114,0.486-0.114,0.75c0,0.265,0.041,0.513,0.121,0.744
			c0.079,0.232,0.193,0.433,0.342,0.601c0.147,0.168,0.332,0.302,0.552,0.401c0.22,0.101,0.47,0.15,0.75,0.15s0.526-0.05,0.737-0.15
			c0.213-0.1,0.391-0.237,0.535-0.414c0.144-0.176,0.253-0.378,0.329-0.605c0.076-0.229,0.114-0.466,0.114-0.714
			c0-0.265-0.034-0.515-0.102-0.75c-0.068-0.236-0.174-0.44-0.318-0.612s-0.324-0.31-0.54-0.414
			c-0.216-0.104-0.468-0.156-0.756-0.156S353.223,6.528,353.007,6.627z"/>
		<path fill="#777677" d="M358.131,5.901c0.016-0.336,0.056-0.663,0.119-0.983c0.064-0.32,0.156-0.624,0.276-0.912
			s0.284-0.54,0.492-0.756s0.47-0.388,0.786-0.517c0.315-0.128,0.693-0.191,1.134-0.191s0.817,0.063,1.134,0.191
			c0.316,0.129,0.578,0.301,0.786,0.517s0.372,0.468,0.492,0.756s0.212,0.592,0.276,0.912c0.063,0.32,0.104,0.647,0.119,0.983
			c0.017,0.337,0.024,0.66,0.024,0.973c0,0.312-0.008,0.636-0.024,0.972c-0.016,0.336-0.056,0.664-0.119,0.984
			c-0.064,0.319-0.156,0.622-0.276,0.905c-0.12,0.284-0.284,0.534-0.492,0.75c-0.208,0.217-0.468,0.387-0.78,0.511
			c-0.312,0.124-0.691,0.186-1.14,0.186c-0.44,0-0.818-0.062-1.134-0.186c-0.316-0.124-0.578-0.294-0.786-0.511
			c-0.208-0.216-0.372-0.466-0.492-0.75c-0.12-0.283-0.212-0.586-0.276-0.905c-0.063-0.32-0.104-0.648-0.119-0.984
			c-0.017-0.336-0.024-0.66-0.024-0.972C358.106,6.561,358.114,6.238,358.131,5.901z M359.217,7.935
			c0.02,0.396,0.084,0.769,0.191,1.116c0.108,0.348,0.282,0.642,0.522,0.882s0.576,0.36,1.008,0.36c0.433,0,0.769-0.12,1.008-0.36
			c0.24-0.24,0.414-0.534,0.522-0.882c0.107-0.348,0.172-0.72,0.191-1.116c0.021-0.396,0.03-0.754,0.03-1.074
			c0-0.207-0.002-0.438-0.006-0.689s-0.024-0.504-0.06-0.756c-0.036-0.252-0.089-0.498-0.156-0.738
			c-0.068-0.24-0.168-0.45-0.301-0.63c-0.131-0.18-0.298-0.326-0.497-0.438c-0.2-0.111-0.444-0.168-0.732-0.168
			s-0.532,0.057-0.731,0.168c-0.2,0.112-0.366,0.259-0.498,0.438c-0.133,0.18-0.232,0.39-0.301,0.63
			c-0.067,0.24-0.119,0.486-0.156,0.738c-0.035,0.252-0.056,0.504-0.06,0.756s-0.006,0.482-0.006,0.689
			C359.187,7.181,359.196,7.54,359.217,7.935z"/>
		<path fill="#777677" d="M417.002,5.074c-0.376,0.584-0.709,1.208-1.002,1.872c-0.292,0.664-0.529,1.348-0.714,2.052
			c-0.184,0.704-0.296,1.388-0.336,2.052h-1.14c0.048-0.72,0.166-1.422,0.354-2.106c0.188-0.684,0.431-1.34,0.727-1.968
			s0.638-1.222,1.025-1.782c0.389-0.56,0.807-1.075,1.254-1.548h-4.463v-0.96h5.508v0.876C417.782,3.986,417.379,4.49,417.002,5.074
			z"/>
		<path fill="#777677" d="M419.906,5.901c0.017-0.336,0.057-0.663,0.12-0.983c0.064-0.32,0.156-0.624,0.276-0.912
			s0.283-0.54,0.492-0.756c0.208-0.216,0.47-0.388,0.785-0.517c0.316-0.128,0.694-0.191,1.135-0.191
			c0.439,0,0.817,0.063,1.134,0.191c0.315,0.129,0.578,0.301,0.786,0.517s0.372,0.468,0.492,0.756
			c0.119,0.288,0.212,0.592,0.275,0.912c0.064,0.32,0.104,0.647,0.12,0.983c0.017,0.337,0.024,0.66,0.024,0.973
			c0,0.312-0.008,0.636-0.024,0.972c-0.016,0.336-0.056,0.664-0.12,0.984c-0.063,0.319-0.156,0.622-0.275,0.905
			c-0.12,0.284-0.284,0.534-0.492,0.75c-0.208,0.217-0.468,0.387-0.78,0.511c-0.312,0.124-0.692,0.186-1.14,0.186
			c-0.44,0-0.818-0.062-1.135-0.186c-0.315-0.124-0.577-0.294-0.785-0.511c-0.209-0.216-0.372-0.466-0.492-0.75
			c-0.12-0.283-0.212-0.586-0.276-0.905c-0.063-0.32-0.104-0.648-0.12-0.984c-0.016-0.336-0.023-0.66-0.023-0.972
			C419.883,6.561,419.891,6.238,419.906,5.901z M420.992,7.935c0.021,0.396,0.084,0.769,0.192,1.116s0.282,0.642,0.522,0.882
			s0.576,0.36,1.008,0.36s0.768-0.12,1.008-0.36s0.414-0.534,0.521-0.882c0.108-0.348,0.172-0.72,0.192-1.116
			c0.021-0.396,0.03-0.754,0.03-1.074c0-0.207-0.002-0.438-0.006-0.689s-0.024-0.504-0.061-0.756
			c-0.035-0.252-0.088-0.498-0.156-0.738c-0.067-0.24-0.168-0.45-0.3-0.63s-0.298-0.326-0.497-0.438
			c-0.201-0.111-0.444-0.168-0.732-0.168s-0.532,0.057-0.732,0.168c-0.199,0.112-0.365,0.259-0.498,0.438
			c-0.132,0.18-0.232,0.39-0.3,0.63s-0.12,0.486-0.156,0.738s-0.056,0.504-0.06,0.756s-0.006,0.482-0.006,0.689
			C420.963,7.181,420.973,7.54,420.992,7.935z"/>
		<path fill="#777677" d="M479.954,3.784c0.136-0.269,0.32-0.494,0.552-0.679c0.232-0.184,0.498-0.323,0.799-0.42
			c0.3-0.096,0.613-0.144,0.941-0.144c0.465,0,0.86,0.062,1.188,0.186s0.594,0.288,0.798,0.492s0.354,0.437,0.45,0.696
			c0.096,0.26,0.144,0.526,0.144,0.798c0,0.384-0.105,0.734-0.317,1.05c-0.212,0.316-0.498,0.554-0.858,0.714
			c0.512,0.16,0.893,0.422,1.141,0.786c0.247,0.364,0.371,0.811,0.371,1.338c0,0.416-0.074,0.784-0.222,1.104
			c-0.148,0.319-0.348,0.59-0.6,0.81c-0.253,0.221-0.551,0.387-0.895,0.498c-0.344,0.112-0.712,0.168-1.104,0.168
			c-0.408,0-0.788-0.052-1.141-0.156c-0.352-0.104-0.657-0.264-0.918-0.479c-0.26-0.216-0.464-0.486-0.612-0.811
			c-0.147-0.323-0.222-0.701-0.222-1.134c0-0.504,0.128-0.941,0.384-1.313s0.625-0.643,1.104-0.811
			c-0.36-0.144-0.647-0.378-0.864-0.702c-0.216-0.323-0.324-0.678-0.324-1.062C479.75,4.362,479.818,4.051,479.954,3.784z
			 M481.041,9.855c0.34,0.292,0.773,0.438,1.302,0.438c0.256,0,0.489-0.042,0.702-0.126c0.211-0.084,0.396-0.2,0.552-0.349
			c0.155-0.147,0.276-0.321,0.36-0.521s0.125-0.42,0.125-0.66c0-0.231-0.046-0.445-0.138-0.642s-0.218-0.366-0.378-0.511
			c-0.16-0.144-0.346-0.258-0.558-0.342s-0.438-0.126-0.679-0.126c-0.248,0-0.481,0.038-0.701,0.114
			c-0.221,0.076-0.412,0.186-0.576,0.33c-0.164,0.144-0.293,0.316-0.385,0.516c-0.092,0.2-0.138,0.425-0.138,0.672
			C480.53,9.162,480.7,9.563,481.041,9.855z M480.95,5.355c0.08,0.173,0.188,0.314,0.324,0.427c0.136,0.111,0.296,0.195,0.479,0.252
			c0.185,0.056,0.381,0.084,0.589,0.084c0.407,0,0.743-0.12,1.008-0.36c0.264-0.24,0.396-0.576,0.396-1.008
			c0-0.433-0.134-0.758-0.401-0.979c-0.269-0.22-0.61-0.33-1.026-0.33c-0.2,0-0.392,0.028-0.576,0.084
			c-0.184,0.057-0.342,0.141-0.474,0.252c-0.132,0.112-0.238,0.248-0.318,0.408s-0.12,0.349-0.12,0.564
			C480.83,4.981,480.87,5.183,480.95,5.355z"/>
		<path fill="#777677" d="M486.771,5.901c0.016-0.336,0.056-0.663,0.12-0.983c0.063-0.32,0.156-0.624,0.275-0.912
			c0.12-0.288,0.284-0.54,0.492-0.756s0.471-0.388,0.786-0.517c0.315-0.128,0.694-0.191,1.134-0.191c0.44,0,0.818,0.063,1.135,0.191
			c0.315,0.129,0.577,0.301,0.785,0.517s0.372,0.468,0.492,0.756s0.212,0.592,0.276,0.912c0.063,0.32,0.104,0.647,0.12,0.983
			c0.016,0.337,0.023,0.66,0.023,0.973c0,0.312-0.008,0.636-0.023,0.972c-0.017,0.336-0.057,0.664-0.12,0.984
			c-0.064,0.319-0.156,0.622-0.276,0.905c-0.12,0.284-0.284,0.534-0.492,0.75c-0.208,0.217-0.468,0.387-0.779,0.511
			c-0.312,0.124-0.692,0.186-1.141,0.186c-0.439,0-0.818-0.062-1.134-0.186s-0.578-0.294-0.786-0.511
			c-0.208-0.216-0.372-0.466-0.492-0.75c-0.119-0.283-0.212-0.586-0.275-0.905c-0.064-0.32-0.104-0.648-0.12-0.984
			c-0.017-0.336-0.024-0.66-0.024-0.972C486.746,6.561,486.754,6.238,486.771,5.901z M487.856,7.935
			c0.02,0.396,0.084,0.769,0.192,1.116c0.107,0.348,0.281,0.642,0.521,0.882s0.576,0.36,1.008,0.36c0.433,0,0.769-0.12,1.008-0.36
			c0.24-0.24,0.414-0.534,0.522-0.882s0.172-0.72,0.192-1.116c0.02-0.396,0.029-0.754,0.029-1.074c0-0.207-0.002-0.438-0.006-0.689
			s-0.023-0.504-0.06-0.756s-0.089-0.498-0.156-0.738c-0.068-0.24-0.168-0.45-0.3-0.63s-0.299-0.326-0.498-0.438
			c-0.2-0.111-0.444-0.168-0.732-0.168c-0.287,0-0.531,0.057-0.731,0.168c-0.2,0.112-0.366,0.259-0.498,0.438s-0.232,0.39-0.3,0.63
			c-0.068,0.24-0.12,0.486-0.156,0.738s-0.057,0.504-0.061,0.756s-0.006,0.482-0.006,0.689
			C487.826,7.181,487.836,7.54,487.856,7.935z"/>
		<path fill="#777677" d="M545.45,9.958c0.296,0.224,0.648,0.336,1.056,0.336c0.625,0,1.093-0.271,1.404-0.811
			c0.312-0.54,0.484-1.365,0.516-2.478l-0.023-0.024c-0.191,0.36-0.464,0.646-0.816,0.858c-0.352,0.212-0.735,0.318-1.151,0.318
			c-0.433,0-0.816-0.07-1.152-0.21c-0.336-0.141-0.618-0.334-0.846-0.582s-0.4-0.548-0.517-0.9
			c-0.115-0.352-0.174-0.736-0.174-1.152c0-0.407,0.068-0.781,0.204-1.122c0.136-0.34,0.328-0.632,0.576-0.876
			c0.248-0.243,0.544-0.434,0.888-0.569s0.721-0.204,1.129-0.204c0.399,0,0.775,0.062,1.127,0.186
			c0.353,0.124,0.66,0.338,0.925,0.643c0.264,0.304,0.474,0.718,0.63,1.241c0.156,0.524,0.234,1.19,0.234,1.998
			c0,1.473-0.234,2.603-0.703,3.391c-0.468,0.788-1.218,1.182-2.25,1.182c-0.712,0-1.304-0.18-1.775-0.54
			c-0.473-0.359-0.74-0.907-0.805-1.644h1.021C544.986,9.414,545.154,9.734,545.45,9.958z M548.133,4.641
			c-0.076-0.231-0.188-0.438-0.336-0.618c-0.148-0.18-0.33-0.321-0.547-0.426c-0.216-0.104-0.468-0.156-0.756-0.156
			c-0.304,0-0.562,0.057-0.773,0.168c-0.213,0.112-0.385,0.263-0.517,0.45c-0.132,0.188-0.228,0.402-0.288,0.643
			c-0.06,0.239-0.09,0.491-0.09,0.756c0,0.231,0.042,0.456,0.126,0.672s0.2,0.408,0.349,0.576c0.147,0.168,0.323,0.302,0.527,0.401
			c0.204,0.101,0.43,0.15,0.678,0.15c0.265,0,0.505-0.05,0.721-0.15c0.216-0.1,0.399-0.235,0.552-0.407
			c0.151-0.172,0.269-0.372,0.349-0.601c0.079-0.228,0.119-0.466,0.119-0.714C548.246,5.122,548.208,4.874,548.133,4.641z"/>
		<path fill="#777677" d="M551.139,5.901c0.016-0.336,0.056-0.663,0.119-0.983c0.064-0.32,0.156-0.624,0.276-0.912
			s0.284-0.54,0.492-0.756s0.47-0.388,0.786-0.517c0.315-0.128,0.693-0.191,1.134-0.191s0.817,0.063,1.134,0.191
			c0.316,0.129,0.578,0.301,0.786,0.517s0.372,0.468,0.492,0.756s0.212,0.592,0.276,0.912c0.063,0.32,0.104,0.647,0.119,0.983
			c0.017,0.337,0.024,0.66,0.024,0.973c0,0.312-0.008,0.636-0.024,0.972c-0.016,0.336-0.056,0.664-0.119,0.984
			c-0.064,0.319-0.156,0.622-0.276,0.905c-0.12,0.284-0.284,0.534-0.492,0.75c-0.208,0.217-0.468,0.387-0.78,0.511
			c-0.312,0.124-0.691,0.186-1.14,0.186c-0.44,0-0.818-0.062-1.134-0.186c-0.316-0.124-0.578-0.294-0.786-0.511
			c-0.208-0.216-0.372-0.466-0.492-0.75c-0.12-0.283-0.212-0.586-0.276-0.905c-0.063-0.32-0.104-0.648-0.119-0.984
			c-0.017-0.336-0.024-0.66-0.024-0.972C551.114,6.561,551.122,6.238,551.139,5.901z M552.225,7.935
			c0.02,0.396,0.084,0.769,0.191,1.116c0.108,0.348,0.282,0.642,0.522,0.882s0.576,0.36,1.008,0.36c0.433,0,0.769-0.12,1.008-0.36
			c0.24-0.24,0.414-0.534,0.522-0.882c0.107-0.348,0.172-0.72,0.191-1.116c0.021-0.396,0.03-0.754,0.03-1.074
			c0-0.207-0.002-0.438-0.006-0.689s-0.024-0.504-0.06-0.756c-0.036-0.252-0.089-0.498-0.156-0.738
			c-0.068-0.24-0.168-0.45-0.301-0.63c-0.131-0.18-0.298-0.326-0.497-0.438c-0.2-0.111-0.444-0.168-0.732-0.168
			s-0.532,0.057-0.731,0.168c-0.2,0.112-0.366,0.259-0.498,0.438c-0.133,0.18-0.232,0.39-0.301,0.63
			c-0.067,0.24-0.119,0.486-0.156,0.738c-0.035,0.252-0.056,0.504-0.06,0.756s-0.006,0.482-0.006,0.689
			C552.194,7.181,552.204,7.54,552.225,7.935z"/>
		<path fill="#777677" d="M605.103,11.049V4.954h-2.208V4.137c0.288,0,0.567-0.021,0.84-0.065c0.271-0.044,0.518-0.126,0.738-0.246
			c0.22-0.12,0.405-0.284,0.558-0.492c0.151-0.208,0.256-0.472,0.312-0.792h0.78v8.508H605.103z"/>
		<path fill="#777677" d="M609.65,5.901c0.016-0.336,0.057-0.663,0.12-0.983s0.156-0.624,0.276-0.912
			c0.119-0.288,0.283-0.54,0.492-0.756c0.207-0.216,0.47-0.388,0.785-0.517c0.316-0.128,0.694-0.191,1.135-0.191
			c0.439,0,0.817,0.063,1.134,0.191c0.315,0.129,0.577,0.301,0.786,0.517c0.207,0.216,0.371,0.468,0.492,0.756
			c0.119,0.288,0.211,0.592,0.275,0.912s0.104,0.647,0.12,0.983c0.016,0.337,0.024,0.66,0.024,0.973
			c0,0.312-0.009,0.636-0.024,0.972c-0.017,0.336-0.056,0.664-0.12,0.984c-0.064,0.319-0.156,0.622-0.275,0.905
			c-0.121,0.284-0.285,0.534-0.492,0.75c-0.209,0.217-0.469,0.387-0.78,0.511s-0.692,0.186-1.14,0.186
			c-0.44,0-0.818-0.062-1.135-0.186c-0.315-0.124-0.578-0.294-0.785-0.511c-0.209-0.216-0.373-0.466-0.492-0.75
			c-0.12-0.283-0.213-0.586-0.276-0.905c-0.063-0.32-0.104-0.648-0.12-0.984s-0.023-0.66-0.023-0.972
			C609.627,6.561,609.635,6.238,609.65,5.901z M610.736,7.935c0.02,0.396,0.084,0.769,0.192,1.116s0.282,0.642,0.521,0.882
			c0.24,0.24,0.576,0.36,1.009,0.36c0.432,0,0.768-0.12,1.008-0.36s0.414-0.534,0.521-0.882c0.108-0.348,0.172-0.72,0.192-1.116
			c0.02-0.396,0.03-0.754,0.03-1.074c0-0.207-0.002-0.438-0.006-0.689c-0.005-0.252-0.024-0.504-0.061-0.756
			s-0.088-0.498-0.156-0.738s-0.168-0.45-0.3-0.63s-0.298-0.326-0.498-0.438c-0.2-0.111-0.444-0.168-0.731-0.168
			c-0.288,0-0.532,0.057-0.732,0.168c-0.2,0.112-0.366,0.259-0.498,0.438s-0.232,0.39-0.3,0.63c-0.068,0.24-0.12,0.486-0.156,0.738
			s-0.056,0.504-0.06,0.756s-0.006,0.482-0.006,0.689C610.707,7.181,610.717,7.54,610.736,7.935z"/>
		<path fill="#777677" d="M616.923,5.901c0.016-0.336,0.056-0.663,0.12-0.983c0.063-0.32,0.155-0.624,0.275-0.912
			s0.284-0.54,0.492-0.756s0.47-0.388,0.786-0.517c0.315-0.128,0.694-0.191,1.134-0.191s0.818,0.063,1.134,0.191
			c0.316,0.129,0.578,0.301,0.786,0.517s0.372,0.468,0.492,0.756s0.212,0.592,0.275,0.912c0.064,0.32,0.104,0.647,0.121,0.983
			c0.016,0.337,0.023,0.66,0.023,0.973c0,0.312-0.008,0.636-0.023,0.972c-0.017,0.336-0.057,0.664-0.121,0.984
			c-0.063,0.319-0.155,0.622-0.275,0.905c-0.12,0.284-0.284,0.534-0.492,0.75c-0.208,0.217-0.468,0.387-0.779,0.511
			c-0.312,0.124-0.692,0.186-1.141,0.186c-0.439,0-0.818-0.062-1.134-0.186c-0.316-0.124-0.578-0.294-0.786-0.511
			c-0.208-0.216-0.372-0.466-0.492-0.75c-0.12-0.283-0.212-0.586-0.275-0.905c-0.064-0.32-0.104-0.648-0.12-0.984
			c-0.017-0.336-0.024-0.66-0.024-0.972C616.898,6.561,616.906,6.238,616.923,5.901z M618.009,7.935
			c0.02,0.396,0.084,0.769,0.191,1.116c0.108,0.348,0.282,0.642,0.522,0.882s0.576,0.36,1.008,0.36s0.768-0.12,1.008-0.36
			s0.414-0.534,0.522-0.882s0.172-0.72,0.192-1.116c0.02-0.396,0.029-0.754,0.029-1.074c0-0.207-0.002-0.438-0.006-0.689
			s-0.023-0.504-0.061-0.756c-0.035-0.252-0.088-0.498-0.155-0.738c-0.068-0.24-0.168-0.45-0.3-0.63
			c-0.133-0.18-0.299-0.326-0.498-0.438c-0.2-0.111-0.444-0.168-0.732-0.168s-0.532,0.057-0.732,0.168
			c-0.199,0.112-0.365,0.259-0.498,0.438c-0.131,0.18-0.231,0.39-0.3,0.63c-0.067,0.24-0.12,0.486-0.155,0.738
			c-0.036,0.252-0.057,0.504-0.061,0.756s-0.006,0.482-0.006,0.689C617.979,7.181,617.988,7.54,618.009,7.935z"/>
	</g>
	<g>
		<path fill="#333333" d="M82.059,131.625c0.245,0,0.51,0.003,0.792,0.008c0.282,0.006,0.562,0.021,0.84,0.048
			c0.277,0.027,0.536,0.067,0.776,0.12c0.24,0.054,0.445,0.134,0.616,0.24c0.373,0.224,0.69,0.533,0.952,0.928
			c0.261,0.395,0.392,0.88,0.392,1.456c0,0.608-0.146,1.134-0.44,1.576c-0.293,0.442-0.712,0.771-1.256,0.983v0.032
			c0.704,0.149,1.242,0.47,1.616,0.96c0.373,0.491,0.56,1.088,0.56,1.792c0,0.416-0.074,0.821-0.224,1.216
			c-0.149,0.396-0.37,0.744-0.664,1.049c-0.293,0.304-0.655,0.549-1.088,0.735c-0.432,0.188-0.931,0.28-1.496,0.28h-5.52v-11.424
			H82.059z M82.475,136.538c0.864,0,1.485-0.152,1.864-0.456c0.378-0.305,0.567-0.76,0.567-1.368c0-0.405-0.063-0.726-0.191-0.96
			s-0.305-0.416-0.528-0.544s-0.482-0.211-0.776-0.248c-0.293-0.037-0.605-0.056-0.936-0.056h-3.04v3.632H82.475z M83.242,141.769
			c0.673,0,1.197-0.181,1.576-0.544c0.379-0.362,0.568-0.864,0.568-1.504c0-0.373-0.069-0.683-0.208-0.928s-0.323-0.44-0.552-0.584
			c-0.229-0.145-0.494-0.245-0.792-0.304c-0.299-0.059-0.608-0.089-0.929-0.089h-3.472v3.952H83.242z"/>
		<path fill="#333333" d="M90.091,131.625v11.424h-1.36v-11.424H90.091z"/>
		<path fill="#333333" d="M98.555,143.225c-0.353,0-0.633-0.099-0.84-0.296c-0.209-0.197-0.312-0.52-0.312-0.968
			c-0.373,0.448-0.808,0.771-1.304,0.968s-1.032,0.296-1.608,0.296c-0.373,0-0.726-0.04-1.056-0.12
			c-0.331-0.08-0.622-0.213-0.872-0.399c-0.251-0.187-0.448-0.427-0.592-0.721c-0.145-0.293-0.217-0.647-0.217-1.063
			c0-0.47,0.08-0.854,0.24-1.152c0.16-0.298,0.371-0.541,0.633-0.728c0.261-0.187,0.56-0.328,0.896-0.424
			c0.336-0.097,0.68-0.177,1.032-0.24c0.373-0.074,0.728-0.131,1.063-0.168s0.632-0.091,0.888-0.16
			c0.257-0.069,0.459-0.171,0.608-0.304c0.149-0.134,0.224-0.328,0.224-0.584c0-0.299-0.056-0.539-0.168-0.721
			c-0.111-0.181-0.256-0.319-0.432-0.416c-0.176-0.096-0.373-0.159-0.592-0.191s-0.435-0.048-0.648-0.048
			c-0.576,0-1.056,0.109-1.439,0.328s-0.592,0.632-0.624,1.239h-1.36c0.021-0.512,0.128-0.943,0.32-1.296
			c0.191-0.352,0.448-0.637,0.768-0.855c0.32-0.219,0.688-0.376,1.104-0.473c0.416-0.096,0.853-0.144,1.312-0.144
			c0.373,0,0.744,0.026,1.112,0.08s0.701,0.162,1,0.328c0.299,0.165,0.538,0.397,0.72,0.695c0.182,0.299,0.272,0.688,0.272,1.168
			v4.257c0,0.319,0.019,0.555,0.056,0.703c0.037,0.15,0.162,0.225,0.376,0.225c0.117,0,0.256-0.026,0.416-0.08v1.056
			C99.296,143.156,98.971,143.225,98.555,143.225z M96.65,139.057c-0.277,0.059-0.568,0.107-0.872,0.145s-0.61,0.08-0.92,0.128
			s-0.587,0.125-0.832,0.231c-0.245,0.107-0.445,0.259-0.6,0.456c-0.155,0.197-0.232,0.467-0.232,0.809
			c0,0.224,0.046,0.413,0.136,0.567c0.091,0.155,0.209,0.28,0.353,0.376c0.144,0.097,0.314,0.166,0.512,0.208
			c0.197,0.043,0.397,0.064,0.601,0.064c0.447,0,0.832-0.062,1.151-0.185c0.32-0.122,0.581-0.277,0.784-0.464
			c0.202-0.187,0.352-0.389,0.448-0.607c0.096-0.219,0.144-0.425,0.144-0.616v-1.393C97.151,138.906,96.928,138.999,96.65,139.057z"
			/>
		<path fill="#333333" d="M105.738,136.217c-0.342-0.288-0.8-0.432-1.376-0.432c-0.491,0-0.901,0.091-1.231,0.271
			c-0.331,0.182-0.596,0.422-0.793,0.72c-0.197,0.299-0.338,0.644-0.424,1.032c-0.085,0.39-0.128,0.792-0.128,1.208
			c0,0.384,0.046,0.758,0.136,1.12c0.091,0.363,0.232,0.686,0.424,0.968c0.192,0.283,0.443,0.51,0.752,0.681
			c0.31,0.171,0.678,0.256,1.104,0.256c0.672,0,1.197-0.176,1.576-0.528c0.378-0.352,0.61-0.848,0.696-1.488h1.392
			c-0.149,1.024-0.53,1.813-1.144,2.368c-0.614,0.555-1.448,0.832-2.504,0.832c-0.63,0-1.188-0.102-1.673-0.304
			s-0.891-0.49-1.216-0.864c-0.325-0.373-0.57-0.818-0.736-1.336c-0.165-0.518-0.248-1.085-0.248-1.704
			c0-0.618,0.08-1.197,0.24-1.735c0.16-0.539,0.402-1.009,0.729-1.408c0.325-0.4,0.733-0.715,1.224-0.944
			c0.491-0.229,1.062-0.344,1.712-0.344c0.47,0,0.909,0.056,1.32,0.168c0.41,0.112,0.773,0.285,1.088,0.52
			c0.314,0.235,0.573,0.531,0.776,0.889c0.202,0.357,0.33,0.781,0.384,1.271h-1.408C106.304,136.911,106.08,136.505,105.738,136.217
			z"/>
		<path fill="#333333" d="M110.826,131.625v6.768l3.775-3.616h1.824l-3.279,3.009l3.52,5.264h-1.729l-2.832-4.32l-1.279,1.185v3.136
			h-1.36v-11.424H110.826z"/>
		<path fill="#333333" d="M125.674,134.777v1.2h-1.647v5.137c0,0.159,0.013,0.287,0.04,0.384c0.026,0.096,0.077,0.171,0.151,0.224
			c0.075,0.054,0.179,0.088,0.312,0.104c0.133,0.016,0.306,0.023,0.52,0.023h0.624v1.2h-1.04c-0.352,0-0.653-0.024-0.903-0.072
			c-0.251-0.048-0.454-0.136-0.608-0.264c-0.155-0.128-0.27-0.31-0.344-0.544c-0.075-0.234-0.112-0.544-0.112-0.928v-5.265h-1.408
			v-1.2h1.408v-2.479h1.36v2.479H125.674z"/>
		<path fill="#333333" d="M133.033,142.521c-0.618,0.47-1.396,0.704-2.336,0.704c-0.661,0-1.234-0.106-1.72-0.319
			c-0.485-0.214-0.894-0.513-1.224-0.896c-0.331-0.384-0.579-0.843-0.744-1.376c-0.166-0.533-0.259-1.114-0.28-1.744
			c0-0.629,0.097-1.205,0.288-1.728c0.192-0.522,0.461-0.977,0.809-1.36c0.346-0.384,0.757-0.683,1.231-0.896
			c0.475-0.214,0.995-0.32,1.561-0.32c0.735,0,1.347,0.152,1.831,0.456c0.486,0.304,0.875,0.69,1.169,1.16
			c0.293,0.469,0.495,0.981,0.607,1.536s0.157,1.082,0.136,1.584h-6.191c-0.011,0.362,0.032,0.706,0.128,1.031
			c0.096,0.326,0.251,0.614,0.464,0.864c0.213,0.251,0.485,0.451,0.816,0.6c0.33,0.15,0.72,0.225,1.168,0.225
			c0.576,0,1.048-0.134,1.416-0.4c0.367-0.267,0.61-0.672,0.728-1.216h1.345C134.053,141.353,133.652,142.052,133.033,142.521z
			 M132.706,137.209c-0.123-0.288-0.288-0.536-0.496-0.744s-0.454-0.373-0.736-0.496c-0.282-0.122-0.595-0.184-0.936-0.184
			c-0.353,0-0.67,0.062-0.952,0.184c-0.283,0.123-0.525,0.291-0.729,0.504c-0.202,0.214-0.362,0.462-0.479,0.744
			c-0.118,0.283-0.187,0.584-0.208,0.904h4.752C132.9,137.801,132.828,137.498,132.706,137.209z"/>
		<path fill="#333333" d="M135.113,134.777h1.744l1.984,2.896l2.063-2.896h1.632l-2.848,3.809l3.2,4.464h-1.744l-2.304-3.424
			l-2.305,3.424h-1.647l3.104-4.352L135.113,134.777z"/>
		<path fill="#333333" d="M147.594,134.777v1.2h-1.648v5.137c0,0.159,0.014,0.287,0.04,0.384c0.026,0.096,0.077,0.171,0.152,0.224
			c0.074,0.054,0.179,0.088,0.312,0.104c0.134,0.016,0.307,0.023,0.521,0.023h0.624v1.2h-1.04c-0.353,0-0.653-0.024-0.904-0.072
			s-0.453-0.136-0.608-0.264c-0.154-0.128-0.27-0.31-0.344-0.544s-0.111-0.544-0.111-0.928v-5.265h-1.408v-1.2h1.408v-2.479h1.359
			v2.479H147.594z"/>
		<path fill="#333333" d="M159.897,143.225c-0.353,0-0.632-0.099-0.841-0.296c-0.207-0.197-0.312-0.52-0.312-0.968
			c-0.373,0.448-0.808,0.771-1.304,0.968s-1.032,0.296-1.608,0.296c-0.373,0-0.726-0.04-1.056-0.12
			c-0.331-0.08-0.621-0.213-0.872-0.399s-0.448-0.427-0.592-0.721c-0.145-0.293-0.216-0.647-0.216-1.063
			c0-0.47,0.08-0.854,0.239-1.152c0.16-0.298,0.371-0.541,0.632-0.728c0.262-0.187,0.561-0.328,0.896-0.424
			c0.336-0.097,0.68-0.177,1.032-0.24c0.373-0.074,0.728-0.131,1.063-0.168s0.633-0.091,0.889-0.16s0.458-0.171,0.607-0.304
			c0.149-0.134,0.225-0.328,0.225-0.584c0-0.299-0.057-0.539-0.168-0.721c-0.112-0.181-0.256-0.319-0.433-0.416
			c-0.176-0.096-0.373-0.159-0.592-0.191s-0.435-0.048-0.647-0.048c-0.576,0-1.057,0.109-1.44,0.328s-0.592,0.632-0.624,1.239h-1.36
			c0.021-0.512,0.128-0.943,0.32-1.296c0.192-0.352,0.448-0.637,0.768-0.855c0.32-0.219,0.688-0.376,1.104-0.473
			c0.416-0.096,0.854-0.144,1.312-0.144c0.374,0,0.744,0.026,1.112,0.08s0.701,0.162,1,0.328c0.299,0.165,0.539,0.397,0.72,0.695
			c0.182,0.299,0.272,0.688,0.272,1.168v4.257c0,0.319,0.019,0.555,0.056,0.703c0.037,0.15,0.163,0.225,0.376,0.225
			c0.117,0,0.256-0.026,0.416-0.08v1.056C160.639,143.156,160.313,143.225,159.897,143.225z M157.993,139.057
			c-0.277,0.059-0.567,0.107-0.872,0.145c-0.304,0.037-0.61,0.08-0.92,0.128s-0.587,0.125-0.832,0.231
			c-0.245,0.107-0.445,0.259-0.6,0.456c-0.155,0.197-0.232,0.467-0.232,0.809c0,0.224,0.045,0.413,0.137,0.567
			c0.09,0.155,0.207,0.28,0.352,0.376c0.144,0.097,0.314,0.166,0.512,0.208c0.197,0.043,0.397,0.064,0.6,0.064
			c0.448,0,0.832-0.062,1.152-0.185c0.32-0.122,0.582-0.277,0.784-0.464s0.353-0.389,0.448-0.607s0.144-0.425,0.144-0.616v-1.393
			C158.494,138.906,158.271,138.999,157.993,139.057z"/>
		<path fill="#333333" d="M167.081,136.217c-0.342-0.288-0.8-0.432-1.376-0.432c-0.49,0-0.901,0.091-1.232,0.271
			c-0.33,0.182-0.595,0.422-0.791,0.72c-0.198,0.299-0.34,0.644-0.425,1.032c-0.085,0.39-0.128,0.792-0.128,1.208
			c0,0.384,0.045,0.758,0.137,1.12c0.09,0.363,0.231,0.686,0.424,0.968c0.191,0.283,0.442,0.51,0.752,0.681
			c0.309,0.171,0.677,0.256,1.104,0.256c0.672,0,1.197-0.176,1.576-0.528c0.379-0.352,0.61-0.848,0.696-1.488h1.392
			c-0.149,1.024-0.531,1.813-1.145,2.368s-1.447,0.832-2.504,0.832c-0.629,0-1.187-0.102-1.672-0.304s-0.891-0.49-1.216-0.864
			c-0.325-0.373-0.57-0.818-0.735-1.336c-0.166-0.518-0.248-1.085-0.248-1.704c0-0.618,0.08-1.197,0.239-1.735
			c0.16-0.539,0.403-1.009,0.729-1.408c0.325-0.4,0.733-0.715,1.224-0.944s1.062-0.344,1.712-0.344c0.47,0,0.909,0.056,1.32,0.168
			c0.41,0.112,0.773,0.285,1.088,0.52c0.314,0.235,0.573,0.531,0.776,0.889c0.202,0.357,0.33,0.781,0.384,1.271h-1.408
			C167.646,136.911,167.422,136.505,167.081,136.217z"/>
		<path fill="#333333" d="M175.673,136.217c-0.342-0.288-0.8-0.432-1.376-0.432c-0.49,0-0.901,0.091-1.232,0.271
			c-0.33,0.182-0.595,0.422-0.791,0.72c-0.198,0.299-0.34,0.644-0.425,1.032c-0.085,0.39-0.128,0.792-0.128,1.208
			c0,0.384,0.045,0.758,0.137,1.12c0.09,0.363,0.231,0.686,0.424,0.968c0.191,0.283,0.442,0.51,0.752,0.681
			c0.309,0.171,0.677,0.256,1.104,0.256c0.672,0,1.197-0.176,1.576-0.528c0.379-0.352,0.61-0.848,0.696-1.488h1.392
			c-0.149,1.024-0.531,1.813-1.145,2.368s-1.447,0.832-2.504,0.832c-0.629,0-1.187-0.102-1.672-0.304s-0.891-0.49-1.216-0.864
			c-0.325-0.373-0.57-0.818-0.735-1.336c-0.166-0.518-0.248-1.085-0.248-1.704c0-0.618,0.08-1.197,0.239-1.735
			c0.16-0.539,0.403-1.009,0.729-1.408c0.325-0.4,0.733-0.715,1.224-0.944s1.062-0.344,1.712-0.344c0.47,0,0.909,0.056,1.32,0.168
			c0.41,0.112,0.773,0.285,1.088,0.52c0.314,0.235,0.573,0.531,0.776,0.889c0.202,0.357,0.33,0.781,0.384,1.271h-1.408
			C176.238,136.911,176.014,136.505,175.673,136.217z"/>
		<path fill="#333333" d="M185.177,142.521c-0.619,0.47-1.397,0.704-2.336,0.704c-0.661,0-1.235-0.106-1.72-0.319
			c-0.486-0.214-0.895-0.513-1.225-0.896s-0.578-0.843-0.744-1.376c-0.165-0.533-0.259-1.114-0.279-1.744
			c0-0.629,0.096-1.205,0.287-1.728c0.192-0.522,0.462-0.977,0.809-1.36s0.757-0.683,1.232-0.896c0.474-0.214,0.994-0.32,1.56-0.32
			c0.735,0,1.347,0.152,1.832,0.456s0.874,0.69,1.168,1.16c0.293,0.469,0.496,0.981,0.608,1.536
			c0.111,0.555,0.156,1.082,0.136,1.584h-6.192c-0.011,0.362,0.032,0.706,0.128,1.031c0.097,0.326,0.251,0.614,0.464,0.864
			c0.214,0.251,0.485,0.451,0.816,0.6c0.33,0.15,0.72,0.225,1.168,0.225c0.576,0,1.048-0.134,1.416-0.4s0.61-0.672,0.729-1.216
			h1.344C186.195,141.353,185.795,142.052,185.177,142.521z M184.849,137.209c-0.123-0.288-0.288-0.536-0.496-0.744
			s-0.453-0.373-0.735-0.496c-0.283-0.122-0.596-0.184-0.937-0.184c-0.353,0-0.669,0.062-0.952,0.184
			c-0.283,0.123-0.525,0.291-0.728,0.504c-0.203,0.214-0.363,0.462-0.48,0.744c-0.117,0.283-0.187,0.584-0.208,0.904h4.752
			C185.043,137.801,184.971,137.498,184.849,137.209z"/>
		<path fill="#333333" d="M188.952,141.202c0.128,0.208,0.296,0.373,0.505,0.496c0.207,0.122,0.441,0.21,0.703,0.264
			s0.531,0.08,0.809,0.08c0.213,0,0.438-0.017,0.672-0.048c0.234-0.032,0.45-0.091,0.647-0.177c0.197-0.085,0.36-0.21,0.488-0.376
			c0.128-0.165,0.192-0.376,0.192-0.632c0-0.352-0.134-0.618-0.4-0.8s-0.6-0.328-1-0.44c-0.4-0.111-0.835-0.213-1.304-0.304
			c-0.47-0.09-0.904-0.219-1.304-0.384c-0.4-0.165-0.734-0.397-1-0.696c-0.268-0.298-0.4-0.714-0.4-1.248
			c0-0.416,0.093-0.772,0.279-1.071c0.188-0.299,0.427-0.542,0.721-0.729c0.293-0.187,0.624-0.325,0.992-0.416
			c0.367-0.091,0.732-0.136,1.096-0.136c0.469,0,0.901,0.04,1.296,0.12s0.744,0.219,1.048,0.416c0.305,0.197,0.547,0.464,0.729,0.8
			c0.181,0.336,0.288,0.755,0.32,1.256h-1.36c-0.021-0.267-0.091-0.488-0.208-0.664s-0.268-0.317-0.448-0.424
			c-0.182-0.106-0.382-0.184-0.601-0.232c-0.219-0.048-0.439-0.071-0.663-0.071c-0.203,0-0.408,0.016-0.616,0.048
			s-0.397,0.088-0.568,0.168c-0.17,0.08-0.31,0.187-0.416,0.32c-0.106,0.133-0.16,0.307-0.16,0.52c0,0.234,0.083,0.43,0.248,0.584
			c0.166,0.154,0.377,0.283,0.633,0.384c0.256,0.102,0.543,0.187,0.863,0.256c0.32,0.07,0.641,0.142,0.96,0.217
			c0.342,0.074,0.675,0.165,1,0.271s0.613,0.248,0.864,0.424c0.25,0.176,0.453,0.397,0.608,0.664
			c0.154,0.267,0.231,0.598,0.231,0.992c0,0.502-0.104,0.918-0.312,1.248c-0.208,0.331-0.48,0.598-0.816,0.8
			c-0.336,0.203-0.715,0.344-1.136,0.424c-0.422,0.08-0.84,0.12-1.256,0.12c-0.459,0-0.896-0.048-1.312-0.144
			c-0.416-0.097-0.783-0.254-1.104-0.473c-0.32-0.218-0.576-0.506-0.769-0.863c-0.191-0.357-0.298-0.792-0.319-1.305h1.359
			C188.755,140.74,188.824,140.994,188.952,141.202z"/>
		<path fill="#333333" d="M196.952,141.202c0.128,0.208,0.296,0.373,0.505,0.496c0.207,0.122,0.441,0.21,0.703,0.264
			s0.531,0.08,0.809,0.08c0.213,0,0.438-0.017,0.672-0.048c0.234-0.032,0.45-0.091,0.647-0.177c0.197-0.085,0.36-0.21,0.488-0.376
			c0.128-0.165,0.192-0.376,0.192-0.632c0-0.352-0.134-0.618-0.4-0.8s-0.6-0.328-1-0.44c-0.4-0.111-0.835-0.213-1.304-0.304
			c-0.47-0.09-0.904-0.219-1.304-0.384c-0.4-0.165-0.734-0.397-1-0.696c-0.268-0.298-0.4-0.714-0.4-1.248
			c0-0.416,0.093-0.772,0.279-1.071c0.188-0.299,0.427-0.542,0.721-0.729c0.293-0.187,0.624-0.325,0.992-0.416
			c0.367-0.091,0.732-0.136,1.096-0.136c0.469,0,0.901,0.04,1.296,0.12s0.744,0.219,1.048,0.416c0.305,0.197,0.547,0.464,0.729,0.8
			c0.181,0.336,0.288,0.755,0.32,1.256h-1.36c-0.021-0.267-0.091-0.488-0.208-0.664s-0.268-0.317-0.448-0.424
			c-0.182-0.106-0.382-0.184-0.601-0.232c-0.219-0.048-0.439-0.071-0.663-0.071c-0.203,0-0.408,0.016-0.616,0.048
			s-0.397,0.088-0.568,0.168c-0.17,0.08-0.31,0.187-0.416,0.32c-0.106,0.133-0.16,0.307-0.16,0.52c0,0.234,0.083,0.43,0.248,0.584
			c0.166,0.154,0.377,0.283,0.633,0.384c0.256,0.102,0.543,0.187,0.863,0.256c0.32,0.07,0.641,0.142,0.96,0.217
			c0.342,0.074,0.675,0.165,1,0.271s0.613,0.248,0.864,0.424c0.25,0.176,0.453,0.397,0.608,0.664
			c0.154,0.267,0.231,0.598,0.231,0.992c0,0.502-0.104,0.918-0.312,1.248c-0.208,0.331-0.48,0.598-0.816,0.8
			c-0.336,0.203-0.715,0.344-1.136,0.424c-0.422,0.08-0.84,0.12-1.256,0.12c-0.459,0-0.896-0.048-1.312-0.144
			c-0.416-0.097-0.783-0.254-1.104-0.473c-0.32-0.218-0.576-0.506-0.769-0.863c-0.191-0.357-0.298-0.792-0.319-1.305h1.359
			C196.755,140.74,196.824,140.994,196.952,141.202z"/>
		<path fill="#333333" d="M203.992,133.29v-1.664h1.36v1.664H203.992z M205.353,134.777v8.272h-1.36v-8.272H205.353z"/>
		<path fill="#333333" d="M208.872,131.625v4.271h0.032c0.224-0.458,0.576-0.792,1.056-1c0.48-0.208,1.009-0.312,1.584-0.312
			c0.64,0,1.197,0.117,1.672,0.352c0.475,0.235,0.87,0.553,1.185,0.952c0.314,0.4,0.552,0.861,0.712,1.384
			c0.16,0.523,0.24,1.078,0.24,1.664c0,0.587-0.078,1.142-0.232,1.664c-0.155,0.523-0.39,0.979-0.704,1.368s-0.709,0.696-1.184,0.92
			c-0.475,0.225-1.027,0.336-1.656,0.336c-0.203,0-0.43-0.021-0.68-0.063c-0.251-0.043-0.499-0.112-0.744-0.208
			c-0.246-0.097-0.478-0.227-0.696-0.393c-0.219-0.165-0.402-0.37-0.552-0.615h-0.032v1.104h-1.36v-11.424H208.872z M213.76,137.713
			c-0.102-0.368-0.256-0.696-0.464-0.984s-0.475-0.517-0.8-0.688s-0.707-0.256-1.144-0.256c-0.459,0-0.849,0.091-1.169,0.271
			c-0.319,0.182-0.581,0.419-0.783,0.712c-0.203,0.294-0.35,0.627-0.44,1c-0.091,0.374-0.136,0.752-0.136,1.137
			c0,0.405,0.048,0.797,0.145,1.176c0.096,0.379,0.247,0.712,0.455,1s0.478,0.52,0.809,0.695c0.33,0.177,0.73,0.265,1.199,0.265
			c0.47,0,0.861-0.091,1.177-0.272c0.314-0.181,0.567-0.421,0.76-0.72s0.331-0.64,0.416-1.024c0.085-0.384,0.128-0.778,0.128-1.184
			C213.912,138.458,213.861,138.082,213.76,137.713z"/>
		<path fill="#333333" d="M218.393,131.625v11.424h-1.36v-11.424H218.393z"/>
		<path fill="#333333" d="M226.359,142.521c-0.618,0.47-1.397,0.704-2.336,0.704c-0.661,0-1.234-0.106-1.72-0.319
			c-0.485-0.214-0.894-0.513-1.224-0.896c-0.331-0.384-0.579-0.843-0.744-1.376c-0.166-0.533-0.259-1.114-0.28-1.744
			c0-0.629,0.097-1.205,0.288-1.728s0.461-0.977,0.809-1.36c0.346-0.384,0.757-0.683,1.231-0.896c0.475-0.214,0.994-0.32,1.56-0.32
			c0.736,0,1.347,0.152,1.832,0.456s0.875,0.69,1.168,1.16c0.294,0.469,0.496,0.981,0.608,1.536s0.157,1.082,0.136,1.584h-6.191
			c-0.011,0.362,0.031,0.706,0.128,1.031c0.096,0.326,0.25,0.614,0.464,0.864c0.213,0.251,0.485,0.451,0.816,0.6
			c0.33,0.15,0.72,0.225,1.168,0.225c0.575,0,1.047-0.134,1.416-0.4c0.367-0.267,0.609-0.672,0.728-1.216h1.344
			C227.378,141.353,226.979,142.052,226.359,142.521z M226.031,137.209c-0.122-0.288-0.287-0.536-0.496-0.744
			c-0.207-0.208-0.453-0.373-0.735-0.496c-0.282-0.122-0.595-0.184-0.937-0.184c-0.352,0-0.669,0.062-0.951,0.184
			c-0.283,0.123-0.525,0.291-0.729,0.504c-0.203,0.214-0.362,0.462-0.479,0.744c-0.118,0.283-0.187,0.584-0.208,0.904h4.752
			C226.227,137.801,226.154,137.498,226.031,137.209z"/>
	</g>
	<g>
		<path fill="#333333" d="M392.983,143.049l-2.607-9.6h-0.032l-2.64,9.6h-1.584l-2.929-11.424h1.553l2.239,9.504h0.032l2.561-9.504
			h1.647l2.528,9.504h0.031l2.32-9.504h1.521l-3.056,11.424H392.983z"/>
		<path fill="#333333" d="M400.199,131.625v4.368h0.032c0.106-0.256,0.257-0.473,0.448-0.648s0.408-0.32,0.648-0.432
			c0.239-0.112,0.49-0.194,0.752-0.248c0.261-0.054,0.514-0.08,0.76-0.08c0.544,0,0.997,0.074,1.359,0.224
			c0.363,0.149,0.656,0.357,0.881,0.624c0.224,0.267,0.381,0.584,0.472,0.952s0.136,0.776,0.136,1.224v5.44h-1.359v-5.6
			c0-0.513-0.15-0.918-0.448-1.217c-0.299-0.298-0.71-0.447-1.232-0.447c-0.416,0-0.776,0.063-1.08,0.191s-0.558,0.31-0.76,0.544
			c-0.202,0.235-0.354,0.51-0.456,0.824s-0.152,0.659-0.152,1.032v4.672h-1.359v-11.424H400.199z"/>
		<path fill="#333333" d="M407.815,133.29v-1.664h1.36v1.664H407.815z M409.176,134.777v8.272h-1.36v-8.272H409.176z"/>
		<path fill="#333333" d="M414.823,134.777v1.2h-1.647v5.137c0,0.159,0.013,0.287,0.039,0.384c0.027,0.096,0.078,0.171,0.152,0.224
			c0.074,0.054,0.179,0.088,0.312,0.104c0.133,0.016,0.307,0.023,0.52,0.023h0.624v1.2h-1.04c-0.352,0-0.653-0.024-0.904-0.072
			c-0.25-0.048-0.453-0.136-0.607-0.264s-0.27-0.31-0.344-0.544c-0.075-0.234-0.112-0.544-0.112-0.928v-5.265h-1.408v-1.2h1.408
			v-2.479h1.36v2.479H414.823z"/>
		<path fill="#333333" d="M422.184,142.521c-0.619,0.47-1.398,0.704-2.336,0.704c-0.662,0-1.235-0.106-1.721-0.319
			c-0.485-0.214-0.894-0.513-1.224-0.896c-0.331-0.384-0.579-0.843-0.744-1.376s-0.259-1.114-0.28-1.744
			c0-0.629,0.097-1.205,0.288-1.728c0.192-0.522,0.462-0.977,0.809-1.36s0.757-0.683,1.231-0.896c0.475-0.214,0.994-0.32,1.561-0.32
			c0.735,0,1.346,0.152,1.832,0.456c0.484,0.304,0.874,0.69,1.168,1.16c0.293,0.469,0.496,0.981,0.607,1.536
			c0.112,0.555,0.157,1.082,0.137,1.584h-6.192c-0.011,0.362,0.032,0.706,0.128,1.031c0.096,0.326,0.25,0.614,0.464,0.864
			c0.214,0.251,0.485,0.451,0.816,0.6c0.33,0.15,0.72,0.225,1.168,0.225c0.575,0,1.048-0.134,1.416-0.4s0.61-0.672,0.728-1.216
			h1.344C423.201,141.353,422.802,142.052,422.184,142.521z M421.855,137.209c-0.123-0.288-0.288-0.536-0.496-0.744
			s-0.453-0.373-0.736-0.496c-0.282-0.122-0.595-0.184-0.936-0.184c-0.353,0-0.67,0.062-0.952,0.184
			c-0.283,0.123-0.525,0.291-0.728,0.504c-0.203,0.214-0.363,0.462-0.48,0.744c-0.117,0.283-0.187,0.584-0.208,0.904h4.752
			C422.05,137.801,421.978,137.498,421.855,137.209z"/>
		<path fill="#333333" d="M432.903,134.777v1.2h-1.648v5.137c0,0.159,0.014,0.287,0.04,0.384c0.026,0.096,0.077,0.171,0.152,0.224
			c0.074,0.054,0.178,0.088,0.312,0.104c0.134,0.016,0.307,0.023,0.521,0.023h0.624v1.2h-1.04c-0.353,0-0.654-0.024-0.904-0.072
			c-0.251-0.048-0.453-0.136-0.607-0.264c-0.155-0.128-0.27-0.31-0.345-0.544c-0.074-0.234-0.112-0.544-0.112-0.928v-5.265h-1.407
			v-1.2h1.407v-2.479h1.36v2.479H432.903z"/>
		<path fill="#333333" d="M440.263,142.521c-0.618,0.47-1.397,0.704-2.336,0.704c-0.661,0-1.234-0.106-1.72-0.319
			c-0.486-0.214-0.894-0.513-1.225-0.896c-0.33-0.384-0.578-0.843-0.744-1.376c-0.165-0.533-0.258-1.114-0.279-1.744
			c0-0.629,0.096-1.205,0.288-1.728c0.191-0.522,0.461-0.977,0.808-1.36s0.758-0.683,1.232-0.896c0.475-0.214,0.994-0.32,1.56-0.32
			c0.736,0,1.347,0.152,1.832,0.456s0.874,0.69,1.168,1.16c0.294,0.469,0.496,0.981,0.608,1.536
			c0.111,0.555,0.157,1.082,0.136,1.584h-6.192c-0.01,0.362,0.032,0.706,0.129,1.031c0.096,0.326,0.25,0.614,0.463,0.864
			c0.214,0.251,0.486,0.451,0.816,0.6c0.33,0.15,0.721,0.225,1.168,0.225c0.576,0,1.048-0.134,1.416-0.4s0.61-0.672,0.729-1.216
			h1.344C441.281,141.353,440.881,142.052,440.263,142.521z M439.935,137.209c-0.122-0.288-0.288-0.536-0.496-0.744
			s-0.453-0.373-0.735-0.496c-0.283-0.122-0.595-0.184-0.937-0.184c-0.352,0-0.669,0.062-0.952,0.184
			c-0.282,0.123-0.525,0.291-0.728,0.504c-0.203,0.214-0.362,0.462-0.479,0.744c-0.118,0.283-0.188,0.584-0.209,0.904h4.752
			C440.129,137.801,440.058,137.498,439.935,137.209z"/>
		<path fill="#333333" d="M442.343,134.777h1.744l1.983,2.896l2.064-2.896h1.632l-2.848,3.809l3.2,4.464h-1.744l-2.305-3.424
			l-2.304,3.424h-1.647l3.104-4.352L442.343,134.777z"/>
		<path fill="#333333" d="M454.822,134.777v1.2h-1.647v5.137c0,0.159,0.013,0.287,0.04,0.384c0.026,0.096,0.077,0.171,0.151,0.224
			c0.075,0.054,0.179,0.088,0.312,0.104c0.133,0.016,0.306,0.023,0.52,0.023h0.624v1.2h-1.04c-0.352,0-0.653-0.024-0.903-0.072
			c-0.251-0.048-0.454-0.136-0.608-0.264c-0.155-0.128-0.27-0.31-0.344-0.544c-0.075-0.234-0.112-0.544-0.112-0.928v-5.265h-1.408
			v-1.2h1.408v-2.479h1.36v2.479H454.822z"/>
		<path fill="#333333" d="M467.126,143.225c-0.352,0-0.632-0.099-0.84-0.296s-0.312-0.52-0.312-0.968
			c-0.374,0.448-0.809,0.771-1.305,0.968s-1.031,0.296-1.607,0.296c-0.374,0-0.726-0.04-1.057-0.12
			c-0.33-0.08-0.621-0.213-0.871-0.399c-0.251-0.187-0.448-0.427-0.593-0.721c-0.144-0.293-0.216-0.647-0.216-1.063
			c0-0.47,0.08-0.854,0.24-1.152c0.16-0.298,0.37-0.541,0.632-0.728c0.261-0.187,0.56-0.328,0.896-0.424
			c0.336-0.097,0.681-0.177,1.032-0.24c0.374-0.074,0.729-0.131,1.064-0.168s0.632-0.091,0.888-0.16s0.459-0.171,0.608-0.304
			c0.149-0.134,0.224-0.328,0.224-0.584c0-0.299-0.056-0.539-0.168-0.721c-0.112-0.181-0.256-0.319-0.432-0.416
			c-0.176-0.096-0.374-0.159-0.592-0.191c-0.219-0.032-0.436-0.048-0.648-0.048c-0.576,0-1.057,0.109-1.44,0.328
			s-0.592,0.632-0.624,1.239h-1.359c0.021-0.512,0.128-0.943,0.32-1.296c0.191-0.352,0.447-0.637,0.768-0.855
			s0.688-0.376,1.104-0.473c0.416-0.096,0.854-0.144,1.312-0.144c0.373,0,0.744,0.026,1.111,0.08c0.368,0.054,0.701,0.162,1,0.328
			c0.299,0.165,0.539,0.397,0.721,0.695c0.182,0.299,0.271,0.688,0.271,1.168v4.257c0,0.319,0.019,0.555,0.057,0.703
			c0.037,0.15,0.162,0.225,0.376,0.225c0.117,0,0.256-0.026,0.416-0.08v1.056C467.867,143.156,467.542,143.225,467.126,143.225z
			 M465.223,139.057c-0.277,0.059-0.568,0.107-0.872,0.145c-0.305,0.037-0.611,0.08-0.921,0.128
			c-0.309,0.048-0.586,0.125-0.832,0.231c-0.245,0.107-0.445,0.259-0.6,0.456s-0.231,0.467-0.231,0.809
			c0,0.224,0.045,0.413,0.136,0.567c0.09,0.155,0.208,0.28,0.352,0.376c0.145,0.097,0.314,0.166,0.513,0.208
			c0.196,0.043,0.397,0.064,0.6,0.064c0.448,0,0.832-0.062,1.152-0.185c0.319-0.122,0.581-0.277,0.784-0.464
			c0.202-0.187,0.352-0.389,0.447-0.607s0.145-0.425,0.145-0.616v-1.393C465.724,138.906,465.5,138.999,465.223,139.057z"/>
		<path fill="#333333" d="M474.311,136.217c-0.342-0.288-0.801-0.432-1.377-0.432c-0.49,0-0.901,0.091-1.231,0.271
			c-0.331,0.182-0.595,0.422-0.792,0.72c-0.197,0.299-0.339,0.644-0.424,1.032c-0.086,0.39-0.128,0.792-0.128,1.208
			c0,0.384,0.045,0.758,0.136,1.12c0.09,0.363,0.232,0.686,0.424,0.968c0.192,0.283,0.442,0.51,0.752,0.681s0.678,0.256,1.104,0.256
			c0.673,0,1.197-0.176,1.576-0.528c0.379-0.352,0.611-0.848,0.696-1.488h1.392c-0.148,1.024-0.53,1.813-1.144,2.368
			s-1.448,0.832-2.504,0.832c-0.63,0-1.187-0.102-1.672-0.304s-0.891-0.49-1.216-0.864c-0.326-0.373-0.571-0.818-0.736-1.336
			c-0.166-0.518-0.248-1.085-0.248-1.704c0-0.618,0.08-1.197,0.24-1.735c0.16-0.539,0.402-1.009,0.728-1.408
			c0.325-0.4,0.733-0.715,1.225-0.944c0.49-0.229,1.062-0.344,1.712-0.344c0.469,0,0.909,0.056,1.32,0.168
			c0.41,0.112,0.772,0.285,1.088,0.52c0.314,0.235,0.572,0.531,0.775,0.889s0.33,0.781,0.385,1.271h-1.408
			C474.875,136.911,474.651,136.505,474.311,136.217z"/>
		<path fill="#333333" d="M482.902,136.217c-0.342-0.288-0.801-0.432-1.377-0.432c-0.49,0-0.901,0.091-1.231,0.271
			c-0.331,0.182-0.595,0.422-0.792,0.72c-0.197,0.299-0.339,0.644-0.424,1.032c-0.086,0.39-0.128,0.792-0.128,1.208
			c0,0.384,0.045,0.758,0.136,1.12c0.09,0.363,0.232,0.686,0.424,0.968c0.192,0.283,0.442,0.51,0.752,0.681s0.678,0.256,1.104,0.256
			c0.673,0,1.197-0.176,1.576-0.528c0.379-0.352,0.611-0.848,0.696-1.488h1.392c-0.148,1.024-0.53,1.813-1.144,2.368
			s-1.448,0.832-2.504,0.832c-0.63,0-1.187-0.102-1.672-0.304s-0.891-0.49-1.216-0.864c-0.326-0.373-0.571-0.818-0.736-1.336
			c-0.166-0.518-0.248-1.085-0.248-1.704c0-0.618,0.08-1.197,0.24-1.735c0.16-0.539,0.402-1.009,0.728-1.408
			c0.325-0.4,0.733-0.715,1.225-0.944c0.49-0.229,1.062-0.344,1.712-0.344c0.469,0,0.909,0.056,1.32,0.168
			c0.41,0.112,0.772,0.285,1.088,0.52c0.314,0.235,0.572,0.531,0.775,0.889s0.33,0.781,0.385,1.271h-1.408
			C483.467,136.911,483.243,136.505,482.902,136.217z"/>
		<path fill="#333333" d="M492.405,142.521c-0.618,0.47-1.397,0.704-2.336,0.704c-0.661,0-1.234-0.106-1.72-0.319
			c-0.485-0.214-0.894-0.513-1.224-0.896c-0.331-0.384-0.579-0.843-0.744-1.376c-0.166-0.533-0.259-1.114-0.28-1.744
			c0-0.629,0.096-1.205,0.288-1.728s0.461-0.977,0.808-1.36s0.758-0.683,1.232-0.896c0.475-0.214,0.994-0.32,1.561-0.32
			c0.735,0,1.346,0.152,1.831,0.456s0.875,0.69,1.169,1.16c0.293,0.469,0.495,0.981,0.607,1.536s0.157,1.082,0.136,1.584h-6.191
			c-0.011,0.362,0.032,0.706,0.128,1.031c0.096,0.326,0.25,0.614,0.464,0.864c0.213,0.251,0.485,0.451,0.815,0.6
			c0.331,0.15,0.721,0.225,1.168,0.225c0.576,0,1.049-0.134,1.416-0.4c0.368-0.267,0.611-0.672,0.729-1.216h1.344
			C493.424,141.353,493.024,142.052,492.405,142.521z M492.078,137.209c-0.123-0.288-0.289-0.536-0.496-0.744
			c-0.209-0.208-0.454-0.373-0.736-0.496c-0.283-0.122-0.595-0.184-0.936-0.184c-0.353,0-0.67,0.062-0.953,0.184
			c-0.282,0.123-0.525,0.291-0.728,0.504c-0.202,0.214-0.362,0.462-0.479,0.744c-0.118,0.283-0.188,0.584-0.208,0.904h4.752
			C492.272,137.801,492.2,137.498,492.078,137.209z"/>
		<path fill="#333333" d="M496.182,141.202c0.128,0.208,0.296,0.373,0.504,0.496c0.208,0.122,0.442,0.21,0.704,0.264
			c0.261,0.054,0.53,0.08,0.808,0.08c0.213,0,0.438-0.017,0.672-0.048c0.234-0.032,0.451-0.091,0.648-0.177
			c0.197-0.085,0.359-0.21,0.488-0.376c0.128-0.165,0.191-0.376,0.191-0.632c0-0.352-0.133-0.618-0.4-0.8
			c-0.266-0.182-0.6-0.328-1-0.44c-0.399-0.111-0.834-0.213-1.304-0.304c-0.47-0.09-0.903-0.219-1.304-0.384s-0.733-0.397-1-0.696
			c-0.267-0.298-0.4-0.714-0.4-1.248c0-0.416,0.094-0.772,0.28-1.071s0.427-0.542,0.72-0.729c0.294-0.187,0.624-0.325,0.992-0.416
			s0.733-0.136,1.096-0.136c0.47,0,0.901,0.04,1.297,0.12c0.395,0.08,0.744,0.219,1.048,0.416s0.546,0.464,0.728,0.8
			s0.288,0.755,0.32,1.256h-1.36c-0.021-0.267-0.091-0.488-0.208-0.664s-0.267-0.317-0.447-0.424
			c-0.182-0.106-0.382-0.184-0.601-0.232c-0.219-0.048-0.44-0.071-0.664-0.071c-0.202,0-0.407,0.016-0.616,0.048
			c-0.207,0.032-0.397,0.088-0.567,0.168c-0.171,0.08-0.31,0.187-0.416,0.32c-0.106,0.133-0.16,0.307-0.16,0.52
			c0,0.234,0.083,0.43,0.248,0.584s0.376,0.283,0.632,0.384c0.256,0.102,0.544,0.187,0.864,0.256c0.319,0.07,0.64,0.142,0.96,0.217
			c0.341,0.074,0.674,0.165,1,0.271c0.325,0.106,0.613,0.248,0.863,0.424c0.251,0.176,0.454,0.397,0.608,0.664
			s0.232,0.598,0.232,0.992c0,0.502-0.104,0.918-0.312,1.248c-0.208,0.331-0.479,0.598-0.815,0.8
			c-0.336,0.203-0.715,0.344-1.137,0.424c-0.421,0.08-0.84,0.12-1.256,0.12c-0.459,0-0.896-0.048-1.312-0.144
			c-0.416-0.097-0.784-0.254-1.104-0.473c-0.32-0.218-0.576-0.506-0.768-0.863c-0.192-0.357-0.299-0.792-0.32-1.305h1.36
			C495.984,140.74,496.054,140.994,496.182,141.202z"/>
		<path fill="#333333" d="M504.182,141.202c0.128,0.208,0.296,0.373,0.504,0.496c0.208,0.122,0.442,0.21,0.704,0.264
			c0.261,0.054,0.53,0.08,0.808,0.08c0.213,0,0.438-0.017,0.672-0.048c0.234-0.032,0.451-0.091,0.648-0.177
			c0.197-0.085,0.359-0.21,0.488-0.376c0.128-0.165,0.191-0.376,0.191-0.632c0-0.352-0.133-0.618-0.4-0.8
			c-0.266-0.182-0.6-0.328-1-0.44c-0.399-0.111-0.834-0.213-1.304-0.304c-0.47-0.09-0.903-0.219-1.304-0.384s-0.733-0.397-1-0.696
			c-0.267-0.298-0.4-0.714-0.4-1.248c0-0.416,0.094-0.772,0.28-1.071s0.427-0.542,0.72-0.729c0.294-0.187,0.624-0.325,0.992-0.416
			s0.733-0.136,1.096-0.136c0.47,0,0.901,0.04,1.297,0.12c0.395,0.08,0.744,0.219,1.048,0.416s0.546,0.464,0.728,0.8
			s0.288,0.755,0.32,1.256h-1.36c-0.021-0.267-0.091-0.488-0.208-0.664s-0.267-0.317-0.447-0.424
			c-0.182-0.106-0.382-0.184-0.601-0.232c-0.219-0.048-0.44-0.071-0.664-0.071c-0.202,0-0.407,0.016-0.616,0.048
			c-0.207,0.032-0.397,0.088-0.567,0.168c-0.171,0.08-0.31,0.187-0.416,0.32c-0.106,0.133-0.16,0.307-0.16,0.52
			c0,0.234,0.083,0.43,0.248,0.584s0.376,0.283,0.632,0.384c0.256,0.102,0.544,0.187,0.864,0.256c0.319,0.07,0.64,0.142,0.96,0.217
			c0.341,0.074,0.674,0.165,1,0.271c0.325,0.106,0.613,0.248,0.863,0.424c0.251,0.176,0.454,0.397,0.608,0.664
			s0.232,0.598,0.232,0.992c0,0.502-0.104,0.918-0.312,1.248c-0.208,0.331-0.479,0.598-0.815,0.8
			c-0.336,0.203-0.715,0.344-1.137,0.424c-0.421,0.08-0.84,0.12-1.256,0.12c-0.459,0-0.896-0.048-1.312-0.144
			c-0.416-0.097-0.784-0.254-1.104-0.473c-0.32-0.218-0.576-0.506-0.768-0.863c-0.192-0.357-0.299-0.792-0.32-1.305h1.36
			C503.984,140.74,504.054,140.994,504.182,141.202z"/>
		<path fill="#333333" d="M511.222,133.29v-1.664h1.36v1.664H511.222z M512.582,134.777v8.272h-1.36v-8.272H512.582z"/>
		<path fill="#333333" d="M516.102,131.625v4.271h0.031c0.225-0.458,0.576-0.792,1.057-1c0.479-0.208,1.008-0.312,1.584-0.312
			c0.64,0,1.197,0.117,1.672,0.352c0.475,0.235,0.869,0.553,1.184,0.952c0.314,0.4,0.553,0.861,0.713,1.384
			c0.159,0.523,0.239,1.078,0.239,1.664c0,0.587-0.077,1.142-0.231,1.664c-0.155,0.523-0.39,0.979-0.704,1.368
			c-0.315,0.39-0.71,0.696-1.185,0.92c-0.475,0.225-1.026,0.336-1.656,0.336c-0.202,0-0.429-0.021-0.68-0.063
			c-0.25-0.043-0.498-0.112-0.744-0.208c-0.245-0.097-0.477-0.227-0.695-0.393c-0.219-0.165-0.403-0.37-0.553-0.615h-0.031v1.104
			h-1.36v-11.424H516.102z M520.989,137.713c-0.102-0.368-0.256-0.696-0.464-0.984s-0.475-0.517-0.801-0.688
			c-0.325-0.171-0.706-0.256-1.144-0.256c-0.458,0-0.848,0.091-1.168,0.271c-0.319,0.182-0.581,0.419-0.784,0.712
			c-0.202,0.294-0.35,0.627-0.439,1c-0.091,0.374-0.137,0.752-0.137,1.137c0,0.405,0.049,0.797,0.145,1.176s0.248,0.712,0.456,1
			s0.478,0.52,0.808,0.695c0.331,0.177,0.73,0.265,1.2,0.265s0.861-0.091,1.176-0.272c0.314-0.181,0.568-0.421,0.761-0.72
			c0.191-0.299,0.33-0.64,0.416-1.024c0.085-0.384,0.127-0.778,0.127-1.184C521.141,138.458,521.09,138.082,520.989,137.713z"/>
		<path fill="#333333" d="M525.621,131.625v11.424h-1.36v-11.424H525.621z"/>
		<path fill="#333333" d="M533.589,142.521c-0.619,0.47-1.397,0.704-2.336,0.704c-0.661,0-1.235-0.106-1.72-0.319
			c-0.486-0.214-0.895-0.513-1.225-0.896s-0.578-0.843-0.744-1.376c-0.165-0.533-0.259-1.114-0.279-1.744
			c0-0.629,0.096-1.205,0.287-1.728c0.192-0.522,0.462-0.977,0.809-1.36s0.757-0.683,1.232-0.896c0.474-0.214,0.994-0.32,1.56-0.32
			c0.735,0,1.347,0.152,1.832,0.456s0.874,0.69,1.168,1.16c0.293,0.469,0.496,0.981,0.608,1.536
			c0.111,0.555,0.156,1.082,0.136,1.584h-6.192c-0.011,0.362,0.032,0.706,0.128,1.031c0.097,0.326,0.251,0.614,0.464,0.864
			c0.214,0.251,0.485,0.451,0.816,0.6c0.33,0.15,0.72,0.225,1.168,0.225c0.576,0,1.048-0.134,1.416-0.4s0.61-0.672,0.729-1.216
			h1.344C534.607,141.353,534.207,142.052,533.589,142.521z M533.261,137.209c-0.123-0.288-0.288-0.536-0.496-0.744
			s-0.453-0.373-0.735-0.496c-0.283-0.122-0.596-0.184-0.937-0.184c-0.353,0-0.669,0.062-0.952,0.184
			c-0.283,0.123-0.525,0.291-0.728,0.504c-0.203,0.214-0.363,0.462-0.48,0.744c-0.117,0.283-0.187,0.584-0.208,0.904h4.752
			C533.455,137.801,533.383,137.498,533.261,137.209z"/>
	</g>
	<rect x="450" y="24.5" fill="#412356" width="65" height="66"/>
	<rect x="515" y="24.5" fill="#311A41" width="65" height="66"/>
	<rect x="580" y="24.5" fill="#030103" width="64" height="66"/>
	<g>
		<path fill="#FFFFFF" d="M423.426,47.533l6.676,17.85h-4.075l-1.351-3.975h-6.675l-1.399,3.975h-3.95l6.75-17.85H423.426z
			 M423.651,58.482l-2.25-6.55h-0.05l-2.325,6.55H423.651z"/>
	</g>
	<g>
		<path fill="#FFFFFF" d="M488.426,47.533l6.676,17.85h-4.075l-1.351-3.975h-6.675l-1.399,3.975h-3.95l6.75-17.85H488.426z
			 M488.651,58.482l-2.25-6.55h-0.05l-2.325,6.55H488.651z"/>
	</g>
	<g>
		<path fill="#FFFFFF" d="M553.426,47.533l6.676,17.85h-4.075l-1.351-3.975h-6.675l-1.399,3.975h-3.95l6.75-17.85H553.426z
			 M553.651,58.482l-2.25-6.55h-0.05l-2.325,6.55H553.651z"/>
	</g>
	<g>
		<path fill="#FFFFFF" d="M615.426,47.533l6.676,17.85h-4.075l-1.351-3.975h-6.675l-1.399,3.975h-3.95l6.75-17.85H615.426z
			 M615.651,58.482l-2.25-6.55h-0.05l-2.325,6.55H615.651z"/>
	</g>
</g>
<g id="Layer_3" display="none">
	<g display="inline" opacity="0.2">
		<g>
			<line fill="none" stroke="#00FFFF" stroke-miterlimit="10" x1="-189" y1="144" x2="835" y2="144"/>
		</g>
		<g>
			<line fill="none" stroke="#00FFFF" stroke-miterlimit="10" x1="-189" y1="138" x2="835" y2="138"/>
		</g>
		<g>
			<line fill="none" stroke="#00FFFF" stroke-miterlimit="10" x1="-189" y1="132" x2="835" y2="132"/>
		</g>
		<g>
			<line fill="none" stroke="#00FFFF" stroke-miterlimit="10" x1="-189" y1="126" x2="835" y2="126"/>
		</g>
		<g>
			<line fill="none" stroke="#00FFFF" stroke-miterlimit="10" x1="-189" y1="120" x2="835" y2="120"/>
		</g>
		<g>
			<line fill="none" stroke="#00FFFF" stroke-miterlimit="10" x1="-189" y1="114" x2="835" y2="114"/>
		</g>
		<g>
			<line fill="none" stroke="#00FFFF" stroke-miterlimit="10" x1="-189" y1="108" x2="835" y2="108"/>
		</g>
		<g>
			<line fill="none" stroke="#00FFFF" stroke-miterlimit="10" x1="-189" y1="102" x2="835" y2="102"/>
		</g>
		<g>
			<line fill="none" stroke="#00FFFF" stroke-miterlimit="10" x1="-189" y1="96" x2="835" y2="96"/>
		</g>
		<g>
			<line fill="none" stroke="#00FFFF" stroke-miterlimit="10" x1="-189" y1="90" x2="835" y2="90"/>
		</g>
		<g>
			<line fill="none" stroke="#00FFFF" stroke-miterlimit="10" x1="-189" y1="84" x2="835" y2="84"/>
		</g>
		<g>
			<line fill="none" stroke="#00FFFF" stroke-miterlimit="10" x1="-189" y1="78" x2="835" y2="78"/>
		</g>
		<g>
			<line fill="none" stroke="#00FFFF" stroke-miterlimit="10" x1="-189" y1="72" x2="835" y2="72"/>
		</g>
		<g>
			<line fill="none" stroke="#00FFFF" stroke-miterlimit="10" x1="-189" y1="66" x2="835" y2="66"/>
		</g>
		<g>
			<line fill="none" stroke="#00FFFF" stroke-miterlimit="10" x1="-189" y1="60" x2="835" y2="60"/>
		</g>
		<g>
			<line fill="none" stroke="#00FFFF" stroke-miterlimit="10" x1="-189" y1="54" x2="835" y2="54"/>
		</g>
		<g>
			<line fill="none" stroke="#00FFFF" stroke-miterlimit="10" x1="-189" y1="48" x2="835" y2="48"/>
		</g>
		<g>
			<line fill="none" stroke="#00FFFF" stroke-miterlimit="10" x1="-189" y1="42" x2="835" y2="42"/>
		</g>
		<g>
			<line fill="none" stroke="#00FFFF" stroke-miterlimit="10" x1="-189" y1="36" x2="835" y2="36"/>
		</g>
		<g>
			<line fill="none" stroke="#00FFFF" stroke-miterlimit="10" x1="-189" y1="30" x2="835" y2="30"/>
		</g>
		<g>
			<line fill="none" stroke="#00FFFF" stroke-miterlimit="10" x1="-189" y1="24" x2="835" y2="24"/>
		</g>
		<g>
			<line fill="none" stroke="#00FFFF" stroke-miterlimit="10" x1="-189" y1="18" x2="835" y2="18"/>
		</g>
		<g>
			<line fill="none" stroke="#00FFFF" stroke-miterlimit="10" x1="-189" y1="12" x2="835" y2="12"/>
		</g>
		<g>
			<line fill="none" stroke="#00FFFF" stroke-miterlimit="10" x1="-189" y1="6" x2="835" y2="6"/>
		</g>
		<g>
			<line fill="none" stroke="#00FFFF" stroke-miterlimit="10" x1="-189" y1="0" x2="835" y2="0"/>
		</g>
	</g>
</g>
<g id="Layer_2" display="none">
	<rect x="-1" y="-2621.617" display="inline" opacity="0.08" fill="#00FFFF" width="60" height="10542.133"/>
	<rect x="83" y="-2621.617" display="inline" opacity="0.08" fill="#00FFFF" width="60" height="10542.133"/>
	<rect x="167" y="-2621.617" display="inline" opacity="0.08" fill="#00FFFF" width="60" height="10542.133"/>
	<rect x="251" y="-2621.617" display="inline" opacity="0.08" fill="#00FFFF" width="60" height="10542.133"/>
	<rect x="335" y="-2621.617" display="inline" opacity="0.08" fill="#00FFFF" width="60" height="10542.133"/>
	<rect x="419" y="-2621.617" display="inline" opacity="0.08" fill="#00FFFF" width="60" height="10542.133"/>
	<rect x="503" y="-2621.617" display="inline" opacity="0.08" fill="#00FFFF" width="60" height="10542.133"/>
	<rect x="587" y="-2621.617" display="inline" opacity="0.08" fill="#00FFFF" width="60" height="10542.133"/>
</g>
</svg>
