<?xml version="1.0" encoding="utf-8"?>
<!-- Generator: Adobe Illustrator 18.0.0, SVG Export Plug-In . SVG Version: 6.00 Build 0)  -->
<!DOCTYPE svg PUBLIC "-//W3C//DTD SVG 1.1//EN" "http://www.w3.org/Graphics/SVG/1.1/DTD/svg11.dtd">
<svg version="1.1" id="Layer_1" xmlns="http://www.w3.org/2000/svg" xmlns:xlink="http://www.w3.org/1999/xlink" x="0px" y="0px"
	 viewBox="0 0 650 286" width="650" height="286"  enable-background="new 0 0 650 286" xml:space="preserve">
<g>
	<polygon fill="#FCFAFA" points="0,0 0,286 246.1,286 255.9,286 275.3,286 284.8,286 650,286 650,0 	"/>
</g>
<g>
	<g>
		<path fill="#1D3649" d="M97.1,126.4l-1.2-0.9c-0.5,0.4-1.2,0.6-2,0.6c-2.5,0-3.7-1.9-3.7-4.1s1.2-4.1,3.7-4.1
			c2.5,0,3.7,1.9,3.7,4.1c0,1.2-0.4,2.4-1.2,3.1l1.1,0.9L97.1,126.4z M95.8,124.6c0.7-0.7,1-1.7,1-2.7c0-1.7-0.9-3.5-2.9-3.5
			c-2.1,0-3,1.7-3,3.5c0,1.7,0.9,3.5,3,3.5c0.6,0,1-0.1,1.5-0.4l-1-0.8l0.4-0.5L95.8,124.6z"/>
	</g>
	<g>
		<path fill="#1D3649" d="M99.1,123.4c-0.1,1.2,0.7,2,1.9,2c1,0,2-0.6,2-1.7s-0.8-1.6-1.8-1.6h-0.6v-0.6h0.6c0.7,0,1.6-0.4,1.6-1.4
			c0-1-0.8-1.5-1.7-1.5c-1.1,0-1.8,0.8-1.7,1.9h-0.7c0-1.5,0.9-2.5,2.4-2.5c1.2,0,2.4,0.6,2.4,2c0,0.8-0.5,1.5-1.3,1.7v0
			c1,0.2,1.6,0.9,1.6,1.9c0,1.5-1.2,2.3-2.7,2.3c-1.6,0-2.8-1-2.6-2.6H99.1z"/>
	</g>
	<g>
		<path fill="#1D3649" d="M109.9,118h0.8l3.1,7.9H113l-1-2.4h-3.6l-0.9,2.4h-0.8L109.9,118z M108.7,122.8h3.1l-1.5-4L108.7,122.8z"
			/>
	</g>
	<g>
		<path fill="#1D3649" d="M118.3,122c-0.2-0.8-0.7-1.4-1.6-1.4c-1.3,0-2,1.2-2,2.4s0.7,2.4,2,2.4c0.8,0,1.6-0.7,1.6-1.6h0.7
			c-0.2,1.4-1.1,2.2-2.3,2.2c-1.7,0-2.7-1.4-2.7-3s1-3,2.7-3c1.2,0,2.1,0.6,2.3,1.9H118.3z"/>
	</g>
	<g>
		<path fill="#1D3649" d="M121.3,120.2h1.2v0.6h-1.2v3.8c0,0.5,0.1,0.7,0.6,0.7c0.2,0,0.4,0,0.6,0v0.6c-0.2,0-0.4,0-0.6,0
			c-0.9,0-1.2-0.3-1.2-1.3v-3.9h-1v-0.6h1v-1.7h0.7V120.2z"/>
	</g>
	<g>
		<path fill="#1D3649" d="M123.5,118h0.7v1.1h-0.7V118z M123.5,120.2h0.7v5.7h-0.7V120.2z"/>
	</g>
	<g>
		<path fill="#1D3649" d="M125,120.2h0.8l1.8,5h0l1.8-5h0.7l-2.1,5.7h-0.7L125,120.2z"/>
	</g>
	<g>
		<path fill="#1D3649" d="M130.8,118h0.7v1.1h-0.7V118z M130.8,120.2h0.7v5.7h-0.7V120.2z"/>
	</g>
	<g>
		<path fill="#1D3649" d="M134,120.2h1.2v0.6H134v3.8c0,0.5,0.1,0.7,0.6,0.7c0.2,0,0.4,0,0.6,0v0.6c-0.2,0-0.4,0-0.6,0
			c-0.9,0-1.2-0.3-1.2-1.3v-3.9h-1v-0.6h1v-1.7h0.7V120.2z"/>
	</g>
	<g>
		<path fill="#1D3649" d="M135.8,120.2h0.7l1.9,4.8l1.8-4.8h0.7l-2.5,6.5c-0.4,1-0.6,1.2-1.5,1.2c-0.3,0-0.4,0-0.5-0.1v-0.6
			c0.2,0,0.3,0.1,0.5,0.1c0.6,0,0.8-0.4,1-0.9l0.2-0.6L135.8,120.2z"/>
	</g>
</g>
<g>
	<g>
		<path fill="#1D3649" d="M102.6,110.3H100V95.1h-5.5v-2c2.9,0,5.5-0.7,6.1-4h1.9V110.3z"/>
	</g>
	<g>
		<path fill="#1D3649" d="M119.4,91.6c-4.3,4.2-7.8,12.1-8.1,18.7h-2.8c0.5-7.2,3.9-13.8,8.4-18.5h-11.1v-2.4h13.7V91.6z"/>
	</g>
	<g>
		<path fill="#1D3649" d="M131.3,94.5c-0.2-1.9-1.5-3.2-3.6-3.2c-4.3,0-5.1,4.8-5.1,8l0.1,0.1c1.2-1.9,3-2.8,5.3-2.8
			c4.1,0,6.5,3,6.5,6.9c0,3.1-1.7,7.1-7.1,7.1c-6.3,0-7.3-5.8-7.3-10.2c0-5.8,1.8-11.4,7.8-11.4c3.5,0,5.7,1.9,6,5.4H131.3z
			 M123,103.7c0,2.6,1.6,4.7,4.4,4.7c2.8,0,4.3-2.2,4.3-4.7c0-2.6-1.4-4.8-4.3-4.8C124.6,98.9,123,101,123,103.7z"/>
	</g>
</g>
<g>
	<path fill="#FF7D85" d="M109.7,62.1l-0.7-8.6c-7.9,0.8-15.3,3.3-21.9,7.1l4.3,7.6C96.8,65,103,62.8,109.7,62.1z"/>
</g>
<g>
	<path fill="#D92780" d="M91.3,68.2l-4.2-7.6C75.6,67.2,66.8,78,62.6,90.8l8.1,2.8C74.3,82.9,81.7,73.9,91.3,68.2z"/>
</g>
<g>
	<path fill="#FF71D2" d="M68.3,108.3c0-5.2,0.9-10.2,2.4-14.9l-8.1-2.8C61,96,60,101.7,60,107.6c0,21.9,13,40.8,31.7,49.4l3.1-6.7
		C79.1,142.7,68.3,126.8,68.3,108.3z"/>
</g>
<g>
	<path fill="#9655D2" d="M114.3,53.2c-1.8,0-3.6,0.1-5.4,0.3l0.9,8.6c1.6-0.2,3.3-0.3,4.9-0.3c25.6,0,46.4,20.8,46.4,46.4
		c0,25.6-20.8,46.4-46.4,46.4c-7.1,0-13.9-1.6-20-4.5l-3.1,6.7c6.9,3.2,14.5,4.9,22.6,4.9c30,0,54.3-24.3,54.3-54.3
		S144.3,53.2,114.3,53.2z"/>
</g>
<g>
	<g>
		<g>
			<path fill="#1D3649" d="M397.4,21.9h0.8l4.6,6.7h0v-6.7h0.8v7.9h-0.8l-4.6-6.7h0v6.7h-0.8V21.9z"/>
		</g>
		<g>
			<path fill="#1D3649" d="M405.4,27.1c0,1,0.6,2.2,1.9,2.2c1,0,1.6-0.6,1.8-1.5h0.7c-0.3,1.3-1,2-2.5,2c-1.8,0-2.6-1.4-2.6-3
				c0-1.5,0.8-3,2.6-3c1.8,0,2.6,1.6,2.5,3.2H405.4z M409.1,26.5c0-1-0.7-2-1.8-2c-1.1,0-1.8,1-1.9,2H409.1z"/>
		</g>
		<g>
			<path fill="#1D3649" d="M410.2,24.1h0.7l1.5,4.9h0l1.4-4.9h0.8l1.4,4.9h0l1.5-4.9h0.7l-1.8,5.7h-0.8l-1.4-4.8h0l-1.4,4.8H412
				L410.2,24.1z"/>
		</g>
		<g>
			<path fill="#1D3649" d="M425,21.7c2.5,0,3.7,1.9,3.7,4.1s-1.2,4.1-3.7,4.1c-2.5,0-3.7-1.9-3.7-4.1S422.5,21.7,425,21.7z
				 M425,29.3c2.1,0,3-1.7,3-3.5s-0.9-3.5-3-3.5c-2.1,0-3,1.7-3,3.5S422.9,29.3,425,29.3z"/>
		</g>
		<g>
			<path fill="#1D3649" d="M429.8,24.1h0.7v1h0c0.3-0.7,1-1.1,1.8-1.1c1.6,0,2.1,0.8,2.1,2.2v3.7h-0.7v-3.6c0-1-0.3-1.7-1.4-1.7
				c-1.1,0-1.8,0.8-1.8,2v3.3h-0.7V24.1z"/>
		</g>
		<g>
			<path fill="#1D3649" d="M435.8,21.9h0.7v3.3h0c0.3-0.8,1.1-1.2,2-1.2c1.7,0,2.6,1.4,2.6,3c0,1.6-0.8,3-2.6,3
				c-0.9,0-1.7-0.5-2-1.2h0v1.1h-0.6V21.9z M438.5,24.5c-1.5,0-2,1.2-2,2.4c0,1.2,0.5,2.4,2,2.4c1.3,0,1.9-1.2,1.9-2.4
				C440.3,25.7,439.8,24.5,438.5,24.5z"/>
		</g>
		<g>
			<path fill="#1D3649" d="M447.3,26.9c0,1.6-1,3-2.7,3c-1.7,0-2.7-1.4-2.7-3s1-3,2.7-3C446.3,23.9,447.3,25.3,447.3,26.9z
				 M442.6,26.9c0,1.2,0.7,2.4,2,2.4c1.3,0,2-1.2,2-2.4c0-1.2-0.7-2.4-2-2.4C443.2,24.5,442.6,25.7,442.6,26.9z"/>
		</g>
		<g>
			<path fill="#1D3649" d="M448.3,25.8c0.1-1.3,1-1.9,2.3-1.9c1,0,2.1,0.3,2.1,1.8v3c0,0.3,0.1,0.4,0.4,0.4c0.1,0,0.1,0,0.2,0v0.6
				c-0.2,0-0.3,0-0.5,0c-0.7,0-0.8-0.4-0.8-1h0c-0.5,0.7-1,1.2-2.1,1.2c-1.1,0-1.9-0.5-1.9-1.7c0-1.6,1.6-1.7,3.1-1.8
				c0.6-0.1,0.9-0.2,0.9-0.8c0-0.9-0.7-1.2-1.5-1.2c-0.9,0-1.5,0.4-1.5,1.3H448.3z M452,26.6L452,26.6c-0.1,0.2-0.4,0.2-0.6,0.3
				c-1.2,0.2-2.6,0.2-2.6,1.3c0,0.7,0.6,1.1,1.3,1.1c1.1,0,2-0.7,2-1.8V26.6z"/>
		</g>
		<g>
			<path fill="#1D3649" d="M454.3,24.1h0.6v1.3h0c0.4-0.9,1.1-1.5,2.2-1.4v0.7c-1.3-0.1-2.1,0.8-2.1,2v3h-0.7V24.1z"/>
		</g>
		<g>
			<path fill="#1D3649" d="M462.6,29.7H462v-1.1h0c-0.3,0.8-1.2,1.2-2,1.2c-1.7,0-2.6-1.4-2.6-3c0-1.6,0.8-3,2.6-3
				c0.8,0,1.7,0.4,2,1.2h0v-3.3h0.7V29.7z M459.9,29.3c1.5,0,2-1.2,2-2.4c0-1.2-0.5-2.4-2-2.4c-1.3,0-1.9,1.2-1.9,2.4
				C458.1,28.1,458.6,29.3,459.9,29.3z"/>
		</g>
		<g>
			<path fill="#1D3649" d="M464,21.9h0.7V23H464V21.9z M464,24.1h0.7v5.7H464V24.1z"/>
		</g>
		<g>
			<path fill="#1D3649" d="M466.1,24.1h0.7v1h0c0.3-0.7,1-1.1,1.8-1.1c1.6,0,2.1,0.8,2.1,2.2v3.7H470v-3.6c0-1-0.3-1.7-1.4-1.7
				c-1.1,0-1.8,0.8-1.8,2v3.3h-0.7V24.1z"/>
		</g>
		<g>
			<path fill="#1D3649" d="M476.9,29.3c0,1.7-0.7,2.7-2.5,2.7c-1.1,0-2.3-0.5-2.4-1.7h0.7c0.1,0.8,0.9,1.1,1.7,1.1
				c1.3,0,1.8-0.8,1.8-2.2v-0.8h0c-0.3,0.7-1,1.2-1.8,1.2c-1.8,0-2.6-1.3-2.6-2.9c0-1.6,0.9-2.9,2.6-2.9c0.8,0,1.5,0.5,1.8,1.1h0v-1
				h0.7V29.3z M476.2,26.8c0-1.1-0.5-2.4-1.8-2.4c-1.3,0-1.9,1.2-1.9,2.4c0,1.1,0.6,2.3,1.9,2.3C475.5,29.1,476.2,28,476.2,26.8z"/>
		</g>
		<g>
			<path fill="#1D3649" d="M484.3,25.7c0-0.9-0.7-1.2-1.5-1.2c-0.6,0-1.3,0.2-1.3,1c0,0.6,0.7,0.8,1.2,1l0.9,0.2
				c0.8,0.1,1.6,0.6,1.6,1.6c0,1.2-1.2,1.7-2.3,1.7c-1.3,0-2.2-0.6-2.3-2h0.7c0.1,0.9,0.8,1.4,1.7,1.4c0.7,0,1.6-0.3,1.6-1.1
				c0-0.7-0.6-0.9-1.2-1l-0.9-0.2c-0.9-0.2-1.6-0.6-1.6-1.5c0-1.2,1.1-1.6,2.1-1.6c1.1,0,2,0.6,2.1,1.8H484.3z"/>
		</g>
		<g>
			<path fill="#1D3649" d="M487.3,24.1h1.2v0.6h-1.2v3.8c0,0.5,0.1,0.7,0.6,0.8c0.2,0,0.4,0,0.6,0v0.6c-0.2,0-0.4,0-0.6,0
				c-0.9,0-1.2-0.3-1.2-1.3v-3.9h-1v-0.6h1v-1.7h0.7V24.1z"/>
		</g>
		<g>
			<path fill="#1D3649" d="M489.3,25.8c0.1-1.3,1-1.9,2.3-1.9c1,0,2.1,0.3,2.1,1.8v3c0,0.3,0.1,0.4,0.4,0.4c0.1,0,0.1,0,0.2,0v0.6
				c-0.2,0-0.3,0-0.5,0c-0.7,0-0.8-0.4-0.8-1h0c-0.5,0.7-1,1.2-2.1,1.2c-1.1,0-1.9-0.5-1.9-1.7c0-1.6,1.6-1.7,3.1-1.8
				c0.6-0.1,0.9-0.2,0.9-0.8c0-0.9-0.7-1.2-1.5-1.2c-0.9,0-1.5,0.4-1.5,1.3H489.3z M493,26.6L493,26.6c-0.1,0.2-0.4,0.2-0.6,0.3
				c-1.2,0.2-2.6,0.2-2.6,1.3c0,0.7,0.6,1.1,1.3,1.1c1.1,0,2-0.7,2-1.8V26.6z"/>
		</g>
		<g>
			<path fill="#1D3649" d="M496.2,24.1h1.2v0.6h-1.2v3.8c0,0.5,0.1,0.7,0.6,0.8c0.2,0,0.4,0,0.6,0v0.6c-0.2,0-0.4,0-0.6,0
				c-0.9,0-1.2-0.3-1.2-1.3v-3.9h-1v-0.6h1v-1.7h0.7V24.1z"/>
		</g>
		<g>
			<path fill="#1D3649" d="M498.4,21.9h0.7V23h-0.7V21.9z M498.4,24.1h0.7v5.7h-0.7V24.1z"/>
		</g>
		<g>
			<path fill="#1D3649" d="M503.9,25.7c0-0.9-0.7-1.2-1.5-1.2c-0.6,0-1.3,0.2-1.3,1c0,0.6,0.7,0.8,1.2,1l0.9,0.2
				c0.8,0.1,1.6,0.6,1.6,1.6c0,1.2-1.2,1.7-2.3,1.7c-1.3,0-2.2-0.6-2.3-2h0.7c0.1,0.9,0.8,1.4,1.7,1.4c0.7,0,1.6-0.3,1.6-1.1
				c0-0.7-0.6-0.9-1.2-1L502,27c-0.9-0.2-1.6-0.6-1.6-1.5c0-1.2,1.1-1.6,2.1-1.6c1.1,0,2,0.6,2.1,1.8H503.9z"/>
		</g>
		<g>
			<path fill="#1D3649" d="M506.9,24.1h1.2v0.6h-1.2v3.8c0,0.5,0.1,0.7,0.6,0.8c0.2,0,0.4,0,0.6,0v0.6c-0.2,0-0.4,0-0.6,0
				c-0.9,0-1.2-0.3-1.2-1.3v-3.9h-1v-0.6h1v-1.7h0.7V24.1z"/>
		</g>
		<g>
			<path fill="#1D3649" d="M509.1,21.9h0.7V23h-0.7V21.9z M509.1,24.1h0.7v5.7h-0.7V24.1z"/>
		</g>
		<g>
			<path fill="#1D3649" d="M515.3,25.8c-0.2-0.8-0.7-1.4-1.6-1.4c-1.3,0-2,1.2-2,2.4c0,1.2,0.7,2.4,2,2.4c0.8,0,1.6-0.7,1.7-1.6h0.7
				c-0.2,1.4-1.1,2.2-2.4,2.2c-1.7,0-2.7-1.4-2.7-3s1-3,2.7-3c1.2,0,2.1,0.6,2.3,2H515.3z"/>
		</g>
		<g>
			<path fill="#1D3649" d="M520.5,25.7c0-0.9-0.7-1.2-1.5-1.2c-0.6,0-1.3,0.2-1.3,1c0,0.6,0.7,0.8,1.2,1l0.9,0.2
				c0.8,0.1,1.6,0.6,1.6,1.6c0,1.2-1.2,1.7-2.3,1.7c-1.3,0-2.2-0.6-2.3-2h0.7c0.1,0.9,0.8,1.4,1.7,1.4c0.7,0,1.6-0.3,1.6-1.1
				c0-0.7-0.6-0.9-1.2-1l-0.9-0.2c-0.9-0.2-1.6-0.6-1.6-1.5c0-1.2,1.1-1.6,2.1-1.6c1.1,0,2,0.6,2.1,1.8H520.5z"/>
		</g>
	</g>
	<g>
		<line fill="#1D3649" x1="396.6" y1="35" x2="561" y2="35"/>
	</g>
</g>
<g>
	<g>
		<g>
			<path fill="#1D3649" d="M63.2,21.7H64l3.1,7.9h-0.8l-1-2.4h-3.6l-0.9,2.4H60L63.2,21.7z M62,26.5h3.1l-1.5-4L62,26.5z"/>
		</g>
		<g>
			<path fill="#1D3649" d="M71.6,25.7c-0.2-0.8-0.7-1.4-1.6-1.4c-1.3,0-2,1.2-2,2.4c0,1.2,0.7,2.4,2,2.4c0.8,0,1.6-0.7,1.7-1.6h0.7
				c-0.2,1.4-1.1,2.2-2.4,2.2c-1.7,0-2.7-1.4-2.7-3s1-3,2.7-3c1.2,0,2.1,0.6,2.3,2H71.6z"/>
		</g>
		<g>
			<path fill="#1D3649" d="M74.6,23.9h1.2v0.6h-1.2v3.8c0,0.5,0.1,0.7,0.6,0.8c0.2,0,0.4,0,0.6,0v0.6c-0.2,0-0.4,0-0.6,0
				c-0.9,0-1.2-0.3-1.2-1.3v-3.9h-1v-0.6h1v-1.7h0.7V23.9z"/>
		</g>
		<g>
			<path fill="#1D3649" d="M76.8,21.7h0.7v1.1h-0.7V21.7z M76.8,23.9h0.7v5.7h-0.7V23.9z"/>
		</g>
		<g>
			<path fill="#1D3649" d="M78.3,23.9H79l1.8,5h0l1.8-5h0.7l-2.1,5.7h-0.7L78.3,23.9z"/>
		</g>
		<g>
			<path fill="#1D3649" d="M84.1,21.7h0.7v1.1h-0.7V21.7z M84.1,23.9h0.7v5.7h-0.7V23.9z"/>
		</g>
		<g>
			<path fill="#1D3649" d="M87.3,23.9h1.2v0.6h-1.2v3.8c0,0.5,0.1,0.7,0.6,0.8c0.2,0,0.4,0,0.6,0v0.6c-0.2,0-0.4,0-0.6,0
				c-0.9,0-1.2-0.3-1.2-1.3v-3.9h-1v-0.6h1v-1.7h0.7V23.9z"/>
		</g>
		<g>
			<path fill="#1D3649" d="M89.2,23.9h0.7l1.9,4.9l1.8-4.9h0.7l-2.5,6.6c-0.4,1-0.6,1.2-1.5,1.2c-0.3,0-0.4,0-0.5-0.1V31
				c0.2,0,0.3,0.1,0.5,0.1c0.6,0,0.8-0.4,1-0.9l0.2-0.7L89.2,23.9z"/>
		</g>
		<g>
			<path fill="#1D3649" d="M98,27c0,1.6,1.1,2.1,2.6,2.1c0.8,0,2.1-0.5,2.1-1.6c0-0.9-0.9-1.2-1.6-1.4l-1.8-0.4
				c-0.9-0.2-1.8-0.7-1.8-1.9c0-0.8,0.5-2.2,2.7-2.2c1.6,0,2.9,0.8,2.9,2.4h-0.8c-0.1-1.2-1-1.8-2.2-1.8c-1,0-2,0.4-2,1.6
				c0,0.7,0.5,1.1,1.2,1.2l1.9,0.5c1.1,0.3,2,0.8,2,2.1c0,0.5-0.2,2.2-3,2.2c-1.9,0-3.2-0.8-3.1-2.8H98z"/>
		</g>
		<g>
			<path fill="#1D3649" d="M109.1,29.6h-0.6v-1h0c-0.4,0.8-1.1,1.2-2,1.2c-1.4,0-2-0.8-2-2.2v-3.7h0.7v3.7c0,1,0.4,1.6,1.5,1.6
				c1.2,0,1.7-1.1,1.7-2.3v-3h0.7V29.6z"/>
		</g>
		<g>
			<path fill="#1D3649" d="M114.5,25.7c-0.2-0.8-0.7-1.4-1.6-1.4c-1.3,0-2,1.2-2,2.4c0,1.2,0.7,2.4,2,2.4c0.8,0,1.6-0.7,1.7-1.6h0.7
				c-0.2,1.4-1.1,2.2-2.4,2.2c-1.7,0-2.7-1.4-2.7-3s1-3,2.7-3c1.2,0,2.1,0.6,2.3,2H114.5z"/>
		</g>
		<g>
			<path fill="#1D3649" d="M120.3,25.7c-0.2-0.8-0.7-1.4-1.6-1.4c-1.3,0-2,1.2-2,2.4c0,1.2,0.7,2.4,2,2.4c0.8,0,1.6-0.7,1.7-1.6h0.7
				c-0.2,1.4-1.1,2.2-2.4,2.2c-1.7,0-2.7-1.4-2.7-3s1-3,2.7-3c1.2,0,2.1,0.6,2.3,2H120.3z"/>
		</g>
		<g>
			<path fill="#1D3649" d="M122.4,26.9c0,1,0.6,2.2,1.9,2.2c1,0,1.6-0.6,1.8-1.5h0.7c-0.3,1.3-1,2-2.5,2c-1.8,0-2.6-1.4-2.6-3
				c0-1.5,0.8-3,2.6-3c1.8,0,2.6,1.6,2.5,3.2H122.4z M126.1,26.3c0-1-0.7-2-1.8-2c-1.1,0-1.8,1-1.9,2H126.1z"/>
		</g>
		<g>
			<path fill="#1D3649" d="M131.3,25.5c0-0.9-0.7-1.2-1.5-1.2c-0.6,0-1.3,0.2-1.3,1c0,0.6,0.7,0.8,1.2,1l0.9,0.2
				c0.8,0.1,1.6,0.6,1.6,1.6c0,1.2-1.2,1.7-2.3,1.7c-1.3,0-2.2-0.6-2.3-2h0.7c0.1,0.9,0.8,1.4,1.7,1.4c0.7,0,1.6-0.3,1.6-1.1
				c0-0.7-0.6-0.9-1.2-1l-0.9-0.2c-0.9-0.2-1.6-0.6-1.6-1.5c0-1.2,1.1-1.6,2.1-1.6c1.1,0,2,0.6,2.1,1.8H131.3z"/>
		</g>
		<g>
			<path fill="#1D3649" d="M136.8,25.5c0-0.9-0.7-1.2-1.5-1.2c-0.6,0-1.3,0.2-1.3,1c0,0.6,0.7,0.8,1.2,1l0.9,0.2
				c0.8,0.1,1.6,0.6,1.6,1.6c0,1.2-1.2,1.7-2.3,1.7c-1.3,0-2.2-0.6-2.3-2h0.7c0.1,0.9,0.8,1.4,1.7,1.4c0.7,0,1.6-0.3,1.6-1.1
				c0-0.7-0.6-0.9-1.2-1l-0.9-0.2c-0.9-0.2-1.6-0.6-1.6-1.5c0-1.2,1.1-1.6,2.1-1.6c1.1,0,2,0.6,2.1,1.8H136.8z"/>
		</g>
		<g>
			<path fill="#1D3649" d="M141.5,21.7h3.6c1.3,0,2.4,0.6,2.4,2.1c0,1-0.5,1.8-1.5,2v0c1,0.1,1.3,0.8,1.4,1.8c0,0.5,0,1.6,0.4,2
				h-0.8c-0.2-0.3-0.2-0.9-0.2-1.2c-0.1-1.1-0.2-2.3-1.6-2.3h-2.8v3.5h-0.8V21.7z M142.2,25.4h2.8c0.9,0,1.7-0.6,1.7-1.5
				c0-1-0.6-1.6-1.7-1.6h-2.8V25.4z"/>
		</g>
		<g>
			<path fill="#1D3649" d="M148.7,25.6c0.1-1.3,1-1.9,2.3-1.9c1,0,2.1,0.3,2.1,1.8v3c0,0.3,0.1,0.4,0.4,0.4c0.1,0,0.1,0,0.2,0v0.6
				c-0.2,0-0.3,0-0.5,0c-0.7,0-0.8-0.4-0.8-1h0c-0.5,0.7-1,1.2-2.1,1.2c-1.1,0-1.9-0.5-1.9-1.7c0-1.6,1.6-1.7,3.1-1.8
				c0.6-0.1,0.9-0.2,0.9-0.8c0-0.9-0.7-1.2-1.5-1.2c-0.9,0-1.5,0.4-1.5,1.3H148.7z M152.4,26.5L152.4,26.5c-0.1,0.2-0.4,0.2-0.6,0.3
				c-1.2,0.2-2.6,0.2-2.6,1.3c0,0.7,0.6,1.1,1.3,1.1c1.1,0,2-0.7,2-1.8V26.5z"/>
		</g>
		<g>
			<path fill="#1D3649" d="M155.5,23.9h1.2v0.6h-1.2v3.8c0,0.5,0.1,0.7,0.6,0.8c0.2,0,0.4,0,0.6,0v0.6c-0.2,0-0.4,0-0.6,0
				c-0.9,0-1.2-0.3-1.2-1.3v-3.9h-1v-0.6h1v-1.7h0.7V23.9z"/>
		</g>
		<g>
			<path fill="#1D3649" d="M157.8,26.9c0,1,0.6,2.2,1.9,2.2c1,0,1.6-0.6,1.8-1.5h0.7c-0.3,1.3-1,2-2.5,2c-1.8,0-2.6-1.4-2.6-3
				c0-1.5,0.8-3,2.6-3c1.8,0,2.6,1.6,2.5,3.2H157.8z M161.5,26.3c0-1-0.7-2-1.8-2c-1.1,0-1.8,1-1.9,2H161.5z"/>
		</g>
		<g>
			<path fill="#1D3649" d="M166.7,25.5c0-0.9-0.7-1.2-1.5-1.2c-0.6,0-1.3,0.2-1.3,1c0,0.6,0.7,0.8,1.2,1l0.9,0.2
				c0.8,0.1,1.6,0.6,1.6,1.6c0,1.2-1.2,1.7-2.3,1.7c-1.3,0-2.2-0.6-2.3-2h0.7c0.1,0.9,0.8,1.4,1.7,1.4c0.7,0,1.6-0.3,1.6-1.1
				c0-0.7-0.6-0.9-1.2-1l-0.9-0.2c-0.9-0.2-1.6-0.6-1.6-1.5c0-1.2,1.1-1.6,2.1-1.6c1.1,0,2,0.6,2.1,1.8H166.7z"/>
		</g>
	</g>
	<g>
		<rect x="60.1" y="34.3" fill="#1D3649" width="253.7" height="1"/>
	</g>
</g>
<g>
	<g>
		<path fill="#1D3649" d="M403.2,55.9c-0.3-1.2-1.3-1.9-2.4-1.9c-2.1,0-3,1.7-3,3.5c0,1.7,0.9,3.5,3,3.5c1.5,0,2.4-1.1,2.5-2.5h0.7
			c-0.2,1.9-1.4,3.2-3.3,3.2c-2.5,0-3.7-1.9-3.7-4.1s1.2-4.1,3.7-4.1c1.5,0,2.9,0.9,3.2,2.5H403.2z"/>
	</g>
	<g>
		<path fill="#1D3649" d="M410.3,58.6c0,1.6-1,3-2.7,3c-1.7,0-2.7-1.4-2.7-3c0-1.6,1-3,2.7-3C409.4,55.6,410.3,56.9,410.3,58.6z
			 M405.6,58.6c0,1.2,0.7,2.4,2,2.4s2-1.2,2-2.4c0-1.2-0.7-2.4-2-2.4S405.6,57.4,405.6,58.6z"/>
	</g>
	<g>
		<path fill="#1D3649" d="M411.4,55.7h0.6v1h0c0.4-0.7,0.9-1.1,1.9-1.1c0.7,0,1.4,0.4,1.6,1.1c0.3-0.7,1.1-1.1,1.8-1.1
			c1.3,0,1.9,0.7,1.9,2v3.9h-0.7v-3.8c0-0.9-0.3-1.4-1.3-1.4c-1.2,0-1.5,1-1.5,2v3.2H415v-3.9c0-0.8-0.3-1.4-1.2-1.4
			c-1.2,0-1.7,0.9-1.7,2.1v3.2h-0.7V55.7z"/>
	</g>
	<g>
		<path fill="#1D3649" d="M420.6,55.7h0.6v1.1h0c0.3-0.8,1.1-1.2,2-1.2c1.7,0,2.6,1.4,2.6,3c0,1.6-0.8,3-2.6,3c-0.8,0-1.7-0.4-2-1.2
			h0v3.2h-0.7V55.7z M423.3,56.1c-1.5,0-2,1.1-2,2.4c0,1.2,0.5,2.4,2,2.4c1.3,0,1.9-1.2,1.9-2.4C425.2,57.4,424.7,56.1,423.3,56.1z"
			/>
	</g>
	<g>
		<path fill="#1D3649" d="M427,53.5h0.7v7.9H427V53.5z"/>
	</g>
	<g>
		<path fill="#1D3649" d="M429.5,58.8c0,1,0.5,2.2,1.9,2.2c1,0,1.6-0.6,1.8-1.5h0.7c-0.3,1.3-1,2-2.5,2c-1.8,0-2.6-1.4-2.6-3
			c0-1.5,0.8-3,2.6-3c1.8,0,2.6,1.6,2.5,3.2H429.5z M433.2,58.2c0-1-0.7-2-1.8-2c-1.1,0-1.8,1-1.9,2H433.2z"/>
	</g>
	<g>
		<path fill="#1D3649" d="M436,55.7h1.2v0.6H436v3.8c0,0.5,0.1,0.7,0.6,0.7c0.2,0,0.4,0,0.6,0v0.6c-0.2,0-0.4,0-0.6,0
			c-0.9,0-1.2-0.3-1.2-1.3v-3.9h-1v-0.6h1V54h0.7V55.7z"/>
	</g>
	<g>
		<path fill="#1D3649" d="M438.2,53.5h0.7v1.1h-0.7V53.5z M438.2,55.7h0.7v5.7h-0.7V55.7z"/>
	</g>
	<g>
		<path fill="#1D3649" d="M445.4,58.6c0,1.6-1,3-2.7,3c-1.7,0-2.7-1.4-2.7-3c0-1.6,1-3,2.7-3C444.5,55.6,445.4,56.9,445.4,58.6z
			 M440.7,58.6c0,1.2,0.7,2.4,2,2.4s2-1.2,2-2.4c0-1.2-0.7-2.4-2-2.4S440.7,57.4,440.7,58.6z"/>
	</g>
	<g>
		<path fill="#1D3649" d="M446.5,55.7h0.7v1h0c0.3-0.7,1-1.1,1.8-1.1c1.6,0,2.1,0.8,2.1,2.2v3.7h-0.7v-3.5c0-1-0.3-1.7-1.4-1.7
			c-1.1,0-1.7,0.8-1.8,1.9v3.3h-0.7V55.7z"/>
	</g>
	<g>
		<path fill="#1D3649" d="M456.2,55.7h1.2v0.6h-1.2v3.8c0,0.5,0.1,0.7,0.6,0.7c0.2,0,0.4,0,0.6,0v0.6c-0.2,0-0.4,0-0.6,0
			c-0.9,0-1.2-0.3-1.2-1.3v-3.9h-1v-0.6h1V54h0.7V55.7z"/>
	</g>
	<g>
		<path fill="#1D3649" d="M458.4,53.5h0.7v1.1h-0.7V53.5z M458.4,55.7h0.7v5.7h-0.7V55.7z"/>
	</g>
	<g>
		<path fill="#1D3649" d="M460.5,55.7h0.6v1h0c0.4-0.7,0.9-1.1,1.9-1.1c0.7,0,1.4,0.4,1.6,1.1c0.3-0.7,1.1-1.1,1.8-1.1
			c1.3,0,1.9,0.7,1.9,2v3.9h-0.7v-3.8c0-0.9-0.3-1.4-1.3-1.4c-1.2,0-1.5,1-1.5,2v3.2h-0.7v-3.9c0-0.8-0.3-1.4-1.2-1.4
			c-1.2,0-1.7,0.9-1.7,2.1v3.2h-0.7V55.7z"/>
	</g>
	<g>
		<path fill="#1D3649" d="M470.1,58.8c0,1,0.5,2.2,1.9,2.2c1,0,1.6-0.6,1.8-1.5h0.7c-0.3,1.3-1,2-2.5,2c-1.8,0-2.6-1.4-2.6-3
			c0-1.5,0.8-3,2.6-3c1.8,0,2.6,1.6,2.5,3.2H470.1z M473.8,58.2c0-1-0.7-2-1.8-2c-1.1,0-1.8,1-1.9,2H473.8z"/>
	</g>
	<g>
		<path fill="#1D3649" d="M479.7,63.5c-1-1.6-1.6-3.1-1.6-5c0-1.9,0.6-3.6,1.6-5.1h0.5c-1,1.6-1.4,3.4-1.4,5.3
			c0,1.6,0.6,3.4,1.4,4.8H479.7z"/>
	</g>
	<g>
		<path fill="#1D3649" d="M483.4,53.5h0.8l3.1,7.9h-0.8l-1-2.4H482l-0.9,2.4h-0.8L483.4,53.5z M482.2,58.3h3.1l-1.5-4L482.2,58.3z"
			/>
	</g>
	<g>
		<path fill="#1D3649" d="M486.7,55.7h0.8l1.8,5h0l1.8-5h0.7l-2.1,5.7h-0.7L486.7,55.7z"/>
	</g>
	<g>
		<path fill="#1D3649" d="M497,60.9c0,1.7-0.7,2.7-2.5,2.7c-1.1,0-2.3-0.5-2.4-1.7h0.7c0.1,0.8,0.9,1.1,1.7,1.1
			c1.3,0,1.8-0.7,1.8-2.1v-0.8h0c-0.3,0.7-1,1.2-1.8,1.2c-1.8,0-2.6-1.3-2.6-2.9c0-1.6,0.9-2.9,2.6-2.9c0.8,0,1.5,0.5,1.8,1.1h0v-1
			h0.7V60.9z M496.4,58.5c0-1.1-0.5-2.4-1.8-2.4s-1.9,1.2-1.9,2.4c0,1.1,0.6,2.3,1.9,2.3C495.7,60.8,496.4,59.6,496.4,58.5z"/>
	</g>
	<g>
		<path fill="#1D3649" d="M498.3,53.4c1,1.6,1.6,3.1,1.6,5c0,1.9-0.6,3.6-1.6,5.1h-0.6c1-1.6,1.4-3.4,1.4-5.3c0-1.6-0.6-3.4-1.4-4.8
			H498.3z"/>
	</g>
</g>
<g>
	<g>
		<path fill="#1D3649" d="M527.9,57.8c0,1.1,0.6,1.8,1.7,1.8c0.9,0,1.8-0.5,1.8-1.5c0-1-0.8-1.5-1.7-1.5h-0.5v-0.5h0.5
			c0.6,0,1.4-0.4,1.4-1.3c0-0.9-0.7-1.3-1.5-1.3c-1,0-1.6,0.7-1.6,1.8h-0.6c0-1.3,0.8-2.3,2.2-2.3c1.1,0,2.2,0.5,2.2,1.8
			c0,0.8-0.4,1.4-1.2,1.5v0c0.9,0.2,1.4,0.8,1.4,1.7c0,1.4-1.1,2.1-2.4,2.1c-1.4,0-2.5-0.9-2.4-2.4H527.9z"/>
	</g>
	<g>
		<path fill="#1D3649" d="M536.4,56.3L536.4,56.3c0.9,0.2,1.4,0.9,1.4,1.8c0,1.4-1.1,2.1-2.4,2.1s-2.4-0.7-2.4-2.1
			c0-0.9,0.5-1.6,1.4-1.8v0c-0.7-0.2-1.1-0.8-1.1-1.5c0-1.2,1.1-1.7,2.1-1.7c1,0,2.1,0.5,2.1,1.7C537.6,55.5,537.1,56.1,536.4,56.3z
			 M537.2,58.1c0-1-0.8-1.5-1.8-1.5c-1,0-1.8,0.5-1.8,1.5c0,1,0.8,1.6,1.8,1.6C536.4,59.7,537.2,59.2,537.2,58.1z M536.9,54.8
			c0-0.8-0.6-1.2-1.5-1.2c-0.8,0-1.5,0.4-1.5,1.2c0,0.9,0.8,1.3,1.5,1.3C536.2,56.1,536.9,55.7,536.9,54.8z"/>
	</g>
	<g>
		<path fill="#1D3649" d="M545.9,60.1h-0.6v-1h0c-0.3,0.7-1.1,1.1-1.8,1.1c-1.6,0-2.3-1.3-2.3-2.7c0-1.5,0.7-2.7,2.3-2.7
			c0.8,0,1.5,0.4,1.8,1.1h0v-3h0.6V60.1z M543.5,59.7c1.3,0,1.8-1.1,1.8-2.2c0-1.1-0.5-2.2-1.8-2.2c-1.2,0-1.7,1.1-1.7,2.2
			C541.8,58.6,542.3,59.7,543.5,59.7z"/>
	</g>
	<g>
		<path fill="#1D3649" d="M547.1,56.5c0.1-1.2,0.9-1.7,2.1-1.7c0.9,0,1.9,0.3,1.9,1.7v2.7c0,0.2,0.1,0.4,0.4,0.4c0.1,0,0.1,0,0.2,0
			V60c-0.1,0-0.2,0-0.4,0c-0.6,0-0.7-0.4-0.7-0.9h0c-0.5,0.7-0.9,1-1.9,1c-1,0-1.7-0.5-1.7-1.5c0-1.4,1.4-1.5,2.8-1.7
			c0.5,0,0.8-0.1,0.8-0.7c0-0.8-0.6-1.1-1.3-1.1c-0.8,0-1.3,0.4-1.4,1.2H547.1z M550.5,57.2L550.5,57.2c-0.1,0.1-0.4,0.2-0.5,0.2
			c-1.1,0.2-2.4,0.2-2.4,1.2c0,0.6,0.5,1,1.1,1c1,0,1.8-0.6,1.8-1.6V57.2z"/>
	</g>
	<g>
		<path fill="#1D3649" d="M551.6,54.9h0.7l1.7,4.4l1.6-4.4h0.6l-2.2,5.9c-0.4,0.9-0.6,1.1-1.4,1.1c-0.2,0-0.4,0-0.5,0v-0.5
			c0.2,0,0.3,0,0.4,0c0.6,0,0.7-0.3,0.9-0.8l0.2-0.6L551.6,54.9z"/>
	</g>
	<g>
		<path fill="#1D3649" d="M559.8,56.4c0-0.8-0.6-1.1-1.3-1.1c-0.6,0-1.2,0.2-1.2,0.9c0,0.5,0.6,0.8,1.1,0.9l0.8,0.2
			c0.7,0.1,1.5,0.5,1.5,1.4c0,1.1-1.1,1.5-2.1,1.5c-1.2,0-2-0.5-2.1-1.8h0.6c0,0.8,0.7,1.3,1.5,1.3c0.6,0,1.4-0.3,1.4-1
			c0-0.6-0.6-0.8-1.1-0.9l-0.8-0.2c-0.8-0.2-1.4-0.5-1.4-1.4c0-1,1-1.4,1.9-1.4c1,0,1.8,0.5,1.9,1.7H559.8z"/>
	</g>
</g>
<g>
	<g>
		<path fill="#1D3649" d="M542.7,85.4c1.1,0,1.8-0.1,2-1.3h0.5v7h-0.6v-5.2h-1.8V85.4z"/>
	</g>
	<g>
		<path fill="#1D3649" d="M550,87.3L550,87.3c0.9,0.2,1.4,0.9,1.4,1.8c0,1.4-1.1,2.1-2.4,2.1c-1.3,0-2.4-0.7-2.4-2.1
			c0-0.9,0.5-1.6,1.4-1.8v0c-0.7-0.2-1.1-0.8-1.1-1.5c0-1.2,1.1-1.7,2.1-1.7c1,0,2.1,0.5,2.1,1.7C551.2,86.5,550.8,87.1,550,87.3z
			 M550.8,89.1c0-1-0.8-1.5-1.8-1.5c-1,0-1.8,0.5-1.8,1.5c0,1,0.8,1.6,1.8,1.6C550.1,90.7,550.8,90.2,550.8,89.1z M550.6,85.8
			c0-0.8-0.6-1.2-1.5-1.2c-0.8,0-1.5,0.4-1.5,1.2c0,0.9,0.8,1.3,1.5,1.3C549.8,87.1,550.6,86.7,550.6,85.8z"/>
	</g>
	<g>
		<path fill="#1D3649" d="M555.9,85.9c0,1.1-0.5,1.9-1.6,1.9c-1.1,0-1.6-0.8-1.6-1.9s0.5-1.9,1.6-1.9
			C555.5,84,555.9,84.8,555.9,85.9z M553.3,85.9c0,0.6,0.2,1.4,1.1,1.4c0.8,0,1.1-0.8,1.1-1.4c0-0.6-0.2-1.4-1.1-1.4
			C553.5,84.5,553.3,85.3,553.3,85.9z M558.5,83.8h0.5l-4.5,7.6h-0.5L558.5,83.8z M560.3,89.3c0,1.1-0.5,1.9-1.6,1.9
			c-1.1,0-1.6-0.8-1.6-1.9s0.5-1.9,1.6-1.9C559.8,87.4,560.3,88.3,560.3,89.3z M557.7,89.3c0,0.6,0.2,1.4,1.1,1.4
			c0.8,0,1.1-0.8,1.1-1.4c0-0.6-0.2-1.4-1.1-1.4C557.9,87.9,557.7,88.7,557.7,89.3z"/>
	</g>
</g>
<g>
	<g>
		<path fill="#1D3649" d="M515.2,113.4h0.8l2.8,7.1H518l-0.9-2.2h-3.2l-0.9,2.2h-0.7L515.2,113.4z M514.1,117.7h2.8l-1.4-3.7
			L514.1,117.7z"/>
	</g>
	<g>
		<path fill="#1D3649" d="M523.5,120.5h-0.6v-0.9h0c-0.3,0.7-1,1.1-1.8,1.1c-1.3,0-1.8-0.8-1.8-2v-3.3h0.6v3.4
			c0,0.9,0.4,1.4,1.4,1.4c1.1,0,1.5-1,1.5-2.1v-2.7h0.6V120.5z"/>
	</g>
	<g>
		<path fill="#1D3649" d="M525.7,115.4h1v0.5h-1v3.5c0,0.4,0.1,0.6,0.5,0.7c0.2,0,0.4,0,0.5,0v0.5c-0.2,0-0.4,0-0.6,0
			c-0.8,0-1.1-0.3-1.1-1.2v-3.5h-0.9v-0.5h0.9v-1.5h0.6V115.4z"/>
	</g>
	<g>
		<path fill="#1D3649" d="M532,117.9c0,1.5-0.9,2.7-2.4,2.7s-2.4-1.2-2.4-2.7c0-1.5,0.9-2.7,2.4-2.7S532,116.5,532,117.9z
			 M527.8,117.9c0,1.1,0.6,2.2,1.8,2.2s1.8-1.1,1.8-2.2c0-1.1-0.6-2.2-1.8-2.2S527.8,116.9,527.8,117.9z"/>
	</g>
	<g>
		<path fill="#1D3649" d="M533,115.4h0.6v0.9h0c0.3-0.6,0.9-1,1.7-1c0.7,0,1.3,0.3,1.5,1c0.3-0.7,1-1,1.6-1c1.1,0,1.7,0.6,1.7,1.8
			v3.5h-0.6v-3.5c0-0.8-0.3-1.3-1.2-1.3c-1.1,0-1.4,0.9-1.4,1.9v2.9h-0.6V117c0-0.7-0.3-1.3-1.1-1.3c-1.1,0-1.5,0.8-1.5,1.9v2.9H533
			V115.4z"/>
	</g>
	<g>
		<path fill="#1D3649" d="M546,117.9c0,1.5-0.9,2.7-2.4,2.7s-2.4-1.2-2.4-2.7c0-1.5,0.9-2.7,2.4-2.7S546,116.5,546,117.9z
			 M541.8,117.9c0,1.1,0.6,2.2,1.8,2.2s1.8-1.1,1.8-2.2c0-1.1-0.6-2.2-1.8-2.2S541.8,116.9,541.8,117.9z"/>
	</g>
	<g>
		<path fill="#1D3649" d="M547.9,115.4h1v0.5h-1v3.5c0,0.4,0.1,0.6,0.5,0.7c0.2,0,0.4,0,0.5,0v0.5c-0.2,0-0.4,0-0.6,0
			c-0.8,0-1.1-0.3-1.1-1.2v-3.5h-0.9v-0.5h0.9v-1.5h0.6V115.4z"/>
	</g>
	<g>
		<path fill="#1D3649" d="M549.9,113.4h0.6v1h-0.6V113.4z M549.9,115.4h0.6v5.2h-0.6V115.4z"/>
	</g>
	<g>
		<path fill="#1D3649" d="M551.3,115.4h0.7l1.6,4.5h0l1.6-4.5h0.6l-1.9,5.2h-0.7L551.3,115.4z"/>
	</g>
	<g>
		<path fill="#1D3649" d="M556.6,118.1c0,0.9,0.5,2,1.7,2c0.9,0,1.4-0.5,1.6-1.3h0.6c-0.3,1.2-0.9,1.8-2.2,1.8
			c-1.6,0-2.3-1.3-2.3-2.7c0-1.4,0.7-2.7,2.3-2.7c1.6,0,2.3,1.4,2.3,2.9H556.6z M560,117.6c0-0.9-0.6-1.8-1.6-1.8
			c-1,0-1.6,0.9-1.7,1.8H560z"/>
	</g>
</g>
<g>
	<g>
		<path fill="#1D3649" d="M543.6,142.8h1l2.5,6.3l2.5-6.3h1v7.1h-0.7v-6.2h0l-2.4,6.2h-0.6l-2.4-6.2h0v6.2h-0.7V142.8z"/>
	</g>
	<g>
		<path fill="#1D3649" d="M551.8,146.4c0.1-1.2,0.9-1.7,2.1-1.7c0.9,0,1.9,0.3,1.9,1.7v2.7c0,0.2,0.1,0.4,0.4,0.4c0.1,0,0.1,0,0.2,0
			v0.5c-0.1,0-0.2,0-0.4,0c-0.6,0-0.7-0.4-0.7-0.9h0c-0.5,0.7-0.9,1-1.9,1c-1,0-1.7-0.5-1.7-1.5c0-1.4,1.4-1.5,2.8-1.7
			c0.5,0,0.8-0.1,0.8-0.7c0-0.8-0.6-1.1-1.3-1.1c-0.8,0-1.3,0.4-1.4,1.2H551.8z M555.2,147.2L555.2,147.2c-0.1,0.1-0.4,0.2-0.5,0.2
			c-1.1,0.2-2.4,0.2-2.4,1.2c0,0.6,0.5,1,1.1,1c1,0,1.8-0.6,1.8-1.6V147.2z"/>
	</g>
	<g>
		<path fill="#1D3649" d="M556.4,144.8h0.7l1.7,4.4l1.6-4.4h0.6l-2.2,5.9c-0.4,0.9-0.6,1.1-1.4,1.1c-0.2,0-0.4,0-0.5,0v-0.5
			c0.2,0,0.3,0,0.4,0c0.6,0,0.7-0.3,0.9-0.8l0.2-0.6L556.4,144.8z"/>
	</g>
</g>
<g opacity="0.25">
	<rect x="396.6" y="71" fill="#1D3649" width="164.4" height="1"/>
</g>
<g>
	<g>
		<path fill="#1D3649" d="M397.5,83h5.4v0.6h-4.7v2.8h4.4v0.6h-4.4v3.1h4.7v0.6h-5.5V83z"/>
	</g>
	<g>
		<path fill="#1D3649" d="M404.2,85.2h0.6v1.3h0c0.4-0.9,1.1-1.5,2.1-1.4v0.7c-1.3-0.1-2.1,0.8-2.1,2v3h-0.7V85.2z"/>
	</g>
	<g>
		<path fill="#1D3649" d="M408,85.2h0.6v1.3h0c0.4-0.9,1.1-1.5,2.1-1.4v0.7c-1.3-0.1-2.1,0.8-2.1,2v3H408V85.2z"/>
	</g>
	<g>
		<path fill="#1D3649" d="M416.4,88c0,1.6-1,3-2.7,3c-1.7,0-2.7-1.4-2.7-3c0-1.6,1-3,2.7-3C415.4,85,416.4,86.4,416.4,88z M411.7,88
			c0,1.2,0.7,2.4,2,2.4s2-1.2,2-2.4c0-1.2-0.7-2.4-2-2.4S411.7,86.8,411.7,88z"/>
	</g>
	<g>
		<path fill="#1D3649" d="M417.5,85.2h0.6v1.3h0c0.4-0.9,1.1-1.5,2.1-1.4v0.7c-1.3-0.1-2.1,0.8-2.1,2v3h-0.7V85.2z"/>
	</g>
	<g>
		<path fill="#1D3649" d="M423.6,85.2h0.6v1.3h0c0.4-0.9,1.1-1.5,2.1-1.4v0.7c-1.3-0.1-2.1,0.8-2.1,2v3h-0.7V85.2z"/>
	</g>
	<g>
		<path fill="#1D3649" d="M427,86.9c0.1-1.3,1-1.9,2.3-1.9c1,0,2.1,0.3,2.1,1.8v3c0,0.3,0.1,0.4,0.4,0.4c0.1,0,0.1,0,0.2,0v0.6
			c-0.2,0-0.3,0-0.5,0c-0.7,0-0.8-0.4-0.8-1h0c-0.5,0.7-1,1.2-2.1,1.2c-1.1,0-1.9-0.5-1.9-1.7c0-1.6,1.6-1.7,3-1.8
			c0.6-0.1,0.9-0.2,0.9-0.8c0-0.9-0.7-1.2-1.5-1.2c-0.9,0-1.5,0.4-1.5,1.3H427z M430.7,87.8L430.7,87.8c-0.1,0.2-0.4,0.2-0.6,0.3
			c-1.2,0.2-2.6,0.2-2.6,1.3c0,0.7,0.6,1.1,1.3,1.1c1.1,0,2-0.7,2-1.8V87.8z"/>
	</g>
	<g>
		<path fill="#1D3649" d="M433.8,85.2h1.2v0.6h-1.2v3.8c0,0.5,0.1,0.7,0.6,0.7c0.2,0,0.4,0,0.6,0v0.6c-0.2,0-0.4,0-0.6,0
			c-0.9,0-1.2-0.3-1.2-1.3v-3.9h-1v-0.6h1v-1.7h0.7V85.2z"/>
	</g>
	<g>
		<path fill="#1D3649" d="M436.1,88.2c0,1,0.5,2.2,1.9,2.2c1,0,1.6-0.6,1.8-1.5h0.7c-0.3,1.3-1,2-2.5,2c-1.8,0-2.6-1.4-2.6-3
			c0-1.5,0.8-3,2.6-3c1.8,0,2.6,1.6,2.5,3.2H436.1z M439.8,87.6c0-1-0.7-2-1.8-2c-1.1,0-1.8,1-1.9,2H439.8z"/>
	</g>
	<g>
		<path fill="#1D3649" d="M445.7,93c-1-1.6-1.6-3.1-1.6-5c0-1.9,0.6-3.6,1.6-5.1h0.5c-1,1.6-1.4,3.4-1.4,5.3c0,1.6,0.6,3.4,1.4,4.8
			H445.7z"/>
	</g>
	<g>
		<path fill="#1D3649" d="M449.3,83h0.8l3.1,7.9h-0.8l-1-2.4h-3.6l-0.9,2.4h-0.8L449.3,83z M448.2,87.8h3.1l-1.5-4L448.2,87.8z"/>
	</g>
	<g>
		<path fill="#1D3649" d="M452.7,85.2h0.8l1.8,5h0l1.8-5h0.7l-2.1,5.7h-0.7L452.7,85.2z"/>
	</g>
	<g>
		<path fill="#1D3649" d="M463,90.4c0,1.7-0.7,2.7-2.5,2.7c-1.1,0-2.3-0.5-2.4-1.7h0.7c0.1,0.8,0.9,1.1,1.7,1.1
			c1.3,0,1.8-0.7,1.8-2.1v-0.8h0c-0.3,0.7-1,1.2-1.8,1.2c-1.8,0-2.6-1.3-2.6-2.9c0-1.6,0.9-2.9,2.6-2.9c0.8,0,1.5,0.5,1.8,1.1h0v-1
			h0.7V90.4z M462.3,88c0-1.1-0.5-2.4-1.8-2.4s-1.9,1.2-1.9,2.4c0,1.1,0.6,2.3,1.9,2.3C461.7,90.2,462.3,89.1,462.3,88z"/>
	</g>
	<g>
		<path fill="#1D3649" d="M464.3,82.8c1,1.6,1.6,3.1,1.6,5c0,1.9-0.6,3.6-1.6,5.1h-0.6c1-1.6,1.4-3.4,1.4-5.3c0-1.6-0.6-3.4-1.4-4.8
			H464.3z"/>
	</g>
</g>
<g opacity="0.25">
	<rect x="396.6" y="101.1" fill="#1D3649" width="164.4" height="1"/>
</g>
<g>
	<g>
		<path fill="#1D3649" d="M397,112.5h6.2v0.6h-2.7v7.2h-0.7v-7.2H397V112.5z"/>
	</g>
	<g>
		<path fill="#1D3649" d="M402.9,114.6h0.7l1.9,4.8l1.8-4.8h0.7l-2.5,6.5c-0.4,1-0.6,1.2-1.5,1.2c-0.3,0-0.4,0-0.5-0.1v-0.6
			c0.2,0,0.3,0.1,0.5,0.1c0.6,0,0.8-0.4,1-0.9l0.2-0.6L402.9,114.6z"/>
	</g>
	<g>
		<path fill="#1D3649" d="M408.7,114.6h0.6v1.1h0c0.3-0.8,1.1-1.2,2-1.2c1.7,0,2.6,1.4,2.6,3c0,1.6-0.8,3-2.6,3
			c-0.8,0-1.7-0.4-2-1.2h0v3.2h-0.7V114.6z M411.4,115.1c-1.5,0-2,1.1-2,2.4c0,1.2,0.5,2.4,2,2.4c1.3,0,1.9-1.2,1.9-2.4
			C413.2,116.3,412.7,115.1,411.4,115.1z"/>
	</g>
	<g>
		<path fill="#1D3649" d="M415.5,117.7c0,1,0.5,2.2,1.9,2.2c1,0,1.6-0.6,1.8-1.5h0.7c-0.3,1.3-1,2-2.5,2c-1.8,0-2.6-1.4-2.6-3
			c0-1.5,0.8-3,2.6-3c1.8,0,2.6,1.6,2.5,3.2H415.5z M419.2,117.1c0-1-0.7-2-1.8-2c-1.1,0-1.8,1-1.9,2H419.2z"/>
	</g>
	<g>
		<path fill="#1D3649" d="M428.7,117.5c0,1.6-1,3-2.7,3c-1.7,0-2.7-1.4-2.7-3c0-1.6,1-3,2.7-3C427.7,114.5,428.7,115.8,428.7,117.5z
			 M424,117.5c0,1.2,0.7,2.4,2,2.4s2-1.2,2-2.4c0-1.2-0.7-2.4-2-2.4S424,116.3,424,117.5z"/>
	</g>
	<g>
		<path fill="#1D3649" d="M431.8,115.2h-1.1v5.1H430v-5.1h-1v-0.6h1v-0.5c0-1,0.3-1.7,1.4-1.7c0.2,0,0.4,0,0.6,0v0.6
			c-0.2,0-0.3-0.1-0.5-0.1c-0.8,0-0.8,0.5-0.8,1.1v0.5h1.1V115.2z"/>
	</g>
	<g>
		<path fill="#1D3649" d="M435.1,112.5h0.7v1.1h-0.7V112.5z M435.1,114.6h0.7v5.7h-0.7V114.6z"/>
	</g>
	<g>
		<path fill="#1D3649" d="M437.2,114.6h0.7v1h0c0.3-0.7,1-1.1,1.8-1.1c1.6,0,2.1,0.8,2.1,2.2v3.7h-0.7v-3.5c0-1-0.3-1.7-1.4-1.7
			c-1.1,0-1.7,0.8-1.8,1.9v3.3h-0.7V114.6z"/>
	</g>
	<g>
		<path fill="#1D3649" d="M448.1,120.3h-0.6v-1.1h0c-0.3,0.7-1.2,1.2-2,1.2c-1.7,0-2.6-1.4-2.6-3c0-1.6,0.8-3,2.6-3
			c0.8,0,1.7,0.4,2,1.2h0v-3.3h0.7V120.3z M445.5,119.9c1.5,0,2-1.2,2-2.4c0-1.2-0.5-2.4-2-2.4c-1.3,0-1.9,1.2-1.9,2.4
			C443.6,118.7,444.1,119.9,445.5,119.9z"/>
	</g>
	<g>
		<path fill="#1D3649" d="M454.1,120.3h-0.6v-1h0c-0.4,0.8-1.1,1.2-2,1.2c-1.4,0-2-0.8-2-2.2v-3.7h0.7v3.7c0,1,0.4,1.6,1.5,1.6
			c1.2,0,1.7-1.1,1.7-2.3v-3h0.7V120.3z"/>
	</g>
	<g>
		<path fill="#1D3649" d="M458.9,116.3c0-0.9-0.7-1.2-1.5-1.2c-0.6,0-1.3,0.2-1.3,1c0,0.6,0.7,0.8,1.2,1l0.9,0.2
			c0.8,0.1,1.6,0.6,1.6,1.6c0,1.2-1.2,1.7-2.3,1.7c-1.3,0-2.2-0.6-2.3-2h0.7c0.1,0.9,0.7,1.4,1.7,1.4c0.7,0,1.6-0.3,1.6-1.1
			c0-0.7-0.6-0.9-1.2-1l-0.9-0.2c-0.9-0.2-1.6-0.6-1.6-1.5c0-1.2,1.1-1.6,2.1-1.6c1.1,0,2,0.6,2.1,1.8H458.9z"/>
	</g>
	<g>
		<path fill="#1D3649" d="M461.9,114.6h1.2v0.6h-1.2v3.8c0,0.5,0.1,0.7,0.6,0.7c0.2,0,0.4,0,0.6,0v0.6c-0.2,0-0.4,0-0.6,0
			c-0.9,0-1.2-0.3-1.2-1.3v-3.9h-1v-0.6h1v-1.7h0.7V114.6z"/>
	</g>
	<g>
		<path fill="#1D3649" d="M464.1,114.6h0.6v1.3h0c0.4-0.9,1.1-1.5,2.1-1.4v0.7c-1.3-0.1-2.1,0.8-2.1,2v3h-0.7V114.6z"/>
	</g>
	<g>
		<path fill="#1D3649" d="M467.6,114.6h0.7l1.9,4.8l1.8-4.8h0.7l-2.5,6.5c-0.4,1-0.6,1.2-1.5,1.2c-0.3,0-0.4,0-0.5-0.1v-0.6
			c0.2,0,0.3,0.1,0.5,0.1c0.6,0,0.8-0.4,1-0.9l0.2-0.6L467.6,114.6z"/>
	</g>
	<g>
		<path fill="#1D3649" d="M477.5,122.4c-1-1.6-1.6-3.1-1.6-5c0-1.9,0.6-3.6,1.6-5.1h0.5c-1,1.6-1.4,3.4-1.4,5.3
			c0,1.6,0.6,3.4,1.4,4.8H477.5z"/>
	</g>
	<g>
		<path fill="#1D3649" d="M481.2,112.5h0.8l3.1,7.9h-0.8l-1-2.4h-3.6l-0.9,2.4H478L481.2,112.5z M480,117.2h3.1l-1.5-4L480,117.2z"
			/>
	</g>
	<g>
		<path fill="#1D3649" d="M484.6,114.6h0.8l1.8,5h0l1.8-5h0.7l-2.1,5.7h-0.7L484.6,114.6z"/>
	</g>
	<g>
		<path fill="#1D3649" d="M494.9,119.9c0,1.7-0.7,2.7-2.5,2.7c-1.1,0-2.3-0.5-2.4-1.7h0.7c0.1,0.8,0.9,1.1,1.7,1.1
			c1.3,0,1.8-0.7,1.8-2.1v-0.8h0c-0.3,0.7-1,1.2-1.8,1.2c-1.8,0-2.6-1.3-2.6-2.9c0-1.6,0.9-2.9,2.6-2.9c0.8,0,1.5,0.5,1.8,1.1h0v-1
			h0.7V119.9z M494.2,117.4c0-1.1-0.5-2.4-1.8-2.4s-1.9,1.2-1.9,2.4c0,1.1,0.6,2.3,1.9,2.3C493.6,119.7,494.2,118.6,494.2,117.4z"/>
	</g>
	<g>
		<path fill="#1D3649" d="M496.2,112.3c1,1.6,1.6,3.1,1.6,5c0,1.9-0.6,3.6-1.6,5.1h-0.6c1-1.6,1.4-3.4,1.4-5.3
			c0-1.6-0.6-3.4-1.4-4.8H496.2z"/>
	</g>
</g>
<g opacity="0.25">
	<line fill="#1D3649" x1="396.6" y1="113.2" x2="561" y2="113.2"/>
</g>
<g>
	<g>
		<path fill="#1D3649" d="M397.5,141.9h3.3c1.3,0,2.5,0.5,2.5,1.9c0,0.8-0.5,1.6-1.4,1.8v0c1,0.1,1.7,0.9,1.7,1.9
			c0,0.7-0.3,2.2-2.8,2.2h-3.3V141.9z M398.2,145.4h2.6c1.2,0,1.8-0.6,1.8-1.3c0-1-0.6-1.5-1.8-1.5h-2.6V145.4z M398.2,149.1h2.6
			c1.1,0,2.1-0.3,2.1-1.6c0-1-0.7-1.5-2.1-1.5h-2.6V149.1z"/>
	</g>
	<g>
		<path fill="#1D3649" d="M409.3,149.8h-0.6v-1h0c-0.4,0.8-1.1,1.2-2,1.2c-1.4,0-2-0.8-2-2.2v-3.7h0.7v3.7c0,1,0.4,1.6,1.5,1.6
			c1.2,0,1.7-1.1,1.7-2.3v-3h0.7V149.8z"/>
	</g>
	<g>
		<path fill="#1D3649" d="M414.1,145.8c0-0.9-0.7-1.2-1.5-1.2c-0.6,0-1.3,0.2-1.3,1c0,0.6,0.7,0.8,1.2,1l0.9,0.2
			c0.8,0.1,1.6,0.6,1.6,1.6c0,1.2-1.2,1.7-2.3,1.7c-1.3,0-2.2-0.6-2.3-2h0.7c0.1,0.9,0.7,1.4,1.7,1.4c0.7,0,1.6-0.3,1.6-1.1
			c0-0.7-0.6-0.9-1.2-1l-0.9-0.2c-0.9-0.2-1.6-0.6-1.6-1.5c0-1.2,1.1-1.6,2.1-1.6c1.1,0,2,0.6,2.1,1.8H414.1z"/>
	</g>
	<g>
		<path fill="#1D3649" d="M416.1,141.9h0.7v1.1h-0.7V141.9z M416.1,144.1h0.7v5.7h-0.7V144.1z"/>
	</g>
	<g>
		<path fill="#1D3649" d="M418.6,147.1c0,1,0.5,2.2,1.9,2.2c1,0,1.6-0.6,1.8-1.5h0.7c-0.3,1.3-1,2-2.5,2c-1.8,0-2.6-1.4-2.6-3
			c0-1.5,0.8-3,2.6-3c1.8,0,2.6,1.6,2.5,3.2H418.6z M422.2,146.5c0-1-0.7-2-1.8-2c-1.1,0-1.8,1-1.9,2H422.2z"/>
	</g>
	<g>
		<path fill="#1D3649" d="M427.4,145.8c0-0.9-0.7-1.2-1.5-1.2c-0.6,0-1.3,0.2-1.3,1c0,0.6,0.7,0.8,1.2,1l0.9,0.2
			c0.8,0.1,1.6,0.6,1.6,1.6c0,1.2-1.2,1.7-2.3,1.7c-1.3,0-2.2-0.6-2.3-2h0.7c0.1,0.9,0.7,1.4,1.7,1.4c0.7,0,1.6-0.3,1.6-1.1
			c0-0.7-0.6-0.9-1.2-1l-0.9-0.2c-0.9-0.2-1.6-0.6-1.6-1.5c0-1.2,1.1-1.6,2.1-1.6c1.1,0,2,0.6,2.1,1.8H427.4z"/>
	</g>
	<g>
		<path fill="#1D3649" d="M430.4,144.1h1.2v0.6h-1.2v3.8c0,0.5,0.1,0.7,0.6,0.7c0.2,0,0.4,0,0.6,0v0.6c-0.2,0-0.4,0-0.6,0
			c-0.9,0-1.2-0.3-1.2-1.3v-3.9h-1v-0.6h1v-1.7h0.7V144.1z"/>
	</g>
	<g>
		<path fill="#1D3649" d="M435.3,144.1h0.6v1h0c0.4-0.7,0.9-1.1,1.9-1.1c0.7,0,1.4,0.4,1.6,1.1c0.3-0.7,1.1-1.1,1.8-1.1
			c1.3,0,1.9,0.7,1.9,2v3.9h-0.7V146c0-0.9-0.3-1.4-1.3-1.4c-1.2,0-1.5,1-1.5,2v3.2h-0.7v-3.9c0-0.8-0.3-1.4-1.2-1.4
			c-1.2,0-1.7,0.9-1.7,2.1v3.2h-0.7V144.1z"/>
	</g>
	<g>
		<path fill="#1D3649" d="M449.5,146.9c0,1.6-1,3-2.7,3c-1.7,0-2.7-1.4-2.7-3c0-1.6,1-3,2.7-3C448.6,143.9,449.5,145.3,449.5,146.9z
			 M444.9,146.9c0,1.2,0.7,2.4,2,2.4s2-1.2,2-2.4c0-1.2-0.7-2.4-2-2.4S444.9,145.7,444.9,146.9z"/>
	</g>
	<g>
		<path fill="#1D3649" d="M450.6,144.1h0.7v1h0c0.3-0.7,1-1.1,1.8-1.1c1.6,0,2.1,0.8,2.1,2.2v3.7h-0.7v-3.5c0-1-0.3-1.7-1.4-1.7
			c-1.1,0-1.7,0.8-1.8,1.9v3.3h-0.7V144.1z"/>
	</g>
	<g>
		<path fill="#1D3649" d="M457.5,144.1h1.2v0.6h-1.2v3.8c0,0.5,0.1,0.7,0.6,0.7c0.2,0,0.4,0,0.6,0v0.6c-0.2,0-0.4,0-0.6,0
			c-0.9,0-1.2-0.3-1.2-1.3v-3.9h-1v-0.6h1v-1.7h0.7V144.1z"/>
	</g>
	<g>
		<path fill="#1D3649" d="M459.8,141.9h0.7v3.2h0c0.3-0.7,1-1.1,1.8-1.1c1.6,0,2.1,0.8,2.1,2.2v3.7h-0.7v-3.5c0-1-0.3-1.7-1.4-1.7
			c-1.1,0-1.7,0.8-1.8,1.9v3.3h-0.7V141.9z"/>
	</g>
	<g>
		<path fill="#1D3649" d="M469.8,151.9c-1-1.6-1.6-3.1-1.6-5c0-1.9,0.6-3.6,1.6-5.1h0.5c-1,1.6-1.4,3.4-1.4,5.3
			c0,1.6,0.6,3.4,1.4,4.8H469.8z"/>
	</g>
	<g>
		<path fill="#1D3649" d="M473.5,141.9h0.8l3.1,7.9h-0.8l-1-2.4h-3.6l-0.9,2.4h-0.8L473.5,141.9z M472.3,146.7h3.1l-1.5-4
			L472.3,146.7z"/>
	</g>
	<g>
		<path fill="#1D3649" d="M476.9,144.1h0.8l1.8,5h0l1.8-5h0.7l-2.1,5.7h-0.7L476.9,144.1z"/>
	</g>
	<g>
		<path fill="#1D3649" d="M487.2,149.3c0,1.7-0.7,2.7-2.5,2.7c-1.1,0-2.3-0.5-2.4-1.7h0.7c0.1,0.8,0.9,1.1,1.7,1.1
			c1.3,0,1.8-0.7,1.8-2.1v-0.8h0c-0.3,0.7-1,1.2-1.8,1.2c-1.8,0-2.6-1.3-2.6-2.9c0-1.6,0.9-2.9,2.6-2.9c0.8,0,1.5,0.5,1.8,1.1h0v-1
			h0.7V149.3z M486.5,146.9c0-1.1-0.5-2.4-1.8-2.4s-1.9,1.2-1.9,2.4c0,1.1,0.6,2.3,1.9,2.3C485.9,149.1,486.5,148,486.5,146.9z"/>
	</g>
	<g>
		<path fill="#1D3649" d="M488.5,141.7c1,1.6,1.6,3.1,1.6,5c0,1.9-0.6,3.6-1.6,5.1h-0.6c1-1.6,1.4-3.4,1.4-5.3
			c0-1.6-0.6-3.4-1.4-4.8H488.5z"/>
	</g>
</g>
<g opacity="0.25">
	<rect x="396.6" y="131.3" fill="#1D3649" width="164.4" height="1"/>
</g>
<g>
	<g>
		<path fill="#1D3649" d="M228.8,81.1h3.3c1.2,0,2.2,0.6,2.2,1.9c0,0.9-0.5,1.6-1.4,1.8v0c0.9,0.1,1.2,0.8,1.2,1.6
			c0,0.5,0,1.5,0.3,1.8h-0.8c-0.2-0.3-0.2-0.8-0.2-1.1c-0.1-1-0.2-2.1-1.4-2.1h-2.6v3.2h-0.7V81.1z M229.4,84.5h2.5
			c0.8,0,1.5-0.5,1.5-1.4c0-0.9-0.5-1.4-1.5-1.4h-2.5V84.5z"/>
	</g>
	<g>
		<path fill="#1D3649" d="M235.5,85.8c0,0.9,0.5,2,1.7,2c0.9,0,1.4-0.5,1.6-1.3h0.6c-0.3,1.2-0.9,1.8-2.2,1.8
			c-1.6,0-2.3-1.3-2.3-2.7c0-1.4,0.7-2.7,2.3-2.7c1.6,0,2.3,1.4,2.3,2.9H235.5z M238.8,85.3c0-0.9-0.6-1.8-1.6-1.8
			c-1,0-1.6,0.9-1.7,1.8H238.8z"/>
	</g>
	<g>
		<path fill="#1D3649" d="M240.5,83h0.6v5.6c0,0.8-0.2,1.4-1.1,1.4c-0.2,0-0.3,0-0.4,0v-0.5c0.1,0,0.2,0,0.3,0
			c0.5,0,0.6-0.3,0.6-0.7V83z M240.5,81.1h0.6v1h-0.6V81.1z"/>
	</g>
	<g>
		<path fill="#1D3649" d="M242.8,85.8c0,0.9,0.5,2,1.7,2c0.9,0,1.4-0.5,1.6-1.3h0.6c-0.3,1.2-0.9,1.8-2.2,1.8
			c-1.6,0-2.3-1.3-2.3-2.7c0-1.4,0.7-2.7,2.3-2.7c1.6,0,2.3,1.4,2.3,2.9H242.8z M246.1,85.3c0-0.9-0.6-1.8-1.6-1.8
			c-1,0-1.6,0.9-1.7,1.8H246.1z"/>
	</g>
	<g>
		<path fill="#1D3649" d="M251.4,84.7c-0.2-0.8-0.6-1.2-1.5-1.2c-1.2,0-1.8,1.1-1.8,2.2c0,1.1,0.6,2.2,1.8,2.2
			c0.8,0,1.4-0.6,1.5-1.5h0.6c-0.2,1.2-1,2-2.1,2c-1.6,0-2.4-1.2-2.4-2.7c0-1.5,0.9-2.7,2.4-2.7c1.1,0,1.9,0.6,2.1,1.8H251.4z"/>
	</g>
	<g>
		<path fill="#1D3649" d="M254.1,83h1v0.5h-1V87c0,0.4,0.1,0.6,0.5,0.7c0.2,0,0.4,0,0.5,0v0.5c-0.2,0-0.4,0-0.6,0
			c-0.8,0-1.1-0.3-1.1-1.2v-3.5h-0.9V83h0.9v-1.5h0.6V83z"/>
	</g>
	<g>
		<path fill="#1D3649" d="M256.1,85.8c0,0.9,0.5,2,1.7,2c0.9,0,1.4-0.5,1.6-1.3h0.6c-0.3,1.2-0.9,1.8-2.2,1.8
			c-1.6,0-2.3-1.3-2.3-2.7c0-1.4,0.7-2.7,2.3-2.7c1.6,0,2.3,1.4,2.3,2.9H256.1z M259.5,85.3c0-0.9-0.6-1.8-1.6-1.8
			c-1,0-1.6,0.9-1.7,1.8H259.5z"/>
	</g>
	<g>
		<path fill="#1D3649" d="M265.6,88.2h-0.6v-1h0c-0.3,0.7-1.1,1.1-1.8,1.1c-1.6,0-2.3-1.3-2.3-2.7c0-1.5,0.7-2.7,2.3-2.7
			c0.8,0,1.5,0.4,1.8,1.1h0v-3h0.6V88.2z M263.2,87.8c1.3,0,1.8-1.1,1.8-2.2c0-1.1-0.5-2.2-1.8-2.2c-1.2,0-1.7,1.1-1.7,2.2
			C261.5,86.7,262,87.8,263.2,87.8z"/>
	</g>
</g>
<g>
	<rect x="211.4" y="82.9" fill="#D92780" width="10.6" height="3.5"/>
</g>
<g>
	<g>
		<path fill="#1D3649" d="M304.4,82.3c1.1,0,1.8-0.1,2-1.3h0.5v7h-0.6v-5.2h-1.8V82.3z"/>
	</g>
	<g>
		<path fill="#1D3649" d="M311.8,84.2L311.8,84.2c0.9,0.2,1.4,0.9,1.4,1.8c0,1.4-1.1,2.1-2.4,2.1s-2.4-0.7-2.4-2.1
			c0-0.9,0.5-1.6,1.4-1.8v0c-0.7-0.2-1.1-0.8-1.1-1.5c0-1.2,1.1-1.7,2.1-1.7c1,0,2.1,0.5,2.1,1.7C312.9,83.4,312.5,84,311.8,84.2z
			 M312.6,86c0-1-0.8-1.5-1.8-1.5c-1,0-1.8,0.5-1.8,1.5c0,1,0.8,1.6,1.8,1.6C311.8,87.6,312.6,87.1,312.6,86z M312.3,82.7
			c0-0.8-0.6-1.2-1.5-1.2c-0.8,0-1.5,0.4-1.5,1.2c0,0.9,0.8,1.3,1.5,1.3C311.5,84,312.3,83.6,312.3,82.7z"/>
	</g>
</g>
<g>
	<g>
		<path fill="#1D3649" d="M234,102c-0.2-1.1-1.1-1.7-2.2-1.7c-1.9,0-2.7,1.6-2.7,3.1c0,1.6,0.8,3.1,2.7,3.1c1.3,0,2.2-1,2.3-2.3h0.7
			c-0.2,1.8-1.3,2.9-3,2.9c-2.2,0-3.4-1.8-3.4-3.7s1.1-3.7,3.4-3.7c1.4,0,2.7,0.8,2.9,2.3H234z"/>
	</g>
	<g>
		<path fill="#1D3649" d="M240.4,104.4c0,1.5-0.9,2.7-2.4,2.7s-2.4-1.2-2.4-2.7c0-1.5,0.9-2.7,2.4-2.7S240.4,102.9,240.4,104.4z
			 M236.2,104.4c0,1.1,0.6,2.2,1.8,2.2s1.8-1.1,1.8-2.2c0-1.1-0.6-2.2-1.8-2.2S236.2,103.3,236.2,104.4z"/>
	</g>
	<g>
		<path fill="#1D3649" d="M241.4,101.8h0.6v0.9h0c0.3-0.6,0.9-1,1.7-1c0.7,0,1.3,0.3,1.5,1c0.3-0.7,1-1,1.6-1c1.1,0,1.7,0.6,1.7,1.8
			v3.5h-0.6v-3.5c0-0.8-0.3-1.3-1.2-1.3c-1.1,0-1.4,0.9-1.4,1.9v2.9h-0.6v-3.5c0-0.7-0.3-1.3-1.1-1.3c-1.1,0-1.5,0.8-1.5,1.9v2.9
			h-0.6V101.8z"/>
	</g>
	<g>
		<path fill="#1D3649" d="M249.8,101.8h0.6v1h0c0.3-0.7,1-1.1,1.8-1.1c1.6,0,2.3,1.3,2.3,2.7c0,1.5-0.7,2.7-2.3,2.7
			c-0.8,0-1.5-0.4-1.8-1.1h0v2.9h-0.6V101.8z M252.2,102.2c-1.4,0-1.8,1-1.8,2.2c0,1.1,0.5,2.2,1.8,2.2c1.2,0,1.7-1.1,1.7-2.2
			C253.9,103.3,253.4,102.2,252.2,102.2z"/>
	</g>
	<g>
		<path fill="#1D3649" d="M255.6,99.9h0.6v7.1h-0.6V99.9z"/>
	</g>
	<g>
		<path fill="#1D3649" d="M257.9,104.6c0,0.9,0.5,2,1.7,2c0.9,0,1.4-0.5,1.6-1.3h0.6c-0.3,1.2-0.9,1.8-2.2,1.8
			c-1.6,0-2.3-1.3-2.3-2.7c0-1.4,0.7-2.7,2.3-2.7c1.6,0,2.3,1.4,2.3,2.9H257.9z M261.2,104.1c0-0.9-0.6-1.8-1.6-1.8
			c-1,0-1.6,0.9-1.7,1.8H261.2z"/>
	</g>
	<g>
		<path fill="#1D3649" d="M263.8,101.8h1v0.5h-1v3.5c0,0.4,0.1,0.6,0.5,0.7c0.2,0,0.4,0,0.5,0v0.5c-0.2,0-0.4,0-0.6,0
			c-0.8,0-1.1-0.3-1.1-1.2v-3.5h-0.9v-0.5h0.9v-1.5h0.6V101.8z"/>
	</g>
	<g>
		<path fill="#1D3649" d="M265.8,104.6c0,0.9,0.5,2,1.7,2c0.9,0,1.4-0.5,1.6-1.3h0.6c-0.3,1.2-0.9,1.8-2.2,1.8
			c-1.6,0-2.3-1.3-2.3-2.7c0-1.4,0.7-2.7,2.3-2.7c1.6,0,2.3,1.4,2.3,2.9H265.8z M269.2,104.1c0-0.9-0.6-1.8-1.6-1.8
			c-1,0-1.6,0.9-1.7,1.8H269.2z"/>
	</g>
	<g>
		<path fill="#1D3649" d="M275.3,107h-0.6v-1h0c-0.3,0.7-1.1,1.1-1.8,1.1c-1.6,0-2.3-1.3-2.3-2.7c0-1.5,0.7-2.7,2.3-2.7
			c0.8,0,1.5,0.4,1.8,1.1h0v-3h0.6V107z M272.9,106.6c1.3,0,1.8-1.1,1.8-2.2c0-1.1-0.5-2.2-1.8-2.2c-1.2,0-1.7,1.1-1.7,2.2
			C271.2,105.5,271.7,106.6,272.9,106.6z"/>
	</g>
</g>
<g>
	<rect x="211.4" y="101.6" fill="#FF71D2" width="10.6" height="3.5"/>
</g>
<g>
	<g>
		<path fill="#1D3649" d="M308.3,106.7h-4.6c0-2.1,2.2-2.6,3.4-3.8c0.4-0.4,0.6-0.8,0.6-1.3c0-0.9-0.7-1.4-1.6-1.4
			c-1.1,0-1.6,0.9-1.6,1.9h-0.6c0-1.4,0.7-2.5,2.2-2.5c1.2,0,2.2,0.7,2.2,2c0,1.2-0.8,1.9-1.8,2.5c-0.7,0.5-1.9,1.1-2.1,2h3.9V106.7
			z"/>
	</g>
	<g>
		<path fill="#1D3649" d="M309.1,99.8h4.5v0.6c-0.9,0.9-2.7,3.1-2.8,6.3h-0.7c0.2-2.4,0.9-4.1,2.9-6.3h-3.9V99.8z"/>
	</g>
</g>
<g>
	<g>
		<path fill="#1D3649" d="M228.8,118.3h3.2c1.3,0,2.1,0.7,2.1,2c0,1.3-0.8,2-2.1,2h-2.5v3.1h-0.7V118.3z M229.4,121.8h2.3
			c1,0,1.6-0.5,1.6-1.5c0-1-0.6-1.5-1.6-1.5h-2.3V121.8z"/>
	</g>
	<g>
		<path fill="#1D3649" d="M234.9,123c0,0.9,0.5,2,1.7,2c0.9,0,1.4-0.5,1.6-1.3h0.6c-0.3,1.2-0.9,1.8-2.2,1.8c-1.6,0-2.3-1.3-2.3-2.7
			c0-1.4,0.7-2.7,2.3-2.7c1.6,0,2.3,1.4,2.3,2.9H234.9z M238.3,122.5c0-0.9-0.6-1.8-1.6-1.8c-1,0-1.6,0.9-1.7,1.8H238.3z"/>
	</g>
	<g>
		<path fill="#1D3649" d="M239.9,120.3h0.6v0.9h0c0.2-0.6,0.9-1,1.6-1c1.4,0,1.9,0.8,1.9,2v3.3h-0.6v-3.2c0-0.9-0.3-1.6-1.3-1.6
			c-1,0-1.6,0.8-1.6,1.8v3h-0.6V120.3z"/>
	</g>
	<g>
		<path fill="#1D3649" d="M249.8,125.5h-0.6v-1h0c-0.3,0.7-1.1,1.1-1.8,1.1c-1.6,0-2.3-1.3-2.3-2.7c0-1.5,0.7-2.7,2.3-2.7
			c0.8,0,1.5,0.4,1.8,1.1h0v-3h0.6V125.5z M247.4,125.1c1.3,0,1.8-1.1,1.8-2.2c0-1.1-0.5-2.2-1.8-2.2c-1.2,0-1.7,1.1-1.7,2.2
			C245.7,123.9,246.2,125.1,247.4,125.1z"/>
	</g>
	<g>
		<path fill="#1D3649" d="M251.1,118.3h0.6v1h-0.6V118.3z M251.1,120.3h0.6v5.2h-0.6V120.3z"/>
	</g>
	<g>
		<path fill="#1D3649" d="M253,120.3h0.6v0.9h0c0.2-0.6,0.9-1,1.6-1c1.4,0,1.9,0.8,1.9,2v3.3h-0.6v-3.2c0-0.9-0.3-1.6-1.3-1.6
			c-1,0-1.6,0.8-1.6,1.8v3H253V120.3z"/>
	</g>
	<g>
		<path fill="#1D3649" d="M262.7,125c0,1.5-0.6,2.5-2.3,2.5c-1,0-2.1-0.5-2.1-1.6h0.6c0.1,0.8,0.8,1,1.5,1c1.2,0,1.7-0.7,1.7-1.9
			v-0.7h0c-0.3,0.6-0.9,1.1-1.6,1.1c-1.6,0-2.3-1.2-2.3-2.6c0-1.4,0.8-2.6,2.3-2.6c0.8,0,1.4,0.5,1.6,1h0v-0.9h0.6V125z
			 M262.1,122.8c0-1-0.5-2.1-1.7-2.1s-1.7,1.1-1.7,2.1c0,1,0.5,2,1.7,2C261.5,124.9,262.1,123.9,262.1,122.8z"/>
	</g>
</g>
<g>
	<rect x="211.1" y="120.1" fill="#FF7D85" width="10.6" height="3.5"/>
</g>
<g>
	<g>
		<path fill="#1D3649" d="M302.6,122.3l3.2-4.6h0.6v4.7h1v0.5h-1v1.7h-0.6v-1.7h-3.2V122.3z M305.8,122.4v-3.8h0l-2.6,3.8H305.8z"/>
	</g>
	<g>
		<path fill="#1D3649" d="M311.8,120.9L311.8,120.9c0.9,0.2,1.4,0.9,1.4,1.8c0,1.4-1.1,2.1-2.4,2.1c-1.3,0-2.4-0.7-2.4-2.1
			c0-0.9,0.5-1.6,1.4-1.8v0c-0.7-0.2-1.1-0.8-1.1-1.5c0-1.2,1.1-1.7,2.1-1.7s2.1,0.5,2.1,1.7C313,120.1,312.6,120.7,311.8,120.9z
			 M312.6,122.7c0-1-0.8-1.5-1.8-1.5c-1,0-1.8,0.5-1.8,1.5c0,1,0.8,1.6,1.8,1.6S312.6,123.8,312.6,122.7z M312.3,119.4
			c0-0.8-0.6-1.2-1.5-1.2c-0.8,0-1.5,0.4-1.5,1.2c0,0.9,0.8,1.3,1.5,1.3C311.6,120.7,312.3,120.3,312.3,119.4z"/>
	</g>
</g>
<g>
	<g>
		<path fill="#1D3649" d="M230.8,135.9h0.8l2.8,7.1h-0.7l-0.9-2.2h-3.2l-0.9,2.2H228L230.8,135.9z M229.8,140.2h2.8l-1.4-3.7
			L229.8,140.2z"/>
	</g>
	<g>
		<path fill="#1D3649" d="M238.5,139.5c-0.2-0.8-0.6-1.2-1.5-1.2c-1.2,0-1.8,1.1-1.8,2.2c0,1.1,0.6,2.2,1.8,2.2
			c0.8,0,1.4-0.6,1.5-1.5h0.6c-0.2,1.2-1,2-2.1,2c-1.6,0-2.4-1.2-2.4-2.7c0-1.5,0.9-2.7,2.4-2.7c1.1,0,1.9,0.6,2.1,1.8H238.5z"/>
	</g>
	<g>
		<path fill="#1D3649" d="M241.2,137.8h1v0.5h-1v3.5c0,0.4,0.1,0.6,0.5,0.7c0.2,0,0.4,0,0.5,0v0.5c-0.2,0-0.4,0-0.6,0
			c-0.8,0-1.1-0.3-1.1-1.2v-3.5h-0.9v-0.5h0.9v-1.5h0.6V137.8z"/>
	</g>
	<g>
		<path fill="#1D3649" d="M243.2,135.9h0.6v1h-0.6V135.9z M243.2,137.8h0.6v5.2h-0.6V137.8z"/>
	</g>
	<g>
		<path fill="#1D3649" d="M244.5,137.8h0.7l1.6,4.5h0l1.6-4.5h0.6l-1.9,5.2h-0.7L244.5,137.8z"/>
	</g>
	<g>
		<path fill="#1D3649" d="M249.9,140.6c0,0.9,0.5,2,1.7,2c0.9,0,1.4-0.5,1.6-1.3h0.6c-0.3,1.2-0.9,1.8-2.2,1.8
			c-1.6,0-2.3-1.3-2.3-2.7c0-1.4,0.7-2.7,2.3-2.7c1.6,0,2.3,1.4,2.3,2.9H249.9z M253.3,140.1c0-0.9-0.6-1.8-1.6-1.8
			c-1,0-1.6,0.9-1.7,1.8H253.3z"/>
	</g>
</g>
<g>
	<rect x="211.4" y="138.2" fill="#9655D2" width="10.6" height="3.5"/>
</g>
<g>
	<g>
		<path fill="#1D3649" d="M306,139L306,139c0.9,0.2,1.4,0.9,1.4,1.8c0,1.4-1.1,2.1-2.4,2.1c-1.3,0-2.4-0.7-2.4-2.1
			c0-0.9,0.5-1.6,1.4-1.8v0c-0.7-0.2-1.1-0.8-1.1-1.5c0-1.2,1.1-1.7,2.1-1.7c1,0,2.1,0.5,2.1,1.7C307.1,138.2,306.7,138.7,306,139z
			 M306.8,140.8c0-1-0.8-1.5-1.8-1.5c-1,0-1.8,0.5-1.8,1.5c0,1,0.8,1.6,1.8,1.6C306,142.3,306.8,141.8,306.8,140.8z M306.5,137.4
			c0-0.8-0.6-1.2-1.5-1.2c-0.8,0-1.5,0.4-1.5,1.2c0,0.9,0.8,1.3,1.5,1.3C305.8,138.7,306.5,138.3,306.5,137.4z"/>
	</g>
	<g>
		<path fill="#1D3649" d="M309.1,140.5c0,1.1,0.6,1.8,1.7,1.8c0.9,0,1.8-0.5,1.8-1.5c0-1-0.8-1.5-1.7-1.5h-0.5v-0.5h0.5
			c0.6,0,1.4-0.4,1.4-1.3c0-0.9-0.7-1.3-1.5-1.3c-1,0-1.6,0.7-1.6,1.8h-0.6c0-1.3,0.8-2.3,2.2-2.3c1.1,0,2.2,0.5,2.2,1.8
			c0,0.8-0.4,1.4-1.2,1.5v0c0.9,0.2,1.4,0.8,1.4,1.7c0,1.4-1.1,2.1-2.4,2.1c-1.4,0-2.5-0.9-2.4-2.4H309.1z"/>
	</g>
</g>
<g>
	<rect x="396.6" y="34.6" fill="#1D3649" width="167.4" height="1"/>
</g>
<g>
	<defs>
		<rect id="SVGID_5_" x="-1" y="160" width="651" height="126"/>
	</defs>
	<clipPath id="SVGID_2_">
		<use xlink:href="#SVGID_5_"  overflow="visible"/>
	</clipPath>
	<g opacity="0.25" clip-path="url(#SVGID_2_)">
		<g>
			<polygon fill="#FF9DED" points="19.3,316.1 72.4,233.8 124.4,282.4 181.9,270.8 208.5,254 243,278.4 279.4,262.6 318.9,278.9
				371.8,288.5 417.9,271.9 467.2,290.8 518,316.3 			"/>
		</g>
	</g>
	<g opacity="0.2" clip-path="url(#SVGID_2_)">
		<polygon fill="#AE6EE7" points="163,298.1 199,283.4 241.3,244.2 282.7,257.3 319.8,216.1 353.4,249.3 407.5,273.7 407.5,273.7
			447.8,280.1 483,269.1 520.6,281.6 559.3,298.4 		"/>
	</g>
	<g opacity="0.25" clip-path="url(#SVGID_2_)">
		<g>
			<polygon fill="#FF7D86" points="592.6,285 649.7,274.6 777.4,305.9 372.4,305.7 421.1,229.4 455.1,271.1 508.4,247.9 			"/>
		</g>
	</g>
</g>
<g>
	<g>
		<g>
			<path fill="#1D3649" d="M63.2,190.7H64l3.1,7.9h-0.8l-1-2.4h-3.6l-0.9,2.4H60L63.2,190.7z M62,195.5h3.1l-1.5-4L62,195.5z"/>
		</g>
		<g>
			<path fill="#1D3649" d="M71.6,194.7c-0.2-0.8-0.7-1.4-1.6-1.4c-1.3,0-2,1.2-2,2.4c0,1.2,0.7,2.4,2,2.4c0.8,0,1.6-0.7,1.7-1.6h0.7
				c-0.2,1.4-1.1,2.2-2.4,2.2c-1.7,0-2.7-1.4-2.7-3s1-3,2.7-3c1.2,0,2.1,0.6,2.3,2H71.6z"/>
		</g>
		<g>
			<path fill="#1D3649" d="M74.6,192.9h1.2v0.6h-1.2v3.8c0,0.5,0.1,0.7,0.6,0.8c0.2,0,0.4,0,0.6,0v0.6c-0.2,0-0.4,0-0.6,0
				c-0.9,0-1.2-0.3-1.2-1.3v-3.9h-1v-0.6h1v-1.7h0.7V192.9z"/>
		</g>
		<g>
			<path fill="#1D3649" d="M76.8,190.7h0.7v1.1h-0.7V190.7z M76.8,192.9h0.7v5.7h-0.7V192.9z"/>
		</g>
		<g>
			<path fill="#1D3649" d="M78.3,192.9H79l1.8,5h0l1.8-5h0.7l-2.1,5.7h-0.7L78.3,192.9z"/>
		</g>
		<g>
			<path fill="#1D3649" d="M84.1,190.7h0.7v1.1h-0.7V190.7z M84.1,192.9h0.7v5.7h-0.7V192.9z"/>
		</g>
		<g>
			<path fill="#1D3649" d="M87.3,192.9h1.2v0.6h-1.2v3.8c0,0.5,0.1,0.7,0.6,0.8c0.2,0,0.4,0,0.6,0v0.6c-0.2,0-0.4,0-0.6,0
				c-0.9,0-1.2-0.3-1.2-1.3v-3.9h-1v-0.6h1v-1.7h0.7V192.9z"/>
		</g>
		<g>
			<path fill="#1D3649" d="M89.2,192.9h0.7l1.9,4.9l1.8-4.9h0.7l-2.5,6.6c-0.4,1-0.6,1.2-1.5,1.2c-0.3,0-0.4,0-0.5-0.1V200
				c0.2,0,0.3,0.1,0.5,0.1c0.6,0,0.8-0.4,1-0.9l0.2-0.7L89.2,192.9z"/>
		</g>
		<g>
			<path fill="#1D3649" d="M97.7,190.7h1.1l2.7,6.9l2.7-6.9h1.1v7.9h-0.8v-6.8h0l-2.7,6.8h-0.7l-2.7-6.8h0v6.8h-0.8V190.7z"/>
		</g>
		<g>
			<path fill="#1D3649" d="M111.9,195.7c0,1.6-1,3-2.7,3c-1.7,0-2.7-1.4-2.7-3s1-3,2.7-3C110.9,192.7,111.9,194.1,111.9,195.7z
				 M107.2,195.7c0,1.2,0.7,2.4,2,2.4c1.3,0,2-1.2,2-2.4c0-1.2-0.7-2.4-2-2.4C107.8,193.3,107.2,194.5,107.2,195.7z"/>
		</g>
		<g>
			<path fill="#1D3649" d="M112.9,192.9h0.7v1h0c0.3-0.7,1-1.1,1.8-1.1c1.6,0,2.1,0.8,2.1,2.2v3.7h-0.7V195c0-1-0.3-1.7-1.4-1.7
				c-1.1,0-1.8,0.8-1.8,2v3.3h-0.7V192.9z"/>
		</g>
		<g>
			<path fill="#1D3649" d="M119,190.7h0.7v1.1H119V190.7z M119,192.9h0.7v5.7H119V192.9z"/>
		</g>
		<g>
			<path fill="#1D3649" d="M122.2,192.9h1.2v0.6h-1.2v3.8c0,0.5,0.1,0.7,0.6,0.8c0.2,0,0.4,0,0.6,0v0.6c-0.2,0-0.4,0-0.6,0
				c-0.9,0-1.2-0.3-1.2-1.3v-3.9h-1v-0.6h1v-1.7h0.7V192.9z"/>
		</g>
		<g>
			<path fill="#1D3649" d="M129.1,195.7c0,1.6-1,3-2.7,3c-1.7,0-2.7-1.4-2.7-3s1-3,2.7-3C128.2,192.7,129.1,194.1,129.1,195.7z
				 M124.4,195.7c0,1.2,0.7,2.4,2,2.4c1.3,0,2-1.2,2-2.4c0-1.2-0.7-2.4-2-2.4C125.1,193.3,124.4,194.5,124.4,195.7z"/>
		</g>
		<g>
			<path fill="#1D3649" d="M130.2,192.9h0.6v1.3h0c0.4-0.9,1.1-1.5,2.2-1.4v0.7c-1.3-0.1-2.1,0.8-2.1,2v3h-0.7V192.9z"/>
		</g>
	</g>
	<g>
		<rect x="60.1" y="203.3" fill="#1D3649" width="500.9" height="1"/>
	</g>
</g>
</svg>
