<?xml version="1.0" encoding="utf-8"?>
<!-- Generator: Adobe Illustrator 17.1.0, SVG Export Plug-In . SVG Version: 6.00 Build 0)  -->
<!DOCTYPE svg PUBLIC "-//W3C//DTD SVG 1.1//EN" "http://www.w3.org/Graphics/SVG/1.1/DTD/svg11.dtd">
<svg version="1.1" xmlns="http://www.w3.org/2000/svg" xmlns:xlink="http://www.w3.org/1999/xlink" x="0px" y="0px"
	 viewBox="0 0 144 130" width="144" height="130"  enable-background="new 0 0 144 130" xml:space="preserve">
<g id="Layer_1">
	<rect x="14" y="2" fill="#4B8200" width="57" height="56"/>
	<rect x="71" y="2" fill="#E51D32" width="56" height="56"/>
	<rect x="14" y="71" fill="#4B8200" width="57" height="57"/>
	<rect x="70" y="71" fill="#E51D32" width="56" height="57"/>
	<g>
		<polygon fill="none" points="115.968,71 70,116.968 70,120.118 119.118,71 		"/>
		<polygon fill="none" points="109.666,71 70,110.666 70,113.817 112.817,71 		"/>
		<polygon fill="none" points="122.269,71 70,123.269 70,126.42 125.42,71 		"/>
		<polygon fill="none" points="126,73.571 71.571,128 74.722,128 126,76.722 		"/>
		<polygon fill="none" points="126,86.174 84.174,128 87.325,128 126,89.325 		"/>
		<polygon fill="none" points="126,79.873 77.873,128 81.023,128 126,83.023 		"/>
		<polygon fill="none" points="84.459,71 70,85.459 70,88.61 87.61,71 		"/>
		<polygon fill="none" points="103.364,71 70,104.364 70,107.515 106.515,71 		"/>
		<polygon fill="none" points="70,71 70,76.007 75.007,71 		"/>
		<polygon fill="none" points="78.158,71 70,79.158 70,82.309 81.309,71 		"/>
		<polygon fill="none" points="97.063,71 70,98.063 70,101.214 100.214,71 		"/>
		<polygon fill="none" points="90.761,71 70,91.761 70,94.912 93.912,71 		"/>
		<polygon fill="none" points="126,98.778 96.778,128 99.928,128 126,101.928 		"/>
		<polygon fill="none" points="126,105.079 103.079,128 106.23,128 126,108.23 		"/>
		<polygon fill="none" points="126,117.683 115.683,128 118.833,128 126,120.833 		"/>
		<polygon fill="none" points="126,111.381 109.381,128 112.532,128 126,114.532 		"/>
		<polygon fill="none" points="121.984,128 126,128 126,123.984 		"/>
		<polygon fill="none" points="126,92.476 90.476,128 93.627,128 126,95.627 		"/>
		<polygon fill="#AB1625" points="81.309,71 70,82.309 70,85.459 84.459,71 		"/>
		<polygon fill="#AB1625" points="93.912,71 70,94.912 70,98.063 97.063,71 		"/>
		<polygon fill="#AB1625" points="106.515,71 70,107.515 70,110.666 109.666,71 		"/>
		<polygon fill="#AB1625" points="119.118,71 70,120.118 70,123.269 122.269,71 		"/>
		<polygon fill="#AB1625" points="126,76.722 74.722,128 77.873,128 126,79.873 		"/>
		<polygon fill="#AB1625" points="126,89.325 87.325,128 90.476,128 126,92.476 		"/>
		<polygon fill="#AB1625" points="126,101.928 99.928,128 103.079,128 126,105.079 		"/>
		<polygon fill="#AB1625" points="126,114.532 112.532,128 115.683,128 126,117.683 		"/>
		<polygon fill="#AB1625" points="87.61,71 70,88.61 70,91.761 90.761,71 		"/>
		<polygon fill="#AB1625" points="100.214,71 70,101.214 70,104.364 103.364,71 		"/>
		<polygon fill="#AB1625" points="112.817,71 70,113.817 70,116.968 115.968,71 		"/>
		<polygon fill="#AB1625" points="126,71 125.42,71 70,126.42 70,128 71.571,128 126,73.571 		"/>
		<polygon fill="#AB1625" points="126,83.023 81.023,128 84.174,128 126,86.174 		"/>
		<polygon fill="#AB1625" points="126,95.627 93.627,128 96.778,128 126,98.778 		"/>
		<polygon fill="#AB1625" points="126,108.23 106.23,128 109.381,128 126,111.381 		"/>
		<polygon fill="#AB1625" points="126,120.833 118.833,128 121.984,128 126,123.984 		"/>
		<polygon fill="#AB1625" points="75.007,71 70,76.007 70,79.158 78.158,71 		"/>
	</g>
	<g>
		<polygon fill="#FFFFFF" points="40.819,32.306 38.212,29.699 37.093,30.819 40.819,34.545 47.712,27.652 46.592,26.533 		"/>
		<path fill="#FFFFFF" d="M42.402,19.176c-6.12,0-11.082,4.962-11.082,11.082s4.962,11.082,11.082,11.082
			s11.082-4.962,11.082-11.082S48.523,19.176,42.402,19.176z M42.402,39.758c-5.238,0-9.499-4.261-9.499-9.499
			s4.261-9.499,9.499-9.499s9.499,4.261,9.499,9.499S47.641,39.758,42.402,39.758z"/>
	</g>
	<g>
		<polygon fill="#FFFFFF" points="101.609,26.021 98.211,29.419 94.812,26.021 93.693,27.14 97.091,30.539 93.693,33.937
			94.812,35.056 98.211,31.658 101.609,35.056 102.728,33.937 99.33,30.539 102.728,27.14 		"/>
		<path fill="#FFFFFF" d="M98.211,19.456c-6.12,0-11.082,4.962-11.082,11.082s4.962,11.082,11.082,11.082
			s11.082-4.962,11.082-11.082S104.331,19.456,98.211,19.456z M98.211,40.038c-5.238,0-9.499-4.261-9.499-9.499
			s4.261-9.499,9.499-9.499c5.238,0,9.499,4.261,9.499,9.499S103.449,40.038,98.211,40.038z"/>
	</g>
</g>
<g id="Layer_4">
</g>
<g id="Layer_3" display="none">
</g>
<g id="Layer_2" display="none">
	<rect y="-6104.118" display="inline" opacity="0.08" fill="#00FFFF" width="60" height="10542.133"/>
	<rect x="84" y="-6104.118" display="inline" opacity="0.08" fill="#00FFFF" width="60" height="10542.133"/>
</g>
</svg>
