<?xml version="1.0" encoding="utf-8"?>
<!-- Generator: Adobe Illustrator 18.0.0, SVG Export Plug-In . SVG Version: 6.00 Build 0)  -->
<!DOCTYPE svg PUBLIC "-//W3C//DTD SVG 1.1//EN" "http://www.w3.org/Graphics/SVG/1.1/DTD/svg11.dtd">
<svg version="1.1" id="Layer_1" xmlns="http://www.w3.org/2000/svg" xmlns:xlink="http://www.w3.org/1999/xlink" x="0px" y="0px"
	 viewBox="0 0 23 23" width="23" height="23"  enable-background="new 0 0 23 23" xml:space="preserve">
<g>
	<g>
		<path fill="#323232" d="M17.4,3.1c-1.6-1.6-3.9-2.6-6.4-2.6c-2.5,0-4.7,1-6.4,2.6C3,4.7,2,7.1,2,9.5s1,4.4,2.6,6
			c1.6,1.6,3.9,2.6,6.4,2.6v4.4l6.4-6.6C19,14.2,20,12.1,20,9.5C20,7.1,19,4.7,17.4,3.1z M6.5,11.5c-1.1,0-2-0.9-2-2
			c0-1.1,0.9-2,2-2c1.1,0,2,0.9,2,2C8.5,10.6,7.6,11.5,6.5,11.5z M15.5,11.5c-1.1,0-2-0.9-2-2c0-1.1,0.9-2,2-2c1.1,0,2,0.9,2,2
			C17.5,10.6,16.6,11.5,15.5,11.5z M11,11.5c-1.1,0-2-0.9-2-2c0-1.1,0.9-2,2-2c1.1,0,2,0.9,2,2C13,10.6,12.1,11.5,11,11.5z"/>
	</g>
</g>
</svg>
