<?xml version="1.0" encoding="utf-8"?>
<!-- Generator: Adobe Illustrator 18.0.0, SVG Export Plug-In . SVG Version: 6.00 Build 0)  -->
<!DOCTYPE svg PUBLIC "-//W3C//DTD SVG 1.1//EN" "http://www.w3.org/Graphics/SVG/1.1/DTD/svg11.dtd">
<svg version="1.1" id="Layer_1" xmlns="http://www.w3.org/2000/svg" xmlns:xlink="http://www.w3.org/1999/xlink" x="0px" y="0px"
	 viewBox="0 0 23 23" width="23" height="23"  enable-background="new 0 0 23 23" xml:space="preserve">
<g>
	<g>
		<path fill="#323232" d="M17.3,3.6C15.7,2,13.5,1,11,1C8.5,1,6.2,2,4.6,3.6C3,5.2,2,7.4,2,9.8c0,2.6,1,4.9,2.6,6.6L11,23l6.4-6.6
			c1.6-1.7,2.6-4,2.6-6.6C20,7.4,19,5.2,17.3,3.6z M11,13c-1.7,0-3-1.3-3-3c0-1.7,1.3-3,3-3c1.7,0,3,1.3,3,3C14,11.7,12.6,13,11,13z
			"/>
	</g>
</g>
</svg>
