<?xml version="1.0" encoding="utf-8"?>
<!-- Generator: Adobe Illustrator 18.0.0, SVG Export Plug-In . SVG Version: 6.00 Build 0)  -->
<!DOCTYPE svg PUBLIC "-//W3C//DTD SVG 1.1//EN" "http://www.w3.org/Graphics/SVG/1.1/DTD/svg11.dtd">
<svg version="1.1" id="Layer_1" xmlns="http://www.w3.org/2000/svg" xmlns:xlink="http://www.w3.org/1999/xlink" x="0px" y="0px"
	 viewBox="0 0 23 23" width="23" height="23"  enable-background="new 0 0 23 23" xml:space="preserve">
<g>
	<path fill="#323232" d="M17.7,7c0-3.2-2.8-6-6-6c-3.2,0-6,2.8-6,6v2.7c-1.2,1.4-2,3.3-2,5.3c0,4.4,3.6,8,8,8s8-3.6,8-8
		c0-2-0.8-3.9-2-5.3V7z M7.7,7c0-2.1,1.9-4,4-4c2.1,0,4,1.9,4,4v1.1c-1.2-0.7-2.5-1.1-4-1.1c-1.5,0-2.8,0.4-4,1.1V7z M10.2,19.4
		l-3.7-3.7l1.4-1.4l2.3,2.3l5.3-5.3l1.4,1.4L10.2,19.4z"/>
</g>
</svg>
