<?xml version="1.0" encoding="utf-8"?>
<!-- Generator: Adobe Illustrator 18.0.0, SVG Export Plug-In . SVG Version: 6.00 Build 0)  -->
<!DOCTYPE svg PUBLIC "-//W3C//DTD SVG 1.1//EN" "http://www.w3.org/Graphics/SVG/1.1/DTD/svg11.dtd">
<svg version="1.1" id="Layer_1" xmlns="http://www.w3.org/2000/svg" xmlns:xlink="http://www.w3.org/1999/xlink" x="0px" y="0px"
	 viewBox="0 0 23 23" width="23" height="23"  enable-background="new 0 0 23 23" xml:space="preserve">
<path fill="#323232" d="M20,3.7c-1.3-1.3-3-2-4.8-2h0c-1.8,0-3.5,0.7-4.8,2l-9,9.3c-2,2.1-2,5.5,0,7.7c1,1,2.3,1.6,3.8,1.6
	c1.4,0,2.8-0.6,3.8-1.6l6.7-6.9c1.5-1.5,1.5-4,0-5.6C15,7.4,14.1,7,13,7c0,0,0,0,0,0c-1,0-2,0.4-2.7,1.2l-5.1,5.2l1.4,1.4l5.1-5.2
	C12.1,9.2,12.5,9,13,9c0.5,0,1,0.2,1.3,0.6c0.7,0.8,0.7,2,0,2.8l-6.7,6.9c-1.2,1.3-3.4,1.3-4.6,0c-1.3-1.3-1.3-3.5,0-4.9l9-9.3
	c0.9-0.9,2.1-1.4,3.3-1.4h0c1.3,0,2.4,0.5,3.3,1.4c1.9,1.9,1.9,5,0,7l-7.3,7.6l1.4,1.4l7.3-7.6C22.6,10.8,22.6,6.4,20,3.7z"/>
</svg>
