<?xml version="1.0" encoding="utf-8"?>
<!-- Generator: Adobe Illustrator 18.0.0, SVG Export Plug-In . SVG Version: 6.00 Build 0)  -->
<!DOCTYPE svg PUBLIC "-//W3C//DTD SVG 1.1//EN" "http://www.w3.org/Graphics/SVG/1.1/DTD/svg11.dtd">
<svg version="1.1" id="Layer_1" xmlns="http://www.w3.org/2000/svg" xmlns:xlink="http://www.w3.org/1999/xlink" x="0px" y="0px"
	 viewBox="0 0 23 23" width="23" height="23"  enable-background="new 0 0 23 23" xml:space="preserve">
<path fill="#323232" d="M19.1,10h-7V6.8c1.2-0.4,2-1.5,2-2.8c0-1.7-1.3-3-3-3c-1.7,0-3,1.3-3,3c0,1.3,0.8,2.4,2,2.8v3.3
	c-0.4,0.2-0.8,0.5-0.9,0.9H6C5.5,9.8,4.4,9,3.1,9c-1.7,0-3,1.3-3,3s1.3,3,3,3c1.3,0,2.4-0.8,2.8-2h3.2v7l3,3V13h10L19.1,10z M3.1,13
	c-0.6,0-1-0.4-1-1s0.4-1,1-1c0.6,0,1,0.4,1,1S3.7,13,3.1,13z M11.1,5c-0.6,0-1-0.4-1-1s0.4-1,1-1c0.6,0,1,0.4,1,1S11.7,5,11.1,5z"/>
</svg>
