<?xml version="1.0" encoding="utf-8"?>
<!-- Generator: Adobe Illustrator 18.0.0, SVG Export Plug-In . SVG Version: 6.00 Build 0)  -->
<!DOCTYPE svg PUBLIC "-//W3C//DTD SVG 1.1//EN" "http://www.w3.org/Graphics/SVG/1.1/DTD/svg11.dtd">
<svg version="1.1" id="Layer_1" xmlns="http://www.w3.org/2000/svg" xmlns:xlink="http://www.w3.org/1999/xlink" x="0px" y="0px"
	 viewBox="0 0 23 23" width="23" height="23"  enable-background="new 0 0 23 23" xml:space="preserve">
<g>
	<g>
		<path fill="#323232" d="M3,1v22h16V1H3z M11,4c1.1,0,2,0.9,2,2c0,1.1-0.9,2-2,2C9.9,8,9,7.1,9,6C9,4.9,9.9,4,11,4z M11,20
			c-2.8,0-5-2.2-5-5c0-2.8,2.2-5,5-5c2.8,0,5,2.2,5,5C16,17.8,13.8,20,11,20z"/>
	</g>
	<circle fill="#323232" cx="11" cy="15" r="2"/>
</g>
</svg>
