<?xml version="1.0" encoding="utf-8"?>
<!-- Generator: Adobe Illustrator 18.1.1, SVG Export Plug-In . SVG Version: 6.00 Build 0)  -->
<svg version="1.1" xmlns="http://www.w3.org/2000/svg" xmlns:xlink="http://www.w3.org/1999/xlink" x="0px" y="0px"
	 viewBox="0 0 192 160" width="192" height="160"  enable-background="new 0 0 192 160" xml:space="preserve">
<g id="Layer_1">
	<g>
		<g>
			<rect x="1" y="13" fill="#FFFFFF" width="180" height="146"/>
			<path fill="#323232" d="M182,160H0V12h182V160z M2,158h178V14H2V158z"/>
		</g>
		<g>
			<rect x="11" y="1" fill="#FFFFFF" width="180" height="146"/>
			<path fill="#323232" d="M192,148H10V0h182V148z M12,146h178V2H12V146z"/>
		</g>
		<rect x="81" y="67" fill="#ECECEC" width="39" height="12"/>
		<rect x="81" y="38" fill="#ECECEC" width="39" height="25"/>
		<g>
			<path fill="#323232" d="M126,114H75V32h51V114z M78,111h45V35H78V111z"/>
		</g>
		<g>
			<rect x="133" y="55" fill="#00B4A0" width="28" height="2"/>
			<rect x="133" y="60" fill="#00B4A0" width="24" height="2"/>
		</g>
		<rect x="81" y="82" fill="#ECECEC" width="39" height="12"/>
		<rect x="81" y="97" fill="#ECECEC" width="39" height="11"/>
		<g>
			<path fill="#00B4A0" d="M130,55h-16.2c-0.3-1.4-1.5-2.4-3-2.4c-1.7,0-3.1,1.4-3.1,3.1s1.4,3.1,3.1,3.1c1.2,0,2.3-0.7,2.8-1.8H130
				V55z M110.8,56.8c-0.6,0-1.1-0.5-1.1-1.1s0.5-1.1,1.1-1.1s1.1,0.5,1.1,1.1S111.4,56.8,110.8,56.8z"/>
			<path fill="#00B4A0" d="M87.3,84.5c-1.5,0-2.8,1.1-3,2.5H68v2h16.5c0.5,1,1.5,1.7,2.7,1.7c1.7,0,3.1-1.4,3.1-3.1
				S89,84.5,87.3,84.5z M87.3,88.7c-0.6,0-1.1-0.5-1.1-1.1s0.5-1.1,1.1-1.1s1.1,0.5,1.1,1.1S87.8,88.7,87.3,88.7z"/>
		</g>
		<g>
			<rect x="36" y="87" fill="#00B4A0" width="28" height="2"/>
			<rect x="36" y="92" fill="#00B4A0" width="28" height="2"/>
			<rect x="36" y="98" fill="#00B4A0" width="26" height="2"/>
		</g>
	</g>
</g>
<g id="Layer_3" display="none">
	<g display="inline" opacity="0.2">
		<g>
			<line fill="none" stroke="#00FFFF" stroke-miterlimit="10" x1="-248" y1="157.5" x2="776" y2="157.5"/>
		</g>
		<g>
			<line fill="none" stroke="#00FFFF" stroke-miterlimit="10" x1="-248" y1="151.5" x2="776" y2="151.5"/>
		</g>
		<g>
			<line fill="none" stroke="#00FFFF" stroke-miterlimit="10" x1="-248" y1="145.5" x2="776" y2="145.5"/>
		</g>
		<g>
			<line fill="none" stroke="#00FFFF" stroke-miterlimit="10" x1="-248" y1="139.5" x2="776" y2="139.5"/>
		</g>
		<g>
			<line fill="none" stroke="#00FFFF" stroke-miterlimit="10" x1="-248" y1="133.5" x2="776" y2="133.5"/>
		</g>
		<g>
			<line fill="none" stroke="#00FFFF" stroke-miterlimit="10" x1="-248" y1="127.5" x2="776" y2="127.5"/>
		</g>
		<g>
			<line fill="none" stroke="#00FFFF" stroke-miterlimit="10" x1="-248" y1="121.5" x2="776" y2="121.5"/>
		</g>
		<g>
			<line fill="none" stroke="#00FFFF" stroke-miterlimit="10" x1="-248" y1="115.5" x2="776" y2="115.5"/>
		</g>
		<g>
			<line fill="none" stroke="#00FFFF" stroke-miterlimit="10" x1="-248" y1="109.5" x2="776" y2="109.5"/>
		</g>
		<g>
			<line fill="none" stroke="#00FFFF" stroke-miterlimit="10" x1="-248" y1="103.5" x2="776" y2="103.5"/>
		</g>
		<g>
			<line fill="none" stroke="#00FFFF" stroke-miterlimit="10" x1="-248" y1="97.5" x2="776" y2="97.5"/>
		</g>
		<g>
			<line fill="none" stroke="#00FFFF" stroke-miterlimit="10" x1="-248" y1="91.5" x2="776" y2="91.5"/>
		</g>
		<g>
			<line fill="none" stroke="#00FFFF" stroke-miterlimit="10" x1="-248" y1="85.5" x2="776" y2="85.5"/>
		</g>
		<g>
			<line fill="none" stroke="#00FFFF" stroke-miterlimit="10" x1="-248" y1="79.5" x2="776" y2="79.5"/>
		</g>
		<g>
			<line fill="none" stroke="#00FFFF" stroke-miterlimit="10" x1="-248" y1="73.5" x2="776" y2="73.5"/>
		</g>
		<g>
			<line fill="none" stroke="#00FFFF" stroke-miterlimit="10" x1="-248" y1="67.5" x2="776" y2="67.5"/>
		</g>
		<g>
			<line fill="none" stroke="#00FFFF" stroke-miterlimit="10" x1="-248" y1="61.5" x2="776" y2="61.5"/>
		</g>
		<g>
			<line fill="none" stroke="#00FFFF" stroke-miterlimit="10" x1="-248" y1="55.5" x2="776" y2="55.5"/>
		</g>
		<g>
			<line fill="none" stroke="#00FFFF" stroke-miterlimit="10" x1="-248" y1="49.5" x2="776" y2="49.5"/>
		</g>
		<g>
			<line fill="none" stroke="#00FFFF" stroke-miterlimit="10" x1="-248" y1="43.5" x2="776" y2="43.5"/>
		</g>
		<g>
			<line fill="none" stroke="#00FFFF" stroke-miterlimit="10" x1="-248" y1="37.5" x2="776" y2="37.5"/>
		</g>
		<g>
			<line fill="none" stroke="#00FFFF" stroke-miterlimit="10" x1="-248" y1="31.5" x2="776" y2="31.5"/>
		</g>
		<g>
			<line fill="none" stroke="#00FFFF" stroke-miterlimit="10" x1="-248" y1="25.5" x2="776" y2="25.5"/>
		</g>
		<g>
			<line fill="none" stroke="#00FFFF" stroke-miterlimit="10" x1="-248" y1="19.5" x2="776" y2="19.5"/>
		</g>
		<g>
			<line fill="none" stroke="#00FFFF" stroke-miterlimit="10" x1="-248" y1="13.5" x2="776" y2="13.5"/>
		</g>
		<g>
			<line fill="none" stroke="#00FFFF" stroke-miterlimit="10" x1="-248" y1="7.5" x2="776" y2="7.5"/>
		</g>
		<g>
			<line fill="none" stroke="#00FFFF" stroke-miterlimit="10" x1="-248" y1="1.5" x2="776" y2="1.5"/>
		</g>
	</g>
</g>
<g id="Layer_2" display="none">
	<rect x="-60" y="-1810.1" display="inline" opacity="8.000000e-02" fill="#00FFFF" width="60" height="15684.4"/>
	<rect x="24" y="-1810.1" display="inline" opacity="8.000000e-02" fill="#00FFFF" width="60" height="15684.4"/>
	<rect x="108" y="-1810.1" display="inline" opacity="8.000000e-02" fill="#00FFFF" width="60" height="15684.4"/>
	<rect x="192" y="-1810.1" display="inline" opacity="8.000000e-02" fill="#00FFFF" width="60" height="15684.4"/>
</g>
<g id="Layer_4" display="none">
</g>
</svg>
