<?xml version="1.0" encoding="utf-8"?>
<!-- Generator: Adobe Illustrator 18.1.1, SVG Export Plug-In . SVG Version: 6.00 Build 0)  -->
<svg version="1.1" xmlns="http://www.w3.org/2000/svg" xmlns:xlink="http://www.w3.org/1999/xlink" x="0px" y="0px"
	 viewBox="0 0 480 192.5" width="480" height="192.5"  enable-background="new 0 0 480 192.5" xml:space="preserve">
<g id="Layer_1">
	<g>
		<rect x="111.4" y="16" fill="#ECECEC" width="182.6" height="146"/>
		<g>
			<g>
				<g>
					<path fill="#323232" d="M369.2,184.9h-260V7.5h260V184.9z M112.3,181.9h254V10.5h-254V181.9z"/>
				</g>
			</g>
			<g>
				<g>
					<rect x="293" y="18" fill="#323232" width="2" height="144"/>
				</g>
			</g>
		</g>
		<g>
			<rect x="295" y="40" fill="#323232" width="74" height="2"/>
		</g>
		<g>
			<rect x="295" y="60" fill="#323232" width="74" height="2"/>
		</g>
		<g>
			<rect x="294" y="123" fill="#323232" width="74" height="2"/>
		</g>
		<g>
			<rect x="293" y="142" fill="#323232" width="73" height="2"/>
		</g>
		<g>
			<rect x="299" y="28" fill="#FFFFFF" width="7" height="7"/>
			<path fill="#ECECEC" d="M307,36h-9v-9h9V36z M299,35h7v-7h-7V35z"/>
		</g>
		<rect x="298" y="47" fill="#00B4A0" width="9" height="9"/>
		<rect x="298" y="67" fill="#E0E0E0" width="9" height="9"/>
		<rect x="298" y="130" fill="#00B4A0" width="9" height="9"/>
	</g>
	<g>
		<g>
			<rect x="168" y="38" fill="#FFFFFF" width="66" height="112"/>
		</g>
		<rect x="213.4" y="61" fill="#E0E0E0" width="20.6" height="52"/>
		<g>
			<rect x="170" y="67" fill="#00B4A0" width="37" height="16"/>
			<g>
				<rect x="167.8" y="88.6" fill="#ECECEC" width="37.4" height="3.1"/>
				<rect x="167.8" y="95.9" fill="#ECECEC" width="37.4" height="3.1"/>
				<rect x="167.8" y="103.3" fill="#ECECEC" width="35.2" height="3.1"/>
			</g>
			<rect x="175" y="120" fill="#00B4A0" width="53" height="16"/>
			<g>
				<rect x="174.5" y="140.2" fill="#ECECEC" width="49.8" height="3.1"/>
			</g>
			<rect x="174.4" y="44.1" fill="#ECECEC" width="53.9" height="11.5"/>
			<g>
				<rect x="169" y="60" fill="#323232" width="64" height="2"/>
			</g>
			<g>
				<rect x="169" y="113" fill="#121212" width="65" height="2"/>
			</g>
		</g>
	</g>
	<g>
		<rect x="111" y="161" fill="#323232" width="257" height="2"/>
	</g>
	<g>
		<rect x="111" y="172" fill="#323232" width="257" height="2"/>
	</g>
	<polygon fill="#121212" points="216,80.3 217.7,87.4 219,85.5 221.2,88.3 221.4,88.1 221.8,87.8 222.3,87.4 222.5,87.3 220.3,84.5
		222.4,83.7 	"/>
	<path fill="#323232" d="M236,151h-69V36h69V151z M170,148h63V39h-63V148z"/>
	<g>
		<rect x="111" y="16" fill="#323232" width="257" height="2"/>
	</g>
</g>
<g id="Layer_3" display="none">
	<g display="inline" opacity="0.2">
		<g>
			<line fill="none" stroke="#00FFFF" stroke-miterlimit="10" x1="-272" y1="190.5" x2="752" y2="190.5"/>
		</g>
		<g>
			<line fill="none" stroke="#00FFFF" stroke-miterlimit="10" x1="-272" y1="184.5" x2="752" y2="184.5"/>
		</g>
		<g>
			<line fill="none" stroke="#00FFFF" stroke-miterlimit="10" x1="-272" y1="178.5" x2="752" y2="178.5"/>
		</g>
		<g>
			<line fill="none" stroke="#00FFFF" stroke-miterlimit="10" x1="-272" y1="172.5" x2="752" y2="172.5"/>
		</g>
		<g>
			<line fill="none" stroke="#00FFFF" stroke-miterlimit="10" x1="-272" y1="166.5" x2="752" y2="166.5"/>
		</g>
		<g>
			<line fill="none" stroke="#00FFFF" stroke-miterlimit="10" x1="-272" y1="160.5" x2="752" y2="160.5"/>
		</g>
		<g>
			<line fill="none" stroke="#00FFFF" stroke-miterlimit="10" x1="-272" y1="154.5" x2="752" y2="154.5"/>
		</g>
		<g>
			<line fill="none" stroke="#00FFFF" stroke-miterlimit="10" x1="-272" y1="148.5" x2="752" y2="148.5"/>
		</g>
		<g>
			<line fill="none" stroke="#00FFFF" stroke-miterlimit="10" x1="-272" y1="142.5" x2="752" y2="142.5"/>
		</g>
		<g>
			<line fill="none" stroke="#00FFFF" stroke-miterlimit="10" x1="-272" y1="136.5" x2="752" y2="136.5"/>
		</g>
		<g>
			<line fill="none" stroke="#00FFFF" stroke-miterlimit="10" x1="-272" y1="130.5" x2="752" y2="130.5"/>
		</g>
		<g>
			<line fill="none" stroke="#00FFFF" stroke-miterlimit="10" x1="-272" y1="124.5" x2="752" y2="124.5"/>
		</g>
		<g>
			<line fill="none" stroke="#00FFFF" stroke-miterlimit="10" x1="-272" y1="118.5" x2="752" y2="118.5"/>
		</g>
		<g>
			<line fill="none" stroke="#00FFFF" stroke-miterlimit="10" x1="-272" y1="112.5" x2="752" y2="112.5"/>
		</g>
		<g>
			<line fill="none" stroke="#00FFFF" stroke-miterlimit="10" x1="-272" y1="106.5" x2="752" y2="106.5"/>
		</g>
		<g>
			<line fill="none" stroke="#00FFFF" stroke-miterlimit="10" x1="-272" y1="100.5" x2="752" y2="100.5"/>
		</g>
		<g>
			<line fill="none" stroke="#00FFFF" stroke-miterlimit="10" x1="-272" y1="94.5" x2="752" y2="94.5"/>
		</g>
		<g>
			<line fill="none" stroke="#00FFFF" stroke-miterlimit="10" x1="-272" y1="88.5" x2="752" y2="88.5"/>
		</g>
		<g>
			<line fill="none" stroke="#00FFFF" stroke-miterlimit="10" x1="-272" y1="82.5" x2="752" y2="82.5"/>
		</g>
		<g>
			<line fill="none" stroke="#00FFFF" stroke-miterlimit="10" x1="-272" y1="76.5" x2="752" y2="76.5"/>
		</g>
		<g>
			<line fill="none" stroke="#00FFFF" stroke-miterlimit="10" x1="-272" y1="70.5" x2="752" y2="70.5"/>
		</g>
		<g>
			<line fill="none" stroke="#00FFFF" stroke-miterlimit="10" x1="-272" y1="64.5" x2="752" y2="64.5"/>
		</g>
		<g>
			<line fill="none" stroke="#00FFFF" stroke-miterlimit="10" x1="-272" y1="58.5" x2="752" y2="58.5"/>
		</g>
		<g>
			<line fill="none" stroke="#00FFFF" stroke-miterlimit="10" x1="-272" y1="52.5" x2="752" y2="52.5"/>
		</g>
		<g>
			<line fill="none" stroke="#00FFFF" stroke-miterlimit="10" x1="-272" y1="46.5" x2="752" y2="46.5"/>
		</g>
		<g>
			<line fill="none" stroke="#00FFFF" stroke-miterlimit="10" x1="-272" y1="40.5" x2="752" y2="40.5"/>
		</g>
		<g>
			<line fill="none" stroke="#00FFFF" stroke-miterlimit="10" x1="-272" y1="34.5" x2="752" y2="34.5"/>
		</g>
		<g>
			<line fill="none" stroke="#00FFFF" stroke-miterlimit="10" x1="-272" y1="28.5" x2="752" y2="28.5"/>
		</g>
		<g>
			<line fill="none" stroke="#00FFFF" stroke-miterlimit="10" x1="-272" y1="22.5" x2="752" y2="22.5"/>
		</g>
		<g>
			<line fill="none" stroke="#00FFFF" stroke-miterlimit="10" x1="-272" y1="16.5" x2="752" y2="16.5"/>
		</g>
		<g>
			<line fill="none" stroke="#00FFFF" stroke-miterlimit="10" x1="-272" y1="10.5" x2="752" y2="10.5"/>
		</g>
		<g>
			<line fill="none" stroke="#00FFFF" stroke-miterlimit="10" x1="-272" y1="4.5" x2="752" y2="4.5"/>
		</g>
	</g>
</g>
<g id="Layer_2" display="none">
	<rect y="-4867.1" display="inline" opacity="8.000000e-02" fill="#00FFFF" width="60" height="15684.4"/>
	<rect x="84" y="-4867.1" display="inline" opacity="8.000000e-02" fill="#00FFFF" width="60" height="15684.4"/>
	<rect x="168" y="-4867.1" display="inline" opacity="8.000000e-02" fill="#00FFFF" width="60" height="15684.4"/>
	<rect x="252" y="-4867.1" display="inline" opacity="8.000000e-02" fill="#00FFFF" width="60" height="15684.4"/>
	<rect x="336" y="-4867.1" display="inline" opacity="8.000000e-02" fill="#00FFFF" width="60" height="15684.4"/>
	<rect x="420" y="-4867.1" display="inline" opacity="8.000000e-02" fill="#00FFFF" width="60" height="15684.4"/>
</g>
<g id="Layer_4" display="none">
</g>
</svg>
