<?xml version="1.0" encoding="utf-8"?>
<!-- Generator: Adobe Illustrator 18.1.1, SVG Export Plug-In . SVG Version: 6.00 Build 0)  -->
<svg version="1.1" xmlns="http://www.w3.org/2000/svg" xmlns:xlink="http://www.w3.org/1999/xlink" x="0px" y="0px"
	 viewBox="0 0 194 156" width="194" height="156"  enable-background="new 0 0 194 156" xml:space="preserve">
<g id="Layer_1">
	<g>
		<polygon fill="#00B4A0" points="36,71.5 38.3,73.6 33.7,78 44,78 44,82 33.7,82 38.3,86.4 36,88.6 27.5,80.1 		"/>
		<rect x="54" y="74" fill="#ECECEC" width="39" height="12"/>
		<rect x="54" y="45" fill="#ECECEC" width="39" height="25"/>
		<rect x="54" y="89" fill="#ECECEC" width="39" height="12"/>
		<rect x="54" y="104" fill="#ECECEC" width="39" height="11"/>
		<rect x="54" y="74" fill="#00B4A0" width="39" height="12"/>
		<rect x="64" y="89" fill="#00B4A0" width="39" height="12"/>
		<rect x="74" y="104" fill="#00B4A0" width="39" height="11"/>
		<g>
			<path fill="#323232" d="M99,121H48V39h51V121z M51,118h45V42H51V118z"/>
		</g>
		<path fill="#323232" d="M0,0v156h194V7V1V0H0z M2,154V7h134v147H2z M192,154h-54v-51h54V154z M192,101h-54v-8h54V101z M192,91h-54
			V42h54V91z M192,40h-54v-8h54V40z M192,30h-54v-8h54V30z M192,20h-54V7h54V20z M2,5V2h190v3H2z"/>
	</g>
</g>
<g id="Layer_3" display="none">
	<g display="inline" opacity="0.2">
		<g>
			<line fill="none" stroke="#00FFFF" stroke-miterlimit="10" x1="-246" y1="156.5" x2="778" y2="156.5"/>
		</g>
		<g>
			<line fill="none" stroke="#00FFFF" stroke-miterlimit="10" x1="-246" y1="150.5" x2="778" y2="150.5"/>
		</g>
		<g>
			<line fill="none" stroke="#00FFFF" stroke-miterlimit="10" x1="-246" y1="144.5" x2="778" y2="144.5"/>
		</g>
		<g>
			<line fill="none" stroke="#00FFFF" stroke-miterlimit="10" x1="-246" y1="138.5" x2="778" y2="138.5"/>
		</g>
		<g>
			<line fill="none" stroke="#00FFFF" stroke-miterlimit="10" x1="-246" y1="132.5" x2="778" y2="132.5"/>
		</g>
		<g>
			<line fill="none" stroke="#00FFFF" stroke-miterlimit="10" x1="-246" y1="126.5" x2="778" y2="126.5"/>
		</g>
		<g>
			<line fill="none" stroke="#00FFFF" stroke-miterlimit="10" x1="-246" y1="120.5" x2="778" y2="120.5"/>
		</g>
		<g>
			<line fill="none" stroke="#00FFFF" stroke-miterlimit="10" x1="-246" y1="114.5" x2="778" y2="114.5"/>
		</g>
		<g>
			<line fill="none" stroke="#00FFFF" stroke-miterlimit="10" x1="-246" y1="108.5" x2="778" y2="108.5"/>
		</g>
		<g>
			<line fill="none" stroke="#00FFFF" stroke-miterlimit="10" x1="-246" y1="102.5" x2="778" y2="102.5"/>
		</g>
		<g>
			<line fill="none" stroke="#00FFFF" stroke-miterlimit="10" x1="-246" y1="96.5" x2="778" y2="96.5"/>
		</g>
		<g>
			<line fill="none" stroke="#00FFFF" stroke-miterlimit="10" x1="-246" y1="90.5" x2="778" y2="90.5"/>
		</g>
		<g>
			<line fill="none" stroke="#00FFFF" stroke-miterlimit="10" x1="-246" y1="84.5" x2="778" y2="84.5"/>
		</g>
		<g>
			<line fill="none" stroke="#00FFFF" stroke-miterlimit="10" x1="-246" y1="78.5" x2="778" y2="78.5"/>
		</g>
		<g>
			<line fill="none" stroke="#00FFFF" stroke-miterlimit="10" x1="-246" y1="72.5" x2="778" y2="72.5"/>
		</g>
		<g>
			<line fill="none" stroke="#00FFFF" stroke-miterlimit="10" x1="-246" y1="66.5" x2="778" y2="66.5"/>
		</g>
		<g>
			<line fill="none" stroke="#00FFFF" stroke-miterlimit="10" x1="-246" y1="60.5" x2="778" y2="60.5"/>
		</g>
		<g>
			<line fill="none" stroke="#00FFFF" stroke-miterlimit="10" x1="-246" y1="54.5" x2="778" y2="54.5"/>
		</g>
		<g>
			<line fill="none" stroke="#00FFFF" stroke-miterlimit="10" x1="-246" y1="48.5" x2="778" y2="48.5"/>
		</g>
		<g>
			<line fill="none" stroke="#00FFFF" stroke-miterlimit="10" x1="-246" y1="42.5" x2="778" y2="42.5"/>
		</g>
		<g>
			<line fill="none" stroke="#00FFFF" stroke-miterlimit="10" x1="-246" y1="36.5" x2="778" y2="36.5"/>
		</g>
		<g>
			<line fill="none" stroke="#00FFFF" stroke-miterlimit="10" x1="-246" y1="30.5" x2="778" y2="30.5"/>
		</g>
		<g>
			<line fill="none" stroke="#00FFFF" stroke-miterlimit="10" x1="-246" y1="24.5" x2="778" y2="24.5"/>
		</g>
		<g>
			<line fill="none" stroke="#00FFFF" stroke-miterlimit="10" x1="-246" y1="18.5" x2="778" y2="18.5"/>
		</g>
		<g>
			<line fill="none" stroke="#00FFFF" stroke-miterlimit="10" x1="-246" y1="12.5" x2="778" y2="12.5"/>
		</g>
		<g>
			<line fill="none" stroke="#00FFFF" stroke-miterlimit="10" x1="-246" y1="6.5" x2="778" y2="6.5"/>
		</g>
		<g>
			<line fill="none" stroke="#00FFFF" stroke-miterlimit="10" x1="-246" y1="0.5" x2="778" y2="0.5"/>
		</g>
	</g>
</g>
<g id="Layer_2" display="none">
	<rect x="-58" y="-2189.1" display="inline" opacity="8.000000e-02" fill="#00FFFF" width="60" height="15684.4"/>
	<rect x="26" y="-2189.1" display="inline" opacity="8.000000e-02" fill="#00FFFF" width="60" height="15684.4"/>
	<rect x="110" y="-2189.1" display="inline" opacity="8.000000e-02" fill="#00FFFF" width="60" height="15684.4"/>
	<rect x="194" y="-2189.1" display="inline" opacity="8.000000e-02" fill="#00FFFF" width="60" height="15684.4"/>
</g>
<g id="Layer_4" display="none">
</g>
</svg>
