<?xml version="1.0" encoding="utf-8"?>
<!-- Generator: Adobe Illustrator 17.1.0, SVG Export Plug-In . SVG Version: 6.00 Build 0)  -->
<!DOCTYPE svg PUBLIC "-//W3C//DTD SVG 1.1//EN" "http://www.w3.org/Graphics/SVG/1.1/DTD/svg11.dtd">
<svg version="1.1" id="Layer_1" xmlns="http://www.w3.org/2000/svg" xmlns:xlink="http://www.w3.org/1999/xlink" x="0px" y="0px"
	 viewBox="0 0 192.9 208" width="192.9" height="208" style="enable-background:new 0 0 192.9 208;" xml:space="preserve">
<style type="text/css">
	.st0{fill:none;stroke:#DEDEDD;stroke-width:0.8282;stroke-miterlimit:10;}
	.st1{fill:none;stroke:#DEDEDD;stroke-width:1.6565;stroke-miterlimit:10;}
	.st2{fill:none;stroke:#07B29E;stroke-width:4.9695;stroke-miterlimit:10;}
	.st3{opacity:0.2;fill:none;stroke:#07B29E;stroke-width:4.9695;stroke-miterlimit:10;}
	.st4{fill:none;stroke:#676767;stroke-width:3;stroke-miterlimit:10;}
	.st5{opacity:0.5;fill:none;stroke:#07B29E;stroke-width:4.9695;stroke-miterlimit:10;}
	.st6{fill:none;stroke:#07B29E;stroke-width:5;stroke-miterlimit:10;}
	.st7{fill:#FFFFFF;stroke:#07B29E;stroke-width:3;stroke-miterlimit:10;}
	.st8{fill:#676767;}
</style>
<g>
	<line class="st0" x1="191.6" y1="103.1" x2="1.1" y2="103.1"/>
	<line class="st0" x1="96.3" y1="7.8" x2="96.3" y2="198.3"/>
	<line class="st0" x1="48.7" y1="7.8" x2="48.7" y2="198.3"/>
	<line class="st0" x1="143.9" y1="7.8" x2="143.9" y2="198.3"/>
	<line class="st0" x1="24.9" y1="7.8" x2="24.9" y2="198.3"/>
	<line class="st0" x1="72.5" y1="7.8" x2="72.5" y2="198.3"/>
	<line class="st0" x1="120.1" y1="7.8" x2="120.1" y2="198.3"/>
	<line class="st0" x1="167.7" y1="7.8" x2="167.7" y2="198.3"/>
	<line class="st0" x1="191.6" y1="55.5" x2="1.1" y2="55.5"/>
	<line class="st0" x1="191.6" y1="150.7" x2="1.1" y2="150.7"/>
	<line class="st0" x1="191.6" y1="31.7" x2="1.1" y2="31.7"/>
	<line class="st0" x1="191.6" y1="79.3" x2="1.1" y2="79.3"/>
	<line class="st0" x1="191.6" y1="126.9" x2="1.1" y2="126.9"/>
	<line class="st0" x1="191.6" y1="174.5" x2="1.1" y2="174.5"/>
	<polyline class="st1" points="175,7.9 1.1,7.9 1.2,198.6 	"/>
	<path class="st2" d="M1.6,197.6"/>
	<path class="st2" d="M190.7,8.3"/>
	<path class="st3" d="M2.1,198.7"/>
	<path class="st3" d="M192.2,8.7"/>
	<polyline class="st1" points="191.5,11.6 191.5,198.3 19,198.3 	"/>
	<line class="st4" x1="175" y1="7.9" x2="54.7" y2="7.9"/>
	<path class="st5" d="M1.6,197.6"/>
	<path class="st5" d="M190.7,8.3"/>
	<line class="st4" x1="137.9" y1="198.3" x2="18.9" y2="198.3"/>
	<path class="st6" d="M19,195.9c133.6-0.1,29.7-188.1,156.2-186"/>
	<circle class="st7" cx="183" cy="9.9" r="8.4"/>
	<circle class="st7" cx="9.9" cy="198.1" r="8.4"/>
	<circle class="st8" cx="143.7" cy="198.5" r="5.8"/>
	<circle class="st8" cx="54.7" cy="7.5" r="5.8"/>
</g>
</svg>
