<?xml version="1.0" encoding="utf-8"?>
<!-- Generator: Adobe Illustrator 18.1.1, SVG Export Plug-In . SVG Version: 6.00 Build 0)  -->
<svg version="1.1" xmlns="http://www.w3.org/2000/svg" xmlns:xlink="http://www.w3.org/1999/xlink" x="0px" y="0px"
	 viewBox="0 0 480 180.5" width="480" height="180.5"  enable-background="new 0 0 480 180.5" xml:space="preserve">
<g id="Layer_1">
	<rect x="66.9" y="14.7" fill="#ECECEC" width="196.2" height="155.1"/>
	<g>
		<g>
			<g>
				<rect x="319" y="71.5" fill="#00B4A0" width="33" height="13"/>
				<g>
					<rect x="318.3" y="89" fill="#E0E0E0" width="29.8" height="2.5"/>
					<rect x="318.3" y="94.8" fill="#E0E0E0" width="29.8" height="2.5"/>
					<rect x="318.3" y="100.7" fill="#E0E0E0" width="28.1" height="2.5"/>
				</g>
				<rect x="325" y="114.5" fill="#00B4A0" width="41" height="13"/>
				<g>
					<rect x="325.1" y="130.1" fill="#E0E0E0" width="39.7" height="2.5"/>
				</g>
				<rect x="323.5" y="53.5" fill="#ECECEC" width="44.5" height="9.2"/>
				<g>
					<rect x="318" y="107.5" fill="#323232" width="56" height="2"/>
				</g>
				<g>
					<rect x="318" y="66.5" fill="#323232" width="55" height="2"/>
				</g>
			</g>
			<rect x="356.2" y="68.5" fill="#E0E0E0" width="15.8" height="39"/>
		</g>
		<path fill="#323232" d="M315,33.8v116.9h62.3V33.8H315z M372,135.5h-53v-85h53V135.5z"/>
		<circle fill="#FFFFFF" cx="345.9" cy="143.2" r="3.3"/>
	</g>
	<g>
		<g>
			<g>
				<path fill="#323232" d="M263.2,173.2H64.4V4.7h198.7V173.2z M67.4,170.2h192.7V7.7H67.4V170.2z"/>
			</g>
		</g>
		<g>
			<rect x="65.5" y="11.5" fill="#323232" width="195.8" height="3"/>
		</g>
	</g>
	<g>
		<g>
			<g>
				<path fill="#323232" d="M417.2,173.2H279.4V4.7h137.8V173.2z M282.4,170.2h131.8V7.7H282.4V170.2z"/>
			</g>
		</g>
	</g>
	<g>
		<rect x="91" y="104.5" fill="#323232" width="96" height="3"/>
	</g>
	<g>
		<rect x="90" y="31.5" fill="#323232" width="78" height="3"/>
	</g>
	<g>
		<rect x="90" y="50.5" fill="#323232" width="135" height="3"/>
	</g>
	<g>
		<rect x="90" y="82.5" fill="#323232" width="75" height="3"/>
	</g>
	<g>
		<rect x="90" y="61.5" fill="#323232" width="78" height="3"/>
	</g>
	<rect x="283" y="8.5" fill="#FFFFFF" width="131" height="3"/>
	<g>
		<rect x="279.4" y="11.5" fill="#323232" width="136.5" height="3"/>
	</g>
</g>
<g id="Layer_3" display="none">
	<g display="inline" opacity="0.2">
		<g>
			<line fill="none" stroke="#00FFFF" stroke-miterlimit="10" x1="-271" y1="130" x2="753" y2="130"/>
		</g>
		<g>
			<line fill="none" stroke="#00FFFF" stroke-miterlimit="10" x1="-271" y1="124" x2="753" y2="124"/>
		</g>
		<g>
			<line fill="none" stroke="#00FFFF" stroke-miterlimit="10" x1="-271" y1="118" x2="753" y2="118"/>
		</g>
		<g>
			<line fill="none" stroke="#00FFFF" stroke-miterlimit="10" x1="-271" y1="112" x2="753" y2="112"/>
		</g>
		<g>
			<line fill="none" stroke="#00FFFF" stroke-miterlimit="10" x1="-271" y1="106" x2="753" y2="106"/>
		</g>
		<g>
			<line fill="none" stroke="#00FFFF" stroke-miterlimit="10" x1="-271" y1="100" x2="753" y2="100"/>
		</g>
		<g>
			<line fill="none" stroke="#00FFFF" stroke-miterlimit="10" x1="-271" y1="94" x2="753" y2="94"/>
		</g>
		<g>
			<line fill="none" stroke="#00FFFF" stroke-miterlimit="10" x1="-271" y1="88" x2="753" y2="88"/>
		</g>
		<g>
			<line fill="none" stroke="#00FFFF" stroke-miterlimit="10" x1="-271" y1="82" x2="753" y2="82"/>
		</g>
		<g>
			<line fill="none" stroke="#00FFFF" stroke-miterlimit="10" x1="-271" y1="76" x2="753" y2="76"/>
		</g>
		<g>
			<line fill="none" stroke="#00FFFF" stroke-miterlimit="10" x1="-271" y1="70" x2="753" y2="70"/>
		</g>
		<g>
			<line fill="none" stroke="#00FFFF" stroke-miterlimit="10" x1="-271" y1="64" x2="753" y2="64"/>
		</g>
		<g>
			<line fill="none" stroke="#00FFFF" stroke-miterlimit="10" x1="-271" y1="58" x2="753" y2="58"/>
		</g>
		<g>
			<line fill="none" stroke="#00FFFF" stroke-miterlimit="10" x1="-271" y1="52" x2="753" y2="52"/>
		</g>
		<g>
			<line fill="none" stroke="#00FFFF" stroke-miterlimit="10" x1="-271" y1="46" x2="753" y2="46"/>
		</g>
		<g>
			<line fill="none" stroke="#00FFFF" stroke-miterlimit="10" x1="-271" y1="40" x2="753" y2="40"/>
		</g>
		<g>
			<line fill="none" stroke="#00FFFF" stroke-miterlimit="10" x1="-271" y1="34" x2="753" y2="34"/>
		</g>
		<g>
			<line fill="none" stroke="#00FFFF" stroke-miterlimit="10" x1="-271" y1="28" x2="753" y2="28"/>
		</g>
		<g>
			<line fill="none" stroke="#00FFFF" stroke-miterlimit="10" x1="-271" y1="22" x2="753" y2="22"/>
		</g>
		<g>
			<line fill="none" stroke="#00FFFF" stroke-miterlimit="10" x1="-271" y1="16" x2="753" y2="16"/>
		</g>
		<g>
			<line fill="none" stroke="#00FFFF" stroke-miterlimit="10" x1="-271" y1="10" x2="753" y2="10"/>
		</g>
		<g>
			<line fill="none" stroke="#00FFFF" stroke-miterlimit="10" x1="-271" y1="4" x2="753" y2="4"/>
		</g>
	</g>
</g>
<g id="Layer_2" display="none">
	<rect x="1" y="-5869.6" display="inline" opacity="8.000000e-02" fill="#00FFFF" width="60" height="15684.4"/>
	<rect x="85" y="-5869.6" display="inline" opacity="8.000000e-02" fill="#00FFFF" width="60" height="15684.4"/>
	<rect x="169" y="-5869.6" display="inline" opacity="8.000000e-02" fill="#00FFFF" width="60" height="15684.4"/>
	<rect x="253" y="-5869.6" display="inline" opacity="8.000000e-02" fill="#00FFFF" width="60" height="15684.4"/>
	<rect x="337" y="-5869.6" display="inline" opacity="8.000000e-02" fill="#00FFFF" width="60" height="15684.4"/>
	<rect x="421" y="-5869.6" display="inline" opacity="8.000000e-02" fill="#00FFFF" width="60" height="15684.4"/>
</g>
<g id="Layer_4" display="none">
</g>
</svg>
