<?xml version="1.0" encoding="utf-8"?>
<!-- Generator: Adobe Illustrator 18.1.1, SVG Export Plug-In . SVG Version: 6.00 Build 0)  -->
<svg version="1.1" xmlns="http://www.w3.org/2000/svg" xmlns:xlink="http://www.w3.org/1999/xlink" x="0px" y="0px"
	 viewBox="0 0 112 153.3" width="112" height="153.3"  enable-background="new 0 0 112 153.3" xml:space="preserve">
<g id="Layer_1">
	<g>
		<g>
			<path fill="#FFFFFF" d="M62,36.8L43.7,41L28.8,62.1l-11.2,38.3l-15.6,28l43.4,22.9l11.1-20.6l3.9-16.1
				C60.5,114.6,62.1,35.9,62,36.8z"/>
			<path fill="#323232" d="M46.1,153.3L0,129l16.3-29.2l11.2-38.4l15.4-21.9l17.8-4l0-0.3l2.1,0l0.4,0.4c0.2,0.3,0.4,0.4,0.4,1.1
				l0,0l0,0.8c0,0.6,0,1.4,0,2.5L61.9,115l-4.1,16.5L46.1,153.3z M4.1,127.8l40.7,21.5l10.3-19.1l3.9-15.8
				c0.1-3.6,1.3-64.1,1.5-75.7l-15.9,3.6L30.2,62.8L19,101l-0.1,0.1L4.1,127.8z"/>
		</g>
		<rect x="49.4" y="0" fill="#323232" width="62.6" height="116"/>
		<rect x="56" y="14.7" fill="#FFFFFF" width="49" height="83"/>
		<circle fill="#FFFFFF" cx="80.9" cy="106.8" r="3.1"/>
		<rect x="59" y="18.6" fill="#ECECEC" width="43.2" height="25.5"/>
		<rect x="58" y="47.7" fill="#00B4A0" width="43" height="12"/>
		<rect x="67" y="62.7" fill="#00B4A0" width="38" height="12"/>
		<rect x="59" y="79.7" fill="#00B4A0" width="44" height="12"/>
		<g>
			<path fill="#FFFFFF" d="M43.3,86.1l24-15l13-6.7c0,0,4.2-0.1,4.7,2.3c0,0,2.6,5.3-5,12.1L64.9,94.3l-1.5,7.5
				c0,0-5.6,15.6-18.5,21.1"/>
			<path fill="#323232" d="M45.4,124.2l-1.2-2.8c11.7-4.9,17.2-18.8,17.7-20.1l1.6-7.8L79,77.7c6.6-5.9,4.7-10.2,4.7-10.4L83.5,67
				c-0.1-0.7-1.8-1-2.8-1.1L68,72.4L44.1,87.3l-1.6-2.5l24.1-15L79.9,63l0.3,0c0.6,0,5.4-0.1,6.2,3.3c0.5,1.2,2.2,6.9-5.4,13.7
				L66.2,95l-1.5,7.3C64.5,102.9,58.8,118.5,45.4,124.2z"/>
		</g>
	</g>
</g>
<g id="Layer_3" display="none">
	<g display="inline" opacity="0.2">
		<g>
			<line fill="none" stroke="#00FFFF" stroke-miterlimit="10" x1="-278" y1="149.2" x2="746" y2="149.2"/>
		</g>
		<g>
			<line fill="none" stroke="#00FFFF" stroke-miterlimit="10" x1="-278" y1="143.2" x2="746" y2="143.2"/>
		</g>
		<g>
			<line fill="none" stroke="#00FFFF" stroke-miterlimit="10" x1="-278" y1="137.2" x2="746" y2="137.2"/>
		</g>
		<g>
			<line fill="none" stroke="#00FFFF" stroke-miterlimit="10" x1="-278" y1="131.2" x2="746" y2="131.2"/>
		</g>
		<g>
			<line fill="none" stroke="#00FFFF" stroke-miterlimit="10" x1="-278" y1="125.2" x2="746" y2="125.2"/>
		</g>
		<g>
			<line fill="none" stroke="#00FFFF" stroke-miterlimit="10" x1="-278" y1="119.2" x2="746" y2="119.2"/>
		</g>
		<g>
			<line fill="none" stroke="#00FFFF" stroke-miterlimit="10" x1="-278" y1="113.2" x2="746" y2="113.2"/>
		</g>
		<g>
			<line fill="none" stroke="#00FFFF" stroke-miterlimit="10" x1="-278" y1="107.2" x2="746" y2="107.2"/>
		</g>
		<g>
			<line fill="none" stroke="#00FFFF" stroke-miterlimit="10" x1="-278" y1="101.2" x2="746" y2="101.2"/>
		</g>
		<g>
			<line fill="none" stroke="#00FFFF" stroke-miterlimit="10" x1="-278" y1="95.2" x2="746" y2="95.2"/>
		</g>
		<g>
			<line fill="none" stroke="#00FFFF" stroke-miterlimit="10" x1="-278" y1="89.2" x2="746" y2="89.2"/>
		</g>
		<g>
			<line fill="none" stroke="#00FFFF" stroke-miterlimit="10" x1="-278" y1="83.2" x2="746" y2="83.2"/>
		</g>
		<g>
			<line fill="none" stroke="#00FFFF" stroke-miterlimit="10" x1="-278" y1="77.2" x2="746" y2="77.2"/>
		</g>
		<g>
			<line fill="none" stroke="#00FFFF" stroke-miterlimit="10" x1="-278" y1="71.2" x2="746" y2="71.2"/>
		</g>
		<g>
			<line fill="none" stroke="#00FFFF" stroke-miterlimit="10" x1="-278" y1="65.2" x2="746" y2="65.2"/>
		</g>
		<g>
			<line fill="none" stroke="#00FFFF" stroke-miterlimit="10" x1="-278" y1="59.2" x2="746" y2="59.2"/>
		</g>
		<g>
			<line fill="none" stroke="#00FFFF" stroke-miterlimit="10" x1="-278" y1="53.2" x2="746" y2="53.2"/>
		</g>
		<g>
			<line fill="none" stroke="#00FFFF" stroke-miterlimit="10" x1="-278" y1="47.2" x2="746" y2="47.2"/>
		</g>
		<g>
			<line fill="none" stroke="#00FFFF" stroke-miterlimit="10" x1="-278" y1="41.2" x2="746" y2="41.2"/>
		</g>
		<g>
			<line fill="none" stroke="#00FFFF" stroke-miterlimit="10" x1="-278" y1="35.2" x2="746" y2="35.2"/>
		</g>
		<g>
			<line fill="none" stroke="#00FFFF" stroke-miterlimit="10" x1="-278" y1="29.2" x2="746" y2="29.2"/>
		</g>
		<g>
			<line fill="none" stroke="#00FFFF" stroke-miterlimit="10" x1="-278" y1="23.2" x2="746" y2="23.2"/>
		</g>
		<g>
			<line fill="none" stroke="#00FFFF" stroke-miterlimit="10" x1="-278" y1="17.2" x2="746" y2="17.2"/>
		</g>
		<g>
			<line fill="none" stroke="#00FFFF" stroke-miterlimit="10" x1="-278" y1="11.2" x2="746" y2="11.2"/>
		</g>
		<g>
			<line fill="none" stroke="#00FFFF" stroke-miterlimit="10" x1="-278" y1="5.2" x2="746" y2="5.2"/>
		</g>
	</g>
</g>
<g id="Layer_2" display="none">
	<rect x="-6" y="-3666.4" display="inline" opacity="8.000000e-02" fill="#00FFFF" width="60" height="15684.4"/>
	<rect x="78" y="-3666.4" display="inline" opacity="8.000000e-02" fill="#00FFFF" width="60" height="15684.4"/>
</g>
<g id="Layer_4" display="none">
</g>
</svg>
