<?xml version="1.0" encoding="utf-8"?>
<!-- Generator: Adobe Illustrator 18.1.1, SVG Export Plug-In . SVG Version: 6.00 Build 0)  -->
<svg version="1.1" xmlns="http://www.w3.org/2000/svg" xmlns:xlink="http://www.w3.org/1999/xlink" x="0px" y="0px"
	 viewBox="0 0 194 156" width="194" height="156"  enable-background="new 0 0 194 156" xml:space="preserve">
<g id="Layer_1">
	<g>
		<g>
			<path fill="#00B29E" d="M142.9,56v-2c9.5,0,15.6-2.1,18.4-6.4c2.6-3.9,2.6-9.1,2.6-14.6c0-5.6,0-11.4,2.9-15.8
				c3.3-4.9,9.9-7.4,20.2-7.4v2c-9.6,0-15.7,2.1-18.6,6.5c-2.6,3.9-2.6,9.1-2.6,14.6c0,5.6,0,11.3-2.9,15.7
				C159.7,53.6,153.1,56,142.9,56z"/>
		</g>
		<g opacity="0.5">
			<path fill="#00B29E" d="M142.9,56v-2c24.6,0,27.5-14.3,30.1-26.9c1.8-8.9,3.5-17.2,13.4-17.2v2c-8.2,0-9.6,6.9-11.4,15.6
				C172.4,40.2,169.1,56,142.9,56z"/>
		</g>
		<g>
			<path fill="#323232" d="M0,0v156h194V6.9v-6V0H0z M2,154V7h134v147H2z M192,154h-54v-51h54V154z M192,101h-54v-8h54V101z M192,91
				h-54v-9h54V91z M192,80h-54v-8h54V80z M192,70h-54v-8h54V70z M192,60h-54V7h54V60z M2,5V2h190v3H2z"/>
			<rect x="50" y="74" fill="#ECECEC" width="39" height="12"/>
			<rect x="50" y="45" fill="#ECECEC" width="39" height="25"/>
			<rect x="50" y="104" fill="#ECECEC" width="39" height="11"/>
			<rect x="60" y="89" fill="#00B4A0" width="39" height="12"/>
			<g>
				<path fill="#323232" d="M95,121H44V39h51V121z M47,118h45V42H47V118z"/>
			</g>
		</g>
	</g>
</g>
<g id="Layer_3" display="none">
	<g display="inline" opacity="0.2">
		<g>
			<line fill="none" stroke="#00FFFF" stroke-miterlimit="10" x1="-246" y1="155.5" x2="778" y2="155.5"/>
		</g>
		<g>
			<line fill="none" stroke="#00FFFF" stroke-miterlimit="10" x1="-246" y1="149.5" x2="778" y2="149.5"/>
		</g>
		<g>
			<line fill="none" stroke="#00FFFF" stroke-miterlimit="10" x1="-246" y1="143.5" x2="778" y2="143.5"/>
		</g>
		<g>
			<line fill="none" stroke="#00FFFF" stroke-miterlimit="10" x1="-246" y1="137.5" x2="778" y2="137.5"/>
		</g>
		<g>
			<line fill="none" stroke="#00FFFF" stroke-miterlimit="10" x1="-246" y1="131.5" x2="778" y2="131.5"/>
		</g>
		<g>
			<line fill="none" stroke="#00FFFF" stroke-miterlimit="10" x1="-246" y1="125.5" x2="778" y2="125.5"/>
		</g>
		<g>
			<line fill="none" stroke="#00FFFF" stroke-miterlimit="10" x1="-246" y1="119.5" x2="778" y2="119.5"/>
		</g>
		<g>
			<line fill="none" stroke="#00FFFF" stroke-miterlimit="10" x1="-246" y1="113.5" x2="778" y2="113.5"/>
		</g>
		<g>
			<line fill="none" stroke="#00FFFF" stroke-miterlimit="10" x1="-246" y1="107.5" x2="778" y2="107.5"/>
		</g>
		<g>
			<line fill="none" stroke="#00FFFF" stroke-miterlimit="10" x1="-246" y1="101.5" x2="778" y2="101.5"/>
		</g>
		<g>
			<line fill="none" stroke="#00FFFF" stroke-miterlimit="10" x1="-246" y1="95.5" x2="778" y2="95.5"/>
		</g>
		<g>
			<line fill="none" stroke="#00FFFF" stroke-miterlimit="10" x1="-246" y1="89.5" x2="778" y2="89.5"/>
		</g>
		<g>
			<line fill="none" stroke="#00FFFF" stroke-miterlimit="10" x1="-246" y1="83.5" x2="778" y2="83.5"/>
		</g>
		<g>
			<line fill="none" stroke="#00FFFF" stroke-miterlimit="10" x1="-246" y1="77.5" x2="778" y2="77.5"/>
		</g>
		<g>
			<line fill="none" stroke="#00FFFF" stroke-miterlimit="10" x1="-246" y1="71.5" x2="778" y2="71.5"/>
		</g>
		<g>
			<line fill="none" stroke="#00FFFF" stroke-miterlimit="10" x1="-246" y1="65.5" x2="778" y2="65.5"/>
		</g>
		<g>
			<line fill="none" stroke="#00FFFF" stroke-miterlimit="10" x1="-246" y1="59.5" x2="778" y2="59.5"/>
		</g>
		<g>
			<line fill="none" stroke="#00FFFF" stroke-miterlimit="10" x1="-246" y1="53.5" x2="778" y2="53.5"/>
		</g>
		<g>
			<line fill="none" stroke="#00FFFF" stroke-miterlimit="10" x1="-246" y1="47.5" x2="778" y2="47.5"/>
		</g>
		<g>
			<line fill="none" stroke="#00FFFF" stroke-miterlimit="10" x1="-246" y1="41.5" x2="778" y2="41.5"/>
		</g>
		<g>
			<line fill="none" stroke="#00FFFF" stroke-miterlimit="10" x1="-246" y1="35.5" x2="778" y2="35.5"/>
		</g>
		<g>
			<line fill="none" stroke="#00FFFF" stroke-miterlimit="10" x1="-246" y1="29.5" x2="778" y2="29.5"/>
		</g>
		<g>
			<line fill="none" stroke="#00FFFF" stroke-miterlimit="10" x1="-246" y1="23.5" x2="778" y2="23.5"/>
		</g>
		<g>
			<line fill="none" stroke="#00FFFF" stroke-miterlimit="10" x1="-246" y1="17.5" x2="778" y2="17.5"/>
		</g>
		<g>
			<line fill="none" stroke="#00FFFF" stroke-miterlimit="10" x1="-246" y1="11.5" x2="778" y2="11.5"/>
		</g>
		<g>
			<line fill="none" stroke="#00FFFF" stroke-miterlimit="10" x1="-246" y1="5.5" x2="778" y2="5.5"/>
		</g>
		<g>
			<line fill="none" stroke="#00FFFF" stroke-miterlimit="10" x1="-246" y1="-0.5" x2="778" y2="-0.5"/>
		</g>
	</g>
</g>
<g id="Layer_2" display="none">
	<rect x="-58" y="-2598.1" display="inline" opacity="8.000000e-02" fill="#00FFFF" width="60" height="15684.4"/>
	<rect x="26" y="-2598.1" display="inline" opacity="8.000000e-02" fill="#00FFFF" width="60" height="15684.4"/>
	<rect x="110" y="-2598.1" display="inline" opacity="8.000000e-02" fill="#00FFFF" width="60" height="15684.4"/>
	<rect x="194" y="-2598.1" display="inline" opacity="8.000000e-02" fill="#00FFFF" width="60" height="15684.4"/>
</g>
<g id="Layer_4" display="none">
</g>
</svg>
