<?xml version="1.0" encoding="utf-8"?>
<!-- Generator: Adobe Illustrator 18.1.1, SVG Export Plug-In . SVG Version: 6.00 Build 0)  -->
<svg version="1.1" xmlns="http://www.w3.org/2000/svg" xmlns:xlink="http://www.w3.org/1999/xlink" x="0px" y="0px"
	 viewBox="0 0 480 210" width="480" height="210"  enable-background="new 0 0 480 210" xml:space="preserve">
<g id="Layer_1">
	<rect x="10.6" y="22.8" fill="#FFFFFF" stroke="#323232" stroke-width="2" stroke-miterlimit="10" width="222.8" height="180.5"/>
	<g>
		<rect x="54" y="51.6" fill="#FFFFFF" stroke="#121212" stroke-width="3" stroke-miterlimit="10" width="190.8" height="121.5"/>
		<rect x="108.1" y="76" fill="#ECECEC" width="35.3" height="34.7"/>
		<rect x="151.7" y="76" fill="#ECECEC" width="35.3" height="34.7"/>
		<line fill="#FFFFFF" stroke="#121212" stroke-width="3" stroke-miterlimit="10" x1="54.3" y1="61.5" x2="245.2" y2="61.5"/>
		<line fill="#FFFFFF" stroke="#121212" stroke-width="3" stroke-miterlimit="10" x1="94.2" y1="62.1" x2="94.2" y2="173.4"/>
		<line fill="#FFFFFF" stroke="#121212" stroke-width="2" stroke-miterlimit="10" x1="54.3" y1="72.3" x2="94.8" y2="72.2"/>
		<line fill="#FFFFFF" stroke="#121212" stroke-width="2" stroke-miterlimit="10" x1="54.4" y1="82.4" x2="94.8" y2="82.4"/>
		<line fill="#FFFFFF" stroke="#121212" stroke-width="2" stroke-miterlimit="10" x1="54.4" y1="92.5" x2="94.8" y2="92.5"/>
		<line fill="#FFFFFF" stroke="#121212" stroke-width="2" stroke-miterlimit="10" x1="54.4" y1="102.6" x2="94.8" y2="102.6"/>
		<rect x="195.3" y="76" fill="#ECECEC" width="35.3" height="34.7"/>
		<rect x="108.1" y="120" fill="#ECECEC" width="35.3" height="34.7"/>
		<rect x="151.7" y="120" fill="#ECECEC" width="35.3" height="34.7"/>
		<rect x="195.3" y="120" fill="#ECECEC" width="35.3" height="34.7"/>
	</g>
	<rect x="247.6" y="22.8" fill="#FFFFFF" stroke="#323232" stroke-width="2" stroke-miterlimit="10" width="222.8" height="180.5"/>
	<g>
		<rect x="343.3" y="51.9" fill="#FFFFFF" stroke="#121212" stroke-width="3" stroke-miterlimit="10" width="86" height="113"/>
		<line fill="#FFFFFF" stroke="#121212" stroke-width="3" stroke-miterlimit="10" x1="372.4" y1="51.6" x2="372.5" y2="164.6"/>
		<rect x="378.4" y="65.5" fill="#ECECEC" width="44.5" height="23"/>
		<rect x="378.5" y="113.5" fill="#ECECEC" width="44.5" height="23"/>
		<line fill="#FFFFFF" stroke="#121212" stroke-width="2" stroke-miterlimit="10" x1="342.9" y1="66.6" x2="371.9" y2="66.6"/>
		<line fill="#FFFFFF" stroke="#121212" stroke-width="2" stroke-miterlimit="10" x1="342.9" y1="72.6" x2="371.9" y2="72.6"/>
		<line fill="#FFFFFF" stroke="#121212" stroke-width="2" stroke-miterlimit="10" x1="342.9" y1="78.6" x2="371.9" y2="78.6"/>
		<line fill="#FFFFFF" stroke="#121212" stroke-width="2" stroke-miterlimit="10" x1="342.9" y1="84.6" x2="371.9" y2="84.6"/>
		<g>
			<rect x="378.4" y="93.8" fill="#ECECEC" width="44.5" height="2.3"/>
			<rect x="378.5" y="99.3" fill="#ECECEC" width="44.5" height="2.3"/>
			<rect x="378.5" y="104.7" fill="#ECECEC" width="41.9" height="2.3"/>
		</g>
		<g>
			<rect x="378.5" y="140.9" fill="#ECECEC" width="44.5" height="2.3"/>
			<rect x="378.5" y="146.4" fill="#ECECEC" width="37.2" height="2.3"/>
		</g>
	</g>
	<rect x="132.4" y="7.5" fill="#FFFFFF" stroke="#323232" stroke-width="2" stroke-miterlimit="10" width="222.8" height="180.5"/>
	<g>
		<path fill="#0D1111" d="M347.7,133.1"/>
		<g>
			<rect x="284.5" y="58.8" fill="none" stroke="#121212" stroke-width="3" stroke-miterlimit="10" width="49" height="83"/>
			<rect x="289" y="76.3" fill="#ECECEC" width="40" height="21"/>
			<g>
				<rect x="288.5" y="110.6" fill="#ECECEC" width="37.2" height="2.3"/>
				<rect x="288.5" y="116.1" fill="#ECECEC" width="37.2" height="2.3"/>
				<rect x="288.5" y="121.6" fill="#ECECEC" width="35" height="2.3"/>
			</g>
			<rect x="288.5" y="63.5" fill="#ECECEC" width="40.2" height="8.6"/>
			<g>
				<rect x="288.5" y="127.5" fill="#ECECEC" width="37.2" height="2.3"/>
				<rect x="288.5" y="132.9" fill="#ECECEC" width="29.6" height="2.3"/>
			</g>
		</g>
		<g>
			<rect x="160" y="81.3" fill="#ECECEC" width="40" height="12"/>
			<rect x="155.5" y="59.8" fill="none" stroke="#121212" stroke-width="3" stroke-miterlimit="10" width="49" height="83"/>
			<g>
				<rect x="160" y="97.6" fill="#ECECEC" width="37.2" height="2.3"/>
				<rect x="160" y="103.1" fill="#ECECEC" width="37.2" height="2.3"/>
				<rect x="160" y="108.6" fill="#ECECEC" width="35" height="2.3"/>
			</g>
			<rect x="160" y="121.3" fill="#ECECEC" width="40" height="12"/>
			<g>
				<rect x="160" y="136.1" fill="#ECECEC" width="37.2" height="2.3"/>
			</g>
			<rect x="159.9" y="64.5" fill="#ECECEC" width="40.2" height="8.6"/>
			<line fill="none" stroke="#121212" stroke-width="2" stroke-miterlimit="10" x1="155" y1="77.3" x2="203" y2="77.3"/>
			<line fill="none" stroke="#121212" stroke-width="2" stroke-miterlimit="10" x1="156" y1="116.3" x2="204" y2="116.3"/>
		</g>
		<g>
			<rect x="220" y="81.3" fill="#00B4A0" width="30" height="12"/>
			<g>
				<rect x="222" y="97.6" fill="#ECECEC" width="25.9" height="2.3"/>
				<rect x="222" y="103.1" fill="#ECECEC" width="25.9" height="2.3"/>
				<rect x="222" y="108.6" fill="#ECECEC" width="24.4" height="2.3"/>
			</g>
			<rect x="225" y="121.3" fill="#00B4A0" width="40" height="12"/>
			<g>
				<rect x="225" y="136.1" fill="#ECECEC" width="37.2" height="2.3"/>
			</g>
			<rect x="224.9" y="64.5" fill="#ECECEC" width="40.2" height="8.6"/>
			<line fill="none" stroke="#121212" stroke-width="2" stroke-miterlimit="10" x1="220" y1="77.3" x2="268" y2="77.3"/>
			<line fill="none" stroke="#121212" stroke-width="2" stroke-miterlimit="10" x1="221" y1="116.3" x2="269" y2="116.3"/>
		</g>
		<rect x="254" y="78.5" fill="#E0E0E0" width="14" height="36.8"/>
		<rect x="288.6" y="101.7" fill="#ECECEC" width="22.3" height="2.3"/>
	</g>
	<g>
		<path fill="#121212" d="M271,144.3h-52v-86h52V144.3z M222,141.3h46v-80h-46V141.3z"/>
	</g>
</g>
<g id="Layer_3" display="none">
	<g display="inline" opacity="0.2">
		<g>
			<line fill="none" stroke="#00FFFF" stroke-miterlimit="10" x1="-272" y1="209.8" x2="752" y2="209.8"/>
		</g>
		<g>
			<line fill="none" stroke="#00FFFF" stroke-miterlimit="10" x1="-272" y1="203.8" x2="752" y2="203.8"/>
		</g>
		<g>
			<line fill="none" stroke="#00FFFF" stroke-miterlimit="10" x1="-272" y1="197.8" x2="752" y2="197.8"/>
		</g>
		<g>
			<line fill="none" stroke="#00FFFF" stroke-miterlimit="10" x1="-272" y1="191.8" x2="752" y2="191.8"/>
		</g>
		<g>
			<line fill="none" stroke="#00FFFF" stroke-miterlimit="10" x1="-272" y1="185.8" x2="752" y2="185.8"/>
		</g>
		<g>
			<line fill="none" stroke="#00FFFF" stroke-miterlimit="10" x1="-272" y1="179.8" x2="752" y2="179.8"/>
		</g>
		<g>
			<line fill="none" stroke="#00FFFF" stroke-miterlimit="10" x1="-272" y1="173.8" x2="752" y2="173.8"/>
		</g>
		<g>
			<line fill="none" stroke="#00FFFF" stroke-miterlimit="10" x1="-272" y1="167.8" x2="752" y2="167.8"/>
		</g>
		<g>
			<line fill="none" stroke="#00FFFF" stroke-miterlimit="10" x1="-272" y1="161.8" x2="752" y2="161.8"/>
		</g>
		<g>
			<line fill="none" stroke="#00FFFF" stroke-miterlimit="10" x1="-272" y1="155.8" x2="752" y2="155.8"/>
		</g>
		<g>
			<line fill="none" stroke="#00FFFF" stroke-miterlimit="10" x1="-272" y1="149.8" x2="752" y2="149.8"/>
		</g>
		<g>
			<line fill="none" stroke="#00FFFF" stroke-miterlimit="10" x1="-272" y1="143.8" x2="752" y2="143.8"/>
		</g>
		<g>
			<line fill="none" stroke="#00FFFF" stroke-miterlimit="10" x1="-272" y1="137.8" x2="752" y2="137.8"/>
		</g>
		<g>
			<line fill="none" stroke="#00FFFF" stroke-miterlimit="10" x1="-272" y1="131.8" x2="752" y2="131.8"/>
		</g>
		<g>
			<line fill="none" stroke="#00FFFF" stroke-miterlimit="10" x1="-272" y1="125.8" x2="752" y2="125.8"/>
		</g>
		<g>
			<line fill="none" stroke="#00FFFF" stroke-miterlimit="10" x1="-272" y1="119.8" x2="752" y2="119.8"/>
		</g>
		<g>
			<line fill="none" stroke="#00FFFF" stroke-miterlimit="10" x1="-272" y1="113.8" x2="752" y2="113.8"/>
		</g>
		<g>
			<line fill="none" stroke="#00FFFF" stroke-miterlimit="10" x1="-272" y1="107.8" x2="752" y2="107.8"/>
		</g>
		<g>
			<line fill="none" stroke="#00FFFF" stroke-miterlimit="10" x1="-272" y1="101.8" x2="752" y2="101.8"/>
		</g>
		<g>
			<line fill="none" stroke="#00FFFF" stroke-miterlimit="10" x1="-272" y1="95.8" x2="752" y2="95.8"/>
		</g>
		<g>
			<line fill="none" stroke="#00FFFF" stroke-miterlimit="10" x1="-272" y1="89.8" x2="752" y2="89.8"/>
		</g>
		<g>
			<line fill="none" stroke="#00FFFF" stroke-miterlimit="10" x1="-272" y1="83.8" x2="752" y2="83.8"/>
		</g>
		<g>
			<line fill="none" stroke="#00FFFF" stroke-miterlimit="10" x1="-272" y1="77.8" x2="752" y2="77.8"/>
		</g>
		<g>
			<line fill="none" stroke="#00FFFF" stroke-miterlimit="10" x1="-272" y1="71.8" x2="752" y2="71.8"/>
		</g>
		<g>
			<line fill="none" stroke="#00FFFF" stroke-miterlimit="10" x1="-272" y1="65.8" x2="752" y2="65.8"/>
		</g>
		<g>
			<line fill="none" stroke="#00FFFF" stroke-miterlimit="10" x1="-272" y1="59.8" x2="752" y2="59.8"/>
		</g>
		<g>
			<line fill="none" stroke="#00FFFF" stroke-miterlimit="10" x1="-272" y1="53.8" x2="752" y2="53.8"/>
		</g>
		<g>
			<line fill="none" stroke="#00FFFF" stroke-miterlimit="10" x1="-272" y1="47.8" x2="752" y2="47.8"/>
		</g>
		<g>
			<line fill="none" stroke="#00FFFF" stroke-miterlimit="10" x1="-272" y1="41.8" x2="752" y2="41.8"/>
		</g>
		<g>
			<line fill="none" stroke="#00FFFF" stroke-miterlimit="10" x1="-272" y1="35.8" x2="752" y2="35.8"/>
		</g>
		<g>
			<line fill="none" stroke="#00FFFF" stroke-miterlimit="10" x1="-272" y1="29.8" x2="752" y2="29.8"/>
		</g>
		<g>
			<line fill="none" stroke="#00FFFF" stroke-miterlimit="10" x1="-272" y1="23.8" x2="752" y2="23.8"/>
		</g>
		<g>
			<line fill="none" stroke="#00FFFF" stroke-miterlimit="10" x1="-272" y1="17.8" x2="752" y2="17.8"/>
		</g>
		<g>
			<line fill="none" stroke="#00FFFF" stroke-miterlimit="10" x1="-272" y1="11.8" x2="752" y2="11.8"/>
		</g>
		<g>
			<line fill="none" stroke="#00FFFF" stroke-miterlimit="10" x1="-272" y1="5.8" x2="752" y2="5.8"/>
		</g>
		<g>
			<line fill="none" stroke="#00FFFF" stroke-miterlimit="10" x1="-272" y1="-0.2" x2="752" y2="-0.2"/>
		</g>
	</g>
</g>
<g id="Layer_2" display="none">
	<rect y="-4277.8" display="inline" opacity="8.000000e-02" fill="#00FFFF" width="60" height="15684.4"/>
	<rect x="84" y="-4277.8" display="inline" opacity="8.000000e-02" fill="#00FFFF" width="60" height="15684.4"/>
	<rect x="168" y="-4277.8" display="inline" opacity="8.000000e-02" fill="#00FFFF" width="60" height="15684.4"/>
	<rect x="252" y="-4277.8" display="inline" opacity="8.000000e-02" fill="#00FFFF" width="60" height="15684.4"/>
	<rect x="336" y="-4277.8" display="inline" opacity="8.000000e-02" fill="#00FFFF" width="60" height="15684.4"/>
	<rect x="420" y="-4277.8" display="inline" opacity="8.000000e-02" fill="#00FFFF" width="60" height="15684.4"/>
</g>
<g id="Layer_4" display="none">
</g>
</svg>
