<?xml version="1.0" encoding="utf-8"?>
<!-- Generator: Adobe Illustrator 18.1.1, SVG Export Plug-In . SVG Version: 6.00 Build 0)  -->
<svg version="1.1" xmlns="http://www.w3.org/2000/svg" xmlns:xlink="http://www.w3.org/1999/xlink" x="0px" y="0px"
	 viewBox="0 0 192 156" width="192" height="156"  enable-background="new 0 0 192 156" xml:space="preserve">
<g id="Layer_1">
	<g>
		<rect x="2" y="6.5" fill="#ECECEC" width="92.1" height="147.5"/>
		<g>
			<g>
				<path fill="#323232" d="M192,156H0V0h192V156z M2,154h188V2H2V154z"/>
			</g>
		</g>
		<g>
			<rect x="94.3" y="5.5" fill="#323232" width="2" height="150"/>
		</g>
		<rect x="123.3" y="45.5" fill="#ECECEC" width="39" height="26"/>
		<rect x="123.3" y="75.5" fill="#ECECEC" width="39" height="12"/>
		<rect x="128.3" y="89.5" fill="#ECECEC" width="39" height="12"/>
		<rect x="133.3" y="103.5" fill="#00B4A0" width="34" height="12"/>
		<g>
			<path fill="#323232" d="M168.3,124.5h-51v-85h51V124.5z M119.3,122.5h47v-81h-47V122.5z"/>
		</g>
		<g>
			<path fill="#323232" d="M175.3,142.5h-64v-118h64V142.5z M113.3,140.5h60v-114h-60V140.5z"/>
		</g>
		<g>
			<path fill="#323232" d="M142.8,137.2c-2.6,0-4.6-2.1-4.6-4.6s2.1-4.6,4.6-4.6s4.6,2.1,4.6,4.6S145.3,137.2,142.8,137.2z
				 M142.8,130.1c-1.3,0-2.4,1.1-2.4,2.4c0,1.3,1.1,2.4,2.4,2.4c1.3,0,2.4-1.1,2.4-2.4C145.1,131.2,144.1,130.1,142.8,130.1z"/>
		</g>
		<g>
			<rect x="1.3" y="4.5" fill="#323232" width="190" height="2"/>
		</g>
		<g>
			<rect x="8.3" y="96.5" fill="#323232" width="55" height="3"/>
		</g>
		<g>
			<rect x="8.3" y="24.5" fill="#323232" width="45" height="3"/>
		</g>
		<g>
			<rect x="8.3" y="42.5" fill="#323232" width="78" height="3"/>
		</g>
		<g>
			<rect x="8.3" y="69.5" fill="#323232" width="43" height="3"/>
		</g>
		<g>
			<rect x="8.3" y="51.5" fill="#323232" width="45" height="3"/>
		</g>
		<g>
			<rect x="8.3" y="33.5" fill="#323232" width="55" height="3"/>
		</g>
		<g>
			<rect x="8.3" y="105.5" fill="#323232" width="45" height="3"/>
		</g>
		<g>
			<rect x="8.3" y="87.5" fill="#323232" width="78" height="3"/>
		</g>
		<g>
			<rect x="8.3" y="60.5" fill="#323232" width="66" height="3"/>
		</g>
		<g>
			<rect x="8.3" y="78.5" fill="#323232" width="45" height="3"/>
		</g>
	</g>
</g>
<g id="Layer_3" display="none">
	<g display="inline" opacity="0.2">
		<g>
			<line fill="none" stroke="#00FFFF" stroke-miterlimit="10" x1="-252.7" y1="152" x2="771.3" y2="152"/>
		</g>
		<g>
			<line fill="none" stroke="#00FFFF" stroke-miterlimit="10" x1="-252.7" y1="146" x2="771.3" y2="146"/>
		</g>
		<g>
			<line fill="none" stroke="#00FFFF" stroke-miterlimit="10" x1="-252.7" y1="140" x2="771.3" y2="140"/>
		</g>
		<g>
			<line fill="none" stroke="#00FFFF" stroke-miterlimit="10" x1="-252.7" y1="134" x2="771.3" y2="134"/>
		</g>
		<g>
			<line fill="none" stroke="#00FFFF" stroke-miterlimit="10" x1="-252.7" y1="128" x2="771.3" y2="128"/>
		</g>
		<g>
			<line fill="none" stroke="#00FFFF" stroke-miterlimit="10" x1="-252.7" y1="122" x2="771.3" y2="122"/>
		</g>
		<g>
			<line fill="none" stroke="#00FFFF" stroke-miterlimit="10" x1="-252.7" y1="116" x2="771.3" y2="116"/>
		</g>
		<g>
			<line fill="none" stroke="#00FFFF" stroke-miterlimit="10" x1="-252.7" y1="110" x2="771.3" y2="110"/>
		</g>
		<g>
			<line fill="none" stroke="#00FFFF" stroke-miterlimit="10" x1="-252.7" y1="104" x2="771.3" y2="104"/>
		</g>
		<g>
			<line fill="none" stroke="#00FFFF" stroke-miterlimit="10" x1="-252.7" y1="98" x2="771.3" y2="98"/>
		</g>
		<g>
			<line fill="none" stroke="#00FFFF" stroke-miterlimit="10" x1="-252.7" y1="92" x2="771.3" y2="92"/>
		</g>
		<g>
			<line fill="none" stroke="#00FFFF" stroke-miterlimit="10" x1="-252.7" y1="86" x2="771.3" y2="86"/>
		</g>
		<g>
			<line fill="none" stroke="#00FFFF" stroke-miterlimit="10" x1="-252.7" y1="80" x2="771.3" y2="80"/>
		</g>
		<g>
			<line fill="none" stroke="#00FFFF" stroke-miterlimit="10" x1="-252.7" y1="74" x2="771.3" y2="74"/>
		</g>
		<g>
			<line fill="none" stroke="#00FFFF" stroke-miterlimit="10" x1="-252.7" y1="68" x2="771.3" y2="68"/>
		</g>
		<g>
			<line fill="none" stroke="#00FFFF" stroke-miterlimit="10" x1="-252.7" y1="62" x2="771.3" y2="62"/>
		</g>
		<g>
			<line fill="none" stroke="#00FFFF" stroke-miterlimit="10" x1="-252.7" y1="56" x2="771.3" y2="56"/>
		</g>
		<g>
			<line fill="none" stroke="#00FFFF" stroke-miterlimit="10" x1="-252.7" y1="50" x2="771.3" y2="50"/>
		</g>
		<g>
			<line fill="none" stroke="#00FFFF" stroke-miterlimit="10" x1="-252.7" y1="44" x2="771.3" y2="44"/>
		</g>
		<g>
			<line fill="none" stroke="#00FFFF" stroke-miterlimit="10" x1="-252.7" y1="38" x2="771.3" y2="38"/>
		</g>
		<g>
			<line fill="none" stroke="#00FFFF" stroke-miterlimit="10" x1="-252.7" y1="32" x2="771.3" y2="32"/>
		</g>
		<g>
			<line fill="none" stroke="#00FFFF" stroke-miterlimit="10" x1="-252.7" y1="26" x2="771.3" y2="26"/>
		</g>
		<g>
			<line fill="none" stroke="#00FFFF" stroke-miterlimit="10" x1="-252.7" y1="20" x2="771.3" y2="20"/>
		</g>
		<g>
			<line fill="none" stroke="#00FFFF" stroke-miterlimit="10" x1="-252.7" y1="14" x2="771.3" y2="14"/>
		</g>
		<g>
			<line fill="none" stroke="#00FFFF" stroke-miterlimit="10" x1="-252.7" y1="8" x2="771.3" y2="8"/>
		</g>
		<g>
			<line fill="none" stroke="#00FFFF" stroke-miterlimit="10" x1="-252.7" y1="2" x2="771.3" y2="2"/>
		</g>
	</g>
</g>
<g id="Layer_2" display="none">
	<rect x="19.3" y="-3309.6" display="inline" opacity="8.000000e-02" fill="#00FFFF" width="60" height="15684.4"/>
	<rect x="103.3" y="-3309.6" display="inline" opacity="8.000000e-02" fill="#00FFFF" width="60" height="15684.4"/>
	<rect x="187.3" y="-3309.6" display="inline" opacity="8.000000e-02" fill="#00FFFF" width="60" height="15684.4"/>
</g>
<g id="Layer_4" display="none">
</g>
</svg>
