<?xml version="1.0" encoding="utf-8"?>
<!-- Generator: Adobe Illustrator 17.1.0, SVG Export Plug-In . SVG Version: 6.00 Build 0)  -->
<!DOCTYPE svg PUBLIC "-//W3C//DTD SVG 1.1//EN" "http://www.w3.org/Graphics/SVG/1.1/DTD/svg11.dtd">
<svg version="1.1" xmlns="http://www.w3.org/2000/svg" xmlns:xlink="http://www.w3.org/1999/xlink" x="0px" y="0px"
	 viewBox="0 0 30 30" width="30" height="30"  enable-background="new 0 0 30 30" xml:space="preserve">
<g id="Layer_1">
	<g>
		<path fill="#E41D32" d="M15,0C8.924,0,4,4.924,4,11s4.924,11,11,11s11-4.924,11-11S21.076,0,15,0z M15,20c-4.963,0-9-4.038-9-9
			s4.037-9,9-9s9,4.038,9,9S19.963,20,15,20z"/>
		<rect x="11" y="23" fill="#E41D32" width="8" height="4"/>
		<path fill="#E41D32" d="M15,30c1.104,0,2-0.896,2-2h-4C13,29.104,13.896,30,15,30z"/>
		<path fill="#E41D32" d="M15,18l4-6h-8L15,18z M15,16.197L12.868,13h4.264L15,16.197z"/>
	</g>
</g>
<g id="Layer_2">
</g>
</svg>
