<?xml version="1.0" encoding="utf-8"?>
<!-- Generator: Adobe Illustrator 17.1.0, SVG Export Plug-In . SVG Version: 6.00 Build 0)  -->
<!DOCTYPE svg PUBLIC "-//W3C//DTD SVG 1.1//EN" "http://www.w3.org/Graphics/SVG/1.1/DTD/svg11.dtd">
<svg version="1.1" xmlns="http://www.w3.org/2000/svg" xmlns:xlink="http://www.w3.org/1999/xlink" x="0px" y="0px"
	 viewBox="0 0 275 240" width="275" height="240"  enable-background="new 0 0 275 240" xml:space="preserve">
<g id="Layer_1">
	<g>
		<polygon fill="#E71D32" points="71.341,1.622 137.333,115.32 203.403,1.622 		"/>
		<polygon fill="#E71D32" points="132.684,123.622 0.661,123.622 66.657,237.246 		"/>
		<polygon fill="#E71D32" points="132.653,117.622 66.68,3.959 0.661,117.622 		"/>
		<polygon fill="#E71D32" points="137.33,125.983 71.294,239.622 203.289,239.622 		"/>
		<polygon fill="#E71D32" points="141.977,123.622 207.99,237.354 274.048,123.622 		"/>
		<polygon fill="#E71D32" points="142.013,117.622 274.048,117.622 208.046,3.988 		"/>
	</g>
	<g>
		<path fill="#FFFFFF" d="M190.514,170.747l3.579,3.579l15.212-15.212l-3.579-3.579L190.514,170.747z M194.093,171.795l-1.049-1.049
			l12.682-12.682l1.049,1.049L194.093,171.795z"/>
		<polygon fill="#FFFFFF" points="216.464,157.324 214.674,157.324 214.674,155.534 208.41,149.271 201.252,149.271
			211.095,159.114 212.884,159.114 212.884,160.904 213.779,161.798 217.359,158.219 		"/>
	</g>
	<polygon fill="#FFFFFF" points="225.058,93.269 208.728,74.086 207.538,75.098 208.192,75.866 193.683,87.99 201.289,88.671
		200.607,96.276 215.192,84.09 223.868,94.282 	"/>
	<g>
		<path fill="#FFFFFF" d="M145.331,39.093l-6.002-6.002l-1.265,1.265l4.736,4.736h-11.787l4.736-4.736l-1.265-1.265l-6.002,6.002
			h-4.998v2.685h1.79l1.79,13.423h19.686l1.79-13.423h1.79v-2.685H145.331z M145.184,53.41h-16.553l-1.313-9.843h19.178
			L145.184,53.41z"/>
		<rect x="132.433" y="45.356" fill="#FFFFFF" width="0.895" height="6.264"/>
		<rect x="135.118" y="45.356" fill="#FFFFFF" width="0.895" height="6.264"/>
		<rect x="137.802" y="45.356" fill="#FFFFFF" width="0.895" height="6.264"/>
		<rect x="140.487" y="45.356" fill="#FFFFFF" width="0.895" height="6.264"/>
	</g>
	<g>
		<path fill="#FFFFFF" d="M134.354,215.713c-6.031,0-10.938-4.906-10.938-10.938c0-2.921,1.138-5.668,3.203-7.735l0.142-0.142
			l1.549,1.549l-0.142,0.142c-1.652,1.652-2.562,3.85-2.562,6.187c0,4.824,3.924,8.748,8.748,8.748s8.748-3.924,8.748-8.748v-11.675
			l-3.642,3.642l-1.548-1.548l6.284-6.285l6.285,6.285l-1.549,1.548l-3.641-3.642v11.675
			C145.292,210.807,140.385,215.713,134.354,215.713z"/>
		<g>
			<circle fill="#FFFFFF" cx="134.354" cy="204.775" r="2.685"/>
		</g>
	</g>
	<g>
		<g>
			<path fill="#FFFFFF" d="M67.557,157.324c-2.471,0-4.474,2.003-4.474,4.474c0,2.471,2.003,4.474,4.474,4.474
				c2.471,0,4.474-2.003,4.474-4.474C72.031,159.328,70.028,157.324,67.557,157.324z M67.557,163.588c-0.988,0-1.79-0.801-1.79-1.79
				c0-0.988,0.801-1.79,1.79-1.79c0.988,0,1.79,0.801,1.79,1.79C69.347,162.787,68.545,163.588,67.557,163.588z"/>
		</g>
		<g>
			<path fill="#FFFFFF" d="M84.667,153.636c-0.486-0.485-1.157-0.786-1.898-0.786H67.557c-2.471,0-4.708,1.001-6.327,2.621
				c-1.62,1.619-2.621,3.856-2.621,6.328c0,2.471,1.001,4.708,2.621,6.328c1.619,1.619,3.856,2.621,6.327,2.621
				c2.471,0,4.704-1.005,6.327-2.621h0l0.004-0.004c2.694-2.683,10.779-10.689,10.779-10.689c0.486-0.485,0.786-1.156,0.786-1.898
				S85.154,154.121,84.667,153.636z M72.623,166.856l-0.001,0.001c-1.36,1.354-3.158,2.099-5.065,2.099
				c-1.912,0-3.71-0.745-5.062-2.097c-1.352-1.351-2.097-3.149-2.097-5.062c0-1.912,0.745-3.71,2.097-5.062
				c1.352-1.352,3.15-2.096,5.062-2.096c1.833,0,3.666,0.701,5.062,2.097C75.409,159.526,75.41,164.065,72.623,166.856z
				 M76.4,163.106c0.398-2.704-0.434-5.554-2.515-7.635c-0.308-0.307-0.637-0.578-0.975-0.831h7.337
				c-0.334,0.945-0.132,2.037,0.624,2.793c0.22,0.22,0.472,0.383,0.738,0.511C80.218,159.321,78.227,161.293,76.4,163.106z
				 M82.769,156.429c-0.494,0-0.895-0.401-0.895-0.895s0.401-0.895,0.895-0.895c0.494,0,0.895,0.401,0.895,0.895
				S83.264,156.429,82.769,156.429z"/>
		</g>
	</g>
	<g>
		<path fill="#FFFFFF" d="M77.714,78.917c1.977,0,3.579-1.603,3.579-3.579s-1.603-3.579-3.579-3.579s-3.579,1.603-3.579,3.579
			S75.737,78.917,77.714,78.917z M77.714,73.548c0.987,0,1.79,0.802,1.79,1.79c0,0.987-0.802,1.79-1.79,1.79
			c-0.987,0-1.79-0.803-1.79-1.79C75.924,74.35,76.726,73.548,77.714,73.548z"/>
		<path fill="#FFFFFF" d="M80.398,80.707h-5.369l-4.474,4.474l-4.474-4.474h-5.369c-0.988,0-1.79,0.801-1.79,1.79v7.159l1.79,1.79
			v6.264c0,0.495,0.4,0.895,0.895,0.895h3.579c0.495,0,0.895-0.4,0.895-0.895V85.181l4.474,4.474l4.474-4.474v12.528
			c0,0.495,0.4,0.895,0.895,0.895h3.579c0.495,0,0.895-0.4,0.895-0.895v-6.264l1.79-1.79v-7.159
			C82.188,81.508,81.387,80.707,80.398,80.707z"/>
		<path fill="#FFFFFF" d="M63.396,78.917c1.977,0,3.579-1.603,3.579-3.579s-1.603-3.579-3.579-3.579s-3.579,1.603-3.579,3.579
			S61.42,78.917,63.396,78.917z M63.396,73.548c0.987,0,1.79,0.802,1.79,1.79c0,0.987-0.802,1.79-1.79,1.79
			c-0.987,0-1.79-0.803-1.79-1.79C61.607,74.35,62.409,73.548,63.396,73.548z"/>
	</g>
</g>
<g id="Layer_2" display="none">
</g>
</svg>
