<?xml version="1.0" encoding="utf-8"?>
<!-- Generator: Adobe Illustrator 17.1.0, SVG Export Plug-In . SVG Version: 6.00 Build 0)  -->
<!DOCTYPE svg PUBLIC "-//W3C//DTD SVG 1.1//EN" "http://www.w3.org/Graphics/SVG/1.1/DTD/svg11.dtd">
<svg version="1.1" xmlns="http://www.w3.org/2000/svg" xmlns:xlink="http://www.w3.org/1999/xlink" x="0px" y="0px"
	 viewBox="0 0 30 30" width="30" height="30"  enable-background="new 0 0 30 30" xml:space="preserve">
<g id="Layer_1">
	<g>
		<path fill="#E41D32" d="M15,8.379c-3.314,0-6,2.685-6,6s2.686,6,6,6c3.315,0,6-2.685,6-6S18.315,8.379,15,8.379z M15,16.379
			c-1.106,0-2-0.895-2-2s0.894-2,2-2s2,0.895,2,2S16.105,16.379,15,16.379z"/>
		<path fill="#E41D32" d="M15,5.379c-6.731,0-11.854,3.625-15,9c3.147,5.375,8.269,9,15,9s11.854-3.625,15-9
			C26.854,9.004,21.73,5.379,15,5.379z M15,21.379c-5.164,0-9.612-2.475-12.642-7c3.029-4.525,7.477-7,12.642-7
			s9.612,2.475,12.642,7C24.612,18.904,20.164,21.379,15,21.379z"/>
	</g>
</g>
<g id="Layer_2">
</g>
</svg>
