<?xml version="1.0" encoding="utf-8"?>
<!-- Generator: Adobe Illustrator 17.1.0, SVG Export Plug-In . SVG Version: 6.00 Build 0)  -->
<!DOCTYPE svg PUBLIC "-//W3C//DTD SVG 1.1//EN" "http://www.w3.org/Graphics/SVG/1.1/DTD/svg11.dtd">
<svg version="1.1" id="Layer_1" xmlns="http://www.w3.org/2000/svg" xmlns:xlink="http://www.w3.org/1999/xlink" x="0px" y="0px"
	 viewBox="0 0 131.773 161.791" width="131.773" height="161.791"  enable-background="new 0 0 131.773 161.791" xml:space="preserve">
<g>
	<g>
		<g>
			<path fill="#9E1F25" d="M53.832,43.32c-19.135,0-34.643,15.508-34.643,34.643c0,0.012,0.001,0.025,0.001,0.037h3.464
				c0-0.012-0.001-0.025-0.001-0.037c0-17.192,13.986-31.179,31.179-31.179c17.193,0,31.179,13.987,31.179,31.179
				c0,17.192-13.986,31.179-31.179,31.179c-8.076,0-15.444-3.087-20.987-8.142h-4.879c6.345,7.119,15.579,11.606,25.867,11.606
				c19.135,0,34.643-15.508,34.643-34.643S72.967,43.32,53.832,43.32z"/>
		</g>
	</g>
	<path fill="#9E1F25" d="M95.404,133.392c0-1.752-0.339-3.421-0.932-4.963c-0.584,0.377-1.16,0.764-1.729,1.161
		c0.426-0.731,0.85-1.464,1.282-2.192c-1.108-2.301-2.824-4.249-4.952-5.63c-1.182,1.249-2.383,2.476-3.611,3.67
		c-0.171-0.215-0.337-0.431-0.524-0.641c-0.404-0.456-1.19-0.662-1.766-0.467c-0.416,0.141-0.821,0.297-1.224,0.457
		c0.838-1.654,1.704-3.292,2.588-4.92c-0.964-0.212-1.962-0.332-2.99-0.332h-3.283c-0.507,0.635-1.012,1.271-1.522,1.903
		c0.015-0.046,0.031-0.092,0.046-0.138c0.222-0.693-0.044-1.335-0.514-1.765H65.145c-0.587,0.576-1.172,1.156-1.755,1.737
		c0.26-0.435,0.525-0.871,0.783-1.304c0.084-0.141,0.136-0.286,0.175-0.432H53.101c-1.789,1.271-3.542,2.608-5.27,3.994
		c-0.831,0.353-1.649,0.737-2.449,1.162c0.936-1.308,1.847-2.637,2.713-4.003c0.256-0.405,0.327-0.797,0.277-1.153h-9.299
		c-0.995,1.084-1.992,2.166-2.991,3.247c0.686-1.052,1.339-2.129,1.939-3.247H26.267c-2.073,2.745-4.131,5.525-6.099,8.364
		c-0.739,0.682-1.469,1.371-2.19,2.072c0.708-1.594,1.514-3.134,2.476-4.59c1.113-1.343,2.183-2.664,3.167-3.965
		c0.431-0.57,0.396-1.171,0.114-1.662c-6.515,1.132-11.474,6.8-11.474,13.638v13.857h13.726c0.714-0.798,1.431-1.593,2.152-2.385
		c1.121-0.884,2.231-1.787,3.333-2.705c-0.761,1.681-1.482,3.379-2.175,5.089h3.909c1.565-3.743,3.308-7.411,5.17-11.025
		c3.774-3.305,7.54-6.623,11.431-9.714c0.626-0.237,1.26-0.438,1.9-0.617c-6.225,6.367-11.438,13.897-16.112,21.355h9.557
		c0.065-0.074,0.131-0.147,0.196-0.222c-0.004,0.076,0.003,0.149,0.009,0.222H65.86c0.504-0.999,1.001-2.001,1.492-3.006
		c0.107-0.177,0.211-0.356,0.319-0.532c2.25-1.633,4.439-3.441,6.549-5.25c0.308,0.008,0.639-0.072,0.977-0.278
		c0.578-0.351,1.139-0.721,1.701-1.091c-1.461,2.441-2.841,4.926-3.736,7.681c-0.501,1.541,1.337,2.834,2.667,2.05
		c1.814-1.07,3.539-2.262,5.22-3.515c-0.682,1.312-1.372,2.62-2.038,3.941h16.392V133.392z M94.874,139.336
		c-0.013,0.017-0.025,0.035-0.038,0.052c-0.175-0.049-0.353-0.077-0.533-0.073c0.301-0.477,0.602-0.954,0.91-1.427
		C95.101,138.364,94.988,138.846,94.874,139.336z M91.712,124.204c-1.244,2.079-2.465,4.17-3.667,6.272
		c-0.182-0.641-0.404-1.271-0.674-1.887C88.852,127.167,90.296,125.701,91.712,124.204z M76.434,127.769
		c-0.179,0.126-0.354,0.258-0.53,0.388c0.274-0.331,0.55-0.661,0.824-0.994C76.63,127.366,76.531,127.567,76.434,127.769z
		 M68.437,128.244c0.978-0.942,1.995-1.843,3.055-2.701c-0.516,1.407-1.056,2.802-1.612,4.19
		c-4.524,5.322-9.187,10.524-13.983,15.609c0.594-1.164,1.212-2.315,1.852-3.455C61.452,137.453,64.996,132.889,68.437,128.244z
		 M22.793,133.11c-1.642,1.705-3.301,3.397-4.933,5.113c0.506-0.889,1.031-1.768,1.567-2.642
		C20.602,134.832,21.719,134.002,22.793,133.11z M48.838,134.557c-0.585,1.12-1.205,2.223-1.856,3.312
		c-0.789,0.778-1.579,1.555-2.376,2.324C45.962,138.276,47.368,136.388,48.838,134.557z M53.832,136.153
		c0.221-0.224,0.443-0.446,0.663-0.671c-0.367,0.493-0.73,0.988-1.095,1.482C53.544,136.695,53.686,136.423,53.832,136.153z
		 M63.748,142.195c0.353-0.389,0.7-0.783,1.052-1.173c-0.165,0.27-0.33,0.539-0.493,0.811
		C64.121,141.957,63.935,142.075,63.748,142.195z M84.502,131.231c0.422,1.391,0.539,2.88,0.463,4.393
		c-1.917,1.568-3.839,3.131-5.825,4.608c1.631-2.947,3.545-5.754,5.09-8.758C84.321,131.393,84.411,131.311,84.502,131.231z
		 M88.619,137.275c1.79-1.452,3.598-2.878,5.471-4.21c-2.378,3.414-4.535,6.987-6.617,10.622
		C88.04,141.532,88.456,139.379,88.619,137.275z"/>
	<path fill-rule="evenodd" clip-rule="evenodd" fill="#ED3640" d="M86.63,41.379c0.587-0.301,1.055,0.946,1.263,0
		C87.7,41.287,86.679,40.593,86.63,41.379z M74.637,41.695c0.08,0.722,1.005,0.835,0.947,0.316
		C75.562,41.809,74.555,40.949,74.637,41.695z M70.219,44.22c0.787-0.224,1.296,1.39,1.895,0.316
		C71.623,44.464,70.64,43.322,70.219,44.22z M60.752,44.851c0.353-0.031,0.49,0.46,0.63,0C61.378,44.532,60.83,44.454,60.752,44.851
		z M62.96,48.323c0.371-0.05,0.896,0.054,0.947-0.316C63.536,48.056,63.011,47.952,62.96,48.323z M32.346,49.901
		c0.317-0.001,0.376,0.256,0.632,0.315c-0.001-0.316,0.256-0.376,0.316-0.631c-0.317,0.001-0.376-0.255-0.631-0.316
		C32.663,49.586,32.406,49.645,32.346,49.901z M38.343,50.216c0.211,0,0.421,0,0.631,0c0-0.21,0-0.421,0-0.631
		c-0.21,0-0.421,0-0.631,0C38.343,49.795,38.343,50.006,38.343,50.216z M36.45,50.216c0.37-0.049,0.895,0.055,0.946-0.315
		C37.026,49.949,36.5,49.846,36.45,50.216z M51.598,49.901c-0.491,0.777,1.073,0.928,0.947,0.315
		C52.142,50.198,52.108,49.811,51.598,49.901z M70.535,50.216c0.066,0.382,0.35,0.194,0.631,0
		C71.162,49.899,70.613,49.82,70.535,50.216z M45.286,50.532c-0.354,0.031-0.49-0.46-0.631,0
		C44.658,50.85,45.209,50.929,45.286,50.532z M50.336,50.532c-0.004-0.319-0.553-0.397-0.631,0
		C50.058,50.5,50.196,50.991,50.336,50.532z M23.509,50.847c-0.004-0.319-0.555-0.396-0.632,0
		C22.945,51.229,23.227,51.042,23.509,50.847z M63.591,50.847c0.459-0.172,1.631,0.369,1.579-0.315
		C64.711,50.705,63.538,50.163,63.591,50.847z M27.296,52.11c-0.542-0.016-0.808,0.243-0.946,0.631
		C26.892,52.759,27.159,52.498,27.296,52.11z M31.084,52.11C31.083,53.768,32.412,52.44,31.084,52.11L31.084,52.11z M23.509,53.057
		c0.293,0.421-0.689,0.889-0.632,0.947C23.371,54.496,24.53,53.584,23.509,53.057z M60.435,53.688c-0.21,0-0.421,0-0.631,0
		C59.106,54.621,60.358,54.832,60.435,53.688z M64.538,54.635c0.354-0.031,0.491,0.459,0.632,0
		C65.165,54.317,64.616,54.238,64.538,54.635z M85.684,55.266c-0.756,0.126,0.174-1.437-0.947-0.947
		C84.658,54.865,85.331,56.189,85.684,55.266z M80.634,54.635c-0.371,0.05-0.896-0.054-0.947,0.316
		C80.058,54.901,80.583,55.005,80.634,54.635z M34.24,56.528c-0.108,0.202,0.143,0.324,0.316,0.316
		C35.532,56.8,34.788,55.51,34.24,56.528z M58.226,57.159c0.371-0.048,0.896,0.055,0.947-0.315
		C58.801,56.893,58.277,56.79,58.226,57.159z M80.951,56.844c0.034,0.785,0.591,0.977,0,1.578c0.21,0,0.419,0,0.63,0
		c0.194-0.019,0.375-0.048,0.317-0.316C81.246,58.02,81.822,56.709,80.951,56.844z M26.034,57.159
		C24.41,57.923,27.12,57.975,26.034,57.159L26.034,57.159z M23.824,58.422c0.193,0.018,0.375,0.047,0.316,0.315
		c0.21,0,0.421,0,0.631,0C25.261,57.961,23.7,57.809,23.824,58.422z M84.106,61.578c0.354-0.031,0.491,0.46,0.631,0
		C84.734,61.26,84.184,61.181,84.106,61.578z M27.296,62.525c-0.37,0.05-0.895-0.054-0.946,0.316
		C26.721,62.792,27.245,62.895,27.296,62.525z M20.353,64.103c0.017-0.543-0.243-0.81-0.631-0.947
		C19.27,63.618,19.48,64.156,20.353,64.103z M30.768,63.472c-0.046,0.331,0.245,0.815,0.316,0.316
		C31.131,63.456,30.84,62.973,30.768,63.472z M29.821,63.787c0.354-0.032,0.492,0.459,0.631,0
		C30.449,63.469,29.899,63.39,29.821,63.787z M16.251,65.05c-0.11,0.202,0.142,0.323,0.315,0.315
		C17.542,65.321,16.799,64.032,16.251,65.05z M16.882,66.313c0.653-0.999,1.629,0.154,1.893-0.948
		C17.79,65.141,15.817,65.53,16.882,66.313z M18.459,66.943C17.696,68.003,19.518,66.18,18.459,66.943L18.459,66.943z
		 M24.456,71.993c0.132-0.711,1.731,0.048,1.578-0.947C25.605,71.279,23.379,71.297,24.456,71.993z M88.524,73.255
		c0.373-0.049,0.896,0.055,0.946-0.315C89.1,72.99,88.575,72.885,88.524,73.255z M89.471,73.886c-0.21,0-0.421,0-0.63,0
		c0,0.21,0,0.422,0,0.632c0.209,0,0.419,0,0.63,0C89.471,74.308,89.471,74.097,89.471,73.886z M76.847,77.043
		c-0.004-0.319-0.554-0.397-0.632,0C76.57,77.01,76.708,77.502,76.847,77.043z M87.894,77.043c-0.372,0.049-0.896-0.055-0.948,0.315
		C87.318,77.31,87.843,77.413,87.894,77.043z M18.775,77.99C17.267,77.111,18.01,79.025,18.775,77.99L18.775,77.99z M84.106,78.305
		c-0.354,0.032-0.492-0.458-0.632,0C83.479,78.624,84.028,78.703,84.106,78.305z M87.894,80.199
		c-0.598,0.071-0.697-0.355-1.263-0.316C86.125,80.762,87.994,80.756,87.894,80.199z M89.156,83.355
		c0.354-0.033,0.491,0.458,0.632,0C89.783,83.037,89.234,82.959,89.156,83.355z M84.737,87.142
		C83.974,88.202,85.795,86.379,84.737,87.142L84.737,87.142z M80.004,89.352C79.241,90.41,81.062,88.589,80.004,89.352
		L80.004,89.352z M74.953,95.032c0.791-0.417,0.766,1.47,1.262,0.316C76.017,95.174,75.262,94.066,74.953,95.032z M85.999,97.557
		c1.067-0.365,1.347,0.224,1.895-0.315C87.384,96.704,86.267,96.953,85.999,97.557z M32.031,98.821
		c-0.004-0.319-0.554-0.398-0.631,0C31.466,99.202,31.75,99.014,32.031,98.821z M79.372,99.451c0.372-0.05,0.896,0.054,0.948-0.316
		C79.948,99.186,79.423,99.081,79.372,99.451z M36.45,100.399c0.543,0.016,0.808-0.245,0.946-0.632
		C36.901,99.798,36.301,99.725,36.45,100.399z M73.06,100.714c-0.355,0.031-0.492-0.459-0.631,0
		C72.432,101.033,72.981,101.111,73.06,100.714z M35.503,101.029c-0.004-0.319-0.554-0.397-0.631,0
		C34.937,101.411,35.221,101.223,35.503,101.029z M40.236,103.554c-0.543-0.017-0.81,0.243-0.946,0.632
		C39.833,104.202,40.099,103.943,40.236,103.554z M75.9,104.816c-0.491,0.777,1.073,0.928,0.947,0.316
		C76.443,105.115,76.41,104.728,75.9,104.816z M74.007,105.133c-0.373,0.049-0.897-0.056-0.947,0.315
		C73.431,105.399,73.956,105.502,74.007,105.133z M37.712,106.08C38.774,107.037,38.669,104.913,37.712,106.08L37.712,106.08z
		 M28.559,106.711c0.139,1.107,0.666,1.337,1.578,0.947C30.282,106.671,29.463,106.648,28.559,106.711z M57.595,106.711
		c-0.354,0.454-0.34,0.77,0.316,0.947c-0.013-0.435,0.148-0.693,0.316-0.947C58.016,106.711,57.806,106.711,57.595,106.711z
		 M42.446,107.026c-0.372,0.049-0.896-0.055-0.947,0.316C41.87,107.292,42.395,107.396,42.446,107.026z M45.918,107.341
		C44.316,106.48,44.742,108.444,45.918,107.341L45.918,107.341z M59.804,108.289c1.062,0.723,2.066,0.427,3.156-0.316
		C61.455,108.26,60.673,107.835,59.804,108.289z M73.375,108.604C71.354,108.24,72.682,109.568,73.375,108.604L73.375,108.604z
		 M53.176,109.551C52.413,110.609,54.235,108.788,53.176,109.551L53.176,109.551z M37.081,110.813
		c0.191,0.019,0.373,0.048,0.315,0.316c0.21,0,0.421,0,0.632,0C38.517,110.352,36.955,110.201,37.081,110.813z M58.226,112.706
		C56.205,112.342,57.533,113.671,58.226,112.706L58.226,112.706z M48.127,113.654c0.004-0.522,0.875-0.177,0.946-0.631
		C48.43,112.753,47.112,113.297,48.127,113.654z M46.864,114.601C45.589,113.49,46.12,115.617,46.864,114.601L46.864,114.601z
		 M38.658,114.916c0.372-0.048,0.897,0.055,0.947-0.315C39.234,114.65,38.709,114.546,38.658,114.916z M29.821,40.748
		c-0.432,0.25-0.053,0.322,0.316,0C30.514,40.418,30.211,40.523,29.821,40.748z M44.34,40.748c0.376-0.329,0.073-0.224-0.317,0
		C43.593,40.998,43.972,41.07,44.34,40.748z M78.109,41.064c-1.328,0.546-0.837,0.549-0.316,0.315
		C78.322,41.144,79.236,40.6,78.109,41.064z M65.485,41.379c-0.431,0.251-0.053,0.322,0.316,0
		C66.177,41.05,65.875,41.154,65.485,41.379z M58.541,45.167c0.176,0,0.359-0.256,0-0.316c-0.066,0.381-0.35,0.194-0.631,0
		C57.64,46.208,60.063,45.878,58.541,45.167z M72.744,50.847C71.46,49.989,71.148,51.638,72.744,50.847L72.744,50.847z
		 M19.091,54.004c0.287-0.072,1.076-1.699,0-0.316C19.142,53.622,18.585,54.129,19.091,54.004z M81.265,55.266
		c-0.346-0.248,0.782-0.216,0.632,0c0.519-0.749-0.658-0.309-0.632-0.315C80.99,55.02,81.026,55.095,81.265,55.266z M26.666,60
		c0.316,0.001,0.376-0.254,0.63-0.315c0,0.175,0.256,0.358,0.317,0C27.43,59.098,25.911,59.822,26.666,60z M77.162,60.631
		c0.558-0.091,0.978,1.486,1.263,0.632C77.799,61.423,77.703,59.522,77.162,60.631z M25.403,67.259
		c-0.417-0.791,1.47-0.766,0.316-1.263C25.577,66.695,24.072,66.786,25.403,67.259z M79.687,71.046c0.377-0.33,0.073-0.225-0.316,0
		C78.941,71.297,79.32,71.369,79.687,71.046z M78.425,95.979c0.376-0.329,0.074-0.225-0.316,0
		C77.677,96.229,78.057,96.301,78.425,95.979z M75.584,96.295c-0.08,0.04-0.227-0.023-0.315,0c-0.391,0.105-0.109,0.529,0.315,0.316
		C75.82,96.494,76.064,96.056,75.584,96.295z M80.951,96.295c-0.807,0.035-1.105,0.579-1.579,0.948
		C80.433,97.462,80.406,96.593,80.951,96.295z M82.528,99.136c0.236-0.118,0.48-0.556,0-0.315c-0.081,0.04-0.227-0.023-0.316,0
		C81.822,98.924,82.104,99.348,82.528,99.136z M38.343,109.236c0.873,0.416,1.084-1.248,0.631-0.316
		C38.532,108.896,37.767,108.99,38.343,109.236z M54.754,109.866C52.925,110.021,53.923,111.02,54.754,109.866L54.754,109.866z
		 M51.913,111.444c0.538,1.067,2.57-0.582,1.579,0C52.567,111.532,52.319,110.181,51.913,111.444z M41.183,112.706
		c0.004-0.416,0.554-0.289,0.631-0.631C40.601,111.488,40.943,112.316,41.183,112.706z M35.187,113.654
		c-0.262,0.209,0.582,0.291,0.631,0.316C36.717,114.418,35.504,113.4,35.187,113.654z"/>
	<path fill-rule="evenodd" clip-rule="evenodd" fill="#ED3640" d="M81.816,90.703c0.095,0.855,1.19,0.989,1.122,0.375
		C82.912,90.839,81.719,89.82,81.816,90.703z M31.712,100.426c0.376-0.002,0.446,0.303,0.749,0.373
		c-0.002-0.375,0.303-0.445,0.374-0.748c-0.376,0.002-0.446-0.302-0.747-0.374C32.088,100.052,31.784,100.123,31.712,100.426z
		 M76.957,100.799c0.079,0.453,0.415,0.23,0.747,0C77.699,100.423,77.049,100.33,76.957,100.799z M68.73,101.547
		c0.544-0.204,1.932,0.437,1.87-0.373C70.056,101.378,68.667,100.736,68.73,101.547z M30.218,103.042
		C30.216,105.007,31.79,103.433,30.218,103.042L30.218,103.042z M69.852,106.034c0.419-0.037,0.582,0.544,0.749,0
		C70.595,105.657,69.945,105.564,69.852,106.034z M33.956,108.277c-0.128,0.24,0.17,0.384,0.375,0.375
		C35.487,108.599,34.606,107.071,33.956,108.277z M35.826,109.024c-0.166-0.123,0.603-0.48,0.749,0
		C36.894,107.624,34.529,108.052,35.826,109.024z M39.191,109.024c0.441-0.057,1.063,0.065,1.122-0.373
		C39.873,108.709,39.251,108.587,39.191,109.024z M62.374,109.024c0.44-0.057,1.061,0.065,1.122-0.373
		C63.055,108.709,62.435,108.587,62.374,109.024z M52.651,110.894c0.23,0.109,1.44,0.931,1.497,0
		C53.45,111.252,52.898,109.775,52.651,110.894z M40.687,112.764C39.176,111.449,39.806,113.967,40.687,112.764L40.687,112.764z
		 M59.383,115.382c0.227-0.021,0.441-0.055,0.373-0.374c-0.495-0.004-0.342-0.655-0.749-0.748c0.017,0.516-0.175,0.821-0.373,1.122
		C58.884,115.382,59.134,115.382,59.383,115.382z M79.948,119.494c-1.021-0.033-0.754,0.623-1.497,0
		C78.092,120.84,80.133,120.224,79.948,119.494z M64.991,120.616c0.229,0.023,0.442,0.056,0.376,0.375c0.248,0,0.496,0,0.746,0
		C66.694,120.07,64.844,119.891,64.991,120.616z M33.209,124.729c-0.494-0.004-0.341-0.654-0.748-0.747
		C32.033,124.748,33.047,125.763,33.209,124.729z M22.365,126.599c0.156-0.842,2.051,0.056,1.87-1.122
		C23.726,125.753,21.089,125.774,22.365,126.599z M69.479,126.225c-0.25,0-0.499,0-0.749,0c0,0.25,0,0.499,0,0.747
		c0.249,0,0.498,0,0.749,0C69.479,126.724,69.479,126.475,69.479,126.225z M72.844,127.721c0.643,0.02,0.957-0.288,1.122-0.749
		C73.377,127.008,72.669,126.923,72.844,127.721z M80.695,127.721c0.441-0.058,1.061,0.065,1.121-0.373
		C81.377,127.405,80.756,127.282,80.695,127.721z M33.582,129.59C34.842,130.726,34.716,128.208,33.582,129.59L33.582,129.59z
		 M67.982,132.208c0.44-0.059,1.061,0.063,1.122-0.374C68.664,131.893,68.043,131.771,67.982,132.208z M23.861,132.208
		c-0.544,0.204-1.933-0.437-1.87,0.374C22.535,132.376,23.923,133.018,23.861,132.208z M49.66,132.208c-0.247,0-0.498,0-0.747,0
		c0,0.248,0,0.498,0,0.747c0.249,0,0.499,0,0.747,0C49.66,132.706,49.66,132.456,49.66,132.208z M63.496,132.582
		c0.004,0.377,0.655,0.469,0.747,0C63.824,132.619,63.661,132.037,63.496,132.582z M84.435,132.582c-0.004-0.378-0.656-0.47-0.749,0
		C84.107,132.543,84.269,133.125,84.435,132.582z M53.026,133.33c0.44-0.059,1.061,0.064,1.122-0.375
		C53.707,133.014,53.087,132.892,53.026,133.33z M15.635,133.704C13.848,132.662,14.729,134.929,15.635,133.704L15.635,133.704z
		 M27.975,134.077c0.248,0,0.498,0,0.747,0c0-0.249,0-0.499,0-0.747c-0.249,0-0.499,0-0.747,0
		C27.975,133.578,27.975,133.828,27.975,134.077z M74.338,134.077c0.249,0,0.5,0,0.749,0c0-0.249,0-0.499,0-0.747
		c-0.249,0-0.499,0-0.749,0C74.338,133.578,74.338,133.828,74.338,134.077z M93.035,134.077c-0.419,0.038-0.583-0.543-0.749,0
		C92.292,134.454,92.942,134.548,93.035,134.077z M45.922,134.452c0.227,0.021,0.442,0.055,0.373,0.373c0.249,0,0.499,0,0.748,0
		C47.625,133.905,45.773,133.725,45.922,134.452z M61.626,134.452c0.419-0.039,0.582,0.543,0.748,0
		C62.369,134.073,61.719,133.98,61.626,134.452z M35.826,134.825c-0.44,0.06-1.061-0.065-1.121,0.374
		C35.144,135.141,35.765,135.264,35.826,134.825z M44.426,135.199c-0.44,0.059-1.061-0.063-1.122,0.375
		C43.744,135.514,44.365,135.637,44.426,135.199z M76.957,136.32c-0.249,0-0.499,0-0.749,0c0,0.249,0,0.499,0,0.748
		c0.249,0,0.5,0,0.749,0C76.957,136.819,76.957,136.57,76.957,136.32z M46.67,136.694C44.275,136.264,45.849,137.837,46.67,136.694
		L46.67,136.694z M26.105,139.312c0.078,0.452,0.415,0.229,0.747,0C26.848,138.935,26.197,138.842,26.105,139.312z M27.599,139.312
		c0.441-0.059,1.061,0.065,1.123-0.374C28.282,138.996,27.661,138.873,27.599,139.312z M61.253,138.938
		c-0.022,0.479-0.48,0.518-0.376,1.122C61.798,140.642,61.978,138.789,61.253,138.938z M29.096,139.686
		c0.419-0.038,0.582,0.544,0.747,0C29.838,139.309,29.188,139.215,29.096,139.686z M87.426,139.686
		c-1.398-0.158-1.15,1.119-0.374,1.496C87.17,140.675,87.585,140.468,87.426,139.686z M79.2,141.556
		c-0.065-1.182-1.478-1.013-2.618-1.123C76.671,141.914,78.115,142.038,79.2,141.556z M48.913,141.182
		c-0.441,0.059-1.062-0.064-1.121,0.374C48.232,141.497,48.852,141.62,48.913,141.182z M71.348,141.93
		C73.868,141.205,70.229,140.75,71.348,141.93L71.348,141.93z M79.948,143.424c0.598-1.04-1.615-1.033-1.497-0.373
		C79.159,142.967,79.278,143.473,79.948,143.424z M93.782,144.546C92.878,145.801,95.036,143.642,93.782,144.546L93.782,144.546z
		 M61.253,145.668c0.078,0.452,0.415,0.229,0.747,0C61.996,145.292,61.345,145.198,61.253,145.668z M38.07,146.416
		C36.809,145.28,36.936,147.798,38.07,146.416L38.07,146.416z M68.355,147.165c-0.112-0.737,0.506-0.742,0.749-1.123
		C67.785,145.717,67.131,146.956,68.355,147.165z M33.582,147.165c1.104,0.826,1.356-0.656,0-0.749
		C33.582,146.665,33.582,146.915,33.582,147.165z M88.174,147.165C87.271,148.418,89.428,146.26,88.174,147.165L88.174,147.165z
		 M28.722,89.581c-0.512,0.296-0.063,0.382,0.374,0C29.542,89.191,29.183,89.316,28.722,89.581z M85.93,89.956
		c-1.574,0.647-0.992,0.65-0.374,0.373C86.182,90.051,87.265,89.406,85.93,89.956z M79.574,101.547
		C78.052,100.53,77.683,102.483,79.574,101.547L79.574,101.547z M66.487,114.634c-0.525-0.029-1.431,0.082-0.748,0.373
		C66.774,115.501,67.023,113.529,66.487,114.634z M67.234,120.616c0.762,0.218,0.706-0.643,1.121-0.746
		c-0.108,0.026,1.126,0.825,1.124,0c-1.11-0.262-1.845-0.451-2.244,0c0.229,0.02,0.443,0.055,0.375,0.373
		C67.381,120.264,67.165,120.298,67.234,120.616z M72.844,120.991c-1.744-0.266-1.744,0.638,0,0.373
		C72.99,120.958,73.292,120.467,72.844,120.991z M35.078,124.355c0.021-0.477,0.48-0.518,0.375-1.121
		c-0.56-0.593-1.53-0.275-1.871,0.373C35.309,123.311,34.652,124.024,35.078,124.355z M44.426,124.355
		c-0.095,0.049-0.268-0.027-0.373,0c-0.463,0.124-0.129,0.626,0.373,0.374C44.705,124.59,44.994,124.072,44.426,124.355z
		 M87.799,125.477c0.447-0.391,0.087-0.267-0.374,0C86.915,125.774,87.364,125.86,87.799,125.477z M60.13,127.348
		c0.28-0.14,0.568-0.66,0-0.376c-0.096,0.048-0.269-0.027-0.374,0C59.293,127.097,59.628,127.598,60.13,127.348z M40.101,131.824
		c0.082,0.002,0.157,0.006,0.211,0.01C40.236,131.767,40.163,131.78,40.101,131.824z M40.101,131.824
		c-0.34-0.001-0.774,0.062-0.162,0.384C39.886,132.179,39.968,131.92,40.101,131.824z M77.331,133.704
		c-1.275-0.688-1.766-0.198-0.374,0.373C76.978,134.471,77.435,134.372,77.331,133.704z M27.226,135.573
		c0.006-0.617,1.038-0.209,1.122-0.749C27.584,134.504,26.288,135.413,27.226,135.573z M22.74,137.816
		c0.598,0.292,0.544,0.257,1.122,0C24.862,137.372,22.273,137.496,22.74,137.816z M48.165,138.565
		c0.616-0.889-0.779-0.367-0.748-0.375c-0.325,0.081-0.282,0.171,0,0.375C47.006,138.272,48.343,138.307,48.165,138.565z
		 M54.148,138.565c0.073,0.042,0.359,0.683,0.746,0.373C55.156,138.73,52.708,137.731,54.148,138.565z M42.182,138.938
		C44.281,140.494,43.25,138.318,42.182,138.938L42.182,138.938z M51.53,139.686c-1.323,0.126-1.926,0.021-2.243,0.374
		C49.558,140.365,51.875,141.063,51.53,139.686z M62,140.808c0.074,0.043,0.36,0.684,0.747,0.374
		C63.007,140.974,60.56,139.974,62,140.808z M55.643,143.424c0.296,0.512,0.382,0.062,0-0.373
		C55.253,142.605,55.376,142.964,55.643,143.424z M60.13,146.042C60.581,146.079,60.36,145.499,60.13,146.042L60.13,146.042z
		 M87.426,139.312c-0.732-1.894,0.526-1.027,0.749-2.618c-0.498,0-0.998,0-1.497,0C87.056,138.212,85.543,139.301,87.426,139.312z"
		/>
</g>
<g>

		<rect x="105.662" y="4.932" transform="matrix(0.7071 -0.7071 0.7071 0.7071 19.7864 85.0065)" fill="#FFFFFF" width="13.687" height="27.374"/>
	<path fill="#FFFFFF" d="M43.146,68.622l19.356,19.356l48.39-48.39L91.536,20.232L43.146,68.622z M62.502,83.416L47.708,68.622
		l43.828-43.828l14.794,14.794L62.502,83.416z"/>
	<polygon fill="#FFFFFF" points="30.242,100.882 46.372,94.43 36.694,84.752 	"/>
</g>
</svg>
