<?xml version="1.0" encoding="utf-8"?>
<!-- Generator: Adobe Illustrator 17.1.0, SVG Export Plug-In . SVG Version: 6.00 Build 0)  -->
<!DOCTYPE svg PUBLIC "-//W3C//DTD SVG 1.1//EN" "http://www.w3.org/Graphics/SVG/1.1/DTD/svg11.dtd">
<svg version="1.1" xmlns="http://www.w3.org/2000/svg" xmlns:xlink="http://www.w3.org/1999/xlink" x="0px" y="0px"
	 viewBox="0 0 60 50" width="60" height="50"  enable-background="new 0 0 60 50" xml:space="preserve">
<g id="Layer_1">
	<g>
		<path fill="#E61D32" d="M38.764,18.533c2.356,0,4.267-1.91,4.267-4.267S41.12,10,38.764,10c-2.356,0-4.267,1.91-4.267,4.267
			S36.408,18.533,38.764,18.533z M38.764,12.133c1.177,0,2.133,0.956,2.133,2.133c0,1.176-0.956,2.133-2.133,2.133
			s-2.133-0.957-2.133-2.133C36.631,13.09,37.587,12.133,38.764,12.133z"/>
		<path fill="#E61D32" d="M41.964,20.667h-6.4L30.231,26l-5.333-5.333h-6.4c-1.178,0-2.133,0.955-2.133,2.133v8.533l2.133,2.133
			v7.467c0,0.59,0.477,1.067,1.067,1.067h4.267c0.59,0,1.067-0.477,1.067-1.067V26l5.333,5.333L35.564,26v14.933
			c0,0.59,0.477,1.067,1.067,1.067h4.267c0.59,0,1.067-0.477,1.067-1.067v-7.467l2.133-2.133V22.8
			C44.097,21.622,43.142,20.667,41.964,20.667z"/>
		<path fill="#E61D32" d="M21.697,18.533c2.356,0,4.267-1.91,4.267-4.267S24.053,10,21.697,10s-4.267,1.91-4.267,4.267
			S19.341,18.533,21.697,18.533z M21.697,12.133c1.177,0,2.133,0.956,2.133,2.133c0,1.176-0.956,2.133-2.133,2.133
			s-2.133-0.957-2.133-2.133C19.564,13.09,20.52,12.133,21.697,12.133z"/>
	</g>
</g>
<g id="Layer_2" display="none">
</g>
</svg>
