<?xml version="1.0" encoding="utf-8"?>
<!-- Generator: Adobe Illustrator 17.1.0, SVG Export Plug-In . SVG Version: 6.00 Build 0)  -->
<!DOCTYPE svg PUBLIC "-//W3C//DTD SVG 1.1//EN" "http://www.w3.org/Graphics/SVG/1.1/DTD/svg11.dtd">
<svg version="1.1" xmlns="http://www.w3.org/2000/svg" xmlns:xlink="http://www.w3.org/1999/xlink" x="0px" y="0px"
	 viewBox="0 0 60 50" width="60" height="50"  enable-background="new 0 0 60 50" xml:space="preserve">
<g id="Layer_1">
	<g>
		<path fill="#E61D32" d="M27.085,41.2c-7.309,0-13.255-5.946-13.255-13.255c0-3.541,1.379-6.87,3.883-9.373l0.142-0.142
			l1.821,1.821l-0.142,0.142c-2.018,2.018-3.128,4.7-3.128,7.552c0,5.889,4.79,10.679,10.679,10.679s10.68-4.79,10.68-10.679V13.647
			l-4.471,4.471l-1.821-1.821l7.58-7.58l7.579,7.58l-1.821,1.821l-4.47-4.471v14.298C40.34,35.254,34.394,41.2,27.085,41.2z"/>
		<g>
			<circle fill="#E61D32" cx="27.085" cy="27.945" r="3.264"/>
		</g>
	</g>
</g>
<g id="Layer_2" display="none">
</g>
</svg>
