<?xml version="1.0" encoding="utf-8"?>
<!-- Generator: Adobe Illustrator 17.1.0, SVG Export Plug-In . SVG Version: 6.00 Build 0)  -->
<!DOCTYPE svg PUBLIC "-//W3C//DTD SVG 1.1//EN" "http://www.w3.org/Graphics/SVG/1.1/DTD/svg11.dtd">
<svg version="1.1" xmlns="http://www.w3.org/2000/svg" xmlns:xlink="http://www.w3.org/1999/xlink" x="0px" y="0px"
	 viewBox="0 0 60 50" width="60" height="50"  enable-background="new 0 0 60 50" xml:space="preserve">
<g id="Layer_1">
	<g>
		<g>
			<path fill="#E61D32" d="M22.981,20.75c-4.004,0-7.25,3.246-7.25,7.25s3.246,7.25,7.25,7.25c4.004,0,7.25-3.246,7.25-7.25
				S26.984,20.75,22.981,20.75z M22.981,30.9c-1.602,0-2.9-1.298-2.9-2.9c0-1.602,1.298-2.9,2.9-2.9c1.601,0,2.9,1.298,2.9,2.9
				C25.881,29.602,24.582,30.9,22.981,30.9z"/>
		</g>
		<g>
			<path fill="#E61D32" d="M50.706,14.774c-0.787-0.786-1.875-1.274-3.076-1.274h-24.65c-4.004,0-7.629,1.623-10.253,4.247
				C10.103,20.371,8.481,23.996,8.481,28s1.623,7.629,4.247,10.253c2.624,2.624,6.249,4.247,10.253,4.247
				c4.004,0,7.623-1.628,10.253-4.247h0.001l0.006-0.007c4.366-4.347,17.466-17.321,17.466-17.321
				c0.788-0.786,1.274-1.873,1.274-3.076C51.981,16.648,51.494,15.56,50.706,14.774z M31.189,36.196l-0.002,0.002
				c-2.203,2.194-5.117,3.402-8.207,3.402c-3.098,0-6.011-1.206-8.202-3.398c-2.191-2.19-3.398-5.103-3.398-8.202
				s1.206-6.012,3.398-8.203c2.191-2.191,5.104-3.397,8.202-3.397c2.971,0,5.941,1.136,8.202,3.398
				C35.703,24.318,35.705,31.672,31.189,36.196z M37.309,30.119c0.644-4.382-0.703-8.999-4.075-12.372
				c-0.499-0.498-1.032-0.936-1.58-1.347h11.89c-0.542,1.531-0.214,3.301,1.011,4.526c0.356,0.356,0.765,0.62,1.195,0.828
				C43.496,23.986,40.271,27.181,37.309,30.119z M47.631,19.3c-0.801,0-1.45-0.649-1.45-1.45c0-0.801,0.649-1.45,1.45-1.45
				c0.801,0,1.45,0.649,1.45,1.45C49.081,18.651,48.431,19.3,47.631,19.3z"/>
		</g>
	</g>
</g>
<g id="Layer_2" display="none">
</g>
</svg>
