<?xml version="1.0" encoding="utf-8"?>
<!-- Generator: Adobe Illustrator 17.1.0, SVG Export Plug-In . SVG Version: 6.00 Build 0)  -->
<!DOCTYPE svg PUBLIC "-//W3C//DTD SVG 1.1//EN" "http://www.w3.org/Graphics/SVG/1.1/DTD/svg11.dtd">
<svg version="1.1" xmlns="http://www.w3.org/2000/svg" xmlns:xlink="http://www.w3.org/1999/xlink" x="0px" y="0px"
	 viewBox="0 0 30 30" width="30" height="30"  enable-background="new 0 0 30 30" xml:space="preserve">
<g id="Layer_1">
	<g>
		<polygon fill="#E41D32" points="1,26.845 1,5.845 0,5.845 0,26.845 0,27.845 1,27.845 30,27.845 30,26.845 		"/>
		<rect x="3" y="16.845" fill="#E41D32" width="7" height="8"/>
		<path fill="#E41D32" d="M19,8.845h-7v16h7V8.845z M17,22.845h-3v-12h3V22.845z"/>
		<rect x="21" y="13.845" fill="#E41D32" width="7" height="1"/>
		<rect x="21" y="15.845" fill="#E41D32" width="7" height="1"/>
		<rect x="21" y="17.845" fill="#E41D32" width="7" height="1"/>
		<rect x="21" y="19.845" fill="#E41D32" width="7" height="1"/>
		<rect x="21" y="21.845" fill="#E41D32" width="7" height="1"/>
		<rect x="21" y="23.845" fill="#E41D32" width="7" height="1"/>
	</g>
</g>
<g id="Layer_2">
</g>
</svg>
