<?xml version="1.0" encoding="utf-8"?>
<!-- Generator: Adobe Illustrator 18.0.0, SVG Export Plug-In . SVG Version: 6.00 Build 0)  -->
<!DOCTYPE svg PUBLIC "-//W3C//DTD SVG 1.1//EN" "http://www.w3.org/Graphics/SVG/1.1/DTD/svg11.dtd">
<svg version="1.1" id="Layer_1" xmlns="http://www.w3.org/2000/svg" xmlns:xlink="http://www.w3.org/1999/xlink" x="0px" y="0px"
	 viewBox="0 0 120 120" width="120" height="120"  enable-background="new 0 0 120 120" xml:space="preserve">
<path fill="#333333" d="M104,48.1H64V31.6c6.9-1.8,12-8,12-15.5c0-8.8-7.2-16-16-16s-16,7.2-16,16c0,7.5,5.1,13.7,12,15.5v16.5
	c-4.4,0-8,3.6-8,8H31.5c-1.8-6.9-8-12-15.5-12c-8.8,0-16,7.2-16,16s7.2,16,16,16c7.5,0,13.7-5.1,15.5-12H48v40l16,16v-56h56
	L104,48.1z M16,68.1c-4.4,0-8-3.6-8-8s3.6-8,8-8s8,3.6,8,8S20.4,68.1,16,68.1z M56,60.1c-2.2,0-4-1.8-4-4s1.8-4,4-4c2.2,0,4,1.8,4,4
	S58.2,60.1,56,60.1z M60,24.1c-4.4,0-8-3.6-8-8s3.6-8,8-8s8,3.6,8,8S64.4,24.1,60,24.1z"/>
</svg>
