<?xml version="1.0" encoding="utf-8"?>
<!-- Generator: Adobe Illustrator 17.1.0, SVG Export Plug-In . SVG Version: 6.00 Build 0)  -->
<!DOCTYPE svg PUBLIC "-//W3C//DTD SVG 1.1//EN" "http://www.w3.org/Graphics/SVG/1.1/DTD/svg11.dtd">
<svg version="1.1" id="Layer_1" xmlns="http://www.w3.org/2000/svg" xmlns:xlink="http://www.w3.org/1999/xlink" x="0px" y="0px"
	 viewBox="0 0 82 144" width="82" height="144"  enable-background="new 0 0 82 144" xml:space="preserve">
<g>
	<rect x="0.862" y="50.706" fill="#EAEAEA" width="52.377" height="13.558"/>
	<rect x="0.862" y="16.208" fill="#EAEAEA" width="52.377" height="13.558"/>
	<rect x="0.862" y="32.05" fill="#EAEAEA" width="57.26" height="16.503"/>
	<g>
		<path fill="#414141" d="M81.06,80.36c0-3.76-2.49-6.5-5.92-6.5c-3.02,0-5.33,2.01-5.92,4.96v-2.76c0-4.97-2.62-8.18-6.68-8.18
			c-3.23,0-5.21,2.03-6.1,4.65v-3.88c0-3.51-3.05-6.48-6.66-6.48s-6.66,2.96-6.67,6.47V44.48c0-1.82-0.18-2.44-0.37-2.84
			c-1.09-2.33-3.35-3.78-5.9-3.78c-2.57,0-4.85,1.45-5.95,3.78c-0.38,0.79-0.56,1.69-0.56,2.84v47.79l-1.09,0.99
			c-1.44-3.38-4.16-9.84-5.12-12.48c-1.58-4.35-3.79-7.33-6.37-8.63c-1.02-0.5-2.11-0.77-3.16-0.77c-2.78,0-4.72,1.84-4.72,4.49
			c0,0.16,0,0.16,2.53,13.56l0.01,0.06l0.02,0.05l4.35,16.61l0.05,0.21l0.11,0.19l11.58,20.46l0.27,15.35l0.03,1.64h45.95v-23.33
			l6.3-20.69l0.07-0.24v-0.26C81.14,99.48,81.06,80.52,81.06,80.36z M73.11,142.33H30.46l-0.28-15.77l-11.79-20.84l-4.35-16.6
			l-2.5-13.25c0-1.86,1.36-2.83,3.05-2.83c0.77,0,1.6,0.2,2.41,0.6c2.43,1.22,4.27,4.19,5.55,7.71c1.36,3.72,6.08,14.72,6.08,14.72
			L32,93.01V44.48c0-0.77,0.09-1.49,0.39-2.13c0.8-1.68,2.47-2.82,4.45-2.82c1.98,0,3.61,1.14,4.4,2.82c0.11,0.25,0.2,0.88,0.2,2.13
			v40h3.33V68.65c0-2.67,2.34-4.82,5.01-4.82c2.66,0,4.99,2.15,4.99,4.82V86.7h2.78c0,0,0-10.6,0-10.64c0-2.69,1.11-6.52,4.99-6.52
			c3.99,0,5.01,3.83,5.01,6.52c0,0.04,0,13.42,0,13.42h3.19c0,0-0.01-9.07-0.01-9.12c0-2.68,1.72-4.83,4.41-4.83
			c2.59,0,4.25,2.15,4.25,4.83c0,0.05,0.08,19.13,0.08,19.13l-6.36,20.93V142.33z"/>
		<path fill="#FFFFFF" d="M79.47,99.49l-6.36,20.93v21.91H30.46l-0.28-15.77l-11.79-20.84l-4.35-16.6l-2.5-13.25
			c0-1.86,1.36-2.83,3.05-2.83c0.77,0,1.6,0.2,2.41,0.6c2.43,1.22,4.27,4.19,5.55,7.71c1.36,3.72,6.08,14.72,6.08,14.72L32,93.01
			V44.48c0-0.77,0.09-1.49,0.39-2.13c0.8-1.68,2.47-2.82,4.45-2.82c1.98,0,3.61,1.14,4.4,2.82c0.11,0.25,0.2,0.88,0.2,2.13v40h3.33
			V68.65c0-2.67,2.34-4.82,5.01-4.82c2.66,0,4.99,2.15,4.99,4.82V86.7h2.78c0,0,0-10.6,0-10.64c0-2.69,1.11-6.52,4.99-6.52
			c3.99,0,5.01,3.83,5.01,6.52c0,0.04,0,13.42,0,13.42h3.19c0,0-0.01-9.07-0.01-9.12c0-2.68,1.72-4.83,4.41-4.83
			c2.59,0,4.25,2.15,4.25,4.83C79.39,80.41,79.47,99.49,79.47,99.49z"/>
	</g>
</g>
</svg>
