<?xml version="1.0" encoding="utf-8"?>
<!-- Generator: Adobe Illustrator 17.1.0, SVG Export Plug-In . SVG Version: 6.00 Build 0)  -->
<!DOCTYPE svg PUBLIC "-//W3C//DTD SVG 1.1//EN" "http://www.w3.org/Graphics/SVG/1.1/DTD/svg11.dtd">
<svg version="1.1" id="Layer_1" xmlns="http://www.w3.org/2000/svg" xmlns:xlink="http://www.w3.org/1999/xlink" x="0px" y="0px"
	 viewBox="0 0 110 130" width="110" height="130"  enable-background="new 0 0 110 130" xml:space="preserve">
<g>
	<g>
		<path fill="#EAEAEA" d="M27.506,67.757l1.88-12.038c0,0,0.75-5.662-5.217-7.157c-6.281-1.685-7.946,4.641-7.946,4.641
			l-5.057,9.642L27.506,67.757z"/>
	</g>
	<g>
		<path fill="#EAEAEA" d="M38.063,18.524l-9.86,16.497c0,0-2.685,5.448,2.817,8.987c5.752,3.838,9.585-1.967,9.585-1.967
			l11.93-13.105L38.063,18.524z"/>
	</g>
	<g>
		<g>
			<g>
				<path fill="#FF8C40" d="M26.71,70.36c-1.59,2.89-4.57,4.52-7.65,4.52c-1.43,0-2.87-0.35-4.2-1.08
					c-4.23-2.33-5.77-7.64-3.44-11.86c1.59-2.89,4.57-4.52,7.65-4.52c1.43,0,2.87,0.35,4.21,1.08
					C27.5,60.83,29.04,66.14,26.71,70.36z"/>
			</g>
		</g>
	</g>
	<g>
		<g>
			<g>
				<path fill="#FF8C40" d="M51.97,29.81c-1.78,2.16-4.36,3.28-6.96,3.28c-2.02,0-4.05-0.68-5.73-2.06
					c-3.84-3.16-4.39-8.84-1.22-12.69c1.78-2.16,4.36-3.28,6.96-3.28c2.02,0,4.05,0.67,5.73,2.06
					C54.59,20.28,55.14,25.96,51.97,29.81z"/>
			</g>
		</g>
	</g>
	<g>
		<g>
			<path fill="#FFFFFF" d="M88.46,84.59l-6.5,21.36v22.35h-43.5l-0.29-16.1L26.14,90.95l-7.01-14.1c0,0-3.67-8.33-3.67-8.34
				c-0.73-2.57,1.1-5.53,3.3-5.53c0.38,0,0.77,0.09,1.17,0.29c2.47,1.24,6.67,6.6,6.67,6.6l9.98,11.23l3.45-3.12v-29.3l0.84-20.21
				c0-0.78,0.16-1.52,0.47-2.17c0.81-1.72,2.52-2.56,4.54-2.56s4.06,1.04,4.48,3.35c0.12,0.25,0.15,0.1,0.15,1.38l-0.85,19.45v21.35
				h3.4V53.13c0-2.72,2.38-4.92,5.1-4.92c2.72,0,5.1,2.2,5.1,4.92v18.41h2.84c0,0,0-10.81,0-10.86c0-2.74,1.12-6.64,5.09-6.64
				c4.07,0,5.11,3.9,5.11,6.64c0,0.05,0,13.69,0,13.69h3.25c0,0-0.01-9.25-0.01-9.3c0-2.73,1.76-4.93,4.5-4.93
				c2.65,0,4.34,2.2,4.34,4.94C88.38,65.13,88.46,84.59,88.46,84.59z"/>
		</g>
		<g>
			<path fill="#414141" d="M90.08,65.07c0-3.84-2.54-6.63-6.04-6.63c-3.08,0-5.44,2.06-6.04,5.07v-2.83c0-5.07-2.68-8.34-6.81-8.34
				c-3.3,0-5.32,2.07-6.23,4.75v-3.96c0-3.59-3.11-6.62-6.8-6.62c-3.68,0-6.8,3.03-6.8,6.62v-5.17l0.84-19.42l0.01-0.04v-0.03
				c0-1.04,0-1.46-0.23-1.94c-0.62-2.7-3.04-4.49-6.1-4.49c-2.8,0-5.02,1.29-6.07,3.53c-0.42,0.87-0.63,1.83-0.64,2.86l-0.84,20.18
				v28.61l-1.62,1.47l-8.81-9.91c-0.59-0.75-4.53-5.69-7.21-7.03c-0.62-0.31-1.27-0.47-1.93-0.47c-1.44,0-2.84,0.76-3.83,2.07
				c-1.21,1.6-1.63,3.76-1.1,5.63l0.03-0.01c0.23,0.65,1.02,2.45,3.71,8.57l0.02,0.04l0.02,0.03l7.01,14.1l0.02,0.04l0.02,0.04
				l11.82,20.87l0.28,15.67l0.03,1.67h46.87v-23.8l6.43-21.11l0.07-0.25v-0.26C90.16,84.58,90.08,65.24,90.08,65.07z M81.96,128.3
				h-43.5l-0.29-16.1L26.14,90.95l-7.01-14.1c0,0-3.67-8.33-3.67-8.34c-0.73-2.57,1.1-5.53,3.3-5.53c0.38,0,0.77,0.09,1.17,0.29
				c2.47,1.24,6.67,6.6,6.67,6.6l9.98,11.23l3.45-3.12v-29.3l0.84-20.21c0-0.78,0.16-1.52,0.47-2.17c0.81-1.72,2.52-2.56,4.54-2.56
				s4.06,1.04,4.48,3.35c0.12,0.25,0.15,0.1,0.15,1.38l-0.85,19.45v21.35h3.4V53.13c0-2.72,2.38-4.92,5.1-4.92
				c2.72,0,5.1,2.2,5.1,4.92v18.41h2.84c0,0,0-10.81,0-10.86c0-2.74,1.12-6.64,5.09-6.64c4.07,0,5.11,3.9,5.11,6.64
				c0,0.05,0,13.69,0,13.69h3.25c0,0-0.01-9.25-0.01-9.3c0-2.73,1.76-4.93,4.5-4.93c2.65,0,4.34,2.2,4.34,4.94
				c0,0.05,0.08,19.51,0.08,19.51l-6.5,21.36V128.3z"/>
		</g>
	</g>
</g>
</svg>
