<?xml version="1.0" encoding="utf-8"?>
<!-- Generator: Adobe Illustrator 17.1.0, SVG Export Plug-In . SVG Version: 6.00 Build 0)  -->
<!DOCTYPE svg PUBLIC "-//W3C//DTD SVG 1.1//EN" "http://www.w3.org/Graphics/SVG/1.1/DTD/svg11.dtd">
<svg version="1.1" id="Layer_1" xmlns="http://www.w3.org/2000/svg" xmlns:xlink="http://www.w3.org/1999/xlink" x="0px" y="0px"
	 viewBox="0 0 110 130" width="110" height="130"  enable-background="new 0 0 110 130" xml:space="preserve">
<g>
	<path fill="#EAEAEA" d="M46.478,32.792c0,4.671-3.787,8.458-8.458,8.458s-8.458-3.787-8.458-8.458l-1-23.667
		c0-5.04,4.085-9.125,9.125-9.125c5.04,0,9.125,4.085,9.125,9.125L46.478,32.792z"/>
</g>
<circle fill="#FF8C40" cx="38.125" cy="27.688" r="10.562"/>
<g>
	<g>
		<g>
			<path fill="#414141" d="M85.19,83.18c0,0-0.81-19.39-0.81-19.54c-0.14-3.72-2.69-6.42-6.06-6.42h-0.24
				c-1.8,0.07-3.39,0.85-4.49,2.19c-0.71,0.88-1.18,1.96-1.37,3.14c-0.07-1.64-0.11-2.81-0.11-2.86c-0.19-4.93-2.87-8.11-6.84-8.11
				c-0.1,0-0.2,0-0.3,0.01c-3.31,0.12-5.25,2.27-6.06,4.99l-0.15-3.97c-0.13-3.51-3.18-6.37-6.8-6.37H51.7
				c-1.77,0.07-3.43,0.81-4.68,2.09c-1.27,1.3-1.94,2.99-1.89,4.76l-0.57-15.27l-0.01-0.33v-0.04l-0.01-0.04l-0.05-0.53l-0.05-0.68
				v-0.01l-0.06-0.68l-0.65-7.58c0-0.848-0.439-1.783-0.611-2.25c-0.49-0.96-1.78-3.57-5.07-3.63h-0.01
				c-0.03-0.01-0.07-0.01-0.1-0.01c-0.07,0-0.15,0.01-0.22,0.01c-2.63,0.1-4.64,1.49-5.68,3.92c-0.42,0.96-0.43,1.48-0.4,2.35
				l-0.16,8.77l-0.01,0.19v0.41l0.01,0.14l0.02,0.48l1.48,39.45l-1.08,1.05c-1.6-3.4-4.63-9.9-5.71-12.56
				c-1.78-4.38-4.15-7.35-6.85-8.57C18.36,57.23,17.32,57,16.33,57c-1.48,0-2.79,0.51-3.69,1.44c-0.84,0.87-1.25,2.02-1.2,3.34
				c0.01,0.13,0.08,0.49,0.5,2.36c0.42,1.86,1.2,5.24,2.6,11.4l0.02,0.06l0.01,0.06l5.09,16.8l0.06,0.22l0.12,0.18l12.59,20.43
				v16.69h45.2l1.86,0.02v-24.88l5.65-21.43l0.07-0.25L85.19,83.18z M77.79,104.9l-0.15,23.38l-43.5,0.02v-15.49L21.29,91.97
				L16.2,75.16c0,0-3.06-13.44-3.06-13.45c-0.07-1.96,1.37-3.01,3.19-3.01c0.73,0,1.53,0.18,2.31,0.53
				c2.52,1.15,4.53,4.12,5.97,7.66c1.53,3.76,6.77,14.82,6.77,14.82l3.33-3.26l-1.47-39.24l-0.02-0.57l-0.02-0.55V38l-0.02-0.46
				v-0.19l0.17-9.05c-0.03-0.78-0.03-1,0.26-1.66c0.74-1.76,2.15-2.81,4.17-2.89h0.16c1.36,0,2.31,0.66,3.05,1.62
				c0.32,0.4,0.59,0.86,0.84,1.35c0.13,0.25,0.15,0.04,0.2,1.32l0.76,8.97l0.05,0.55v0.04l0.01,0.15l0.01,0.45l1.18,31.16l3.41-0.12
				l-0.61-16.18c-0.1-2.73,2.2-5.01,4.93-5.12h0.19c2.65,0,5,2.07,5.1,4.73l0.69,18.45l2.84-0.1c0,0-0.4-10.84-0.41-10.88
				c-0.1-2.75,0.88-6.7,4.86-6.85h0.23c3.89,0,5.03,3.77,5.14,6.46c0,0.05,0.51,13.72,0.51,13.72l3.26-0.12c0,0-0.35-9.27-0.36-9.32
				c-0.1-2.74,1.58-5,4.32-5.1c0.06-0.01,0.12-0.01,0.18-0.01c2.56,0,4.25,2.1,4.35,4.78c0.01,0.06,0.82,19.55,0.82,19.55
				L77.79,104.9z"/>
			<path fill="#FFFFFF" d="M83.49,83.25l-5.7,21.65l-0.15,23.38l-43.5,0.02v-15.49L21.29,91.97L16.2,75.16
				c0,0-3.06-13.44-3.06-13.45c-0.07-1.96,1.37-3.01,3.19-3.01c0.73,0,1.53,0.18,2.31,0.53c2.52,1.15,4.53,4.12,5.97,7.66
				c1.53,3.76,6.77,14.82,6.77,14.82l3.33-3.26l-1.47-39.24l-0.02-0.57l-0.02-0.55V38l-0.02-0.46v-0.19l0.17-9.05
				c-0.03-0.78-0.03-1,0.26-1.66c0.74-1.76,2.15-2.81,4.17-2.89h0.16c1.36,0,2.31,0.66,3.05,1.62c0.32,0.4,0.59,0.86,0.84,1.35
				c0.13,0.25,0.15,0.04,0.2,1.32l0.76,8.97l0.05,0.55v0.04l0.01,0.15l0.01,0.45l1.18,31.16l3.41-0.12l-0.61-16.18
				c-0.1-2.73,2.2-5.01,4.93-5.12h0.19c2.65,0,5,2.07,5.1,4.73l0.69,18.45l2.84-0.1c0,0-0.4-10.84-0.41-10.88
				c-0.1-2.75,0.88-6.7,4.86-6.85h0.23c3.89,0,5.03,3.77,5.14,6.46c0,0.05,0.51,13.72,0.51,13.72l3.26-0.12c0,0-0.35-9.27-0.36-9.32
				c-0.1-2.74,1.58-5,4.32-5.1c0.06-0.01,0.12-0.01,0.18-0.01c2.56,0,4.25,2.1,4.35,4.78C82.68,63.76,83.49,83.25,83.49,83.25z"/>
		</g>
	</g>
</g>
</svg>
