<?xml version="1.0" encoding="utf-8"?>
<!-- Generator: Adobe Illustrator 17.1.0, SVG Export Plug-In . SVG Version: 6.00 Build 0)  -->
<!DOCTYPE svg PUBLIC "-//W3C//DTD SVG 1.1//EN" "http://www.w3.org/Graphics/SVG/1.1/DTD/svg11.dtd">
<svg version="1.1" id="Layer_1" xmlns="http://www.w3.org/2000/svg" xmlns:xlink="http://www.w3.org/1999/xlink" x="0px" y="0px"
	 viewBox="0 0 110 130" width="110" height="130"  enable-background="new 0 0 110 130" xml:space="preserve">
<g>
	<g>
		<g>
			<g>
				<path fill="#FF8C40" d="M57.1,27.64c0,6.17-5,11.18-11.17,11.18c-6.17,0-11.18-5.01-11.18-11.18c0-6.17,5.01-11.18,11.18-11.18
					C52.1,16.46,57.1,21.47,57.1,27.64z"/>
			</g>
		</g>
	</g>
</g>
<g>
	<g>
		<path fill="#FFFFFF" d="M89.07,85.35l-6.38,21v21.98H39.91l-0.29-15.83L27.8,91.6l-4.37-16.65c0,0-2.5-13.29-2.5-13.3
			c0-1.86,1.36-2.83,3.06-2.83c0.77,0,1.6,0.2,2.42,0.6c2.43,1.22,4.28,4.2,5.57,7.73c1.35,3.74,6.09,14.77,6.09,14.77l3.38-3.07
			V30.17c0-0.77,0.09-1.5,0.4-2.14c0.79-1.68,2.47-2.83,4.45-2.83c1.99,0,3.63,1.15,4.42,2.83c0.11,0.25,0.2,0.88,0.2,2.14v40.12
			h3.35V54.41c0-2.67,2.34-4.83,5.02-4.83c2.67,0,5.01,2.16,5.01,4.83v18.11h2.78c0,0,0-10.63,0-10.68c0-2.7,1.11-6.53,5.01-6.53
			c4,0,5.02,3.83,5.02,6.53c0,0.05,0,13.46,0,13.46h3.2c0,0,0-9.09,0-9.14c0-2.69,1.72-4.85,4.41-4.85c2.61,0,4.27,2.16,4.27,4.85
			C88.99,66.21,89.07,85.35,89.07,85.35z"/>
	</g>
	<g>
		<path fill="#414141" d="M90.74,85.35c0,0-0.08-19.02-0.08-19.19c0-3.77-2.49-6.52-5.94-6.52c-3.02,0-5.34,2.02-5.93,4.98v-2.78
			c0-4.98-2.63-8.2-6.7-8.2c-3.24,0-5.23,2.04-6.12,4.67v-3.9c0-3.52-3.06-6.5-6.68-6.5c-3.63,0-6.69,2.98-6.69,6.5V30.17
			c0-1.83-0.18-2.45-0.37-2.85c-1.1-2.34-3.37-3.79-5.93-3.79c-2.57,0-4.86,1.45-5.96,3.79c-0.38,0.79-0.56,1.7-0.56,2.85v47.94
			l-1.1,0.99c-1.44-3.39-4.17-9.87-5.13-12.52c-1.59-4.36-3.8-7.35-6.4-8.65c-1.02-0.51-2.11-0.78-3.16-0.78
			c-2.79,0-4.74,1.85-4.74,4.5c0,0.16,0,0.16,2.54,13.61l0.01,0.06l0.02,0.05l4.36,16.66l0.06,0.21l0.1,0.19l11.62,20.52l0.27,15.41
			l0.03,1.64h46.1v-23.4l6.31-20.76l0.08-0.24L90.74,85.35z M82.69,128.33H39.91l-0.29-15.83L27.8,91.6l-4.37-16.65
			c0,0-2.5-13.29-2.5-13.3c0-1.86,1.36-2.83,3.06-2.83c0.77,0,1.6,0.2,2.42,0.6c2.43,1.22,4.28,4.2,5.57,7.73
			c1.35,3.74,6.09,14.77,6.09,14.77l3.38-3.07V30.17c0-0.77,0.09-1.5,0.4-2.14c0.79-1.68,2.47-2.83,4.45-2.83
			c1.99,0,3.63,1.15,4.42,2.83c0.11,0.25,0.2,0.88,0.2,2.14v40.12h3.35V54.41c0-2.67,2.34-4.83,5.02-4.83
			c2.67,0,5.01,2.16,5.01,4.83v18.11h2.78c0,0,0-10.63,0-10.68c0-2.7,1.11-6.53,5.01-6.53c4,0,5.02,3.83,5.02,6.53
			c0,0.05,0,13.46,0,13.46h3.2c0,0,0-9.09,0-9.14c0-2.69,1.72-4.85,4.41-4.85c2.61,0,4.27,2.16,4.27,4.85
			c0,0.05,0.08,19.19,0.08,19.19l-6.38,21V128.33z"/>
	</g>
</g>
</svg>
