<?xml version="1.0" encoding="utf-8"?>
<!-- Generator: Adobe Illustrator 17.1.0, SVG Export Plug-In . SVG Version: 6.00 Build 0)  -->
<!DOCTYPE svg PUBLIC "-//W3C//DTD SVG 1.1//EN" "http://www.w3.org/Graphics/SVG/1.1/DTD/svg11.dtd">
<svg version="1.1" id="Layer_1" xmlns="http://www.w3.org/2000/svg" xmlns:xlink="http://www.w3.org/1999/xlink" x="0px" y="0px"
	 viewBox="0 0 110 130" width="110" height="130"  enable-background="new 0 0 110 130" xml:space="preserve">
<g>
	<g>
		<path fill="#FFFFFF" d="M91.14,106.33l0.34,21.91l-33.017,0.02l0.667-13.68l-3.39-15.5c2.17-5.38,15.14-37.46,20.19-50.02
			l-0.08,1.47l1.67-5.21l17.37,15.59l2.13,17.76L91.14,106.33z"/>
		<path fill="#414141" d="M98.79,78.77l-2.24-18.69L77.77,43.25L77.55,43h-0.12l-0.72-0.69l-0.22,0.58h-0.21l-0.04,0.69
			c-0.88,2.26-14.82,36.77-22.23,55.09l-0.1,0.25l3.46,15.81L56.623,130H93.25l-0.36-23.5L98.79,78.77z M58.463,128.26l0.667-13.68
			l-3.39-15.5c2.17-5.38,15.14-37.46,20.19-50.02l1.59-3.74l17.37,15.59l2.13,17.76l-5.88,27.66l0.34,21.91L58.463,128.26z"/>
	</g>
	<g>
		<path fill-rule="evenodd" clip-rule="evenodd" fill="#FFFFFF" d="M42.588,107.716c2.993,0,5.42,2.427,5.42,5.421
			c0,2.993-2.427,5.42-5.42,5.42c-2.994,0-5.42-2.427-5.42-5.42C37.168,110.143,39.595,107.716,42.588,107.716L42.588,107.716z
			 M42.588,107.301c3.222,0,5.835,2.612,5.835,5.835c0,3.222-2.612,5.835-5.835,5.835c-3.223,0-5.835-2.612-5.835-5.835
			C36.753,109.913,39.366,107.301,42.588,107.301L42.588,107.301z"/>
	</g>
	<g>
		<g>

				<rect x="33.515" y="25.322" transform="matrix(0.9306 0.3661 -0.3661 0.9306 28.2267 -16.0876)" fill="#FFFFFF" width="46.038" height="82.13"/>
		</g>
		<g>
			<path fill-rule="evenodd" clip-rule="evenodd" fill="#EAEAEA" d="M95.981,34.537c1.607-4.086,0.113-8.701-3.945-10.297
				L59.809,11.563c-4.058-1.596-9.362,0.344-10.969,4.43L15.48,100.798c-1.607,4.086,1.164,8.19,5.223,9.787l33.558,13.201
				c4.058,1.596,6.753-0.357,8.36-4.444L95.981,34.537z M63.693,109.579c-0.247,0.627-0.955,0.935-1.582,0.689L22.035,94.502
				c-0.627-0.247-0.935-0.955-0.689-1.582l27.08-68.84c0.247-0.627,0.955-0.935,1.582-0.689l40.076,15.765
				c0.627,0.247,0.935,0.955,0.689,1.582L63.693,109.579z"/>
		</g>
		<g>
			<g>
				<g>
					<path fill-rule="evenodd" clip-rule="evenodd" fill="#FFFFFF" d="M69.583,23.98l7.113,2.798c0.26,0.102,0.39,0.399,0.287,0.659
						L76.919,27.6c-0.102,0.26-0.399,0.389-0.659,0.287l-7.113-2.798c-0.261-0.102-0.389-0.399-0.287-0.659l0.064-0.163
						C69.026,24.006,69.322,23.877,69.583,23.98L69.583,23.98z"/>
				</g>
				<g>
					<path fill-rule="evenodd" clip-rule="evenodd" fill="#FFFFFF" d="M66.813,22.947c0.279,0.11,0.416,0.425,0.306,0.704
						c-0.11,0.279-0.425,0.416-0.704,0.307c-0.279-0.11-0.416-0.425-0.306-0.704C66.219,22.975,66.534,22.837,66.813,22.947
						L66.813,22.947z"/>
				</g>
				<g>
					<path fill-rule="evenodd" clip-rule="evenodd" fill="#FFFFFF" d="M74.405,22.16c0.366,0.144,0.546,0.557,0.402,0.923
						c-0.144,0.366-0.557,0.546-0.923,0.402c-0.366-0.144-0.546-0.557-0.402-0.923C73.626,22.196,74.04,22.016,74.405,22.16
						L74.405,22.16z"/>
				</g>
				<g>
					<path fill-rule="evenodd" clip-rule="evenodd" fill="#FFFFFF" d="M69.583,23.98l7.113,2.798c0.26,0.102,0.39,0.399,0.287,0.659
						L76.919,27.6c-0.102,0.26-0.399,0.389-0.659,0.287l-7.113-2.798c-0.261-0.102-0.389-0.399-0.287-0.659l0.064-0.163
						C69.026,24.006,69.322,23.877,69.583,23.98L69.583,23.98z"/>
				</g>
				<g>
					<path fill-rule="evenodd" clip-rule="evenodd" fill="#FFFFFF" d="M66.813,22.947c0.279,0.11,0.416,0.425,0.306,0.704
						c-0.11,0.279-0.425,0.416-0.704,0.307c-0.279-0.11-0.416-0.425-0.306-0.704C66.219,22.975,66.534,22.837,66.813,22.947
						L66.813,22.947z"/>
				</g>
				<g>
					<path fill-rule="evenodd" clip-rule="evenodd" fill="#FFFFFF" d="M74.405,22.16c0.366,0.144,0.546,0.557,0.402,0.923
						c-0.144,0.366-0.557,0.546-0.923,0.402c-0.366-0.144-0.546-0.557-0.402-0.923C73.626,22.196,74.04,22.016,74.405,22.16
						L74.405,22.16z"/>
				</g>
			</g>
			<g>
				<path fill-rule="evenodd" clip-rule="evenodd" fill="#FFFFFF" d="M41.519,105.759c2.392,0.941,3.568,3.643,2.627,6.035
					c-0.941,2.392-3.642,3.568-6.034,2.627c-2.392-0.941-3.568-3.643-2.627-6.034C36.426,105.994,39.127,104.818,41.519,105.759
					L41.519,105.759z M41.649,105.427c2.575,1.013,3.841,3.921,2.828,6.496c-1.013,2.575-3.921,3.841-6.496,2.828
					c-2.575-1.013-3.841-3.921-2.828-6.496C36.166,105.681,39.075,104.415,41.649,105.427L41.649,105.427z"/>
			</g>
		</g>
	</g>
	<g>
		<path fill="#FFFFFF" d="M83.42,78.436L68.932,61.328l-8.224-8.201c0,0-3.173-1.117-4.086,0.592c0,0-3.285,3.377,0.844,10.371
			l7.661,15.311l-0.671,6.022c0,0,0.417,13.115,8.894,20.4"/>
		<path fill="#414141" d="M72.779,106.486c-8.669-7.449-9.181-20.484-9.198-21.035l-0.002-0.062l0.008-0.062l0.642-5.765
			l-7.545-15.08c-4.055-6.865-1.336-10.618-0.777-11.274c1.041-1.76,3.675-1.405,5.093-0.906l0.187,0.065l8.365,8.341l14.537,17.163
			l-1.336,1.131L68.264,61.893l-8.024-7.997c-0.703-0.206-2.429-0.548-2.847,0.234l-0.145,0.198
			c-0.106,0.115-2.727,3.054,0.971,9.316l7.806,15.596l-0.692,6.211c0.046,0.944,0.791,13.006,8.587,19.706L72.779,106.486z"/>
	</g>
	<g>
		<path fill="#FFFFFF" d="M98.084,21.712c0,0,7.333,2.904,4.333,12.03"/>
		<path fill="#FF8C40" d="M103.368,34.054l-1.9-0.625c2.657-8.083-3.492-10.682-3.756-10.789l0.74-1.858
			C98.534,20.814,106.624,24.147,103.368,34.054z"/>
	</g>
	<g>
		<path fill="#FFFFFF" d="M100.161,16.489c0,0,11.379,4.667,6.724,19.333"/>
		<path fill="#FF8C40" d="M107.838,36.125l-1.906-0.605c1.827-5.755,1.335-10.554-1.462-14.262c-2.074-2.75-4.663-3.833-4.689-3.844
			l0.76-1.851C100.663,15.614,112.716,20.758,107.838,36.125z"/>
	</g>
	<g>
		<path fill="#FFFFFF" d="M11.97,112.638c0,0-7.311-2.959-4.243-12.062"/>
		<path fill="#FF8C40" d="M11.595,113.564c-0.082-0.033-8.146-3.426-4.815-13.308l1.895,0.639
			c-2.735,8.117,3.408,10.709,3.671,10.816L11.595,113.564z"/>
	</g>
	<g>
		<path fill="#FFFFFF" d="M9.854,117.844c0,0-11.344-4.752-6.579-19.383"/>
		<path fill="#FF8C40" d="M9.467,118.767c-0.122-0.051-12.136-5.285-7.144-20.615l1.902,0.619
			c-4.41,13.541,5.589,17.971,6.017,18.152L9.467,118.767z"/>
	</g>
</g>
</svg>
