<?xml version="1.0" encoding="utf-8"?>
<!-- Generator: Adobe Illustrator 17.1.0, SVG Export Plug-In . SVG Version: 6.00 Build 0)  -->
<!DOCTYPE svg PUBLIC "-//W3C//DTD SVG 1.1//EN" "http://www.w3.org/Graphics/SVG/1.1/DTD/svg11.dtd">
<svg version="1.1" id="Layer_1" xmlns="http://www.w3.org/2000/svg" xmlns:xlink="http://www.w3.org/1999/xlink" x="0px" y="0px"
	 viewBox="0 0 312 220" width="312" height="220"  enable-background="new 0 0 312 220" xml:space="preserve">
<g>
	<polygon fill="#FF8C40" stroke="#FF8C40" stroke-width="0.6398" stroke-miterlimit="10" points="282.039,160.726 248.289,96.722
		131.152,117.956 	"/>
	<polygon fill="#FF8C40" stroke="#FF8C40" stroke-width="0.6296" stroke-miterlimit="10" points="212.06,201.371 43.962,144.349
		104.052,111.954 279.736,163.692 	"/>
	<path fill="#EAEAEA" d="M76.306,23.608L25.321,147.536c0,0-4.362,12.333,8.723,13.686l162.43,42.111c0,0,16.845,4.963,21.958-9.325
		c5.114-14.288,56.399-160.475,56.399-160.475s2.406-12.182-12.182-12.633L88.037,14.434C88.037,14.434,79.314,14.284,76.306,23.608
		z"/>
	<polygon fill="#FFFFFF" points="94.203,23.458 40.963,155.357 193.316,193.859 250.617,31.278 	"/>
	<path fill-rule="evenodd" clip-rule="evenodd" fill="#FFFFFF" d="M239.878,99.654l-5.748,17.721
		c-0.21,0.649-0.908,1.045-1.55,0.881l-0.401-0.102c-0.642-0.164-0.995-0.828-0.785-1.477l5.748-17.721
		c0.211-0.649,0.908-1.045,1.55-0.881l0.401,0.102C239.735,98.341,240.089,99.005,239.878,99.654L239.878,99.654z"/>
	<path fill-rule="evenodd" clip-rule="evenodd" fill="#FFFFFF" d="M241.979,92.771c-0.225,0.695-0.966,1.116-1.655,0.941
		c-0.688-0.176-1.064-0.882-0.838-1.577c0.225-0.695,0.966-1.116,1.655-0.941C241.829,91.37,242.204,92.076,241.979,92.771
		L241.979,92.771z"/>
	<path fill-rule="evenodd" clip-rule="evenodd" fill="none" stroke="#FFFFFF" stroke-width="0.5" stroke-miterlimit="10" d="
		M63.018,77.306c0,0,4.211,0.852,2.106,5.966c-2.106,5.114-6.166,4.211-6.166,4.211c-0.679-0.025-3.509-2.055-1.379-6.642
		C57.579,80.84,58.958,77.105,63.018,77.306z"/>
</g>
</svg>
