<?xml version="1.0" encoding="utf-8"?>
<!-- Generator: Adobe Illustrator 18.0.0, SVG Export Plug-In . SVG Version: 6.00 Build 0)  -->
<!DOCTYPE svg PUBLIC "-//W3C//DTD SVG 1.1//EN" "http://www.w3.org/Graphics/SVG/1.1/DTD/svg11.dtd">
<svg version="1.1" id="Layer_1" xmlns="http://www.w3.org/2000/svg" xmlns:xlink="http://www.w3.org/1999/xlink" x="0px" y="0px"
	 viewBox="0 0 356 174" width="356" height="174"  enable-background="new 0 0 356 174" xml:space="preserve">
<rect x="298.4" y="41.8" fill="#FFB485" width="54.5" height="93.2"/>
<path fill="#FF8C40" d="M350.2,103.9c0-15.3-11.5-27.6-25.9-27.6s-25.8,12.4-25.8,27.6c0,1.3,0.4,2.6,0.4,3.8V131h22
	c1.1,0,2.3,0.2,3.5,0.2s2.3-0.2,3.5-0.2h1v0C341,128.5,350.2,117.3,350.2,103.9z"/>
<rect x="18.9" y="12" fill="#FF8C40" width="192" height="146"/>
<path fill="#FFB485" d="M25.1,24.1c0,49.7,40.1,89.7,89.7,89.7s89.7-39.8,89.7-89.5c0-4.3-0.3-8.2-0.9-12.2H26
	C25.4,16,25.1,19.8,25.1,24.1z"/>
<path fill="#FFFFFF" d="M51.1,23.1c0,35,28.3,63,63.3,63c35,0,63.3-27.8,63.3-62.8c0-4-0.4-7.3-1.1-11.3H52.2
	C51.5,16,51.1,19.1,51.1,23.1z"/>
<g>
	<path fill="#414141" d="M101,49.4h1.2v2.8h3.2v-2.8h1.2v7.1h-1.2v-3.2h-3.2v3.2H101V49.4z"/>
	<path fill="#414141" d="M110.2,49.4h1.3l2.7,7.1h-1.3l-0.7-1.9h-2.8l-0.7,1.9h-1.3L110.2,49.4z M109.7,53.7h2.2l-1.1-3.1h0
		L109.7,53.7z"/>
	<path fill="#414141" d="M114.9,49.4h3.4c1.6,0,2.4,0.7,2.4,1.9c0,1.4-0.9,1.7-1.2,1.8v0c0.4,0,1.1,0.4,1.1,1.5
		c0,0.8,0.1,1.6,0.4,1.9h-1.3c-0.2-0.3-0.2-0.7-0.2-1c0-1.3-0.3-1.9-1.4-1.9h-1.8v2.9h-1.2V49.4z M116.2,52.7h2
		c0.8,0,1.2-0.4,1.2-1.1c0-0.9-0.6-1.1-1.2-1.1h-2V52.7z"/>
	<path fill="#414141" d="M121.9,49.4h3c2.2,0,3.1,1.6,3.1,3.6c0,2-1,3.6-3.1,3.6h-3V49.4z M123.2,55.5h1.2c2,0,2.4-1.1,2.4-2.5
		c0-1.4-0.4-2.5-2.4-2.5h-1.2V55.5z"/>
</g>
<g>
	<path fill="#414141" d="M108.2,98.4c0,2-1.3,3.7-3.4,3.7s-3.4-1.7-3.4-3.7c0-2,1.3-3.7,3.4-3.7S108.2,96.4,108.2,98.4z M102.6,98.4
		c0,1.4,0.6,2.7,2.2,2.7s2.2-1.3,2.2-2.7c0-1.4-0.6-2.7-2.2-2.7S102.6,97.1,102.6,98.4z"/>
	<path fill="#414141" d="M109.2,94.9h1.2v3.2l3.2-3.2h1.5l-2.8,2.8l3,4.3h-1.6l-2.3-3.4l-1,1v2.4h-1.2V94.9z"/>
	<path fill="#414141" d="M118.6,94.9h1.3l2.7,7.1h-1.3l-0.7-1.9h-2.8l-0.7,1.9h-1.3L118.6,94.9z M118.1,99.2h2.2l-1.1-3.1h0
		L118.1,99.2z"/>
	<path fill="#414141" d="M124.2,99.2l-2.7-4.3h1.4l1.9,3.2l1.9-3.2h1.4l-2.7,4.3v2.8h-1.2V99.2z"/>
</g>
<g>
	<path fill="#414141" d="M103.1,130.7h3.5c1.3,0,2.1,0.6,2.1,1.8c0,0.7-0.4,1.2-1,1.5v0c0.9,0.2,1.3,0.9,1.3,1.8c0,1.1-0.8,2-2.6,2
		h-3.3V130.7z M104.4,133.7h2c0.6,0,1-0.3,1-1c0-0.7-0.4-1-1-1h-2V133.7z M104.4,136.8h2.2c0.8,0,1.2-0.4,1.2-1.1
		c0-0.7-0.4-1.1-1.2-1.1h-2.2V136.8z"/>
	<path fill="#414141" d="M110.1,130.7h5.1v1.1h-3.9v1.9h3.6v1h-3.6v2.1h4v1.1h-5.2V130.7z"/>
	<path fill="#414141" d="M117.3,135.4c0,1.1,0.8,1.5,1.8,1.5c1.1,0,1.5-0.5,1.5-1.1c0-0.5-0.3-0.8-0.6-0.9c-0.5-0.2-1.1-0.3-2.1-0.6
		c-1.2-0.3-1.6-1.1-1.6-1.8c0-1.4,1.3-2.1,2.6-2.1c1.5,0,2.7,0.8,2.7,2.3h-1.2c-0.1-0.9-0.7-1.3-1.5-1.3c-0.6,0-1.3,0.2-1.3,0.9
		c0,0.5,0.3,0.8,0.8,0.9c0.1,0,1.7,0.4,2.1,0.5c0.9,0.3,1.4,1.1,1.4,1.8c0,1.6-1.4,2.2-2.8,2.2c-1.6,0-2.9-0.8-3-2.5H117.3z"/>
	<path fill="#414141" d="M122.3,130.7h5.8v1.1h-2.3v6.1h-1.2v-6.1h-2.3V130.7z"/>
</g>
<path fill="#FFFFFF" d="M352.8,41.8c0,0,0.1,5.1,0.1,10c-12.3-0.2-25.5,3.3-25.5,3.3s-21.4,4.7-28.9,14.5l0.1-27.7
	C298.5,41.8,350.9,41.9,352.8,41.8z"/>
<path fill-rule="evenodd" clip-rule="evenodd" fill="#EAEAEA" d="M355,34.1c0-5.1-3-9.1-8.1-9.1H307c-5.1,0-11,4-11,9.1v106.1
	c0,5.1,5.9,8.8,11,8.8h39.9c5.1,0,8.1-3.6,8.1-8.8V34.1z M352,129.6c0,0.8-0.6,1.4-1.4,1.4h-50.2c-0.8,0-1.4-0.6-1.4-1.4V43.4
	c0-0.8,0.6-1.4,1.4-1.4h50.2c0.8,0,1.4,0.6,1.4,1.4V129.6z"/>
<path fill-rule="evenodd" clip-rule="evenodd" fill="#FFFFFF" d="M320.4,33.9h8.9c0.3,0,0.6,0.3,0.6,0.6v0.2c0,0.3-0.3,0.6-0.6,0.6
	h-8.9c-0.3,0-0.6-0.3-0.6-0.6v-0.2C319.8,34.2,320.1,33.9,320.4,33.9L320.4,33.9z"/>
<path fill-rule="evenodd" clip-rule="evenodd" fill="#FFFFFF" d="M316.9,34c0.3,0,0.6,0.3,0.6,0.6s-0.3,0.6-0.6,0.6
	c-0.3,0-0.6-0.3-0.6-0.6S316.6,34,316.9,34L316.9,34z"/>
<path fill-rule="evenodd" clip-rule="evenodd" fill="#FFFFFF" d="M324.8,14.9c0.5,0,0.8,0.4,0.8,0.8c0,0.5-0.4,0.8-0.8,0.8
	c-0.5,0-0.8-0.4-0.8-0.8C324,15.3,324.4,14.9,324.8,14.9L324.8,14.9z"/>
<path fill-rule="evenodd" clip-rule="evenodd" fill="#FFFFFF" d="M324.8,134.5c3,0,5.4,2.4,5.4,5.4c0,3-2.4,5.4-5.4,5.4
	c-3,0-5.4-2.4-5.4-5.4C319.4,136.9,321.8,134.5,324.8,134.5L324.8,134.5z M324.8,134.1c3.2,0,5.8,2.6,5.8,5.8c0,3.2-2.6,5.8-5.8,5.8
	c-3.2,0-5.8-2.6-5.8-5.8C319,136.7,321.6,134.1,324.8,134.1L324.8,134.1z"/>
<g>
	<path fill-rule="evenodd" clip-rule="evenodd" fill="#EAEAEA" d="M230,13.1c0-8-6.3-13.1-14.3-13.1H15C7,0,0,5.1,0,13.1v146.1
		c0,8,7,14.8,15,14.8h200.7c8,0,14.3-6.7,14.3-14.8V13.1z M207,155.7c0,1.3-1,2.3-2.3,2.3H25.3c-1.3,0-2.3-1-2.3-2.3V18.3
		c0-1.3,1-2.3,2.3-2.3h179.5c1.3,0,2.3,1,2.3,2.3V155.7z"/>
	<path fill-rule="evenodd" clip-rule="evenodd" fill="#FFFFFF" d="M218.4,82.4v14.2c0,0.5-0.4,0.9-0.9,0.9h-0.3
		c-0.5,0-0.9-0.4-0.9-0.9V82.4c0-0.5,0.4-0.9,0.9-0.9h0.3C218,81.5,218.4,81.9,218.4,82.4L218.4,82.4z"/>
	<path fill-rule="evenodd" clip-rule="evenodd" fill="#FFFFFF" d="M218.3,77c0,0.6-0.5,1-1,1s-1-0.5-1-1c0-0.6,0.5-1,1-1
		S218.3,76.4,218.3,77L218.3,77z"/>
	<path fill-rule="evenodd" clip-rule="evenodd" fill="#FFFFFF" d="M17.2,86.2c0,2.7-2.2,4.9-4.9,4.9c-2.7,0-4.9-2.2-4.9-4.9
		c0-2.7,2.2-4.9,4.9-4.9C15,81.3,17.2,83.5,17.2,86.2L17.2,86.2z M17.5,86.2c0,2.9-2.3,5.2-5.2,5.2c-2.9,0-5.2-2.3-5.2-5.2
		c0-2.9,2.3-5.2,5.2-5.2C15.2,81,17.5,83.3,17.5,86.2L17.5,86.2z"/>
</g>
</svg>
