<?xml version="1.0" encoding="utf-8"?>
<!-- Generator: Adobe Illustrator 17.1.0, SVG Export Plug-In . SVG Version: 6.00 Build 0)  -->
<!DOCTYPE svg PUBLIC "-//W3C//DTD SVG 1.1//EN" "http://www.w3.org/Graphics/SVG/1.1/DTD/svg11.dtd">
<svg version="1.1" id="Layer_1" xmlns="http://www.w3.org/2000/svg" xmlns:xlink="http://www.w3.org/1999/xlink" x="0px" y="0px"
	 viewBox="0 0 312 220" width="312" height="220"  enable-background="new 0 0 312 220" xml:space="preserve">
<path fill-rule="evenodd" clip-rule="evenodd" fill="#FFFFFF" d="M148.287,71.956c0,0.557-0.452,1.008-1.008,1.008
	c-0.557,0-1.009-0.452-1.009-1.008c0-0.557,0.452-1.009,1.009-1.009C147.835,70.947,148.287,71.399,148.287,71.956L148.287,71.956z"
	/>
<g>
	<g>
		<rect x="57.628" y="11.312" fill="#FFFFFF" width="187.175" height="151.511"/>
	</g>
	<g>
		<path fill-rule="evenodd" clip-rule="evenodd" fill="#EAEAEA" d="M268,18.084C268,10.059,262.126,5,254.099,5H53.424
			C45.397,5,38,10.059,38,18.084v146.141C38,172.25,45.397,179,53.424,179h200.675c8.027,0,13.901-6.75,13.901-14.775V18.084z
			 M245,160.734c0,1.251-1.014,2.266-2.266,2.266H63.266c-1.251,0-2.266-1.014-2.266-2.266V23.266C61,22.014,62.014,21,63.266,21
			h179.469c1.251,0,2.266,1.014,2.266,2.266V160.734z"/>
	</g>
	<g>
		<path fill-rule="evenodd" clip-rule="evenodd" fill="#FFFFFF" d="M256.947,77.446v14.198c0,0.52-0.425,0.945-0.945,0.945h-0.324
			c-0.52,0-0.945-0.425-0.945-0.945V77.446c0-0.52,0.425-0.945,0.945-0.945h0.324C256.522,76.501,256.947,76.926,256.947,77.446
			L256.947,77.446z"/>
	</g>
	<g>
		<path fill-rule="evenodd" clip-rule="evenodd" fill="#FFFFFF" d="M55.684,91.179c0,2.682-2.175,4.856-4.857,4.856
			c-2.682,0-4.857-2.174-4.857-4.856c0-2.682,2.174-4.857,4.857-4.857C53.509,86.323,55.684,88.497,55.684,91.179L55.684,91.179z
			 M56.055,91.179c0,2.887-2.341,5.228-5.228,5.228c-2.887,0-5.228-2.341-5.228-5.228c0-2.888,2.341-5.228,5.228-5.228
			C53.715,85.951,56.055,88.292,56.055,91.179L56.055,91.179z"/>
	</g>
	<g>
		<g>
			<path fill="#FF8C40" d="M108.646,153.731c-5.282,0-9.579-4.297-9.579-9.579c0-5.281,4.297-9.578,9.579-9.578
				s9.579,4.297,9.579,9.578C118.226,149.435,113.928,153.731,108.646,153.731z"/>
		</g>
		<g>
			<g>
				<path fill="#FF8C40" d="M108.647,135.054c5.017,0,9.098,4.082,9.098,9.098c0,5.017-4.082,9.098-9.098,9.098
					s-9.098-4.082-9.098-9.098C99.548,139.136,103.63,135.054,108.647,135.054 M108.647,134.093
					c-5.556,0-10.059,4.504-10.059,10.059c0,5.556,4.504,10.059,10.059,10.059s10.059-4.504,10.059-10.059
					C118.706,138.597,114.202,134.093,108.647,134.093L108.647,134.093z"/>
			</g>
		</g>
	</g>
	<g>
		<g>
			<path fill="#FF8C40" d="M191.646,144.731c-5.282,0-9.579-4.297-9.579-9.579c0-5.281,4.297-9.578,9.579-9.578
				s9.579,4.297,9.579,9.578C201.226,140.435,196.929,144.731,191.646,144.731z"/>
		</g>
		<g>
			<g>
				<path fill="#FF8C40" d="M191.647,126.054c5.017,0,9.098,4.082,9.098,9.098c0,5.017-4.082,9.098-9.098,9.098
					s-9.098-4.082-9.098-9.098C182.548,130.136,186.63,126.054,191.647,126.054 M191.647,125.093
					c-5.556,0-10.059,4.504-10.059,10.059c0,5.556,4.504,10.059,10.059,10.059s10.059-4.504,10.059-10.059
					C201.706,129.597,197.202,125.093,191.647,125.093L191.647,125.093z"/>
			</g>
		</g>
	</g>
	<g>
		<g>
			<path fill="#FFFFFF" d="M247.004,195.873l-23.145-6.375l-15.132-8.813c0,0-9.318-9.47-9.441-9.593
				c-1.222-1.219-1.757-2.938-1.394-4.488c0.326-1.392,1.341-2.467,2.785-2.951c0.237-0.079,0.498-0.12,0.775-0.12
				c2.97,0,8.346,5.039,9.477,6.131l12.859,3.779l0.147-3.145l-19.184-19.118l-15.289-10.339c-0.213-0.052-0.55-0.217-1.12-0.736
				c-1.579-1.271-2.221-3.978-1.362-5.877c0.986-2.479,2.794-3.755,5.358-3.755c0.195,0,0.397,0.008,0.607,0.023l0.111,0.008
				l0.105,0.037c0.269,0.095,1.311,0.548,1.311,0.548l0.054,0.023l15.522,9.546l15.366,15.315l1.185-1.189l-10.697-10.661
				c-1.077-1.073-1.649-2.532-1.612-4.107c0.037-1.544,0.652-2.99,1.731-4.073c1.104-1.108,2.644-1.744,4.225-1.744
				c1.513,0,2.916,0.569,3.952,1.602l12.282,12.241l0.79-0.793c-1.772-1.768-6.906-6.884-6.996-6.973
				c-2.421-2.413-4.158-6.314-1.103-9.382c1.104-1.107,2.382-1.669,3.798-1.669c2.584,0,4.774,1.904,5.597,2.724
				c0.048,0.048,6.897,6.875,8.981,8.951l1.082-1.085c-1.403-1.397-4.804-4.781-4.832-4.809c-1.087-1.084-1.715-2.425-1.766-3.776
				c-0.053-1.416,0.498-2.745,1.592-3.843c0.894-0.896,2.051-1.37,3.347-1.37c1.614,0,3.278,0.735,4.565,2.019
				c0.028,0.028,12.316,12.16,12.316,12.16l10.409,19.427l16.141,16.085l-31.5,31.608L247.004,195.873z"/>
		</g>
		<g>
			<path fill="#414141" d="M246.972,126.856c1.396,0,2.861,0.666,3.974,1.774c0.036,0.035,12.229,12.073,12.229,12.073
				l10.408,19.426l15.634,15.58l-30.325,30.429l-11.458-11.019l-23.245-6.402l-14.94-8.702c0,0-9.362-9.513-9.366-9.517
				c-1.918-1.912-1.713-5.12,1.063-6.05c0.155-0.052,0.325-0.076,0.509-0.076c2.888,0,9.04,6.038,9.04,6.038l14.083,4.139
				l0.216-4.583l-19.503-19.437l-15.555-10.518c-0.01,0.01-0.024,0.015-0.042,0.015c-0.189,0-0.784-0.541-0.784-0.541
				c-1.387-1.119-1.819-3.459-1.162-4.911c0.496-1.247,1.581-3.261,4.593-3.261c0.175,0,0.357,0.007,0.546,0.021
				c0.257,0.091,1.254,0.525,1.254,0.525l15.388,9.464l15.892,15.838l2.37-2.378l-11.292-11.254
				c-1.902-1.896-1.779-5.087,0.121-6.994c0.982-0.986,2.312-1.497,3.63-1.497c1.226,0,2.442,0.442,3.359,1.356l12.878,12.834
				l1.975-1.982c0,0-7.563-7.537-7.594-7.568c-1.918-1.912-3.86-5.419-1.097-8.191c1.021-1.025,2.123-1.423,3.203-1.423
				c1.921,0,3.776,1.256,5.004,2.479c0.032,0.032,9.576,9.543,9.576,9.543l2.267-2.275c0,0-5.39-5.364-5.426-5.399
				c-1.914-1.908-2.08-4.519-0.172-6.433C244.995,127.202,245.965,126.856,246.972,126.856 M246.972,125.177L246.972,125.177
				c-1.524,0-2.886,0.559-3.941,1.617c-1.245,1.249-1.897,2.835-1.836,4.467c0.041,1.102,0.408,2.193,1.054,3.173l-3.09-3.079
				c-0.896-0.893-3.292-2.969-6.188-2.969c-1.624,0-3.143,0.663-4.392,1.916c-2.301,2.308-2.257,5.165-1.017,7.664l-2.77-2.761
				c-1.194-1.19-2.808-1.846-4.544-1.846c-1.802,0-3.559,0.725-4.819,1.99c-1.232,1.236-1.933,2.886-1.975,4.646
				c-0.043,1.807,0.617,3.484,1.859,4.722l2.305,2.297l-6.905-6.881l-0.139-0.138l-0.167-0.103l-15.388-9.464l-0.1-0.062
				l-0.108-0.047c-0.317-0.138-1.083-0.47-1.368-0.57l-0.21-0.074l-0.222-0.017c-0.232-0.017-0.456-0.026-0.671-0.026
				c-2.016,0-4.715,0.744-6.139,4.286c-0.971,2.201-0.237,5.308,1.613,6.838c0.489,0.441,0.892,0.711,1.277,0.844l15.127,10.229
				l18.864,18.799l-0.08,1.706l-11.635-3.419c-1.86-1.789-6.786-6.223-9.912-6.223c-0.368,0-0.719,0.055-1.042,0.163
				c-1.726,0.579-2.942,1.875-3.336,3.556c-0.429,1.83,0.192,3.852,1.621,5.275c0.06,0.061,9.355,9.505,9.355,9.505l0.158,0.16
				l0.194,0.113l14.94,8.702l0.189,0.11l0.211,0.058l22.835,6.289l11.151,10.723l1.189,1.143l1.164-1.168l30.325-30.429l1.185-1.189
				l-1.189-1.185l-15.457-15.404l-10.29-19.206l-0.12-0.224l-0.181-0.178c0,0-12.109-11.954-12.227-12.07
				C250.687,126.002,248.807,125.177,246.972,125.177L246.972,125.177z"/>
		</g>
	</g>
	<g>
		<g>
			<path fill="#FFFFFF" d="M10.258,183.707l16.141-16.085l10.409-19.427c0,0,12.288-12.132,12.324-12.167
				c1.279-1.276,2.943-2.012,4.558-2.012c1.296,0,2.453,0.474,3.347,1.37c2.191,2.199,2.12,5.332-0.174,7.62
				c-0.078,0.076-3.438,3.421-4.832,4.808l1.082,1.085c2.084-2.076,8.934-8.903,8.981-8.95c0.822-0.82,3.013-2.725,5.597-2.725
				c1.416,0,2.693,0.562,3.798,1.669c3.056,3.067,1.318,6.969-1.099,9.379c-0.093,0.091-5.227,5.208-7,6.976l0.79,0.793
				L76.462,143.8c1.036-1.032,2.439-1.602,3.952-1.602c1.581,0,3.121,0.636,4.226,1.744c1.079,1.083,1.693,2.529,1.73,4.073
				c0.037,1.575-0.535,3.034-1.612,4.107l-10.697,10.661l1.185,1.189l15.366-15.315l15.523-9.546l0.054-0.023
				c0,0,1.041-0.452,1.309-0.547l0.105-0.038l0.112-0.008c0.21-0.016,0.412-0.023,0.607-0.023c2.564,0,4.372,1.275,5.374,3.79
				c0.843,1.864,0.201,4.57-1.416,5.875c-0.545,0.498-0.873,0.655-1.084,0.705L95.909,159.18l-19.184,19.118l0.147,3.145
				l12.859-3.779c1.131-1.092,6.508-6.131,9.477-6.131c0.277,0,0.538,0.041,0.775,0.12c1.444,0.484,2.459,1.56,2.785,2.951
				c0.363,1.55-0.172,3.27-1.396,4.49l-9.439,9.591l-15.132,8.813l-23.145,6.375l-11.899,11.442L10.258,183.707z"/>
		</g>
		<g>
			<path fill="#414141" d="M53.69,134.856c1.007,0,1.977,0.347,2.751,1.124c1.908,1.914,1.742,4.525-0.172,6.433
				c-0.036,0.035-5.426,5.399-5.426,5.399l2.267,2.275c0,0,9.544-9.512,9.576-9.543c1.228-1.223,3.083-2.48,5.004-2.479
				c1.081,0,2.182,0.398,3.203,1.423c2.763,2.773,0.822,6.279-1.097,8.191c-0.032,0.032-7.594,7.568-7.594,7.568l1.975,1.982
				l12.878-12.834c0.917-0.914,2.133-1.356,3.359-1.356c1.318,0,2.648,0.511,3.63,1.497c1.9,1.906,2.023,5.098,0.121,6.994
				l-11.292,11.254l2.37,2.378l15.892-15.838l15.388-9.464c0,0,0.997-0.435,1.254-0.525c0.189-0.014,0.37-0.021,0.546-0.021
				c3.012,0,4.096,2.014,4.593,3.261c0.657,1.452,0.224,3.792-1.162,4.911c0,0-0.595,0.541-0.784,0.541
				c-0.018,0-0.032-0.005-0.042-0.015l-15.555,10.518L75.87,177.966l0.216,4.583l14.083-4.139c0,0,6.153-6.038,9.04-6.038
				c0.184,0,0.354,0.024,0.509,0.076c2.776,0.931,2.982,4.139,1.063,6.05l-9.366,9.517l-14.94,8.702l-23.245,6.402l-11.458,11.019
				l-30.325-30.429l15.634-15.58l10.408-19.426c0,0,12.194-12.037,12.229-12.073C50.829,135.521,52.295,134.856,53.69,134.856
				 M53.69,133.177c-1.835,0-3.715,0.825-5.159,2.264c-0.118,0.117-12.224,12.067-12.224,12.067l-0.181,0.178l-0.12,0.224
				l-10.29,19.206L10.261,182.52l-1.189,1.185l1.185,1.189l30.325,30.429l1.164,1.168l1.189-1.143l11.151-10.723l22.835-6.289
				l0.211-0.058l0.189-0.11l14.94-8.702l0.194-0.113l0.158-0.16l9.366-9.517c1.417-1.412,2.038-3.434,1.609-5.264
				c-0.394-1.681-1.61-2.977-3.335-3.556c-0.323-0.108-0.674-0.163-1.042-0.163c-3.126,0-8.052,4.434-9.912,6.223l-11.635,3.419
				l-0.08-1.706l18.864-18.799l15.127-10.229c0.385-0.134,0.788-0.404,1.277-0.844c1.851-1.53,2.584-4.637,1.613-6.838
				c-1.424-3.541-4.123-4.286-6.139-4.286c-0.216,0-0.439,0.008-0.671,0.026l-0.222,0.017l-0.21,0.074
				c-0.284,0.1-1.051,0.432-1.368,0.57l-0.108,0.047l-0.1,0.062l-15.388,9.464l-0.167,0.103l-0.139,0.138l-6.905,6.881l2.305-2.297
				c1.242-1.238,1.902-2.915,1.859-4.722c-0.042-1.76-0.744-3.41-1.975-4.646c-1.26-1.265-3.017-1.99-4.819-1.99
				c-1.736,0-3.35,0.655-4.544,1.846l-2.762,2.752c0.25-0.502,0.466-1.048,0.617-1.631c0.582-2.239-0.002-4.379-1.643-6.025
				c-1.249-1.254-2.768-1.916-4.392-1.916c-2.897,0-5.293,2.076-6.189,2.969l-3.09,3.079c0.646-0.98,1.013-2.071,1.054-3.173
				c0.061-1.631-0.591-3.218-1.836-4.467C56.576,133.736,55.214,133.177,53.69,133.177L53.69,133.177z"/>
		</g>
	</g>
</g>
</svg>
