<?xml version="1.0" encoding="utf-8"?>
<!-- Generator: Adobe Illustrator 18.0.0, SVG Export Plug-In . SVG Version: 6.00 Build 0)  -->
<!DOCTYPE svg PUBLIC "-//W3C//DTD SVG 1.1//EN" "http://www.w3.org/Graphics/SVG/1.1/DTD/svg11.dtd">
<svg version="1.1" id="Layer_1" xmlns="http://www.w3.org/2000/svg" xmlns:xlink="http://www.w3.org/1999/xlink" x="0px" y="0px"
	 viewBox="0 0 356 174" width="356" height="174"  enable-background="new 0 0 356 174" xml:space="preserve">
<rect x="297.6" y="39.6" fill="#FF8C40" width="55.7" height="94.1"/>
<rect x="20.2" y="12.6" fill="#FF8C40" width="192" height="146"/>
<rect x="21.7" y="86.1" fill="#FFFFFF" width="187.2" height="73.5"/>
<path fill="#FFB485" d="M23.1,86c3.6,32,43.4,58.1,91.9,58.1S203.3,118,206.9,86H23.1z"/>
<rect x="299" y="82.8" fill="#FFFFFF" width="53.6" height="50.5"/>
<g>
	<path fill="#414141" d="M110.8,150.4c0,2-1.3,3.7-3.4,3.7s-3.4-1.7-3.4-3.7c0-2,1.3-3.7,3.4-3.7S110.8,148.4,110.8,150.4z
		 M105.3,150.4c0,1.4,0.6,2.7,2.2,2.7s2.2-1.3,2.2-2.7c0-1.4-0.6-2.7-2.2-2.7S105.3,149.1,105.3,150.4z"/>
	<path fill="#414141" d="M111.9,146.9h1.2v3.2l3.2-3.2h1.5l-2.8,2.8l3,4.3h-1.6l-2.3-3.4l-1,1v2.4h-1.2V146.9z"/>
	<path fill="#414141" d="M121.2,146.9h1.3l2.7,7.1H124l-0.7-1.9h-2.8l-0.7,1.9h-1.3L121.2,146.9z M120.8,151.2h2.2l-1.1-3.1h0
		L120.8,151.2z"/>
	<path fill="#414141" d="M126.9,151.2l-2.7-4.3h1.4l1.9,3.2l1.9-3.2h1.4l-2.7,4.3v2.8h-1.2V151.2z"/>
</g>
<g>
	<path fill="#414141" d="M104.9,39.7h3.5c1.3,0,2.1,0.6,2.1,1.8c0,0.7-0.4,1.2-1,1.5v0c0.9,0.2,1.3,0.9,1.3,1.8c0,1.1-0.8,2-2.6,2
		h-3.3V39.7z M106.2,42.7h2c0.6,0,1-0.3,1-1c0-0.7-0.4-1-1-1h-2V42.7z M106.2,45.8h2.2c0.8,0,1.2-0.4,1.2-1.1c0-0.7-0.4-1.1-1.2-1.1
		h-2.2V45.8z"/>
	<path fill="#414141" d="M111.9,39.7h5.1v1.1h-3.9v1.9h3.6v1h-3.6v2.1h4v1.1h-5.2V39.7z"/>
	<path fill="#414141" d="M119.1,44.4c0,1.1,0.8,1.5,1.8,1.5c1.1,0,1.5-0.5,1.5-1.1c0-0.5-0.3-0.8-0.6-0.9c-0.5-0.2-1.1-0.3-2.1-0.6
		c-1.2-0.3-1.6-1.1-1.6-1.8c0-1.4,1.3-2.1,2.6-2.1c1.5,0,2.7,0.8,2.7,2.3h-1.2c-0.1-0.9-0.7-1.3-1.5-1.3c-0.6,0-1.3,0.2-1.3,0.9
		c0,0.5,0.3,0.8,0.8,0.9c0.1,0,1.7,0.4,2.1,0.5c0.9,0.3,1.4,1.1,1.4,1.8c0,1.6-1.4,2.2-2.8,2.2c-1.6,0-2.9-0.8-3-2.5H119.1z"/>
	<path fill="#414141" d="M124.1,39.7h5.8v1.1h-2.3v6.1h-1.2v-6.1h-2.3V39.7z"/>
</g>
<path fill-rule="evenodd" clip-rule="evenodd" fill="#FFFFFF" d="M322.8,134.5c3,0,5.4,2.4,5.4,5.4c0,3-2.4,5.4-5.4,5.4
	c-3,0-5.4-2.4-5.4-5.4C317.4,136.9,319.8,134.5,322.8,134.5L322.8,134.5z M322.8,134.1c3.2,0,5.8,2.6,5.8,5.8c0,3.2-2.6,5.8-5.8,5.8
	c-3.2,0-5.8-2.6-5.8-5.8C317,136.7,319.6,134.1,322.8,134.1L322.8,134.1z"/>
<g>
	<path fill-rule="evenodd" clip-rule="evenodd" fill="#EAEAEA" d="M230,13.1c0-8-6.3-13.1-14.3-13.1H15C7,0,0,5.1,0,13.1v146.1
		c0,8,7,14.8,15,14.8h200.7c8,0,14.3-6.7,14.3-14.8V13.1z M207,155.7c0,1.3-1,2.3-2.3,2.3H25.3c-1.3,0-2.3-1-2.3-2.3V18.3
		c0-1.3,1-2.3,2.3-2.3h179.5c1.3,0,2.3,1,2.3,2.3V155.7z"/>
	<path fill-rule="evenodd" clip-rule="evenodd" fill="#FFFFFF" d="M218.6,82.4v14.2c0,0.5-0.4,0.9-0.9,0.9h-0.3
		c-0.5,0-0.9-0.4-0.9-0.9V82.4c0-0.5,0.4-0.9,0.9-0.9h0.3C218.1,81.5,218.6,81.9,218.6,82.4L218.6,82.4z"/>
	<path fill-rule="evenodd" clip-rule="evenodd" fill="#FFFFFF" d="M218.5,77c0,0.6-0.5,1-1,1s-1-0.5-1-1c0-0.6,0.5-1,1-1
		S218.5,76.4,218.5,77L218.5,77z"/>
	<path fill-rule="evenodd" clip-rule="evenodd" fill="#FFFFFF" d="M17.3,86.2c0,2.7-2.2,4.9-4.9,4.9c-2.7,0-4.9-2.2-4.9-4.9
		c0-2.7,2.2-4.9,4.9-4.9C15.1,81.3,17.3,83.5,17.3,86.2L17.3,86.2z M17.7,86.2c0,2.9-2.3,5.2-5.2,5.2c-2.9,0-5.2-2.3-5.2-5.2
		c0-2.9,2.3-5.2,5.2-5.2C15.3,81,17.7,83.3,17.7,86.2L17.7,86.2z"/>
</g>
<path fill-rule="evenodd" clip-rule="evenodd" fill="#EAEAEA" d="M355,34.1c0-5.1-3.6-9.1-8.7-9.1H306c-5.1,0-10,4-10,9.1v106.1
	c0,5.1,4.8,8.8,9.8,8.8h42c5.1,0,7.2-3.6,7.2-8.8V34.1z M352,129.6c0,0.8-0.6,1.4-1.4,1.4h-50.2c-0.8,0-1.4-0.6-1.4-1.4V43.4
	c0-0.8,0.6-1.4,1.4-1.4h50.2c0.8,0,1.4,0.6,1.4,1.4V129.6z"/>
<g>
	<g>
		<path fill-rule="evenodd" clip-rule="evenodd" fill="#FFFFFF" d="M321.9,33.9h8.9c0.3,0,0.6,0.3,0.6,0.6v0.2
			c0,0.3-0.3,0.6-0.6,0.6h-8.9c-0.3,0-0.6-0.3-0.6-0.6v-0.2C321.3,34.2,321.6,33.9,321.9,33.9L321.9,33.9z"/>
		<path fill-rule="evenodd" clip-rule="evenodd" fill="#FFFFFF" d="M318.4,34c0.3,0,0.6,0.3,0.6,0.6s-0.3,0.6-0.6,0.6
			c-0.3,0-0.6-0.3-0.6-0.6S318.1,34,318.4,34L318.4,34z"/>
		<path fill-rule="evenodd" clip-rule="evenodd" fill="#FFFFFF" d="M326.3,29.9c0.5,0,0.8,0.4,0.8,0.8c0,0.5-0.4,0.8-0.8,0.8
			c-0.5,0-0.8-0.4-0.8-0.8C325.5,30.3,325.9,29.9,326.3,29.9L326.3,29.9z"/>
		<path fill-rule="evenodd" clip-rule="evenodd" fill="#FFFFFF" d="M321.9,33.9h8.9c0.3,0,0.6,0.3,0.6,0.6v0.2
			c0,0.3-0.3,0.6-0.6,0.6h-8.9c-0.3,0-0.6-0.3-0.6-0.6v-0.2C321.3,34.2,321.6,33.9,321.9,33.9L321.9,33.9z"/>
		<path fill-rule="evenodd" clip-rule="evenodd" fill="#FFFFFF" d="M318.4,34c0.3,0,0.6,0.3,0.6,0.6s-0.3,0.6-0.6,0.6
			c-0.3,0-0.6-0.3-0.6-0.6S318.1,34,318.4,34L318.4,34z"/>
		<path fill-rule="evenodd" clip-rule="evenodd" fill="#FFFFFF" d="M326.3,29.9c0.5,0,0.8,0.4,0.8,0.8c0,0.5-0.4,0.8-0.8,0.8
			c-0.5,0-0.8-0.4-0.8-0.8C325.5,30.3,325.9,29.9,326.3,29.9L326.3,29.9z"/>
	</g>
	<path fill-rule="evenodd" clip-rule="evenodd" fill="#FFFFFF" d="M326.3,134.5c3,0,5.4,2.4,5.4,5.4c0,3-2.4,5.4-5.4,5.4
		c-3,0-5.4-2.4-5.4-5.4C320.9,136.9,323.3,134.5,326.3,134.5L326.3,134.5z M326.3,134.1c3.2,0,5.8,2.6,5.8,5.8
		c0,3.2-2.6,5.8-5.8,5.8c-3.2,0-5.8-2.6-5.8-5.8C320.5,136.7,323.1,134.1,326.3,134.1L326.3,134.1z"/>
</g>
<g>
	<path fill="#414141" d="M109.4,114.8h-0.8l-0.2-0.8c-0.7,0.8-1.3,1-2.1,1c-2.1,0-3.4-1.7-3.4-3.7c0-2,1.3-3.7,3.4-3.7
		c1.5,0,2.9,0.8,3.1,2.4h-1.2c-0.1-0.9-0.9-1.4-1.8-1.4c-1.5,0-2.2,1.3-2.2,2.7c0,1.4,0.6,2.7,2.2,2.7c1.3,0,2-0.7,2-2h-1.9V111h3
		V114.8z"/>
	<path fill="#414141" d="M117.2,111.2c0,2-1.3,3.7-3.4,3.7s-3.4-1.7-3.4-3.7c0-2,1.3-3.7,3.4-3.7S117.2,109.2,117.2,111.2z
		 M111.6,111.2c0,1.4,0.6,2.7,2.2,2.7s2.2-1.3,2.2-2.7c0-1.4-0.6-2.7-2.2-2.7S111.6,109.8,111.6,111.2z"/>
	<path fill="#414141" d="M124.8,111.2c0,2-1.3,3.7-3.4,3.7s-3.4-1.7-3.4-3.7c0-2,1.3-3.7,3.4-3.7S124.8,109.2,124.8,111.2z
		 M119.3,111.2c0,1.4,0.6,2.7,2.2,2.7s2.2-1.3,2.2-2.7c0-1.4-0.6-2.7-2.2-2.7S119.3,109.8,119.3,111.2z"/>
	<path fill="#414141" d="M125.9,107.6h3c2.2,0,3.1,1.6,3.1,3.6c0,2-1,3.6-3.1,3.6h-3V107.6z M127.1,113.7h1.2c2,0,2.4-1.1,2.4-2.5
		c0-1.4-0.4-2.5-2.4-2.5h-1.2V113.7z"/>
</g>
<path fill="#FFB485" d="M325.5,108c-14.6,0-26.5-11.5-26.5-25.7c0-0.1,0-0.3,0-0.3H352c0,0,0,0.2,0,0.3
	C352,96.5,340.1,108,325.5,108z"/>
</svg>
