<?xml version="1.0" encoding="utf-8"?>
<!-- Generator: Adobe Illustrator 17.1.0, SVG Export Plug-In . SVG Version: 6.00 Build 0)  -->
<!DOCTYPE svg PUBLIC "-//W3C//DTD SVG 1.1//EN" "http://www.w3.org/Graphics/SVG/1.1/DTD/svg11.dtd">
<svg version="1.1" id="Layer_1" xmlns="http://www.w3.org/2000/svg" xmlns:xlink="http://www.w3.org/1999/xlink" x="0px" y="0px"
	 viewBox="0 0 312 220" width="312" height="220"  enable-background="new 0 0 312 220" xml:space="preserve">
<path fill-rule="evenodd" clip-rule="evenodd" fill="#FFFFFF" d="M151.278,37.572c0.408,0,0.739,0.331,0.739,0.739
	s-0.331,0.739-0.739,0.739c-0.408,0-0.739-0.331-0.739-0.739S150.87,37.572,151.278,37.572L151.278,37.572z"/>
<path fill-rule="evenodd" clip-rule="evenodd" fill="#FFFFFF" d="M151.278,32.789c0.535,0,0.969,0.434,0.969,0.97
	c0,0.535-0.434,0.969-0.969,0.969c-0.535,0-0.97-0.434-0.97-0.969C150.309,33.223,150.743,32.789,151.278,32.789L151.278,32.789z"/>
<g>
	<g>
		<path fill="#FFFFFF" d="M239.064,91.263l31.433,8.667l13.148,20l9.241,35.722l13.612,26.278l-40.755,19.907l-7.435-16.937
			l-13.102-16.264C245.206,168.636,239.064,90.445,239.064,91.263z"/>
		<path fill="#414141" d="M264.997,203.87l-7.982-18.186l-13.267-16.469l-0.037-0.463c-1.91-24.32-5.218-69.075-5.827-76.319
			L238,92.406V91.33l-0.458-1.961L239.237,90h1.117l0.049,0.198l31.039,8.497l13.594,20.649l9.26,35.783l14.24,27.485
			L264.997,203.87z M246.665,168.056l12.936,16.059l6.887,15.689l37.972-18.548l-12.983-25.064l-9.221-35.646l-12.701-19.32
			l-28.811-7.944C241.683,104.661,245.698,155.739,246.665,168.056z"/>
	</g>
	<g>
		<path fill="#FFFFFF" d="M66.787,97.256l-31.153,9.626l-12.529,20.394l-8.142,35.988l-12.8,26.683l41.346,18.649l6.912-17.157
			L63.02,174.78C63.02,174.78,66.762,96.438,66.787,97.256z"/>
		<path fill="#414141" d="M44.318,210.605l-44.17-19.923l13.391-27.915l8.159-36.065l12.955-21.087l30.761-9.504l0.043-0.354
			l1.122-0.006l1.974-0.61L68.29,97.31l0.032,1.042l-0.102,0.032c-0.38,7.154-2.537,52.073-3.702,76.468l-0.022,0.464L51.74,192.184
			L44.318,210.605z M4.181,189.21l38.522,17.376l6.403-15.893l12.438-16.448c0.589-12.339,3.037-63.518,3.627-74.92l-28.554,8.823
			l-12.103,19.7L16.39,163.76L4.181,189.21z"/>
	</g>
	<g>
		<g>
			<rect x="62.118" y="15.312" fill="#FFFFFF" width="187.175" height="151.511"/>
		</g>
		<g>
			<path fill-rule="evenodd" clip-rule="evenodd" fill="#EAEAEA" d="M272,22.084C272,14.059,266.615,9,258.589,9H57.914
				C49.887,9,42,14.059,42,22.084v146.141C42,176.25,49.887,183,57.914,183h200.675c8.026,0,13.411-6.75,13.411-14.775V22.084z
				 M249,164.734c0,1.251-1.014,2.266-2.266,2.266H67.266c-1.251,0-2.266-1.014-2.266-2.266V27.266C65,26.014,66.014,25,67.266,25
				h179.469c1.251,0,2.266,1.014,2.266,2.266V164.734z"/>
		</g>
		<g>
			<path fill-rule="evenodd" clip-rule="evenodd" fill="#FFFFFF" d="M261.437,81.446v14.198c0,0.52-0.425,0.945-0.945,0.945h-0.324
				c-0.52,0-0.945-0.425-0.945-0.945V81.446c0-0.52,0.425-0.945,0.945-0.945h0.324C261.012,80.501,261.437,80.926,261.437,81.446
				L261.437,81.446z"/>
		</g>
		<g>
			<path fill-rule="evenodd" clip-rule="evenodd" fill="#FFFFFF" d="M261.338,75.956c0,0.557-0.452,1.008-1.008,1.008
				s-1.009-0.452-1.009-1.008c0-0.557,0.452-1.009,1.009-1.009S261.338,75.399,261.338,75.956L261.338,75.956z"/>
		</g>
		<g>
			<path fill-rule="evenodd" clip-rule="evenodd" fill="#FFFFFF" d="M60.174,95.179c0,2.682-2.175,4.856-4.857,4.856
				c-2.682,0-4.857-2.174-4.857-4.856c0-2.682,2.174-4.857,4.857-4.857C57.999,90.323,60.174,92.497,60.174,95.179L60.174,95.179z
				 M60.545,95.179c0,2.887-2.341,5.228-5.228,5.228c-2.887,0-5.228-2.341-5.228-5.228c0-2.888,2.341-5.228,5.228-5.228
				C58.205,89.951,60.545,92.292,60.545,95.179L60.545,95.179z"/>
		</g>
	</g>
	<g>
		<g>
			<path fill="#FF8C40" d="M228.136,132.731c-5.282,0-9.579-4.297-9.579-9.579c0-5.281,4.297-9.578,9.579-9.578
				s9.579,4.297,9.579,9.578C237.715,128.435,233.418,132.731,228.136,132.731z"/>
		</g>
		<g>
			<g>
				<path fill="#FF8C40" d="M228.136,114.054c5.017,0,9.098,4.082,9.098,9.098c0,5.017-4.082,9.098-9.098,9.098
					s-9.098-4.082-9.098-9.098C219.038,118.136,223.12,114.054,228.136,114.054 M228.136,113.093
					c-5.556,0-10.059,4.504-10.059,10.059s4.504,10.059,10.059,10.059s10.059-4.504,10.059-10.059S233.692,113.093,228.136,113.093
					L228.136,113.093z"/>
			</g>
		</g>
	</g>
	<g>
		<path fill="#FFFFFF" d="M277.244,128.621l-30.106-9.313l-15.947-3.496c0,0-4.605,1.076-4.394,3.792c0,0-1.338,6.486,8.844,11.65
			l20.659,12.346l3.76,7.642c0,0,10.414,15.224,25.968,17.443"/>
		<path fill="#414141" d="M285.815,170.172c-16.023-2.286-26.553-17.437-26.994-18.081l-0.108-0.185l-3.564-7.244l-20.234-12.094
			c-10.078-5.132-9.796-11.706-9.625-13.035c-0.121-3.742,4.968-5.043,5.558-5.181l0.331-0.077l16.401,3.601l30.106,9.312
			l-0.887,2.865l-30.046-9.293l-15.531-3.404c-1.199,0.352-3.002,1.215-2.931,2.133l0.016,0.212l-0.042,0.207
			c-0.036,0.202-0.855,5.49,8.054,10.009l0.091,0.051l21.04,12.573l3.904,7.937c0.839,1.179,10.759,14.709,24.885,16.724
			L285.815,170.172z"/>
	</g>
	<g>
		<g>
			<path fill="#FF8C40" d="M79.136,124.731c-5.282,0-9.579-4.297-9.579-9.579c0-5.282,4.297-9.579,9.579-9.579
				s9.579,4.297,9.579,9.579C88.715,120.435,84.418,124.731,79.136,124.731z"/>
		</g>
		<g>
			<g>
				<path fill="#FF8C40" d="M79.136,106.054c5.017,0,9.098,4.082,9.098,9.098c0,5.017-4.082,9.098-9.098,9.098
					s-9.098-4.082-9.098-9.098C70.038,110.136,74.12,106.054,79.136,106.054 M79.136,105.093c-5.556,0-10.059,4.504-10.059,10.059
					c0,5.556,4.504,10.059,10.059,10.059s10.059-4.504,10.059-10.059C89.196,109.597,84.692,105.093,79.136,105.093L79.136,105.093z
					"/>
			</g>
		</g>
	</g>
	<g>
		<path fill="#FFFFFF" d="M34.772,133.866l27.486-16.529l14.873-7.329c0,0,4.751-0.047,5.138,2.699c0,0,2.731,6.112-6.124,13.702
			l-17.557,17.252l-2.015,8.494c0,0-6.881,17.628-21.649,23.595"/>
		<path fill="#414141" d="M35.493,177.159l-1.139-2.818c13.464-5.44,20.212-21.296,20.766-22.647l2.09-8.809l17.946-17.629
			c7.775-6.664,5.805-11.736,5.717-11.948l-0.108-0.389c-0.128-0.908-2.077-1.327-3.293-1.385l-14.485,7.138l-27.431,16.496
			l-1.566-2.604l27.598-16.591l15.184-7.482l0.346-0.003c2.231,0.014,6.048,0.765,6.626,3.817c0.458,1.272,2.168,7.711-6.569,15.223
			l-17.208,16.909l-1.977,8.271C57.697,153.452,50.693,171.017,35.493,177.159z"/>
	</g>
</g>
</svg>
