<?xml version="1.0" encoding="utf-8"?>
<!-- Generator: Adobe Illustrator 17.1.0, SVG Export Plug-In . SVG Version: 6.00 Build 0)  -->
<!DOCTYPE svg PUBLIC "-//W3C//DTD SVG 1.1//EN" "http://www.w3.org/Graphics/SVG/1.1/DTD/svg11.dtd">
<svg version="1.1" id="Layer_1" xmlns="http://www.w3.org/2000/svg" xmlns:xlink="http://www.w3.org/1999/xlink" x="0px" y="0px"
	 viewBox="0 0 312 220" width="312" height="220"  enable-background="new 0 0 312 220" xml:space="preserve">
<g>
	<g>
		<path fill="#FFFFFF" d="M68.714,79.476L36.884,91.302l-11.718,21.243l-6.124,36.492L7.454,176.576l44.306,15.663l6.077-17.614
			l12.034-17.52C69.872,157.105,68.635,78.661,68.714,79.476z"/>
		<path fill="#414141" d="M52.705,194.199l-47.294-16.72l12.149-28.872l6.138-36.574l12.119-21.97l31.426-11.675l0.026-0.444
			l1.184-0.006l1.932-0.718l-0.133,2.214l0.104,1.067l-0.106,0.04c0.075,7.243,0.771,52.146,1.156,76.54l0.008,0.489l-12.193,17.752
			L52.705,194.199z M9.498,175.673l41.317,14.606l5.642-16.35l11.875-17.289c-0.195-12.39-0.998-63.485-1.132-74.966L37.951,92.541
			l-11.316,20.516l-6.11,36.41L9.498,175.673z"/>
	</g>
	<g>
		<g>
			<rect x="80.073" y="25.312" fill="#FFFFFF" width="187.175" height="151.511"/>
		</g>
		<g>
			<path fill-rule="evenodd" clip-rule="evenodd" fill="#EAEAEA" d="M289,32.084C289,24.059,284.388,19,276.362,19H75.687
				C67.66,19,59,24.059,59,32.084v146.141C59,186.25,67.66,193,75.687,193h200.675c8.027,0,12.638-6.75,12.638-14.775V32.084z
				 M266,174.734c0,1.251-1.014,2.266-2.266,2.266H84.266c-1.251,0-2.266-1.014-2.266-2.266V37.266C82,36.014,83.014,35,84.266,35
				h179.469c1.251,0,2.266,1.014,2.266,2.266V174.734z"/>
		</g>
		<g>
			<path fill-rule="evenodd" clip-rule="evenodd" fill="#FFFFFF" d="M279.391,91.446v14.198c0,0.52-0.425,0.945-0.945,0.945h-0.324
				c-0.52,0-0.945-0.425-0.945-0.945V91.446c0-0.52,0.425-0.945,0.945-0.945h0.324C278.966,90.501,279.391,90.926,279.391,91.446
				L279.391,91.446z"/>
		</g>
		<g>
			<path fill-rule="evenodd" clip-rule="evenodd" fill="#FFFFFF" d="M279.293,85.956c0,0.557-0.452,1.008-1.008,1.008
				c-0.557,0-1.009-0.452-1.009-1.008c0-0.557,0.452-1.009,1.009-1.009C278.841,84.947,279.293,85.399,279.293,85.956
				L279.293,85.956z"/>
		</g>
		<g>
			<path fill-rule="evenodd" clip-rule="evenodd" fill="#FFFFFF" d="M78.128,105.179c0,2.682-2.175,4.856-4.857,4.856
				c-2.682,0-4.857-2.174-4.857-4.856c0-2.682,2.174-4.857,4.857-4.857C75.954,100.323,78.128,102.497,78.128,105.179
				L78.128,105.179z M78.5,105.179c0,2.887-2.341,5.228-5.228,5.228c-2.887,0-5.228-2.341-5.228-5.228
				c0-2.888,2.341-5.228,5.228-5.228C76.159,99.951,78.5,102.292,78.5,105.179L78.5,105.179z"/>
		</g>
	</g>
	<g>
		<path fill="#FFFFFF" d="M34.842,113.652l13.949-28.258l8.432-13.98c0,0,3.949-2.602,5.775-0.581c0,0,5.628,3.49,2.373,14.433
			l-5.249,23.487l2.961,7.986c0,0,3.887,18.031-5.201,30.847"/>
		<path fill="#414141" d="M59.105,148.453l-2.447-1.734c8.272-11.666,5.258-28.148,4.978-29.566l-3.075-8.293l5.372-24.021
			c2.848-9.575-1.555-12.618-1.743-12.742l-0.305-0.258c-0.617-0.683-2.482,0.031-3.565,0.661l-8.211,13.615l-13.921,28.201
			l-2.69-1.328l14.01-28.369l8.607-14.271l0.284-0.187c0.505-0.333,4.95-3.132,7.583-0.472c1.083,0.79,6.05,5.107,2.842,15.954
			l-5.141,23.004l2.867,7.775C64.713,117.186,68.467,135.251,59.105,148.453z"/>
	</g>
	<g>
		<circle fill="#EAEAEA" cx="155.63" cy="73.835" r="8.155"/>
	</g>
	<g>
		<polygon fill="#EAEAEA" points="197.338,83.743 156.645,82.028 156.689,65.769 192.275,64.601 		"/>
	</g>
	<g>
		<g>
			<path fill="#FF8C40" d="M193.91,84.113c-5.282,0-9.579-4.297-9.579-9.579s4.297-9.579,9.579-9.579s9.579,4.297,9.579,9.579
				S199.191,84.113,193.91,84.113z"/>
		</g>
		<g>
			<g>
				<path fill="#FF8C40" d="M193.91,65.436c5.017,0,9.099,4.082,9.099,9.098s-4.082,9.098-9.099,9.098s-9.099-4.082-9.099-9.098
					S188.893,65.436,193.91,65.436 M193.91,64.475c-5.556,0-10.059,4.504-10.059,10.059s4.504,10.059,10.059,10.059
					c5.556,0,10.059-4.504,10.059-10.059S199.465,64.475,193.91,64.475L193.91,64.475z"/>
			</g>
		</g>
	</g>
	<g>
		<g>
			<path fill="#FFFFFF" d="M206.85,186.633l-20.746-23.941l-10.157-20.746l-0.02-0.048c-6.808-16.771-6.808-16.771-6.837-16.925
				c-0.321-1.591,0.023-3.116,0.973-4.277c1.1-1.345,2.932-2.116,5.026-2.116c0.795,0,1.606,0.11,2.41,0.328
				c4.471,1.213,7.995,5.705,10.163,9.261c2.099,3.443,8.013,12.097,10.561,15.808l1.954-2.651l-12.645-62.68
				c-0.28-1.388-0.289-2.514-0.03-3.543c0.754-3.055,3.135-5.343,6.213-5.963c0.531-0.107,1.071-0.162,1.603-0.162
				c2.519,0,4.846,1.192,6.385,3.271c0.283,0.377,0.641,1.074,1.093,3.319l10.233,50.725l1.409-0.284l-3.87-19.183
				c-0.419-2.077,0.043-4.208,1.302-6c1.23-1.753,3.053-2.949,5.132-3.369c0.528-0.106,1.069-0.161,1.609-0.161
				c3.868,0,7.21,2.651,7.947,6.304l4.456,22.083l0.684-0.138c-0.717-3.555-2.487-12.328-2.505-12.417
				c-1-4.963,0.458-10.468,5.973-11.58c0.588-0.119,1.169-0.179,1.727-0.179c4.843,0,7.458,4.407,8.29,8.531l3.237,16.045
				l1.219-0.246l-2.109-10.425c-0.909-4.505,1.467-8.387,5.647-9.23c0.485-0.098,0.973-0.147,1.45-0.147
				c3.487,0,6.357,2.616,7.143,6.511c0.034,0.162,5.186,25.156,5.186,25.156l-2.797,28.995l6.021,29.847l-58.571,11.815
				L206.85,186.633z"/>
		</g>
		<g>
			<g>
				<path fill="#414141" d="M195.318,70.475c2.082,0,3.958,1.014,5.18,2.664c0.217,0.288,0.499,1.091,0.828,2.722l10.53,52.196
					l4.35-0.877l-4.167-20.654c-0.702-3.48,1.773-6.899,5.26-7.602c0.437-0.088,0.877-0.131,1.312-0.131
					c3.029,0,5.863,2.058,6.477,5.1l4.752,23.554l3.625-0.731c0,0-2.79-13.832-2.802-13.89c-0.708-3.509-0.272-8.788,4.799-9.811
					c0.503-0.101,0.98-0.149,1.43-0.149c4.213,0,6.18,4.158,6.819,7.328c0.012,0.058,3.533,17.515,3.533,17.515l4.161-0.839
					c0,0-2.394-11.83-2.407-11.895c-0.706-3.502,0.972-6.757,4.474-7.463c0.394-0.079,0.779-0.118,1.153-0.118
					c2.845,0,5.048,2.212,5.673,5.307c0.013,0.065,5.141,24.941,5.141,24.941l-2.797,28.992l5.769,28.595l-55.656,11.228
					l-4.522-20.517l-20.868-24.082l-10.048-20.523c0,0-6.752-16.632-6.753-16.64c-0.577-2.861,1.656-4.614,4.525-4.614
					c0.649,0,1.33,0.09,2.019,0.276c3.484,0.944,6.681,4.34,9.274,8.593c2.747,4.504,11.8,17.611,11.8,17.611l3.597-4.882
					l-12.776-63.331c-0.202-1-0.276-1.966-0.045-2.88c0.594-2.406,2.474-4.339,5.055-4.86
					C194.453,70.518,194.89,70.475,195.318,70.475 M195.318,67.475c-0.632,0-1.271,0.064-1.899,0.191
					c-3.653,0.737-6.479,3.451-7.375,7.082c-0.313,1.24-0.309,2.577,0.017,4.192l12.513,62.028l-0.308,0.418
					c-2.868-4.191-7.524-11.045-9.325-13.999c-3.313-5.433-7.135-8.866-11.051-9.927c-0.932-0.253-1.875-0.381-2.803-0.381
					c-2.545,0-4.8,0.972-6.186,2.665c-1.24,1.516-1.695,3.484-1.279,5.542c0.053,0.273,0.053,0.273,6.914,17.175l0.039,0.097
					l0.046,0.094l10.048,20.523l0.172,0.35l0.256,0.295l20.369,23.507l4.358,19.774l0.634,2.878l2.889-0.583l55.656-11.228
					l2.941-0.593l-0.593-2.941l-5.68-28.157l2.754-28.548l0.043-0.451l-0.091-0.443c0,0-5.095-24.716-5.14-24.936
					c-0.929-4.606-4.39-7.706-8.611-7.706c-0.577,0-1.165,0.06-1.746,0.177c-2.518,0.508-4.586,1.975-5.823,4.131
					c-0.154,0.268-0.293,0.544-0.418,0.828c-1.227-5.963-4.956-9.663-9.746-9.663c-0.657,0-1.338,0.07-2.023,0.208
					c-2.986,0.602-5.253,2.39-6.467,5.074l-0.373-1.848c-0.878-4.35-4.838-7.507-9.418-7.507c-0.639,0-1.28,0.064-1.905,0.19
					c-2.458,0.496-4.611,1.908-6.063,3.977c-0.413,0.589-0.754,1.209-1.021,1.851l-5.355-26.543c-0.482-2.391-0.897-3.3-1.371-3.931
					C201.084,68.889,198.317,67.475,195.318,67.475L195.318,67.475z"/>
			</g>
		</g>
	</g>
</g>
</svg>
