<?xml version="1.0" encoding="utf-8"?>
<!-- Generator: Adobe Illustrator 17.1.0, SVG Export Plug-In . SVG Version: 6.00 Build 0)  -->
<!DOCTYPE svg PUBLIC "-//W3C//DTD SVG 1.1//EN" "http://www.w3.org/Graphics/SVG/1.1/DTD/svg11.dtd">
<svg version="1.1" id="Layer_1" xmlns="http://www.w3.org/2000/svg" xmlns:xlink="http://www.w3.org/1999/xlink" x="0px" y="0px"
	 viewBox="0 0 262 122" width="262" height="122"  enable-background="new 0 0 262 122" xml:space="preserve">
<path fill="#F4F4F4" d="M203.374,119.853l8.043-8.043l8.043,8.043H203.374z M212.124,111.103l8.709-8.709v17.418L212.124,111.103z
	 M183.04,119.853l8.21-8.21l8.21,8.21H183.04z M163.04,119.853l8.21-8.21l8.21,8.21H163.04z M143.04,119.853l8.21-8.21l8.21,8.21
	H143.04z M43.04,119.853l8.21-8.21l8.21,8.21H43.04z M23.04,119.853l8.21-8.21l8.21,8.21H23.04z M3.04,119.853l8.281-8.281
	l8.28,8.281H3.04z M2,119.48v-17.228l8.614,8.614L2,119.48z M241.833,19.646V1.853h17.793L241.833,19.646z M260.293,80.353h-17.419
	l8.71-8.71L260.293,80.353z M252.291,70.937l8.043-8.043v16.085L252.291,70.937z M2.54,40.353l8.71-8.71l8.71,8.71H2.54z
	 M2.54,20.353l8.71-8.71l8.71,8.71H2.54z M202.016,1.853l-0.104,0.104l8.472,8.472l-8.55,8.55V1.853H202.016z M100.75,99.729
	l-9.136-9.136l9.219-9.123v18.175L100.75,99.729z M120.75,79.73l-9.031-9.031l9.114-9.019v17.967L120.75,79.73z M140.75,59.73
	l-8.926-8.926l9.009-8.915v17.758L140.75,59.73z M139.96,60.353h-17.786l8.94-8.846L139.96,60.353z M121.833,59.283V42.227
	l8.573,8.573L121.833,59.283z M120.833,59.813l-8.876-8.876l8.876-8.876V59.813z M119.96,60.353H102.54l8.71-8.71L119.96,60.353z
	 M101.833,59.646V42.227l8.71,8.71L101.833,59.646z M100.833,59.813l-8.876-8.876l8.876-8.876V59.813z M99.96,60.353H82.54
	l8.71-8.71L99.96,60.353z M81.833,59.646V42.227l8.71,8.71L81.833,59.646z M80.833,59.813l-8.876-8.876l8.876-8.876V59.813z
	 M79.96,60.353H62.54l8.71-8.71L79.96,60.353z M61.833,59.646V42.227l8.71,8.71L61.833,59.646z M60.833,62.06v17.752l-8.876-8.876
	L60.833,62.06z M51.25,70.23l-8.876-8.876h17.753L51.25,70.23z M61.833,62.227l8.71,8.71l-8.71,8.71V62.227z M62.374,61.353h17.752
	L71.25,70.23L62.374,61.353z M80.833,62.06v17.752l-8.876-8.876L80.833,62.06z M81.833,62.227l8.71,8.71l-8.71,8.71V62.227z
	 M82.374,61.353h17.752L91.25,70.23L82.374,61.353z M100.833,62.06v17.752l-8.876-8.876L100.833,62.06z M101.833,62.227l8.468,8.468
	l-8.468,8.38V62.227z M102.374,61.353h17.368l-8.729,8.638L102.374,61.353z M121.833,62.227l8.21,8.21l-8.21,8.21V62.227z
	 M122.374,61.353h16.752l-8.376,8.376L122.374,61.353z M140.54,61.353h0.293v18.459l-9.376-9.376L140.54,61.353z M141.833,62.227
	l8.376,8.376l-8.376,8.376V62.227z M142.374,61.353h17.086l-8.543,8.543L142.374,61.353z M160.833,61.394v18.419l-9.21-9.209
	L160.833,61.394z M161.833,62.227l8.377,8.377l-8.377,8.377V62.227z M162.374,61.353h17.086l-8.543,8.543L162.374,61.353z
	 M180.833,61.394v18.419l-9.209-9.209L180.833,61.394z M181.833,62.227l8.71,8.71l-8.71,8.71V62.227z M182.374,61.353h17.752
	l-8.876,8.876L182.374,61.353z M200.833,62.06v17.753l-8.876-8.876L200.833,62.06z M201.833,59.646V41.894l8.876,8.876
	L201.833,59.646z M211.417,51.477l8.876,8.876H202.54L211.417,51.477z M202.707,41.353h17.419l-8.71,8.71L202.707,41.353z
	 M200.833,59.813l-9.21-9.21l9.21-9.21V59.813z M199.96,60.353h-18.086l9.043-9.043L199.96,60.353z M181.833,58.98V42.227
	l8.376,8.376L181.833,58.98z M180.833,59.813l-9.21-9.21l9.21-9.21V59.813z M179.96,60.353h-18.086l9.043-9.043L179.96,60.353z
	 M161.833,58.98V42.227l8.376,8.376L161.833,58.98z M160.833,41.353v18.459l-9.376-9.376l9.083-9.083H160.833z M159.96,60.353
	h-18.127V60.06l8.917-8.917L159.96,60.353z M141.833,58.646v-16.42l8.21,8.21L141.833,58.646z M131.117,50.097l-8.743-8.743h17.578
	L131.117,50.097z M111.25,50.23l-8.876-8.876h17.753L111.25,50.23z M91.25,50.23l-8.876-8.876h17.753L91.25,50.23z M71.25,50.23
	l-8.876-8.876h17.753L71.25,50.23z M60.833,42.06v17.752l-8.876-8.876L60.833,42.06z M51.25,50.23l-8.876-8.876h17.753L51.25,50.23z
	 M59.96,60.353H42.54l8.71-8.71L59.96,60.353z M50.543,70.937l-8.71,8.71V62.227L50.543,70.937z M51.25,71.644l8.71,8.71H42.54
	L51.25,71.644z M71.25,71.644l8.71,8.71H62.54L71.25,71.644z M91.25,71.644l8.71,8.71H82.54L91.25,71.644z M111.009,71.402
	l8.951,8.951h-17.997L111.009,71.402z M121.833,80.06l8.917-8.917l9.21,9.21h-18.127V80.06z M150.917,71.31l9.043,9.043h-18.086
	L150.917,71.31z M170.917,71.31l9.043,9.043h-18.086L170.917,71.31z M191.25,71.644l8.71,8.71h-17.42L191.25,71.644z
	 M201.833,62.227l8.71,8.71l-8.71,8.71V62.227z M202.374,61.353h17.753l-8.876,8.876L202.374,61.353z M220.833,62.06v17.753
	l-8.876-8.876L220.833,62.06z M212.124,50.77l8.71-8.71v17.42L212.124,50.77z M220.293,40.353h-18.42l9.21-9.21L220.293,40.353z
	 M211.791,30.437l9.043-9.043v18.086L211.791,30.437z M201.833,38.98V21.893l8.543,8.543L201.833,38.98z M190.917,49.896
	l-8.543-8.543h17.086L190.917,49.896z M170.917,49.896l-8.543-8.543h17.086L170.917,49.896z M150.75,49.73l-8.376-8.376h16.752
	L150.75,49.73z M139.96,40.353h-17.42l8.71-8.71L139.96,40.353z M131.957,30.937l8.876-8.876v17.752L131.957,30.937z
	 M121.833,39.646V22.227l8.71,8.71L121.833,39.646z M120.833,39.813l-8.876-8.876l8.876-8.876V39.813z M119.96,40.353H102.54
	l8.71-8.71L119.96,40.353z M101.833,39.646V22.227l8.71,8.71L101.833,39.646z M100.833,39.813l-8.876-8.876l8.876-8.876V39.813z
	 M99.96,40.353H82.54l8.71-8.71L99.96,40.353z M81.833,39.646V22.227l8.71,8.71L81.833,39.646z M80.833,39.813l-8.876-8.876
	l8.876-8.876V39.813z M79.96,40.353H62.54l8.71-8.71L79.96,40.353z M61.833,39.646V22.227l8.71,8.71L61.833,39.646z M60.833,39.813
	l-8.876-8.876l8.876-8.876V39.813z M59.96,40.353H42.54l8.71-8.71L59.96,40.353z M41.833,39.646V22.227l8.71,8.71L41.833,39.646z
	 M40.833,39.813l-8.876-8.876l8.876-8.876V39.813z M39.96,40.353H22.54l8.71-8.71L39.96,40.353z M50.543,50.937l-8.71,8.71V42.227
	L50.543,50.937z M40.833,62.06v17.752l-8.876-8.876L40.833,62.06z M31.25,70.23l-8.876-8.876h17.753L31.25,70.23z M39.96,80.353
	H22.54l8.71-8.71L39.96,80.353z M42.374,81.353h17.752L51.25,90.23L42.374,81.353z M50.543,90.937l-8.71,8.71V82.227L50.543,90.937z
	 M60.833,82.06v17.752l-8.876-8.876L60.833,82.06z M61.833,82.227l8.71,8.71l-8.71,8.71V82.227z M62.374,81.353h17.752L71.25,90.23
	L62.374,81.353z M80.833,82.06v17.752l-8.876-8.876L80.833,82.06z M81.833,82.227l8.363,8.363l-8.363,8.276V82.227z M82.374,81.353
	h17.157l-8.623,8.533L82.374,81.353z M101.833,82.227l8.21,8.21l-8.21,8.21V82.227z M102.374,81.353h16.752l-8.376,8.376
	L102.374,81.353z M120.54,81.353h0.293v18.459l-9.376-9.376L120.54,81.353z M121.833,82.227l8.377,8.376l-8.377,8.377V82.227z
	 M122.374,81.353h17.086l-8.543,8.543L122.374,81.353z M140.833,81.394v18.419l-9.209-9.209L140.833,81.394z M141.833,82.227
	l8.377,8.377l-8.377,8.377V82.227z M142.374,81.353h17.086l-8.543,8.543L142.374,81.353z M160.833,81.394v18.418l-9.209-9.209
	L160.833,81.394z M161.833,82.227l8.71,8.71l-8.71,8.71V82.227z M162.374,81.353h17.752l-8.876,8.876L162.374,81.353z
	 M180.833,82.06v17.752l-8.876-8.876L180.833,82.06z M181.833,82.227l8.71,8.71l-8.71,8.71V82.227z M182.374,81.353h17.752
	l-8.876,8.876L182.374,81.353z M211.25,71.644l8.71,8.71H202.54L211.25,71.644z M221.833,79.646V61.894l8.876,8.876L221.833,79.646z
	 M231.417,71.477l8.876,8.876H222.54L231.417,71.477z M222.707,61.353h17.419l-8.71,8.71L222.707,61.353z M222.54,60.353
	l8.876-8.876l8.876,8.876H222.54z M221.833,59.646V41.893l8.876,8.876L221.833,59.646z M222.707,41.353h17.419l-8.709,8.709
	L222.707,41.353z M222.54,40.353l8.884-8.884l8.884,8.884H222.54z M221.833,39.646V21.879l8.883,8.883L221.833,39.646z
	 M222.722,21.353h17.405l-8.702,8.702L222.722,21.353z M211.084,29.73l-8.376-8.376h16.752L211.084,29.73z M200.833,39.48
	l-9.043-9.043l9.043-9.043V39.48z M200.293,40.353h-18.419l9.21-9.21L200.293,40.353z M181.833,38.98V21.894l8.543,8.543
	L181.833,38.98z M161.833,40.353V40.06l8.917-8.917l9.21,9.21H161.833z M161.833,38.646V22.227l8.21,8.21L161.833,38.646z
	 M160.833,39.646l-0.083,0.083l-8.821-8.821l8.905-8.812V39.646z M159.96,40.353h-17.576l8.834-8.742L159.96,40.353z
	 M141.833,39.492V22.227l8.678,8.678L141.833,39.492z M131.25,30.23l-8.876-8.876h17.752L131.25,30.23z M111.25,30.23l-8.876-8.876
	h17.753L111.25,30.23z M91.25,30.23l-8.876-8.876h17.753L91.25,30.23z M71.25,30.23l-8.876-8.876h17.753L71.25,30.23z M51.25,30.23
	l-8.876-8.876h17.753L51.25,30.23z M31.25,30.23l-8.876-8.876h17.753L31.25,30.23z M30.543,30.937l-8.71,8.71V22.227L30.543,30.937z
	 M40.126,41.353L31.25,50.23l-8.876-8.876H40.126z M40.833,42.06v17.753l-8.876-8.876L40.833,42.06z M39.96,60.353H22.54l8.71-8.71
	L39.96,60.353z M30.543,70.937l-8.71,8.71V62.227L30.543,70.937z M40.126,81.353l-8.876,8.876l-8.876-8.876H40.126z M40.833,82.06
	v17.752l-8.876-8.876L40.833,82.06z M39.96,100.353H22.54l8.71-8.71L39.96,100.353z M51.25,91.644l8.71,8.71H42.54L51.25,91.644z
	 M71.25,91.644l8.71,8.71H62.54L71.25,91.644z M81.833,100.273l9.07-8.976l9.056,9.056H81.833V100.273z M101.833,100.06l8.917-8.917
	l9.21,9.21h-18.127V100.06z M130.917,91.31l9.043,9.043h-18.086L130.917,91.31z M150.917,91.31l9.043,9.043h-18.086L150.917,91.31z
	 M171.25,91.643l8.71,8.71h-17.42L171.25,91.643z M191.25,91.644l8.71,8.71h-17.42L191.25,91.644z M191.957,90.937l8.876-8.876
	v17.752L191.957,90.937z M201.833,82.227l8.71,8.71l-8.71,8.71V82.227z M202.374,81.353h17.752l-8.876,8.876L202.374,81.353z
	 M220.833,82.06v17.752l-8.876-8.876L220.833,82.06z M221.833,82.227l8.876,8.876l-8.876,8.876V82.227z M222.374,81.353h18.086
	l-9.043,9.043L222.374,81.353z M240.833,82.394v17.419l-8.71-8.71L240.833,82.394z M232.124,70.77l8.71-8.71V79.48L232.124,70.77z
	 M232.124,50.77l8.709-8.709v17.419L232.124,50.77z M232.131,30.763l8.702-8.702v17.405L232.131,30.763z M239.944,20.353h-18.07
	l9.035-9.035L239.944,20.353z M231.616,10.611l8.758-8.758h0.46v17.976L231.616,10.611z M221.833,18.98V2.244l8.368,8.368
	L221.833,18.98z M220.833,1.853v17.612l-9.036-9.036l8.576-8.576H220.833z M220.308,20.353h-18.434l9.217-9.217L220.308,20.353z
	 M191.083,29.73l-8.376-8.376h16.753L191.083,29.73z M180.833,21.353v18.46l-9.376-9.376l9.083-9.083H180.833z M170.75,29.73
	l-8.376-8.376h16.753L170.75,29.73z M151.222,30.201l-8.848-8.848h17.789L151.222,30.201z M122.54,20.353l8.71-8.71l8.71,8.71
	H122.54z M121.833,19.646V2.227l8.71,8.71L121.833,19.646z M120.833,19.813l-8.876-8.876l8.871-8.871L120.833,19.813z
	 M119.96,20.353H102.54l8.71-8.71L119.96,20.353z M101.833,19.646V2.227l8.71,8.71L101.833,19.646z M100.833,19.813l-8.876-8.876
	l8.872-8.872L100.833,19.813z M99.96,20.353H82.54l8.71-8.71L99.96,20.353z M81.833,19.646V2.227l8.71,8.709L81.833,19.646z
	 M80.833,19.813l-8.876-8.876l8.872-8.872L80.833,19.813z M79.96,20.353H62.54l8.71-8.71L79.96,20.353z M61.833,19.646V2.227
	l8.71,8.709L61.833,19.646z M60.833,19.813l-8.876-8.876l8.872-8.872L60.833,19.813z M59.96,20.353H42.54l8.71-8.71L59.96,20.353z
	 M41.833,19.646V2.227l8.71,8.709L41.833,19.646z M40.833,19.813l-8.876-8.876l8.872-8.871L40.833,19.813z M39.96,20.353H22.54
	l8.71-8.71L39.96,20.353z M21.833,19.646V2.227l8.709,8.709L21.833,19.646z M20.833,19.813l-8.876-8.876l8.872-8.872L20.833,19.813z
	 M20.126,21.353L11.25,30.23l-8.876-8.876H20.126z M20.833,22.06v17.753l-8.877-8.877L20.833,22.06z M30.543,50.937l-8.71,8.71
	V42.227L30.543,50.937z M20.833,62.06v17.752l-8.876-8.876L20.833,62.06z M11.25,70.229l-8.876-8.876h17.752L11.25,70.229z
	 M19.96,80.353H2.54l8.71-8.71L19.96,80.353z M30.543,90.936l-8.71,8.71v-17.42L30.543,90.936z M40.126,101.353l-8.876,8.876
	l-8.876-8.876H40.126z M40.833,102.06v17.752l-8.876-8.876L40.833,102.06z M60.126,101.353l-8.876,8.876l-8.876-8.876H60.126z
	 M60.833,102.06v17.587l-0.083,0.082l-8.793-8.793L60.833,102.06z M61.833,102.227l8.259,8.259l-8.259,8.173V102.227z
	 M62.374,101.353H79.32l-8.517,8.429L62.374,101.353z M80.742,101.353h0.092v18.293l-0.083,0.083l-9.241-9.24L80.742,101.353z
	 M81.833,102.227l8.21,8.21l-8.21,8.21V102.227z M82.374,101.353h16.752l-8.376,8.376L82.374,101.353z M100.54,101.353h0.293v18.459
	l-9.376-9.376L100.54,101.353z M101.833,102.227l8.377,8.377l-8.377,8.377V102.227z M102.374,101.353h17.086l-8.543,8.543
	L102.374,101.353z M120.833,101.394v18.419l-9.209-9.209L120.833,101.394z M121.833,102.227l8.377,8.377l-8.377,8.377V102.227z
	 M122.374,101.353h17.086l-8.543,8.543L122.374,101.353z M140.833,101.394v18.418l-9.209-9.209L140.833,101.394z M160.126,101.353
	l-8.876,8.876l-8.876-8.876H160.126z M160.833,102.06v17.752l-8.876-8.876L160.833,102.06z M180.126,101.353l-8.876,8.876
	l-8.876-8.876H180.126z M180.833,102.06v17.752l-8.876-8.876L180.833,102.06z M181.833,102.227l8.71,8.71l-8.71,8.71V102.227z
	 M182.374,101.353h17.752l-8.876,8.876L182.374,101.353z M211.25,91.644l8.71,8.71H202.54L211.25,91.644z M231.417,91.811
	l8.543,8.543h-17.086L231.417,91.811z M260.293,100.353h-17.419l8.709-8.709L260.293,100.353z M252.291,90.937l8.043-8.043V98.98
	L252.291,90.937z M241.833,99.98V81.894l9.043,9.043L241.833,99.98z M241.833,79.98V61.893l9.043,9.043L241.833,79.98z
	 M241.833,59.646V41.879l8.884,8.884L241.833,59.646z M251.424,51.47l8.884,8.884H242.54L251.424,51.47z M242.722,41.353h17.405
	l-8.702,8.702L242.722,41.353z M242.54,40.353l8.702-8.702l8.702,8.702H242.54z M241.833,39.646V22.243l8.702,8.701L241.833,39.646z
	 M242.358,21.353h17.769l-8.884,8.884L242.358,21.353z M230.908,9.904l-8.051-8.051h16.102L230.908,9.904z M211.09,9.722
	l-7.869-7.869h15.738L211.09,9.722z M200.833,1.853v17.626l-9.209-9.209l8.417-8.417H200.833z M200.293,20.353h-18.46V20.06
	l9.083-9.083L200.293,20.353z M181.833,18.646V1.893l8.376,8.376L181.833,18.646z M180.833,19.48l-8.632-8.632l8.632-8.542V19.48z
	 M180.21,20.27l-0.083,0.083h-17.531l8.895-8.803L180.21,20.27z M161.833,19.7V1.894l8.95,8.95L161.833,19.7z M160.833,19.813
	l-8.876-8.876l8.871-8.871L160.833,19.813z M159.96,20.353H142.54l8.71-8.71L159.96,20.353z M141.833,19.646V2.227l8.71,8.71
	L141.833,19.646z M140.833,19.813l-8.876-8.876l8.871-8.871L140.833,19.813z M139.626,1.853l-8.376,8.376l-8.376-8.376H139.626z
	 M119.626,1.853l-8.376,8.376l-8.376-8.376H119.626z M99.626,1.853L91.25,10.23l-8.377-8.376H99.626z M79.626,1.853L71.25,10.23
	l-8.377-8.376H79.626z M59.626,1.853L51.25,10.23l-8.377-8.376H59.626z M39.626,1.853L31.25,10.23l-8.376-8.376H39.626z
	 M19.626,1.853L11.25,10.23L2.873,1.853H19.626z M10.543,10.937L2,19.48V2.394L10.543,10.937z M10.543,30.937L2,39.479V22.394
	L10.543,30.937z M20.126,41.353L11.25,50.23l-8.877-8.876H20.126z M20.833,42.06v17.753l-8.876-8.876L20.833,42.06z M19.96,60.353
	H2.54l8.71-8.71L19.96,60.353z M10.543,70.936L2,79.48V62.393L10.543,70.936z M20.126,81.353L11.25,90.23l-8.877-8.876H20.126z
	 M20.833,82.06v17.752l-8.876-8.876L20.833,82.06z M19.96,100.353H2.54l8.71-8.71L19.96,100.353z M2.516,101.353h17.61l-8.805,8.805
	L2.516,101.353z M30.543,110.937l-8.71,8.71v-17.419L30.543,110.937z M41.833,102.226l8.71,8.71l-8.71,8.71V102.226z
	 M70.799,111.192l8.661,8.661H62.047L70.799,111.192z M90.75,111.144l8.71,8.71H82.04L90.75,111.144z M110.917,111.31l8.543,8.543
	h-17.086L110.917,111.31z M130.917,111.31l8.543,8.543h-17.086L130.917,111.31z M141.833,102.227l8.71,8.71l-8.71,8.71V102.227z
	 M161.833,102.227l8.71,8.71l-8.71,8.71V102.227z M191.957,110.937l8.876-8.876v17.752L191.957,110.937z M220.46,101.353
	l-9.043,9.043l-9.043-9.043H220.46z M240.46,101.353l-9.043,9.043l-9.043-9.043H240.46z M240.833,102.394v17.419l-8.709-8.709
	L240.833,102.394z M241.833,102.227l17.626,17.626h-17.626V102.227z M260.333,119.313l-17.96-17.96h17.96V119.313z M260.333,81.752
	l-0.136-0.136l-8.614,8.614l-8.877-8.877h17.626V81.752z M260.333,61.48l-8.75,8.75l-8.876-8.876h17.626V61.48z M260.333,58.965
	l-8.202-8.202l8.202-8.202V58.965z M251.949,30.945l8.384-8.384v16.769L251.949,30.945z M242.54,20.353L260.333,2.56v17.793H242.54z
	 M198.626,1.853l-7.709,7.709l-7.709-7.709H198.626z M179.868,1.853l-8.374,8.287l-8.287-8.287H179.868z M159.626,1.853
	l-8.376,8.376l-8.376-8.376H159.626z M10.543,50.937L2,59.48V42.394L10.543,50.937z M2,82.394l8.543,8.543L2,99.48V82.394z
	 M20.829,119.667l-8.801-8.801l8.805-8.805L20.829,119.667z M21.833,119.84l0.014,0.014h-0.014V119.84z M41.833,119.84l0.014,0.014
	h-0.014V119.84z M141.833,119.84l0.013,0.013h-0.013V119.84z M201.833,102.227l8.877,8.877l-8.75,8.75h-0.126V102.227z
	 M221.833,102.227l8.877,8.877l-8.75,8.75h-0.127V102.227z M223.374,119.853l8.043-8.043l8.043,8.043H223.374z M261.333,120.853
	V40.525V0.853l-99.146-0.02L1,0.853v99.626l-0.02,0.02L1,100.52v20.333h199.833H261.333z"/>
<g opacity="0.5">
	<circle fill="#EAEAEA" cx="200.138" cy="60.81" r="37.688"/>
</g>
<g>
	<polygon fill="#FF8C40" points="203.35,57.849 193.715,57.849 193.715,61.06 196.927,61.06 196.927,70.695 193.715,70.695
		193.715,73.907 206.562,73.907 206.562,70.695 203.35,70.695 	"/>
	<circle fill="#FF8C40" cx="200.138" cy="51.425" r="3.212"/>
	<path fill="#FF8C40" d="M222.62,61.06c0-12.415-10.066-22.482-22.482-22.482c-12.415,0-22.482,10.066-22.482,22.482
		s10.066,22.482,22.482,22.482C212.554,83.542,222.62,73.476,222.62,61.06z M179.262,61.06c0-11.511,9.365-20.876,20.876-20.876
		s20.876,9.365,20.876,20.876s-9.365,20.876-20.876,20.876S179.262,72.571,179.262,61.06z"/>
</g>
<path fill="none" stroke="#FF8C40" stroke-miterlimit="10" stroke-dasharray="3" d="M201.97,82.937l-132.5,15.25
	c0,0,39-2.083,39.167-36.25c0.667-34.5-39.167-37.667-39.167-37.667l131.667,15.667"/>
<g>
	<g>
		<circle fill="#EFEFEF" cx="72.741" cy="61.181" r="37.688"/>
	</g>
	<g>
		<polygon fill="#FF8C40" points="78.257,55.654 62.055,55.654 62.055,61.054 67.456,61.054 67.456,77.255 62.055,77.255
			62.055,82.656 83.657,82.656 83.657,77.255 78.257,77.255 		"/>
		<circle fill="#FF8C40" cx="72.856" cy="44.853" r="5.4"/>
		<path fill="#FF8C40" d="M110.659,61.054c0-20.876-16.926-37.803-37.803-37.803S35.054,40.178,35.054,61.054
			S51.98,98.857,72.856,98.857S110.659,81.931,110.659,61.054z M37.754,61.054c0-19.356,15.747-35.102,35.102-35.102
			s35.102,15.747,35.102,35.102S92.212,96.157,72.856,96.157S37.754,80.41,37.754,61.054z"/>
	</g>
</g>
</svg>
