<?xml version="1.0" encoding="utf-8"?>
<!-- Generator: Adobe Illustrator 17.1.0, SVG Export Plug-In . SVG Version: 6.00 Build 0)  -->
<!DOCTYPE svg PUBLIC "-//W3C//DTD SVG 1.1//EN" "http://www.w3.org/Graphics/SVG/1.1/DTD/svg11.dtd">
<svg version="1.1" id="Layer_1" xmlns="http://www.w3.org/2000/svg" xmlns:xlink="http://www.w3.org/1999/xlink" x="0px" y="0px"
	 viewBox="0 0 450 181.5" width="450" height="181.5"  enable-background="new 0 0 450 181.5" xml:space="preserve">
<g>
	<rect x="37.5" y="30.5" fill="#E5E5E5" width="1" height="72"/>
</g>
<g>
	<rect x="68.5" y="30.5" fill="#E5E5E5" width="1" height="72"/>
</g>
<g>
	<rect x="99.5" y="30.5" fill="#E5E5E5" width="1" height="72"/>
</g>
<g>
	<rect x="159.5" y="30.5" fill="#E5E5E5" width="1" height="72"/>
</g>
<g>
	<rect x="190.5" y="30.5" fill="#E5E5E5" width="1" height="72"/>
</g>
<g>
	<rect x="221.5" y="30.5" fill="#E5E5E5" width="1" height="72"/>
</g>
<g>
	<rect x="252.5" y="30.5" fill="#E5E5E5" width="1" height="72"/>
</g>
<g>
	<rect x="284.5" y="30.5" fill="#E5E5E5" width="1" height="72"/>
</g>
<g>
	<rect x="312.5" y="30.5" fill="#E5E5E5" width="1" height="72"/>
</g>
<g>
	<rect x="344.5" y="30.5" fill="#E5E5E5" width="1" height="72"/>
</g>
<g>
	<rect x="375.5" y="30.5" fill="#E5E5E5" width="1" height="72"/>
</g>
<g>
	<path fill="#FFFFFF" d="M17.583,87.256l-0.719,26.165L400.5,146.128V56.333C400.5,56.333,18.772,86.364,17.583,87.256z"/>
	<path fill="#FF8C40" d="M399.96,146.541l-3.556-0.303l0.084-0.996l3.556,0.303L399.96,146.541z M392.85,145.935l-3.555-0.303
		l0.084-0.996l3.555,0.303L392.85,145.935z M385.739,145.329l-3.555-0.303l0.084-0.996l3.555,0.303L385.739,145.329z
		 M378.629,144.723l-3.555-0.303l0.084-0.996l3.555,0.303L378.629,144.723z M371.518,144.117l-3.555-0.304l0.086-0.996l3.555,0.304
		L371.518,144.117z M401.5,143.5h-1v-4h1V143.5z M364.408,143.511l-3.555-0.303l0.084-0.996l3.555,0.303L364.408,143.511z
		 M357.297,142.905l-3.555-0.304l0.086-0.996l3.555,0.304L357.297,142.905z M350.188,142.299l-3.555-0.303l0.084-0.996l3.555,0.303
		L350.188,142.299z M343.077,141.693l-3.556-0.304l0.086-0.996l3.556,0.304L343.077,141.693z M335.968,141.087l-3.556-0.303
		l0.084-0.996l3.556,0.303L335.968,141.087z M328.856,140.481l-3.556-0.304l0.086-0.996l3.556,0.304L328.856,140.481z
		 M321.747,139.875l-3.556-0.303l0.084-0.996l3.556,0.303L321.747,139.875z M314.637,139.269l-3.556-0.303l0.084-0.996l3.556,0.303
		L314.637,139.269z M307.526,138.663l-3.556-0.303l0.084-0.996l3.556,0.303L307.526,138.663z M300.416,138.057l-3.555-0.303
		l0.084-0.996l3.555,0.303L300.416,138.057z M293.306,137.451l-3.555-0.303l0.084-0.996l3.555,0.303L293.306,137.451z
		 M286.195,136.845l-3.555-0.303l0.084-0.996l3.555,0.303L286.195,136.845z M401.5,136.5h-1v-4h1V136.5z M279.085,136.239
		l-3.555-0.303l0.084-0.996l3.555,0.303L279.085,136.239z M271.975,135.633l-3.555-0.303l0.084-0.996l3.555,0.303L271.975,135.633z
		 M264.863,135.027l-3.555-0.304l0.086-0.996l3.555,0.304L264.863,135.027z M257.754,134.421l-3.555-0.303l0.084-0.996l3.555,0.303
		L257.754,134.421z M250.644,133.815l-3.556-0.304l0.086-0.996l3.556,0.304L250.644,133.815z M243.534,133.209l-3.556-0.303
		l0.084-0.996l3.556,0.303L243.534,133.209z M236.423,132.604l-3.556-0.304l0.086-0.996l3.556,0.304L236.423,132.604z
		 M229.313,131.997l-3.556-0.303l0.084-0.996l3.556,0.303L229.313,131.997z M222.203,131.392l-3.555-0.304l0.085-0.996l3.555,0.304
		L222.203,131.392z M215.092,130.785l-3.555-0.303l0.085-0.996l3.555,0.303L215.092,130.785z M207.982,130.179l-3.555-0.303
		l0.085-0.996l3.555,0.303L207.982,130.179z M200.872,129.573l-3.555-0.303l0.085-0.996l3.555,0.303L200.872,129.573z M401.5,129.5
		h-1v-4h1V129.5z M193.761,128.967l-3.555-0.303l0.085-0.996l3.555,0.303L193.761,128.967z M186.651,128.361l-3.555-0.303
		l0.085-0.996l3.555,0.303L186.651,128.361z M179.541,127.755l-3.555-0.303l0.085-0.996l3.555,0.303L179.541,127.755z
		 M172.431,127.149l-3.555-0.303l0.085-0.996l3.555,0.303L172.431,127.149z M165.32,126.543l-3.555-0.303l0.085-0.996l3.555,0.303
		L165.32,126.543z M158.21,125.938l-3.555-0.304l0.085-0.996l3.555,0.304L158.21,125.938z M151.1,125.331l-3.555-0.303l0.085-0.996
		l3.555,0.303L151.1,125.331z M143.99,124.726l-3.555-0.304l0.085-0.996l3.555,0.304L143.99,124.726z M136.879,124.119l-3.555-0.303
		l0.085-0.996l3.555,0.303L136.879,124.119z M129.769,123.514l-3.555-0.304l0.085-0.996l3.555,0.304L129.769,123.514z
		 M122.659,122.907l-3.555-0.303l0.085-0.996l3.555,0.303L122.659,122.907z M115.549,122.302l-3.555-0.304l0.085-0.996l3.555,0.304
		L115.549,122.302z M401.5,122.5h-1v-4h1V122.5z M108.438,121.695l-3.555-0.303l0.085-0.996l3.555,0.303L108.438,121.695z
		 M101.328,121.089l-3.555-0.303l0.085-0.996l3.555,0.303L101.328,121.089z M94.218,120.483l-3.555-0.303l0.085-0.996l3.555,0.303
		L94.218,120.483z M87.107,119.877l-3.555-0.303l0.085-0.996l3.555,0.303L87.107,119.877z M79.998,119.271l-3.555-0.303l0.085-0.996
		l3.555,0.303L79.998,119.271z M72.887,118.665l-3.555-0.303l0.085-0.996l3.555,0.303L72.887,118.665z M65.777,118.06l-3.555-0.303
		l0.085-0.996l3.555,0.303L65.777,118.06z M58.667,117.453l-3.555-0.303l0.085-0.996l3.555,0.303L58.667,117.453z M51.556,116.848
		l-3.555-0.304l0.085-0.996l3.555,0.304L51.556,116.848z M44.446,116.241l-3.555-0.303l0.085-0.996l3.555,0.303L44.446,116.241z
		 M37.336,115.636l-3.555-0.304l0.085-0.996l3.555,0.304L37.336,115.636z M30.226,115.029l-3.555-0.303l0.085-0.996l3.555,0.303
		L30.226,115.029z M401.5,115.5h-1v-4h1V115.5z M23.115,114.424l-3.555-0.304l0.085-0.996l3.555,0.304L23.115,114.424z
		 M17.766,112.237l-1-0.023l0.081-3.567l1,0.023L17.766,112.237z M401.5,107.5h-1v-3h1V107.5z M17.928,105.104l-1-0.023l0.081-3.567
		l1,0.023L17.928,105.104z M401.5,100.5h-1v-3h1V100.5z M18.09,97.969l-1-0.023l0.081-3.567l1,0.023L18.09,97.969z M401.5,93.5h-1
		v-3h1V93.5z M18.252,90.835l-1-0.023l0.081-3.567l1,0.022L18.252,90.835z M21.447,87.348l-0.096-0.995
		c0.999-0.096,2.198-0.208,3.586-0.333l0.09,0.996C23.641,87.142,22.443,87.252,21.447,87.348z M28.6,86.697l-0.087-0.996
		l3.57-0.311l0.086,0.996L28.6,86.697z M401.5,86.5h-1v-4h1V86.5z M35.736,86.079l-0.085-0.996l3.565-0.304l0.085,0.996
		L35.736,86.079z M42.866,85.473l-0.083-0.996l3.564-0.299l0.084,0.996L42.866,85.473z M49.992,84.875l-0.083-0.997l3.562-0.296
		l0.083,0.996L49.992,84.875z M57.117,84.284l-0.083-0.997l3.562-0.294l0.082,0.997L57.117,84.284z M64.24,83.695l-0.082-0.997
		l3.561-0.293l0.082,0.997L64.24,83.695z M71.362,83.11l-0.082-0.997l3.561-0.292l0.081,0.997L71.362,83.11z M78.483,82.526
		l-0.081-0.997l3.561-0.291l0.081,0.997L78.483,82.526z M85.604,81.946l-0.081-0.997l3.56-0.29l0.081,0.997L85.604,81.946z
		 M92.724,81.366l-0.081-0.997l3.56-0.289l0.081,0.997L92.724,81.366z M99.844,80.789l-0.081-0.997l3.56-0.289l0.081,0.997
		L99.844,80.789z M106.964,80.212l-0.08-0.997l3.559-0.288l0.081,0.997L106.964,80.212z M114.083,79.636l-0.08-0.997l3.56-0.287
		l0.08,0.997L114.083,79.636z M401.5,79.5h-1v-4h1V79.5z M121.203,79.062l-0.08-0.997l3.559-0.287l0.08,0.997L121.203,79.062z
		 M128.321,78.488l-0.08-0.997l3.56-0.287l0.08,0.997L128.321,78.488z M135.44,77.916l-0.08-0.997l3.56-0.286l0.08,0.997
		L135.44,77.916z M142.56,77.343l-0.08-0.997l3.56-0.286l0.08,0.997L142.56,77.343z M149.678,76.771l-0.08-0.997l3.56-0.286
		l0.08,0.997L149.678,76.771z M156.797,76.201l-0.08-0.997l3.56-0.285l0.08,0.997L156.797,76.201z M163.915,75.631l-0.08-0.997
		l3.56-0.285l0.08,0.997L163.915,75.631z M171.034,75.061l-0.08-0.997l3.56-0.285l0.08,0.997L171.034,75.061z M178.152,74.491
		l-0.08-0.997l3.56-0.284l0.079,0.997L178.152,74.491z M185.271,73.923l-0.08-0.997l3.56-0.284l0.079,0.997L185.271,73.923z
		 M192.39,73.355l-0.08-0.997l3.56-0.284l0.079,0.997L192.39,73.355z M199.508,72.787l-0.079-0.997l3.56-0.284l0.079,0.997
		L199.508,72.787z M206.626,72.22l-0.079-0.997l3.56-0.284l0.079,0.997L206.626,72.22z M401.5,72.5h-1v-4h1V72.5z M213.745,71.652
		l-0.079-0.997l3.573-0.284l0.079,0.997L213.745,71.652z M220.887,71.083l-0.079-0.997l3.563-0.283l0.08,0.997L220.887,71.083z
		 M228.009,70.518l-0.08-0.997l3.554-0.283l0.08,0.997L228.009,70.518z M235.11,69.953l-0.08-0.997l3.56-0.283l0.08,0.997
		L235.11,69.953z M242.229,69.387l-0.078-0.997l3.559-0.283l0.08,0.997L242.229,69.387z M249.348,68.821l-0.078-0.997l3.559-0.283
		l0.08,0.997L249.348,68.821z M256.466,68.256l-0.078-0.997l3.561-0.282l0.078,0.997L256.466,68.256z M263.587,67.691l-0.08-0.997
		l3.561-0.283l0.078,0.997L263.587,67.691z M270.705,67.126l-0.078-0.997l3.56-0.282l0.078,0.997L270.705,67.126z M277.824,66.562
		l-0.078-0.997l3.56-0.282l0.078,0.997L277.824,66.562z M284.943,65.998L284.865,65l3.561-0.282l0.079,0.997L284.943,65.998z
		 M292.063,65.434l-0.08-0.997l3.562-0.282l0.078,0.997L292.063,65.434z M401.5,65.5h-1v-4h1V65.5z M299.185,64.87l-0.08-0.997
		l3.562-0.282l0.078,0.997L299.185,64.87z M306.304,64.306l-0.078-0.997l3.561-0.281l0.078,0.997L306.304,64.306z M313.423,63.744
		l-0.078-0.997l3.562-0.282l0.078,0.997L313.423,63.744z M320.546,63.181l-0.078-0.997l3.561-0.281l0.078,0.997L320.546,63.181z
		 M327.667,62.618l-0.078-0.997l3.562-0.281l0.078,0.997L327.667,62.618z M334.788,62.055l-0.078-0.997l3.562-0.281l0.078,0.997
		L334.788,62.055z M341.911,61.493l-0.078-0.997l3.562-0.281l0.078,0.997L341.911,61.493z M349.035,60.93l-0.078-0.997l3.562-0.281
		l0.078,0.997L349.035,60.93z M356.16,60.368l-0.078-0.997l3.562-0.281l0.078,0.997L356.16,60.368z M363.284,59.806l-0.078-0.997
		l3.563-0.281l0.078,0.997L363.284,59.806z M370.412,59.244l-0.078-0.997l3.565-0.281l0.078,0.997L370.412,59.244z M377.543,58.682
		l-0.078-0.997l3.566-0.281l0.078,0.997L377.543,58.682z M384.678,58.12l-0.078-0.997l3.534-0.279l0.114,0.994L384.678,58.12z
		 M401.5,57.5h-1v-0.626l-1.498,0.118l-0.078-0.997l2.576-0.203V57.5z M391.822,57.557l-0.078-0.997l3.581-0.282l0.078,0.997
		L391.822,57.557z"/>
</g>
<g>
	<circle fill="#EFEFEF" cx="401.54" cy="100.389" r="44.823"/>
</g>
<g>
	<circle fill="#EFEFEF" cx="22.14" cy="100.389" r="13.447"/>
</g>
<g>
	<path fill="#414141" d="M26.372,6.353c2.016,0,2.796,1.171,2.796,2.354c0,0.832-0.508,1.56-1.274,1.911
		c1.104,0.351,1.638,1.157,1.638,2.301c0,1.781-1.352,2.809-3.055,2.809c-1.769,0-3.133-0.937-3.133-2.809
		c0-1.092,0.571-1.937,1.611-2.301c-0.779-0.312-1.287-1.079-1.287-1.911C23.668,7.198,24.955,6.353,26.372,6.353z M26.477,14.751
		c1.104,0,1.885-0.767,1.885-1.794c0-0.988-0.857-1.755-1.898-1.755c-1.092,0-1.949,0.689-1.949,1.769
		C24.514,14.075,25.332,14.751,26.477,14.751z M26.477,10.228c0.884,0,1.521-0.547,1.521-1.482c0-0.937-0.649-1.417-1.547-1.417
		c-0.884,0-1.612,0.494-1.612,1.417C24.838,9.746,25.579,10.228,26.477,10.228z"/>
	<path fill="#414141" d="M33.859,8.849h1.04v0.988h0.026c0.507-0.767,1.222-1.144,2.171-1.144c0.832,0,1.573,0.312,1.846,1.144
		c0.455-0.728,1.235-1.144,2.106-1.144c1.339,0,2.236,0.559,2.236,1.95v4.927H42.18v-4.407c0-0.832-0.221-1.495-1.3-1.495
		s-1.755,0.676-1.755,1.716v4.187H38.02v-4.407c0-0.871-0.272-1.495-1.261-1.495c-1.3,0-1.794,1.196-1.794,1.716v4.187h-1.105V8.849
		z"/>
	<path fill="#414141" d="M44.714,8.849h1.04v0.988h0.026c0.507-0.767,1.222-1.144,2.171-1.144c0.832,0,1.573,0.312,1.846,1.144
		c0.455-0.728,1.235-1.144,2.106-1.144c1.339,0,2.236,0.559,2.236,1.95v4.927h-1.105v-4.407c0-0.832-0.221-1.495-1.3-1.495
		s-1.755,0.676-1.755,1.716v4.187h-1.105v-4.407c0-0.871-0.272-1.495-1.261-1.495c-1.3,0-1.794,1.196-1.794,1.716v4.187h-1.105
		V8.849z"/>
</g>
<g>
	<path fill="#414141" d="M66.755,13.348c0.091,0.896,0.807,1.403,1.69,1.403c1.352,0,2.015-1.17,2.08-3.562l-0.026-0.026
		c-0.416,0.78-1.235,1.274-2.132,1.274c-1.885,0-2.912-1.262-2.912-3.081c0-1.769,1.248-3.004,3.029-3.004
		c1.716,0,3.159,0.924,3.159,4.407c0,3.186-0.962,4.967-3.198,4.967c-1.547,0-2.652-0.793-2.795-2.379H66.755z M68.432,7.329
		c-1.312,0-1.807,1.053-1.807,2.184c0,1.001,0.754,1.95,1.82,1.95c1.157,0,1.885-0.936,1.885-2.027
		C70.33,8.303,69.667,7.329,68.432,7.329z"/>
</g>
<g>
	<path fill="#414141" d="M96.477,15.571h-1.104V8.966h-2.393V8.083c1.261,0,2.405-0.325,2.652-1.729h0.845V15.571z"/>
	<path fill="#414141" d="M101.157,6.353c2.886,0,3.068,2.665,3.068,4.693s-0.183,4.681-3.068,4.681s-3.068-2.652-3.068-4.681
		S98.271,6.353,101.157,6.353z M101.157,14.751c1.885,0,1.897-2.34,1.897-3.718c0-1.365-0.013-3.705-1.897-3.705
		s-1.898,2.34-1.898,3.705C99.259,12.412,99.272,14.751,101.157,14.751z"/>
</g>
<g>
</g>
<g>
	<path fill="#FF8C40" d="M122.702,7.978c1.235,0,2.444-0.402,2.652-1.508h1.209v9.101h-1.625V9.149h-2.236V7.978z"/>
	<path fill="#FF8C40" d="M127.771,7.978c1.235,0,2.444-0.402,2.652-1.508h1.209v9.101h-1.625V9.149h-2.236V7.978z"/>
</g>
<g>
	<path fill="#414141" d="M157.488,15.571h-1.104V8.966h-2.393V8.083c1.261,0,2.405-0.325,2.652-1.729h0.845V15.571z"/>
	<path fill="#414141" d="M159.283,9.617c-0.104-1.872,1.014-3.264,2.964-3.264c1.599,0,2.886,0.937,2.886,2.652
		c0,1.625-1.092,2.432-2.236,3.159c-1.144,0.689-2.379,1.3-2.587,2.432h4.732v0.975h-6.02c0.169-2.171,1.287-2.99,2.588-3.771
		c1.56-0.975,2.353-1.521,2.353-2.808c0-1.001-0.806-1.664-1.781-1.664c-1.287,0-1.833,1.183-1.794,2.288H159.283z"/>
</g>
<g>
	<path fill="#414141" d="M187.738,15.57h-1.104V8.966h-2.393V8.082c1.261,0,2.405-0.325,2.652-1.729h0.845V15.57z"/>
	<path fill="#414141" d="M191.782,10.305c0.091,0.014,0.169,0.014,0.247,0.014h0.233c0.937,0,1.755-0.521,1.755-1.508
		c0-0.976-0.702-1.482-1.638-1.482c-1.196,0-1.742,0.923-1.742,2.002h-1.104c0.064-1.755,1.001-2.978,2.847-2.978
		c1.599,0,2.808,0.768,2.808,2.471c0,0.819-0.559,1.508-1.273,1.833v0.025c1.131,0.247,1.664,1.132,1.664,2.236
		c0,1.833-1.443,2.809-3.172,2.809c-1.872,0-3.107-1.092-3.068-3.003h1.104c0.039,1.195,0.702,2.027,1.964,2.027
		c1.078,0,2.002-0.676,2.002-1.78c0-1.157-0.871-1.769-1.963-1.769c-0.234,0-0.455,0.013-0.663,0.039V10.305z"/>
</g>
<g>
	<path fill="#414141" d="M219.738,15.571h-1.104V8.966h-2.393V8.083c1.261,0,2.405-0.325,2.652-1.729h0.845V15.571z"/>
	<path fill="#414141" d="M226.213,12.438h1.248v0.975h-1.248v2.158h-1.04v-2.158h-4.043v-1.065l4.199-5.994h0.884V12.438z
		 M225.173,12.438V7.926h-0.026l-3.067,4.512H225.173z"/>
</g>
<g>
	<path fill="#414141" d="M249.645,15.571h-1.104V8.966h-2.393V8.083c1.261,0,2.405-0.325,2.652-1.729h0.845V15.571z"/>
	<path fill="#414141" d="M256.847,7.485h-3.718l-0.494,2.651l0.026,0.026c0.402-0.455,1.092-0.663,1.716-0.663
		c1.638,0,2.977,1.04,2.977,3.159c0,1.56-1.078,3.068-3.224,3.068c-1.599,0-2.899-0.976-2.938-2.64h1.105
		c0.064,0.949,0.832,1.664,1.938,1.664c1.053,0,1.949-0.728,1.949-2.184c0-1.209-0.832-2.094-2.08-2.094
		c-0.715,0-1.287,0.352-1.716,0.871l-0.949-0.052l0.858-4.784h4.55V7.485z"/>
</g>
<g>
	<path fill="#414141" d="M280.238,15.57h-1.104V8.966h-2.393V8.082c1.261,0,2.405-0.325,2.652-1.729h0.845V15.57z"/>
	<path fill="#414141" d="M286.791,8.706c-0.104-0.832-0.663-1.378-1.547-1.378c-1.872,0-2.197,2.08-2.236,3.497l0.026,0.026
		c0.52-0.846,1.3-1.21,2.301-1.21c1.768,0,2.821,1.287,2.821,2.99c0,1.353-0.754,3.095-3.081,3.095c-2.743,0-3.173-2.51-3.173-4.434
		c0-2.535,0.768-4.94,3.394-4.94c1.521,0,2.457,0.846,2.6,2.354H286.791z M283.216,12.697c0,1.144,0.702,2.054,1.911,2.054
		c1.196,0,1.859-0.949,1.859-2.041c0-1.144-0.599-2.093-1.859-2.093C283.892,10.617,283.216,11.54,283.216,12.697z"/>
</g>
<g>
	<path fill="#414141" d="M308.488,15.571h-1.104V8.966h-2.393V8.083c1.261,0,2.405-0.325,2.652-1.729h0.845V15.571z"/>
	<path fill="#414141" d="M315.821,7.458c-1.859,1.833-3.367,5.239-3.536,8.112h-1.235c0.208-3.12,1.703-5.98,3.641-8.021h-4.837
		v-1.04h5.968V7.458z"/>
</g>
<g>
	<path fill="#414141" d="M340.738,15.571h-1.104V8.966h-2.393V8.083c1.261,0,2.405-0.325,2.652-1.729h0.845V15.571z"/>
	<path fill="#414141" d="M345.354,6.353c2.016,0,2.795,1.171,2.795,2.354c0,0.832-0.507,1.561-1.273,1.911
		c1.104,0.351,1.638,1.157,1.638,2.301c0,1.781-1.352,2.809-3.055,2.809c-1.769,0-3.134-0.937-3.134-2.809
		c0-1.092,0.572-1.937,1.612-2.301c-0.78-0.312-1.287-1.079-1.287-1.911C342.649,7.199,343.937,6.353,345.354,6.353z
		 M345.458,14.751c1.104,0,1.885-0.767,1.885-1.794c0-0.988-0.858-1.755-1.897-1.755c-1.093,0-1.95,0.689-1.95,1.768
		C343.495,14.076,344.313,14.751,345.458,14.751z M345.458,10.228c0.884,0,1.521-0.547,1.521-1.482c0-0.937-0.649-1.417-1.547-1.417
		c-0.884,0-1.612,0.494-1.612,1.417C343.819,9.747,344.561,10.228,345.458,10.228z"/>
</g>
<g>
	<path fill="#414141" d="M363.488,15.571h-1.104V8.966h-2.393V8.083c1.261,0,2.405-0.325,2.652-1.729h0.845V15.571z"/>
	<path fill="#414141" d="M366.439,13.348c0.091,0.896,0.807,1.403,1.69,1.403c1.352,0,2.015-1.17,2.08-3.562l-0.026-0.026
		c-0.416,0.78-1.234,1.274-2.132,1.274c-1.885,0-2.912-1.262-2.912-3.081c0-1.769,1.248-3.004,3.029-3.004
		c1.716,0,3.159,0.924,3.159,4.407c0,3.186-0.962,4.967-3.198,4.967c-1.547,0-2.652-0.793-2.795-2.379H366.439z M368.117,7.329
		c-1.313,0-1.808,1.053-1.808,2.184c0,1.001,0.754,1.95,1.82,1.95c1.157,0,1.885-0.936,1.885-2.027
		C370.015,8.303,369.352,7.329,368.117,7.329z"/>
	<path fill="#414141" d="M375.747,8.849h1.04v0.988h0.026c0.507-0.767,1.222-1.144,2.171-1.144c0.832,0,1.573,0.312,1.846,1.144
		c0.455-0.728,1.235-1.144,2.106-1.144c1.339,0,2.236,0.559,2.236,1.95v4.927h-1.105v-4.407c0-0.832-0.221-1.495-1.3-1.495
		s-1.755,0.676-1.755,1.716v4.187h-1.105v-4.407c0-0.871-0.272-1.495-1.261-1.495c-1.3,0-1.794,1.196-1.794,1.716v4.187h-1.105
		V8.849z"/>
	<path fill="#414141" d="M386.602,8.849h1.04v0.988h0.026c0.507-0.767,1.222-1.144,2.171-1.144c0.832,0,1.573,0.312,1.846,1.144
		c0.455-0.728,1.235-1.144,2.106-1.144c1.339,0,2.236,0.559,2.236,1.95v4.927h-1.105v-4.407c0-0.832-0.221-1.495-1.3-1.495
		s-1.755,0.676-1.755,1.716v4.187h-1.105v-4.407c0-0.871-0.272-1.495-1.261-1.495c-1.3,0-1.794,1.196-1.794,1.716v4.187h-1.105
		V8.849z"/>
</g>
<g>
</g>
<g>
	<path fill="#FF8C40" d="M95.12,153.656h1.364l3.628,9.282h-1.365l-1.015-2.795h-3.926l-1.04,2.795h-1.274L95.12,153.656z
		 M94.196,159.104h3.146l-1.547-4.329H95.77L94.196,159.104z"/>
	<path fill="#FF8C40" d="M103.088,162.938h-1.183l-2.496-6.722h1.235l1.885,5.604h0.026l1.833-5.604h1.156L103.088,162.938z"/>
	<path fill="#FF8C40" d="M111.734,160.807c-0.3,1.495-1.353,2.288-2.873,2.288c-2.146,0-3.159-1.495-3.225-3.536
		c0-2.028,1.326-3.497,3.159-3.497c2.379,0,3.107,2.223,3.042,3.848h-5.031c-0.039,1.17,0.624,2.21,2.094,2.21
		c0.923,0,1.547-0.429,1.741-1.312H111.734z M110.668,158.935c-0.065-1.054-0.832-1.898-1.938-1.898
		c-1.144,0-1.858,0.858-1.924,1.898H110.668z"/>
	<path fill="#FF8C40" d="M112.943,156.217h1.04v1.418h0.025c0.533-1.093,1.274-1.612,2.471-1.573v1.17
		c-1.781,0-2.432,1.001-2.432,2.717v2.99h-1.104V156.217z"/>
	<path fill="#FF8C40" d="M123.058,162.912c-0.195,0.117-0.469,0.183-0.793,0.183c-0.572,0-0.937-0.312-0.937-1.04
		c-0.611,0.728-1.43,1.04-2.366,1.04c-1.222,0-2.223-0.533-2.223-1.886c0-1.521,1.131-1.858,2.274-2.066
		c1.209-0.247,2.263-0.144,2.263-0.988c0-0.975-0.807-1.118-1.495-1.118c-0.937,0-1.625,0.286-1.677,1.274h-1.105
		c0.065-1.664,1.339-2.249,2.847-2.249c1.209,0,2.522,0.272,2.522,1.846v3.458c0,0.521,0,0.754,0.351,0.754
		c0.104,0,0.222-0.025,0.339-0.064V162.912z M121.264,159.468c-0.858,0.637-3.354,0.013-3.354,1.664c0,0.728,0.624,0.987,1.3,0.987
		c1.456,0,2.055-0.896,2.055-1.521V159.468z"/>
	<path fill="#FF8C40" d="M129.816,162.366c0,2.197-0.987,3.303-3.119,3.303c-1.262,0-2.718-0.521-2.782-1.977h1.104
		c0.039,0.793,1.027,1.092,1.742,1.092c1.443,0,2.016-1.04,2.016-2.548v-0.441h-0.026c-0.377,0.818-1.235,1.222-2.093,1.222
		c-2.003,0-3.004-1.573-3.004-3.406c0-1.586,0.768-3.549,3.107-3.549c0.845,0,1.6,0.377,2.002,1.118h0.014v-0.963h1.039V162.366z
		 M128.725,159.441c0-1.184-0.52-2.405-1.911-2.405c-1.417,0-1.989,1.157-1.989,2.444c0,1.209,0.442,2.561,1.898,2.561
		S128.725,160.702,128.725,159.441z"/>
	<path fill="#FF8C40" d="M136.993,160.807c-0.3,1.495-1.353,2.288-2.873,2.288c-2.146,0-3.159-1.495-3.225-3.536
		c0-2.028,1.326-3.497,3.159-3.497c2.379,0,3.107,2.223,3.042,3.848h-5.031c-0.039,1.17,0.624,2.21,2.093,2.21
		c0.924,0,1.548-0.429,1.742-1.312H136.993z M135.927,158.935c-0.065-1.054-0.832-1.898-1.938-1.898
		c-1.144,0-1.858,0.858-1.924,1.898H135.927z"/>
	<path fill="#FF8C40" d="M141.529,153.656h1.235v9.282h-1.235V153.656z"/>
	<path fill="#FF8C40" d="M144.39,156.217h1.04v1.066h0.025c0.468-0.832,1.209-1.222,2.185-1.222c1.768,0,2.313,1.014,2.313,2.457
		v4.42h-1.104v-4.55c0-0.832-0.521-1.353-1.365-1.353c-1.339,0-1.989,0.897-1.989,2.106v3.796h-1.104V156.217z"/>
	<path fill="#FF8C40" d="M157.352,162.938h-1.105v-0.91h-0.025c-0.364,0.741-1.209,1.066-2.146,1.066
		c-2.067,0-3.094-1.639-3.094-3.536c0-1.898,1.014-3.497,3.067-3.497c0.677,0,1.69,0.26,2.172,1.053h0.025v-3.458h1.105V162.938z
		 M154.231,162.119c1.495,0,2.054-1.287,2.054-2.535c0-1.312-0.598-2.548-2.119-2.548c-1.508,0-2.015,1.287-2.015,2.601
		C152.151,160.897,152.801,162.119,154.231,162.119z"/>
	<path fill="#FF8C40" d="M164.527,160.807c-0.3,1.495-1.353,2.288-2.873,2.288c-2.146,0-3.159-1.495-3.225-3.536
		c0-2.028,1.326-3.497,3.159-3.497c2.379,0,3.107,2.223,3.042,3.848H159.6c-0.039,1.17,0.624,2.21,2.094,2.21
		c0.923,0,1.547-0.429,1.741-1.312H164.527z M163.461,158.935c-0.065-1.054-0.832-1.898-1.938-1.898
		c-1.144,0-1.858,0.858-1.924,1.898H163.461z"/>
	<path fill="#FF8C40" d="M167.192,159.402l-2.341-3.186h1.418l1.611,2.354l1.678-2.354h1.325l-2.313,3.095l2.6,3.627h-1.417
		l-1.872-2.782l-1.872,2.782h-1.339L167.192,159.402z"/>
</g>
<g>
	<path fill="#414141" d="M387.788,163.496c-0.729,0.962-1.898,1.378-2.978,1.378c-2.769,0-4.42-2.249-4.42-4.68
		c0-2.704,1.482-5.044,4.42-5.044c2.016,0,3.653,0.909,3.991,3.081h-1.235c-0.246-1.404-1.364-2.041-2.756-2.041
		c-2.249,0-3.185,1.963-3.185,3.938c0,1.938,1.118,3.705,3.185,3.705c1.924,0,3.042-1.326,2.978-3.029h-2.964v-1.039h4.068v4.888
		h-0.779L387.788,163.496z"/>
	<path fill="#414141" d="M391.532,156.723h-1.105v-1.352h1.105V156.723z M390.427,157.932h1.105v6.722h-1.105V157.932z"/>
	<path fill="#414141" d="M398.942,164.627c-0.195,0.117-0.469,0.183-0.793,0.183c-0.572,0-0.937-0.312-0.937-1.04
		c-0.611,0.728-1.43,1.04-2.366,1.04c-1.222,0-2.223-0.533-2.223-1.886c0-1.521,1.131-1.858,2.274-2.066
		c1.209-0.247,2.263-0.144,2.263-0.988c0-0.975-0.807-1.118-1.495-1.118c-0.937,0-1.625,0.286-1.677,1.274h-1.105
		c0.065-1.664,1.339-2.249,2.847-2.249c1.209,0,2.522,0.272,2.522,1.846v3.458c0,0.521,0,0.754,0.351,0.754
		c0.104,0,0.222-0.025,0.339-0.064V164.627z M397.148,161.183c-0.858,0.637-3.354,0.013-3.354,1.664c0,0.728,0.624,0.987,1.3,0.987
		c1.456,0,2.055-0.896,2.055-1.521V161.183z"/>
	<path fill="#414141" d="M399.969,157.932h1.04v1.066h0.025c0.468-0.832,1.209-1.222,2.185-1.222c1.768,0,2.313,1.014,2.313,2.457
		v4.42h-1.104v-4.55c0-0.832-0.521-1.353-1.365-1.353c-1.339,0-1.989,0.897-1.989,2.106v3.796h-1.104V157.932z"/>
	<path fill="#414141" d="M408.314,157.932h1.339v0.976h-1.339v4.173c0,0.521,0.143,0.599,0.832,0.599h0.507v0.975h-0.845
		c-1.145,0-1.6-0.234-1.6-1.469v-4.277h-1.144v-0.976h1.144v-2.015h1.105V157.932z"/>
</g>
<g>
	<path fill="#414141" d="M4.11,154.974h1.235v9.282H4.11V154.974z"/>
	<path fill="#414141" d="M6.971,157.534h1.04v1.066h0.025c0.468-0.832,1.209-1.222,2.185-1.222c1.768,0,2.313,1.014,2.313,2.457
		v4.42H11.43v-4.55c0-0.832-0.521-1.353-1.365-1.353c-1.339,0-1.989,0.897-1.989,2.106v3.796H6.971V157.534z"/>
	<path fill="#414141" d="M14.354,158.51h-1.131v-0.976h1.131v-1.001c0-1.092,0.65-1.664,1.859-1.664
		c0.208,0,0.507,0.039,0.715,0.104v0.962c-0.195-0.065-0.429-0.091-0.624-0.091c-0.533,0-0.845,0.169-0.845,0.754v0.936h1.3v0.976
		h-1.3v5.746h-1.105V158.51z"/>
	<path fill="#414141" d="M23.248,164.229c-0.195,0.117-0.469,0.183-0.793,0.183c-0.572,0-0.937-0.312-0.937-1.04
		c-0.611,0.728-1.43,1.04-2.366,1.04c-1.222,0-2.223-0.533-2.223-1.886c0-1.521,1.131-1.858,2.274-2.066
		c1.21-0.247,2.263-0.144,2.263-0.988c0-0.975-0.807-1.118-1.495-1.118c-0.937,0-1.625,0.286-1.677,1.274h-1.105
		c0.065-1.664,1.339-2.249,2.847-2.249c1.21,0,2.522,0.272,2.522,1.846v3.458c0,0.521,0,0.754,0.352,0.754
		c0.104,0,0.221-0.025,0.338-0.064V164.229z M21.453,160.785c-0.857,0.637-3.354,0.013-3.354,1.664c0,0.728,0.624,0.987,1.3,0.987
		c1.456,0,2.054-0.896,2.054-1.521V160.785z"/>
	<path fill="#414141" d="M24.274,157.534h1.04v1.066h0.025c0.468-0.832,1.209-1.222,2.185-1.222c1.768,0,2.313,1.014,2.313,2.457
		v4.42h-1.104v-4.55c0-0.832-0.521-1.353-1.365-1.353c-1.339,0-1.989,0.897-1.989,2.106v3.796h-1.104V157.534z"/>
	<path fill="#414141" d="M32.62,157.534h1.339v0.976H32.62v4.173c0,0.521,0.143,0.599,0.832,0.599h0.507v0.975h-0.845
		c-1.145,0-1.6-0.234-1.6-1.469v-4.277h-1.144v-0.976h1.144v-2.015h1.105V157.534z"/>
</g>
<g>
	<line fill="#BBBBBB" x1="126.5" y1="30.5" x2="126.5" y2="80.5"/>
	<rect x="126.5" y="30.5" fill="#FF8C40" width="1" height="50"/>
</g>
<g>
	<circle fill="#FF8C40" cx="126.969" cy="100.572" r="23.145"/>
</g>
<g>
</g>
<g>
</g>
</svg>
