<?xml version="1.0" encoding="utf-8"?>
<!-- Generator: Adobe Illustrator 17.1.0, SVG Export Plug-In . SVG Version: 6.00 Build 0)  -->
<!DOCTYPE svg PUBLIC "-//W3C//DTD SVG 1.1//EN" "http://www.w3.org/Graphics/SVG/1.1/DTD/svg11.dtd">
<svg version="1.1" id="Layer_1" xmlns="http://www.w3.org/2000/svg" xmlns:xlink="http://www.w3.org/1999/xlink" x="0px" y="0px"
	 viewBox="0 0 262.5 122.167" width="262.5" height="122.167"  enable-background="new 0 0 262.5 122.167" xml:space="preserve">
<g>
</g>
<g>
</g>
<g>
</g>
<g opacity="0.5">
	<rect x="11.104" y="2.621" fill="#EAEAEA" width="36.96" height="49.56"/>
</g>
<g opacity="0.5">
	<rect x="83.344" y="2.621" fill="#EAEAEA" width="33.6" height="49.56"/>
</g>
<g opacity="0.5">
	<rect x="152.224" y="2.621" fill="#EAEAEA" width="30.24" height="49.56"/>
</g>
<g opacity="0.5">
	<rect x="217.744" y="2.621" fill="#EAEAEA" width="26.88" height="49.56"/>
</g>
<g opacity="0.5">
	<g>
		<circle fill="#EAEAEA" cx="29.832" cy="51.049" r="27.747"/>
	</g>
</g>
<g>
	<circle fill="#FF8C40" cx="29.832" cy="51.049" r="21"/>
</g>
<g>
	<path fill="#414141" d="M13.961,116.401c0.091,0.896,0.807,1.403,1.69,1.403c1.352,0,2.015-1.17,2.08-3.562l-0.026-0.026
		c-0.416,0.78-1.234,1.274-2.132,1.274c-1.885,0-2.912-1.262-2.912-3.081c0-1.769,1.248-3.004,3.029-3.004
		c1.716,0,3.159,0.924,3.159,4.407c0,3.186-0.962,4.967-3.198,4.967c-1.547,0-2.652-0.793-2.795-2.379H13.961z M15.639,110.382
		c-1.313,0-1.808,1.053-1.808,2.184c0,1.001,0.754,1.95,1.82,1.95c1.157,0,1.885-0.936,1.885-2.027
		C17.536,111.356,16.873,110.382,15.639,110.382z"/>
	<path fill="#414141" d="M23.269,111.902h1.04v0.988h0.026c0.507-0.767,1.222-1.144,2.171-1.144c0.832,0,1.573,0.312,1.846,1.144
		c0.455-0.728,1.235-1.144,2.106-1.144c1.339,0,2.236,0.559,2.236,1.95v4.927h-1.105v-4.407c0-0.832-0.221-1.495-1.3-1.495
		s-1.755,0.676-1.755,1.716v4.187h-1.105v-4.407c0-0.871-0.272-1.495-1.261-1.495c-1.3,0-1.794,1.196-1.794,1.716v4.187h-1.105
		V111.902z"/>
	<path fill="#414141" d="M34.123,111.902h1.04v0.988h0.026c0.507-0.767,1.222-1.144,2.171-1.144c0.832,0,1.573,0.312,1.846,1.144
		c0.455-0.728,1.235-1.144,2.106-1.144c1.339,0,2.236,0.559,2.236,1.95v4.927h-1.105v-4.407c0-0.832-0.221-1.495-1.3-1.495
		s-1.755,0.676-1.755,1.716v4.187h-1.105v-4.407c0-0.871-0.272-1.495-1.261-1.495c-1.3,0-1.794,1.196-1.794,1.716v4.187h-1.105
		V111.902z"/>
</g>
<g>
	<path fill="#414141" d="M92.091,93.829c-1.859,1.833-3.367,5.239-3.536,8.112h-1.235c0.208-3.12,1.703-5.98,3.641-8.021h-4.837
		v-1.04h5.968V93.829z"/>
	<path fill="#414141" d="M92.818,95.22h1.04v0.988h0.026c0.507-0.767,1.222-1.144,2.171-1.144c0.832,0,1.573,0.312,1.846,1.144
		c0.455-0.728,1.235-1.144,2.106-1.144c1.339,0,2.236,0.559,2.236,1.95v4.927h-1.105v-4.407c0-0.832-0.221-1.495-1.3-1.495
		s-1.755,0.676-1.755,1.716v4.187h-1.105v-4.407c0-0.871-0.272-1.495-1.261-1.495c-1.3,0-1.794,1.196-1.794,1.716v4.187h-1.105
		V95.22z"/>
	<path fill="#414141" d="M103.673,95.22h1.04v0.988h0.026c0.507-0.767,1.222-1.144,2.171-1.144c0.832,0,1.573,0.312,1.846,1.144
		c0.455-0.728,1.235-1.144,2.106-1.144c1.339,0,2.236,0.559,2.236,1.95v4.927h-1.105v-4.407c0-0.832-0.221-1.495-1.3-1.495
		s-1.755,0.676-1.755,1.716v4.187h-1.105v-4.407c0-0.871-0.272-1.495-1.261-1.495c-1.3,0-1.794,1.196-1.794,1.716v4.187h-1.105
		V95.22z"/>
</g>
<g>
	<path fill="#414141" d="M157.297,95.077c-0.104-0.832-0.663-1.378-1.547-1.378c-1.872,0-2.197,2.08-2.236,3.497l0.026,0.026
		c0.52-0.846,1.3-1.209,2.301-1.209c1.768,0,2.821,1.286,2.821,2.989c0,1.353-0.754,3.095-3.081,3.095
		c-2.743,0-3.173-2.51-3.173-4.434c0-2.535,0.768-4.94,3.394-4.94c1.521,0,2.457,0.846,2.6,2.354H157.297z M153.722,99.068
		c0,1.144,0.702,2.054,1.911,2.054c1.196,0,1.859-0.948,1.859-2.041c0-1.144-0.599-2.093-1.859-2.093
		C154.397,96.988,153.722,97.911,153.722,99.068z"/>
	<path fill="#414141" d="M162.938,95.22h1.04v0.988h0.026c0.507-0.767,1.222-1.144,2.171-1.144c0.832,0,1.573,0.312,1.846,1.144
		c0.455-0.728,1.235-1.144,2.106-1.144c1.339,0,2.236,0.559,2.236,1.95v4.927h-1.105v-4.407c0-0.832-0.221-1.495-1.3-1.495
		s-1.755,0.676-1.755,1.716v4.187h-1.105v-4.407c0-0.871-0.272-1.495-1.261-1.495c-1.3,0-1.794,1.196-1.794,1.716v4.187h-1.105
		V95.22z"/>
	<path fill="#414141" d="M173.792,95.22h1.04v0.988h0.026c0.507-0.767,1.222-1.144,2.171-1.144c0.832,0,1.573,0.312,1.846,1.144
		c0.455-0.728,1.235-1.144,2.106-1.144c1.339,0,2.236,0.559,2.236,1.95v4.927h-1.105v-4.407c0-0.832-0.221-1.495-1.3-1.495
		s-1.755,0.676-1.755,1.716v4.187h-1.105v-4.407c0-0.871-0.272-1.495-1.261-1.495c-1.3,0-1.794,1.196-1.794,1.716v4.187h-1.105
		V95.22z"/>
</g>
<g>
	<path fill="#414141" d="M225.825,107.538h-3.718l-0.494,2.651l0.026,0.026c0.402-0.455,1.092-0.663,1.716-0.663
		c1.638,0,2.977,1.04,2.977,3.159c0,1.56-1.078,3.068-3.224,3.068c-1.599,0-2.899-0.976-2.938-2.64h1.105
		c0.064,0.949,0.832,1.664,1.938,1.664c1.053,0,1.949-0.728,1.949-2.184c0-1.209-0.832-2.094-2.08-2.094
		c-0.715,0-1.287,0.352-1.716,0.871l-0.949-0.052l0.858-4.784h4.55V107.538z"/>
	<path fill="#414141" d="M230.596,108.902h1.04v0.988h0.026c0.507-0.767,1.222-1.144,2.171-1.144c0.832,0,1.573,0.312,1.846,1.144
		c0.455-0.728,1.235-1.144,2.106-1.144c1.339,0,2.236,0.559,2.236,1.95v4.927h-1.105v-4.407c0-0.832-0.221-1.495-1.3-1.495
		s-1.755,0.676-1.755,1.716v4.187h-1.105v-4.407c0-0.871-0.272-1.495-1.261-1.495c-1.3,0-1.794,1.196-1.794,1.716v4.187h-1.105
		V108.902z"/>
	<path fill="#414141" d="M241.45,108.902h1.04v0.988h0.026c0.507-0.767,1.222-1.144,2.171-1.144c0.832,0,1.573,0.312,1.846,1.144
		c0.455-0.728,1.235-1.144,2.106-1.144c1.339,0,2.236,0.559,2.236,1.95v4.927h-1.105v-4.407c0-0.832-0.221-1.495-1.3-1.495
		s-1.755,0.676-1.755,1.716v4.187h-1.105v-4.407c0-0.871-0.272-1.495-1.261-1.495c-1.3,0-1.794,1.196-1.794,1.716v4.187h-1.105
		V108.902z"/>
</g>
<g>
	<path fill="#414141" d="M15.184,88.257h3.367c0.807,0,1.911,0,2.457,0.338c0.611,0.364,1.092,1.014,1.092,1.938
		c0,0.987-0.507,1.729-1.378,2.08v0.025c1.145,0.247,1.769,1.092,1.769,2.236c0,1.352-0.988,2.665-2.821,2.665h-4.485V88.257z
		 M16.419,92.248h2.47c1.404,0,1.977-0.494,1.977-1.482c0-1.3-0.897-1.469-1.977-1.469h-2.47V92.248z M16.419,96.499h3.094
		c1.079,0,1.742-0.637,1.742-1.664c0-1.209-0.975-1.547-2.015-1.547h-2.821V96.499z"/>
	<path fill="#414141" d="M29.692,95.407c-0.3,1.495-1.353,2.288-2.873,2.288c-2.146,0-3.159-1.495-3.225-3.536
		c0-2.028,1.326-3.497,3.159-3.497c2.379,0,3.107,2.223,3.042,3.848h-5.031c-0.039,1.17,0.624,2.21,2.094,2.21
		c0.923,0,1.547-0.429,1.741-1.312H29.692z M28.625,93.535c-0.065-1.054-0.832-1.898-1.938-1.898c-1.144,0-1.858,0.858-1.924,1.898
		H28.625z"/>
	<path fill="#414141" d="M31.825,95.42c0.039,0.988,0.91,1.3,1.807,1.3c0.689,0,1.625-0.155,1.625-1.001
		c0-1.729-4.394-0.559-4.394-3.146c0-1.353,1.325-1.911,2.509-1.911c1.508,0,2.652,0.468,2.756,2.105h-1.104
		c-0.065-0.857-0.846-1.131-1.561-1.131c-0.663,0-1.43,0.183-1.43,0.858c0,0.779,1.17,0.936,2.196,1.17
		c1.105,0.247,2.197,0.624,2.197,1.911c0,1.612-1.495,2.119-2.859,2.119c-1.509,0-2.782-0.611-2.848-2.275H31.825z"/>
	<path fill="#414141" d="M39.181,90.817h1.339v0.976h-1.339v4.173c0,0.521,0.143,0.599,0.832,0.599h0.507v0.975h-0.845
		c-1.145,0-1.6-0.234-1.6-1.469v-4.277h-1.144v-0.976h1.144v-2.015h1.105V90.817z"/>
</g>
<g>
	<path fill="#414141" d="M224.747,88.036c2.951,0,4.446,2.326,4.446,4.861s-1.495,4.862-4.446,4.862s-4.446-2.327-4.446-4.862
		S221.796,88.036,224.747,88.036z M224.747,96.72c2.263,0,3.211-1.95,3.211-3.822s-0.948-3.821-3.211-3.821
		c-2.262,0-3.211,1.949-3.211,3.821S222.485,96.72,224.747,96.72z"/>
	<path fill="#414141" d="M230.57,88.257h1.105v5.499l3.068-2.938h1.481l-2.665,2.444l2.86,4.277h-1.404l-2.301-3.51l-1.04,0.962
		v2.548h-1.105V88.257z"/>
	<path fill="#414141" d="M243.169,97.513c-0.195,0.117-0.469,0.183-0.793,0.183c-0.572,0-0.937-0.312-0.937-1.04
		c-0.611,0.728-1.43,1.04-2.366,1.04c-1.222,0-2.223-0.533-2.223-1.886c0-1.521,1.131-1.858,2.274-2.066
		c1.21-0.247,2.263-0.144,2.263-0.988c0-0.975-0.807-1.118-1.495-1.118c-0.937,0-1.625,0.286-1.677,1.274h-1.105
		c0.065-1.664,1.339-2.249,2.847-2.249c1.21,0,2.522,0.272,2.522,1.846v3.458c0,0.521,0,0.754,0.352,0.754
		c0.104,0,0.221-0.025,0.338-0.064V97.513z M241.374,94.068c-0.857,0.637-3.354,0.013-3.354,1.664c0,0.728,0.624,0.987,1.3,0.987
		c1.456,0,2.054-0.896,2.054-1.521V94.068z"/>
	<path fill="#414141" d="M246.729,98.437c-0.521,1.3-0.962,1.794-1.95,1.794c-0.26,0-0.52-0.026-0.767-0.117v-1.015
		c0.208,0.065,0.429,0.156,0.649,0.156c0.455,0,0.702-0.208,0.91-0.61l0.455-1.145l-2.665-6.683h1.248l1.963,5.5h0.026l1.885-5.5
		h1.17L246.729,98.437z"/>
</g>
<g opacity="0.5">
	<g>
		<circle fill="#EAEAEA" cx="231.432" cy="51.049" r="27.747"/>
	</g>
</g>
<g>
	<circle fill="#FF8C40" cx="231.432" cy="51.049" r="21"/>
</g>
<g>
</g>
</svg>
