<?xml version="1.0" encoding="utf-8"?>
<!-- Generator: Adobe Illustrator 17.1.0, SVG Export Plug-In . SVG Version: 6.00 Build 0)  -->
<!DOCTYPE svg PUBLIC "-//W3C//DTD SVG 1.1//EN" "http://www.w3.org/Graphics/SVG/1.1/DTD/svg11.dtd">
<svg version="1.1" id="Layer_1" xmlns="http://www.w3.org/2000/svg" xmlns:xlink="http://www.w3.org/1999/xlink" x="0px" y="0px"
	 viewBox="0 0 300 300" width="300" height="300"  enable-background="new 0 0 300 300" xml:space="preserve">
<g>
	<path fill="#9855D4" d="M247.266,0H52.734C23.61,0,0,23.61,0,52.734V225h300V52.734C300,23.61,276.39,0,247.266,0z"/>
	<path fill="#464646" d="M0,247.266C0,276.39,23.61,300,52.734,300h194.531C276.39,300,300,276.39,300,247.266V225H0V247.266z"/>
</g>
<g>
	<defs>
		<path id="SVGID_1_" d="M300,247.266C300,276.39,276.39,300,247.266,300H52.734C23.61,300,0,276.39,0,247.266V52.734
			C0,23.61,23.61,0,52.734,0h194.531C276.39,0,300,23.61,300,52.734V247.266z"/>
	</defs>
	<clipPath id="SVGID_2_">
		<use xlink:href="#SVGID_1_"  overflow="visible"/>
	</clipPath>
</g>
<g opacity="0.8">
	<path fill="#FFFFFF" d="M116.589,90.025h69.752c-7.522-10.115-20.329-16.78-34.876-16.78
		C136.917,73.244,124.111,79.91,116.589,90.025z"/>
	<path fill="#FFFFFF" d="M109.788,106.575c-0.176,1.379-0.045,3.007-0.045,4.425v12.815h83.443V111c0-1.418,0.131-3.046-0.045-4.425
		H109.788z"/>
	<path fill="#FFFFFF" d="M109.743,152.952c0,1.418-0.132,2.586,0.045,3.965h83.353c0.176-1.379,0.045-2.548,0.045-3.965v-12.585
		h-83.443V152.952z"/>
	<path fill="#FFFFFF" d="M151.465,190.938c14.548,0,27.354-7.126,34.876-16.78h-69.752
		C124.111,183.812,136.917,190.938,151.465,190.938z"/>
	<path fill="#FFFFFF" d="M44.325,98.829c-3.572,1.483-6.932,3.663-9.837,6.567c-2.909,2.909-5.084,6.26-6.567,9.832
		c-1.536,3.712-2.315,7.657-2.311,11.602c-0.004,3.957,0.774,7.899,2.311,11.606c1.483,3.585,3.658,6.932,6.567,9.836
		c2.905,2.909,6.264,4.969,9.832,6.456c3.688,1.524,7.616,2.188,11.545,2.188c0.021,0,0.041,0,0.061,0c0.021,0,0.041,0,0.061,0
		c3.925,0,7.848-0.663,11.541-2.196c3.581-1.479,6.928-3.601,9.832-6.506c2.904-2.904,5.088-6.227,6.571-9.808l25.58-65.178
		L44.325,98.829z M76.154,135.292c-1.107,2.649-2.697,5.021-4.726,7.048c-2.043,2.042-4.433,3.581-7.115,4.689
		c-2.67,1.108-5.47,1.612-8.325,1.612h-0.123c-2.859,0-5.665-0.504-8.317-1.6c-2.699-1.125-5.094-2.696-7.131-4.734
		c-2.037-2.036-3.634-4.412-4.744-7.098c-1.112-2.683-1.675-5.499-1.672-8.395c-0.003-2.876,0.56-5.693,1.669-8.374
		c1.114-2.683,2.712-5.074,4.751-7.114c2.019-2.018,4.391-3.604,7.051-4.721l47.206-18.527L76.154,135.292z"/>
	<path fill="#FFFFFF" d="M275.008,115.228c-1.483-3.572-3.658-6.924-6.567-9.832c-2.905-2.904-6.264-5.084-9.837-6.567
		l-65.188-25.585l25.58,65.192c1.483,3.581,3.667,6.932,6.571,9.836c2.905,2.905,6.252,4.969,9.832,6.448
		c3.692,1.532,7.616,2.196,11.541,2.196c0.02,0,0.041,0,0.061,0c0.02,0,0.041,0,0.061,0c3.929,0,7.857-0.663,11.545-2.188
		c3.568-1.487,6.928-3.605,9.832-6.514c2.909-2.904,5.084-6.223,6.567-9.808c1.536-3.708,2.315-7.634,2.311-11.592
		C277.323,122.871,276.544,118.94,275.008,115.228z M267.255,135.229c-1.108,2.681-2.705,5.072-4.751,7.116
		c-2.028,2.03-4.424,3.572-7.1,4.687c-2.675,1.106-5.481,1.61-8.34,1.61h-0.123c-2.855,0-5.655-0.504-8.338-1.618
		c-2.669-1.102-5.058-2.669-7.102-4.711c-2.029-2.028-3.619-4.385-4.726-7.034l-18.525-47.206l47.206,18.531
		c2.66,1.116,5.032,2.706,7.051,4.723c2.039,2.04,3.637,4.433,4.748,7.109c1.112,2.689,1.676,5.511,1.673,8.403
		C268.931,129.718,268.369,132.541,267.255,135.229z"/>
	<path fill="#FFFFFF" d="M130.489,64.854c9.267,0,16.78-7.509,16.78-16.78s-7.513-16.78-16.78-16.78s-16.78,7.509-16.78,16.78
		S121.222,64.854,130.489,64.854z M130.489,39.683c4.626,0,8.39,3.765,8.39,8.39s-3.764,8.39-8.39,8.39
		c-4.626,0-8.39-3.765-8.39-8.39S125.863,39.683,130.489,39.683z"/>
	<path fill="#FFFFFF" d="M172.44,64.854c9.267,0,16.78-7.509,16.78-16.78s-7.513-16.78-16.78-16.78s-16.78,7.509-16.78,16.78
		S163.173,64.854,172.44,64.854z M172.44,39.683c4.626,0,8.39,3.765,8.39,8.39s-3.764,8.39-8.39,8.39c-4.626,0-8.39-3.765-8.39-8.39
		S167.814,39.683,172.44,39.683z"/>
</g>
<g>
	<g>
		<path fill="#FFFFFF" d="M149.052,262.918c-0.151-0.083-0.302-0.166-0.453-0.242v-0.007c0.574-0.378,1.11-0.793,1.602-1.247
			c2.757-2.501,4.253-5.99,4.253-9.118c0-6.693-4.555-10.969-12.027-10.969h-21.78v9.065h6.044v25.685h-6.044v8.31h20.601
			c1.262,0,2.395-0.03,3.422-0.151c0.143-0.015,0.287-0.038,0.431-0.06c0.854-0.136,1.67-0.355,2.44-0.65l0.007-0.007
			c4.11-1.556,6.92-5.22,6.92-10.871C154.469,268.123,152.543,264.852,149.052,262.918z M144.066,276.085h-9.065v-9.065h9.065
			V276.085z M144.066,258.71h-9.065v-8.31h9.065V258.71z M148.712,263.236l-0.151-0.008c0.045-0.03,0.136-0.053,0.166-0.076
			c0.015,0.015,0.03,0.023,0.045,0.038C148.75,263.205,148.728,263.22,148.712,263.236z"/>
		<path fill="#FFFFFF" d="M144.671,284.244c-0.68,0.106-1.383,0.151-2.108,0.151h-1.314
			C142.51,284.395,143.643,284.365,144.671,284.244z"/>
		<path fill="#FFFFFF" d="M148.773,263.19c-0.023,0.015-0.045,0.03-0.06,0.045l-0.151-0.008c0.045-0.03,0.136-0.053,0.166-0.076
			C148.743,263.167,148.758,263.175,148.773,263.19z"/>
	</g>
	<g>
		<polygon fill="#FFFFFF" points="117.626,241.335 117.626,250.4 111.582,250.4 111.582,276.085 117.626,276.085 117.626,284.395
			96.474,284.395 96.474,276.085 102.517,276.085 102.517,250.4 96.474,250.4 96.474,241.335 		"/>
		<path fill="#FFFFFF" d="M148.773,263.19c-0.023,0.015-0.045,0.03-0.06,0.045l-0.151-0.008c0.045-0.03,0.136-0.053,0.166-0.076
			C148.743,263.167,148.758,263.175,148.773,263.19z"/>
		<path fill="#FFFFFF" d="M148.773,263.19c-0.023,0.015-0.045,0.03-0.06,0.045l-0.151-0.008c0.045-0.03,0.136-0.053,0.166-0.076
			C148.743,263.167,148.758,263.175,148.773,263.19z"/>
		<path fill="#FFFFFF" d="M148.773,263.19c-0.023,0.015-0.045,0.03-0.06,0.045l-0.151-0.008c0.045-0.03,0.136-0.053,0.166-0.076
			C148.743,263.167,148.758,263.175,148.773,263.19z"/>
		<path fill="#FFFFFF" d="M148.599,262.669v0.007c0.151,0.076,0.302,0.159,0.453,0.242c0.317-0.347,0.725-0.899,1.148-1.496
			C149.71,261.876,149.173,262.291,148.599,262.669z M145.101,284.184c0.891-0.128,1.7-0.332,2.44-0.65
			C146.771,283.829,145.955,284.048,145.101,284.184z"/>
		<polygon fill="#FFFFFF" points="187.437,242.09 187.127,242.09 186.198,244.357 186.137,244.357 187.127,241.773 		"/>
		<polygon fill="#FFFFFF" points="185.707,245.55 183.969,250.4 183.893,250.4 183.969,250.189 184.951,247.401 185.54,245.966
			"/>
		<polygon fill="#FFFFFF" points="186.198,244.357 186.062,244.689 185.707,245.55 186.137,244.357 		"/>
		<polygon fill="#FFFFFF" points="181.234,258.71 180.411,261.452 180.328,261.725 180.328,261.732 180.313,261.732 180.396,261.46
			181.227,258.71 		"/>
		<polygon fill="#FFFFFF" points="187.437,242.09 187.127,242.09 186.198,244.357 186.137,244.357 187.127,241.773 		"/>
		<path fill="#FFFFFF" d="M181.227,258.71l-0.831,2.75l-0.083,0.272h0.015v-0.007l0.083-0.272l0.823-2.742H181.227z"/>
		<polygon fill="#FFFFFF" points="183.138,276.085 182.111,278.352 182.096,278.352 182.949,276.085 		"/>
		<path fill="#FFFFFF" d="M179.572,261.732h0.74l0.083-0.272L179.572,261.732z"/>
		<polygon fill="#FFFFFF" points="197.703,250.4 197.703,276.085 203.747,276.085 203.747,284.395 188.638,284.395 188.638,260.977
			184.082,273.064 182.949,276.085 182.096,278.352 180.962,281.374 179.822,284.395 171.262,261.921 171.262,284.395
			156.154,284.395 156.154,276.085 162.197,276.085 162.197,250.4 156.154,250.4 156.154,241.335 172.97,241.335 174.904,247.19
			174.972,247.401 174.904,247.371 175.931,250.4 176.815,252.81 177.857,255.688 178.787,258.552 178.84,258.71 179.028,258.71
			179.965,261.369 180.917,258.71 181.227,258.71 180.396,261.46 179.572,261.732 180.328,261.732 180.328,261.725 180.411,261.452
			181.234,258.71 181.227,258.71 182.942,253.044 183.893,250.4 183.969,250.4 185.707,245.55 186.062,244.689 186.198,244.357
			187.127,242.09 187.437,242.09 187.127,241.773 186.137,244.357 185.911,244.357 186.976,241.335 203.747,241.335 203.747,250.4
					"/>
		<polygon fill="#FFFFFF" points="181.166,281.374 180.124,284.395 179.822,284.395 180.962,281.374 		"/>
		<polygon fill="#FFFFFF" points="186.198,244.357 186.062,244.689 185.707,245.55 183.969,250.4 183.893,250.4 183.969,250.189
			185.54,245.966 186.137,244.357 		"/>
		<polygon fill="#FFFFFF" points="175.931,250.4 174.904,247.371 174.972,247.401 		"/>
		<polygon fill="#FFFFFF" points="176.052,250.4 175.931,250.4 174.904,247.371 174.972,247.401 174.987,247.409 		"/>
		<polygon fill="#FFFFFF" points="178.061,255.688 177.857,255.688 176.815,252.81 177.004,252.788 		"/>
		<polygon fill="#FFFFFF" points="180.411,261.452 180.328,261.725 180.328,261.732 179.572,261.732 180.396,261.46 		"/>
	</g>
</g>
</svg>
