<?xml version="1.0" encoding="utf-8"?>
<!-- Generator: Adobe Illustrator 17.1.0, SVG Export Plug-In . SVG Version: 6.00 Build 0)  -->
<!DOCTYPE svg PUBLIC "-//W3C//DTD SVG 1.1//EN" "http://www.w3.org/Graphics/SVG/1.1/DTD/svg11.dtd">
<svg version="1.1" id="Layer_1" xmlns="http://www.w3.org/2000/svg" xmlns:xlink="http://www.w3.org/1999/xlink" x="0px" y="0px"
	 viewBox="0 0 300 300" width="300" height="300"  enable-background="new 0 0 300 300" xml:space="preserve">
<g>
	<path fill="#F4F4F4" d="M247.762,0H53.231C24.107,0,0.497,23.61,0.497,52.734V225h300V52.734C300.496,23.61,276.887,0,247.762,0z"
		/>
	<path fill="#4178BE" d="M0.497,247.266C0.497,276.39,24.107,300,53.231,300h194.531c29.125,0,52.734-23.61,52.734-52.734V225h-300
		V247.266z"/>
</g>
<g>
	<g>
		<path fill="#FFFFFF" d="M149.053,262.918c-0.151-0.083-0.302-0.166-0.453-0.242v-0.007c0.574-0.378,1.11-0.793,1.602-1.247
			c2.757-2.501,4.253-5.99,4.253-9.118c0-6.693-4.555-10.969-12.027-10.969h-21.78v9.065h6.044v25.685h-6.044v8.31h20.601
			c1.262,0,2.395-0.03,3.422-0.151c0.143-0.015,0.287-0.038,0.431-0.06c0.854-0.136,1.67-0.355,2.44-0.65l0.007-0.007
			c4.11-1.556,6.92-5.22,6.92-10.871C154.469,268.123,152.543,264.852,149.053,262.918z M144.066,276.085h-9.065v-9.065h9.065
			V276.085z M144.066,258.71h-9.065v-8.31h9.065V258.71z M148.712,263.236l-0.151-0.008c0.045-0.03,0.136-0.053,0.166-0.076
			c0.015,0.015,0.03,0.023,0.045,0.038C148.75,263.205,148.728,263.22,148.712,263.236z"/>
		<path fill="#FFFFFF" d="M144.671,284.244c-0.68,0.106-1.383,0.151-2.108,0.151h-1.314
			C142.51,284.395,143.643,284.365,144.671,284.244z"/>
		<path fill="#FFFFFF" d="M148.773,263.19c-0.023,0.015-0.045,0.03-0.06,0.045l-0.151-0.008c0.045-0.03,0.136-0.053,0.166-0.076
			C148.743,263.167,148.758,263.175,148.773,263.19z"/>
	</g>
	<g>
		<polygon fill="#FFFFFF" points="117.626,241.335 117.626,250.4 111.582,250.4 111.582,276.085 117.626,276.085 117.626,284.395
			96.474,284.395 96.474,276.085 102.517,276.085 102.517,250.4 96.474,250.4 96.474,241.335 		"/>
		<path fill="#FFFFFF" d="M148.773,263.19c-0.023,0.015-0.045,0.03-0.06,0.045l-0.151-0.008c0.045-0.03,0.136-0.053,0.166-0.076
			C148.743,263.167,148.758,263.175,148.773,263.19z"/>
		<path fill="#FFFFFF" d="M148.773,263.19c-0.023,0.015-0.045,0.03-0.06,0.045l-0.151-0.008c0.045-0.03,0.136-0.053,0.166-0.076
			C148.743,263.167,148.758,263.175,148.773,263.19z"/>
		<path fill="#FFFFFF" d="M148.773,263.19c-0.023,0.015-0.045,0.03-0.06,0.045l-0.151-0.008c0.045-0.03,0.136-0.053,0.166-0.076
			C148.743,263.167,148.758,263.175,148.773,263.19z"/>
		<path fill="#FFFFFF" d="M148.599,262.669v0.007c0.151,0.076,0.302,0.159,0.453,0.242c0.317-0.347,0.725-0.899,1.148-1.496
			C149.71,261.876,149.173,262.291,148.599,262.669z M145.101,284.184c0.891-0.128,1.7-0.332,2.44-0.65
			C146.771,283.829,145.955,284.048,145.101,284.184z"/>
		<polygon fill="#FFFFFF" points="187.437,242.09 187.127,242.09 186.198,244.357 186.137,244.357 187.127,241.773 		"/>
		<polygon fill="#FFFFFF" points="185.707,245.55 183.969,250.4 183.893,250.4 183.969,250.189 184.951,247.401 185.54,245.966
			"/>
		<polygon fill="#FFFFFF" points="186.198,244.357 186.062,244.689 185.707,245.55 186.137,244.357 		"/>
		<polygon fill="#FFFFFF" points="181.234,258.71 180.411,261.452 180.328,261.725 180.328,261.732 180.313,261.732 180.396,261.46
			181.227,258.71 		"/>
		<polygon fill="#FFFFFF" points="187.437,242.09 187.127,242.09 186.198,244.357 186.137,244.357 187.127,241.773 		"/>
		<path fill="#FFFFFF" d="M181.227,258.71l-0.831,2.75l-0.083,0.272h0.015v-0.007l0.083-0.272l0.823-2.742H181.227z"/>
		<polygon fill="#FFFFFF" points="183.138,276.085 182.111,278.352 182.096,278.352 182.949,276.085 		"/>
		<path fill="#FFFFFF" d="M179.572,261.732h0.74l0.083-0.272L179.572,261.732z"/>
		<polygon fill="#FFFFFF" points="197.703,250.4 197.703,276.085 203.747,276.085 203.747,284.395 188.638,284.395 188.638,260.977
			184.082,273.064 182.949,276.085 182.096,278.352 180.962,281.374 179.822,284.395 171.262,261.921 171.262,284.395
			156.154,284.395 156.154,276.085 162.197,276.085 162.197,250.4 156.154,250.4 156.154,241.335 172.97,241.335 174.904,247.19
			174.972,247.401 174.904,247.371 175.931,250.4 176.815,252.81 177.857,255.688 178.787,258.552 178.84,258.71 179.028,258.71
			179.965,261.369 180.917,258.71 181.227,258.71 180.396,261.46 179.572,261.732 180.328,261.732 180.328,261.725 180.411,261.452
			181.234,258.71 181.227,258.71 182.942,253.044 183.893,250.4 183.969,250.4 185.707,245.55 186.062,244.689 186.198,244.357
			187.127,242.09 187.437,242.09 187.127,241.773 186.137,244.357 185.911,244.357 186.976,241.335 203.747,241.335 203.747,250.4
					"/>
		<polygon fill="#FFFFFF" points="181.166,281.374 180.124,284.395 179.822,284.395 180.962,281.374 		"/>
		<polygon fill="#FFFFFF" points="186.198,244.357 186.062,244.689 185.707,245.55 183.969,250.4 183.893,250.4 183.969,250.189
			185.54,245.966 186.137,244.357 		"/>
		<polygon fill="#FFFFFF" points="175.931,250.4 174.904,247.371 174.972,247.401 		"/>
		<polygon fill="#FFFFFF" points="176.052,250.4 175.931,250.4 174.904,247.371 174.972,247.401 174.987,247.409 		"/>
		<polygon fill="#FFFFFF" points="178.061,255.688 177.857,255.688 176.815,252.81 177.004,252.788 		"/>
		<polygon fill="#FFFFFF" points="180.411,261.452 180.328,261.725 180.328,261.732 179.572,261.732 180.396,261.46 		"/>
	</g>
</g>
<g>
	<path fill="#5596E6" d="M195.514,51.058c-11.564-11.569-27.545-18.725-45.195-18.725c-17.651,0-33.631,7.156-45.196,18.725
		C93.555,62.625,86.396,78.605,86.396,96.256c0,18.688,7.158,35.611,18.727,47.856l45.196,48.028l45.195-48.028
		c11.569-12.245,18.727-29.168,18.727-47.856C214.242,78.605,207.084,62.625,195.514,51.058z M187.755,136.811l-37.436,39.782
		l-37.452-39.798c-10.198-10.797-15.816-25.193-15.816-40.54c0-14.228,5.543-27.602,15.609-37.665
		c10.058-10.064,23.432-15.604,37.66-15.604c14.227,0,27.602,5.54,37.663,15.606c10.064,10.061,15.606,23.435,15.606,37.663
		C203.588,111.602,197.969,125.999,187.755,136.811z"/>
	<polygon fill="#264A60" points="150.319,67.217 158.973,84.752 178.324,87.564 164.322,101.213 167.627,120.486 150.319,111.386
		133.011,120.486 136.317,101.213 122.314,87.564 141.665,84.752 	"/>
</g>
</svg>
