<?xml version="1.0" encoding="utf-8"?>
<!-- Generator: Adobe Illustrator 18.0.0, SVG Export Plug-In . SVG Version: 6.00 Build 0)  -->
<!DOCTYPE svg PUBLIC "-//W3C//DTD SVG 1.1//EN" "http://www.w3.org/Graphics/SVG/1.1/DTD/svg11.dtd">
<svg version="1.1" id="Layer_1" xmlns="http://www.w3.org/2000/svg" xmlns:xlink="http://www.w3.org/1999/xlink" x="0px" y="0px"
	 viewBox="0 0 537.9 119.4" width="537.9" height="119.4"  enable-background="new 0 0 537.9 119.4" xml:space="preserve">
<g>
	<g>
		<path d="M493.9,0c-24.3,0-44,19.7-44,44s19.7,44,44,44c24.3,0,44-19.7,44-44S518.2,0,493.9,0z M493.9,84c-22.1,0-40-17.9-40-40
			s17.9-40,40-40s40,17.9,40,40S515.9,84,493.9,84z"/>
	</g>
	<g>
		<rect x="477.9" y="92" width="32" height="16"/>
	</g>
	<g>
		<path d="M493.9,120c4.4,0,8-3.6,8-8h-16C485.9,116.4,489.4,120,493.9,120z"/>
	</g>
	<g>
		<path d="M493.9,72l16-24h-32L493.9,72z M493.9,64.8L485.3,52h17.1L493.9,64.8z"/>
	</g>
</g>
<g>
	<path fill="#9855D4" d="M44,4c22.1,0,40,17.9,40,40S66.1,84,44,84C21.9,84,4,66.1,4,44S21.9,4,44,4 M44,0C19.7,0,0,19.7,0,44
		s19.7,44,44,44s44-19.7,44-44S68.3,0,44,0L44,0z"/>
</g>
<g>
	<g>
		<path fill="#323232" d="M196.8,4c22.1,0,40,17.9,40,40s-17.9,40-40,40s-40-17.9-40-40S174.8,4,196.8,4 M196.8,0
			c-24.3,0-44,19.7-44,44s19.7,44,44,44s44-19.7,44-44S221.1,0,196.8,0L196.8,0z"/>
	</g>
</g>
<g>
	<circle fill="#9855D4" cx="196.9" cy="111.4" r="8"/>
</g>
<g>
	<g>
		<path fill="#323232" d="M354.8,4c22.1,0,40,17.9,40,40s-17.9,40-40,40c-22.1,0-40-17.9-40-40S332.8,4,354.8,4 M354.8,0
			c-24.3,0-44,19.7-44,44s19.7,44,44,44s44-19.7,44-44S379.1,0,354.8,0L354.8,0z"/>
	</g>
</g>
<g>
	<path fill="#9855D4" d="M212.6,48v60h-31V48H212.6 M216.6,44h-4h-31.1h-3.9v4.1v60v3.9h3.9h31.1h4v-3.9v-60V44L216.6,44z"/>
</g>
<g>
	<path fill="#323232" d="M362.9,111.4c0,4.4-3.6,8-8,8s-8-3.6-8-8"/>
</g>
<g>
	<rect x="339.6" y="92" fill="#9855D4" width="31" height="16"/>
</g>
<g>
	<path fill="#9855D4" d="M354.8,72l16-24h-32L354.8,72z M354.8,64.8L346.3,52h17.1L354.8,64.8z"/>
</g>
<g>
	<path fill="#C7C7C7" d="M370.6,48v60h-31V48H370.6 M374.6,44h-4h-31.1h-3.9v4.1v60v3.9h3.9h31.1h4v-3.9v-60V44L374.6,44z"/>
</g>
</svg>
