<?xml version="1.0" encoding="utf-8"?>
<!-- Generator: Adobe Illustrator 17.1.0, SVG Export Plug-In . SVG Version: 6.00 Build 0)  -->
<!DOCTYPE svg PUBLIC "-//W3C//DTD SVG 1.1//EN" "http://www.w3.org/Graphics/SVG/1.1/DTD/svg11.dtd">
<svg version="1.1" xmlns="http://www.w3.org/2000/svg" xmlns:xlink="http://www.w3.org/1999/xlink" x="0px" y="0px"
	 viewBox="0 0 310 180" width="310" height="180"  enable-background="new 0 0 310 180" xml:space="preserve">
<g id="Layer_1">
	<rect x="0" y="116" fill="#464646" width="310" height="64"/>
	<rect x="5.356" y="32.316" fill="#EED2FF" width="64" height="64"/>
	<rect x="21.356" y="48.316" fill="#9855D4" width="32" height="32"/>
	<g>
		<path fill="#FFFFFF" d="M33.017,62.369c0.277-0.021,0.536-0.083,0.776-0.185c0.24-0.101,0.438-0.248,0.592-0.439
			c0.154-0.192,0.232-0.448,0.232-0.769c0-0.479-0.16-0.848-0.48-1.104c-0.319-0.256-0.688-0.384-1.104-0.384
			c-0.576,0-1.011,0.189-1.305,0.567c-0.293,0.379-0.435,0.856-0.424,1.433h-2.16c0.021-0.576,0.126-1.102,0.312-1.576
			s0.448-0.883,0.784-1.225c0.336-0.341,0.738-0.604,1.208-0.792c0.469-0.187,0.992-0.279,1.567-0.279
			c0.448,0,0.896,0.066,1.345,0.199c0.447,0.134,0.851,0.334,1.208,0.601c0.356,0.267,0.647,0.592,0.872,0.976
			c0.224,0.384,0.336,0.827,0.336,1.328c0,0.544-0.131,1.024-0.393,1.44s-0.653,0.698-1.176,0.848v0.032
			c0.618,0.139,1.104,0.438,1.456,0.896c0.352,0.459,0.528,1.008,0.528,1.648c0,0.587-0.115,1.109-0.345,1.567
			c-0.229,0.459-0.536,0.843-0.92,1.152s-0.826,0.544-1.328,0.704c-0.501,0.16-1.023,0.24-1.567,0.24
			c-0.63,0-1.203-0.091-1.721-0.272c-0.517-0.181-0.957-0.445-1.319-0.792c-0.363-0.347-0.643-0.771-0.84-1.271
			c-0.198-0.502-0.291-1.077-0.28-1.729h2.16c0.011,0.299,0.059,0.584,0.144,0.856c0.086,0.271,0.208,0.507,0.368,0.704
			s0.36,0.354,0.6,0.472c0.24,0.117,0.525,0.176,0.856,0.176c0.512,0,0.944-0.157,1.296-0.472c0.353-0.314,0.528-0.744,0.528-1.288
			c0-0.427-0.083-0.752-0.248-0.976c-0.166-0.225-0.376-0.387-0.632-0.488c-0.257-0.102-0.536-0.16-0.841-0.176
			c-0.304-0.017-0.595-0.024-0.871-0.024v-1.6C32.479,62.39,32.74,62.39,33.017,62.369z"/>
		<path fill="#FFFFFF" d="M38.299,60.36c0.17-0.549,0.426-1.029,0.768-1.439c0.341-0.41,0.771-0.73,1.288-0.96
			s1.112-0.344,1.784-0.344c0.512,0,1,0.079,1.464,0.239s0.872,0.39,1.224,0.688c0.353,0.299,0.632,0.667,0.84,1.104
			c0.208,0.438,0.312,0.929,0.312,1.473c0,0.565-0.091,1.051-0.272,1.456c-0.181,0.405-0.421,0.765-0.72,1.08
			c-0.299,0.314-0.638,0.6-1.016,0.855c-0.379,0.256-0.761,0.51-1.145,0.76c-0.384,0.251-0.757,0.521-1.12,0.809
			c-0.362,0.288-0.683,0.624-0.96,1.008h5.296v1.952h-8.224c0-0.65,0.094-1.216,0.28-1.696c0.187-0.479,0.439-0.909,0.76-1.288
			c0.32-0.378,0.696-0.728,1.128-1.048s0.888-0.646,1.368-0.976c0.245-0.171,0.507-0.345,0.784-0.521s0.53-0.37,0.76-0.584
			c0.229-0.213,0.421-0.453,0.576-0.72c0.154-0.267,0.231-0.57,0.231-0.912c0-0.544-0.157-0.968-0.472-1.272
			c-0.314-0.304-0.718-0.456-1.208-0.456c-0.331,0-0.61,0.078-0.84,0.232s-0.414,0.357-0.552,0.608
			c-0.139,0.25-0.238,0.527-0.296,0.832c-0.06,0.304-0.089,0.605-0.089,0.903h-2.176C38.053,61.504,38.128,60.91,38.299,60.36z"/>
	</g>
	<g>
		<rect x="89.356" y="32.316" fill="#9855D4" width="1" height="64"/>
	</g>
	<g>
		<rect x="82.356" y="32.316" fill="#9855D4" width="14" height="1"/>
	</g>
	<g>
		<rect x="82.356" y="95.316" fill="#9855D4" width="14" height="1"/>
	</g>
	<g>
		<path fill="#323232" d="M111.286,60.02c-0.267-0.277-0.598-0.416-0.992-0.416c-0.405,0-0.744,0.12-1.016,0.36
			c-0.272,0.24-0.488,0.533-0.648,0.88s-0.277,0.718-0.352,1.112c-0.075,0.395-0.118,0.746-0.129,1.056l0.032,0.032
			c0.31-0.448,0.672-0.769,1.088-0.96c0.416-0.192,0.896-0.288,1.44-0.288c0.479,0,0.949,0.104,1.408,0.312
			c0.458,0.208,0.848,0.488,1.168,0.84c0.298,0.342,0.517,0.731,0.655,1.168c0.139,0.438,0.208,0.881,0.208,1.328
			c0,0.576-0.093,1.112-0.279,1.608c-0.188,0.496-0.454,0.928-0.8,1.296c-0.348,0.368-0.761,0.656-1.24,0.864
			c-0.48,0.208-1.014,0.312-1.601,0.312c-0.843,0-1.541-0.168-2.096-0.504s-0.997-0.775-1.328-1.32
			c-0.331-0.544-0.56-1.159-0.688-1.848c-0.128-0.688-0.192-1.389-0.192-2.104c0-0.693,0.08-1.387,0.24-2.08s0.416-1.32,0.768-1.88
			c0.353-0.561,0.806-1.017,1.36-1.368c0.555-0.353,1.231-0.528,2.032-0.528c0.479,0,0.928,0.069,1.344,0.208s0.784,0.339,1.104,0.6
			c0.32,0.262,0.582,0.584,0.784,0.969c0.203,0.384,0.336,0.826,0.4,1.328h-2.16C111.722,60.623,111.553,60.297,111.286,60.02z
			 M109.374,63.676c-0.229,0.112-0.419,0.264-0.568,0.456c-0.149,0.191-0.262,0.413-0.336,0.664s-0.112,0.515-0.112,0.792
			c0,0.256,0.04,0.51,0.12,0.76c0.08,0.251,0.197,0.475,0.353,0.672c0.154,0.197,0.344,0.354,0.567,0.472
			c0.225,0.118,0.48,0.177,0.769,0.177c0.277,0,0.52-0.059,0.728-0.177c0.208-0.117,0.387-0.271,0.536-0.464
			c0.149-0.191,0.262-0.41,0.336-0.655c0.075-0.246,0.112-0.496,0.112-0.752c0-0.267-0.035-0.525-0.104-0.776
			s-0.173-0.475-0.312-0.672c-0.139-0.197-0.317-0.357-0.536-0.48c-0.219-0.122-0.472-0.184-0.76-0.184
			C109.867,63.508,109.603,63.564,109.374,63.676z"/>
		<path fill="#323232" d="M114.741,66.724v-2.08l4.864-6.528h2.032v6.736h1.487v1.872h-1.487v2.592h-2.16v-2.592H114.741z
			 M119.429,60.964l-2.896,3.888h2.944v-3.888H119.429z"/>
		<path fill="#323232" d="M125.813,61.044v1.12h0.032c0.225-0.459,0.576-0.792,1.056-1c0.48-0.208,1.009-0.312,1.584-0.312
			c0.641,0,1.197,0.117,1.673,0.353c0.475,0.234,0.869,0.552,1.184,0.951c0.314,0.4,0.552,0.862,0.712,1.385
			c0.16,0.522,0.24,1.077,0.24,1.664c0,0.586-0.077,1.141-0.232,1.663c-0.154,0.523-0.39,0.979-0.704,1.368
			c-0.314,0.39-0.709,0.696-1.184,0.92c-0.475,0.225-1.026,0.336-1.656,0.336c-0.202,0-0.43-0.021-0.68-0.063
			c-0.251-0.043-0.499-0.112-0.744-0.208s-0.478-0.227-0.696-0.392c-0.219-0.166-0.402-0.371-0.552-0.616h-0.032v4.256h-1.359
			V61.044H125.813z M130.702,63.98c-0.102-0.368-0.256-0.696-0.464-0.983c-0.208-0.288-0.476-0.518-0.801-0.688
			s-0.706-0.256-1.144-0.256c-0.459,0-0.848,0.091-1.168,0.271c-0.32,0.182-0.582,0.419-0.784,0.713c-0.203,0.293-0.35,0.626-0.44,1
			c-0.09,0.373-0.136,0.752-0.136,1.136c0,0.405,0.048,0.797,0.145,1.176c0.096,0.379,0.248,0.712,0.456,1s0.477,0.52,0.808,0.696
			c0.33,0.176,0.73,0.264,1.2,0.264c0.469,0,0.861-0.091,1.176-0.271c0.314-0.182,0.568-0.422,0.76-0.721
			c0.192-0.298,0.331-0.64,0.416-1.023c0.086-0.385,0.128-0.779,0.128-1.185C130.853,64.724,130.803,64.348,130.702,63.98z"/>
		<path fill="#323232" d="M133.238,61.044h1.744l1.983,2.896l2.064-2.896h1.632l-2.848,3.808l3.199,4.464h-1.743l-2.305-3.424
			l-2.304,3.424h-1.648l3.104-4.352L133.238,61.044z"/>
	</g>
	<g>
		<path fill="#FFFFFF" d="M72.164,141.836c0.924-0.944,2.1-1.417,3.526-1.417c1.909,0,3.306,0.633,4.188,1.899
			c0.488,0.711,0.75,1.424,0.786,2.141h-2.397c-0.152-0.55-0.349-0.965-0.587-1.246c-0.428-0.498-1.061-0.747-1.899-0.747
			c-0.854,0-1.527,0.352-2.021,1.055s-0.739,1.698-0.739,2.985s0.26,2.25,0.78,2.892c0.521,0.641,1.182,0.961,1.983,0.961
			c0.822,0,1.449-0.275,1.881-0.825c0.238-0.296,0.437-0.74,0.594-1.331h2.382c-0.206,1.25-0.73,2.268-1.575,3.051
			c-0.845,0.783-1.926,1.175-3.245,1.175c-1.633,0-2.916-0.529-3.851-1.588c-0.934-1.064-1.401-2.522-1.401-4.375
			C70.569,144.464,71.1,142.92,72.164,141.836z"/>
		<path fill="#FFFFFF" d="M85.761,146.949c0.413-0.052,0.708-0.117,0.886-0.194c0.319-0.135,0.479-0.345,0.479-0.63
			c0-0.348-0.122-0.588-0.367-0.72c-0.244-0.132-0.604-0.198-1.077-0.198c-0.53,0-0.907,0.13-1.128,0.389
			c-0.157,0.192-0.263,0.451-0.315,0.778h-2.141c0.047-0.742,0.256-1.352,0.626-1.829c0.589-0.747,1.6-1.121,3.032-1.121
			c0.934,0,1.762,0.185,2.486,0.553c0.725,0.369,1.087,1.064,1.087,2.086v3.892c0,0.27,0.005,0.597,0.015,0.98
			c0.016,0.291,0.06,0.488,0.133,0.591c0.072,0.104,0.182,0.19,0.327,0.257v0.327h-2.413c-0.067-0.171-0.114-0.332-0.141-0.482
			c-0.025-0.15-0.046-0.322-0.062-0.514c-0.309,0.332-0.663,0.615-1.065,0.848c-0.479,0.275-1.022,0.413-1.628,0.413
			c-0.772,0-1.41-0.219-1.914-0.658s-0.756-1.06-0.756-1.864c0-1.043,0.405-1.798,1.216-2.265c0.444-0.254,1.098-0.436,1.96-0.545
			L85.761,146.949z M87.117,147.985c-0.143,0.088-0.285,0.159-0.43,0.214c-0.146,0.055-0.344,0.105-0.596,0.152l-0.506,0.093
			c-0.473,0.083-0.812,0.184-1.02,0.304c-0.349,0.202-0.523,0.516-0.523,0.942c0,0.378,0.106,0.652,0.32,0.821
			c0.213,0.169,0.473,0.253,0.778,0.253c0.484,0,0.931-0.14,1.339-0.42c0.409-0.28,0.621-0.792,0.637-1.534V147.985z"/>
		<path fill="#FFFFFF" d="M90.393,145.284v-1.58h1.184v-2.366h2.194v2.366h1.378v1.58h-1.378v4.483c0,0.348,0.045,0.564,0.133,0.65
			s0.358,0.128,0.81,0.128c0.067,0,0.139-0.001,0.214-0.004s0.149-0.006,0.222-0.012v1.658l-1.051,0.039
			c-1.048,0.036-1.764-0.145-2.148-0.545c-0.249-0.254-0.373-0.646-0.373-1.175v-5.223H90.393z"/>
		<path fill="#FFFFFF" d="M99.934,146.949c0.413-0.052,0.708-0.117,0.886-0.194c0.319-0.135,0.479-0.345,0.479-0.63
			c0-0.348-0.122-0.588-0.367-0.72c-0.244-0.132-0.604-0.198-1.077-0.198c-0.53,0-0.907,0.13-1.128,0.389
			c-0.157,0.192-0.263,0.451-0.315,0.778H96.27c0.047-0.742,0.256-1.352,0.626-1.829c0.589-0.747,1.6-1.121,3.032-1.121
			c0.934,0,1.762,0.185,2.486,0.553c0.725,0.369,1.087,1.064,1.087,2.086v3.892c0,0.27,0.005,0.597,0.015,0.98
			c0.016,0.291,0.06,0.488,0.133,0.591c0.072,0.104,0.182,0.19,0.327,0.257v0.327h-2.413c-0.067-0.171-0.114-0.332-0.141-0.482
			c-0.025-0.15-0.046-0.322-0.062-0.514c-0.309,0.332-0.663,0.615-1.065,0.848c-0.479,0.275-1.022,0.413-1.628,0.413
			c-0.772,0-1.41-0.219-1.914-0.658s-0.756-1.06-0.756-1.864c0-1.043,0.405-1.798,1.216-2.265c0.444-0.254,1.098-0.436,1.96-0.545
			L99.934,146.949z M101.291,147.985c-0.143,0.088-0.285,0.159-0.43,0.214c-0.146,0.055-0.344,0.105-0.596,0.152l-0.506,0.093
			c-0.473,0.083-0.812,0.184-1.02,0.304c-0.349,0.202-0.523,0.516-0.523,0.942c0,0.378,0.106,0.652,0.32,0.821
			c0.213,0.169,0.473,0.253,0.778,0.253c0.484,0,0.931-0.14,1.339-0.42c0.409-0.28,0.621-0.792,0.637-1.534V147.985z"/>
		<path fill="#FFFFFF" d="M107.704,152.11h-2.218v-11.473h2.218V152.11z"/>
		<path fill="#FFFFFF" d="M116.943,151.072c-0.716,0.884-1.804,1.326-3.262,1.326s-2.545-0.442-3.261-1.326
			c-0.716-0.884-1.074-1.948-1.074-3.192c0-1.223,0.358-2.284,1.074-3.181c0.716-0.896,1.803-1.345,3.261-1.345
			s2.546,0.449,3.262,1.345c0.716,0.897,1.074,1.958,1.074,3.181C118.017,149.124,117.659,150.188,116.943,151.072z
			 M115.169,149.846c0.348-0.461,0.521-1.117,0.521-1.967c0-0.85-0.174-1.504-0.521-1.962s-0.846-0.688-1.495-0.688
			c-0.648,0-1.147,0.229-1.498,0.688c-0.35,0.458-0.525,1.113-0.525,1.962c0,0.85,0.176,1.505,0.525,1.967
			c0.351,0.461,0.85,0.691,1.498,0.691C114.323,150.538,114.821,150.307,115.169,149.846z"/>
		<path fill="#FFFFFF" d="M123.803,143.618c0.539,0.223,0.974,0.633,1.306,1.23v-1.222h2.164v8.048c0,1.095-0.185,1.92-0.553,2.475
			c-0.634,0.955-1.848,1.432-3.643,1.432c-1.085,0-1.97-0.212-2.654-0.638c-0.685-0.425-1.063-1.061-1.137-1.907h2.413
			c0.062,0.259,0.163,0.446,0.304,0.561c0.238,0.202,0.641,0.303,1.206,0.303c0.799,0,1.334-0.267,1.604-0.802
			c0.177-0.342,0.265-0.918,0.265-1.728v-0.545c-0.213,0.363-0.441,0.636-0.685,0.817c-0.441,0.337-1.015,0.506-1.721,0.506
			c-1.09,0-1.96-0.383-2.611-1.148c-0.651-0.765-0.977-1.802-0.977-3.109c0-1.261,0.313-2.32,0.94-3.179s1.516-1.289,2.666-1.289
			C123.116,143.423,123.486,143.488,123.803,143.618z M124.557,149.701c0.356-0.392,0.535-1.016,0.535-1.872
			c0-0.804-0.169-1.417-0.508-1.837c-0.338-0.42-0.792-0.63-1.36-0.63c-0.774,0-1.31,0.366-1.604,1.097
			c-0.154,0.389-0.232,0.869-0.232,1.44c0,0.493,0.083,0.932,0.248,1.315c0.3,0.716,0.837,1.074,1.612,1.074
			C123.764,150.289,124.201,150.093,124.557,149.701z"/>
	</g>
	<g>
		<path fill="#C7C7C7" d="M215.006,142.12h2.712l4.06,11.473h-2.6l-0.757-2.358h-4.226l-0.777,2.358h-2.508L215.006,142.12z
			 M214.847,149.257h2.938l-1.449-4.514L214.847,149.257z"/>
		<path fill="#C7C7C7" d="M230.302,146.128c0.635,0.804,0.952,1.842,0.952,3.113c0,1.318-0.313,2.411-0.939,3.277
			c-0.626,0.867-1.499,1.3-2.62,1.3c-0.705,0-1.271-0.14-1.698-0.42c-0.256-0.166-0.532-0.457-0.829-0.872v1.066h-2.188v-11.457
			h2.219v4.078c0.282-0.394,0.593-0.695,0.932-0.903c0.402-0.259,0.914-0.389,1.536-0.389
			C228.788,144.921,229.667,145.324,230.302,146.128z M228.447,151.296c0.319-0.462,0.479-1.069,0.479-1.821
			c0-0.602-0.079-1.1-0.236-1.495c-0.298-0.747-0.847-1.121-1.647-1.121c-0.811,0-1.368,0.366-1.672,1.097
			c-0.157,0.389-0.235,0.893-0.235,1.51c0,0.727,0.162,1.328,0.486,1.806s0.819,0.716,1.483,0.716
			C227.68,151.989,228.129,151.758,228.447,151.296z"/>
		<path fill="#C7C7C7" d="M239.87,152.554c-0.716,0.884-1.804,1.326-3.262,1.326s-2.545-0.442-3.261-1.326
			c-0.716-0.884-1.074-1.948-1.074-3.192c0-1.223,0.358-2.284,1.074-3.181c0.716-0.896,1.803-1.345,3.261-1.345
			s2.546,0.449,3.262,1.345c0.716,0.897,1.074,1.958,1.074,3.181C240.944,150.606,240.586,151.67,239.87,152.554z M238.095,151.329
			c0.348-0.461,0.521-1.117,0.521-1.967c0-0.85-0.174-1.504-0.521-1.962s-0.846-0.688-1.495-0.688c-0.648,0-1.147,0.229-1.498,0.688
			c-0.35,0.458-0.525,1.113-0.525,1.962c0,0.85,0.176,1.505,0.525,1.967c0.351,0.461,0.85,0.691,1.498,0.691
			C237.25,152.02,237.748,151.79,238.095,151.329z"/>
		<path fill="#C7C7C7" d="M244.742,145.108v5.114c0,0.482,0.057,0.846,0.17,1.089c0.201,0.431,0.597,0.646,1.185,0.646
			c0.754,0,1.271-0.306,1.55-0.918c0.145-0.332,0.217-0.771,0.217-1.315v-4.616h2.249v8.484h-2.156v-1.199
			c-0.021,0.026-0.072,0.104-0.155,0.233c-0.082,0.13-0.181,0.244-0.295,0.343c-0.347,0.311-0.682,0.524-1.005,0.638
			s-0.702,0.171-1.137,0.171c-1.253,0-2.096-0.452-2.53-1.354c-0.243-0.498-0.365-1.232-0.365-2.203v-5.114H244.742z"/>
		<path fill="#C7C7C7" d="M251.396,146.766v-1.58h1.184v-2.366h2.194v2.366h1.378v1.58h-1.378v4.483c0,0.348,0.045,0.564,0.133,0.65
			s0.358,0.128,0.81,0.128c0.067,0,0.139-0.001,0.214-0.004c0.075-0.002,0.149-0.006,0.222-0.012v1.658l-1.051,0.039
			c-1.048,0.036-1.764-0.145-2.148-0.545c-0.249-0.254-0.373-0.646-0.373-1.175v-5.223H251.396z"/>
	</g>
	<path fill="#FFFFFF" d="M43.216,132.558c-2.376,0-4.751,1.188-5.939,2.376c-1.188-1.188-3.564-2.376-5.939-2.376h-9.503v28.509
		h9.503c2.376,0,4.751,1.188,5.939,2.376c1.188-1.188,3.564-2.376,5.939-2.376h9.503v-28.509H43.216z M37.277,160.453
		c-1.595-0.992-3.719-1.763-5.939-1.763h-7.127v-23.757h7.127c1.615,0,3.434,0.854,4.26,1.68l1.68,1.68V160.453z M49.156,152.751
		h-8.315v-1.188h8.315V152.751z M49.156,149.188h-8.315V148h8.315V149.188z M49.156,145.624h-8.315v-1.188h8.315V145.624z
		 M49.156,142.061h-8.315v-1.188h8.315V142.061z"/>
	<g>
		<polygon fill="#C7C7C7" points="178.425,145.865 172.02,145.865 172.02,148 174.155,148 174.155,154.405 172.02,154.405
			172.02,156.54 180.56,156.54 180.56,154.405 178.425,154.405 		"/>
		<circle fill="#C7C7C7" cx="176.29" cy="141.595" r="2.135"/>
		<path fill="#C7C7C7" d="M176.29,133.056c-8.253,0-14.944,6.691-14.944,14.944s6.691,14.944,14.944,14.944
			c8.253,0,14.944-6.691,14.944-14.944S184.543,133.056,176.29,133.056z M176.29,160.809c-7.063,0-12.809-5.746-12.809-12.809
			s5.746-12.809,12.809-12.809s12.809,5.746,12.809,12.809S183.354,160.809,176.29,160.809z"/>
	</g>
	<path fill="#C7C7C7" d="M286.832,132.558h-4.118v30.885h4.118h20.59v-30.885H286.832z M305.363,161.383h-16.472v-26.767h6.177
		v14.413l4.118-4.118l4.118,4.118v-14.413h2.059V161.383z"/>
</g>
<g id="Layer_3" display="none">
	<g display="inline" opacity="0.2">
		<g>
			<line fill="none" stroke="#00FFFF" stroke-miterlimit="10" x1="-468.644" y1="176.816" x2="555.356" y2="176.816"/>
		</g>
		<g>
			<line fill="none" stroke="#00FFFF" stroke-miterlimit="10" x1="-468.644" y1="170.816" x2="555.356" y2="170.816"/>
		</g>
		<g>
			<line fill="none" stroke="#00FFFF" stroke-miterlimit="10" x1="-468.644" y1="164.816" x2="555.356" y2="164.816"/>
		</g>
		<g>
			<line fill="none" stroke="#00FFFF" stroke-miterlimit="10" x1="-468.644" y1="158.816" x2="555.356" y2="158.816"/>
		</g>
		<g>
			<line fill="none" stroke="#00FFFF" stroke-miterlimit="10" x1="-468.644" y1="152.816" x2="555.356" y2="152.816"/>
		</g>
		<g>
			<line fill="none" stroke="#00FFFF" stroke-miterlimit="10" x1="-468.644" y1="146.816" x2="555.356" y2="146.816"/>
		</g>
		<g>
			<line fill="none" stroke="#00FFFF" stroke-miterlimit="10" x1="-468.644" y1="140.816" x2="555.356" y2="140.816"/>
		</g>
		<g>
			<line fill="none" stroke="#00FFFF" stroke-miterlimit="10" x1="-468.644" y1="134.816" x2="555.356" y2="134.816"/>
		</g>
		<g>
			<line fill="none" stroke="#00FFFF" stroke-miterlimit="10" x1="-468.644" y1="128.816" x2="555.356" y2="128.816"/>
		</g>
		<g>
			<line fill="none" stroke="#00FFFF" stroke-miterlimit="10" x1="-468.644" y1="122.816" x2="555.356" y2="122.816"/>
		</g>
		<g>
			<line fill="none" stroke="#00FFFF" stroke-miterlimit="10" x1="-468.644" y1="116.816" x2="555.356" y2="116.816"/>
		</g>
		<g>
			<line fill="none" stroke="#00FFFF" stroke-miterlimit="10" x1="-468.644" y1="110.816" x2="555.356" y2="110.816"/>
		</g>
		<g>
			<line fill="none" stroke="#00FFFF" stroke-miterlimit="10" x1="-468.644" y1="104.816" x2="555.356" y2="104.816"/>
		</g>
		<g>
			<line fill="none" stroke="#00FFFF" stroke-miterlimit="10" x1="-468.644" y1="98.816" x2="555.356" y2="98.816"/>
		</g>
		<g>
			<line fill="none" stroke="#00FFFF" stroke-miterlimit="10" x1="-468.644" y1="92.816" x2="555.356" y2="92.816"/>
		</g>
		<g>
			<line fill="none" stroke="#00FFFF" stroke-miterlimit="10" x1="-468.644" y1="86.816" x2="555.356" y2="86.816"/>
		</g>
		<g>
			<line fill="none" stroke="#00FFFF" stroke-miterlimit="10" x1="-468.644" y1="80.816" x2="555.356" y2="80.816"/>
		</g>
		<g>
			<line fill="none" stroke="#00FFFF" stroke-miterlimit="10" x1="-468.644" y1="74.816" x2="555.356" y2="74.816"/>
		</g>
		<g>
			<line fill="none" stroke="#00FFFF" stroke-miterlimit="10" x1="-468.644" y1="68.816" x2="555.356" y2="68.816"/>
		</g>
		<g>
			<line fill="none" stroke="#00FFFF" stroke-miterlimit="10" x1="-468.644" y1="62.816" x2="555.356" y2="62.816"/>
		</g>
		<g>
			<line fill="none" stroke="#00FFFF" stroke-miterlimit="10" x1="-468.644" y1="56.816" x2="555.356" y2="56.816"/>
		</g>
		<g>
			<line fill="none" stroke="#00FFFF" stroke-miterlimit="10" x1="-468.644" y1="50.816" x2="555.356" y2="50.816"/>
		</g>
		<g>
			<line fill="none" stroke="#00FFFF" stroke-miterlimit="10" x1="-468.644" y1="44.816" x2="555.356" y2="44.816"/>
		</g>
		<g>
			<line fill="none" stroke="#00FFFF" stroke-miterlimit="10" x1="-468.644" y1="38.816" x2="555.356" y2="38.816"/>
		</g>
		<g>
			<line fill="none" stroke="#00FFFF" stroke-miterlimit="10" x1="-468.644" y1="32.816" x2="555.356" y2="32.816"/>
		</g>
		<g>
			<line fill="none" stroke="#00FFFF" stroke-miterlimit="10" x1="-468.644" y1="26.816" x2="555.356" y2="26.816"/>
		</g>
		<g>
			<line fill="none" stroke="#00FFFF" stroke-miterlimit="10" x1="-468.644" y1="20.816" x2="555.356" y2="20.816"/>
		</g>
		<g>
			<line fill="none" stroke="#00FFFF" stroke-miterlimit="10" x1="-468.644" y1="14.816" x2="555.356" y2="14.816"/>
		</g>
		<g>
			<line fill="none" stroke="#00FFFF" stroke-miterlimit="10" x1="-468.644" y1="8.816" x2="555.356" y2="8.816"/>
		</g>
		<g>
			<line fill="none" stroke="#00FFFF" stroke-miterlimit="10" x1="-468.644" y1="2.816" x2="555.356" y2="2.816"/>
		</g>
	</g>
</g>
<g id="Layer_2">
</g>
</svg>
