<?xml version="1.0" encoding="utf-8"?>
<!-- Generator: Adobe Illustrator 18.0.0, SVG Export Plug-In . SVG Version: 6.00 Build 0)  -->
<!DOCTYPE svg PUBLIC "-//W3C//DTD SVG 1.1//EN" "http://www.w3.org/Graphics/SVG/1.1/DTD/svg11.dtd">
<svg version="1.1" xmlns="http://www.w3.org/2000/svg" xmlns:xlink="http://www.w3.org/1999/xlink" x="0px" y="0px"
	 viewBox="0 0 314 270" width="314" height="270"  enable-background="new 0 0 314 270" xml:space="preserve">
<g id="Layer_1">
	<g>
		<g>
			<rect x="64" y="81" fill="#EED2FF" width="82" height="82"/>
		</g>
		<g>
			<rect x="89" y="97" fill="#9855D4" width="32" height="32"/>
		</g>
		<g>
			<rect x="74" y="136" fill="#D7AAFF" width="61" height="9"/>
		</g>
		<g>
			<rect x="66" y="81" fill="#EED2FF" width="82" height="82"/>
		</g>
		<g>
			<rect x="91" y="97" fill="#9855D4" width="32" height="32"/>
		</g>
		<g>
			<rect x="76" y="136" fill="#D7AAFF" width="61" height="12"/>
		</g>
		<g>
			<defs>
				<rect id="SVGID_3_" x="164.1" y="-0.5" width="82.3" height="245.6"/>
			</defs>
			<clipPath id="SVGID_2_">
				<use xlink:href="#SVGID_3_"  overflow="visible"/>
			</clipPath>
			<g clip-path="url(#SVGID_2_)">
				<rect x="159.1" y="-149.4" fill="#464646" width="94.3" height="883.4"/>
			</g>
			<g clip-path="url(#SVGID_2_)">
				<rect x="164.2" fill="#121212" width="82" height="82"/>
			</g>
			<g clip-path="url(#SVGID_2_)">
				<path fill="#FFFFFF" d="M186,57.8c0.7-0.7,1.6-1.1,2.7-1.1c1.4,0,2.5,0.5,3.2,1.4c0.4,0.5,0.6,1.1,0.6,1.6h-1.8
					c-0.1-0.4-0.3-0.7-0.4-0.9c-0.3-0.4-0.8-0.6-1.4-0.6c-0.6,0-1.2,0.3-1.5,0.8s-0.6,1.3-0.6,2.2s0.2,1.7,0.6,2.2s0.9,0.7,1.5,0.7
					c0.6,0,1.1-0.2,1.4-0.6c0.2-0.2,0.3-0.6,0.4-1h1.8c-0.2,0.9-0.5,1.7-1.2,2.3s-1.5,0.9-2.4,0.9c-1.2,0-2.2-0.4-2.9-1.2
					c-0.7-0.8-1.1-1.9-1.1-3.3C184.8,59.8,185.2,58.7,186,57.8z"/>
				<path fill="#FFFFFF" d="M196.2,61.7c0.3,0,0.5-0.1,0.7-0.1c0.2-0.1,0.4-0.3,0.4-0.5c0-0.3-0.1-0.4-0.3-0.5
					c-0.2-0.1-0.5-0.1-0.8-0.1c-0.4,0-0.7,0.1-0.8,0.3c-0.1,0.1-0.2,0.3-0.2,0.6h-1.6c0-0.6,0.2-1,0.5-1.4c0.4-0.6,1.2-0.8,2.3-0.8
					c0.7,0,1.3,0.1,1.9,0.4c0.5,0.3,0.8,0.8,0.8,1.6V64c0,0.2,0,0.4,0,0.7c0,0.2,0,0.4,0.1,0.4s0.1,0.1,0.2,0.2v0.2h-1.8
					c-0.1-0.1-0.1-0.2-0.1-0.4s0-0.2,0-0.4c-0.2,0.2-0.5,0.5-0.8,0.6c-0.4,0.2-0.8,0.3-1.2,0.3c-0.6,0-1.1-0.2-1.4-0.5
					c-0.4-0.3-0.6-0.8-0.6-1.4c0-0.8,0.3-1.4,0.9-1.7c0.3-0.2,0.8-0.3,1.5-0.4L196.2,61.7z M197.2,62.5c-0.1,0.1-0.2,0.1-0.3,0.2
					c-0.1,0-0.3,0.1-0.4,0.1l-0.4,0.1c-0.4,0.1-0.6,0.1-0.8,0.2c-0.3,0.2-0.4,0.4-0.4,0.7c0,0.3,0.1,0.5,0.2,0.6
					c0.2,0.1,0.4,0.2,0.6,0.2c0.4,0,0.7-0.1,1-0.3c0.3-0.2,0.5-0.6,0.5-1.2V62.5z"/>
				<path fill="#FFFFFF" d="M199.7,60.4v-1.2h0.9v-1.8h1.7v1.8h1v1.2h-1v3.4c0,0.3,0,0.4,0.1,0.5s0.3,0.1,0.6,0.1c0.1,0,0.1,0,0.2,0
					s0.1,0,0.2,0v1.2l-0.8,0c-0.8,0-1.3-0.1-1.6-0.4c-0.2-0.2-0.3-0.5-0.3-0.9v-3.9H199.7z"/>
				<path fill="#FFFFFF" d="M206.9,61.7c0.3,0,0.5-0.1,0.7-0.1c0.2-0.1,0.4-0.3,0.4-0.5c0-0.3-0.1-0.4-0.3-0.5
					c-0.2-0.1-0.5-0.1-0.8-0.1c-0.4,0-0.7,0.1-0.8,0.3c-0.1,0.1-0.2,0.3-0.2,0.6h-1.6c0-0.6,0.2-1,0.5-1.4c0.4-0.6,1.2-0.8,2.3-0.8
					c0.7,0,1.3,0.1,1.9,0.4c0.5,0.3,0.8,0.8,0.8,1.6V64c0,0.2,0,0.4,0,0.7c0,0.2,0,0.4,0.1,0.4s0.1,0.1,0.2,0.2v0.2h-1.8
					c-0.1-0.1-0.1-0.2-0.1-0.4s0-0.2,0-0.4c-0.2,0.2-0.5,0.5-0.8,0.6c-0.4,0.2-0.8,0.3-1.2,0.3c-0.6,0-1.1-0.2-1.4-0.5
					c-0.4-0.3-0.6-0.8-0.6-1.4c0-0.8,0.3-1.4,0.9-1.7c0.3-0.2,0.8-0.3,1.5-0.4L206.9,61.7z M207.9,62.5c-0.1,0.1-0.2,0.1-0.3,0.2
					c-0.1,0-0.3,0.1-0.4,0.1l-0.4,0.1c-0.4,0.1-0.6,0.1-0.8,0.2c-0.3,0.2-0.4,0.4-0.4,0.7c0,0.3,0.1,0.5,0.2,0.6
					c0.2,0.1,0.4,0.2,0.6,0.2c0.4,0,0.7-0.1,1-0.3c0.3-0.2,0.5-0.6,0.5-1.2V62.5z"/>
				<path fill="#FFFFFF" d="M212.7,65.6h-1.7v-8.6h1.7V65.6z"/>
				<path fill="#FFFFFF" d="M219.7,64.8c-0.5,0.7-1.4,1-2.5,1s-1.9-0.3-2.5-1s-0.8-1.5-0.8-2.4c0-0.9,0.3-1.7,0.8-2.4
					c0.5-0.7,1.4-1,2.5-1s1.9,0.3,2.5,1c0.5,0.7,0.8,1.5,0.8,2.4C220.5,63.3,220.2,64.1,219.7,64.8z M218.3,63.9
					c0.3-0.3,0.4-0.8,0.4-1.5s-0.1-1.1-0.4-1.5c-0.3-0.3-0.6-0.5-1.1-0.5s-0.9,0.2-1.1,0.5c-0.3,0.3-0.4,0.8-0.4,1.5
					s0.1,1.1,0.4,1.5s0.6,0.5,1.1,0.5S218.1,64.2,218.3,63.9z"/>
				<path fill="#FFFFFF" d="M224.8,59.2c0.4,0.2,0.7,0.5,1,0.9v-0.9h1.6v6.1c0,0.8-0.1,1.4-0.4,1.9c-0.5,0.7-1.4,1.1-2.7,1.1
					c-0.8,0-1.5-0.2-2-0.5s-0.8-0.8-0.9-1.4h1.8c0,0.2,0.1,0.3,0.2,0.4c0.2,0.2,0.5,0.2,0.9,0.2c0.6,0,1-0.2,1.2-0.6
					c0.1-0.3,0.2-0.7,0.2-1.3v-0.4c-0.2,0.3-0.3,0.5-0.5,0.6c-0.3,0.3-0.8,0.4-1.3,0.4c-0.8,0-1.5-0.3-2-0.9s-0.7-1.4-0.7-2.3
					c0-0.9,0.2-1.7,0.7-2.4s1.1-1,2-1C224.3,59,224.6,59.1,224.8,59.2z M225.4,63.8c0.3-0.3,0.4-0.8,0.4-1.4c0-0.6-0.1-1.1-0.4-1.4
					s-0.6-0.5-1-0.5c-0.6,0-1,0.3-1.2,0.8c-0.1,0.3-0.2,0.7-0.2,1.1c0,0.4,0.1,0.7,0.2,1c0.2,0.5,0.6,0.8,1.2,0.8
					C224.8,64.2,225.1,64.1,225.4,63.8z"/>
			</g>
			<g clip-path="url(#SVGID_2_)">
				<path fill="#FFFFFF" d="M192.3,138.9h2l3.1,8.6h-2l-0.6-1.8h-3.2l-0.6,1.8h-1.9L192.3,138.9z M192.2,144.2h2.2l-1.1-3.4
					L192.2,144.2z"/>
				<path fill="#FFFFFF" d="M203.8,141.9c0.5,0.6,0.7,1.4,0.7,2.3c0,1-0.2,1.8-0.7,2.5c-0.5,0.7-1.1,1-2,1c-0.5,0-1-0.1-1.3-0.3
					c-0.2-0.1-0.4-0.3-0.6-0.7v0.8h-1.6v-8.6h1.7v3.1c0.2-0.3,0.4-0.5,0.7-0.7c0.3-0.2,0.7-0.3,1.2-0.3
					C202.7,141,203.3,141.3,203.8,141.9z M202.4,145.8c0.2-0.3,0.4-0.8,0.4-1.4c0-0.5-0.1-0.8-0.2-1.1c-0.2-0.6-0.6-0.8-1.2-0.8
					c-0.6,0-1,0.3-1.3,0.8c-0.1,0.3-0.2,0.7-0.2,1.1c0,0.5,0.1,1,0.4,1.4s0.6,0.5,1.1,0.5C201.8,146.3,202.2,146.1,202.4,145.8z"/>
				<path fill="#FFFFFF" d="M211,146.7c-0.5,0.7-1.4,1-2.5,1s-1.9-0.3-2.5-1s-0.8-1.5-0.8-2.4c0-0.9,0.3-1.7,0.8-2.4
					c0.5-0.7,1.4-1,2.5-1s1.9,0.3,2.5,1c0.5,0.7,0.8,1.5,0.8,2.4C211.8,145.2,211.5,146,211,146.7z M209.7,145.8
					c0.3-0.3,0.4-0.8,0.4-1.5s-0.1-1.1-0.4-1.5c-0.3-0.3-0.6-0.5-1.1-0.5s-0.9,0.2-1.1,0.5c-0.3,0.3-0.4,0.8-0.4,1.5
					s0.1,1.1,0.4,1.5s0.6,0.5,1.1,0.5S209.4,146.1,209.7,145.8z"/>
				<path fill="#FFFFFF" d="M214.7,141.1v3.8c0,0.4,0,0.6,0.1,0.8c0.2,0.3,0.4,0.5,0.9,0.5c0.6,0,1-0.2,1.2-0.7
					c0.1-0.2,0.2-0.6,0.2-1v-3.5h1.7v6.4h-1.6v-0.9c0,0-0.1,0.1-0.1,0.2c-0.1,0.1-0.1,0.2-0.2,0.3c-0.3,0.2-0.5,0.4-0.8,0.5
					s-0.5,0.1-0.9,0.1c-0.9,0-1.6-0.3-1.9-1c-0.2-0.4-0.3-0.9-0.3-1.7v-3.8H214.7z"/>
				<path fill="#FFFFFF" d="M219.7,142.3v-1.2h0.9v-1.8h1.7v1.8h1v1.2h-1v3.4c0,0.3,0,0.4,0.1,0.5s0.3,0.1,0.6,0.1
					c0.1,0,0.1,0,0.2,0s0.1,0,0.2,0v1.2l-0.8,0c-0.8,0-1.3-0.1-1.6-0.4c-0.2-0.2-0.3-0.5-0.3-0.9v-3.9H219.7z"/>
			</g>
			<g clip-path="url(#SVGID_2_)">
				<path fill="#FFFFFF" d="M183.8,226.1c0.1,0.4,0.2,0.7,0.3,0.9c0.3,0.4,0.8,0.5,1.5,0.5c0.4,0,0.8,0,1.1-0.1
					c0.5-0.2,0.8-0.5,0.8-1c0-0.3-0.1-0.5-0.4-0.7c-0.3-0.2-0.7-0.3-1.2-0.4l-0.9-0.2c-0.9-0.2-1.6-0.4-1.9-0.7
					c-0.6-0.4-0.9-1-0.9-1.9c0-0.8,0.3-1.4,0.9-1.9c0.6-0.5,1.4-0.8,2.5-0.8c0.9,0,1.7,0.2,2.4,0.7s1,1.2,1,2.1h-1.7
					c0-0.5-0.3-0.9-0.7-1.1c-0.3-0.1-0.6-0.2-1.1-0.2c-0.5,0-0.9,0.1-1.1,0.3s-0.4,0.4-0.4,0.8c0,0.3,0.1,0.5,0.4,0.7
					c0.2,0.1,0.6,0.2,1.1,0.4l1.5,0.4c0.7,0.2,1.2,0.4,1.5,0.6c0.5,0.4,0.8,1,0.8,1.8c0,0.8-0.3,1.4-0.9,2s-1.5,0.8-2.6,0.8
					c-1.1,0-2-0.3-2.7-0.8c-0.7-0.5-1-1.2-1-2.1H183.8z"/>
				<path fill="#FFFFFF" d="M194.5,222.6c0.4,0.2,0.8,0.5,1.1,0.9c0.3,0.4,0.4,0.8,0.5,1.3c0,0.3,0.1,0.7,0.1,1.3h-4.7
					c0,0.6,0.2,1.1,0.7,1.3c0.3,0.2,0.6,0.2,0.9,0.2c0.4,0,0.7-0.1,0.9-0.3c0.1-0.1,0.2-0.3,0.3-0.4h1.7c0,0.4-0.3,0.8-0.6,1.2
					c-0.6,0.6-1.4,0.9-2.4,0.9c-0.9,0-1.6-0.3-2.2-0.8s-1-1.4-1-2.6c0-1.1,0.3-2,0.9-2.5s1.3-0.9,2.3-0.9
					C193.5,222.3,194,222.4,194.5,222.6z M192,224c-0.2,0.2-0.4,0.6-0.4,1h2.9c0-0.4-0.2-0.8-0.4-1c-0.3-0.2-0.6-0.3-1-0.3
					C192.6,223.6,192.2,223.8,192,224z"/>
				<path fill="#FFFFFF" d="M200.6,222.3c0,0,0.1,0,0.1,0v1.7c-0.1,0-0.2,0-0.3,0s-0.1,0-0.2,0c-0.7,0-1.1,0.2-1.4,0.7
					c-0.1,0.2-0.2,0.6-0.2,1.1v3.1H197v-6.4h1.6v1.1c0.3-0.4,0.5-0.7,0.7-0.9C199.6,222.4,200,222.3,200.6,222.3
					C200.5,222.3,200.5,222.3,200.6,222.3z"/>
				<path fill="#FFFFFF" d="M205.6,222.4h1.8l-2.3,6.4h-1.8l-2.3-6.4h1.9l1.3,4.7L205.6,222.4z"/>
				<path fill="#FFFFFF" d="M210.1,221.7h-1.7v-1.5h1.7V221.7z M208.4,222.4h1.7v6.4h-1.7V222.4z"/>
				<path fill="#FFFFFF" d="M215.5,224.7c0-0.2-0.1-0.5-0.2-0.6c-0.2-0.3-0.5-0.4-0.9-0.4c-0.6,0-0.9,0.3-1.2,0.8
					c-0.1,0.3-0.2,0.7-0.2,1.2c0,0.5,0.1,0.8,0.2,1.1c0.2,0.5,0.6,0.8,1.1,0.8c0.4,0,0.7-0.1,0.8-0.3c0.2-0.2,0.3-0.5,0.3-0.8h1.7
					c0,0.5-0.2,1-0.6,1.4c-0.5,0.7-1.3,1.1-2.3,1.1s-1.8-0.3-2.3-0.9c-0.5-0.6-0.7-1.4-0.7-2.4c0-1.1,0.3-1.9,0.8-2.6
					c0.5-0.6,1.3-0.9,2.2-0.9c0.8,0,1.5,0.2,2,0.5c0.5,0.4,0.8,1,0.9,1.9H215.5z"/>
				<path fill="#FFFFFF" d="M222.5,222.6c0.4,0.2,0.8,0.5,1.1,0.9c0.3,0.4,0.4,0.8,0.5,1.3c0,0.3,0.1,0.7,0.1,1.3h-4.7
					c0,0.6,0.2,1.1,0.7,1.3c0.3,0.2,0.6,0.2,0.9,0.2c0.4,0,0.7-0.1,0.9-0.3c0.1-0.1,0.2-0.3,0.3-0.4h1.7c0,0.4-0.3,0.8-0.6,1.2
					c-0.6,0.6-1.4,0.9-2.4,0.9c-0.9,0-1.6-0.3-2.2-0.8s-1-1.4-1-2.6c0-1.1,0.3-2,0.9-2.5s1.3-0.9,2.3-0.9
					C221.6,222.3,222.1,222.4,222.5,222.6z M220,224c-0.2,0.2-0.4,0.6-0.4,1h2.9c0-0.4-0.2-0.8-0.4-1c-0.3-0.2-0.6-0.3-1-0.3
					C220.6,223.6,220.3,223.8,220,224z"/>
				<path fill="#FFFFFF" d="M226.3,226.8c0,0.3,0.1,0.5,0.2,0.6c0.2,0.2,0.6,0.3,1.2,0.3c0.3,0,0.6,0,0.8-0.1s0.3-0.2,0.3-0.4
					c0-0.2-0.1-0.3-0.2-0.4c-0.2-0.1-0.7-0.3-1.7-0.5c-0.7-0.2-1.2-0.4-1.5-0.7c-0.3-0.3-0.4-0.6-0.4-1.1c0-0.6,0.2-1.1,0.7-1.5
					c0.5-0.4,1.1-0.6,2-0.6c0.8,0,1.4,0.2,2,0.5s0.8,0.9,0.9,1.6h-1.7c0-0.2-0.1-0.4-0.2-0.5c-0.2-0.2-0.5-0.3-0.9-0.3
					c-0.4,0-0.6,0.1-0.8,0.2c-0.2,0.1-0.2,0.2-0.2,0.4c0,0.2,0.1,0.3,0.2,0.4c0.2,0.1,0.7,0.2,1.7,0.5c0.7,0.2,1.2,0.4,1.5,0.7
					c0.3,0.3,0.5,0.7,0.5,1.2c0,0.6-0.2,1.1-0.7,1.5c-0.5,0.4-1.2,0.6-2.2,0.6c-1,0-1.7-0.2-2.2-0.6s-0.7-1-0.7-1.6H226.3z"/>
			</g>
			<g clip-path="url(#SVGID_2_)">
				<path fill="#FFFFFF" d="M212.2,15.7c-2.4,0-4.8,1.2-6,2.4c-1.2-1.2-3.6-2.4-6-2.4h-9.5v28.6h9.5c2.4,0,4.8,1.2,6,2.4
					c1.2-1.2,3.6-2.4,6-2.4h9.5V15.7H212.2z M206.2,43.7c-1.6-1-3.7-1.8-6-1.8h-7.2V18h7.2c1.6,0,3.4,0.9,4.3,1.7l1.7,1.7V43.7z
					 M218.2,35.9h-8.3v-1.2h8.3V35.9z M218.2,32.4h-8.3v-1.2h8.3V32.4z M218.2,28.8h-8.3v-1.2h8.3V28.8z M218.2,25.2h-8.3V24h8.3
					V25.2z"/>
			</g>
			<g clip-path="url(#SVGID_2_)">
				<g>
					<polygon fill="#FFFFFF" points="208.4,110.6 201.9,110.6 201.9,112.7 204.1,112.7 204.1,119.2 201.9,119.2 201.9,121.3
						210.5,121.3 210.5,119.2 208.4,119.2 					"/>
				</g>
				<g>
					<circle fill="#FFFFFF" cx="206.2" cy="106.3" r="2.1"/>
				</g>
				<g>
					<path fill="#FFFFFF" d="M206.2,97.7c-8.3,0-15,6.7-15,15s6.7,15,15,15s15-6.7,15-15S214.5,97.7,206.2,97.7z M206.2,125.6
						c-7.1,0-12.9-5.8-12.9-12.9c0-7.1,5.8-12.9,12.9-12.9s12.9,5.8,12.9,12.9C219.1,119.8,213.3,125.6,206.2,125.6z"/>
				</g>
			</g>
			<g clip-path="url(#SVGID_2_)">
				<path fill="#FFFFFF" d="M198,178.6h-4.1v31h4.1h20.7v-31H198z M216.6,207.6H200v-26.9h6.2v14.5l4.1-4.1l4.1,4.1v-14.5h2.1V207.6
					z"/>
			</g>
		</g>
		<g>
			<rect x="65" y="184" fill="#9855D4" width="83" height="1"/>
		</g>
		<g>
			<rect x="64" y="178" fill="#9855D4" width="1" height="14"/>
		</g>
		<line fill="none" stroke="#9855D4" stroke-miterlimit="10" x1="148.5" y1="192" x2="148.5" y2="178"/>
		<g>
			<rect x="164" y="262" fill="#9855D4" width="83" height="1"/>
		</g>
		<line fill="none" stroke="#9855D4" stroke-miterlimit="10" x1="163.5" y1="270" x2="163.5" y2="256"/>
		<g>
			<rect x="247" y="256" fill="#9855D4" width="1" height="14"/>
		</g>
		<g>
			<path fill="#FFFFFF" d="M102.2,111.2c0.3,0,0.5-0.1,0.8-0.2c0.2-0.1,0.4-0.2,0.6-0.4s0.2-0.4,0.2-0.8c0-0.5-0.2-0.8-0.5-1.1
				c-0.3-0.3-0.7-0.4-1.1-0.4c-0.6,0-1,0.2-1.3,0.6c-0.3,0.4-0.4,0.9-0.4,1.4h-2.2c0-0.6,0.1-1.1,0.3-1.6s0.4-0.9,0.8-1.2
				s0.7-0.6,1.2-0.8c0.5-0.2,1-0.3,1.6-0.3c0.4,0,0.9,0.1,1.3,0.2c0.4,0.1,0.9,0.3,1.2,0.6c0.4,0.3,0.6,0.6,0.9,1
				c0.2,0.4,0.3,0.8,0.3,1.3c0,0.5-0.1,1-0.4,1.4s-0.7,0.7-1.2,0.8v0c0.6,0.1,1.1,0.4,1.5,0.9c0.4,0.5,0.5,1,0.5,1.6
				c0,0.6-0.1,1.1-0.3,1.6c-0.2,0.5-0.5,0.8-0.9,1.2s-0.8,0.5-1.3,0.7c-0.5,0.2-1,0.2-1.6,0.2c-0.6,0-1.2-0.1-1.7-0.3
				c-0.5-0.2-1-0.4-1.3-0.8c-0.4-0.3-0.6-0.8-0.8-1.3c-0.2-0.5-0.3-1.1-0.3-1.7h2.2c0,0.3,0.1,0.6,0.1,0.9c0.1,0.3,0.2,0.5,0.4,0.7
				s0.4,0.4,0.6,0.5c0.2,0.1,0.5,0.2,0.9,0.2c0.5,0,0.9-0.2,1.3-0.5c0.4-0.3,0.5-0.7,0.5-1.3c0-0.4-0.1-0.8-0.2-1
				c-0.2-0.2-0.4-0.4-0.6-0.5c-0.3-0.1-0.5-0.2-0.8-0.2c-0.3,0-0.6,0-0.9,0v-1.6C101.6,111.2,101.9,111.2,102.2,111.2z"/>
			<path fill="#FFFFFF" d="M107.4,109.2c0.2-0.5,0.4-1,0.8-1.4c0.3-0.4,0.8-0.7,1.3-1c0.5-0.2,1.1-0.3,1.8-0.3c0.5,0,1,0.1,1.5,0.2
				s0.9,0.4,1.2,0.7c0.4,0.3,0.6,0.7,0.8,1.1c0.2,0.4,0.3,0.9,0.3,1.5c0,0.6-0.1,1.1-0.3,1.5c-0.2,0.4-0.4,0.8-0.7,1.1
				c-0.3,0.3-0.6,0.6-1,0.9c-0.4,0.3-0.8,0.5-1.1,0.8c-0.4,0.3-0.8,0.5-1.1,0.8c-0.4,0.3-0.7,0.6-1,1h5.3v2H107
				c0-0.7,0.1-1.2,0.3-1.7s0.4-0.9,0.8-1.3s0.7-0.7,1.1-1c0.4-0.3,0.9-0.6,1.4-1c0.2-0.2,0.5-0.3,0.8-0.5c0.3-0.2,0.5-0.4,0.8-0.6
				s0.4-0.5,0.6-0.7c0.2-0.3,0.2-0.6,0.2-0.9c0-0.5-0.2-1-0.5-1.3c-0.3-0.3-0.7-0.5-1.2-0.5c-0.3,0-0.6,0.1-0.8,0.2
				c-0.2,0.2-0.4,0.4-0.6,0.6c-0.1,0.3-0.2,0.5-0.3,0.8c-0.1,0.3-0.1,0.6-0.1,0.9h-2.2C107.2,110.3,107.3,109.7,107.4,109.2z"/>
		</g>
		<g>
			<path fill="#323232" d="M89.9,196.9c0.2-0.4,0.5-0.7,0.9-1c0.4-0.3,0.8-0.4,1.2-0.6c0.4-0.1,0.9-0.2,1.4-0.2
				c0.7,0,1.3,0.1,1.8,0.3c0.5,0.2,0.9,0.5,1.2,0.8c0.3,0.3,0.5,0.6,0.6,1s0.2,0.7,0.2,0.9c0,0.6-0.1,1-0.4,1.5
				c-0.3,0.4-0.7,0.7-1.2,0.9v0c0.7,0.1,1.2,0.5,1.6,1s0.5,1.1,0.5,1.8c0,0.6-0.1,1.1-0.4,1.6c-0.2,0.4-0.6,0.8-1,1.1
				c-0.4,0.3-0.8,0.5-1.3,0.6c-0.5,0.1-1,0.2-1.5,0.2c-0.5,0-1.1-0.1-1.6-0.2c-0.5-0.1-1-0.3-1.4-0.6s-0.7-0.7-1-1.1s-0.4-1-0.4-1.6
				c0-0.7,0.2-1.3,0.6-1.8c0.4-0.5,0.9-0.8,1.6-1v0c-0.5-0.1-1-0.4-1.2-0.8s-0.4-0.9-0.4-1.5C89.5,197.7,89.6,197.3,89.9,196.9z
				 M91.5,204c0.1,0.2,0.2,0.4,0.4,0.6s0.4,0.3,0.6,0.4c0.2,0.1,0.5,0.1,0.8,0.1c0.3,0,0.5,0,0.8-0.1c0.2-0.1,0.4-0.2,0.6-0.4
				c0.2-0.2,0.3-0.4,0.4-0.6c0.1-0.2,0.1-0.5,0.1-0.8c0-0.3-0.1-0.5-0.2-0.7c-0.1-0.2-0.2-0.4-0.4-0.6c-0.2-0.2-0.4-0.3-0.6-0.4
				s-0.5-0.1-0.7-0.1c-0.6,0-1,0.2-1.4,0.5c-0.4,0.3-0.6,0.7-0.6,1.3C91.3,203.5,91.4,203.8,91.5,204z M92.1,199.6
				c0.3,0.3,0.7,0.4,1.2,0.4c0.5,0,0.9-0.1,1.2-0.4s0.5-0.6,0.5-1.1c0-0.1,0-0.3-0.1-0.5c0-0.2-0.1-0.3-0.2-0.5
				c-0.1-0.2-0.3-0.3-0.5-0.4c-0.2-0.1-0.5-0.2-0.9-0.2c-0.2,0-0.4,0-0.6,0.1s-0.4,0.2-0.6,0.3s-0.3,0.3-0.4,0.5s-0.1,0.4-0.1,0.7
				C91.6,198.9,91.8,199.3,92.1,199.6z"/>
			<path fill="#323232" d="M98.6,197.9c0.2-0.5,0.4-1,0.8-1.4c0.3-0.4,0.8-0.7,1.3-1c0.5-0.2,1.1-0.3,1.8-0.3c0.5,0,1,0.1,1.5,0.2
				s0.9,0.4,1.2,0.7c0.4,0.3,0.6,0.7,0.8,1.1c0.2,0.4,0.3,0.9,0.3,1.5c0,0.6-0.1,1.1-0.3,1.5c-0.2,0.4-0.4,0.8-0.7,1.1
				c-0.3,0.3-0.6,0.6-1,0.9c-0.4,0.3-0.8,0.5-1.1,0.8c-0.4,0.3-0.8,0.5-1.1,0.8c-0.4,0.3-0.7,0.6-1,1h5.3v2h-8.2
				c0-0.7,0.1-1.2,0.3-1.7s0.4-0.9,0.8-1.3s0.7-0.7,1.1-1c0.4-0.3,0.9-0.6,1.4-1c0.2-0.2,0.5-0.3,0.8-0.5c0.3-0.2,0.5-0.4,0.8-0.6
				s0.4-0.5,0.6-0.7c0.2-0.3,0.2-0.6,0.2-0.9c0-0.5-0.2-1-0.5-1.3c-0.3-0.3-0.7-0.5-1.2-0.5c-0.3,0-0.6,0.1-0.8,0.2
				c-0.2,0.2-0.4,0.4-0.6,0.6c-0.1,0.3-0.2,0.5-0.3,0.8c-0.1,0.3-0.1,0.6-0.1,0.9h-2.2C98.3,199.1,98.4,198.5,98.6,197.9z"/>
			<path fill="#323232" d="M109.1,198.3v1.1h0c0.2-0.5,0.6-0.8,1.1-1c0.5-0.2,1-0.3,1.6-0.3c0.6,0,1.2,0.1,1.7,0.4
				c0.5,0.2,0.9,0.6,1.2,1c0.3,0.4,0.6,0.9,0.7,1.4s0.2,1.1,0.2,1.7c0,0.6-0.1,1.1-0.2,1.7c-0.2,0.5-0.4,1-0.7,1.4
				c-0.3,0.4-0.7,0.7-1.2,0.9c-0.5,0.2-1,0.3-1.7,0.3c-0.2,0-0.4,0-0.7-0.1c-0.3,0-0.5-0.1-0.7-0.2c-0.2-0.1-0.5-0.2-0.7-0.4
				s-0.4-0.4-0.6-0.6h0v4.3h-1.4v-11.4H109.1z M114,201.3c-0.1-0.4-0.3-0.7-0.5-1c-0.2-0.3-0.5-0.5-0.8-0.7
				c-0.3-0.2-0.7-0.3-1.1-0.3c-0.5,0-0.8,0.1-1.2,0.3c-0.3,0.2-0.6,0.4-0.8,0.7c-0.2,0.3-0.3,0.6-0.4,1c-0.1,0.4-0.1,0.8-0.1,1.1
				c0,0.4,0,0.8,0.1,1.2c0.1,0.4,0.2,0.7,0.5,1c0.2,0.3,0.5,0.5,0.8,0.7c0.3,0.2,0.7,0.3,1.2,0.3c0.5,0,0.9-0.1,1.2-0.3
				c0.3-0.2,0.6-0.4,0.8-0.7c0.2-0.3,0.3-0.6,0.4-1c0.1-0.4,0.1-0.8,0.1-1.2C114.1,202,114.1,201.6,114,201.3z"/>
			<path fill="#323232" d="M116.5,198.3h1.7l2,2.9l2.1-2.9h1.6l-2.8,3.8l3.2,4.5h-1.7l-2.3-3.4l-2.3,3.4h-1.6l3.1-4.4L116.5,198.3z"
				/>
		</g>
	</g>
	<g>
		<defs>
			<rect id="SVGID_5_" x="359.3" y="97.2" width="245.6" height="82.3"/>
		</defs>
		<clipPath id="SVGID_4_">
			<use xlink:href="#SVGID_5_"  overflow="visible"/>
		</clipPath>
		<g clip-path="url(#SVGID_4_)">
			<rect x="210.3" y="90.2" fill="#464646" width="883.4" height="94.3"/>
		</g>
	</g>
</g>
<g id="Layer_2" display="none">
	<rect x="-1" y="-5433" display="inline" opacity="8.000000e-02" fill="#00FFFF" width="60" height="10691.6"/>
	<rect x="83" y="-5433" display="inline" opacity="8.000000e-02" fill="#00FFFF" width="60" height="10691.6"/>
	<rect x="167" y="-5433" display="inline" opacity="8.000000e-02" fill="#00FFFF" width="60" height="10691.6"/>
	<rect x="251" y="-5433" display="inline" opacity="8.000000e-02" fill="#00FFFF" width="60" height="10691.6"/>
</g>
</svg>
