<?xml version="1.0" encoding="utf-8"?>
<!-- Generator: Adobe Illustrator 18.0.0, SVG Export Plug-In . SVG Version: 6.00 Build 0)  -->
<!DOCTYPE svg PUBLIC "-//W3C//DTD SVG 1.1//EN" "http://www.w3.org/Graphics/SVG/1.1/DTD/svg11.dtd">
<svg version="1.1" id="Layer_1" xmlns="http://www.w3.org/2000/svg" xmlns:xlink="http://www.w3.org/1999/xlink" x="0px" y="0px"
	 viewBox="0 0 548.3 144.9" width="548.3" height="144.9"  enable-background="new 0 0 548.3 144.9" xml:space="preserve">
<g>
	<g>
		<path d="M534.1,37.2c-8.7-8.7-20.7-14.1-33.9-14.1c-13.3,0-25.3,5.4-33.9,14.1c-8.7,8.7-14.1,20.7-14.1,33.9
			c0,14,5.4,26.7,14.1,35.9l33.9,36.1l33.9-36.1c8.7-9.2,14.1-21.9,14.1-35.9C548.2,57.9,542.8,45.9,534.1,37.2z M531.2,104.3
			l-31,33l-31-33c-8.4-8.9-13-20.6-13-33.2c0-11.8,4.6-22.8,12.9-31.1c8.3-8.3,19.4-12.9,31.1-12.9c11.8,0,22.8,4.6,31.1,12.9
			c8.3,8.3,12.9,19.4,12.9,31.1C544.2,83.7,539.6,95.5,531.2,104.3z"/>
	</g>
	<g>
		<circle cx="500.2" cy="71.1" r="16"/>
	</g>
</g>
<g>
	<path fill="#9855D4" d="M361,89.1c-9.9,0-18-8.1-18-18s8.1-18,18-18s18,8.1,18,18S370.9,89.1,361,89.1z M361,57.1
		c-7.7,0-14,6.3-14,14s6.3,14,14,14s14-6.3,14-14S368.7,57.1,361,57.1z"/>
</g>
<g>
	<path fill="#323232" d="M361.5,144.9l-72.1-72.1l72.1-72.1l72.1,72.1L361.5,144.9z M295,72.7l66.5,66.5L428,72.7L361.5,6.3
		L295,72.7z"/>
</g>
<g>
	<path fill="#9855D4" d="M203.2,144.9l-72.1-72.1l72.1-72.1l72.1,72.1L203.2,144.9z M136.8,72.7l66.5,66.5l66.5-66.5L203.2,6.3
		L136.8,72.7z"/>
</g>
<g>
	<path fill="#9855D4" d="M50.4,124C22.6,124,0,101.4,0,73.6s22.6-50.4,50.4-50.4s50.4,22.6,50.4,50.4S78.2,124,50.4,124z M50.4,27.1
		C24.8,27.1,4,48,4,73.6S24.8,120,50.4,120c25.6,0,46.4-20.8,46.4-46.4S76,27.1,50.4,27.1z"/>
</g>
<g>
	<polygon fill="#C7C7C7" points="397.8,108.6 395,105.7 428,72.7 361.5,6.3 295,72.7 325.8,103.5 322.9,106.3 289.4,72.7 361.5,0.6
		433.6,72.7 	"/>
</g>
<g>
	<path fill="#323232" d="M361.2,124c-28.1,0-50.9-22.9-50.9-50.9s22.9-50.9,50.9-50.9s50.9,22.9,50.9,50.9S389.3,124,361.2,124z
		 M361.2,26.1c-25.9,0-46.9,21.1-46.9,46.9s21.1,46.9,46.9,46.9s46.9-21.1,46.9-46.9S387.1,26.1,361.2,26.1z"/>
</g>
<g>
	<path fill="#323232" d="M203.2,123.9c-28.1,0-50.9-22.9-50.9-50.9S175.2,22,203.2,22s50.9,22.9,50.9,50.9S231.3,123.9,203.2,123.9z
		 M203.2,26c-25.9,0-46.9,21.1-46.9,46.9s21.1,46.9,46.9,46.9s46.9-21.1,46.9-46.9S229.1,26,203.2,26z"/>
</g>
</svg>
