<?xml version="1.0" encoding="utf-8"?>
<!-- Generator: Adobe Illustrator 17.1.0, SVG Export Plug-In . SVG Version: 6.00 Build 0)  -->
<!DOCTYPE svg PUBLIC "-//W3C//DTD SVG 1.1//EN" "http://www.w3.org/Graphics/SVG/1.1/DTD/svg11.dtd">
<svg version="1.1" xmlns="http://www.w3.org/2000/svg" xmlns:xlink="http://www.w3.org/1999/xlink" x="0px" y="0px"
	 viewBox="0 0 257 257" width="257" height="257"  enable-background="new 0 0 257 257" xml:space="preserve">
<g id="Layer_1">
	<g>
		<g>
			<rect x="1" y="251.93" fill="#ECECEC" width="256" height="1"/>
		</g>
		<g>
			<rect x="1" y="247.93" fill="#ECECEC" width="256" height="1"/>
		</g>
		<g>
			<rect x="1" y="243.93" fill="#ECECEC" width="256" height="1"/>
		</g>
		<g>
			<rect x="1" y="239.93" fill="#ECECEC" width="256" height="1"/>
		</g>
		<g>
			<rect x="1" y="235.93" fill="#ECECEC" width="256" height="1"/>
		</g>
		<g>
			<rect x="1" y="231.93" fill="#ECECEC" width="256" height="1"/>
		</g>
		<g>
			<rect x="1" y="227.93" fill="#ECECEC" width="256" height="1"/>
		</g>
		<g>
			<rect x="1" y="224.93" fill="#ECECEC" width="256" height="1"/>
		</g>
		<g>
			<rect x="1" y="220.93" fill="#ECECEC" width="256" height="1"/>
		</g>
		<g>
			<rect x="1" y="216.93" fill="#ECECEC" width="256" height="1"/>
		</g>
		<g>
			<rect x="1" y="212.93" fill="#ECECEC" width="256" height="1"/>
		</g>
		<g>
			<rect x="1" y="208.93" fill="#ECECEC" width="256" height="1"/>
		</g>
		<g>
			<rect x="1" y="204.93" fill="#ECECEC" width="256" height="1"/>
		</g>
		<g>
			<rect x="1" y="200.93" fill="#ECECEC" width="256" height="1"/>
		</g>
		<g>
			<rect x="1" y="196.93" fill="#ECECEC" width="256" height="1"/>
		</g>
		<g>
			<rect x="1" y="192.93" fill="#ECECEC" width="256" height="1"/>
		</g>
		<g>
			<rect x="1" y="188.93" fill="#ECECEC" width="256" height="1"/>
		</g>
		<g>
			<rect x="1" y="184.93" fill="#ECECEC" width="256" height="1"/>
		</g>
		<g>
			<rect x="1" y="180.93" fill="#ECECEC" width="256" height="1"/>
		</g>
		<g>
			<rect x="1" y="176.93" fill="#ECECEC" width="256" height="1"/>
		</g>
		<g>
			<rect x="1" y="172.93" fill="#ECECEC" width="256" height="1"/>
		</g>
		<g>
			<rect x="1" y="168.93" fill="#ECECEC" width="256" height="1"/>
		</g>
		<g>
			<rect x="1" y="164.93" fill="#ECECEC" width="256" height="1"/>
		</g>
		<g>
			<rect x="1" y="161.93" fill="#ECECEC" width="256" height="1"/>
		</g>
		<g>
			<rect x="1" y="157.93" fill="#ECECEC" width="256" height="1"/>
		</g>
		<g>
			<rect x="1" y="153.93" fill="#ECECEC" width="256" height="1"/>
		</g>
		<g>
			<rect x="1" y="149.93" fill="#ECECEC" width="256" height="1"/>
		</g>
		<g>
			<rect x="1" y="145.93" fill="#ECECEC" width="256" height="1"/>
		</g>
		<g>
			<rect x="1" y="141.93" fill="#ECECEC" width="256" height="1"/>
		</g>
		<g>
			<rect x="1" y="137.93" fill="#ECECEC" width="256" height="1"/>
		</g>
		<g>
			<rect x="1" y="133.93" fill="#ECECEC" width="256" height="1"/>
		</g>
		<g>
			<rect x="1" y="129.93" fill="#ECECEC" width="256" height="1"/>
		</g>
		<g>
			<rect x="1" y="125.93" fill="#ECECEC" width="256" height="1"/>
		</g>
		<g>
			<rect x="1" y="121.93" fill="#ECECEC" width="256" height="1"/>
		</g>
		<g>
			<rect x="1" y="117.93" fill="#ECECEC" width="256" height="1"/>
		</g>
		<g>
			<rect x="1" y="113.93" fill="#ECECEC" width="256" height="1"/>
		</g>
		<g>
			<rect x="1" y="109.93" fill="#ECECEC" width="256" height="1"/>
		</g>
		<g>
			<rect x="1" y="105.93" fill="#ECECEC" width="256" height="1"/>
		</g>
		<g>
			<rect x="1" y="101.93" fill="#ECECEC" width="256" height="1"/>
		</g>
		<g>
			<rect x="1" y="98.93" fill="#ECECEC" width="256" height="1"/>
		</g>
		<g>
			<rect x="1" y="94.93" fill="#ECECEC" width="256" height="1"/>
		</g>
		<g>
			<rect x="1" y="90.93" fill="#ECECEC" width="256" height="1"/>
		</g>
		<g>
			<rect x="1" y="86.93" fill="#ECECEC" width="256" height="1"/>
		</g>
		<g>
			<rect x="1" y="82.93" fill="#ECECEC" width="256" height="1"/>
		</g>
		<g>
			<rect x="1" y="78.93" fill="#ECECEC" width="256" height="1"/>
		</g>
		<g>
			<rect x="1" y="74.93" fill="#ECECEC" width="256" height="1"/>
		</g>
		<g>
			<rect x="1" y="70.93" fill="#ECECEC" width="256" height="1"/>
		</g>
		<g>
			<rect x="1" y="66.93" fill="#ECECEC" width="256" height="1"/>
		</g>
		<g>
			<rect x="1" y="62.93" fill="#ECECEC" width="256" height="1"/>
		</g>
		<g>
			<rect x="1" y="58.93" fill="#ECECEC" width="256" height="1"/>
		</g>
		<g>
			<rect x="1" y="54.93" fill="#ECECEC" width="256" height="1"/>
		</g>
		<g>
			<rect x="1" y="50.93" fill="#ECECEC" width="256" height="1"/>
		</g>
		<g>
			<rect x="1" y="46.93" fill="#ECECEC" width="256" height="1"/>
		</g>
		<g>
			<rect x="1" y="42.93" fill="#ECECEC" width="256" height="1"/>
		</g>
		<g>
			<rect x="1" y="38.93" fill="#ECECEC" width="256" height="1"/>
		</g>
		<g>
			<rect x="1" y="35.93" fill="#ECECEC" width="256" height="1"/>
		</g>
		<g>
			<rect x="1" y="31.93" fill="#ECECEC" width="256" height="1"/>
		</g>
		<g>
			<rect x="1" y="27.93" fill="#ECECEC" width="256" height="1"/>
		</g>
		<g>
			<rect x="1" y="23.93" fill="#ECECEC" width="256" height="1"/>
		</g>
		<g>
			<rect x="1" y="19.93" fill="#ECECEC" width="256" height="1"/>
		</g>
		<g>
			<rect x="1" y="15.93" fill="#ECECEC" width="256" height="1"/>
		</g>
		<g>
			<rect x="1" y="11.93" fill="#ECECEC" width="256" height="1"/>
		</g>
		<g>
			<rect x="1" y="7.93" fill="#ECECEC" width="256" height="1"/>
		</g>
		<g>
			<rect x="1" y="3.93" fill="#ECECEC" width="256" height="1"/>
		</g>
		<g>
			<rect x="253" y="0.93" fill="#ECECEC" width="1" height="256"/>
		</g>
		<g>
			<rect x="249" y="0.93" fill="#ECECEC" width="1" height="256"/>
		</g>
		<g>
			<rect x="245" y="0.93" fill="#ECECEC" width="1" height="256"/>
		</g>
		<g>
			<rect x="241" y="0.93" fill="#ECECEC" width="1" height="256"/>
		</g>
		<g>
			<rect x="237" y="0.93" fill="#ECECEC" width="1" height="256"/>
		</g>
		<g>
			<rect x="233" y="0.93" fill="#ECECEC" width="1" height="256"/>
		</g>
		<g>
			<rect x="229" y="0.93" fill="#ECECEC" width="1" height="256"/>
		</g>
		<g>
			<rect x="225" y="0.93" fill="#ECECEC" width="1" height="256"/>
		</g>
		<g>
			<rect x="221" y="0.93" fill="#ECECEC" width="1" height="256"/>
		</g>
		<g>
			<rect x="217" y="0.93" fill="#ECECEC" width="1" height="256"/>
		</g>
		<g>
			<rect x="213" y="0.93" fill="#ECECEC" width="1" height="256"/>
		</g>
		<g>
			<rect x="209" y="0.93" fill="#ECECEC" width="1" height="256"/>
		</g>
		<g>
			<rect x="205" y="0.93" fill="#ECECEC" width="1" height="256"/>
		</g>
		<g>
			<rect x="201" y="0.93" fill="#ECECEC" width="1" height="256"/>
		</g>
		<g>
			<rect x="197" y="0.93" fill="#ECECEC" width="1" height="256"/>
		</g>
		<g>
			<rect x="193" y="0.93" fill="#ECECEC" width="1" height="256"/>
		</g>
		<g>
			<rect x="190" y="0.93" fill="#ECECEC" width="1" height="256"/>
		</g>
		<g>
			<rect x="186" y="0.93" fill="#ECECEC" width="1" height="256"/>
		</g>
		<g>
			<rect x="182" y="0.93" fill="#ECECEC" width="1" height="256"/>
		</g>
		<g>
			<rect x="178" y="0.93" fill="#ECECEC" width="1" height="256"/>
		</g>
		<g>
			<rect x="174" y="0.93" fill="#ECECEC" width="1" height="256"/>
		</g>
		<g>
			<rect x="170" y="0.93" fill="#ECECEC" width="1" height="256"/>
		</g>
		<g>
			<rect x="166" y="0.93" fill="#ECECEC" width="1" height="256"/>
		</g>
		<g>
			<rect x="162" y="0.93" fill="#ECECEC" width="1" height="256"/>
		</g>
		<g>
			<rect x="158" y="0.93" fill="#ECECEC" width="1" height="256"/>
		</g>
		<g>
			<rect x="154" y="0.93" fill="#ECECEC" width="1" height="256"/>
		</g>
		<g>
			<rect x="150" y="0.93" fill="#ECECEC" width="1" height="256"/>
		</g>
		<g>
			<rect x="146" y="0.93" fill="#ECECEC" width="1" height="256"/>
		</g>
		<g>
			<rect x="142" y="0.93" fill="#ECECEC" width="1" height="256"/>
		</g>
		<g>
			<rect x="138" y="0.93" fill="#ECECEC" width="1" height="256"/>
		</g>
		<g>
			<rect x="134" y="0.93" fill="#ECECEC" width="1" height="256"/>
		</g>
		<g>
			<rect x="130" y="0.93" fill="#ECECEC" width="1" height="256"/>
		</g>
		<g>
			<rect x="127" y="0.93" fill="#ECECEC" width="1" height="256"/>
		</g>
		<g>
			<rect x="123" y="0.93" fill="#ECECEC" width="1" height="256"/>
		</g>
		<g>
			<rect x="119" y="0.93" fill="#ECECEC" width="1" height="256"/>
		</g>
		<g>
			<rect x="115" y="0.93" fill="#ECECEC" width="1" height="256"/>
		</g>
		<g>
			<rect x="111" y="0.93" fill="#ECECEC" width="1" height="256"/>
		</g>
		<g>
			<rect x="107" y="0.93" fill="#ECECEC" width="1" height="256"/>
		</g>
		<g>
			<rect x="103" y="0.93" fill="#ECECEC" width="1" height="256"/>
		</g>
		<g>
			<rect x="99" y="0.93" fill="#ECECEC" width="1" height="256"/>
		</g>
		<g>
			<rect x="95" y="0.93" fill="#ECECEC" width="1" height="256"/>
		</g>
		<g>
			<rect x="91" y="0.93" fill="#ECECEC" width="1" height="256"/>
		</g>
		<g>
			<rect x="87" y="0.93" fill="#ECECEC" width="1" height="256"/>
		</g>
		<g>
			<rect x="83" y="0.93" fill="#ECECEC" width="1" height="256"/>
		</g>
		<g>
			<rect x="79" y="0.93" fill="#ECECEC" width="1" height="256"/>
		</g>
		<g>
			<rect x="75" y="0.93" fill="#ECECEC" width="1" height="256"/>
		</g>
		<g>
			<rect x="71" y="0.93" fill="#ECECEC" width="1" height="256"/>
		</g>
		<g>
			<rect x="67" y="0.93" fill="#ECECEC" width="1" height="256"/>
		</g>
		<g>
			<rect x="64" y="0.93" fill="#ECECEC" width="1" height="256"/>
		</g>
		<g>
			<rect x="60" y="0.93" fill="#ECECEC" width="1" height="256"/>
		</g>
		<g>
			<rect x="56" y="0.93" fill="#ECECEC" width="1" height="256"/>
		</g>
		<g>
			<rect x="52" y="0.93" fill="#ECECEC" width="1" height="256"/>
		</g>
		<g>
			<rect x="48" y="0.93" fill="#ECECEC" width="1" height="256"/>
		</g>
		<g>
			<rect x="44" y="0.93" fill="#ECECEC" width="1" height="256"/>
		</g>
		<g>
			<rect x="40" y="0.93" fill="#ECECEC" width="1" height="256"/>
		</g>
		<g>
			<rect x="36" y="0.93" fill="#ECECEC" width="1" height="256"/>
		</g>
		<g>
			<rect x="32" y="0.93" fill="#ECECEC" width="1" height="256"/>
		</g>
		<g>
			<rect x="28" y="0.93" fill="#ECECEC" width="1" height="256"/>
		</g>
		<g>
			<rect x="24" y="0.93" fill="#ECECEC" width="1" height="256"/>
		</g>
		<g>
			<rect x="20" y="0.93" fill="#ECECEC" width="1" height="256"/>
		</g>
		<g>
			<rect x="16" y="0.93" fill="#ECECEC" width="1" height="256"/>
		</g>
		<g>
			<rect x="12" y="0.93" fill="#ECECEC" width="1" height="256"/>
		</g>
		<g>
			<rect x="8" y="0.93" fill="#ECECEC" width="1" height="256"/>
		</g>
		<g>
			<rect x="4" y="0.93" fill="#ECECEC" width="1" height="256"/>
		</g>
		<g>
			<path fill="#C7C7C7" d="M257,257H0V0h257V257z M1,256h255V1H1V256z"/>
		</g>
		<g opacity="0.8">
			<rect x="127" y="0.93" fill="#C7C7C7" width="4" height="256"/>
		</g>
		<g opacity="0.8">
			<rect x="1" y="126.93" fill="#C7C7C7" width="256" height="4"/>
		</g>
		<g opacity="0.5">
			<path fill="#C7C7C7" d="M129.085,12.53c31.029,0,60.202,12.084,82.143,34.025s34.025,51.113,34.025,82.143
				s-12.083,60.202-34.025,82.143s-51.113,34.025-82.143,34.025s-60.202-12.084-82.143-34.025
				c-21.941-21.941-34.025-51.113-34.025-82.143s12.083-60.202,34.025-82.143C68.884,24.614,98.056,12.53,129.085,12.53
				 M129.085,8.783C62.858,8.783,9.171,62.47,9.171,128.698s53.688,119.915,119.915,119.915
				c66.227,0,119.915-53.688,119.915-119.915S195.312,8.783,129.085,8.783L129.085,8.783z"/>
		</g>
		<g opacity="0.2">

				<rect x="127.22" y="-49.525" transform="matrix(0.7071 0.7071 -0.7071 0.7071 128.8591 -53.6745)" fill="#C7C7C7" width="4" height="356.469"/>
		</g>
		<g opacity="0.2">

				<rect x="127.22" y="-49.525" transform="matrix(0.7071 -0.7071 0.7071 0.7071 -53.1635 129.0707)" fill="#C7C7C7" width="4" height="356.469"/>
		</g>
		<g opacity="0.5">
			<g>
				<path fill="#C7C7C7" d="M129,68.783c33.084,0,60,26.916,60,60c0,33.084-26.916,60-60,60s-60-26.916-60-60
					C69,95.699,95.916,68.783,129,68.783 M129,64.783c-35.346,0-64,28.654-64,64s28.654,64,64,64s64-28.654,64-64
					S164.346,64.783,129,64.783L129,64.783z"/>
			</g>
		</g>
		<g opacity="0.2">
			<rect x="64" y="0.93" fill="#C7C7C7" width="4" height="256"/>
		</g>
		<g opacity="0.2">
			<rect x="190" y="0.93" fill="#C7C7C7" width="4" height="256"/>
		</g>
		<g opacity="0.2">
			<rect x="1" y="63.93" fill="#C7C7C7" width="256" height="4"/>
		</g>
		<g opacity="0.2">
			<rect x="1" y="189.93" fill="#C7C7C7" width="256" height="4"/>
		</g>
	</g>
	<g opacity="0.5">
		<path fill="#D7AAFF" d="M1,1.004v255h255v-255H1z M249,247.933L9,247.93V9.004L249,8.93V247.933z"/>
	</g>
	<g>
		<path d="M129.22,8.93C63.218,8.93,9.72,62.433,9.72,128.43S63.218,247.931,129.22,247.931s119.501-53.503,119.501-119.501
			S195.223,8.93,129.22,8.93z M129.22,239.395c-61.186,0-110.965-49.779-110.965-110.965S68.034,17.466,129.22,17.466
			S240.185,67.244,240.185,128.43S190.407,239.395,129.22,239.395z"/>
		<polygon points="120.685,136.966 137.756,154.038 188.971,68.68 103.613,119.895 		"/>
	</g>
</g>
<g id="Layer_3" display="none">
	<g display="inline" opacity="0.2">
		<g>
			<line fill="none" stroke="#00FFFF" stroke-miterlimit="10" x1="-549" y1="256.647" x2="475" y2="256.647"/>
		</g>
		<g>
			<line fill="none" stroke="#00FFFF" stroke-miterlimit="10" x1="-549" y1="250.647" x2="475" y2="250.647"/>
		</g>
		<g>
			<line fill="none" stroke="#00FFFF" stroke-miterlimit="10" x1="-549" y1="244.647" x2="475" y2="244.647"/>
		</g>
		<g>
			<line fill="none" stroke="#00FFFF" stroke-miterlimit="10" x1="-549" y1="238.647" x2="475" y2="238.647"/>
		</g>
		<g>
			<line fill="none" stroke="#00FFFF" stroke-miterlimit="10" x1="-549" y1="232.647" x2="475" y2="232.647"/>
		</g>
		<g>
			<line fill="none" stroke="#00FFFF" stroke-miterlimit="10" x1="-549" y1="226.647" x2="475" y2="226.647"/>
		</g>
		<g>
			<line fill="none" stroke="#00FFFF" stroke-miterlimit="10" x1="-549" y1="220.647" x2="475" y2="220.647"/>
		</g>
		<g>
			<line fill="none" stroke="#00FFFF" stroke-miterlimit="10" x1="-549" y1="214.647" x2="475" y2="214.647"/>
		</g>
		<g>
			<line fill="none" stroke="#00FFFF" stroke-miterlimit="10" x1="-549" y1="208.647" x2="475" y2="208.647"/>
		</g>
		<g>
			<line fill="none" stroke="#00FFFF" stroke-miterlimit="10" x1="-549" y1="202.647" x2="475" y2="202.647"/>
		</g>
		<g>
			<line fill="none" stroke="#00FFFF" stroke-miterlimit="10" x1="-549" y1="196.647" x2="475" y2="196.647"/>
		</g>
		<g>
			<line fill="none" stroke="#00FFFF" stroke-miterlimit="10" x1="-549" y1="190.647" x2="475" y2="190.647"/>
		</g>
		<g>
			<line fill="none" stroke="#00FFFF" stroke-miterlimit="10" x1="-549" y1="184.647" x2="475" y2="184.647"/>
		</g>
		<g>
			<line fill="none" stroke="#00FFFF" stroke-miterlimit="10" x1="-549" y1="178.647" x2="475" y2="178.647"/>
		</g>
		<g>
			<line fill="none" stroke="#00FFFF" stroke-miterlimit="10" x1="-549" y1="172.647" x2="475" y2="172.647"/>
		</g>
		<g>
			<line fill="none" stroke="#00FFFF" stroke-miterlimit="10" x1="-549" y1="166.647" x2="475" y2="166.647"/>
		</g>
		<g>
			<line fill="none" stroke="#00FFFF" stroke-miterlimit="10" x1="-549" y1="160.647" x2="475" y2="160.647"/>
		</g>
		<g>
			<line fill="none" stroke="#00FFFF" stroke-miterlimit="10" x1="-549" y1="154.647" x2="475" y2="154.647"/>
		</g>
		<g>
			<line fill="none" stroke="#00FFFF" stroke-miterlimit="10" x1="-549" y1="148.647" x2="475" y2="148.647"/>
		</g>
		<g>
			<line fill="none" stroke="#00FFFF" stroke-miterlimit="10" x1="-549" y1="142.647" x2="475" y2="142.647"/>
		</g>
		<g>
			<line fill="none" stroke="#00FFFF" stroke-miterlimit="10" x1="-549" y1="136.647" x2="475" y2="136.647"/>
		</g>
		<g>
			<line fill="none" stroke="#00FFFF" stroke-miterlimit="10" x1="-549" y1="130.647" x2="475" y2="130.647"/>
		</g>
		<g>
			<line fill="none" stroke="#00FFFF" stroke-miterlimit="10" x1="-549" y1="124.647" x2="475" y2="124.647"/>
		</g>
		<g>
			<line fill="none" stroke="#00FFFF" stroke-miterlimit="10" x1="-549" y1="118.647" x2="475" y2="118.647"/>
		</g>
		<g>
			<line fill="none" stroke="#00FFFF" stroke-miterlimit="10" x1="-549" y1="112.647" x2="475" y2="112.647"/>
		</g>
		<g>
			<line fill="none" stroke="#00FFFF" stroke-miterlimit="10" x1="-549" y1="106.647" x2="475" y2="106.647"/>
		</g>
		<g>
			<line fill="none" stroke="#00FFFF" stroke-miterlimit="10" x1="-549" y1="100.647" x2="475" y2="100.647"/>
		</g>
		<g>
			<line fill="none" stroke="#00FFFF" stroke-miterlimit="10" x1="-549" y1="94.647" x2="475" y2="94.647"/>
		</g>
		<g>
			<line fill="none" stroke="#00FFFF" stroke-miterlimit="10" x1="-549" y1="88.647" x2="475" y2="88.647"/>
		</g>
		<g>
			<line fill="none" stroke="#00FFFF" stroke-miterlimit="10" x1="-549" y1="82.647" x2="475" y2="82.647"/>
		</g>
		<g>
			<line fill="none" stroke="#00FFFF" stroke-miterlimit="10" x1="-549" y1="76.647" x2="475" y2="76.647"/>
		</g>
		<g>
			<line fill="none" stroke="#00FFFF" stroke-miterlimit="10" x1="-549" y1="70.647" x2="475" y2="70.647"/>
		</g>
		<g>
			<line fill="none" stroke="#00FFFF" stroke-miterlimit="10" x1="-549" y1="64.647" x2="475" y2="64.647"/>
		</g>
		<g>
			<line fill="none" stroke="#00FFFF" stroke-miterlimit="10" x1="-549" y1="58.647" x2="475" y2="58.647"/>
		</g>
		<g>
			<line fill="none" stroke="#00FFFF" stroke-miterlimit="10" x1="-549" y1="52.647" x2="475" y2="52.647"/>
		</g>
		<g>
			<line fill="none" stroke="#00FFFF" stroke-miterlimit="10" x1="-549" y1="46.647" x2="475" y2="46.647"/>
		</g>
		<g>
			<line fill="none" stroke="#00FFFF" stroke-miterlimit="10" x1="-549" y1="40.647" x2="475" y2="40.647"/>
		</g>
		<g>
			<line fill="none" stroke="#00FFFF" stroke-miterlimit="10" x1="-549" y1="34.647" x2="475" y2="34.647"/>
		</g>
		<g>
			<line fill="none" stroke="#00FFFF" stroke-miterlimit="10" x1="-549" y1="28.647" x2="475" y2="28.647"/>
		</g>
		<g>
			<line fill="none" stroke="#00FFFF" stroke-miterlimit="10" x1="-549" y1="22.647" x2="475" y2="22.647"/>
		</g>
		<g>
			<line fill="none" stroke="#00FFFF" stroke-miterlimit="10" x1="-549" y1="16.647" x2="475" y2="16.647"/>
		</g>
		<g>
			<line fill="none" stroke="#00FFFF" stroke-miterlimit="10" x1="-549" y1="10.647" x2="475" y2="10.647"/>
		</g>
		<g>
			<line fill="none" stroke="#00FFFF" stroke-miterlimit="10" x1="-549" y1="4.647" x2="475" y2="4.647"/>
		</g>
	</g>
</g>
<g id="Layer_2">
</g>
</svg>
