<?xml version="1.0" encoding="utf-8"?>
<!-- Generator: Adobe Illustrator 18.0.0, SVG Export Plug-In . SVG Version: 6.00 Build 0)  -->
<!DOCTYPE svg PUBLIC "-//W3C//DTD SVG 1.1//EN" "http://www.w3.org/Graphics/SVG/1.1/DTD/svg11.dtd">
<svg version="1.1" xmlns="http://www.w3.org/2000/svg" xmlns:xlink="http://www.w3.org/1999/xlink" x="0px" y="0px"
	 viewBox="0 0 314 270" width="314" height="270"  enable-background="new 0 0 314 270" xml:space="preserve">
<g id="Layer_1">
	<g>
		<g>
			<defs>
				<rect id="SVGID_1_" x="166.7" y="-0.5" width="64" height="245.6"/>
			</defs>
			<clipPath id="SVGID_2_">
				<use xlink:href="#SVGID_1_"  overflow="visible"/>
			</clipPath>
			<rect x="161.5" y="-149.4" clip-path="url(#SVGID_2_)" fill="#464646" width="94.3" height="883.4"/>
			<rect x="166.7" y="-0.7" clip-path="url(#SVGID_2_)" fill="#121212" width="64" height="64"/>
			<path clip-path="url(#SVGID_2_)" fill="#FFFFFF" d="M204.6,15.8c-2.4,0-4.8,1.2-6,2.4c-1.2-1.2-3.6-2.4-6-2.4h-9.5v28.6h9.5
				c2.4,0,4.8,1.2,6,2.4c1.2-1.2,3.6-2.4,6-2.4h9.5V15.8H204.6z M198.7,43.8c-1.6-1-3.7-1.8-6-1.8h-7.2V18.2h7.2
				c1.6,0,3.4,0.9,4.3,1.7l1.7,1.7V43.8z M210.6,36h-8.3v-1.2h8.3V36z M210.6,32.5h-8.3v-1.2h8.3V32.5z M210.6,28.9h-8.3v-1.2h8.3
				V28.9z M210.6,25.3h-8.3v-1.2h8.3V25.3z"/>
			<polygon clip-path="url(#SVGID_2_)" fill="#FFFFFF" points="200.8,110.6 194.4,110.6 194.4,112.7 196.5,112.7 196.5,119.2
				194.4,119.2 194.4,121.3 203,121.3 203,119.2 200.8,119.2 			"/>
			<circle clip-path="url(#SVGID_2_)" fill="#FFFFFF" cx="198.7" cy="106.3" r="2.1"/>
			<path clip-path="url(#SVGID_2_)" fill="#FFFFFF" d="M198.7,97.7c-8.3,0-15,6.7-15,15s6.7,15,15,15s15-6.7,15-15
				S207,97.7,198.7,97.7z M198.7,125.6c-7.1,0-12.9-5.8-12.9-12.9c0-7.1,5.8-12.9,12.9-12.9s12.9,5.8,12.9,12.9
				C211.5,119.8,205.8,125.6,198.7,125.6z"/>
			<path clip-path="url(#SVGID_2_)" fill="#FFFFFF" d="M190.4,178.6h-4.1v31h4.1h20.7v-31H190.4z M209,207.6h-16.5v-26.9h6.2v14.5
				l4.1-4.1l4.1,4.1v-14.5h2.1V207.6z"/>
		</g>
		<g>
			<rect x="81" y="81" fill="#EED2FF" width="64" height="64"/>
		</g>
		<g>
			<rect x="97" y="97" fill="#9855D4" width="32" height="32"/>
		</g>
		<g>
			<rect x="167" y="262" fill="#9855D4" width="64" height="1"/>
		</g>
		<g>
			<rect x="166" y="256" fill="#9855D4" width="1" height="14"/>
		</g>
		<g>
			<rect x="230" y="256" fill="#9855D4" width="1" height="14"/>
		</g>
		<g>
			<rect x="81" y="162" fill="#9855D4" width="64" height="1"/>
		</g>
		<g>
			<rect x="80" y="156" fill="#9855D4" width="1" height="14"/>
		</g>
		<g>
			<rect x="144" y="156" fill="#9855D4" width="1" height="14"/>
		</g>
		<g>
			<path fill="#FFFFFF" d="M108.1,111.2c0.3,0,0.5-0.1,0.8-0.2c0.2-0.1,0.4-0.2,0.6-0.4s0.2-0.4,0.2-0.8c0-0.5-0.2-0.8-0.5-1.1
				c-0.3-0.3-0.7-0.4-1.1-0.4c-0.6,0-1,0.2-1.3,0.6c-0.3,0.4-0.4,0.9-0.4,1.4h-2.2c0-0.6,0.1-1.1,0.3-1.6s0.4-0.9,0.8-1.2
				s0.7-0.6,1.2-0.8c0.5-0.2,1-0.3,1.6-0.3c0.4,0,0.9,0.1,1.3,0.2c0.4,0.1,0.9,0.3,1.2,0.6c0.4,0.3,0.6,0.6,0.9,1
				c0.2,0.4,0.3,0.8,0.3,1.3c0,0.5-0.1,1-0.4,1.4s-0.7,0.7-1.2,0.8v0c0.6,0.1,1.1,0.4,1.5,0.9c0.4,0.5,0.5,1,0.5,1.6
				c0,0.6-0.1,1.1-0.3,1.6c-0.2,0.5-0.5,0.8-0.9,1.2s-0.8,0.5-1.3,0.7c-0.5,0.2-1,0.2-1.6,0.2c-0.6,0-1.2-0.1-1.7-0.3
				c-0.5-0.2-1-0.4-1.3-0.8c-0.4-0.3-0.6-0.8-0.8-1.3c-0.2-0.5-0.3-1.1-0.3-1.7h2.2c0,0.3,0.1,0.6,0.1,0.9c0.1,0.3,0.2,0.5,0.4,0.7
				s0.4,0.4,0.6,0.5c0.2,0.1,0.5,0.2,0.9,0.2c0.5,0,0.9-0.2,1.3-0.5c0.4-0.3,0.5-0.7,0.5-1.3c0-0.4-0.1-0.8-0.2-1
				c-0.2-0.2-0.4-0.4-0.6-0.5c-0.3-0.1-0.5-0.2-0.8-0.2c-0.3,0-0.6,0-0.9,0v-1.6C107.6,111.2,107.9,111.2,108.1,111.2z"/>
			<path fill="#FFFFFF" d="M113.4,109.2c0.2-0.5,0.4-1,0.8-1.4c0.3-0.4,0.8-0.7,1.3-1c0.5-0.2,1.1-0.3,1.8-0.3c0.5,0,1,0.1,1.5,0.2
				s0.9,0.4,1.2,0.7c0.4,0.3,0.6,0.7,0.8,1.1c0.2,0.4,0.3,0.9,0.3,1.5c0,0.6-0.1,1.1-0.3,1.5c-0.2,0.4-0.4,0.8-0.7,1.1
				c-0.3,0.3-0.6,0.6-1,0.9c-0.4,0.3-0.8,0.5-1.1,0.8c-0.4,0.3-0.8,0.5-1.1,0.8c-0.4,0.3-0.7,0.6-1,1h5.3v2h-8.2
				c0-0.7,0.1-1.2,0.3-1.7s0.4-0.9,0.8-1.3s0.7-0.7,1.1-1c0.4-0.3,0.9-0.6,1.4-1c0.2-0.2,0.5-0.3,0.8-0.5c0.3-0.2,0.5-0.4,0.8-0.6
				s0.4-0.5,0.6-0.7c0.2-0.3,0.2-0.6,0.2-0.9c0-0.5-0.2-1-0.5-1.3c-0.3-0.3-0.7-0.5-1.2-0.5c-0.3,0-0.6,0.1-0.8,0.2
				c-0.2,0.2-0.4,0.4-0.6,0.6c-0.1,0.3-0.2,0.5-0.3,0.8c-0.1,0.3-0.1,0.6-0.1,0.9h-2.2C113.2,110.3,113.3,109.7,113.4,109.2z"/>
		</g>
		<g>
			<path fill="#323232" d="M100.5,175.3c-0.3-0.3-0.6-0.4-1-0.4c-0.4,0-0.7,0.1-1,0.4c-0.3,0.2-0.5,0.5-0.6,0.9
				c-0.2,0.3-0.3,0.7-0.4,1.1c-0.1,0.4-0.1,0.7-0.1,1.1l0,0c0.3-0.4,0.7-0.8,1.1-1s0.9-0.3,1.4-0.3c0.5,0,0.9,0.1,1.4,0.3
				c0.5,0.2,0.8,0.5,1.2,0.8c0.3,0.3,0.5,0.7,0.7,1.2c0.1,0.4,0.2,0.9,0.2,1.3c0,0.6-0.1,1.1-0.3,1.6c-0.2,0.5-0.5,0.9-0.8,1.3
				c-0.3,0.4-0.8,0.7-1.2,0.9c-0.5,0.2-1,0.3-1.6,0.3c-0.8,0-1.5-0.2-2.1-0.5s-1-0.8-1.3-1.3c-0.3-0.5-0.6-1.2-0.7-1.8
				s-0.2-1.4-0.2-2.1c0-0.7,0.1-1.4,0.2-2.1s0.4-1.3,0.8-1.9c0.4-0.6,0.8-1,1.4-1.4s1.2-0.5,2-0.5c0.5,0,0.9,0.1,1.3,0.2
				s0.8,0.3,1.1,0.6c0.3,0.3,0.6,0.6,0.8,1c0.2,0.4,0.3,0.8,0.4,1.3H101C101,175.9,100.8,175.6,100.5,175.3z M98.6,179
				c-0.2,0.1-0.4,0.3-0.6,0.5s-0.3,0.4-0.3,0.7c-0.1,0.3-0.1,0.5-0.1,0.8c0,0.3,0,0.5,0.1,0.8s0.2,0.5,0.4,0.7
				c0.2,0.2,0.3,0.4,0.6,0.5c0.2,0.1,0.5,0.2,0.8,0.2c0.3,0,0.5-0.1,0.7-0.2c0.2-0.1,0.4-0.3,0.5-0.5s0.3-0.4,0.3-0.7
				c0.1-0.2,0.1-0.5,0.1-0.8c0-0.3,0-0.5-0.1-0.8c-0.1-0.3-0.2-0.5-0.3-0.7c-0.1-0.2-0.3-0.4-0.5-0.5s-0.5-0.2-0.8-0.2
				C99.1,178.8,98.8,178.9,98.6,179z"/>
			<path fill="#323232" d="M104,182v-2.1l4.9-6.5h2v6.7h1.5v1.9h-1.5v2.6h-2.2V182H104z M108.7,176.3l-2.9,3.9h2.9L108.7,176.3
				L108.7,176.3z"/>
			<path fill="#323232" d="M115,176.3v1.1h0c0.2-0.5,0.6-0.8,1.1-1c0.5-0.2,1-0.3,1.6-0.3c0.6,0,1.2,0.1,1.7,0.4
				c0.5,0.2,0.9,0.6,1.2,1c0.3,0.4,0.6,0.9,0.7,1.4s0.2,1.1,0.2,1.7c0,0.6-0.1,1.1-0.2,1.7c-0.2,0.5-0.4,1-0.7,1.4
				c-0.3,0.4-0.7,0.7-1.2,0.9c-0.5,0.2-1,0.3-1.7,0.3c-0.2,0-0.4,0-0.7-0.1c-0.3,0-0.5-0.1-0.7-0.2c-0.2-0.1-0.5-0.2-0.7-0.4
				s-0.4-0.4-0.6-0.6h0v4.3h-1.4v-11.4H115z M119.9,179.3c-0.1-0.4-0.3-0.7-0.5-1c-0.2-0.3-0.5-0.5-0.8-0.7
				c-0.3-0.2-0.7-0.3-1.1-0.3c-0.5,0-0.8,0.1-1.2,0.3c-0.3,0.2-0.6,0.4-0.8,0.7c-0.2,0.3-0.3,0.6-0.4,1c-0.1,0.4-0.1,0.8-0.1,1.1
				c0,0.4,0,0.8,0.1,1.2c0.1,0.4,0.2,0.7,0.5,1c0.2,0.3,0.5,0.5,0.8,0.7c0.3,0.2,0.7,0.3,1.2,0.3c0.5,0,0.9-0.1,1.2-0.3
				c0.3-0.2,0.6-0.4,0.8-0.7c0.2-0.3,0.3-0.6,0.4-1c0.1-0.4,0.1-0.8,0.1-1.2C120.1,180,120,179.6,119.9,179.3z"/>
			<path fill="#323232" d="M122.5,176.3h1.7l2,2.9l2.1-2.9h1.6l-2.8,3.8l3.2,4.5h-1.7l-2.3-3.4l-2.3,3.4h-1.6l3.1-4.4L122.5,176.3z"
				/>
		</g>
	</g>
</g>
<g id="Layer_2" display="none">
	<rect x="1" y="-5709" display="inline" opacity="8.000000e-02" fill="#00FFFF" width="60" height="10691.6"/>
	<rect x="85" y="-5709" display="inline" opacity="8.000000e-02" fill="#00FFFF" width="60" height="10691.6"/>
	<rect x="169" y="-5709" display="inline" opacity="8.000000e-02" fill="#00FFFF" width="60" height="10691.6"/>
	<rect x="253" y="-5709" display="inline" opacity="8.000000e-02" fill="#00FFFF" width="60" height="10691.6"/>
</g>
</svg>
