<?xml version="1.0" encoding="utf-8"?>
<!-- Generator: Adobe Illustrator 18.0.0, SVG Export Plug-In . SVG Version: 6.00 Build 0)  -->
<!DOCTYPE svg PUBLIC "-//W3C//DTD SVG 1.1//EN" "http://www.w3.org/Graphics/SVG/1.1/DTD/svg11.dtd">
<svg version="1.1" id="Layer_1" xmlns="http://www.w3.org/2000/svg" xmlns:xlink="http://www.w3.org/1999/xlink" x="0px" y="0px"
	 viewBox="0 0 555.9 121.1" width="555.9" height="121.1"  enable-background="new 0 0 555.9 121.1" xml:space="preserve">
<g>
	<g>
		<path d="M541.9,61.1c0-2.5-0.2-4.9-0.6-7.2l14.6-12.8l-12.4-20.4L526,26.4c-4.2-3.6-9-6.5-14.3-8.4l-3.9-16.9h-24L480,18
			c-5.3,1.9-10.1,4.8-14.3,8.4l-17.4-5.7l-12.4,20.4l14.6,12.8c-0.4,2.4-0.6,4.7-0.6,7.2c0,2.5,0.2,4.9,0.6,7.2l-14.6,12.8
			l12.4,20.4l17.4-5.7c4.2,3.6,9,6.5,14.3,8.4l3.9,16.9h24l3.9-16.9c5.3-1.9,10.1-4.8,14.3-8.4l17.4,5.7l12.4-20.4l-14.6-12.8
			C541.6,66,541.9,63.6,541.9,61.1z M550.7,81.9l-9,14.8L527.2,92l-2.2-0.7l-1.7,1.5c-3.8,3.3-8.2,5.9-13,7.7l-2,0.7l-0.5,2.1
			l-3.2,13.8h-17.6l-3.2-13.8l-0.5-2.1l-2-0.7c-4.8-1.8-9.2-4.4-13-7.7l-1.7-1.5l-2.2,0.7l-14.4,4.7l-9-14.8l12.1-10.6l1.7-1.5
			l-0.3-2.2c-0.4-2.4-0.6-4.6-0.6-6.6c0-2,0.2-4.1,0.6-6.6l0.3-2.2l-1.7-1.5L441,40.3l9-14.8l14.4,4.7l2.2,0.7l1.7-1.5
			c3.8-3.3,8.2-5.9,13-7.7l2-0.7l0.5-2.1l3.2-13.8h17.6l3.2,13.8l0.5,2.1l2,0.7c4.8,1.8,9.2,4.4,13,7.7l1.7,1.5l2.2-0.7l14.4-4.7
			l9,14.8l-12.1,10.6l-1.7,1.5l0.3,2.2c0.4,2.4,0.6,4.6,0.6,6.6c0,2-0.2,4.2-0.6,6.6l-0.3,2.2l1.7,1.5L550.7,81.9z"/>
	</g>
	<g>
		<path d="M495.9,37.1c-13.3,0-24,10.7-24,24s10.7,24,24,24c13.3,0,24-10.7,24-24S509.1,37.1,495.9,37.1z M495.9,69.1
			c-4.4,0-8-3.6-8-8s3.6-8,8-8s8,3.6,8,8S500.3,69.1,495.9,69.1z"/>
	</g>
</g>
<g>
	<path fill="#9855D4" d="M46,19.1c23.2,0,42,18.8,42,42s-18.8,42-42,42S4,84.3,4,61.1S22.8,19.1,46,19.1 M46,15.1
		c-25.4,0-46,20.6-46,46s20.6,46,46,46c25.4,0,46-20.6,46-46S71.4,15.1,46,15.1L46,15.1z"/>
</g>
<g>
	<g>
		<path fill="#9855D4" d="M233.3,5.1l33.4,56l-33.4,56h-67.1l-33.4-56l33.4-56h67.4 M235.6,1.1h-71.7l-35.8,60l35.8,60h71.7l35.8-60
			L235.6,1.1L235.6,1.1z"/>
	</g>
</g>
<g>
	<path fill="none" stroke="#9855D4" stroke-width="3" stroke-miterlimit="10" d="M481.5,47.4"/>
</g>
<g>
	<path fill="none" stroke="#9855D4" stroke-width="3" stroke-miterlimit="10" d="M528.3,32.6"/>
</g>
<g>
	<path fill="#323232" d="M198.8,19.1c23.2,0,42,18.8,42,42s-18.8,42-42,42s-42-18.8-42-42S175.7,19.1,198.8,19.1 M198.8,15.1
		c-25.4,0-46,20.6-46,46s20.6,46,46,46c25.4,0,46-20.6,46-46S224.2,15.1,198.8,15.1L198.8,15.1z"/>
</g>
<g>
	<path fill="#323232" d="M355.8,19.1c23.2,0,42,18.8,42,42s-18.8,42-42,42s-42-18.8-42-42S332.7,19.1,355.8,19.1 M355.8,15.1
		c-25.4,0-46,20.6-46,46s20.6,46,46,46s46-20.6,46-46S381.2,15.1,355.8,15.1L355.8,15.1z"/>
</g>
<g>
	<path fill="#9855D4" d="M355.8,41.1c11,0,20,9,20,20s-9,20-20,20s-20-9-20-20S344.8,41.1,355.8,41.1 M355.8,37.1
		c-13.3,0-24,10.7-24,24s10.7,24,24,24s24-10.7,24-24S369.1,37.1,355.8,37.1L355.8,37.1z"/>
</g>
<g>
	<path fill="#9855D4" d="M355.8,57.2c2.2,0,4,1.8,4,4s-1.8,4-4,4s-4-1.8-4-4S353.6,57.2,355.8,57.2 M355.8,53.2c-4.4,0-8,3.6-8,8
		c0,4.4,3.6,8,8,8s8-3.6,8-8C363.8,56.8,360.2,53.2,355.8,53.2L355.8,53.2z"/>
</g>
<g opacity="0.3">
	<rect x="362.6" y="1.1" fill="#9855D4" width="1" height="120"/>
</g>
<g opacity="0.3">
	<rect x="346.6" y="1.1" fill="#9855D4" width="1" height="120"/>
</g>
<g opacity="0.3">

		<rect x="359.1" y="8.2" transform="matrix(0.5003 0.8658 -0.8658 0.5003 238.6699 -277.2758)" fill="#9855D4" width="1" height="120"/>
</g>
<g opacity="0.3">

		<rect x="351.1" y="-5.4" transform="matrix(0.5003 0.8658 -0.8658 0.5003 222.9493 -277.1145)" fill="#9855D4" width="1" height="120"/>
</g>
<g opacity="0.3">
	<rect x="291.6" y="67.7" transform="matrix(0.866 0.5 -0.5 0.866 81.1764 -166.6549)" fill="#9855D4" width="120" height="1"/>
</g>
<g opacity="0.3">
	<rect x="299.6" y="53.8" transform="matrix(0.866 0.5 -0.5 0.866 75.32 -172.5113)" fill="#9855D4" width="120" height="1"/>
</g>
<g opacity="0.5">
	<g>
		<rect x="360.5" y="63" transform="matrix(0.71 0.7042 -0.7042 0.71 158.3279 -256.4762)" fill="#9855D4" width="60" height="2"/>
	</g>
	<g>
		<rect x="346.4" y="89" transform="matrix(0.9597 0.281 -0.281 0.9597 40.402 -101.891)" fill="#9855D4" width="58.3" height="2"/>
	</g>
</g>
<g opacity="0.5">
	<g>
		<rect x="369.8" y="64" transform="matrix(0.967 0.2549 -0.2549 0.967 35.708 -91.4972)" fill="#9855D4" width="2" height="56"/>
	</g>
	<g>

			<rect x="312.9" y="90.7" transform="matrix(0.2708 0.9626 -0.9626 0.2708 336.6951 -261.1551)" fill="#9855D4" width="55.6" height="2"/>
	</g>
</g>
<g opacity="0.5">
	<g>

			<rect x="335.2" y="62.2" transform="matrix(0.2627 0.9649 -0.9649 0.2627 334.9284 -257.885)" fill="#9855D4" width="2" height="56"/>
	</g>
	<g>

			<rect x="320.5" y="36.2" transform="matrix(0.7158 0.6983 -0.6983 0.7158 136.0025 -206.2823)" fill="#9855D4" width="2" height="55.6"/>
	</g>
</g>
<g opacity="0.5">
	<g>

			<rect x="293.6" y="57.6" transform="matrix(0.71 0.7042 -0.7042 0.71 134.5533 -209.5007)" fill="#9855D4" width="56" height="2"/>
	</g>
	<g>

			<rect x="309.2" y="31.7" transform="matrix(0.9691 0.2468 -0.2468 0.9691 18.4924 -82.1511)" fill="#9855D4" width="55.6" height="2"/>
	</g>
</g>
<g opacity="0.5">
	<g>

			<rect x="342.8" y="30" transform="matrix(0.2549 0.967 -0.967 0.2549 306.2802 -335.5019)" fill="#9855D4" width="56" height="2"/>
	</g>
	<g>

			<rect x="339.7" y="3.5" transform="matrix(0.9627 0.2705 -0.2705 0.9627 21.174 -90.9859)" fill="#9855D4" width="2" height="55.6"/>
	</g>
</g>
<g opacity="0.5">
	<g>

			<rect x="390.2" y="30.2" transform="matrix(0.7042 0.71 -0.71 0.7042 157.0614 -260.5637)" fill="#9855D4" width="2" height="56"/>
	</g>
	<g>

			<rect x="374.9" y="4.4" transform="matrix(0.2471 0.969 -0.969 0.2471 314.1323 -340.0027)" fill="#9855D4" width="2" height="55.6"/>
	</g>
</g>
<g>
	<g>
		<path fill="#C7C7C7" d="M390.3,5.1l33.4,56l-33.4,56h-67.1l-33.4-56l33.4-56h67.4 M392.6,1.1h-71.7l-35.8,60l35.8,60h71.7l35.8-60
			L392.6,1.1L392.6,1.1z"/>
	</g>
</g>
<g>
	<g>
		<polygon fill="#323232" points="365.1,5.2 347.1,5.2 348.1,1.2 364.1,1.2 		"/>
	</g>
</g>
<g>
	<g>
		<polygon fill="#323232" points="411,40 401.8,24.5 405.8,23.3 413.9,37.1 		"/>
	</g>
</g>
<g>
	<g>
		<polygon fill="#323232" points="401.4,98.6 410.9,82.7 413.8,85.7 405.5,99.6 		"/>
	</g>
</g>
<g>
	<g>
		<polygon fill="#323232" points="346.8,117.1 365.2,117.1 364.2,121.1 347.8,121.1 		"/>
	</g>
</g>
<g>
	<g>
		<polygon fill="#323232" points="302.3,82.4 311.5,97.8 307.6,99 299.4,85.3 		"/>
	</g>
</g>
<g>
	<g>
		<polygon fill="#323232" points="311.4,25.1 302.2,40.6 299.2,37.7 307.3,24.1 		"/>
	</g>
</g>
</svg>
