<?xml version="1.0" encoding="utf-8"?>
<!-- Generator: Adobe Illustrator 18.0.0, SVG Export Plug-In . SVG Version: 6.00 Build 0)  -->
<!DOCTYPE svg PUBLIC "-//W3C//DTD SVG 1.1//EN" "http://www.w3.org/Graphics/SVG/1.1/DTD/svg11.dtd">
<svg version="1.1" id="Layer_1" xmlns="http://www.w3.org/2000/svg" xmlns:xlink="http://www.w3.org/1999/xlink" x="0px" y="0px"
	 viewBox="0 0 474 60" width="474" height="60"  enable-background="new 0 0 474 60" xml:space="preserve">
<g>
	<g>
		<path d="M332.3,7c-4.3-4.3-10.3-7-17-7c-6.6,0-12.6,2.7-17,7c-4.3,4.3-7,10.3-7,17c0,2.1,0.3,4.1,0.8,6c-0.3,0-0.5,0-0.8,0
			c-3.3,0-6.3,1.3-8.5,3.5c-2.2,2.2-3.5,5.2-3.5,8.5c0,3.5,1.3,6.7,3.5,9l8.5,9v-6c3.3,0,6.3-1.3,8.5-3.5c1.6-1.6,2.7-3.6,3.2-5.9
			c3.6,2.2,7.8,3.4,12.3,3.4v12l17-18c4.3-4.6,7-11,7-18C339.3,17.4,336.6,11.4,332.3,7z M330.8,40.6L317.3,55v-7v-2h-2
			c-4.3,0-8.5-1.3-12-3.6c0-0.1,0-0.3,0-0.4c0-3.3-1.3-6.3-3.5-8.5c-1.5-1.5-3.4-2.6-5.5-3.1c-0.6-2-0.9-4.2-0.9-6.4
			c0-5.9,2.3-11.4,6.4-15.6c4.2-4.2,9.7-6.4,15.6-6.4c5.9,0,11.4,2.3,15.6,6.4c4.2,4.2,6.4,9.7,6.4,15.6
			C337.3,30.3,335,36.2,330.8,40.6z"/>
	</g>
	<g>
		<circle cx="315.3" cy="24" r="3"/>
	</g>
	<g>
		<circle cx="325.3" cy="24" r="3"/>
	</g>
	<g>
		<circle cx="305.3" cy="24" r="3"/>
	</g>
</g>
<g>
	<g>
		<path d="M450,40c11,0,20-9,20-20s-9-20-20-20s-20,9-20,20S439,40,450,40z M450,2c9.9,0,18,8.1,18,18s-8.1,18-18,18s-18-8.1-18-18
			S440.1,2,450,2z"/>
	</g>
	<g>
		<path d="M466,44h-32c-4.4,0-8,3.6-8,8v8h48v-8C474,47.6,470.4,44,466,44z"/>
	</g>
</g>
<g>
	<path d="M168.7,6l-30,16v2v30h60V24v-2L168.7,6z M150.7,20h36v8.4l-18,9.6l-18-9.6V20z M196.7,52h-56V25.1l28,14.9l28-14.9V52z"/>
</g>
<g>
	<g>
		<g>
			<path d="M28,10C17,10,8,19,8,30c0,11,9,20,20,20c11,0,20-9,20-20C48,19,39,10,28,10z M32,34l-16,8l8-16l16-8L32,34z"/>
		</g>
	</g>
	<g>
		<g>
			<path d="M28,2C12.5,2,0,14.5,0,30s12.5,28,28,28s28-12.5,28-28S43.5,2,28,2z M28,56C13.7,56,2,44.3,2,30S13.7,4,28,4
				s26,11.7,26,26S42.3,56,28,56z"/>
		</g>
	</g>
	<g>
		<circle cx="28" cy="30" r="2"/>
	</g>
</g>
</svg>
