<?xml version="1.0" encoding="utf-8"?>
<!-- Generator: Adobe Illustrator 17.1.0, SVG Export Plug-In . SVG Version: 6.00 Build 0)  -->
<!DOCTYPE svg PUBLIC "-//W3C//DTD SVG 1.1//EN" "http://www.w3.org/Graphics/SVG/1.1/DTD/svg11.dtd">
<svg version="1.1" xmlns="http://www.w3.org/2000/svg" xmlns:xlink="http://www.w3.org/1999/xlink" x="0px" y="0px"
	 viewBox="0 0 257 257" width="257" height="257"  enable-background="new 0 0 257 257" xml:space="preserve">
<g id="Layer_1">
	<g>
		<g>
			<rect x="0.5" y="251.768" fill="#ECECEC" width="256" height="1"/>
		</g>
		<g>
			<rect x="0.5" y="247.83" fill="#ECECEC" width="256" height="1"/>
		</g>
		<g>
			<rect x="0.5" y="243.891" fill="#ECECEC" width="256" height="1"/>
		</g>
		<g>
			<rect x="0.5" y="239.953" fill="#ECECEC" width="256" height="1"/>
		</g>
		<g>
			<rect x="0.5" y="236.014" fill="#ECECEC" width="256" height="1"/>
		</g>
		<g>
			<rect x="0.5" y="232.076" fill="#ECECEC" width="256" height="1"/>
		</g>
		<g>
			<rect x="0.5" y="228.137" fill="#ECECEC" width="256" height="1"/>
		</g>
		<g>
			<rect x="0.5" y="224.199" fill="#ECECEC" width="256" height="1"/>
		</g>
		<g>
			<rect x="0.5" y="220.26" fill="#ECECEC" width="256" height="1"/>
		</g>
		<g>
			<rect x="0.5" y="216.322" fill="#ECECEC" width="256" height="1"/>
		</g>
		<g>
			<rect x="0.5" y="212.383" fill="#ECECEC" width="256" height="1"/>
		</g>
		<g>
			<rect x="0.5" y="208.445" fill="#ECECEC" width="256" height="1"/>
		</g>
		<g>
			<rect x="0.5" y="204.506" fill="#ECECEC" width="256" height="1"/>
		</g>
		<g>
			<rect x="0.5" y="200.568" fill="#ECECEC" width="256" height="1"/>
		</g>
		<g>
			<rect x="0.5" y="196.629" fill="#ECECEC" width="256" height="1"/>
		</g>
		<g>
			<rect x="0.5" y="192.691" fill="#ECECEC" width="256" height="1"/>
		</g>
		<g>
			<rect x="0.5" y="188.752" fill="#ECECEC" width="256" height="1"/>
		</g>
		<g>
			<rect x="0.5" y="184.814" fill="#ECECEC" width="256" height="1"/>
		</g>
		<g>
			<rect x="0.5" y="180.875" fill="#ECECEC" width="256" height="1"/>
		</g>
		<g>
			<rect x="0.5" y="176.937" fill="#ECECEC" width="256" height="1"/>
		</g>
		<g>
			<rect x="0.5" y="172.999" fill="#ECECEC" width="256" height="1"/>
		</g>
		<g>
			<rect x="0.5" y="169.06" fill="#ECECEC" width="256" height="1"/>
		</g>
		<g>
			<rect x="0.5" y="165.122" fill="#ECECEC" width="256" height="1"/>
		</g>
		<g>
			<rect x="0.5" y="161.183" fill="#ECECEC" width="256" height="1"/>
		</g>
		<g>
			<rect x="0.5" y="157.245" fill="#ECECEC" width="256" height="1"/>
		</g>
		<g>
			<rect x="0.5" y="153.306" fill="#ECECEC" width="256" height="1"/>
		</g>
		<g>
			<rect x="0.5" y="149.368" fill="#ECECEC" width="256" height="1"/>
		</g>
		<g>
			<rect x="0.5" y="145.429" fill="#ECECEC" width="256" height="1"/>
		</g>
		<g>
			<rect x="0.5" y="141.491" fill="#ECECEC" width="256" height="1"/>
		</g>
		<g>
			<rect x="0.5" y="137.552" fill="#ECECEC" width="256" height="1"/>
		</g>
		<g>
			<rect x="0.5" y="133.614" fill="#ECECEC" width="256" height="1"/>
		</g>
		<g>
			<rect x="0.5" y="129.676" fill="#ECECEC" width="256" height="1"/>
		</g>
		<g>
			<rect x="0.5" y="125.737" fill="#ECECEC" width="256" height="1"/>
		</g>
		<g>
			<rect x="0.5" y="121.799" fill="#ECECEC" width="256" height="1"/>
		</g>
		<g>
			<rect x="0.5" y="117.86" fill="#ECECEC" width="256" height="1"/>
		</g>
		<g>
			<rect x="0.5" y="113.922" fill="#ECECEC" width="256" height="1"/>
		</g>
		<g>
			<rect x="0.5" y="109.983" fill="#ECECEC" width="256" height="1"/>
		</g>
		<g>
			<rect x="0.5" y="106.045" fill="#ECECEC" width="256" height="1"/>
		</g>
		<g>
			<rect x="0.5" y="102.106" fill="#ECECEC" width="256" height="1"/>
		</g>
		<g>
			<rect x="0.5" y="98.168" fill="#ECECEC" width="256" height="1"/>
		</g>
		<g>
			<rect x="0.5" y="94.229" fill="#ECECEC" width="256" height="1"/>
		</g>
		<g>
			<rect x="0.5" y="90.291" fill="#ECECEC" width="256" height="1"/>
		</g>
		<g>
			<rect x="0.5" y="86.353" fill="#ECECEC" width="256" height="1"/>
		</g>
		<g>
			<rect x="0.5" y="82.414" fill="#ECECEC" width="256" height="1"/>
		</g>
		<g>
			<rect x="0.5" y="78.476" fill="#ECECEC" width="256" height="1"/>
		</g>
		<g>
			<rect x="0.5" y="74.537" fill="#ECECEC" width="256" height="1"/>
		</g>
		<g>
			<rect x="0.5" y="70.599" fill="#ECECEC" width="256" height="1"/>
		</g>
		<g>
			<rect x="0.5" y="66.66" fill="#ECECEC" width="256" height="1"/>
		</g>
		<g>
			<rect x="0.5" y="62.722" fill="#ECECEC" width="256" height="1"/>
		</g>
		<g>
			<rect x="0.5" y="58.783" fill="#ECECEC" width="256" height="1"/>
		</g>
		<g>
			<rect x="0.5" y="54.845" fill="#ECECEC" width="256" height="1"/>
		</g>
		<g>
			<rect x="0.5" y="50.906" fill="#ECECEC" width="256" height="1"/>
		</g>
		<g>
			<rect x="0.5" y="46.968" fill="#ECECEC" width="256" height="1"/>
		</g>
		<g>
			<rect x="0.5" y="43.029" fill="#ECECEC" width="256" height="1"/>
		</g>
		<g>
			<rect x="0.5" y="39.091" fill="#ECECEC" width="256" height="1"/>
		</g>
		<g>
			<rect x="0.5" y="35.152" fill="#ECECEC" width="256" height="1"/>
		</g>
		<g>
			<rect x="0.5" y="31.214" fill="#ECECEC" width="256" height="1"/>
		</g>
		<g>
			<rect x="0.5" y="27.275" fill="#ECECEC" width="256" height="1"/>
		</g>
		<g>
			<rect x="0.5" y="23.337" fill="#ECECEC" width="256" height="1"/>
		</g>
		<g>
			<rect x="0.5" y="19.398" fill="#ECECEC" width="256" height="1"/>
		</g>
		<g>
			<rect x="0.5" y="15.46" fill="#ECECEC" width="256" height="1"/>
		</g>
		<g>
			<rect x="0.5" y="11.521" fill="#ECECEC" width="256" height="1"/>
		</g>
		<g>
			<rect x="0.5" y="7.583" fill="#ECECEC" width="256" height="1"/>
		</g>
		<g>
			<rect x="0.5" y="3.645" fill="#ECECEC" width="256" height="1"/>
		</g>
		<g>
			<rect x="252.062" y="0.207" fill="#ECECEC" width="1" height="256"/>
		</g>
		<g>
			<rect x="248.123" y="0.207" fill="#ECECEC" width="1" height="256"/>
		</g>
		<g>
			<rect x="244.185" y="0.207" fill="#ECECEC" width="1" height="256"/>
		</g>
		<g>
			<rect x="240.246" y="0.207" fill="#ECECEC" width="1" height="256"/>
		</g>
		<g>
			<rect x="236.308" y="0.207" fill="#ECECEC" width="1" height="256"/>
		</g>
		<g>
			<rect x="232.369" y="0.207" fill="#ECECEC" width="1" height="256"/>
		</g>
		<g>
			<rect x="228.431" y="0.207" fill="#ECECEC" width="1" height="256"/>
		</g>
		<g>
			<rect x="224.492" y="0.207" fill="#ECECEC" width="1" height="256"/>
		</g>
		<g>
			<rect x="220.554" y="0.207" fill="#ECECEC" width="1" height="256"/>
		</g>
		<g>
			<rect x="216.615" y="0.207" fill="#ECECEC" width="1" height="256"/>
		</g>
		<g>
			<rect x="212.677" y="0.207" fill="#ECECEC" width="1" height="256"/>
		</g>
		<g>
			<rect x="208.738" y="0.207" fill="#ECECEC" width="1" height="256"/>
		</g>
		<g>
			<rect x="204.8" y="0.207" fill="#ECECEC" width="1" height="256"/>
		</g>
		<g>
			<rect x="200.861" y="0.207" fill="#ECECEC" width="1" height="256"/>
		</g>
		<g>
			<rect x="196.923" y="0.207" fill="#ECECEC" width="1" height="256"/>
		</g>
		<g>
			<rect x="192.985" y="0.207" fill="#ECECEC" width="1" height="256"/>
		</g>
		<g>
			<rect x="189.046" y="0.207" fill="#ECECEC" width="1" height="256"/>
		</g>
		<g>
			<rect x="185.108" y="0.207" fill="#ECECEC" width="1" height="256"/>
		</g>
		<g>
			<rect x="181.169" y="0.207" fill="#ECECEC" width="1" height="256"/>
		</g>
		<g>
			<rect x="177.231" y="0.207" fill="#ECECEC" width="1" height="256"/>
		</g>
		<g>
			<rect x="173.292" y="0.207" fill="#ECECEC" width="1" height="256"/>
		</g>
		<g>
			<rect x="169.354" y="0.207" fill="#ECECEC" width="1" height="256"/>
		</g>
		<g>
			<rect x="165.416" y="0.207" fill="#ECECEC" width="1" height="256"/>
		</g>
		<g>
			<rect x="161.477" y="0.207" fill="#ECECEC" width="1" height="256"/>
		</g>
		<g>
			<rect x="157.539" y="0.207" fill="#ECECEC" width="1" height="256"/>
		</g>
		<g>
			<rect x="153.6" y="0.207" fill="#ECECEC" width="1" height="256"/>
		</g>
		<g>
			<rect x="149.662" y="0.207" fill="#ECECEC" width="1" height="256"/>
		</g>
		<g>
			<rect x="145.723" y="0.207" fill="#ECECEC" width="1" height="256"/>
		</g>
		<g>
			<rect x="141.785" y="0.207" fill="#ECECEC" width="1" height="256"/>
		</g>
		<g>
			<rect x="137.846" y="0.207" fill="#ECECEC" width="1" height="256"/>
		</g>
		<g>
			<rect x="133.908" y="0.207" fill="#ECECEC" width="1" height="256"/>
		</g>
		<g>
			<rect x="129.969" y="0.207" fill="#ECECEC" width="1" height="256"/>
		</g>
		<g>
			<rect x="126.031" y="0.207" fill="#ECECEC" width="1" height="256"/>
		</g>
		<g>
			<rect x="122.092" y="0.207" fill="#ECECEC" width="1" height="256"/>
		</g>
		<g>
			<rect x="118.154" y="0.207" fill="#ECECEC" width="1" height="256"/>
		</g>
		<g>
			<rect x="114.215" y="0.207" fill="#ECECEC" width="1" height="256"/>
		</g>
		<g>
			<rect x="110.277" y="0.207" fill="#ECECEC" width="1" height="256"/>
		</g>
		<g>
			<rect x="106.338" y="0.207" fill="#ECECEC" width="1" height="256"/>
		</g>
		<g>
			<rect x="102.4" y="0.207" fill="#ECECEC" width="1" height="256"/>
		</g>
		<g>
			<rect x="98.461" y="0.207" fill="#ECECEC" width="1" height="256"/>
		</g>
		<g>
			<rect x="94.523" y="0.207" fill="#ECECEC" width="1" height="256"/>
		</g>
		<g>
			<rect x="90.584" y="0.207" fill="#ECECEC" width="1" height="256"/>
		</g>
		<g>
			<rect x="86.646" y="0.207" fill="#ECECEC" width="1" height="256"/>
		</g>
		<g>
			<rect x="82.708" y="0.207" fill="#ECECEC" width="1" height="256"/>
		</g>
		<g>
			<rect x="78.769" y="0.207" fill="#ECECEC" width="1" height="256"/>
		</g>
		<g>
			<rect x="74.831" y="0.207" fill="#ECECEC" width="1" height="256"/>
		</g>
		<g>
			<rect x="70.892" y="0.207" fill="#ECECEC" width="1" height="256"/>
		</g>
		<g>
			<rect x="66.954" y="0.207" fill="#ECECEC" width="1" height="256"/>
		</g>
		<g>
			<rect x="63.016" y="0.207" fill="#ECECEC" width="1" height="256"/>
		</g>
		<g>
			<rect x="59.077" y="0.207" fill="#ECECEC" width="1" height="256"/>
		</g>
		<g>
			<rect x="55.139" y="0.207" fill="#ECECEC" width="1" height="256"/>
		</g>
		<g>
			<rect x="51.2" y="0.207" fill="#ECECEC" width="1" height="256"/>
		</g>
		<g>
			<rect x="47.262" y="0.207" fill="#ECECEC" width="1" height="256"/>
		</g>
		<g>
			<rect x="43.323" y="0.207" fill="#ECECEC" width="1" height="256"/>
		</g>
		<g>
			<rect x="39.385" y="0.207" fill="#ECECEC" width="1" height="256"/>
		</g>
		<g>
			<rect x="35.446" y="0.207" fill="#ECECEC" width="1" height="256"/>
		</g>
		<g>
			<rect x="31.508" y="0.207" fill="#ECECEC" width="1" height="256"/>
		</g>
		<g>
			<rect x="27.569" y="0.207" fill="#ECECEC" width="1" height="256"/>
		</g>
		<g>
			<rect x="23.631" y="0.207" fill="#ECECEC" width="1" height="256"/>
		</g>
		<g>
			<rect x="19.692" y="0.207" fill="#ECECEC" width="1" height="256"/>
		</g>
		<g>
			<rect x="15.754" y="0.207" fill="#ECECEC" width="1" height="256"/>
		</g>
		<g>
			<rect x="11.815" y="0.207" fill="#ECECEC" width="1" height="256"/>
		</g>
		<g>
			<rect x="7.877" y="0.207" fill="#ECECEC" width="1" height="256"/>
		</g>
		<g>
			<rect x="3.938" y="0.207" fill="#ECECEC" width="1" height="256"/>
		</g>
		<g>
			<path fill="#C7C7C7" d="M257,257H0V0h257V257z M1,256h255V1H1V256z"/>
		</g>
		<g opacity="0.8">
			<rect x="126.5" y="0.647" fill="#C7C7C7" width="4" height="256"/>
		</g>
		<g opacity="0.8">
			<rect x="0.5" y="126.647" fill="#C7C7C7" width="256" height="4"/>
		</g>
		<g opacity="0.5">
			<path fill="#C7C7C7" d="M128.585,12.247c31.029,0,60.202,12.084,82.143,34.025s34.025,51.113,34.025,82.143
				s-12.083,60.202-34.025,82.143s-51.113,34.025-82.143,34.025s-60.202-12.084-82.143-34.025
				c-21.941-21.941-34.025-51.113-34.025-82.143s12.083-60.202,34.025-82.143C68.384,24.331,97.556,12.247,128.585,12.247
				 M128.585,8.5C62.358,8.5,8.671,62.188,8.671,128.415s53.688,119.915,119.915,119.915c66.227,0,119.915-53.688,119.915-119.915
				S194.812,8.5,128.585,8.5L128.585,8.5z"/>
		</g>
		<g opacity="0.2">

				<rect x="126.72" y="-49.808" transform="matrix(0.7071 0.7071 -0.7071 0.7071 128.5127 -53.4037)" fill="#C7C7C7" width="4" height="356.469"/>
		</g>
		<g opacity="0.2">

				<rect x="126.72" y="-49.808" transform="matrix(0.7071 -0.7071 0.7071 0.7071 -53.11 128.6343)" fill="#C7C7C7" width="4" height="356.469"/>
		</g>
		<g opacity="0.5">
			<g>
				<path fill="#C7C7C7" d="M128.5,68.5c33.084,0,60,26.916,60,60c0,33.084-26.916,60-60,60s-60-26.916-60-60
					C68.5,95.416,95.416,68.5,128.5,68.5 M128.5,64.5c-35.346,0-64,28.654-64,64s28.654,64,64,64s64-28.654,64-64
					S163.846,64.5,128.5,64.5L128.5,64.5z"/>
			</g>
		</g>
		<g opacity="0.2">
			<rect x="63.5" y="0.647" fill="#C7C7C7" width="4" height="256"/>
		</g>
		<g opacity="0.2">
			<rect x="189.5" y="0.647" fill="#C7C7C7" width="4" height="256"/>
		</g>
		<g opacity="0.2">
			<rect x="0.5" y="63.647" fill="#C7C7C7" width="256" height="4"/>
		</g>
		<g opacity="0.2">
			<rect x="0.5" y="189.647" fill="#C7C7C7" width="256" height="4"/>
		</g>
	</g>
	<g>
		<path d="M197.856,33.606c-17.885-17.893-42.6-28.959-69.898-28.959c-27.298,0-52.013,11.066-69.898,28.959
			c-17.893,17.889-28.963,42.604-28.963,69.902c0,28.903,11.07,55.075,28.963,74.013l69.898,74.279l69.898-74.279
			c17.893-18.939,28.963-45.11,28.963-74.013C226.819,76.211,215.749,51.495,197.856,33.606z M191.856,171.876l-63.898,67.903
			l-63.909-67.915c-17.226-18.233-26.714-42.509-26.714-68.356c0-24.204,9.429-46.959,26.552-64.078
			c17.11-17.118,39.865-26.545,64.071-26.545c24.206,0,46.961,9.427,64.073,26.547c17.121,17.117,26.55,39.873,26.55,64.076
			C218.581,129.355,209.093,153.631,191.856,171.876z"/>
		<circle cx="127.958" cy="103.508" r="32.954"/>
	</g>
	<g opacity="0.5">
		<path fill="#D7AAFF" d="M1,1v255h255V1H1z M252.094,251.647H5v-247h247.156L252.094,251.647z"/>
	</g>
</g>
<g id="Layer_3" display="none">
	<g display="inline" opacity="0.2">
		<g>
			<line fill="none" stroke="#00FFFF" stroke-miterlimit="10" x1="-251.5" y1="256.147" x2="772.5" y2="256.147"/>
		</g>
		<g>
			<line fill="none" stroke="#00FFFF" stroke-miterlimit="10" x1="-251.5" y1="250.147" x2="772.5" y2="250.147"/>
		</g>
		<g>
			<line fill="none" stroke="#00FFFF" stroke-miterlimit="10" x1="-251.5" y1="244.147" x2="772.5" y2="244.147"/>
		</g>
		<g>
			<line fill="none" stroke="#00FFFF" stroke-miterlimit="10" x1="-251.5" y1="238.147" x2="772.5" y2="238.147"/>
		</g>
		<g>
			<line fill="none" stroke="#00FFFF" stroke-miterlimit="10" x1="-251.5" y1="232.147" x2="772.5" y2="232.147"/>
		</g>
		<g>
			<line fill="none" stroke="#00FFFF" stroke-miterlimit="10" x1="-251.5" y1="226.147" x2="772.5" y2="226.147"/>
		</g>
		<g>
			<line fill="none" stroke="#00FFFF" stroke-miterlimit="10" x1="-251.5" y1="220.147" x2="772.5" y2="220.147"/>
		</g>
		<g>
			<line fill="none" stroke="#00FFFF" stroke-miterlimit="10" x1="-251.5" y1="214.147" x2="772.5" y2="214.147"/>
		</g>
		<g>
			<line fill="none" stroke="#00FFFF" stroke-miterlimit="10" x1="-251.5" y1="208.147" x2="772.5" y2="208.147"/>
		</g>
		<g>
			<line fill="none" stroke="#00FFFF" stroke-miterlimit="10" x1="-251.5" y1="202.147" x2="772.5" y2="202.147"/>
		</g>
		<g>
			<line fill="none" stroke="#00FFFF" stroke-miterlimit="10" x1="-251.5" y1="196.147" x2="772.5" y2="196.147"/>
		</g>
		<g>
			<line fill="none" stroke="#00FFFF" stroke-miterlimit="10" x1="-251.5" y1="190.147" x2="772.5" y2="190.147"/>
		</g>
		<g>
			<line fill="none" stroke="#00FFFF" stroke-miterlimit="10" x1="-251.5" y1="184.147" x2="772.5" y2="184.147"/>
		</g>
		<g>
			<line fill="none" stroke="#00FFFF" stroke-miterlimit="10" x1="-251.5" y1="178.147" x2="772.5" y2="178.147"/>
		</g>
		<g>
			<line fill="none" stroke="#00FFFF" stroke-miterlimit="10" x1="-251.5" y1="172.147" x2="772.5" y2="172.147"/>
		</g>
		<g>
			<line fill="none" stroke="#00FFFF" stroke-miterlimit="10" x1="-251.5" y1="166.147" x2="772.5" y2="166.147"/>
		</g>
		<g>
			<line fill="none" stroke="#00FFFF" stroke-miterlimit="10" x1="-251.5" y1="160.147" x2="772.5" y2="160.147"/>
		</g>
		<g>
			<line fill="none" stroke="#00FFFF" stroke-miterlimit="10" x1="-251.5" y1="154.147" x2="772.5" y2="154.147"/>
		</g>
		<g>
			<line fill="none" stroke="#00FFFF" stroke-miterlimit="10" x1="-251.5" y1="148.147" x2="772.5" y2="148.147"/>
		</g>
		<g>
			<line fill="none" stroke="#00FFFF" stroke-miterlimit="10" x1="-251.5" y1="142.147" x2="772.5" y2="142.147"/>
		</g>
		<g>
			<line fill="none" stroke="#00FFFF" stroke-miterlimit="10" x1="-251.5" y1="136.147" x2="772.5" y2="136.147"/>
		</g>
		<g>
			<line fill="none" stroke="#00FFFF" stroke-miterlimit="10" x1="-251.5" y1="130.147" x2="772.5" y2="130.147"/>
		</g>
		<g>
			<line fill="none" stroke="#00FFFF" stroke-miterlimit="10" x1="-251.5" y1="124.147" x2="772.5" y2="124.147"/>
		</g>
		<g>
			<line fill="none" stroke="#00FFFF" stroke-miterlimit="10" x1="-251.5" y1="118.147" x2="772.5" y2="118.147"/>
		</g>
		<g>
			<line fill="none" stroke="#00FFFF" stroke-miterlimit="10" x1="-251.5" y1="112.147" x2="772.5" y2="112.147"/>
		</g>
		<g>
			<line fill="none" stroke="#00FFFF" stroke-miterlimit="10" x1="-251.5" y1="106.147" x2="772.5" y2="106.147"/>
		</g>
		<g>
			<line fill="none" stroke="#00FFFF" stroke-miterlimit="10" x1="-251.5" y1="100.147" x2="772.5" y2="100.147"/>
		</g>
		<g>
			<line fill="none" stroke="#00FFFF" stroke-miterlimit="10" x1="-251.5" y1="94.147" x2="772.5" y2="94.147"/>
		</g>
		<g>
			<line fill="none" stroke="#00FFFF" stroke-miterlimit="10" x1="-251.5" y1="88.147" x2="772.5" y2="88.147"/>
		</g>
		<g>
			<line fill="none" stroke="#00FFFF" stroke-miterlimit="10" x1="-251.5" y1="82.147" x2="772.5" y2="82.147"/>
		</g>
		<g>
			<line fill="none" stroke="#00FFFF" stroke-miterlimit="10" x1="-251.5" y1="76.147" x2="772.5" y2="76.147"/>
		</g>
		<g>
			<line fill="none" stroke="#00FFFF" stroke-miterlimit="10" x1="-251.5" y1="70.147" x2="772.5" y2="70.147"/>
		</g>
		<g>
			<line fill="none" stroke="#00FFFF" stroke-miterlimit="10" x1="-251.5" y1="64.147" x2="772.5" y2="64.147"/>
		</g>
		<g>
			<line fill="none" stroke="#00FFFF" stroke-miterlimit="10" x1="-251.5" y1="58.147" x2="772.5" y2="58.147"/>
		</g>
		<g>
			<line fill="none" stroke="#00FFFF" stroke-miterlimit="10" x1="-251.5" y1="52.147" x2="772.5" y2="52.147"/>
		</g>
		<g>
			<line fill="none" stroke="#00FFFF" stroke-miterlimit="10" x1="-251.5" y1="46.147" x2="772.5" y2="46.147"/>
		</g>
		<g>
			<line fill="none" stroke="#00FFFF" stroke-miterlimit="10" x1="-251.5" y1="40.147" x2="772.5" y2="40.147"/>
		</g>
		<g>
			<line fill="none" stroke="#00FFFF" stroke-miterlimit="10" x1="-251.5" y1="34.147" x2="772.5" y2="34.147"/>
		</g>
		<g>
			<line fill="none" stroke="#00FFFF" stroke-miterlimit="10" x1="-251.5" y1="28.147" x2="772.5" y2="28.147"/>
		</g>
		<g>
			<line fill="none" stroke="#00FFFF" stroke-miterlimit="10" x1="-251.5" y1="22.147" x2="772.5" y2="22.147"/>
		</g>
		<g>
			<line fill="none" stroke="#00FFFF" stroke-miterlimit="10" x1="-251.5" y1="16.147" x2="772.5" y2="16.147"/>
		</g>
		<g>
			<line fill="none" stroke="#00FFFF" stroke-miterlimit="10" x1="-251.5" y1="10.147" x2="772.5" y2="10.147"/>
		</g>
		<g>
			<line fill="none" stroke="#00FFFF" stroke-miterlimit="10" x1="-251.5" y1="4.147" x2="772.5" y2="4.147"/>
		</g>
	</g>
</g>
<g id="Layer_2">
</g>
</svg>
