<?xml version="1.0" encoding="utf-8"?>
<!-- Generator: Adobe Illustrator 18.0.0, SVG Export Plug-In . SVG Version: 6.00 Build 0)  -->
<!DOCTYPE svg PUBLIC "-//W3C//DTD SVG 1.1//EN" "http://www.w3.org/Graphics/SVG/1.1/DTD/svg11.dtd">
<svg version="1.1" id="Layer_1" xmlns="http://www.w3.org/2000/svg" xmlns:xlink="http://www.w3.org/1999/xlink" x="0px" y="0px"
	 viewBox="0 0 479 80" width="479" height="80"  enable-background="new 0 0 479 80" xml:space="preserve">
<g>
	<rect fill="#734098" width="479" height="80"/>
</g>
<g>
	<g>
		<path fill="#EED2FF" d="M73,48.5c5.5,0,10-4.5,10-10s-4.5-10-10-10s-10,4.5-10,10S67.5,48.5,73,48.5z M73,30.5c4.4,0,8,3.6,8,8
			s-3.6,8-8,8s-8-3.6-8-8S68.6,30.5,73,30.5z"/>
	</g>
	<g>
		<path fill="#EED2FF" d="M81,50.5H65c-2.2,0-4,1.8-4,4v4h24v-4C85,52.2,83.2,50.5,81,50.5z"/>
	</g>
</g>
<g>
	<path fill="#EED2FF" d="M181.7,31.5l-15,8v1v15h30v-15v-1L181.7,31.5z M172.7,38.5h18v4.2l-9,4.8l-9-4.8V38.5z M194.7,53.5h-26
		V41.5l13,6.9l13-6.9V53.5z"/>
</g>
<g>
	<g>
		<path fill="#EED2FF" d="M301.9,43.5c0-0.6-0.1-1.2-0.2-1.8l3.7-3.2l-3.1-5.1l-4.4,1.4c-1-0.9-2.2-1.6-3.6-2.1l-1-4.2h-6l-1,4.2
			c-1.3,0.5-2.5,1.2-3.6,2.1l-4.4-1.4l-3.1,5.1l3.7,3.2c-0.1,0.6-0.2,1.2-0.2,1.8c0,0.6,0.1,1.2,0.2,1.8l-3.7,3.2l3.1,5.1l4.4-1.4
			c1,0.9,2.2,1.6,3.6,2.1l1,4.2h6l1-4.2c1.3-0.5,2.5-1.2,3.6-2.1l4.4,1.4l3.1-5.1l-3.7-3.2C301.8,44.7,301.9,44.1,301.9,43.5z
			 M302.8,48.8l-1.4,2.3l-2.9-0.9l-1.1-0.4l-0.9,0.7c-0.9,0.8-1.9,1.3-2.9,1.7l-1,0.4l-0.2,1.1l-0.6,2.7H289l-0.6-2.7l-0.2-1.1
			l-1-0.4c-1.1-0.4-2.1-1-2.9-1.7l-0.9-0.7l-1.1,0.4l-2.9,0.9l-1.4-2.3l2.4-2.1l0.8-0.7l-0.2-1.1c-0.1-0.6-0.1-1-0.1-1.5
			s0-0.9,0.1-1.5l0.2-1.1l-0.8-0.7l-2.4-2.1l1.4-2.3l2.9,0.9l1.1,0.4l0.9-0.7c0.9-0.8,1.9-1.3,2.9-1.7l1-0.4l0.2-1.1l0.6-2.7h2.8
			l0.6,2.7l0.2,1.1l1,0.4c1.1,0.4,2.1,1,2.9,1.7l0.9,0.7l1.1-0.4l2.9-0.9l1.4,2.3l-2.4,2.1l-0.8,0.7l0.2,1.1c0.1,0.6,0.1,1,0.1,1.5
			s0,0.9-0.1,1.5l-0.2,1.1l0.8,0.7L302.8,48.8z"/>
	</g>
	<g>
		<path fill="#EED2FF" d="M290.4,37.5c-3.3,0-6,2.7-6,6s2.7,6,6,6c3.3,0,6-2.7,6-6S293.7,37.5,290.4,37.5z M290.4,45.5
			c-1.1,0-2-0.9-2-2s0.9-2,2-2c1.1,0,2,0.9,2,2S291.5,45.5,290.4,45.5z"/>
	</g>
</g>
<g>
	<g>
		<path fill="#EED2FF" d="M404,34.5v-6h-16v24h6v6h16v-24H404z M408,56.5h-12v-20h12V56.5z"/>
	</g>
	<g>
		<rect x="398" y="40.5" fill="#EED2FF" width="8" height="1"/>
	</g>
	<g>
		<rect x="398" y="42.5" fill="#EED2FF" width="8" height="1"/>
	</g>
	<g>
		<rect x="398" y="44.5" fill="#EED2FF" width="8" height="1"/>
	</g>
	<g>
		<rect x="398" y="46.5" fill="#EED2FF" width="4" height="1"/>
	</g>
</g>
</svg>
