<?xml version="1.0" encoding="utf-8"?>
<!-- Generator: Adobe Illustrator 18.0.0, SVG Export Plug-In . SVG Version: 6.00 Build 0)  -->
<!DOCTYPE svg PUBLIC "-//W3C//DTD SVG 1.1//EN" "http://www.w3.org/Graphics/SVG/1.1/DTD/svg11.dtd">
<svg version="1.1" id="Layer_1" xmlns="http://www.w3.org/2000/svg" xmlns:xlink="http://www.w3.org/1999/xlink" x="0px" y="0px"
	 viewBox="0 0 486 154" width="486" height="154"  enable-background="new 0 0 486 154" xml:space="preserve">
<g>
	<g>

			<rect x="41.2" y="49.3" transform="matrix(0.7071 -0.7071 0.7071 0.7071 -25.1337 46.3219)" fill="#323232" width="4.2" height="8.5"/>
	</g>
	<g>
		<path fill="#323232" d="M21.8,69l6,6l15-15l-6-6L21.8,69z M27.8,72.2L24.7,69l12.2-12.2L40,60L27.8,72.2z"/>
	</g>
	<g>
		<polygon fill="#323232" points="17.8,79 22.8,77 19.8,74 		"/>
	</g>
</g>
<g>
	<g>

			<rect x="219.1" y="34.5" transform="matrix(0.7071 -0.7071 0.7071 0.7071 35.0117 170.5258)" fill="#323232" width="8.5" height="17"/>
	</g>
	<g>
		<path fill="#323232" d="M180.3,74l12,12l30-30l-12-12L180.3,74z M192.3,83.2l-9.2-9.2l27.2-27.2l9.2,9.2L192.3,83.2z"/>
	</g>
	<g>
		<polygon fill="#323232" points="172.3,94 182.3,90 176.3,84 		"/>
	</g>
</g>
<g>
	<g>

			<rect x="455.9" y="5" transform="matrix(0.7071 -0.7071 0.7071 0.7071 120.4482 334.7878)" fill="#323232" width="17" height="33.9"/>
	</g>
	<g>
		<path fill="#323232" d="M378.3,84l24,24l60-60l-24-24L378.3,84z M402.3,102.3L384,84l54.3-54.3L456.7,48L402.3,102.3z"/>
	</g>
	<g>
		<polygon fill="#323232" points="362.3,124 382.3,116 370.3,104 		"/>
	</g>
</g>
<g opacity="0.25">
	<g>
		<path fill="#777677" d="M48,81H15V48h33V81z M16,80h31V49H16V80z"/>
	</g>
</g>
<g opacity="0.25">
	<g>
		<path fill="#777677" d="M234,97h-65V32h65V97z M170,96h63V33h-63V96z"/>
	</g>
</g>
<g opacity="0.25">
	<g>
		<path fill="#777677" d="M484,130H355V1h129V130z M356,129h127V2H356V129z"/>
	</g>
</g>
<g>
	<g>
		<path fill="#323232" d="M3.3,91.7c0,0,0.1,0,0.1,0h0.2c0.2,0,0.5,0,0.7-0.1c0.2-0.1,0.4-0.2,0.6-0.3c0.2-0.1,0.3-0.3,0.4-0.5
			c0.1-0.2,0.1-0.4,0.1-0.6c0-0.5-0.2-0.9-0.5-1.1s-0.7-0.4-1.2-0.4c-0.3,0-0.6,0.1-0.8,0.2c-0.2,0.1-0.4,0.3-0.5,0.4
			c-0.1,0.2-0.2,0.4-0.3,0.6c-0.1,0.2-0.1,0.5-0.1,0.8H1c0-0.4,0.1-0.8,0.2-1.2s0.3-0.7,0.5-0.9C2,88.4,2.2,88.2,2.6,88
			c0.4-0.1,0.8-0.2,1.2-0.2c0.4,0,0.8,0,1.1,0.1s0.6,0.2,0.9,0.4c0.3,0.2,0.4,0.5,0.6,0.8c0.1,0.3,0.2,0.7,0.2,1.1
			c0,0.4-0.1,0.8-0.4,1.1c-0.2,0.3-0.5,0.6-0.9,0.7v0c0.6,0.1,1,0.4,1.3,0.8C6.9,93.3,7,93.8,7,94.3c0,0.5-0.1,0.9-0.3,1.2
			s-0.4,0.6-0.7,0.9c-0.3,0.2-0.6,0.4-1,0.5s-0.8,0.2-1.2,0.2c-0.5,0-0.9-0.1-1.3-0.2s-0.7-0.3-1-0.6c-0.3-0.3-0.5-0.6-0.6-0.9
			c-0.1-0.4-0.2-0.8-0.2-1.3h1.1c0,0.6,0.2,1.1,0.5,1.5c0.3,0.4,0.8,0.6,1.4,0.6c0.3,0,0.5,0,0.8-0.1s0.5-0.2,0.6-0.4
			c0.2-0.2,0.3-0.3,0.4-0.6s0.2-0.5,0.2-0.7c0-0.3-0.1-0.5-0.2-0.8s-0.2-0.4-0.4-0.6c-0.2-0.2-0.4-0.3-0.6-0.3
			c-0.2-0.1-0.5-0.1-0.8-0.1c-0.2,0-0.5,0-0.7,0v-0.9C3.3,91.7,3.3,91.7,3.3,91.7z"/>
		<path fill="#323232" d="M8.3,89.7c0.1-0.4,0.3-0.7,0.6-1c0.3-0.3,0.6-0.5,1-0.7c0.4-0.2,0.8-0.2,1.3-0.2c0.4,0,0.8,0.1,1.1,0.2
			c0.4,0.1,0.7,0.3,0.9,0.5c0.3,0.2,0.5,0.5,0.6,0.8C14,89.6,14,90,14,90.4c0,0.4-0.1,0.8-0.2,1.1c-0.1,0.3-0.3,0.6-0.5,0.8
			s-0.4,0.5-0.7,0.7c-0.3,0.2-0.5,0.4-0.8,0.6c-0.3,0.2-0.6,0.3-0.9,0.5c-0.3,0.2-0.5,0.3-0.8,0.5c-0.2,0.2-0.4,0.4-0.6,0.6
			S9.3,95.7,9.2,96h4.7v1h-6c0-0.5,0.1-1,0.3-1.4c0.2-0.4,0.3-0.7,0.6-1s0.5-0.5,0.8-0.8c0.3-0.2,0.6-0.4,0.9-0.6
			c0.4-0.2,0.7-0.5,1-0.7c0.3-0.2,0.5-0.4,0.7-0.6c0.2-0.2,0.3-0.4,0.4-0.7c0.1-0.2,0.1-0.5,0.1-0.8c0-0.3,0-0.5-0.1-0.7
			c-0.1-0.2-0.2-0.4-0.4-0.5c-0.2-0.1-0.3-0.3-0.6-0.3c-0.2-0.1-0.4-0.1-0.7-0.1c-0.3,0-0.6,0.1-0.8,0.2c-0.2,0.1-0.4,0.3-0.6,0.5
			c-0.1,0.2-0.3,0.5-0.3,0.7c-0.1,0.3-0.1,0.5-0.1,0.8H8.2C8.2,90.6,8.2,90.1,8.3,89.7z"/>
		<path fill="#323232" d="M18.8,90.3h1.4l1.6,2.4l1.7-2.4h1.3l-2.3,3.1l2.6,3.6h-1.4l-1.9-2.8L19.9,97h-1.3l2.5-3.5L18.8,90.3z"/>
		<path fill="#323232" d="M31.8,91.7c0,0,0.1,0,0.1,0h0.2c0.2,0,0.5,0,0.7-0.1c0.2-0.1,0.4-0.2,0.6-0.3c0.2-0.1,0.3-0.3,0.4-0.5
			c0.1-0.2,0.1-0.4,0.1-0.6c0-0.5-0.2-0.9-0.5-1.1s-0.7-0.4-1.2-0.4c-0.3,0-0.6,0.1-0.8,0.2c-0.2,0.1-0.4,0.3-0.5,0.4
			c-0.1,0.2-0.2,0.4-0.3,0.6c-0.1,0.2-0.1,0.5-0.1,0.8h-1.1c0-0.4,0.1-0.8,0.2-1.2s0.3-0.7,0.5-0.9c0.2-0.3,0.5-0.5,0.9-0.6
			c0.4-0.1,0.8-0.2,1.2-0.2c0.4,0,0.8,0,1.1,0.1s0.6,0.2,0.9,0.4c0.3,0.2,0.4,0.5,0.6,0.8c0.1,0.3,0.2,0.7,0.2,1.1
			c0,0.4-0.1,0.8-0.4,1.1c-0.2,0.3-0.5,0.6-0.9,0.7v0c0.6,0.1,1,0.4,1.3,0.8c0.3,0.4,0.4,0.9,0.4,1.4c0,0.5-0.1,0.9-0.3,1.2
			s-0.4,0.6-0.7,0.9c-0.3,0.2-0.6,0.4-1,0.5s-0.8,0.2-1.2,0.2c-0.5,0-0.9-0.1-1.3-0.2s-0.7-0.3-1-0.6c-0.3-0.3-0.5-0.6-0.6-0.9
			c-0.1-0.4-0.2-0.8-0.2-1.3h1.1c0,0.6,0.2,1.1,0.5,1.5c0.3,0.4,0.8,0.6,1.4,0.6c0.3,0,0.5,0,0.8-0.1s0.5-0.2,0.6-0.4
			c0.2-0.2,0.3-0.3,0.4-0.6s0.2-0.5,0.2-0.7c0-0.3-0.1-0.5-0.2-0.8s-0.2-0.4-0.4-0.6c-0.2-0.2-0.4-0.3-0.6-0.3
			c-0.2-0.1-0.5-0.1-0.8-0.1c-0.2,0-0.5,0-0.7,0v-0.9C31.7,91.7,31.7,91.7,31.8,91.7z"/>
		<path fill="#323232" d="M36.7,89.7c0.1-0.4,0.3-0.7,0.6-1c0.3-0.3,0.6-0.5,1-0.7c0.4-0.2,0.8-0.2,1.3-0.2c0.4,0,0.8,0.1,1.1,0.2
			c0.4,0.1,0.7,0.3,0.9,0.5c0.3,0.2,0.5,0.5,0.6,0.8c0.2,0.3,0.2,0.7,0.2,1.1c0,0.4-0.1,0.8-0.2,1.1c-0.1,0.3-0.3,0.6-0.5,0.8
			S41.3,92.8,41,93c-0.3,0.2-0.5,0.4-0.8,0.6c-0.3,0.2-0.6,0.3-0.9,0.5c-0.3,0.2-0.5,0.3-0.8,0.5c-0.2,0.2-0.4,0.4-0.6,0.6
			s-0.3,0.5-0.3,0.8h4.7v1h-6c0-0.5,0.1-1,0.3-1.4c0.2-0.4,0.3-0.7,0.6-1s0.5-0.5,0.8-0.8c0.3-0.2,0.6-0.4,0.9-0.6
			c0.4-0.2,0.7-0.5,1-0.7c0.3-0.2,0.5-0.4,0.7-0.6c0.2-0.2,0.3-0.4,0.4-0.7c0.1-0.2,0.1-0.5,0.1-0.8c0-0.3,0-0.5-0.1-0.7
			c-0.1-0.2-0.2-0.4-0.4-0.5c-0.2-0.1-0.3-0.3-0.6-0.3c-0.2-0.1-0.4-0.1-0.7-0.1c-0.3,0-0.6,0.1-0.8,0.2c-0.2,0.1-0.4,0.3-0.6,0.5
			c-0.1,0.2-0.3,0.5-0.3,0.7c-0.1,0.3-0.1,0.5-0.1,0.8h-1.1C36.6,90.6,36.6,90.1,36.7,89.7z"/>
		<path fill="#323232" d="M48.8,90.3v0.9h0c0.2-0.4,0.5-0.6,0.9-0.8c0.4-0.2,0.8-0.3,1.3-0.3c0.5,0,1,0.1,1.4,0.3s0.7,0.4,1,0.8
			c0.3,0.3,0.4,0.7,0.6,1.1c0.1,0.4,0.2,0.9,0.2,1.4S54,94.6,53.9,95c-0.1,0.4-0.3,0.8-0.6,1.1c-0.3,0.3-0.6,0.6-1,0.7
			c-0.4,0.2-0.8,0.3-1.3,0.3c-0.2,0-0.3,0-0.6-0.1c-0.2,0-0.4-0.1-0.6-0.2c-0.2-0.1-0.4-0.2-0.6-0.3c-0.2-0.1-0.3-0.3-0.4-0.5h0v3.5
			h-1.1v-9.3H48.8z M52.8,92.7c-0.1-0.3-0.2-0.6-0.4-0.8c-0.2-0.2-0.4-0.4-0.6-0.6s-0.6-0.2-0.9-0.2c-0.4,0-0.7,0.1-0.9,0.2
			s-0.5,0.3-0.6,0.6s-0.3,0.5-0.4,0.8s-0.1,0.6-0.1,0.9c0,0.3,0,0.6,0.1,1c0.1,0.3,0.2,0.6,0.4,0.8c0.2,0.2,0.4,0.4,0.7,0.6
			c0.3,0.1,0.6,0.2,1,0.2c0.4,0,0.7-0.1,1-0.2c0.3-0.1,0.5-0.3,0.6-0.6c0.2-0.2,0.3-0.5,0.3-0.8c0.1-0.3,0.1-0.6,0.1-1
			C52.9,93.3,52.9,93,52.8,92.7z"/>
		<path fill="#323232" d="M54.9,90.3h1.4l1.6,2.4l1.7-2.4h1.3l-2.3,3.1l2.6,3.6h-1.4l-1.9-2.8L56,97h-1.3l2.5-3.5L54.9,90.3z"/>
	</g>
</g>
<g>
	<g>
		<path fill="#323232" d="M176,106.1c-0.3-0.3-0.6-0.4-1.1-0.4c-0.5,0-0.8,0.1-1.1,0.3s-0.5,0.5-0.7,0.9c-0.2,0.4-0.3,0.7-0.3,1.1
			c-0.1,0.4-0.1,0.8-0.1,1.1l0,0c0.3-0.4,0.6-0.7,1-0.9c0.4-0.2,0.8-0.3,1.3-0.3c0.4,0,0.8,0.1,1.2,0.2c0.4,0.2,0.6,0.4,0.9,0.6
			c0.2,0.3,0.4,0.6,0.6,0.9c0.1,0.4,0.2,0.8,0.2,1.2c0,0.3-0.1,0.7-0.2,1.1c-0.1,0.4-0.3,0.7-0.5,1c-0.2,0.3-0.6,0.5-0.9,0.7
			s-0.9,0.3-1.5,0.3c-0.7,0-1.2-0.1-1.7-0.4c-0.4-0.3-0.7-0.6-1-1.1c-0.2-0.4-0.4-0.9-0.4-1.4c-0.1-0.5-0.1-1-0.1-1.5
			c0-0.6,0.1-1.2,0.2-1.8c0.1-0.6,0.3-1.1,0.6-1.6c0.3-0.5,0.6-0.8,1-1.1c0.4-0.3,1-0.4,1.6-0.4c0.8,0,1.4,0.2,1.8,0.6
			c0.5,0.4,0.7,1,0.8,1.7h-1.1C176.4,106.7,176.3,106.4,176,106.1z M174,109.2c-0.2,0.1-0.4,0.3-0.6,0.4s-0.3,0.4-0.4,0.7
			c-0.1,0.3-0.1,0.5-0.1,0.8s0,0.6,0.1,0.8c0.1,0.3,0.2,0.5,0.4,0.7c0.2,0.2,0.4,0.3,0.6,0.4s0.5,0.2,0.8,0.2c0.3,0,0.6-0.1,0.8-0.2
			c0.2-0.1,0.4-0.3,0.6-0.4c0.2-0.2,0.3-0.4,0.4-0.7c0.1-0.2,0.1-0.5,0.1-0.8c0-0.3,0-0.6-0.1-0.8c-0.1-0.3-0.2-0.5-0.3-0.7
			c-0.2-0.2-0.4-0.3-0.6-0.4c-0.2-0.1-0.5-0.2-0.8-0.2S174.2,109.1,174,109.2z"/>
		<path fill="#323232" d="M185,110.9v1h-1.2v2.2h-1v-2.2h-4v-1.1l4.2-6h0.9v6.1H185z M182.7,106.4L182.7,106.4l-3.1,4.5h3.1V106.4z"
			/>
		<path fill="#323232" d="M189.5,107.3h1.4l1.6,2.4l1.7-2.4h1.3l-2.3,3.1l2.6,3.6h-1.4l-1.9-2.8l-1.9,2.8h-1.3l2.5-3.5L189.5,107.3z
			"/>
		<path fill="#323232" d="M204.4,106.1c-0.3-0.3-0.6-0.4-1.1-0.4c-0.5,0-0.8,0.1-1.1,0.3s-0.5,0.5-0.7,0.9c-0.2,0.4-0.3,0.7-0.3,1.1
			c-0.1,0.4-0.1,0.8-0.1,1.1l0,0c0.3-0.4,0.6-0.7,1-0.9c0.4-0.2,0.8-0.3,1.3-0.3c0.4,0,0.8,0.1,1.2,0.2c0.3,0.2,0.6,0.4,0.9,0.6
			c0.2,0.3,0.4,0.6,0.6,0.9c0.1,0.4,0.2,0.8,0.2,1.2c0,0.3-0.1,0.7-0.2,1.1c-0.1,0.4-0.3,0.7-0.5,1s-0.6,0.5-0.9,0.7
			s-0.9,0.3-1.5,0.3c-0.7,0-1.2-0.1-1.7-0.4c-0.4-0.3-0.7-0.6-1-1.1c-0.2-0.4-0.4-0.9-0.4-1.4c-0.1-0.5-0.1-1-0.1-1.5
			c0-0.6,0.1-1.2,0.2-1.8c0.1-0.6,0.3-1.1,0.6-1.6c0.3-0.5,0.6-0.8,1-1.1s1-0.4,1.6-0.4c0.8,0,1.4,0.2,1.8,0.6
			c0.5,0.4,0.7,1,0.8,1.7h-1.1C204.8,106.7,204.7,106.4,204.4,106.1z M202.4,109.2c-0.2,0.1-0.4,0.3-0.6,0.4s-0.3,0.4-0.4,0.7
			s-0.1,0.5-0.1,0.8s0,0.6,0.1,0.8c0.1,0.3,0.2,0.5,0.4,0.7s0.4,0.3,0.6,0.4s0.5,0.2,0.8,0.2c0.3,0,0.6-0.1,0.8-0.2s0.4-0.3,0.6-0.4
			c0.2-0.2,0.3-0.4,0.4-0.7c0.1-0.2,0.1-0.5,0.1-0.8c0-0.3,0-0.6-0.1-0.8c-0.1-0.3-0.2-0.5-0.3-0.7c-0.2-0.2-0.4-0.3-0.6-0.4
			c-0.2-0.1-0.5-0.2-0.8-0.2S202.6,109.1,202.4,109.2z"/>
		<path fill="#323232" d="M213.4,110.9v1h-1.2v2.2h-1v-2.2h-4v-1.1l4.2-6h0.9v6.1H213.4z M211.2,106.4L211.2,106.4l-3.1,4.5h3.1
			V106.4z"/>
		<path fill="#323232" d="M219.6,107.3v0.9h0c0.2-0.4,0.5-0.6,0.9-0.8c0.4-0.2,0.8-0.3,1.3-0.3c0.5,0,1,0.1,1.4,0.3s0.7,0.4,1,0.8
			c0.3,0.3,0.4,0.7,0.6,1.1c0.1,0.4,0.2,0.9,0.2,1.4s-0.1,0.9-0.2,1.4c-0.1,0.4-0.3,0.8-0.6,1.1c-0.3,0.3-0.6,0.6-1,0.7
			c-0.4,0.2-0.8,0.3-1.3,0.3c-0.2,0-0.3,0-0.6-0.1c-0.2,0-0.4-0.1-0.6-0.2c-0.2-0.1-0.4-0.2-0.6-0.3s-0.3-0.3-0.4-0.5h0v3.5h-1.1
			v-9.3H219.6z M223.5,109.7c-0.1-0.3-0.2-0.6-0.4-0.8c-0.2-0.2-0.4-0.4-0.6-0.6s-0.6-0.2-0.9-0.2c-0.4,0-0.7,0.1-0.9,0.2
			s-0.5,0.3-0.6,0.6s-0.3,0.5-0.4,0.8s-0.1,0.6-0.1,0.9c0,0.3,0,0.6,0.1,1s0.2,0.6,0.4,0.8c0.2,0.2,0.4,0.4,0.7,0.6
			c0.3,0.1,0.6,0.2,1,0.2c0.4,0,0.7-0.1,1-0.2s0.5-0.3,0.6-0.6c0.2-0.2,0.3-0.5,0.3-0.8c0.1-0.3,0.1-0.6,0.1-1
			C223.7,110.3,223.6,110,223.5,109.7z"/>
		<path fill="#323232" d="M225.6,107.3h1.4l1.6,2.4l1.7-2.4h1.3l-2.3,3.1l2.6,3.6h-1.4l-1.9-2.8l-1.9,2.8h-1.3l2.5-3.5L225.6,107.3z
			"/>
	</g>
</g>
<g>
	<g>
		<path fill="#323232" d="M380.5,150v-6.6h-2.4v-0.9c0.3,0,0.6,0,0.9-0.1c0.3,0,0.6-0.1,0.8-0.3s0.4-0.3,0.6-0.5
			c0.2-0.2,0.3-0.5,0.3-0.9h0.8v9.2H380.5z"/>
		<path fill="#323232" d="M384.9,142.7c0.1-0.4,0.3-0.7,0.6-1c0.3-0.3,0.6-0.5,1-0.7c0.4-0.2,0.8-0.2,1.3-0.2c0.4,0,0.8,0.1,1.1,0.2
			c0.4,0.1,0.7,0.3,0.9,0.5c0.3,0.2,0.5,0.5,0.6,0.8c0.2,0.3,0.2,0.7,0.2,1.1c0,0.4-0.1,0.8-0.2,1.1c-0.1,0.3-0.3,0.6-0.5,0.8
			c-0.2,0.2-0.4,0.5-0.7,0.7c-0.3,0.2-0.5,0.4-0.8,0.6c-0.3,0.2-0.6,0.3-0.9,0.5s-0.5,0.3-0.8,0.5c-0.2,0.2-0.4,0.4-0.6,0.6
			s-0.3,0.5-0.3,0.8h4.7v1h-6c0-0.5,0.1-1,0.3-1.4c0.2-0.4,0.3-0.7,0.6-1c0.2-0.3,0.5-0.5,0.8-0.8s0.6-0.4,0.9-0.6
			c0.4-0.2,0.7-0.5,1-0.7c0.3-0.2,0.5-0.4,0.7-0.6c0.2-0.2,0.3-0.4,0.4-0.7c0.1-0.2,0.1-0.5,0.1-0.8c0-0.3,0-0.5-0.1-0.7
			c-0.1-0.2-0.2-0.4-0.4-0.5s-0.3-0.3-0.6-0.3c-0.2-0.1-0.4-0.1-0.7-0.1c-0.3,0-0.6,0.1-0.8,0.2c-0.2,0.1-0.4,0.3-0.6,0.5
			s-0.3,0.5-0.3,0.7c-0.1,0.3-0.1,0.5-0.1,0.8h-1.1C384.7,143.6,384.8,143.1,384.9,142.7z"/>
		<path fill="#323232" d="M392.5,142.1c0.1-0.3,0.3-0.5,0.6-0.7c0.3-0.2,0.5-0.4,0.9-0.5c0.3-0.1,0.7-0.2,1-0.2
			c0.5,0,0.9,0.1,1.3,0.2c0.4,0.1,0.6,0.3,0.9,0.5s0.4,0.5,0.5,0.8c0.1,0.3,0.2,0.6,0.2,0.9c0,0.4-0.1,0.8-0.3,1.1
			c-0.2,0.3-0.5,0.6-0.9,0.8c0.6,0.2,1,0.5,1.2,0.9s0.4,0.9,0.4,1.4c0,0.5-0.1,0.8-0.2,1.2c-0.2,0.3-0.4,0.6-0.6,0.9
			c-0.3,0.2-0.6,0.4-1,0.5s-0.8,0.2-1.2,0.2c-0.4,0-0.9-0.1-1.2-0.2c-0.4-0.1-0.7-0.3-1-0.5s-0.5-0.5-0.7-0.9
			c-0.2-0.4-0.2-0.8-0.2-1.2c0-0.5,0.1-1,0.4-1.4c0.3-0.4,0.7-0.7,1.2-0.9c-0.4-0.2-0.7-0.4-0.9-0.8c-0.2-0.4-0.4-0.7-0.4-1.2
			C392.2,142.8,392.3,142.4,392.5,142.1z M393.6,148.7c0.4,0.3,0.8,0.5,1.4,0.5c0.3,0,0.5,0,0.8-0.1c0.2-0.1,0.4-0.2,0.6-0.4
			c0.2-0.2,0.3-0.3,0.4-0.6c0.1-0.2,0.1-0.5,0.1-0.7c0-0.3-0.1-0.5-0.2-0.7c-0.1-0.2-0.2-0.4-0.4-0.6c-0.2-0.2-0.4-0.3-0.6-0.4
			c-0.2-0.1-0.5-0.1-0.7-0.1c-0.3,0-0.5,0-0.8,0.1c-0.2,0.1-0.4,0.2-0.6,0.4c-0.2,0.2-0.3,0.3-0.4,0.6s-0.1,0.5-0.1,0.7
			C393.1,148,393.3,148.4,393.6,148.7z M393.5,143.8c0.1,0.2,0.2,0.3,0.4,0.5c0.1,0.1,0.3,0.2,0.5,0.3c0.2,0.1,0.4,0.1,0.6,0.1
			c0.4,0,0.8-0.1,1.1-0.4c0.3-0.3,0.4-0.6,0.4-1.1s-0.1-0.8-0.4-1.1c-0.3-0.2-0.7-0.4-1.1-0.4c-0.2,0-0.4,0-0.6,0.1
			c-0.2,0.1-0.4,0.2-0.5,0.3s-0.3,0.3-0.3,0.4c-0.1,0.2-0.1,0.4-0.1,0.6C393.4,143.4,393.5,143.6,393.5,143.8z"/>
		<path fill="#323232" d="M406.2,143.3h1.4l1.6,2.4l1.7-2.4h1.3l-2.3,3.1l2.6,3.6h-1.4l-1.9-2.8l-1.9,2.8H406l2.5-3.5L406.2,143.3z"
			/>
		<path fill="#323232" d="M419.7,150v-6.6h-2.4v-0.9c0.3,0,0.6,0,0.9-0.1c0.3,0,0.6-0.1,0.8-0.3s0.4-0.3,0.6-0.5
			c0.2-0.2,0.3-0.5,0.3-0.9h0.8v9.2H419.7z"/>
		<path fill="#323232" d="M424.1,142.7c0.1-0.4,0.3-0.7,0.6-1c0.3-0.3,0.6-0.5,1-0.7c0.4-0.2,0.8-0.2,1.3-0.2c0.4,0,0.8,0.1,1.1,0.2
			c0.4,0.1,0.7,0.3,0.9,0.5c0.3,0.2,0.5,0.5,0.6,0.8c0.2,0.3,0.2,0.7,0.2,1.1c0,0.4-0.1,0.8-0.2,1.1c-0.1,0.3-0.3,0.6-0.5,0.8
			c-0.2,0.2-0.4,0.5-0.7,0.7c-0.3,0.2-0.5,0.4-0.8,0.6c-0.3,0.2-0.6,0.3-0.9,0.5s-0.5,0.3-0.8,0.5c-0.2,0.2-0.4,0.4-0.6,0.6
			s-0.3,0.5-0.3,0.8h4.7v1h-6c0-0.5,0.1-1,0.3-1.4c0.2-0.4,0.3-0.7,0.6-1c0.2-0.3,0.5-0.5,0.8-0.8s0.6-0.4,0.9-0.6
			c0.4-0.2,0.7-0.5,1-0.7c0.3-0.2,0.5-0.4,0.7-0.6c0.2-0.2,0.3-0.4,0.4-0.7c0.1-0.2,0.1-0.5,0.1-0.8c0-0.3,0-0.5-0.1-0.7
			c-0.1-0.2-0.2-0.4-0.4-0.5s-0.3-0.3-0.6-0.3c-0.2-0.1-0.4-0.1-0.7-0.1c-0.3,0-0.6,0.1-0.8,0.2c-0.2,0.1-0.4,0.3-0.6,0.5
			s-0.3,0.5-0.3,0.7c-0.1,0.3-0.1,0.5-0.1,0.8H424C424,143.6,424,143.1,424.1,142.7z"/>
		<path fill="#323232" d="M431.7,142.1c0.1-0.3,0.3-0.5,0.6-0.7c0.3-0.2,0.5-0.4,0.9-0.5c0.3-0.1,0.7-0.2,1-0.2
			c0.5,0,0.9,0.1,1.3,0.2c0.4,0.1,0.6,0.3,0.9,0.5s0.4,0.5,0.5,0.8c0.1,0.3,0.2,0.6,0.2,0.9c0,0.4-0.1,0.8-0.3,1.1
			c-0.2,0.3-0.5,0.6-0.9,0.8c0.6,0.2,1,0.5,1.2,0.9s0.4,0.9,0.4,1.4c0,0.5-0.1,0.8-0.2,1.2c-0.2,0.3-0.4,0.6-0.6,0.9
			c-0.3,0.2-0.6,0.4-1,0.5s-0.8,0.2-1.2,0.2c-0.4,0-0.9-0.1-1.2-0.2c-0.4-0.1-0.7-0.3-1-0.5s-0.5-0.5-0.7-0.9
			c-0.2-0.4-0.2-0.8-0.2-1.2c0-0.5,0.1-1,0.4-1.4c0.3-0.4,0.7-0.7,1.2-0.9c-0.4-0.2-0.7-0.4-0.9-0.8c-0.2-0.4-0.4-0.7-0.4-1.2
			C431.5,142.8,431.6,142.4,431.7,142.1z M432.9,148.7c0.4,0.3,0.8,0.5,1.4,0.5c0.3,0,0.5,0,0.8-0.1c0.2-0.1,0.4-0.2,0.6-0.4
			c0.2-0.2,0.3-0.3,0.4-0.6c0.1-0.2,0.1-0.5,0.1-0.7c0-0.3-0.1-0.5-0.2-0.7c-0.1-0.2-0.2-0.4-0.4-0.6c-0.2-0.2-0.4-0.3-0.6-0.4
			c-0.2-0.1-0.5-0.1-0.7-0.1c-0.3,0-0.5,0-0.8,0.1c-0.2,0.1-0.4,0.2-0.6,0.4c-0.2,0.2-0.3,0.3-0.4,0.6s-0.1,0.5-0.1,0.7
			C432.3,148,432.5,148.4,432.9,148.7z M432.8,143.8c0.1,0.2,0.2,0.3,0.4,0.5c0.1,0.1,0.3,0.2,0.5,0.3c0.2,0.1,0.4,0.1,0.6,0.1
			c0.4,0,0.8-0.1,1.1-0.4c0.3-0.3,0.4-0.6,0.4-1.1s-0.1-0.8-0.4-1.1c-0.3-0.2-0.7-0.4-1.1-0.4c-0.2,0-0.4,0-0.6,0.1
			c-0.2,0.1-0.4,0.2-0.5,0.3s-0.3,0.3-0.3,0.4c-0.1,0.2-0.1,0.4-0.1,0.6C432.7,143.4,432.7,143.6,432.8,143.8z"/>
		<path fill="#323232" d="M443.5,143.3v0.9h0c0.2-0.4,0.5-0.6,0.9-0.8c0.4-0.2,0.8-0.3,1.3-0.3c0.5,0,1,0.1,1.4,0.3s0.7,0.4,1,0.8
			c0.3,0.3,0.4,0.7,0.6,1.1c0.1,0.4,0.2,0.9,0.2,1.4s-0.1,0.9-0.2,1.4c-0.1,0.4-0.3,0.8-0.6,1.1c-0.3,0.3-0.6,0.6-1,0.7
			c-0.4,0.2-0.8,0.3-1.3,0.3c-0.2,0-0.3,0-0.6-0.1c-0.2,0-0.4-0.1-0.6-0.2c-0.2-0.1-0.4-0.2-0.6-0.3s-0.3-0.3-0.4-0.5h0v3.5h-1.1
			v-9.3H443.5z M447.4,145.7c-0.1-0.3-0.2-0.6-0.4-0.8c-0.2-0.2-0.4-0.4-0.6-0.6s-0.6-0.2-0.9-0.2c-0.4,0-0.7,0.1-0.9,0.2
			s-0.5,0.3-0.6,0.6s-0.3,0.5-0.4,0.8s-0.1,0.6-0.1,0.9c0,0.3,0,0.6,0.1,1s0.2,0.6,0.4,0.8c0.2,0.2,0.4,0.4,0.7,0.6
			c0.3,0.1,0.6,0.2,1,0.2c0.4,0,0.7-0.1,1-0.2s0.5-0.3,0.6-0.6c0.2-0.2,0.3-0.5,0.3-0.8c0.1-0.3,0.1-0.6,0.1-1
			C447.6,146.3,447.5,146,447.4,145.7z"/>
		<path fill="#323232" d="M449.5,143.3h1.4l1.6,2.4l1.7-2.4h1.3l-2.3,3.1l2.6,3.6h-1.4l-1.9-2.8l-1.9,2.8h-1.3l2.5-3.5L449.5,143.3z
			"/>
	</g>
</g>
</svg>
