<?xml version="1.0" encoding="utf-8"?>
<!-- Generator: Adobe Illustrator 17.1.0, SVG Export Plug-In . SVG Version: 6.00 Build 0)  -->
<!DOCTYPE svg PUBLIC "-//W3C//DTD SVG 1.1//EN" "http://www.w3.org/Graphics/SVG/1.1/DTD/svg11.dtd">
<svg version="1.1" xmlns="http://www.w3.org/2000/svg" xmlns:xlink="http://www.w3.org/1999/xlink" x="0px" y="0px"
	 viewBox="0 0 310 180" width="310" height="180"  enable-background="new 0 0 310 180" xml:space="preserve">
<g id="Layer_1">
	<rect x="32.5" y="97.999" fill="#464646" width="244.813" height="82"/>
	<rect x="117.731" y="0" fill="#EED2FF" width="82" height="82"/>
	<rect x="142.731" y="16" fill="#9855D4" width="32" height="32"/>
	<rect x="128.731" y="55" fill="#D7AAFF" width="61" height="12"/>
	<rect x="32.501" y="98" fill="#121212" width="82" height="82"/>
	<path fill="#FFFFFF" d="M56.351,157.337c0.695-0.711,1.58-1.066,2.654-1.066c1.438,0,2.489,0.477,3.154,1.43
		c0.366,0.535,0.563,1.072,0.591,1.611h-1.805c-0.115-0.414-0.262-0.727-0.442-0.938c-0.321-0.375-0.798-0.562-1.429-0.562
		c-0.644,0-1.15,0.265-1.521,0.794s-0.557,1.278-0.557,2.247s0.196,1.694,0.588,2.177s0.889,0.724,1.492,0.724
		c0.619,0,1.092-0.207,1.416-0.621c0.18-0.223,0.329-0.557,0.447-1.002h1.793c-0.154,0.941-0.55,1.707-1.186,2.297
		s-1.45,0.885-2.443,0.885c-1.229,0-2.195-0.398-2.898-1.195c-0.703-0.801-1.055-1.898-1.055-3.293
		C55.15,159.316,55.551,158.154,56.351,157.337z"/>
	<path fill="#FFFFFF" d="M66.586,161.187c0.312-0.039,0.533-0.088,0.667-0.146c0.24-0.102,0.36-0.26,0.36-0.475
		c0-0.262-0.092-0.442-0.276-0.542c-0.184-0.1-0.454-0.149-0.811-0.149c-0.399,0-0.683,0.098-0.85,0.293
		c-0.118,0.145-0.198,0.34-0.237,0.586h-1.611c0.035-0.559,0.192-1.018,0.471-1.377c0.443-0.562,1.204-0.844,2.283-0.844
		c0.702,0,1.326,0.139,1.871,0.416c0.546,0.277,0.818,0.801,0.818,1.57v2.93c0,0.203,0.004,0.449,0.012,0.738
		c0.012,0.219,0.045,0.367,0.1,0.445s0.137,0.143,0.246,0.193v0.246h-1.816c-0.051-0.129-0.086-0.25-0.105-0.363
		s-0.035-0.242-0.047-0.387c-0.231,0.25-0.499,0.463-0.802,0.639c-0.361,0.207-0.77,0.311-1.226,0.311
		c-0.582,0-1.062-0.165-1.441-0.495c-0.379-0.33-0.568-0.798-0.568-1.403c0-0.785,0.305-1.354,0.915-1.705
		c0.334-0.191,0.826-0.328,1.476-0.41L66.586,161.187z M67.607,161.966c-0.107,0.066-0.215,0.12-0.324,0.161
		c-0.108,0.041-0.258,0.079-0.448,0.114l-0.38,0.07c-0.356,0.062-0.612,0.139-0.768,0.229c-0.263,0.152-0.395,0.389-0.395,0.709
		c0,0.285,0.08,0.491,0.241,0.618c0.16,0.127,0.355,0.19,0.586,0.19c0.365,0,0.701-0.105,1.009-0.316
		c0.307-0.211,0.467-0.596,0.479-1.154V161.966z"/>
	<path fill="#FFFFFF" d="M70.074,159.933v-1.189h0.891v-1.781h1.652v1.781h1.037v1.189h-1.037v3.375c0,0.262,0.033,0.425,0.1,0.489
		s0.27,0.097,0.609,0.097c0.051,0,0.104-0.001,0.161-0.003s0.112-0.005,0.167-0.009v1.248l-0.791,0.029
		c-0.789,0.027-1.328-0.109-1.617-0.41c-0.188-0.191-0.281-0.486-0.281-0.885v-3.932H70.074z"/>
	<path fill="#FFFFFF" d="M77.256,161.187c0.312-0.039,0.533-0.088,0.667-0.146c0.24-0.102,0.36-0.26,0.36-0.475
		c0-0.262-0.092-0.442-0.276-0.542c-0.184-0.1-0.454-0.149-0.811-0.149c-0.399,0-0.683,0.098-0.85,0.293
		c-0.118,0.145-0.198,0.34-0.237,0.586h-1.611c0.035-0.559,0.192-1.018,0.471-1.377c0.443-0.562,1.204-0.844,2.283-0.844
		c0.702,0,1.326,0.139,1.871,0.416c0.546,0.277,0.818,0.801,0.818,1.57v2.93c0,0.203,0.004,0.449,0.012,0.738
		c0.012,0.219,0.045,0.367,0.1,0.445s0.137,0.143,0.246,0.193v0.246h-1.816c-0.051-0.129-0.086-0.25-0.105-0.363
		s-0.035-0.242-0.047-0.387c-0.231,0.25-0.499,0.463-0.802,0.639c-0.361,0.207-0.77,0.311-1.226,0.311
		c-0.582,0-1.062-0.165-1.441-0.495c-0.379-0.33-0.568-0.798-0.568-1.403c0-0.785,0.305-1.354,0.915-1.705
		c0.334-0.191,0.826-0.328,1.476-0.41L77.256,161.187z M78.277,161.966c-0.107,0.066-0.215,0.12-0.324,0.161
		c-0.108,0.041-0.258,0.079-0.448,0.114l-0.38,0.07c-0.356,0.062-0.612,0.139-0.768,0.229c-0.263,0.152-0.395,0.389-0.395,0.709
		c0,0.285,0.08,0.491,0.241,0.618c0.16,0.127,0.355,0.19,0.586,0.19c0.365,0,0.701-0.105,1.009-0.316
		c0.307-0.211,0.467-0.596,0.479-1.154V161.966z"/>
	<path fill="#FFFFFF" d="M83.105,165.072h-1.67v-8.637h1.67V165.072z"/>
	<path fill="#FFFFFF" d="M90.061,164.29c-0.539,0.665-1.357,0.998-2.455,0.998s-1.916-0.333-2.455-0.998
		c-0.539-0.666-0.809-1.467-0.809-2.403c0-0.921,0.27-1.72,0.809-2.395s1.357-1.013,2.455-1.013s1.916,0.338,2.455,1.013
		s0.809,1.474,0.809,2.395C90.869,162.823,90.6,163.624,90.061,164.29z M88.725,163.367c0.262-0.348,0.393-0.841,0.393-1.48
		s-0.131-1.133-0.393-1.478s-0.637-0.518-1.125-0.518s-0.864,0.173-1.128,0.518s-0.396,0.838-0.396,1.478s0.132,1.133,0.396,1.48
		c0.264,0.347,0.64,0.521,1.128,0.521S88.463,163.714,88.725,163.367z"/>
	<path fill="#FFFFFF" d="M95.224,158.679c0.406,0.168,0.733,0.477,0.983,0.926v-0.92h1.629v6.059c0,0.824-0.139,1.445-0.416,1.863
		c-0.477,0.719-1.391,1.078-2.742,1.078c-0.816,0-1.482-0.16-1.998-0.48s-0.801-0.799-0.855-1.436h1.816
		c0.047,0.195,0.123,0.336,0.229,0.422c0.18,0.152,0.482,0.229,0.908,0.229c0.602,0,1.004-0.201,1.207-0.604
		c0.133-0.258,0.199-0.691,0.199-1.301v-0.41c-0.16,0.273-0.332,0.479-0.516,0.615c-0.332,0.254-0.764,0.381-1.295,0.381
		c-0.82,0-1.476-0.288-1.966-0.864s-0.735-1.356-0.735-2.341c0-0.949,0.236-1.747,0.708-2.394s1.142-0.97,2.007-0.97
		C94.707,158.532,94.986,158.581,95.224,158.679z M95.793,163.258c0.269-0.295,0.402-0.765,0.402-1.409
		c0-0.605-0.127-1.066-0.382-1.383s-0.597-0.475-1.024-0.475c-0.583,0-0.986,0.275-1.208,0.826
		c-0.116,0.293-0.175,0.654-0.175,1.084c0,0.371,0.062,0.701,0.187,0.99c0.226,0.539,0.63,0.809,1.214,0.809
		C95.195,163.7,95.524,163.553,95.793,163.258z"/>
	<path fill="#FFFFFF" d="M144.659,156.36h2.042l3.056,8.637H147.8l-0.57-1.775h-3.18l-0.586,1.775h-1.888L144.659,156.36z
		 M144.54,161.733h2.212l-1.091-3.398L144.54,161.733z"/>
	<path fill="#FFFFFF" d="M156.174,159.377c0.478,0.605,0.717,1.387,0.717,2.344c0,0.992-0.235,1.814-0.707,2.467
		c-0.471,0.652-1.129,0.979-1.973,0.979c-0.53,0-0.956-0.105-1.278-0.316c-0.192-0.125-0.4-0.344-0.624-0.656v0.803h-1.646v-8.625
		h1.67v3.07c0.212-0.297,0.446-0.523,0.702-0.68c0.303-0.195,0.688-0.293,1.155-0.293
		C155.035,158.469,155.696,158.772,156.174,159.377z M154.778,163.268c0.24-0.348,0.36-0.805,0.36-1.371
		c0-0.453-0.06-0.828-0.178-1.125c-0.224-0.562-0.638-0.844-1.24-0.844c-0.61,0-1.03,0.275-1.258,0.826
		c-0.119,0.293-0.178,0.672-0.178,1.137c0,0.547,0.122,1,0.366,1.359s0.616,0.539,1.116,0.539
		C154.201,163.789,154.538,163.615,154.778,163.268z"/>
	<path fill="#FFFFFF" d="M163.377,164.215c-0.539,0.666-1.357,0.998-2.455,0.998s-1.916-0.333-2.455-0.998s-0.809-1.467-0.809-2.403
		c0-0.921,0.27-1.719,0.809-2.395c0.539-0.675,1.357-1.013,2.455-1.013s1.916,0.338,2.455,1.013
		c0.539,0.675,0.809,1.474,0.809,2.395C164.186,162.748,163.916,163.55,163.377,164.215z M162.041,163.292
		c0.262-0.347,0.393-0.841,0.393-1.48s-0.131-1.132-0.393-1.478c-0.262-0.345-0.637-0.518-1.125-0.518s-0.864,0.173-1.128,0.518
		c-0.264,0.345-0.396,0.838-0.396,1.478s0.132,1.133,0.396,1.48s0.64,0.521,1.128,0.521S161.779,163.639,162.041,163.292z"/>
	<path fill="#FFFFFF" d="M167.045,158.61v3.85c0,0.363,0.043,0.637,0.128,0.82c0.152,0.324,0.449,0.486,0.893,0.486
		c0.567,0,0.956-0.23,1.166-0.691c0.108-0.25,0.163-0.58,0.163-0.99v-3.475h1.693v6.387h-1.623v-0.902
		c-0.016,0.02-0.055,0.078-0.117,0.176c-0.062,0.098-0.136,0.184-0.222,0.258c-0.261,0.234-0.514,0.395-0.757,0.48
		s-0.528,0.129-0.855,0.129c-0.943,0-1.578-0.34-1.905-1.02c-0.183-0.375-0.274-0.928-0.274-1.658v-3.85H167.045z"/>
	<path fill="#FFFFFF" d="M172.055,159.858v-1.189h0.891v-1.781h1.652v1.781h1.037v1.189h-1.037v3.375c0,0.262,0.033,0.425,0.1,0.489
		s0.27,0.097,0.609,0.097c0.051,0,0.104-0.001,0.161-0.003s0.112-0.005,0.167-0.009v1.248l-0.791,0.029
		c-0.789,0.027-1.328-0.109-1.617-0.41c-0.188-0.191-0.281-0.486-0.281-0.885v-3.932H172.055z"/>
	<path fill="#FFFFFF" d="M217.238,162.547c0.056,0.395,0.166,0.689,0.329,0.885c0.299,0.355,0.812,0.533,1.537,0.533
		c0.435,0,0.788-0.047,1.06-0.141c0.515-0.18,0.771-0.514,0.771-1.002c0-0.285-0.126-0.506-0.378-0.662
		c-0.252-0.152-0.652-0.287-1.199-0.404l-0.935-0.205c-0.92-0.203-1.551-0.424-1.895-0.662c-0.582-0.398-0.873-1.021-0.873-1.869
		c0-0.773,0.284-1.416,0.854-1.928c0.569-0.512,1.405-0.768,2.509-0.768c0.921,0,1.707,0.241,2.357,0.724s0.992,1.183,1.023,2.101
		h-1.734c-0.032-0.52-0.265-0.889-0.697-1.107c-0.288-0.145-0.646-0.217-1.075-0.217c-0.477,0-0.856,0.094-1.141,0.281
		s-0.427,0.449-0.427,0.785c0,0.309,0.141,0.539,0.421,0.691c0.18,0.102,0.562,0.221,1.147,0.357l1.516,0.357
		c0.664,0.156,1.162,0.365,1.493,0.627c0.515,0.406,0.772,0.994,0.772,1.764c0,0.789-0.305,1.444-0.915,1.966
		s-1.472,0.782-2.585,0.782c-1.138,0-2.031-0.257-2.683-0.771c-0.652-0.514-0.978-1.22-0.978-2.118H217.238z"/>
	<path fill="#FFFFFF" d="M227.969,158.955c0.445,0.2,0.813,0.515,1.104,0.945c0.262,0.379,0.431,0.819,0.509,1.32
		c0.045,0.293,0.063,0.716,0.055,1.268h-4.651c0.026,0.641,0.249,1.09,0.668,1.348c0.255,0.16,0.562,0.24,0.921,0.24
		c0.38,0,0.689-0.098,0.927-0.293c0.13-0.105,0.244-0.252,0.344-0.439h1.705c-0.045,0.379-0.251,0.764-0.619,1.154
		c-0.572,0.621-1.373,0.932-2.402,0.932c-0.851,0-1.601-0.262-2.25-0.786s-0.975-1.376-0.975-2.557c0-1.106,0.293-1.955,0.88-2.545
		s1.348-0.886,2.284-0.886C227.022,158.656,227.523,158.756,227.969,158.955z M225.471,160.398
		c-0.236,0.244-0.385,0.573-0.445,0.989h2.877c-0.03-0.443-0.179-0.78-0.445-1.009c-0.266-0.229-0.596-0.344-0.99-0.344
		C226.038,160.033,225.706,160.155,225.471,160.398z"/>
	<path fill="#FFFFFF" d="M234.028,158.676c0.021,0.002,0.069,0.005,0.144,0.009v1.711c-0.105-0.012-0.199-0.02-0.281-0.023
		s-0.148-0.006-0.199-0.006c-0.672,0-1.123,0.219-1.354,0.656c-0.129,0.246-0.193,0.625-0.193,1.137v3.053h-1.682v-6.387h1.594
		v1.113c0.258-0.426,0.482-0.717,0.674-0.873c0.312-0.262,0.719-0.393,1.219-0.393C233.98,158.674,234.007,158.675,234.028,158.676z
		"/>
	<path fill="#FFFFFF" d="M239.085,158.826h1.793l-2.307,6.387h-1.761l-2.29-6.387h1.875l1.33,4.711L239.085,158.826z"/>
	<path fill="#FFFFFF" d="M243.541,158.064h-1.693v-1.541h1.693V158.064z M241.848,158.826h1.693v6.387h-1.693V158.826z"/>
	<path fill="#FFFFFF" d="M248.978,161.117c-0.031-0.238-0.111-0.453-0.241-0.645c-0.188-0.258-0.479-0.387-0.875-0.387
		c-0.563,0-0.949,0.279-1.157,0.838c-0.109,0.296-0.164,0.689-0.164,1.181c0,0.468,0.055,0.844,0.164,1.128
		c0.2,0.531,0.576,0.797,1.128,0.797c0.392,0,0.67-0.105,0.834-0.316c0.165-0.211,0.265-0.484,0.3-0.82h1.705
		c-0.039,0.508-0.223,0.988-0.552,1.441c-0.523,0.73-1.3,1.096-2.328,1.096s-1.785-0.305-2.27-0.914
		c-0.485-0.609-0.728-1.399-0.728-2.37c0-1.096,0.268-1.948,0.804-2.558c0.535-0.609,1.274-0.914,2.217-0.914
		c0.802,0,1.458,0.18,1.968,0.539c0.511,0.359,0.812,0.994,0.906,1.904H248.978z"/>
	<path fill="#FFFFFF" d="M255.994,158.955c0.445,0.2,0.813,0.515,1.104,0.945c0.262,0.379,0.431,0.819,0.509,1.32
		c0.045,0.293,0.063,0.716,0.055,1.268h-4.651c0.026,0.641,0.249,1.09,0.668,1.348c0.255,0.16,0.562,0.24,0.921,0.24
		c0.38,0,0.689-0.098,0.927-0.293c0.13-0.105,0.244-0.252,0.344-0.439h1.705c-0.045,0.379-0.251,0.764-0.619,1.154
		c-0.572,0.621-1.373,0.932-2.402,0.932c-0.851,0-1.601-0.262-2.25-0.786s-0.975-1.376-0.975-2.557c0-1.106,0.293-1.955,0.88-2.545
		s1.348-0.886,2.284-0.886C255.048,158.656,255.549,158.756,255.994,158.955z M253.496,160.398
		c-0.236,0.244-0.385,0.573-0.445,0.989h2.877c-0.03-0.443-0.179-0.78-0.445-1.009c-0.266-0.229-0.596-0.344-0.99-0.344
		C254.063,160.033,253.731,160.155,253.496,160.398z"/>
	<path fill="#FFFFFF" d="M259.801,163.174c0.035,0.297,0.112,0.508,0.229,0.633c0.208,0.223,0.593,0.334,1.154,0.334
		c0.329,0,0.592-0.049,0.786-0.146s0.291-0.244,0.291-0.439c0-0.188-0.078-0.33-0.234-0.428c-0.157-0.098-0.739-0.266-1.747-0.504
		c-0.726-0.18-1.237-0.404-1.534-0.674c-0.297-0.266-0.445-0.648-0.445-1.148c0-0.59,0.231-1.097,0.695-1.521
		c0.465-0.424,1.117-0.636,1.959-0.636c0.799,0,1.449,0.159,1.952,0.478s0.792,0.868,0.866,1.649h-1.67
		c-0.023-0.215-0.084-0.385-0.182-0.51c-0.185-0.227-0.498-0.34-0.94-0.34c-0.364,0-0.624,0.057-0.778,0.17
		c-0.155,0.113-0.232,0.246-0.232,0.398c0,0.191,0.082,0.33,0.247,0.416c0.164,0.09,0.745,0.244,1.743,0.463
		c0.665,0.156,1.164,0.393,1.496,0.709c0.328,0.32,0.492,0.721,0.492,1.201c0,0.633-0.236,1.149-0.707,1.55
		c-0.473,0.4-1.201,0.601-2.188,0.601c-1.006,0-1.749-0.212-2.229-0.636s-0.719-0.964-0.719-1.62H259.801z"/>
	<path fill="#FFFFFF" d="M82.575,115.157c-2.385,0-4.769,1.192-5.962,2.385c-1.192-1.192-3.577-2.385-5.962-2.385h-9.538v28.615
		h9.538c2.385,0,4.769,1.192,5.962,2.385c1.192-1.192,3.577-2.385,5.962-2.385h9.538v-28.615H82.575z M76.614,143.157
		c-1.601-0.996-3.733-1.769-5.962-1.769h-7.154v-23.846h7.154c1.621,0,3.446,0.858,4.275,1.686l1.686,1.687V143.157z
		 M88.537,135.426h-8.346v-1.192h8.346V135.426z M88.537,131.85h-8.346v-1.192h8.346V131.85z M88.537,128.273h-8.346v-1.192h8.346
		V128.273z M88.537,124.696h-8.346v-1.192h8.346V124.696z"/>
	<polygon fill="#FFFFFF" points="160.744,128.089 154.316,128.089 154.316,130.232 156.459,130.232 156.459,136.661
		154.316,136.661 154.316,138.804 162.887,138.804 162.887,136.661 160.744,136.661 	"/>
	<circle fill="#FFFFFF" cx="158.602" cy="123.804" r="2.143"/>
	<path fill="#FFFFFF" d="M158.602,115.232c-8.284,0-15,6.716-15,15s6.716,15,15,15s15-6.716,15-15S166.885,115.232,158.602,115.232z
		 M158.602,143.089c-7.09,0-12.857-5.768-12.857-12.857c0-7.089,5.767-12.857,12.857-12.857s12.857,5.768,12.857,12.857
		C171.459,137.321,165.691,143.089,158.602,143.089z"/>
	<path fill="#FFFFFF" d="M231.445,115.016h-4.133v31h4.133h20.667v-31H231.445z M250.045,143.949h-16.533v-26.867h6.2v14.467
		l4.133-4.133l4.133,4.133v-14.467h2.067V143.949z"/>
	<rect x="32.657" y="98" fill="none" width="244.656" height="82"/>
	<g>
		<path fill="#FFFFFF" d="M154.115,25.114c0.277-0.021,0.536-0.083,0.776-0.184c0.24-0.101,0.438-0.248,0.592-0.44
			s0.232-0.448,0.232-0.768c0-0.48-0.16-0.848-0.48-1.104c-0.319-0.256-0.688-0.384-1.104-0.384c-0.576,0-1.011,0.189-1.305,0.568
			c-0.293,0.378-0.435,0.856-0.424,1.432h-2.16c0.021-0.576,0.126-1.102,0.312-1.576s0.448-0.883,0.784-1.224
			s0.738-0.605,1.208-0.792c0.469-0.187,0.992-0.28,1.567-0.28c0.448,0,0.896,0.066,1.345,0.2c0.447,0.134,0.851,0.333,1.208,0.6
			c0.356,0.267,0.647,0.592,0.872,0.976c0.224,0.384,0.336,0.827,0.336,1.328c0,0.544-0.131,1.024-0.393,1.44
			s-0.653,0.699-1.176,0.848v0.032c0.618,0.139,1.104,0.438,1.456,0.896c0.352,0.459,0.528,1.008,0.528,1.648
			c0,0.587-0.115,1.109-0.345,1.568c-0.229,0.459-0.536,0.843-0.92,1.152s-0.826,0.544-1.328,0.704
			c-0.501,0.16-1.023,0.24-1.567,0.24c-0.63,0-1.203-0.091-1.721-0.272c-0.517-0.181-0.957-0.445-1.319-0.792
			c-0.363-0.347-0.643-0.771-0.84-1.272c-0.198-0.501-0.291-1.077-0.28-1.728h2.16c0.011,0.299,0.059,0.584,0.144,0.856
			c0.086,0.272,0.208,0.507,0.368,0.704s0.36,0.354,0.6,0.472c0.24,0.118,0.525,0.176,0.856,0.176c0.512,0,0.944-0.157,1.296-0.472
			c0.353-0.314,0.528-0.744,0.528-1.288c0-0.426-0.083-0.752-0.248-0.976c-0.166-0.224-0.376-0.387-0.632-0.488
			c-0.257-0.101-0.536-0.16-0.841-0.176c-0.304-0.016-0.595-0.024-0.871-0.024v-1.6C153.577,25.136,153.838,25.136,154.115,25.114z"
			/>
		<path fill="#FFFFFF" d="M159.396,23.106c0.17-0.549,0.426-1.029,0.768-1.44c0.341-0.41,0.771-0.73,1.288-0.96
			c0.518-0.229,1.112-0.344,1.784-0.344c0.512,0,1,0.08,1.464,0.24s0.872,0.39,1.224,0.688c0.353,0.299,0.632,0.667,0.84,1.104
			c0.208,0.438,0.312,0.928,0.312,1.472c0,0.565-0.091,1.051-0.272,1.456c-0.181,0.405-0.421,0.765-0.72,1.08
			c-0.299,0.314-0.638,0.6-1.016,0.856c-0.379,0.256-0.761,0.509-1.145,0.76c-0.384,0.251-0.757,0.52-1.12,0.808
			c-0.362,0.288-0.683,0.624-0.96,1.008h5.296v1.952h-8.224c0-0.65,0.094-1.216,0.28-1.696s0.439-0.91,0.76-1.288
			s0.696-0.728,1.128-1.048c0.432-0.32,0.888-0.645,1.368-0.976c0.245-0.171,0.507-0.344,0.784-0.52
			c0.277-0.176,0.53-0.371,0.76-0.584s0.421-0.454,0.576-0.72c0.154-0.267,0.231-0.57,0.231-0.912c0-0.544-0.157-0.968-0.472-1.272
			c-0.314-0.304-0.718-0.456-1.208-0.456c-0.331,0-0.61,0.078-0.84,0.232c-0.229,0.155-0.414,0.358-0.552,0.608
			c-0.139,0.25-0.238,0.528-0.296,0.832c-0.06,0.304-0.089,0.605-0.089,0.904h-2.176C159.15,24.25,159.225,23.656,159.396,23.106z"
			/>
	</g>
	<g>
		<rect x="96.731" y="1" fill="#9855D4" width="1" height="81"/>
	</g>
	<g>
		<rect x="90.731" y="81.316" fill="#9855D4" width="14" height="1"/>
	</g>
	<g>
		<rect x="90.731" y="0" fill="#9855D4" width="14" height="1"/>
	</g>
	<g>
		<path fill="#323232" d="M48.589,34.682c0.224-0.384,0.514-0.704,0.872-0.96c0.356-0.256,0.76-0.448,1.207-0.576
			c0.448-0.128,0.901-0.192,1.36-0.192c0.693,0,1.28,0.106,1.76,0.32c0.48,0.213,0.867,0.472,1.16,0.776
			c0.294,0.304,0.504,0.629,0.632,0.976s0.192,0.659,0.192,0.936c0,0.555-0.136,1.04-0.408,1.456
			c-0.271,0.416-0.68,0.715-1.224,0.896v0.032c0.672,0.15,1.189,0.467,1.552,0.952s0.544,1.08,0.544,1.784
			c0,0.597-0.12,1.115-0.36,1.552c-0.239,0.438-0.557,0.8-0.951,1.088c-0.396,0.288-0.843,0.504-1.345,0.648
			c-0.501,0.144-1.013,0.216-1.535,0.216c-0.545,0-1.07-0.067-1.576-0.2c-0.507-0.133-0.96-0.344-1.36-0.632s-0.72-0.65-0.96-1.088
			s-0.36-0.96-0.36-1.568c0-0.715,0.185-1.312,0.553-1.792c0.367-0.48,0.888-0.8,1.56-0.96v-0.032
			c-0.544-0.149-0.955-0.432-1.232-0.848s-0.415-0.901-0.415-1.456C48.253,35.509,48.364,35.066,48.589,34.682z M50.221,41.77
			c0.106,0.235,0.248,0.435,0.424,0.6s0.387,0.293,0.632,0.384c0.245,0.091,0.501,0.136,0.769,0.136c0.276,0,0.53-0.045,0.76-0.136
			c0.229-0.09,0.432-0.218,0.607-0.384c0.177-0.166,0.312-0.365,0.408-0.6c0.096-0.234,0.145-0.491,0.145-0.768
			c0-0.267-0.051-0.509-0.152-0.728c-0.102-0.218-0.24-0.408-0.416-0.568c-0.176-0.16-0.379-0.283-0.608-0.368
			s-0.478-0.128-0.743-0.128c-0.556,0-1.024,0.152-1.408,0.456c-0.384,0.304-0.576,0.744-0.576,1.32
			C50.06,41.274,50.113,41.536,50.221,41.77z M50.828,37.314c0.342,0.25,0.741,0.376,1.2,0.376c0.48,0,0.88-0.125,1.2-0.376
			s0.479-0.616,0.479-1.096c0-0.149-0.021-0.312-0.063-0.488c-0.043-0.176-0.126-0.344-0.248-0.504
			c-0.123-0.16-0.294-0.293-0.512-0.4c-0.219-0.107-0.504-0.16-0.856-0.16c-0.224,0-0.439,0.035-0.647,0.104
			s-0.393,0.168-0.553,0.296s-0.285,0.288-0.376,0.48s-0.136,0.416-0.136,0.672C50.316,36.698,50.487,37.064,50.828,37.314z"/>
		<path fill="#323232" d="M57.276,35.698c0.17-0.549,0.426-1.029,0.768-1.44c0.341-0.41,0.771-0.73,1.288-0.96
			c0.518-0.229,1.112-0.344,1.784-0.344c0.512,0,1,0.08,1.464,0.24s0.872,0.39,1.224,0.688c0.353,0.299,0.632,0.667,0.84,1.104
			c0.208,0.438,0.312,0.928,0.312,1.472c0,0.565-0.091,1.051-0.272,1.456c-0.181,0.405-0.421,0.765-0.72,1.08
			c-0.299,0.314-0.638,0.6-1.016,0.856c-0.379,0.256-0.761,0.509-1.145,0.76c-0.384,0.251-0.757,0.52-1.12,0.808
			c-0.362,0.288-0.683,0.624-0.96,1.008h5.296v1.952h-8.224c0-0.65,0.094-1.216,0.28-1.696s0.439-0.91,0.76-1.288
			s0.696-0.728,1.128-1.048c0.432-0.32,0.888-0.645,1.368-0.976c0.245-0.171,0.507-0.344,0.784-0.52
			c0.277-0.176,0.53-0.371,0.76-0.584s0.421-0.454,0.576-0.72c0.154-0.267,0.231-0.57,0.231-0.912c0-0.544-0.157-0.968-0.472-1.272
			c-0.314-0.304-0.718-0.456-1.208-0.456c-0.331,0-0.61,0.078-0.84,0.232c-0.229,0.155-0.414,0.358-0.552,0.608
			c-0.139,0.25-0.238,0.528-0.296,0.832c-0.06,0.304-0.089,0.605-0.089,0.904h-2.176C57.03,36.842,57.105,36.248,57.276,35.698z"/>
		<path fill="#323232" d="M67.788,36.106v1.12h0.032c0.225-0.458,0.576-0.792,1.056-1c0.48-0.208,1.009-0.312,1.584-0.312
			c0.641,0,1.197,0.117,1.673,0.352c0.475,0.234,0.869,0.552,1.184,0.952c0.314,0.4,0.552,0.862,0.712,1.384s0.24,1.077,0.24,1.664
			c0,0.586-0.077,1.141-0.232,1.664c-0.154,0.523-0.39,0.979-0.704,1.368c-0.314,0.39-0.709,0.696-1.184,0.92
			c-0.475,0.224-1.026,0.336-1.656,0.336c-0.202,0-0.43-0.021-0.68-0.064c-0.251-0.042-0.499-0.112-0.744-0.208
			c-0.245-0.096-0.478-0.226-0.696-0.392s-0.402-0.371-0.552-0.616h-0.032v4.256h-1.359V36.106H67.788z M72.677,39.042
			c-0.102-0.368-0.256-0.696-0.464-0.984c-0.208-0.288-0.476-0.518-0.801-0.688c-0.325-0.171-0.706-0.256-1.144-0.256
			c-0.459,0-0.848,0.091-1.168,0.272c-0.32,0.182-0.582,0.419-0.784,0.712c-0.203,0.293-0.35,0.626-0.44,1
			c-0.09,0.373-0.136,0.752-0.136,1.136c0,0.406,0.048,0.797,0.145,1.176c0.096,0.378,0.248,0.712,0.456,1
			c0.208,0.288,0.477,0.52,0.808,0.696c0.33,0.176,0.73,0.264,1.2,0.264c0.469,0,0.861-0.091,1.176-0.272
			c0.314-0.182,0.568-0.421,0.76-0.72c0.192-0.298,0.331-0.64,0.416-1.024c0.086-0.384,0.128-0.779,0.128-1.184
			C72.828,39.786,72.777,39.41,72.677,39.042z"/>
		<path fill="#323232" d="M75.213,36.106h1.744l1.983,2.896l2.064-2.896h1.632l-2.848,3.808l3.199,4.464h-1.743l-2.305-3.424
			l-2.304,3.424h-1.648l3.104-4.352L75.213,36.106z"/>
	</g>
</g>
<g id="Layer_3" display="none">
	<g display="inline" opacity="0.2">
		<g>
			<line fill="none" stroke="#00FFFF" stroke-miterlimit="10" x1="-825.269" y1="176.816" x2="198.731" y2="176.816"/>
		</g>
		<g>
			<line fill="none" stroke="#00FFFF" stroke-miterlimit="10" x1="-825.269" y1="170.816" x2="198.731" y2="170.816"/>
		</g>
		<g>
			<line fill="none" stroke="#00FFFF" stroke-miterlimit="10" x1="-825.269" y1="164.816" x2="198.731" y2="164.816"/>
		</g>
		<g>
			<line fill="none" stroke="#00FFFF" stroke-miterlimit="10" x1="-825.269" y1="158.816" x2="198.731" y2="158.816"/>
		</g>
		<g>
			<line fill="none" stroke="#00FFFF" stroke-miterlimit="10" x1="-825.269" y1="152.816" x2="198.731" y2="152.816"/>
		</g>
		<g>
			<line fill="none" stroke="#00FFFF" stroke-miterlimit="10" x1="-825.269" y1="146.816" x2="198.731" y2="146.816"/>
		</g>
		<g>
			<line fill="none" stroke="#00FFFF" stroke-miterlimit="10" x1="-825.269" y1="140.816" x2="198.731" y2="140.816"/>
		</g>
		<g>
			<line fill="none" stroke="#00FFFF" stroke-miterlimit="10" x1="-825.269" y1="134.816" x2="198.731" y2="134.816"/>
		</g>
		<g>
			<line fill="none" stroke="#00FFFF" stroke-miterlimit="10" x1="-825.269" y1="128.816" x2="198.731" y2="128.816"/>
		</g>
		<g>
			<line fill="none" stroke="#00FFFF" stroke-miterlimit="10" x1="-825.269" y1="122.816" x2="198.731" y2="122.816"/>
		</g>
		<g>
			<line fill="none" stroke="#00FFFF" stroke-miterlimit="10" x1="-825.269" y1="116.816" x2="198.731" y2="116.816"/>
		</g>
		<g>
			<line fill="none" stroke="#00FFFF" stroke-miterlimit="10" x1="-825.269" y1="110.816" x2="198.731" y2="110.816"/>
		</g>
		<g>
			<line fill="none" stroke="#00FFFF" stroke-miterlimit="10" x1="-825.269" y1="104.816" x2="198.731" y2="104.816"/>
		</g>
		<g>
			<line fill="none" stroke="#00FFFF" stroke-miterlimit="10" x1="-825.269" y1="98.816" x2="198.731" y2="98.816"/>
		</g>
		<g>
			<line fill="none" stroke="#00FFFF" stroke-miterlimit="10" x1="-825.269" y1="92.816" x2="198.731" y2="92.816"/>
		</g>
		<g>
			<line fill="none" stroke="#00FFFF" stroke-miterlimit="10" x1="-825.269" y1="86.816" x2="198.731" y2="86.816"/>
		</g>
		<g>
			<line fill="none" stroke="#00FFFF" stroke-miterlimit="10" x1="-825.269" y1="80.816" x2="198.731" y2="80.816"/>
		</g>
		<g>
			<line fill="none" stroke="#00FFFF" stroke-miterlimit="10" x1="-825.269" y1="74.816" x2="198.731" y2="74.816"/>
		</g>
		<g>
			<line fill="none" stroke="#00FFFF" stroke-miterlimit="10" x1="-825.269" y1="68.816" x2="198.731" y2="68.816"/>
		</g>
		<g>
			<line fill="none" stroke="#00FFFF" stroke-miterlimit="10" x1="-825.269" y1="62.816" x2="198.731" y2="62.816"/>
		</g>
		<g>
			<line fill="none" stroke="#00FFFF" stroke-miterlimit="10" x1="-825.269" y1="56.816" x2="198.731" y2="56.816"/>
		</g>
		<g>
			<line fill="none" stroke="#00FFFF" stroke-miterlimit="10" x1="-825.269" y1="50.816" x2="198.731" y2="50.816"/>
		</g>
		<g>
			<line fill="none" stroke="#00FFFF" stroke-miterlimit="10" x1="-825.269" y1="44.816" x2="198.731" y2="44.816"/>
		</g>
		<g>
			<line fill="none" stroke="#00FFFF" stroke-miterlimit="10" x1="-825.269" y1="38.816" x2="198.731" y2="38.816"/>
		</g>
		<g>
			<line fill="none" stroke="#00FFFF" stroke-miterlimit="10" x1="-825.269" y1="32.816" x2="198.731" y2="32.816"/>
		</g>
		<g>
			<line fill="none" stroke="#00FFFF" stroke-miterlimit="10" x1="-825.269" y1="26.816" x2="198.731" y2="26.816"/>
		</g>
		<g>
			<line fill="none" stroke="#00FFFF" stroke-miterlimit="10" x1="-825.269" y1="20.816" x2="198.731" y2="20.816"/>
		</g>
		<g>
			<line fill="none" stroke="#00FFFF" stroke-miterlimit="10" x1="-825.269" y1="14.816" x2="198.731" y2="14.816"/>
		</g>
		<g>
			<line fill="none" stroke="#00FFFF" stroke-miterlimit="10" x1="-825.269" y1="8.816" x2="198.731" y2="8.816"/>
		</g>
		<g>
			<line fill="none" stroke="#00FFFF" stroke-miterlimit="10" x1="-825.269" y1="2.816" x2="198.731" y2="2.816"/>
		</g>
	</g>
</g>
<g id="Layer_2">
</g>
</svg>
