<?xml version="1.0" encoding="utf-8"?>
<!-- Generator: Adobe Illustrator 18.0.0, SVG Export Plug-In . SVG Version: 6.00 Build 0)  -->
<!DOCTYPE svg PUBLIC "-//W3C//DTD SVG 1.1//EN" "http://www.w3.org/Graphics/SVG/1.1/DTD/svg11.dtd">
<svg version="1.1" id="Layer_1" xmlns="http://www.w3.org/2000/svg" xmlns:xlink="http://www.w3.org/1999/xlink" x="0px" y="0px"
	 viewBox="0 0 308.7 128.1" width="308.7" height="128.1"  enable-background="new 0 0 308.7 128.1" xml:space="preserve">
<g>
	<g>
		<path fill="#9855D4" d="M0,0v93.5v4.9L29.5,128h4.9H128V0H0z M123.1,123.1H34.5V93.5H4.9V4.9h118.2V123.1z"/>
	</g>
	<g>
		<polygon fill="#9855D4" points="97,50.3 90.1,43.3 54.2,79.2 37.9,63 31,69.9 54.2,93.1 		"/>
	</g>
</g>
<g>
	<g>
		<path fill="#323232" d="M303.2,0.1h-116c-3.3,0-6.4,2.7-6.4,6v93.6l4.2,4l20.4,20.3l4.1,4h5.8h88c3.3,0,5.6-2.7,5.6-6V6.1
			C308.7,2.8,306.5,0.1,303.2,0.1z M304.7,122.1c0,1.1-0.5,2-1.6,2h-88.4v-24c0-3.3-2.2-6-5.6-6h-24.4v-88c0-1.1,1.3-2,2.4-2h116
			c1.1,0,1.6,0.9,1.6,2V122.1z"/>
	</g>
	<g>
		<path fill="#323232" d="M265.2,46.1c-1.6-1.6-4.1-1.6-5.7,0L248,57.6c-1.6,1.6-4.1,1.6-5.7,0l-11.5-11.5c-1.6-1.6-4.1-1.6-5.7,0
			s-1.6,4.1,0,5.7l11.5,11.5c1.6,1.6,1.6,4.1,0,5.7l-11.5,11.5c-1.6,1.6-1.6,4.1,0,5.7s4.1,1.6,5.7,0l11.5-11.5
			c1.6-1.6,4.1-1.6,5.7,0l11.5,11.5c1.6,1.6,4.1,1.6,5.7,0s1.6-4.1,0-5.7l-11.5-11.5c-1.6-1.6-1.6-4.1,0-5.7l11.5-11.5
			C266.8,50.2,266.8,47.7,265.2,46.1z"/>
	</g>
</g>
</svg>
