<?xml version="1.0" encoding="utf-8"?>
<!-- Generator: Adobe Illustrator 18.1.1, SVG Export Plug-In . SVG Version: 6.00 Build 0)  -->
<svg version="1.1" id="Layer_1" xmlns="http://www.w3.org/2000/svg" xmlns:xlink="http://www.w3.org/1999/xlink" x="0px" y="0px"
	 viewBox="0 0 138.3 80" width="138.3" height="80"  enable-background="new 0 0 138.3 80" xml:space="preserve">
<g>
	<rect x="2" y="7.5" fill="#F9F9F9" width="44.9" height="44.9"/>
	<path fill="#6EEDD8" d="M48.9,54.4H0V5.5h48.9V54.4z M4,50.4h40.9V9.5H4V50.4z"/>
</g>
<g>
	<rect x="19" y="22.3" fill="#F9F9F9" width="44.9" height="44.9"/>
	<path fill="#41D6C3" d="M65.9,69.2H17V20.3h48.9V69.2z M21,65.2h40.9V24.3H21V65.2z"/>
</g>
<g>
	<rect x="46" y="33.1" fill="#F9F9F9" width="44.9" height="44.9"/>
	<path fill="#00B4A0" d="M92.9,80H44V31.1h48.9V80z M48,76h40.9V35.1H48V76z"/>
</g>
<g>
	<rect x="74.5" y="18" fill="#F9F9F9" width="44.9" height="44.9"/>
	<path fill="#008571" d="M121.3,64.9H72.5V16h48.9V64.9z M76.5,60.9h40.9V20H76.5V60.9z"/>
</g>
<g>
	<rect x="91.5" y="2" fill="#F9F9F9" width="44.9" height="44.9"/>
	<path fill="#323232" d="M138.3,48.9H89.5V0h48.9V48.9z M93.5,44.9h40.9V4H93.5V44.9z"/>
</g>
</svg>
